%TF.GenerationSoftware,KiCad,Pcbnew,(5.1.8)-1*%
%TF.CreationDate,2020-11-11T18:37:22-08:00*%
%TF.ProjectId,MicroMotor,4d696372-6f4d-46f7-946f-722e6b696361,rev?*%
%TF.SameCoordinates,Original*%
%TF.FileFunction,Copper,L2,Inr*%
%TF.FilePolarity,Positive*%
%FSLAX46Y46*%
G04 Gerber Fmt 4.6, Leading zero omitted, Abs format (unit mm)*
G04 Created by KiCad (PCBNEW (5.1.8)-1) date 2020-11-11 18:37:22*
%MOMM*%
%LPD*%
G01*
G04 APERTURE LIST*
%TA.AperFunction,ComponentPad*%
%ADD10C,0.850000*%
%TD*%
%TA.AperFunction,ComponentPad*%
%ADD11O,1.500000X3.000000*%
%TD*%
%TA.AperFunction,ComponentPad*%
%ADD12R,1.700000X1.700000*%
%TD*%
%TA.AperFunction,ComponentPad*%
%ADD13O,1.700000X1.700000*%
%TD*%
%TA.AperFunction,ComponentPad*%
%ADD14C,0.499999*%
%TD*%
%TA.AperFunction,ViaPad*%
%ADD15C,0.800000*%
%TD*%
%TA.AperFunction,ViaPad*%
%ADD16C,0.600000*%
%TD*%
%TA.AperFunction,Conductor*%
%ADD17C,0.250000*%
%TD*%
%TA.AperFunction,Conductor*%
%ADD18C,0.100000*%
%TD*%
G04 APERTURE END LIST*
D10*
%TO.N,GND*%
%TO.C,J8*%
X113200000Y-108350000D03*
%TD*%
%TO.N,HALL_B*%
%TO.C,J8*%
X112100000Y-108350000D03*
%TD*%
%TO.N,HALL_A*%
%TO.C,J8*%
X111000000Y-108350000D03*
%TD*%
%TO.N,HALL_C*%
%TO.C,J8*%
X109900000Y-108350000D03*
%TD*%
D11*
%TO.N,MTR_A*%
%TO.C,REF\u002A\u002A*%
X111200000Y-97800000D03*
%TD*%
%TO.N,MTR_B*%
%TO.C,REF\u002A\u002A*%
X111200000Y-85800000D03*
%TD*%
%TO.N,MTR_C*%
%TO.C,REF\u002A\u002A*%
X111200000Y-73750000D03*
%TD*%
%TO.N,+VDC*%
%TO.C,J4*%
%TA.AperFunction,ComponentPad*%
G36*
G01*
X168192000Y-111350000D02*
X168192000Y-107950000D01*
G75*
G02*
X168992000Y-107150000I800000J0D01*
G01*
X170592000Y-107150000D01*
G75*
G02*
X171392000Y-107950000I0J-800000D01*
G01*
X171392000Y-111350000D01*
G75*
G02*
X170592000Y-112150000I-800000J0D01*
G01*
X168992000Y-112150000D01*
G75*
G02*
X168192000Y-111350000I0J800000D01*
G01*
G37*
%TD.AperFunction*%
%TO.N,GND*%
%TA.AperFunction,ComponentPad*%
G36*
G01*
X172256000Y-111370000D02*
X172256000Y-107970000D01*
G75*
G02*
X173056000Y-107170000I800000J0D01*
G01*
X174656000Y-107170000D01*
G75*
G02*
X175456000Y-107970000I0J-800000D01*
G01*
X175456000Y-111370000D01*
G75*
G02*
X174656000Y-112170000I-800000J0D01*
G01*
X173056000Y-112170000D01*
G75*
G02*
X172256000Y-111370000I0J800000D01*
G01*
G37*
%TD.AperFunction*%
%TD*%
D12*
%TO.N,Encod_A*%
%TO.C,J3*%
X157200000Y-72700000D03*
D13*
%TO.N,Encod_B*%
X159740000Y-72700000D03*
%TO.N,Encod_Z*%
X162280000Y-72700000D03*
%TO.N,5V_Out*%
X164820000Y-72700000D03*
%TO.N,GND*%
X167360000Y-72700000D03*
%TD*%
D14*
%TO.N,N/C*%
%TO.C,U4*%
X149950003Y-77349998D03*
X150650004Y-76399997D03*
X149250001Y-76399997D03*
X149950003Y-75449997D03*
%TD*%
%TO.N,N/C*%
%TO.C,U6*%
X149949997Y-92900000D03*
X149249996Y-93850001D03*
X150649999Y-93850001D03*
X149949997Y-94800001D03*
%TD*%
%TO.N,N/C*%
%TO.C,U5*%
X148550003Y-84500003D03*
X147600003Y-83800001D03*
X147600003Y-85200004D03*
X146650002Y-84500003D03*
%TD*%
D12*
%TO.N,SWDIO*%
%TO.C,J2*%
X156300000Y-96700000D03*
D13*
%TO.N,SWCLK*%
X158840000Y-96700000D03*
%TO.N,+3V3*%
X161380000Y-96700000D03*
%TO.N,GND*%
X163920000Y-96700000D03*
%TD*%
D15*
%TO.N,GNDS*%
X183100000Y-77900000D03*
X180000000Y-82300000D03*
X174400000Y-81300000D03*
X171250000Y-90650000D03*
X171425000Y-87275000D03*
X176200846Y-87000846D03*
%TO.N,GND*%
X139300000Y-102550000D03*
X140400000Y-102550000D03*
X141500000Y-102550000D03*
X148300000Y-102600000D03*
X150500000Y-102600000D03*
X149400000Y-102600000D03*
X126000000Y-81450000D03*
X124850000Y-82500000D03*
X126000000Y-82500000D03*
X124850000Y-81450000D03*
X124600000Y-93450000D03*
X125750000Y-93450000D03*
X125750000Y-94500000D03*
X124600000Y-94500000D03*
X130300000Y-98050000D03*
X131450000Y-98050000D03*
X131450000Y-99100000D03*
X130300000Y-99100000D03*
X130300000Y-100150000D03*
X134000000Y-103450000D03*
X132850000Y-103450000D03*
X131700000Y-102400000D03*
X134000000Y-102400000D03*
X135150000Y-103450000D03*
X132850000Y-102400000D03*
X135150000Y-102400000D03*
X131700000Y-103450000D03*
X166850000Y-101550000D03*
X166850000Y-100350000D03*
X168850000Y-100350000D03*
X170850000Y-100350000D03*
X169850000Y-100350000D03*
X171850000Y-100350000D03*
X167850000Y-100350000D03*
X155500000Y-100000000D03*
X154500000Y-100000000D03*
X156500000Y-100000000D03*
X157500000Y-100000000D03*
X158500000Y-100000000D03*
X157500000Y-101000000D03*
X158500000Y-101000000D03*
X159500000Y-100000000D03*
X159500000Y-101000000D03*
X158500000Y-102000000D03*
X119650000Y-78500000D03*
X120900000Y-78500000D03*
X120900000Y-86350000D03*
X120900000Y-87550000D03*
X120900000Y-90500000D03*
X143850000Y-100750000D03*
X143850000Y-99750000D03*
X137000000Y-100750000D03*
X137000000Y-99750000D03*
X147250000Y-99750000D03*
X151500000Y-99750000D03*
X147250000Y-100750000D03*
X151500000Y-100750000D03*
X151500000Y-101750000D03*
X147250000Y-101750000D03*
X138250000Y-99750000D03*
X142500000Y-99750000D03*
X138250000Y-100750000D03*
X142500000Y-100750000D03*
X166500000Y-83400000D03*
X156700000Y-81200000D03*
X161700000Y-92800000D03*
X154300000Y-82000000D03*
X154100000Y-88800000D03*
X151900000Y-90300000D03*
X168100000Y-91800000D03*
X165600000Y-81800000D03*
X160521716Y-74723392D03*
X149800000Y-74500000D03*
X154650000Y-76374996D03*
X147400002Y-75150000D03*
X149750000Y-78300000D03*
X151300000Y-95850000D03*
X150150000Y-91950000D03*
X153824847Y-94349848D03*
X146950386Y-94891765D03*
X150300000Y-83750000D03*
X148964646Y-81959187D03*
X148964646Y-87500008D03*
X144575000Y-83700000D03*
X175450000Y-98175000D03*
X170474990Y-97825010D03*
X163700000Y-102600000D03*
X142300000Y-88700000D03*
X171850000Y-101550000D03*
X167850000Y-101550000D03*
X168850000Y-101550000D03*
X169850000Y-101550000D03*
X170850000Y-101550000D03*
X167850000Y-102750000D03*
X168850000Y-102750000D03*
X169850000Y-102750000D03*
X170850000Y-102750000D03*
X154500000Y-103000000D03*
X154500000Y-102000000D03*
X154500000Y-101000000D03*
X155500000Y-101000000D03*
X156500000Y-101000000D03*
X175200000Y-103250000D03*
X174200000Y-103250000D03*
X120900000Y-74300000D03*
X120900000Y-75500000D03*
X119650000Y-74300000D03*
X119650000Y-75500000D03*
X136500000Y-71250000D03*
X122050000Y-86350000D03*
X122050000Y-87550000D03*
X122300000Y-74650000D03*
X122300000Y-75800000D03*
X122550000Y-98950000D03*
X122550000Y-100100000D03*
X137000000Y-101750000D03*
X138250000Y-101750000D03*
X142500000Y-101750000D03*
X143850000Y-101750000D03*
X146000000Y-99750000D03*
X146000000Y-100750000D03*
X146000000Y-101750000D03*
X152750000Y-99750000D03*
X152750000Y-100750000D03*
X152750000Y-101750000D03*
X175200000Y-104250000D03*
X174200000Y-104250000D03*
X173200000Y-104250000D03*
X180650000Y-98500000D03*
X180650000Y-99500000D03*
X180650000Y-100500000D03*
X180650000Y-101500000D03*
X181500000Y-104500000D03*
X183000000Y-104500000D03*
X183000000Y-106000000D03*
X181500000Y-106000000D03*
X180000000Y-106000000D03*
X178500000Y-106000000D03*
X177000000Y-106000000D03*
X177000000Y-107500000D03*
X178500000Y-107500000D03*
X180000000Y-107500000D03*
X181500000Y-107500000D03*
X183000000Y-107500000D03*
X122450000Y-108000000D03*
X122800000Y-96450000D03*
X127350000Y-96700000D03*
X127350000Y-98400000D03*
X127300000Y-100050000D03*
X125800000Y-100050000D03*
X125850000Y-96550000D03*
X123400000Y-94450000D03*
X123400000Y-92600000D03*
X126800000Y-94500000D03*
%TO.N,3v3Out*%
X182650000Y-88800000D03*
X173800000Y-89850000D03*
X180050000Y-87000000D03*
X171250000Y-84750000D03*
X176225000Y-83550000D03*
%TO.N,+3V3*%
X166500000Y-86000000D03*
X162900000Y-79600000D03*
X162670144Y-92557464D03*
X154300000Y-83000003D03*
X152900000Y-90000000D03*
X164818359Y-81176252D03*
X151350000Y-74350000D03*
X155262173Y-77165723D03*
X146399999Y-75150000D03*
X149900000Y-95800000D03*
X154025000Y-93370082D03*
X146998775Y-93818070D03*
X150250000Y-84900000D03*
X149729196Y-81314619D03*
X149870727Y-87923117D03*
X156600000Y-78400000D03*
X159500000Y-93300000D03*
X168400000Y-80900000D03*
X169400000Y-97850000D03*
X168350000Y-97850000D03*
X167950000Y-98850000D03*
%TO.N,+VDC*%
X167350000Y-104700000D03*
X168500000Y-105700000D03*
X168500000Y-104700000D03*
X148300000Y-104250000D03*
X149400000Y-104250000D03*
X150500000Y-104250000D03*
X108600000Y-71450000D03*
X108600000Y-73450000D03*
X108600000Y-75450000D03*
X108600000Y-107500000D03*
X108600000Y-85500000D03*
X108600000Y-87500000D03*
X108600000Y-83500000D03*
X108600000Y-95500000D03*
X108600000Y-99500000D03*
X108600000Y-97500000D03*
X110000000Y-79500000D03*
X111400000Y-79500000D03*
X108600000Y-79500000D03*
X110000000Y-81500000D03*
X108600000Y-81500000D03*
X111400000Y-81500000D03*
X110000000Y-91500000D03*
X108600000Y-91500000D03*
X111400000Y-93500000D03*
X110000000Y-93500000D03*
X108600000Y-93500000D03*
X111400000Y-91500000D03*
X110000000Y-89500000D03*
X111400000Y-89500000D03*
X108600000Y-89500000D03*
X110000000Y-103500000D03*
X108600000Y-103500000D03*
X111400000Y-105500000D03*
X110000000Y-105500000D03*
X108600000Y-105500000D03*
X111400000Y-103500000D03*
X110000000Y-101500000D03*
X111400000Y-101500000D03*
X108600000Y-101500000D03*
X135150000Y-105300000D03*
X135150000Y-106350000D03*
X134000000Y-105300000D03*
X134000000Y-106350000D03*
X132850000Y-106350000D03*
X132850000Y-105300000D03*
X131700000Y-106350000D03*
X131700000Y-105300000D03*
X166200000Y-108700000D03*
X167350000Y-108700000D03*
X158550000Y-108700000D03*
X164950000Y-108700000D03*
X162450000Y-108700000D03*
X161100000Y-108700000D03*
X159850000Y-108700000D03*
X163700000Y-108700000D03*
X114500000Y-92400000D03*
X115750000Y-93650000D03*
X114500000Y-91150000D03*
X113250000Y-89900000D03*
X115750000Y-91150000D03*
X113250000Y-91150000D03*
X115750000Y-89900000D03*
X115750000Y-92400000D03*
X113250000Y-93650000D03*
X114500000Y-93650000D03*
X114500000Y-104200000D03*
X115750000Y-105700000D03*
X114500000Y-103200000D03*
X113250000Y-101950000D03*
X115750000Y-103200000D03*
X113250000Y-103200000D03*
X115750000Y-101950000D03*
X115750000Y-104450000D03*
X114500000Y-101950000D03*
X113250000Y-104200000D03*
X114500000Y-89900000D03*
X113250000Y-92400000D03*
X115750000Y-77900000D03*
X166200000Y-105700000D03*
X167350000Y-105700000D03*
X162450000Y-107700000D03*
X164950000Y-107700000D03*
X163700000Y-107700000D03*
X158550000Y-107700000D03*
X161100000Y-107700000D03*
X159850000Y-107700000D03*
X138250000Y-105000000D03*
X142500000Y-105000000D03*
X147250000Y-105000000D03*
X151500000Y-105000000D03*
X166200000Y-106700000D03*
X167350000Y-106700000D03*
X166200000Y-107700000D03*
X167350000Y-107700000D03*
X115750000Y-79150000D03*
X115750000Y-80400000D03*
X115750000Y-81650000D03*
X114500000Y-77900000D03*
X114500000Y-79150000D03*
X114500000Y-80400000D03*
X114500000Y-81650000D03*
X113250000Y-77900000D03*
X113250000Y-79150000D03*
X113250000Y-80400000D03*
X113250000Y-81650000D03*
X138250000Y-106050000D03*
X142500000Y-106000000D03*
X143600000Y-105000000D03*
X143600000Y-106000000D03*
X137100000Y-105000000D03*
X137100000Y-106050000D03*
X147250000Y-106050000D03*
X146150000Y-106050000D03*
X146150000Y-105000000D03*
X151500000Y-106050000D03*
X152700000Y-106050000D03*
X152700000Y-105000000D03*
X108600000Y-77500000D03*
X110000000Y-77500000D03*
X111400000Y-77500000D03*
X139300000Y-104250000D03*
X140400000Y-104250000D03*
X141500000Y-104250000D03*
%TO.N,+10V*%
X133000000Y-90000000D03*
X142000000Y-96400000D03*
X132800000Y-73050000D03*
X136200000Y-73100000D03*
X139600000Y-73100000D03*
X160450000Y-99000000D03*
%TO.N,5V_Out*%
X174100000Y-94450000D03*
%TO.N,MTR_A*%
X117050000Y-95750000D03*
X117050000Y-99900000D03*
X115800000Y-98250000D03*
X114550000Y-98250000D03*
X113300000Y-98250000D03*
X115800000Y-95750000D03*
X115800000Y-97000000D03*
X113300000Y-99900000D03*
X115800000Y-99900000D03*
X114550000Y-97000000D03*
X117050000Y-97000000D03*
X114550000Y-99900000D03*
X113300000Y-95750000D03*
X114550000Y-95750000D03*
X117050000Y-98250000D03*
X113300000Y-97000000D03*
D16*
X117300000Y-104000000D03*
X117300000Y-101450000D03*
X117300000Y-102700000D03*
D15*
%TO.N,MTR_B*%
X117050000Y-83750000D03*
X117050000Y-87900000D03*
X115800000Y-86250000D03*
X114550000Y-86250000D03*
X113300000Y-86250000D03*
X115800000Y-83750000D03*
X115800000Y-85000000D03*
X113300000Y-87900000D03*
X115800000Y-87900000D03*
X114550000Y-85000000D03*
X117050000Y-85000000D03*
X114550000Y-87900000D03*
X113300000Y-83750000D03*
X114550000Y-83750000D03*
X117050000Y-86250000D03*
X113300000Y-85000000D03*
D16*
X117300000Y-92000000D03*
X117300000Y-89450000D03*
X117300000Y-90700000D03*
D15*
%TO.N,BHB*%
X126050000Y-91300000D03*
X139250000Y-95100000D03*
%TO.N,MTR_C*%
X117050000Y-71700000D03*
D16*
X117300000Y-77400000D03*
X117300000Y-78650000D03*
X117300000Y-79950000D03*
X117300000Y-81200000D03*
D15*
X117050000Y-72950000D03*
X117050000Y-74200000D03*
X117050000Y-75850000D03*
X115800000Y-71700000D03*
X115800000Y-72950000D03*
X115800000Y-74200000D03*
X115800000Y-75850000D03*
X114550000Y-71700000D03*
X114550000Y-72950000D03*
X114550000Y-74200000D03*
X114550000Y-75850000D03*
X113300000Y-71700000D03*
X113300000Y-72950000D03*
X113300000Y-74200000D03*
X113300000Y-75850000D03*
X126200000Y-77400000D03*
X133400000Y-83650000D03*
%TO.N,Net-(D1-Pad1)*%
X181050000Y-88800000D03*
X181392681Y-84825000D03*
%TO.N,SWDIO*%
X161100000Y-93800000D03*
%TO.N,SWCLK*%
X162100000Y-94300000D03*
X162604685Y-89344508D03*
%TO.N,Encod_A*%
X155400000Y-78200000D03*
%TO.N,Encod_B*%
X157900000Y-81700000D03*
%TO.N,Encod_Z*%
X160700000Y-81700000D03*
%TO.N,Net-(R1-Pad2)*%
X178898481Y-88244679D03*
X178688695Y-82212979D03*
%TO.N,Net-(R2-Pad1)*%
X177799996Y-88300000D03*
X176950000Y-80800000D03*
%TO.N,Net-(R6-Pad2)*%
X165525640Y-83625000D03*
X168100000Y-88500000D03*
%TO.N,DIS*%
X156900000Y-94600000D03*
X147700000Y-88500000D03*
X144575000Y-88500000D03*
X142500000Y-83700000D03*
X144150000Y-79750000D03*
%TO.N,Net-(R10-Pad2)*%
X143800000Y-93900000D03*
X142674990Y-87500000D03*
%TO.N,Net-(R11-Pad1)*%
X122584314Y-89134314D03*
X129900000Y-95100000D03*
%TO.N,Net-(R13-Pad1)*%
X132953165Y-88746836D03*
X130600000Y-77750000D03*
%TO.N,Net-(R14-Pad1)*%
X122500000Y-77300000D03*
X129650000Y-82400000D03*
%TO.N,Net-(R16-Pad1)*%
X122600000Y-101200000D03*
X133050000Y-101200000D03*
X135200010Y-86950000D03*
X133050000Y-86200000D03*
%TO.N,HALL_A*%
X165600000Y-88300000D03*
X124450000Y-108000000D03*
%TO.N,HALL_B*%
X162500000Y-88350000D03*
X123450000Y-108000000D03*
%TO.N,+PWM*%
X153332678Y-91542016D03*
X147014800Y-91509880D03*
X146050010Y-86749990D03*
X146329943Y-81895379D03*
X146200000Y-77374997D03*
X151500000Y-78300000D03*
%TO.N,-PWM*%
X154014914Y-92273150D03*
X147200000Y-92600000D03*
X145300000Y-87600000D03*
X145300000Y-81899990D03*
X145372521Y-76813497D03*
%TO.N,HALL_C*%
X165650000Y-87300000D03*
X125450000Y-108000000D03*
%TO.N,Net-(R22-Pad2)*%
X173800000Y-82250000D03*
X175049154Y-83099154D03*
%TD*%
D17*
%TO.N,GND*%
X113550000Y-108000000D02*
X113200000Y-108350000D01*
X122450000Y-108000000D02*
X113550000Y-108000000D01*
%TO.N,HALL_A*%
X122101999Y-107274999D02*
X121827008Y-107549990D01*
X124290684Y-107274999D02*
X122101999Y-107274999D01*
X124450000Y-108000000D02*
X124450000Y-107434315D01*
X124450000Y-107434315D02*
X124290684Y-107274999D01*
X113250001Y-107599999D02*
X111750001Y-107599999D01*
X113300010Y-107549990D02*
X113250001Y-107599999D01*
X111750001Y-107599999D02*
X111000000Y-108350000D01*
X121827008Y-107549990D02*
X113300010Y-107549990D01*
%TO.N,HALL_B*%
X123450000Y-108000000D02*
X123450000Y-108150000D01*
X122101999Y-108725001D02*
X121827008Y-108450010D01*
X123200000Y-108000000D02*
X123175001Y-108024999D01*
X123175001Y-108024999D02*
X123175001Y-108348001D01*
X123450000Y-108000000D02*
X123200000Y-108000000D01*
X123175001Y-108348001D02*
X122798001Y-108725001D01*
X122798001Y-108725001D02*
X122101999Y-108725001D01*
X121827008Y-108450010D02*
X114300000Y-108450010D01*
X113650009Y-109100001D02*
X112850001Y-109100001D01*
X112850001Y-109100001D02*
X112100000Y-108350000D01*
X114300000Y-108450010D02*
X113650009Y-109100001D01*
%TO.N,HALL_C*%
X124840674Y-106824989D02*
X121915598Y-106824990D01*
X121915598Y-106824990D02*
X121640608Y-107099980D01*
X125450000Y-108000000D02*
X125450000Y-107434315D01*
X125450000Y-107434315D02*
X124840674Y-106824989D01*
X110650001Y-107599999D02*
X109900000Y-108350000D01*
X111113591Y-107599999D02*
X110650001Y-107599999D01*
X111613608Y-107099982D02*
X111113591Y-107599999D01*
X121640608Y-107099980D02*
X111613608Y-107099982D01*
%TD*%
%TO.N,GNDS*%
X183516167Y-70613309D02*
X183627913Y-70647047D01*
X183730971Y-70701843D01*
X183821430Y-70775620D01*
X183895832Y-70865556D01*
X183951350Y-70968236D01*
X183985865Y-71079735D01*
X184000000Y-71214214D01*
X184000001Y-92775000D01*
X170225000Y-92775000D01*
X170225000Y-89773669D01*
X173025000Y-89773669D01*
X173025000Y-89926331D01*
X173054783Y-90076059D01*
X173113204Y-90217100D01*
X173198018Y-90344034D01*
X173305966Y-90451982D01*
X173432900Y-90536796D01*
X173573941Y-90595217D01*
X173723669Y-90625000D01*
X173876331Y-90625000D01*
X174026059Y-90595217D01*
X174167100Y-90536796D01*
X174294034Y-90451982D01*
X174401982Y-90344034D01*
X174486796Y-90217100D01*
X174545217Y-90076059D01*
X174575000Y-89926331D01*
X174575000Y-89773669D01*
X174545217Y-89623941D01*
X174486796Y-89482900D01*
X174401982Y-89355966D01*
X174294034Y-89248018D01*
X174167100Y-89163204D01*
X174026059Y-89104783D01*
X173876331Y-89075000D01*
X173723669Y-89075000D01*
X173573941Y-89104783D01*
X173432900Y-89163204D01*
X173305966Y-89248018D01*
X173198018Y-89355966D01*
X173113204Y-89482900D01*
X173054783Y-89623941D01*
X173025000Y-89773669D01*
X170225000Y-89773669D01*
X170225000Y-88223669D01*
X177024996Y-88223669D01*
X177024996Y-88376331D01*
X177054779Y-88526059D01*
X177113200Y-88667100D01*
X177198014Y-88794034D01*
X177305962Y-88901982D01*
X177432896Y-88986796D01*
X177573937Y-89045217D01*
X177723665Y-89075000D01*
X177876327Y-89075000D01*
X178026055Y-89045217D01*
X178167096Y-88986796D01*
X178294030Y-88901982D01*
X178376899Y-88819113D01*
X178404447Y-88846661D01*
X178531381Y-88931475D01*
X178672422Y-88989896D01*
X178822150Y-89019679D01*
X178974812Y-89019679D01*
X179124540Y-88989896D01*
X179265581Y-88931475D01*
X179392515Y-88846661D01*
X179500463Y-88738713D01*
X179510515Y-88723669D01*
X180275000Y-88723669D01*
X180275000Y-88876331D01*
X180304783Y-89026059D01*
X180363204Y-89167100D01*
X180448018Y-89294034D01*
X180555966Y-89401982D01*
X180682900Y-89486796D01*
X180823941Y-89545217D01*
X180973669Y-89575000D01*
X181126331Y-89575000D01*
X181276059Y-89545217D01*
X181417100Y-89486796D01*
X181544034Y-89401982D01*
X181651982Y-89294034D01*
X181736796Y-89167100D01*
X181795217Y-89026059D01*
X181825000Y-88876331D01*
X181825000Y-88723669D01*
X181875000Y-88723669D01*
X181875000Y-88876331D01*
X181904783Y-89026059D01*
X181963204Y-89167100D01*
X182048018Y-89294034D01*
X182155966Y-89401982D01*
X182282900Y-89486796D01*
X182423941Y-89545217D01*
X182573669Y-89575000D01*
X182726331Y-89575000D01*
X182876059Y-89545217D01*
X183017100Y-89486796D01*
X183144034Y-89401982D01*
X183251982Y-89294034D01*
X183336796Y-89167100D01*
X183395217Y-89026059D01*
X183425000Y-88876331D01*
X183425000Y-88723669D01*
X183395217Y-88573941D01*
X183336796Y-88432900D01*
X183251982Y-88305966D01*
X183144034Y-88198018D01*
X183017100Y-88113204D01*
X182876059Y-88054783D01*
X182726331Y-88025000D01*
X182573669Y-88025000D01*
X182423941Y-88054783D01*
X182282900Y-88113204D01*
X182155966Y-88198018D01*
X182048018Y-88305966D01*
X181963204Y-88432900D01*
X181904783Y-88573941D01*
X181875000Y-88723669D01*
X181825000Y-88723669D01*
X181795217Y-88573941D01*
X181736796Y-88432900D01*
X181651982Y-88305966D01*
X181544034Y-88198018D01*
X181417100Y-88113204D01*
X181276059Y-88054783D01*
X181126331Y-88025000D01*
X180973669Y-88025000D01*
X180823941Y-88054783D01*
X180682900Y-88113204D01*
X180555966Y-88198018D01*
X180448018Y-88305966D01*
X180363204Y-88432900D01*
X180304783Y-88573941D01*
X180275000Y-88723669D01*
X179510515Y-88723669D01*
X179585277Y-88611779D01*
X179643698Y-88470738D01*
X179673481Y-88321010D01*
X179673481Y-88168348D01*
X179643698Y-88018620D01*
X179585277Y-87877579D01*
X179500463Y-87750645D01*
X179392515Y-87642697D01*
X179265581Y-87557883D01*
X179124540Y-87499462D01*
X178974812Y-87469679D01*
X178822150Y-87469679D01*
X178672422Y-87499462D01*
X178531381Y-87557883D01*
X178404447Y-87642697D01*
X178321578Y-87725566D01*
X178294030Y-87698018D01*
X178167096Y-87613204D01*
X178026055Y-87554783D01*
X177876327Y-87525000D01*
X177723665Y-87525000D01*
X177573937Y-87554783D01*
X177432896Y-87613204D01*
X177305962Y-87698018D01*
X177198014Y-87805966D01*
X177113200Y-87932900D01*
X177054779Y-88073941D01*
X177024996Y-88223669D01*
X170225000Y-88223669D01*
X170225000Y-86923669D01*
X179275000Y-86923669D01*
X179275000Y-87076331D01*
X179304783Y-87226059D01*
X179363204Y-87367100D01*
X179448018Y-87494034D01*
X179555966Y-87601982D01*
X179682900Y-87686796D01*
X179823941Y-87745217D01*
X179973669Y-87775000D01*
X180126331Y-87775000D01*
X180276059Y-87745217D01*
X180417100Y-87686796D01*
X180544034Y-87601982D01*
X180651982Y-87494034D01*
X180736796Y-87367100D01*
X180795217Y-87226059D01*
X180825000Y-87076331D01*
X180825000Y-86923669D01*
X180795217Y-86773941D01*
X180736796Y-86632900D01*
X180651982Y-86505966D01*
X180544034Y-86398018D01*
X180417100Y-86313204D01*
X180276059Y-86254783D01*
X180126331Y-86225000D01*
X179973669Y-86225000D01*
X179823941Y-86254783D01*
X179682900Y-86313204D01*
X179555966Y-86398018D01*
X179448018Y-86505966D01*
X179363204Y-86632900D01*
X179304783Y-86773941D01*
X179275000Y-86923669D01*
X170225000Y-86923669D01*
X170225000Y-84673669D01*
X170475000Y-84673669D01*
X170475000Y-84826331D01*
X170504783Y-84976059D01*
X170563204Y-85117100D01*
X170648018Y-85244034D01*
X170755966Y-85351982D01*
X170882900Y-85436796D01*
X171023941Y-85495217D01*
X171173669Y-85525000D01*
X171326331Y-85525000D01*
X171476059Y-85495217D01*
X171617100Y-85436796D01*
X171744034Y-85351982D01*
X171851982Y-85244034D01*
X171936796Y-85117100D01*
X171995217Y-84976059D01*
X172025000Y-84826331D01*
X172025000Y-84748669D01*
X180617681Y-84748669D01*
X180617681Y-84901331D01*
X180647464Y-85051059D01*
X180705885Y-85192100D01*
X180790699Y-85319034D01*
X180898647Y-85426982D01*
X181025581Y-85511796D01*
X181166622Y-85570217D01*
X181316350Y-85600000D01*
X181469012Y-85600000D01*
X181618740Y-85570217D01*
X181759781Y-85511796D01*
X181886715Y-85426982D01*
X181994663Y-85319034D01*
X182079477Y-85192100D01*
X182137898Y-85051059D01*
X182167681Y-84901331D01*
X182167681Y-84748669D01*
X182137898Y-84598941D01*
X182079477Y-84457900D01*
X181994663Y-84330966D01*
X181886715Y-84223018D01*
X181759781Y-84138204D01*
X181618740Y-84079783D01*
X181469012Y-84050000D01*
X181316350Y-84050000D01*
X181166622Y-84079783D01*
X181025581Y-84138204D01*
X180898647Y-84223018D01*
X180790699Y-84330966D01*
X180705885Y-84457900D01*
X180647464Y-84598941D01*
X180617681Y-84748669D01*
X172025000Y-84748669D01*
X172025000Y-84673669D01*
X171995217Y-84523941D01*
X171936796Y-84382900D01*
X171851982Y-84255966D01*
X171744034Y-84148018D01*
X171617100Y-84063204D01*
X171476059Y-84004783D01*
X171326331Y-83975000D01*
X171173669Y-83975000D01*
X171023941Y-84004783D01*
X170882900Y-84063204D01*
X170755966Y-84148018D01*
X170648018Y-84255966D01*
X170563204Y-84382900D01*
X170504783Y-84523941D01*
X170475000Y-84673669D01*
X170225000Y-84673669D01*
X170225000Y-82173669D01*
X173025000Y-82173669D01*
X173025000Y-82326331D01*
X173054783Y-82476059D01*
X173113204Y-82617100D01*
X173198018Y-82744034D01*
X173305966Y-82851982D01*
X173432900Y-82936796D01*
X173573941Y-82995217D01*
X173723669Y-83025000D01*
X173876331Y-83025000D01*
X174026059Y-82995217D01*
X174167100Y-82936796D01*
X174294034Y-82851982D01*
X174325869Y-82820147D01*
X174303937Y-82873095D01*
X174274154Y-83022823D01*
X174274154Y-83175485D01*
X174303937Y-83325213D01*
X174362358Y-83466254D01*
X174447172Y-83593188D01*
X174555120Y-83701136D01*
X174682054Y-83785950D01*
X174823095Y-83844371D01*
X174972823Y-83874154D01*
X175125485Y-83874154D01*
X175275213Y-83844371D01*
X175416254Y-83785950D01*
X175474067Y-83747321D01*
X175479783Y-83776059D01*
X175538204Y-83917100D01*
X175623018Y-84044034D01*
X175730966Y-84151982D01*
X175857900Y-84236796D01*
X175998941Y-84295217D01*
X176148669Y-84325000D01*
X176301331Y-84325000D01*
X176451059Y-84295217D01*
X176592100Y-84236796D01*
X176719034Y-84151982D01*
X176826982Y-84044034D01*
X176911796Y-83917100D01*
X176970217Y-83776059D01*
X177000000Y-83626331D01*
X177000000Y-83473669D01*
X176970217Y-83323941D01*
X176911796Y-83182900D01*
X176826982Y-83055966D01*
X176719034Y-82948018D01*
X176592100Y-82863204D01*
X176451059Y-82804783D01*
X176301331Y-82775000D01*
X176148669Y-82775000D01*
X175998941Y-82804783D01*
X175857900Y-82863204D01*
X175800087Y-82901833D01*
X175794371Y-82873095D01*
X175735950Y-82732054D01*
X175651136Y-82605120D01*
X175543188Y-82497172D01*
X175416254Y-82412358D01*
X175275213Y-82353937D01*
X175125485Y-82324154D01*
X174972823Y-82324154D01*
X174823095Y-82353937D01*
X174682054Y-82412358D01*
X174555120Y-82497172D01*
X174523285Y-82529007D01*
X174545217Y-82476059D01*
X174575000Y-82326331D01*
X174575000Y-82173669D01*
X174567637Y-82136648D01*
X177913695Y-82136648D01*
X177913695Y-82289310D01*
X177943478Y-82439038D01*
X178001899Y-82580079D01*
X178086713Y-82707013D01*
X178194661Y-82814961D01*
X178321595Y-82899775D01*
X178462636Y-82958196D01*
X178612364Y-82987979D01*
X178765026Y-82987979D01*
X178914754Y-82958196D01*
X179055795Y-82899775D01*
X179182729Y-82814961D01*
X179290677Y-82707013D01*
X179375491Y-82580079D01*
X179433912Y-82439038D01*
X179463695Y-82289310D01*
X179463695Y-82136648D01*
X179433912Y-81986920D01*
X179375491Y-81845879D01*
X179290677Y-81718945D01*
X179182729Y-81610997D01*
X179055795Y-81526183D01*
X178914754Y-81467762D01*
X178765026Y-81437979D01*
X178612364Y-81437979D01*
X178462636Y-81467762D01*
X178321595Y-81526183D01*
X178194661Y-81610997D01*
X178086713Y-81718945D01*
X178001899Y-81845879D01*
X177943478Y-81986920D01*
X177913695Y-82136648D01*
X174567637Y-82136648D01*
X174545217Y-82023941D01*
X174486796Y-81882900D01*
X174401982Y-81755966D01*
X174294034Y-81648018D01*
X174167100Y-81563204D01*
X174026059Y-81504783D01*
X173876331Y-81475000D01*
X173723669Y-81475000D01*
X173573941Y-81504783D01*
X173432900Y-81563204D01*
X173305966Y-81648018D01*
X173198018Y-81755966D01*
X173113204Y-81882900D01*
X173054783Y-82023941D01*
X173025000Y-82173669D01*
X170225000Y-82173669D01*
X170225000Y-80723669D01*
X176175000Y-80723669D01*
X176175000Y-80876331D01*
X176204783Y-81026059D01*
X176263204Y-81167100D01*
X176348018Y-81294034D01*
X176455966Y-81401982D01*
X176582900Y-81486796D01*
X176723941Y-81545217D01*
X176873669Y-81575000D01*
X177026331Y-81575000D01*
X177176059Y-81545217D01*
X177317100Y-81486796D01*
X177444034Y-81401982D01*
X177551982Y-81294034D01*
X177636796Y-81167100D01*
X177695217Y-81026059D01*
X177725000Y-80876331D01*
X177725000Y-80723669D01*
X177695217Y-80573941D01*
X177636796Y-80432900D01*
X177551982Y-80305966D01*
X177444034Y-80198018D01*
X177317100Y-80113204D01*
X177176059Y-80054783D01*
X177026331Y-80025000D01*
X176873669Y-80025000D01*
X176723941Y-80054783D01*
X176582900Y-80113204D01*
X176455966Y-80198018D01*
X176348018Y-80305966D01*
X176263204Y-80432900D01*
X176204783Y-80573941D01*
X176175000Y-80723669D01*
X170225000Y-80723669D01*
X170225000Y-70600000D01*
X183380435Y-70600000D01*
X183516167Y-70613309D01*
%TA.AperFunction,Conductor*%
D18*
G36*
X183516167Y-70613309D02*
G01*
X183627913Y-70647047D01*
X183730971Y-70701843D01*
X183821430Y-70775620D01*
X183895832Y-70865556D01*
X183951350Y-70968236D01*
X183985865Y-71079735D01*
X184000000Y-71214214D01*
X184000001Y-92775000D01*
X170225000Y-92775000D01*
X170225000Y-89773669D01*
X173025000Y-89773669D01*
X173025000Y-89926331D01*
X173054783Y-90076059D01*
X173113204Y-90217100D01*
X173198018Y-90344034D01*
X173305966Y-90451982D01*
X173432900Y-90536796D01*
X173573941Y-90595217D01*
X173723669Y-90625000D01*
X173876331Y-90625000D01*
X174026059Y-90595217D01*
X174167100Y-90536796D01*
X174294034Y-90451982D01*
X174401982Y-90344034D01*
X174486796Y-90217100D01*
X174545217Y-90076059D01*
X174575000Y-89926331D01*
X174575000Y-89773669D01*
X174545217Y-89623941D01*
X174486796Y-89482900D01*
X174401982Y-89355966D01*
X174294034Y-89248018D01*
X174167100Y-89163204D01*
X174026059Y-89104783D01*
X173876331Y-89075000D01*
X173723669Y-89075000D01*
X173573941Y-89104783D01*
X173432900Y-89163204D01*
X173305966Y-89248018D01*
X173198018Y-89355966D01*
X173113204Y-89482900D01*
X173054783Y-89623941D01*
X173025000Y-89773669D01*
X170225000Y-89773669D01*
X170225000Y-88223669D01*
X177024996Y-88223669D01*
X177024996Y-88376331D01*
X177054779Y-88526059D01*
X177113200Y-88667100D01*
X177198014Y-88794034D01*
X177305962Y-88901982D01*
X177432896Y-88986796D01*
X177573937Y-89045217D01*
X177723665Y-89075000D01*
X177876327Y-89075000D01*
X178026055Y-89045217D01*
X178167096Y-88986796D01*
X178294030Y-88901982D01*
X178376899Y-88819113D01*
X178404447Y-88846661D01*
X178531381Y-88931475D01*
X178672422Y-88989896D01*
X178822150Y-89019679D01*
X178974812Y-89019679D01*
X179124540Y-88989896D01*
X179265581Y-88931475D01*
X179392515Y-88846661D01*
X179500463Y-88738713D01*
X179510515Y-88723669D01*
X180275000Y-88723669D01*
X180275000Y-88876331D01*
X180304783Y-89026059D01*
X180363204Y-89167100D01*
X180448018Y-89294034D01*
X180555966Y-89401982D01*
X180682900Y-89486796D01*
X180823941Y-89545217D01*
X180973669Y-89575000D01*
X181126331Y-89575000D01*
X181276059Y-89545217D01*
X181417100Y-89486796D01*
X181544034Y-89401982D01*
X181651982Y-89294034D01*
X181736796Y-89167100D01*
X181795217Y-89026059D01*
X181825000Y-88876331D01*
X181825000Y-88723669D01*
X181875000Y-88723669D01*
X181875000Y-88876331D01*
X181904783Y-89026059D01*
X181963204Y-89167100D01*
X182048018Y-89294034D01*
X182155966Y-89401982D01*
X182282900Y-89486796D01*
X182423941Y-89545217D01*
X182573669Y-89575000D01*
X182726331Y-89575000D01*
X182876059Y-89545217D01*
X183017100Y-89486796D01*
X183144034Y-89401982D01*
X183251982Y-89294034D01*
X183336796Y-89167100D01*
X183395217Y-89026059D01*
X183425000Y-88876331D01*
X183425000Y-88723669D01*
X183395217Y-88573941D01*
X183336796Y-88432900D01*
X183251982Y-88305966D01*
X183144034Y-88198018D01*
X183017100Y-88113204D01*
X182876059Y-88054783D01*
X182726331Y-88025000D01*
X182573669Y-88025000D01*
X182423941Y-88054783D01*
X182282900Y-88113204D01*
X182155966Y-88198018D01*
X182048018Y-88305966D01*
X181963204Y-88432900D01*
X181904783Y-88573941D01*
X181875000Y-88723669D01*
X181825000Y-88723669D01*
X181795217Y-88573941D01*
X181736796Y-88432900D01*
X181651982Y-88305966D01*
X181544034Y-88198018D01*
X181417100Y-88113204D01*
X181276059Y-88054783D01*
X181126331Y-88025000D01*
X180973669Y-88025000D01*
X180823941Y-88054783D01*
X180682900Y-88113204D01*
X180555966Y-88198018D01*
X180448018Y-88305966D01*
X180363204Y-88432900D01*
X180304783Y-88573941D01*
X180275000Y-88723669D01*
X179510515Y-88723669D01*
X179585277Y-88611779D01*
X179643698Y-88470738D01*
X179673481Y-88321010D01*
X179673481Y-88168348D01*
X179643698Y-88018620D01*
X179585277Y-87877579D01*
X179500463Y-87750645D01*
X179392515Y-87642697D01*
X179265581Y-87557883D01*
X179124540Y-87499462D01*
X178974812Y-87469679D01*
X178822150Y-87469679D01*
X178672422Y-87499462D01*
X178531381Y-87557883D01*
X178404447Y-87642697D01*
X178321578Y-87725566D01*
X178294030Y-87698018D01*
X178167096Y-87613204D01*
X178026055Y-87554783D01*
X177876327Y-87525000D01*
X177723665Y-87525000D01*
X177573937Y-87554783D01*
X177432896Y-87613204D01*
X177305962Y-87698018D01*
X177198014Y-87805966D01*
X177113200Y-87932900D01*
X177054779Y-88073941D01*
X177024996Y-88223669D01*
X170225000Y-88223669D01*
X170225000Y-86923669D01*
X179275000Y-86923669D01*
X179275000Y-87076331D01*
X179304783Y-87226059D01*
X179363204Y-87367100D01*
X179448018Y-87494034D01*
X179555966Y-87601982D01*
X179682900Y-87686796D01*
X179823941Y-87745217D01*
X179973669Y-87775000D01*
X180126331Y-87775000D01*
X180276059Y-87745217D01*
X180417100Y-87686796D01*
X180544034Y-87601982D01*
X180651982Y-87494034D01*
X180736796Y-87367100D01*
X180795217Y-87226059D01*
X180825000Y-87076331D01*
X180825000Y-86923669D01*
X180795217Y-86773941D01*
X180736796Y-86632900D01*
X180651982Y-86505966D01*
X180544034Y-86398018D01*
X180417100Y-86313204D01*
X180276059Y-86254783D01*
X180126331Y-86225000D01*
X179973669Y-86225000D01*
X179823941Y-86254783D01*
X179682900Y-86313204D01*
X179555966Y-86398018D01*
X179448018Y-86505966D01*
X179363204Y-86632900D01*
X179304783Y-86773941D01*
X179275000Y-86923669D01*
X170225000Y-86923669D01*
X170225000Y-84673669D01*
X170475000Y-84673669D01*
X170475000Y-84826331D01*
X170504783Y-84976059D01*
X170563204Y-85117100D01*
X170648018Y-85244034D01*
X170755966Y-85351982D01*
X170882900Y-85436796D01*
X171023941Y-85495217D01*
X171173669Y-85525000D01*
X171326331Y-85525000D01*
X171476059Y-85495217D01*
X171617100Y-85436796D01*
X171744034Y-85351982D01*
X171851982Y-85244034D01*
X171936796Y-85117100D01*
X171995217Y-84976059D01*
X172025000Y-84826331D01*
X172025000Y-84748669D01*
X180617681Y-84748669D01*
X180617681Y-84901331D01*
X180647464Y-85051059D01*
X180705885Y-85192100D01*
X180790699Y-85319034D01*
X180898647Y-85426982D01*
X181025581Y-85511796D01*
X181166622Y-85570217D01*
X181316350Y-85600000D01*
X181469012Y-85600000D01*
X181618740Y-85570217D01*
X181759781Y-85511796D01*
X181886715Y-85426982D01*
X181994663Y-85319034D01*
X182079477Y-85192100D01*
X182137898Y-85051059D01*
X182167681Y-84901331D01*
X182167681Y-84748669D01*
X182137898Y-84598941D01*
X182079477Y-84457900D01*
X181994663Y-84330966D01*
X181886715Y-84223018D01*
X181759781Y-84138204D01*
X181618740Y-84079783D01*
X181469012Y-84050000D01*
X181316350Y-84050000D01*
X181166622Y-84079783D01*
X181025581Y-84138204D01*
X180898647Y-84223018D01*
X180790699Y-84330966D01*
X180705885Y-84457900D01*
X180647464Y-84598941D01*
X180617681Y-84748669D01*
X172025000Y-84748669D01*
X172025000Y-84673669D01*
X171995217Y-84523941D01*
X171936796Y-84382900D01*
X171851982Y-84255966D01*
X171744034Y-84148018D01*
X171617100Y-84063204D01*
X171476059Y-84004783D01*
X171326331Y-83975000D01*
X171173669Y-83975000D01*
X171023941Y-84004783D01*
X170882900Y-84063204D01*
X170755966Y-84148018D01*
X170648018Y-84255966D01*
X170563204Y-84382900D01*
X170504783Y-84523941D01*
X170475000Y-84673669D01*
X170225000Y-84673669D01*
X170225000Y-82173669D01*
X173025000Y-82173669D01*
X173025000Y-82326331D01*
X173054783Y-82476059D01*
X173113204Y-82617100D01*
X173198018Y-82744034D01*
X173305966Y-82851982D01*
X173432900Y-82936796D01*
X173573941Y-82995217D01*
X173723669Y-83025000D01*
X173876331Y-83025000D01*
X174026059Y-82995217D01*
X174167100Y-82936796D01*
X174294034Y-82851982D01*
X174325869Y-82820147D01*
X174303937Y-82873095D01*
X174274154Y-83022823D01*
X174274154Y-83175485D01*
X174303937Y-83325213D01*
X174362358Y-83466254D01*
X174447172Y-83593188D01*
X174555120Y-83701136D01*
X174682054Y-83785950D01*
X174823095Y-83844371D01*
X174972823Y-83874154D01*
X175125485Y-83874154D01*
X175275213Y-83844371D01*
X175416254Y-83785950D01*
X175474067Y-83747321D01*
X175479783Y-83776059D01*
X175538204Y-83917100D01*
X175623018Y-84044034D01*
X175730966Y-84151982D01*
X175857900Y-84236796D01*
X175998941Y-84295217D01*
X176148669Y-84325000D01*
X176301331Y-84325000D01*
X176451059Y-84295217D01*
X176592100Y-84236796D01*
X176719034Y-84151982D01*
X176826982Y-84044034D01*
X176911796Y-83917100D01*
X176970217Y-83776059D01*
X177000000Y-83626331D01*
X177000000Y-83473669D01*
X176970217Y-83323941D01*
X176911796Y-83182900D01*
X176826982Y-83055966D01*
X176719034Y-82948018D01*
X176592100Y-82863204D01*
X176451059Y-82804783D01*
X176301331Y-82775000D01*
X176148669Y-82775000D01*
X175998941Y-82804783D01*
X175857900Y-82863204D01*
X175800087Y-82901833D01*
X175794371Y-82873095D01*
X175735950Y-82732054D01*
X175651136Y-82605120D01*
X175543188Y-82497172D01*
X175416254Y-82412358D01*
X175275213Y-82353937D01*
X175125485Y-82324154D01*
X174972823Y-82324154D01*
X174823095Y-82353937D01*
X174682054Y-82412358D01*
X174555120Y-82497172D01*
X174523285Y-82529007D01*
X174545217Y-82476059D01*
X174575000Y-82326331D01*
X174575000Y-82173669D01*
X174567637Y-82136648D01*
X177913695Y-82136648D01*
X177913695Y-82289310D01*
X177943478Y-82439038D01*
X178001899Y-82580079D01*
X178086713Y-82707013D01*
X178194661Y-82814961D01*
X178321595Y-82899775D01*
X178462636Y-82958196D01*
X178612364Y-82987979D01*
X178765026Y-82987979D01*
X178914754Y-82958196D01*
X179055795Y-82899775D01*
X179182729Y-82814961D01*
X179290677Y-82707013D01*
X179375491Y-82580079D01*
X179433912Y-82439038D01*
X179463695Y-82289310D01*
X179463695Y-82136648D01*
X179433912Y-81986920D01*
X179375491Y-81845879D01*
X179290677Y-81718945D01*
X179182729Y-81610997D01*
X179055795Y-81526183D01*
X178914754Y-81467762D01*
X178765026Y-81437979D01*
X178612364Y-81437979D01*
X178462636Y-81467762D01*
X178321595Y-81526183D01*
X178194661Y-81610997D01*
X178086713Y-81718945D01*
X178001899Y-81845879D01*
X177943478Y-81986920D01*
X177913695Y-82136648D01*
X174567637Y-82136648D01*
X174545217Y-82023941D01*
X174486796Y-81882900D01*
X174401982Y-81755966D01*
X174294034Y-81648018D01*
X174167100Y-81563204D01*
X174026059Y-81504783D01*
X173876331Y-81475000D01*
X173723669Y-81475000D01*
X173573941Y-81504783D01*
X173432900Y-81563204D01*
X173305966Y-81648018D01*
X173198018Y-81755966D01*
X173113204Y-81882900D01*
X173054783Y-82023941D01*
X173025000Y-82173669D01*
X170225000Y-82173669D01*
X170225000Y-80723669D01*
X176175000Y-80723669D01*
X176175000Y-80876331D01*
X176204783Y-81026059D01*
X176263204Y-81167100D01*
X176348018Y-81294034D01*
X176455966Y-81401982D01*
X176582900Y-81486796D01*
X176723941Y-81545217D01*
X176873669Y-81575000D01*
X177026331Y-81575000D01*
X177176059Y-81545217D01*
X177317100Y-81486796D01*
X177444034Y-81401982D01*
X177551982Y-81294034D01*
X177636796Y-81167100D01*
X177695217Y-81026059D01*
X177725000Y-80876331D01*
X177725000Y-80723669D01*
X177695217Y-80573941D01*
X177636796Y-80432900D01*
X177551982Y-80305966D01*
X177444034Y-80198018D01*
X177317100Y-80113204D01*
X177176059Y-80054783D01*
X177026331Y-80025000D01*
X176873669Y-80025000D01*
X176723941Y-80054783D01*
X176582900Y-80113204D01*
X176455966Y-80198018D01*
X176348018Y-80305966D01*
X176263204Y-80432900D01*
X176204783Y-80573941D01*
X176175000Y-80723669D01*
X170225000Y-80723669D01*
X170225000Y-70600000D01*
X183380435Y-70600000D01*
X183516167Y-70613309D01*
G37*
%TD.AperFunction*%
%TD*%
D17*
%TO.N,+VDC*%
X110025000Y-76500000D02*
X110032206Y-76573159D01*
X110053545Y-76643506D01*
X110088199Y-76708339D01*
X110134835Y-76765165D01*
X110191661Y-76811801D01*
X110256494Y-76846455D01*
X110326841Y-76867794D01*
X110400000Y-76875000D01*
X116525000Y-76875000D01*
X116525000Y-81600000D01*
X116532206Y-81673159D01*
X116553545Y-81743506D01*
X116570759Y-81775712D01*
X116570063Y-82675000D01*
X110400000Y-82675000D01*
X110326841Y-82682206D01*
X110256494Y-82703545D01*
X110191661Y-82738199D01*
X110134835Y-82784835D01*
X110088199Y-82841661D01*
X110053545Y-82906494D01*
X110032206Y-82976841D01*
X110025000Y-83050000D01*
X110025000Y-88550000D01*
X110032206Y-88623159D01*
X110053545Y-88693506D01*
X110088199Y-88758339D01*
X110134835Y-88815165D01*
X110191661Y-88861801D01*
X110256494Y-88896455D01*
X110326841Y-88917794D01*
X110400000Y-88925000D01*
X116475000Y-88925000D01*
X116475000Y-93650000D01*
X116482206Y-93723159D01*
X116503545Y-93793506D01*
X116538199Y-93858339D01*
X116561381Y-93886586D01*
X116560770Y-94675000D01*
X110400000Y-94675000D01*
X110326841Y-94682206D01*
X110256494Y-94703545D01*
X110191661Y-94738199D01*
X110134835Y-94784835D01*
X110088199Y-94841661D01*
X110053545Y-94906494D01*
X110032206Y-94976841D01*
X110025000Y-95050000D01*
X110025000Y-100550000D01*
X110032206Y-100623159D01*
X110053545Y-100693506D01*
X110088199Y-100758339D01*
X110134835Y-100815165D01*
X110191661Y-100861801D01*
X110256494Y-100896455D01*
X110326841Y-100917794D01*
X110400000Y-100925000D01*
X116475000Y-100925000D01*
X116475000Y-104300000D01*
X116482206Y-104373159D01*
X116503545Y-104443506D01*
X116538199Y-104508339D01*
X116584835Y-104565165D01*
X116641661Y-104611801D01*
X116706494Y-104646455D01*
X116776841Y-104667794D01*
X116850000Y-104675000D01*
X117750000Y-104675000D01*
X117823159Y-104667794D01*
X117893506Y-104646455D01*
X117958339Y-104611801D01*
X118015165Y-104565165D01*
X118061801Y-104508339D01*
X118096455Y-104443506D01*
X118117794Y-104373159D01*
X118125000Y-104300000D01*
X118125000Y-104275000D01*
X136849865Y-104275000D01*
X136874251Y-104272598D01*
X136897700Y-104265485D01*
X136919311Y-104253934D01*
X136938253Y-104238388D01*
X136953799Y-104219446D01*
X136965350Y-104197835D01*
X136972463Y-104174386D01*
X136974865Y-104150056D01*
X136974944Y-103975000D01*
X171625000Y-103975000D01*
X171625000Y-109350000D01*
X114107115Y-109350000D01*
X114507106Y-108950010D01*
X121619903Y-108950010D01*
X121731070Y-109061177D01*
X121746735Y-109080265D01*
X121822870Y-109142747D01*
X121909732Y-109189176D01*
X121965346Y-109206046D01*
X122003981Y-109217766D01*
X122101998Y-109227420D01*
X122126558Y-109225001D01*
X122773441Y-109225001D01*
X122798001Y-109227420D01*
X122822561Y-109225001D01*
X122896018Y-109217766D01*
X122990268Y-109189176D01*
X123077130Y-109142747D01*
X123153265Y-109080265D01*
X123168929Y-109061178D01*
X123455109Y-108775000D01*
X123526331Y-108775000D01*
X123676059Y-108745217D01*
X123817100Y-108686796D01*
X123944034Y-108601982D01*
X123950000Y-108596016D01*
X123955966Y-108601982D01*
X124082900Y-108686796D01*
X124223941Y-108745217D01*
X124373669Y-108775000D01*
X124526331Y-108775000D01*
X124676059Y-108745217D01*
X124817100Y-108686796D01*
X124944034Y-108601982D01*
X124950000Y-108596016D01*
X124955966Y-108601982D01*
X125082900Y-108686796D01*
X125223941Y-108745217D01*
X125373669Y-108775000D01*
X125526331Y-108775000D01*
X125676059Y-108745217D01*
X125817100Y-108686796D01*
X125944034Y-108601982D01*
X126051982Y-108494034D01*
X126136796Y-108367100D01*
X126195217Y-108226059D01*
X126225000Y-108076331D01*
X126225000Y-107923669D01*
X126195217Y-107773941D01*
X126136796Y-107632900D01*
X126051982Y-107505966D01*
X125949369Y-107403353D01*
X125942765Y-107336298D01*
X125914175Y-107242048D01*
X125867746Y-107155186D01*
X125805264Y-107079051D01*
X125786181Y-107063390D01*
X125211597Y-106488807D01*
X125195937Y-106469725D01*
X125119802Y-106407243D01*
X125032940Y-106360814D01*
X124967281Y-106340897D01*
X124938691Y-106332224D01*
X124840674Y-106322570D01*
X124816114Y-106324989D01*
X121940168Y-106324991D01*
X121915598Y-106322571D01*
X121817581Y-106332225D01*
X121723330Y-106360816D01*
X121636470Y-106407244D01*
X121636468Y-106407245D01*
X121636469Y-106407245D01*
X121560334Y-106469727D01*
X121544678Y-106488805D01*
X121433502Y-106599980D01*
X111638178Y-106599983D01*
X111613608Y-106597563D01*
X111515591Y-106607217D01*
X111421340Y-106635808D01*
X111334479Y-106682236D01*
X111277421Y-106729062D01*
X111277415Y-106729068D01*
X111258344Y-106744719D01*
X111242692Y-106763791D01*
X110906485Y-107099999D01*
X110674561Y-107099999D01*
X110650001Y-107097580D01*
X110625441Y-107099999D01*
X110551984Y-107107234D01*
X110457734Y-107135824D01*
X110370872Y-107182253D01*
X110294737Y-107244735D01*
X110279081Y-107263812D01*
X109990554Y-107552339D01*
X109978793Y-107550000D01*
X109821207Y-107550000D01*
X109666649Y-107580743D01*
X109521058Y-107641049D01*
X109390030Y-107728599D01*
X109278599Y-107840030D01*
X109191049Y-107971058D01*
X109130743Y-108116649D01*
X109100000Y-108271207D01*
X109100000Y-108428793D01*
X109130743Y-108583351D01*
X109191049Y-108728942D01*
X109278599Y-108859970D01*
X109390030Y-108971401D01*
X109521058Y-109058951D01*
X109666649Y-109119257D01*
X109821207Y-109150000D01*
X109978793Y-109150000D01*
X110133351Y-109119257D01*
X110278942Y-109058951D01*
X110409970Y-108971401D01*
X110450000Y-108931371D01*
X110490030Y-108971401D01*
X110621058Y-109058951D01*
X110766649Y-109119257D01*
X110921207Y-109150000D01*
X111078793Y-109150000D01*
X111233351Y-109119257D01*
X111378942Y-109058951D01*
X111509970Y-108971401D01*
X111550000Y-108931371D01*
X111590030Y-108971401D01*
X111721058Y-109058951D01*
X111866649Y-109119257D01*
X112021207Y-109150000D01*
X112178793Y-109150000D01*
X112190554Y-109147661D01*
X112392893Y-109350000D01*
X108519564Y-109350000D01*
X108383833Y-109336691D01*
X108272088Y-109302953D01*
X108169028Y-109248156D01*
X108078570Y-109174380D01*
X108004168Y-109084444D01*
X107948650Y-108981764D01*
X107914135Y-108870265D01*
X107900000Y-108735785D01*
X107900000Y-71219565D01*
X107909272Y-71125000D01*
X110025000Y-71125000D01*
X110025000Y-76500000D01*
%TA.AperFunction,Conductor*%
D18*
G36*
X110025000Y-76500000D02*
G01*
X110032206Y-76573159D01*
X110053545Y-76643506D01*
X110088199Y-76708339D01*
X110134835Y-76765165D01*
X110191661Y-76811801D01*
X110256494Y-76846455D01*
X110326841Y-76867794D01*
X110400000Y-76875000D01*
X116525000Y-76875000D01*
X116525000Y-81600000D01*
X116532206Y-81673159D01*
X116553545Y-81743506D01*
X116570759Y-81775712D01*
X116570063Y-82675000D01*
X110400000Y-82675000D01*
X110326841Y-82682206D01*
X110256494Y-82703545D01*
X110191661Y-82738199D01*
X110134835Y-82784835D01*
X110088199Y-82841661D01*
X110053545Y-82906494D01*
X110032206Y-82976841D01*
X110025000Y-83050000D01*
X110025000Y-88550000D01*
X110032206Y-88623159D01*
X110053545Y-88693506D01*
X110088199Y-88758339D01*
X110134835Y-88815165D01*
X110191661Y-88861801D01*
X110256494Y-88896455D01*
X110326841Y-88917794D01*
X110400000Y-88925000D01*
X116475000Y-88925000D01*
X116475000Y-93650000D01*
X116482206Y-93723159D01*
X116503545Y-93793506D01*
X116538199Y-93858339D01*
X116561381Y-93886586D01*
X116560770Y-94675000D01*
X110400000Y-94675000D01*
X110326841Y-94682206D01*
X110256494Y-94703545D01*
X110191661Y-94738199D01*
X110134835Y-94784835D01*
X110088199Y-94841661D01*
X110053545Y-94906494D01*
X110032206Y-94976841D01*
X110025000Y-95050000D01*
X110025000Y-100550000D01*
X110032206Y-100623159D01*
X110053545Y-100693506D01*
X110088199Y-100758339D01*
X110134835Y-100815165D01*
X110191661Y-100861801D01*
X110256494Y-100896455D01*
X110326841Y-100917794D01*
X110400000Y-100925000D01*
X116475000Y-100925000D01*
X116475000Y-104300000D01*
X116482206Y-104373159D01*
X116503545Y-104443506D01*
X116538199Y-104508339D01*
X116584835Y-104565165D01*
X116641661Y-104611801D01*
X116706494Y-104646455D01*
X116776841Y-104667794D01*
X116850000Y-104675000D01*
X117750000Y-104675000D01*
X117823159Y-104667794D01*
X117893506Y-104646455D01*
X117958339Y-104611801D01*
X118015165Y-104565165D01*
X118061801Y-104508339D01*
X118096455Y-104443506D01*
X118117794Y-104373159D01*
X118125000Y-104300000D01*
X118125000Y-104275000D01*
X136849865Y-104275000D01*
X136874251Y-104272598D01*
X136897700Y-104265485D01*
X136919311Y-104253934D01*
X136938253Y-104238388D01*
X136953799Y-104219446D01*
X136965350Y-104197835D01*
X136972463Y-104174386D01*
X136974865Y-104150056D01*
X136974944Y-103975000D01*
X171625000Y-103975000D01*
X171625000Y-109350000D01*
X114107115Y-109350000D01*
X114507106Y-108950010D01*
X121619903Y-108950010D01*
X121731070Y-109061177D01*
X121746735Y-109080265D01*
X121822870Y-109142747D01*
X121909732Y-109189176D01*
X121965346Y-109206046D01*
X122003981Y-109217766D01*
X122101998Y-109227420D01*
X122126558Y-109225001D01*
X122773441Y-109225001D01*
X122798001Y-109227420D01*
X122822561Y-109225001D01*
X122896018Y-109217766D01*
X122990268Y-109189176D01*
X123077130Y-109142747D01*
X123153265Y-109080265D01*
X123168929Y-109061178D01*
X123455109Y-108775000D01*
X123526331Y-108775000D01*
X123676059Y-108745217D01*
X123817100Y-108686796D01*
X123944034Y-108601982D01*
X123950000Y-108596016D01*
X123955966Y-108601982D01*
X124082900Y-108686796D01*
X124223941Y-108745217D01*
X124373669Y-108775000D01*
X124526331Y-108775000D01*
X124676059Y-108745217D01*
X124817100Y-108686796D01*
X124944034Y-108601982D01*
X124950000Y-108596016D01*
X124955966Y-108601982D01*
X125082900Y-108686796D01*
X125223941Y-108745217D01*
X125373669Y-108775000D01*
X125526331Y-108775000D01*
X125676059Y-108745217D01*
X125817100Y-108686796D01*
X125944034Y-108601982D01*
X126051982Y-108494034D01*
X126136796Y-108367100D01*
X126195217Y-108226059D01*
X126225000Y-108076331D01*
X126225000Y-107923669D01*
X126195217Y-107773941D01*
X126136796Y-107632900D01*
X126051982Y-107505966D01*
X125949369Y-107403353D01*
X125942765Y-107336298D01*
X125914175Y-107242048D01*
X125867746Y-107155186D01*
X125805264Y-107079051D01*
X125786181Y-107063390D01*
X125211597Y-106488807D01*
X125195937Y-106469725D01*
X125119802Y-106407243D01*
X125032940Y-106360814D01*
X124967281Y-106340897D01*
X124938691Y-106332224D01*
X124840674Y-106322570D01*
X124816114Y-106324989D01*
X121940168Y-106324991D01*
X121915598Y-106322571D01*
X121817581Y-106332225D01*
X121723330Y-106360816D01*
X121636470Y-106407244D01*
X121636468Y-106407245D01*
X121636469Y-106407245D01*
X121560334Y-106469727D01*
X121544678Y-106488805D01*
X121433502Y-106599980D01*
X111638178Y-106599983D01*
X111613608Y-106597563D01*
X111515591Y-106607217D01*
X111421340Y-106635808D01*
X111334479Y-106682236D01*
X111277421Y-106729062D01*
X111277415Y-106729068D01*
X111258344Y-106744719D01*
X111242692Y-106763791D01*
X110906485Y-107099999D01*
X110674561Y-107099999D01*
X110650001Y-107097580D01*
X110625441Y-107099999D01*
X110551984Y-107107234D01*
X110457734Y-107135824D01*
X110370872Y-107182253D01*
X110294737Y-107244735D01*
X110279081Y-107263812D01*
X109990554Y-107552339D01*
X109978793Y-107550000D01*
X109821207Y-107550000D01*
X109666649Y-107580743D01*
X109521058Y-107641049D01*
X109390030Y-107728599D01*
X109278599Y-107840030D01*
X109191049Y-107971058D01*
X109130743Y-108116649D01*
X109100000Y-108271207D01*
X109100000Y-108428793D01*
X109130743Y-108583351D01*
X109191049Y-108728942D01*
X109278599Y-108859970D01*
X109390030Y-108971401D01*
X109521058Y-109058951D01*
X109666649Y-109119257D01*
X109821207Y-109150000D01*
X109978793Y-109150000D01*
X110133351Y-109119257D01*
X110278942Y-109058951D01*
X110409970Y-108971401D01*
X110450000Y-108931371D01*
X110490030Y-108971401D01*
X110621058Y-109058951D01*
X110766649Y-109119257D01*
X110921207Y-109150000D01*
X111078793Y-109150000D01*
X111233351Y-109119257D01*
X111378942Y-109058951D01*
X111509970Y-108971401D01*
X111550000Y-108931371D01*
X111590030Y-108971401D01*
X111721058Y-109058951D01*
X111866649Y-109119257D01*
X112021207Y-109150000D01*
X112178793Y-109150000D01*
X112190554Y-109147661D01*
X112392893Y-109350000D01*
X108519564Y-109350000D01*
X108383833Y-109336691D01*
X108272088Y-109302953D01*
X108169028Y-109248156D01*
X108078570Y-109174380D01*
X108004168Y-109084444D01*
X107948650Y-108981764D01*
X107914135Y-108870265D01*
X107900000Y-108735785D01*
X107900000Y-71219565D01*
X107909272Y-71125000D01*
X110025000Y-71125000D01*
X110025000Y-76500000D01*
G37*
%TD.AperFunction*%
%TD*%
D17*
%TO.N,GND*%
X128425000Y-97450000D02*
X128427402Y-97474386D01*
X128434515Y-97497835D01*
X128446066Y-97519446D01*
X128461612Y-97538388D01*
X128480554Y-97553934D01*
X128502165Y-97565485D01*
X128525614Y-97572598D01*
X128550000Y-97575000D01*
X153575000Y-97575000D01*
X153575000Y-99600000D01*
X153577402Y-99624386D01*
X153584515Y-99647835D01*
X153596066Y-99669446D01*
X153611612Y-99688388D01*
X153630554Y-99703934D01*
X153652165Y-99715485D01*
X153675614Y-99722598D01*
X153700000Y-99725000D01*
X160175133Y-99725000D01*
X160223941Y-99745217D01*
X160373669Y-99775000D01*
X160526331Y-99775000D01*
X160676059Y-99745217D01*
X160724867Y-99725000D01*
X176100000Y-99725000D01*
X176100000Y-109350000D01*
X172125000Y-109350000D01*
X172125000Y-103600000D01*
X172122598Y-103575614D01*
X172115485Y-103552165D01*
X172103934Y-103530554D01*
X172088388Y-103511612D01*
X172069446Y-103496066D01*
X172047835Y-103484515D01*
X172024386Y-103477402D01*
X172000000Y-103475000D01*
X136500000Y-103475000D01*
X136475614Y-103477402D01*
X136452165Y-103484515D01*
X136430554Y-103496066D01*
X136411612Y-103511612D01*
X136396066Y-103530554D01*
X136384515Y-103552165D01*
X136377402Y-103575614D01*
X136375000Y-103600000D01*
X136375000Y-103725000D01*
X118125000Y-103725000D01*
X118125000Y-102200000D01*
X118117794Y-102126841D01*
X118096455Y-102056494D01*
X118061801Y-101991661D01*
X118025000Y-101946819D01*
X118025000Y-101123669D01*
X121825000Y-101123669D01*
X121825000Y-101276331D01*
X121854783Y-101426059D01*
X121913204Y-101567100D01*
X121998018Y-101694034D01*
X122105966Y-101801982D01*
X122232900Y-101886796D01*
X122373941Y-101945217D01*
X122523669Y-101975000D01*
X122676331Y-101975000D01*
X122826059Y-101945217D01*
X122967100Y-101886796D01*
X123094034Y-101801982D01*
X123201982Y-101694034D01*
X123286796Y-101567100D01*
X123345217Y-101426059D01*
X123375000Y-101276331D01*
X123375000Y-101123669D01*
X132275000Y-101123669D01*
X132275000Y-101276331D01*
X132304783Y-101426059D01*
X132363204Y-101567100D01*
X132448018Y-101694034D01*
X132555966Y-101801982D01*
X132682900Y-101886796D01*
X132823941Y-101945217D01*
X132973669Y-101975000D01*
X133126331Y-101975000D01*
X133276059Y-101945217D01*
X133417100Y-101886796D01*
X133544034Y-101801982D01*
X133651982Y-101694034D01*
X133736796Y-101567100D01*
X133795217Y-101426059D01*
X133825000Y-101276331D01*
X133825000Y-101123669D01*
X133795217Y-100973941D01*
X133736796Y-100832900D01*
X133651982Y-100705966D01*
X133544034Y-100598018D01*
X133417100Y-100513204D01*
X133276059Y-100454783D01*
X133126331Y-100425000D01*
X132973669Y-100425000D01*
X132823941Y-100454783D01*
X132682900Y-100513204D01*
X132555966Y-100598018D01*
X132448018Y-100705966D01*
X132363204Y-100832900D01*
X132304783Y-100973941D01*
X132275000Y-101123669D01*
X123375000Y-101123669D01*
X123345217Y-100973941D01*
X123286796Y-100832900D01*
X123201982Y-100705966D01*
X123094034Y-100598018D01*
X122967100Y-100513204D01*
X122826059Y-100454783D01*
X122676331Y-100425000D01*
X122523669Y-100425000D01*
X122373941Y-100454783D01*
X122232900Y-100513204D01*
X122105966Y-100598018D01*
X121998018Y-100705966D01*
X121913204Y-100832900D01*
X121854783Y-100973941D01*
X121825000Y-101123669D01*
X118025000Y-101123669D01*
X118025000Y-95050000D01*
X118017794Y-94976841D01*
X117996455Y-94906494D01*
X117961801Y-94841661D01*
X117915165Y-94784835D01*
X117875000Y-94751872D01*
X117875000Y-94002069D01*
X117893506Y-93996455D01*
X117958339Y-93961801D01*
X118015165Y-93915165D01*
X118061801Y-93858339D01*
X118096455Y-93793506D01*
X118117794Y-93723159D01*
X118125000Y-93650000D01*
X118125000Y-91223669D01*
X125275000Y-91223669D01*
X125275000Y-91376331D01*
X125304783Y-91526059D01*
X125363204Y-91667100D01*
X125448018Y-91794034D01*
X125555966Y-91901982D01*
X125682900Y-91986796D01*
X125823941Y-92045217D01*
X125973669Y-92075000D01*
X126126331Y-92075000D01*
X126276059Y-92045217D01*
X126417100Y-91986796D01*
X126544034Y-91901982D01*
X126651982Y-91794034D01*
X126736796Y-91667100D01*
X126795217Y-91526059D01*
X126825000Y-91376331D01*
X126825000Y-91223669D01*
X126795217Y-91073941D01*
X126736796Y-90932900D01*
X126651982Y-90805966D01*
X126544034Y-90698018D01*
X126417100Y-90613204D01*
X126276059Y-90554783D01*
X126126331Y-90525000D01*
X125973669Y-90525000D01*
X125823941Y-90554783D01*
X125682900Y-90613204D01*
X125555966Y-90698018D01*
X125448018Y-90805966D01*
X125363204Y-90932900D01*
X125304783Y-91073941D01*
X125275000Y-91223669D01*
X118125000Y-91223669D01*
X118125000Y-90200000D01*
X118117794Y-90126841D01*
X118096455Y-90056494D01*
X118061801Y-89991661D01*
X118025000Y-89946819D01*
X118025000Y-89057983D01*
X121809314Y-89057983D01*
X121809314Y-89210645D01*
X121839097Y-89360373D01*
X121897518Y-89501414D01*
X121982332Y-89628348D01*
X122090280Y-89736296D01*
X122217214Y-89821110D01*
X122358255Y-89879531D01*
X122507983Y-89909314D01*
X122660645Y-89909314D01*
X122810373Y-89879531D01*
X122951414Y-89821110D01*
X123078348Y-89736296D01*
X123186296Y-89628348D01*
X123271110Y-89501414D01*
X123329531Y-89360373D01*
X123359314Y-89210645D01*
X123359314Y-89057983D01*
X123329531Y-88908255D01*
X123271110Y-88767214D01*
X123186296Y-88640280D01*
X123078348Y-88532332D01*
X122951414Y-88447518D01*
X122810373Y-88389097D01*
X122660645Y-88359314D01*
X122507983Y-88359314D01*
X122358255Y-88389097D01*
X122217214Y-88447518D01*
X122090280Y-88532332D01*
X121982332Y-88640280D01*
X121897518Y-88767214D01*
X121839097Y-88908255D01*
X121809314Y-89057983D01*
X118025000Y-89057983D01*
X118025000Y-83050000D01*
X118017794Y-82976841D01*
X117996455Y-82906494D01*
X117961801Y-82841661D01*
X117915165Y-82784835D01*
X117875000Y-82751872D01*
X117875000Y-81929621D01*
X117908339Y-81911801D01*
X117965165Y-81865165D01*
X118011801Y-81808339D01*
X118046455Y-81743506D01*
X118067794Y-81673159D01*
X118075000Y-81600000D01*
X118075000Y-77223669D01*
X121725000Y-77223669D01*
X121725000Y-77376331D01*
X121754783Y-77526059D01*
X121813204Y-77667100D01*
X121898018Y-77794034D01*
X122005966Y-77901982D01*
X122132900Y-77986796D01*
X122273941Y-78045217D01*
X122423669Y-78075000D01*
X122576331Y-78075000D01*
X122726059Y-78045217D01*
X122867100Y-77986796D01*
X122994034Y-77901982D01*
X123101982Y-77794034D01*
X123186796Y-77667100D01*
X123245217Y-77526059D01*
X123275000Y-77376331D01*
X123275000Y-77323669D01*
X125425000Y-77323669D01*
X125425000Y-77476331D01*
X125454783Y-77626059D01*
X125513204Y-77767100D01*
X125598018Y-77894034D01*
X125705966Y-78001982D01*
X125832900Y-78086796D01*
X125973941Y-78145217D01*
X126123669Y-78175000D01*
X126276331Y-78175000D01*
X126426059Y-78145217D01*
X126567100Y-78086796D01*
X126694034Y-78001982D01*
X126801982Y-77894034D01*
X126886796Y-77767100D01*
X126945217Y-77626059D01*
X126975000Y-77476331D01*
X126975000Y-77323669D01*
X126945217Y-77173941D01*
X126886796Y-77032900D01*
X126801982Y-76905966D01*
X126694034Y-76798018D01*
X126567100Y-76713204D01*
X126426059Y-76654783D01*
X126276331Y-76625000D01*
X126123669Y-76625000D01*
X125973941Y-76654783D01*
X125832900Y-76713204D01*
X125705966Y-76798018D01*
X125598018Y-76905966D01*
X125513204Y-77032900D01*
X125454783Y-77173941D01*
X125425000Y-77323669D01*
X123275000Y-77323669D01*
X123275000Y-77223669D01*
X123245217Y-77073941D01*
X123186796Y-76932900D01*
X123101982Y-76805966D01*
X122994034Y-76698018D01*
X122867100Y-76613204D01*
X122726059Y-76554783D01*
X122576331Y-76525000D01*
X122423669Y-76525000D01*
X122273941Y-76554783D01*
X122132900Y-76613204D01*
X122005966Y-76698018D01*
X121898018Y-76805966D01*
X121813204Y-76932900D01*
X121754783Y-77073941D01*
X121725000Y-77223669D01*
X118075000Y-77223669D01*
X118075000Y-71125000D01*
X128425000Y-71125000D01*
X128425000Y-97450000D01*
%TA.AperFunction,Conductor*%
D18*
G36*
X128425000Y-97450000D02*
G01*
X128427402Y-97474386D01*
X128434515Y-97497835D01*
X128446066Y-97519446D01*
X128461612Y-97538388D01*
X128480554Y-97553934D01*
X128502165Y-97565485D01*
X128525614Y-97572598D01*
X128550000Y-97575000D01*
X153575000Y-97575000D01*
X153575000Y-99600000D01*
X153577402Y-99624386D01*
X153584515Y-99647835D01*
X153596066Y-99669446D01*
X153611612Y-99688388D01*
X153630554Y-99703934D01*
X153652165Y-99715485D01*
X153675614Y-99722598D01*
X153700000Y-99725000D01*
X160175133Y-99725000D01*
X160223941Y-99745217D01*
X160373669Y-99775000D01*
X160526331Y-99775000D01*
X160676059Y-99745217D01*
X160724867Y-99725000D01*
X176100000Y-99725000D01*
X176100000Y-109350000D01*
X172125000Y-109350000D01*
X172125000Y-103600000D01*
X172122598Y-103575614D01*
X172115485Y-103552165D01*
X172103934Y-103530554D01*
X172088388Y-103511612D01*
X172069446Y-103496066D01*
X172047835Y-103484515D01*
X172024386Y-103477402D01*
X172000000Y-103475000D01*
X136500000Y-103475000D01*
X136475614Y-103477402D01*
X136452165Y-103484515D01*
X136430554Y-103496066D01*
X136411612Y-103511612D01*
X136396066Y-103530554D01*
X136384515Y-103552165D01*
X136377402Y-103575614D01*
X136375000Y-103600000D01*
X136375000Y-103725000D01*
X118125000Y-103725000D01*
X118125000Y-102200000D01*
X118117794Y-102126841D01*
X118096455Y-102056494D01*
X118061801Y-101991661D01*
X118025000Y-101946819D01*
X118025000Y-101123669D01*
X121825000Y-101123669D01*
X121825000Y-101276331D01*
X121854783Y-101426059D01*
X121913204Y-101567100D01*
X121998018Y-101694034D01*
X122105966Y-101801982D01*
X122232900Y-101886796D01*
X122373941Y-101945217D01*
X122523669Y-101975000D01*
X122676331Y-101975000D01*
X122826059Y-101945217D01*
X122967100Y-101886796D01*
X123094034Y-101801982D01*
X123201982Y-101694034D01*
X123286796Y-101567100D01*
X123345217Y-101426059D01*
X123375000Y-101276331D01*
X123375000Y-101123669D01*
X132275000Y-101123669D01*
X132275000Y-101276331D01*
X132304783Y-101426059D01*
X132363204Y-101567100D01*
X132448018Y-101694034D01*
X132555966Y-101801982D01*
X132682900Y-101886796D01*
X132823941Y-101945217D01*
X132973669Y-101975000D01*
X133126331Y-101975000D01*
X133276059Y-101945217D01*
X133417100Y-101886796D01*
X133544034Y-101801982D01*
X133651982Y-101694034D01*
X133736796Y-101567100D01*
X133795217Y-101426059D01*
X133825000Y-101276331D01*
X133825000Y-101123669D01*
X133795217Y-100973941D01*
X133736796Y-100832900D01*
X133651982Y-100705966D01*
X133544034Y-100598018D01*
X133417100Y-100513204D01*
X133276059Y-100454783D01*
X133126331Y-100425000D01*
X132973669Y-100425000D01*
X132823941Y-100454783D01*
X132682900Y-100513204D01*
X132555966Y-100598018D01*
X132448018Y-100705966D01*
X132363204Y-100832900D01*
X132304783Y-100973941D01*
X132275000Y-101123669D01*
X123375000Y-101123669D01*
X123345217Y-100973941D01*
X123286796Y-100832900D01*
X123201982Y-100705966D01*
X123094034Y-100598018D01*
X122967100Y-100513204D01*
X122826059Y-100454783D01*
X122676331Y-100425000D01*
X122523669Y-100425000D01*
X122373941Y-100454783D01*
X122232900Y-100513204D01*
X122105966Y-100598018D01*
X121998018Y-100705966D01*
X121913204Y-100832900D01*
X121854783Y-100973941D01*
X121825000Y-101123669D01*
X118025000Y-101123669D01*
X118025000Y-95050000D01*
X118017794Y-94976841D01*
X117996455Y-94906494D01*
X117961801Y-94841661D01*
X117915165Y-94784835D01*
X117875000Y-94751872D01*
X117875000Y-94002069D01*
X117893506Y-93996455D01*
X117958339Y-93961801D01*
X118015165Y-93915165D01*
X118061801Y-93858339D01*
X118096455Y-93793506D01*
X118117794Y-93723159D01*
X118125000Y-93650000D01*
X118125000Y-91223669D01*
X125275000Y-91223669D01*
X125275000Y-91376331D01*
X125304783Y-91526059D01*
X125363204Y-91667100D01*
X125448018Y-91794034D01*
X125555966Y-91901982D01*
X125682900Y-91986796D01*
X125823941Y-92045217D01*
X125973669Y-92075000D01*
X126126331Y-92075000D01*
X126276059Y-92045217D01*
X126417100Y-91986796D01*
X126544034Y-91901982D01*
X126651982Y-91794034D01*
X126736796Y-91667100D01*
X126795217Y-91526059D01*
X126825000Y-91376331D01*
X126825000Y-91223669D01*
X126795217Y-91073941D01*
X126736796Y-90932900D01*
X126651982Y-90805966D01*
X126544034Y-90698018D01*
X126417100Y-90613204D01*
X126276059Y-90554783D01*
X126126331Y-90525000D01*
X125973669Y-90525000D01*
X125823941Y-90554783D01*
X125682900Y-90613204D01*
X125555966Y-90698018D01*
X125448018Y-90805966D01*
X125363204Y-90932900D01*
X125304783Y-91073941D01*
X125275000Y-91223669D01*
X118125000Y-91223669D01*
X118125000Y-90200000D01*
X118117794Y-90126841D01*
X118096455Y-90056494D01*
X118061801Y-89991661D01*
X118025000Y-89946819D01*
X118025000Y-89057983D01*
X121809314Y-89057983D01*
X121809314Y-89210645D01*
X121839097Y-89360373D01*
X121897518Y-89501414D01*
X121982332Y-89628348D01*
X122090280Y-89736296D01*
X122217214Y-89821110D01*
X122358255Y-89879531D01*
X122507983Y-89909314D01*
X122660645Y-89909314D01*
X122810373Y-89879531D01*
X122951414Y-89821110D01*
X123078348Y-89736296D01*
X123186296Y-89628348D01*
X123271110Y-89501414D01*
X123329531Y-89360373D01*
X123359314Y-89210645D01*
X123359314Y-89057983D01*
X123329531Y-88908255D01*
X123271110Y-88767214D01*
X123186296Y-88640280D01*
X123078348Y-88532332D01*
X122951414Y-88447518D01*
X122810373Y-88389097D01*
X122660645Y-88359314D01*
X122507983Y-88359314D01*
X122358255Y-88389097D01*
X122217214Y-88447518D01*
X122090280Y-88532332D01*
X121982332Y-88640280D01*
X121897518Y-88767214D01*
X121839097Y-88908255D01*
X121809314Y-89057983D01*
X118025000Y-89057983D01*
X118025000Y-83050000D01*
X118017794Y-82976841D01*
X117996455Y-82906494D01*
X117961801Y-82841661D01*
X117915165Y-82784835D01*
X117875000Y-82751872D01*
X117875000Y-81929621D01*
X117908339Y-81911801D01*
X117965165Y-81865165D01*
X118011801Y-81808339D01*
X118046455Y-81743506D01*
X118067794Y-81673159D01*
X118075000Y-81600000D01*
X118075000Y-77223669D01*
X121725000Y-77223669D01*
X121725000Y-77376331D01*
X121754783Y-77526059D01*
X121813204Y-77667100D01*
X121898018Y-77794034D01*
X122005966Y-77901982D01*
X122132900Y-77986796D01*
X122273941Y-78045217D01*
X122423669Y-78075000D01*
X122576331Y-78075000D01*
X122726059Y-78045217D01*
X122867100Y-77986796D01*
X122994034Y-77901982D01*
X123101982Y-77794034D01*
X123186796Y-77667100D01*
X123245217Y-77526059D01*
X123275000Y-77376331D01*
X123275000Y-77323669D01*
X125425000Y-77323669D01*
X125425000Y-77476331D01*
X125454783Y-77626059D01*
X125513204Y-77767100D01*
X125598018Y-77894034D01*
X125705966Y-78001982D01*
X125832900Y-78086796D01*
X125973941Y-78145217D01*
X126123669Y-78175000D01*
X126276331Y-78175000D01*
X126426059Y-78145217D01*
X126567100Y-78086796D01*
X126694034Y-78001982D01*
X126801982Y-77894034D01*
X126886796Y-77767100D01*
X126945217Y-77626059D01*
X126975000Y-77476331D01*
X126975000Y-77323669D01*
X126945217Y-77173941D01*
X126886796Y-77032900D01*
X126801982Y-76905966D01*
X126694034Y-76798018D01*
X126567100Y-76713204D01*
X126426059Y-76654783D01*
X126276331Y-76625000D01*
X126123669Y-76625000D01*
X125973941Y-76654783D01*
X125832900Y-76713204D01*
X125705966Y-76798018D01*
X125598018Y-76905966D01*
X125513204Y-77032900D01*
X125454783Y-77173941D01*
X125425000Y-77323669D01*
X123275000Y-77323669D01*
X123275000Y-77223669D01*
X123245217Y-77073941D01*
X123186796Y-76932900D01*
X123101982Y-76805966D01*
X122994034Y-76698018D01*
X122867100Y-76613204D01*
X122726059Y-76554783D01*
X122576331Y-76525000D01*
X122423669Y-76525000D01*
X122273941Y-76554783D01*
X122132900Y-76613204D01*
X122005966Y-76698018D01*
X121898018Y-76805966D01*
X121813204Y-76932900D01*
X121754783Y-77073941D01*
X121725000Y-77223669D01*
X118075000Y-77223669D01*
X118075000Y-71125000D01*
X128425000Y-71125000D01*
X128425000Y-97450000D01*
G37*
%TD.AperFunction*%
D17*
X169125000Y-80625133D02*
X169086796Y-80532900D01*
X169001982Y-80405966D01*
X168894034Y-80298018D01*
X168767100Y-80213204D01*
X168626059Y-80154783D01*
X168476331Y-80125000D01*
X168323669Y-80125000D01*
X168173941Y-80154783D01*
X168032900Y-80213204D01*
X167905966Y-80298018D01*
X167798018Y-80405966D01*
X167713204Y-80532900D01*
X167654783Y-80673941D01*
X167625000Y-80823669D01*
X167625000Y-80976331D01*
X167654783Y-81126059D01*
X167713204Y-81267100D01*
X167798018Y-81394034D01*
X167905966Y-81501982D01*
X168032900Y-81586796D01*
X168173941Y-81645217D01*
X168323669Y-81675000D01*
X168476331Y-81675000D01*
X168626059Y-81645217D01*
X168767100Y-81586796D01*
X168894034Y-81501982D01*
X169001982Y-81394034D01*
X169086796Y-81267100D01*
X169125000Y-81174867D01*
X169125000Y-94000000D01*
X169127402Y-94024386D01*
X169134515Y-94047835D01*
X169146066Y-94069446D01*
X169161612Y-94088388D01*
X169180554Y-94103934D01*
X169202165Y-94115485D01*
X169225614Y-94122598D01*
X169250000Y-94125000D01*
X173395766Y-94125000D01*
X173354783Y-94223941D01*
X173325000Y-94373669D01*
X173325000Y-94526331D01*
X173354783Y-94676059D01*
X173413204Y-94817100D01*
X173498018Y-94944034D01*
X173605966Y-95051982D01*
X173732900Y-95136796D01*
X173873941Y-95195217D01*
X174023669Y-95225000D01*
X174176331Y-95225000D01*
X174326059Y-95195217D01*
X174467100Y-95136796D01*
X174594034Y-95051982D01*
X174701982Y-94944034D01*
X174786796Y-94817100D01*
X174845217Y-94676059D01*
X174875000Y-94526331D01*
X174875000Y-94373669D01*
X174845217Y-94223941D01*
X174804234Y-94125000D01*
X184000001Y-94125000D01*
X184000001Y-108730426D01*
X183986691Y-108866167D01*
X183952953Y-108977912D01*
X183898156Y-109080972D01*
X183824380Y-109171430D01*
X183734444Y-109245832D01*
X183631764Y-109301350D01*
X183520265Y-109335865D01*
X183385785Y-109350000D01*
X176175000Y-109350000D01*
X176175000Y-99725000D01*
X176225000Y-99725000D01*
X176225000Y-99600000D01*
X176175000Y-99600000D01*
X176175000Y-99350000D01*
X176172598Y-99325614D01*
X176165485Y-99302165D01*
X176153934Y-99280554D01*
X176138388Y-99261612D01*
X176119446Y-99246066D01*
X176097835Y-99234515D01*
X176074386Y-99227402D01*
X176050000Y-99225000D01*
X168631517Y-99225000D01*
X168636796Y-99217100D01*
X168695217Y-99076059D01*
X168725000Y-98926331D01*
X168725000Y-98773669D01*
X168695217Y-98623941D01*
X168667611Y-98557295D01*
X168717100Y-98536796D01*
X168844034Y-98451982D01*
X168875000Y-98421016D01*
X168905966Y-98451982D01*
X169032900Y-98536796D01*
X169173941Y-98595217D01*
X169323669Y-98625000D01*
X169476331Y-98625000D01*
X169626059Y-98595217D01*
X169767100Y-98536796D01*
X169894034Y-98451982D01*
X170001982Y-98344034D01*
X170086796Y-98217100D01*
X170145217Y-98076059D01*
X170175000Y-97926331D01*
X170175000Y-97773669D01*
X170145217Y-97623941D01*
X170086796Y-97482900D01*
X170001982Y-97355966D01*
X169894034Y-97248018D01*
X169767100Y-97163204D01*
X169626059Y-97104783D01*
X169476331Y-97075000D01*
X169323669Y-97075000D01*
X169173941Y-97104783D01*
X169032900Y-97163204D01*
X168905966Y-97248018D01*
X168875000Y-97278984D01*
X168844034Y-97248018D01*
X168717100Y-97163204D01*
X168576059Y-97104783D01*
X168426331Y-97075000D01*
X168273669Y-97075000D01*
X168123941Y-97104783D01*
X167982900Y-97163204D01*
X167855966Y-97248018D01*
X167748018Y-97355966D01*
X167663204Y-97482900D01*
X167604783Y-97623941D01*
X167575000Y-97773669D01*
X167575000Y-97926331D01*
X167604783Y-98076059D01*
X167632389Y-98142705D01*
X167582900Y-98163204D01*
X167455966Y-98248018D01*
X167348018Y-98355966D01*
X167263204Y-98482900D01*
X167204783Y-98623941D01*
X167175000Y-98773669D01*
X167175000Y-98926331D01*
X167204783Y-99076059D01*
X167263204Y-99217100D01*
X167268483Y-99225000D01*
X161195428Y-99225000D01*
X161225000Y-99076331D01*
X161225000Y-98923669D01*
X161195217Y-98773941D01*
X161136796Y-98632900D01*
X161051982Y-98505966D01*
X160944034Y-98398018D01*
X160817100Y-98313204D01*
X160676059Y-98254783D01*
X160526331Y-98225000D01*
X160373669Y-98225000D01*
X160223941Y-98254783D01*
X160082900Y-98313204D01*
X159955966Y-98398018D01*
X159848018Y-98505966D01*
X159763204Y-98632900D01*
X159704783Y-98773941D01*
X159675000Y-98923669D01*
X159675000Y-99076331D01*
X159704572Y-99225000D01*
X154125000Y-99225000D01*
X154125000Y-97050000D01*
X154122598Y-97025614D01*
X154115485Y-97002165D01*
X154103934Y-96980554D01*
X154088388Y-96961612D01*
X154069446Y-96946066D01*
X154047835Y-96934515D01*
X154024386Y-96927402D01*
X154000000Y-96925000D01*
X142571016Y-96925000D01*
X142601982Y-96894034D01*
X142686796Y-96767100D01*
X142745217Y-96626059D01*
X142775000Y-96476331D01*
X142775000Y-96323669D01*
X142745217Y-96173941D01*
X142686796Y-96032900D01*
X142601982Y-95905966D01*
X142494034Y-95798018D01*
X142367100Y-95713204D01*
X142226059Y-95654783D01*
X142076331Y-95625000D01*
X141923669Y-95625000D01*
X141773941Y-95654783D01*
X141632900Y-95713204D01*
X141505966Y-95798018D01*
X141398018Y-95905966D01*
X141313204Y-96032900D01*
X141254783Y-96173941D01*
X141225000Y-96323669D01*
X141225000Y-96476331D01*
X141254783Y-96626059D01*
X141313204Y-96767100D01*
X141398018Y-96894034D01*
X141428984Y-96925000D01*
X129025000Y-96925000D01*
X129025000Y-95023669D01*
X129125000Y-95023669D01*
X129125000Y-95176331D01*
X129154783Y-95326059D01*
X129213204Y-95467100D01*
X129298018Y-95594034D01*
X129405966Y-95701982D01*
X129532900Y-95786796D01*
X129673941Y-95845217D01*
X129823669Y-95875000D01*
X129976331Y-95875000D01*
X130126059Y-95845217D01*
X130267100Y-95786796D01*
X130394034Y-95701982D01*
X130501982Y-95594034D01*
X130586796Y-95467100D01*
X130645217Y-95326059D01*
X130675000Y-95176331D01*
X130675000Y-95023669D01*
X138475000Y-95023669D01*
X138475000Y-95176331D01*
X138504783Y-95326059D01*
X138563204Y-95467100D01*
X138648018Y-95594034D01*
X138755966Y-95701982D01*
X138882900Y-95786796D01*
X139023941Y-95845217D01*
X139173669Y-95875000D01*
X139326331Y-95875000D01*
X139476059Y-95845217D01*
X139617100Y-95786796D01*
X139744034Y-95701982D01*
X139851982Y-95594034D01*
X139936796Y-95467100D01*
X139995217Y-95326059D01*
X140025000Y-95176331D01*
X140025000Y-95023669D01*
X139995217Y-94873941D01*
X139936796Y-94732900D01*
X139851982Y-94605966D01*
X139744034Y-94498018D01*
X139617100Y-94413204D01*
X139476059Y-94354783D01*
X139326331Y-94325000D01*
X139173669Y-94325000D01*
X139023941Y-94354783D01*
X138882900Y-94413204D01*
X138755966Y-94498018D01*
X138648018Y-94605966D01*
X138563204Y-94732900D01*
X138504783Y-94873941D01*
X138475000Y-95023669D01*
X130675000Y-95023669D01*
X130645217Y-94873941D01*
X130586796Y-94732900D01*
X130501982Y-94605966D01*
X130394034Y-94498018D01*
X130267100Y-94413204D01*
X130126059Y-94354783D01*
X129976331Y-94325000D01*
X129823669Y-94325000D01*
X129673941Y-94354783D01*
X129532900Y-94413204D01*
X129405966Y-94498018D01*
X129298018Y-94605966D01*
X129213204Y-94732900D01*
X129154783Y-94873941D01*
X129125000Y-95023669D01*
X129025000Y-95023669D01*
X129025000Y-93823669D01*
X143025000Y-93823669D01*
X143025000Y-93976331D01*
X143054783Y-94126059D01*
X143113204Y-94267100D01*
X143198018Y-94394034D01*
X143305966Y-94501982D01*
X143432900Y-94586796D01*
X143573941Y-94645217D01*
X143723669Y-94675000D01*
X143876331Y-94675000D01*
X144026059Y-94645217D01*
X144167100Y-94586796D01*
X144294034Y-94501982D01*
X144401982Y-94394034D01*
X144486796Y-94267100D01*
X144545217Y-94126059D01*
X144575000Y-93976331D01*
X144575000Y-93823669D01*
X144558703Y-93741739D01*
X146223775Y-93741739D01*
X146223775Y-93894401D01*
X146253558Y-94044129D01*
X146311979Y-94185170D01*
X146396793Y-94312104D01*
X146504741Y-94420052D01*
X146631675Y-94504866D01*
X146772716Y-94563287D01*
X146922444Y-94593070D01*
X147075106Y-94593070D01*
X147224834Y-94563287D01*
X147365875Y-94504866D01*
X147492809Y-94420052D01*
X147600757Y-94312104D01*
X147685571Y-94185170D01*
X147743992Y-94044129D01*
X147773775Y-93894401D01*
X147773775Y-93788444D01*
X148624997Y-93788444D01*
X148624997Y-93911558D01*
X148649015Y-94032306D01*
X148696129Y-94146049D01*
X148764528Y-94248415D01*
X148851582Y-94335469D01*
X148953948Y-94403868D01*
X149067691Y-94450982D01*
X149188439Y-94475000D01*
X149311553Y-94475000D01*
X149431405Y-94451160D01*
X149396130Y-94503953D01*
X149349016Y-94617696D01*
X149324998Y-94738444D01*
X149324998Y-94861558D01*
X149349016Y-94982306D01*
X149396130Y-95096049D01*
X149446270Y-95171088D01*
X149405966Y-95198018D01*
X149298018Y-95305966D01*
X149213204Y-95432900D01*
X149154783Y-95573941D01*
X149125000Y-95723669D01*
X149125000Y-95876331D01*
X149154783Y-96026059D01*
X149213204Y-96167100D01*
X149298018Y-96294034D01*
X149405966Y-96401982D01*
X149532900Y-96486796D01*
X149673941Y-96545217D01*
X149823669Y-96575000D01*
X149976331Y-96575000D01*
X150126059Y-96545217D01*
X150267100Y-96486796D01*
X150394034Y-96401982D01*
X150501982Y-96294034D01*
X150586796Y-96167100D01*
X150645217Y-96026059D01*
X150675000Y-95876331D01*
X150675000Y-95850000D01*
X155073186Y-95850000D01*
X155073186Y-97550000D01*
X155080426Y-97623513D01*
X155101869Y-97694200D01*
X155136691Y-97759347D01*
X155183552Y-97816448D01*
X155240653Y-97863309D01*
X155305800Y-97898131D01*
X155376487Y-97919574D01*
X155450000Y-97926814D01*
X157150000Y-97926814D01*
X157223513Y-97919574D01*
X157294200Y-97898131D01*
X157359347Y-97863309D01*
X157416448Y-97816448D01*
X157463309Y-97759347D01*
X157498131Y-97694200D01*
X157519574Y-97623513D01*
X157526814Y-97550000D01*
X157526814Y-96579348D01*
X157615000Y-96579348D01*
X157615000Y-96820652D01*
X157662076Y-97057319D01*
X157754419Y-97280255D01*
X157888481Y-97480892D01*
X158059108Y-97651519D01*
X158259745Y-97785581D01*
X158482681Y-97877924D01*
X158719348Y-97925000D01*
X158960652Y-97925000D01*
X159197319Y-97877924D01*
X159420255Y-97785581D01*
X159620892Y-97651519D01*
X159791519Y-97480892D01*
X159925581Y-97280255D01*
X160017924Y-97057319D01*
X160065000Y-96820652D01*
X160065000Y-96579348D01*
X160155000Y-96579348D01*
X160155000Y-96820652D01*
X160202076Y-97057319D01*
X160294419Y-97280255D01*
X160428481Y-97480892D01*
X160599108Y-97651519D01*
X160799745Y-97785581D01*
X161022681Y-97877924D01*
X161259348Y-97925000D01*
X161500652Y-97925000D01*
X161737319Y-97877924D01*
X161960255Y-97785581D01*
X162160892Y-97651519D01*
X162331519Y-97480892D01*
X162465581Y-97280255D01*
X162557924Y-97057319D01*
X162605000Y-96820652D01*
X162605000Y-96579348D01*
X162557924Y-96342681D01*
X162465581Y-96119745D01*
X162331519Y-95919108D01*
X162160892Y-95748481D01*
X161960255Y-95614419D01*
X161737319Y-95522076D01*
X161500652Y-95475000D01*
X161259348Y-95475000D01*
X161022681Y-95522076D01*
X160799745Y-95614419D01*
X160599108Y-95748481D01*
X160428481Y-95919108D01*
X160294419Y-96119745D01*
X160202076Y-96342681D01*
X160155000Y-96579348D01*
X160065000Y-96579348D01*
X160017924Y-96342681D01*
X159925581Y-96119745D01*
X159791519Y-95919108D01*
X159620892Y-95748481D01*
X159420255Y-95614419D01*
X159197319Y-95522076D01*
X158960652Y-95475000D01*
X158719348Y-95475000D01*
X158482681Y-95522076D01*
X158259745Y-95614419D01*
X158059108Y-95748481D01*
X157888481Y-95919108D01*
X157754419Y-96119745D01*
X157662076Y-96342681D01*
X157615000Y-96579348D01*
X157526814Y-96579348D01*
X157526814Y-95850000D01*
X157519574Y-95776487D01*
X157498131Y-95705800D01*
X157463309Y-95640653D01*
X157416448Y-95583552D01*
X157359347Y-95536691D01*
X157294200Y-95501869D01*
X157223513Y-95480426D01*
X157150000Y-95473186D01*
X155450000Y-95473186D01*
X155376487Y-95480426D01*
X155305800Y-95501869D01*
X155240653Y-95536691D01*
X155183552Y-95583552D01*
X155136691Y-95640653D01*
X155101869Y-95705800D01*
X155080426Y-95776487D01*
X155073186Y-95850000D01*
X150675000Y-95850000D01*
X150675000Y-95723669D01*
X150645217Y-95573941D01*
X150586796Y-95432900D01*
X150501982Y-95305966D01*
X150414948Y-95218932D01*
X150435465Y-95198415D01*
X150503864Y-95096049D01*
X150550978Y-94982306D01*
X150574996Y-94861558D01*
X150574996Y-94738444D01*
X150550978Y-94617696D01*
X150512031Y-94523669D01*
X156125000Y-94523669D01*
X156125000Y-94676331D01*
X156154783Y-94826059D01*
X156213204Y-94967100D01*
X156298018Y-95094034D01*
X156405966Y-95201982D01*
X156532900Y-95286796D01*
X156673941Y-95345217D01*
X156823669Y-95375000D01*
X156976331Y-95375000D01*
X157126059Y-95345217D01*
X157267100Y-95286796D01*
X157394034Y-95201982D01*
X157501982Y-95094034D01*
X157586796Y-94967100D01*
X157645217Y-94826059D01*
X157675000Y-94676331D01*
X157675000Y-94523669D01*
X157645217Y-94373941D01*
X157586796Y-94232900D01*
X157501982Y-94105966D01*
X157394034Y-93998018D01*
X157267100Y-93913204D01*
X157126059Y-93854783D01*
X156976331Y-93825000D01*
X156823669Y-93825000D01*
X156673941Y-93854783D01*
X156532900Y-93913204D01*
X156405966Y-93998018D01*
X156298018Y-94105966D01*
X156213204Y-94232900D01*
X156154783Y-94373941D01*
X156125000Y-94523669D01*
X150512031Y-94523669D01*
X150503864Y-94503953D01*
X150468589Y-94451160D01*
X150588442Y-94475000D01*
X150711556Y-94475000D01*
X150832304Y-94450982D01*
X150946047Y-94403868D01*
X151048413Y-94335469D01*
X151135467Y-94248415D01*
X151203866Y-94146049D01*
X151250980Y-94032306D01*
X151274998Y-93911558D01*
X151274998Y-93788444D01*
X151250980Y-93667696D01*
X151203866Y-93553953D01*
X151135467Y-93451587D01*
X151048413Y-93364533D01*
X150946047Y-93296134D01*
X150832304Y-93249020D01*
X150711556Y-93225002D01*
X150588442Y-93225002D01*
X150468588Y-93248842D01*
X150503864Y-93196048D01*
X150550978Y-93082305D01*
X150574996Y-92961557D01*
X150574996Y-92838443D01*
X150550978Y-92717695D01*
X150503864Y-92603952D01*
X150435465Y-92501586D01*
X150348411Y-92414532D01*
X150246045Y-92346133D01*
X150132302Y-92299019D01*
X150011554Y-92275001D01*
X149888440Y-92275001D01*
X149767692Y-92299019D01*
X149653949Y-92346133D01*
X149551583Y-92414532D01*
X149464529Y-92501586D01*
X149396130Y-92603952D01*
X149349016Y-92717695D01*
X149324998Y-92838443D01*
X149324998Y-92961557D01*
X149349016Y-93082305D01*
X149396130Y-93196048D01*
X149431406Y-93248842D01*
X149311553Y-93225002D01*
X149188439Y-93225002D01*
X149067691Y-93249020D01*
X148953948Y-93296134D01*
X148851582Y-93364533D01*
X148764528Y-93451587D01*
X148696129Y-93553953D01*
X148649015Y-93667696D01*
X148624997Y-93788444D01*
X147773775Y-93788444D01*
X147773775Y-93741739D01*
X147743992Y-93592011D01*
X147685571Y-93450970D01*
X147600757Y-93324036D01*
X147564566Y-93287845D01*
X147567100Y-93286796D01*
X147694034Y-93201982D01*
X147801982Y-93094034D01*
X147886796Y-92967100D01*
X147945217Y-92826059D01*
X147975000Y-92676331D01*
X147975000Y-92523669D01*
X147945217Y-92373941D01*
X147886796Y-92232900D01*
X147801982Y-92105966D01*
X147694034Y-91998018D01*
X147643350Y-91964152D01*
X147701596Y-91876980D01*
X147760017Y-91735939D01*
X147789800Y-91586211D01*
X147789800Y-91465685D01*
X152557678Y-91465685D01*
X152557678Y-91618347D01*
X152587461Y-91768075D01*
X152645882Y-91909116D01*
X152730696Y-92036050D01*
X152838644Y-92143998D01*
X152965578Y-92228812D01*
X153106619Y-92287233D01*
X153239914Y-92313747D01*
X153239914Y-92349481D01*
X153269697Y-92499209D01*
X153328118Y-92640250D01*
X153412932Y-92767184D01*
X153472407Y-92826659D01*
X153423018Y-92876048D01*
X153338204Y-93002982D01*
X153279783Y-93144023D01*
X153250000Y-93293751D01*
X153250000Y-93446413D01*
X153279783Y-93596141D01*
X153338204Y-93737182D01*
X153423018Y-93864116D01*
X153530966Y-93972064D01*
X153657900Y-94056878D01*
X153798941Y-94115299D01*
X153948669Y-94145082D01*
X154101331Y-94145082D01*
X154251059Y-94115299D01*
X154392100Y-94056878D01*
X154519034Y-93972064D01*
X154626982Y-93864116D01*
X154711796Y-93737182D01*
X154770217Y-93596141D01*
X154800000Y-93446413D01*
X154800000Y-93293751D01*
X154786060Y-93223669D01*
X158725000Y-93223669D01*
X158725000Y-93376331D01*
X158754783Y-93526059D01*
X158813204Y-93667100D01*
X158898018Y-93794034D01*
X159005966Y-93901982D01*
X159132900Y-93986796D01*
X159273941Y-94045217D01*
X159423669Y-94075000D01*
X159576331Y-94075000D01*
X159726059Y-94045217D01*
X159867100Y-93986796D01*
X159994034Y-93901982D01*
X160101982Y-93794034D01*
X160148998Y-93723669D01*
X160325000Y-93723669D01*
X160325000Y-93876331D01*
X160354783Y-94026059D01*
X160413204Y-94167100D01*
X160498018Y-94294034D01*
X160605966Y-94401982D01*
X160732900Y-94486796D01*
X160873941Y-94545217D01*
X161023669Y-94575000D01*
X161176331Y-94575000D01*
X161326059Y-94545217D01*
X161357350Y-94532256D01*
X161413204Y-94667100D01*
X161498018Y-94794034D01*
X161605966Y-94901982D01*
X161732900Y-94986796D01*
X161873941Y-95045217D01*
X162023669Y-95075000D01*
X162176331Y-95075000D01*
X162326059Y-95045217D01*
X162467100Y-94986796D01*
X162594034Y-94901982D01*
X162701982Y-94794034D01*
X162786796Y-94667100D01*
X162845217Y-94526059D01*
X162875000Y-94376331D01*
X162875000Y-94223669D01*
X162845217Y-94073941D01*
X162786796Y-93932900D01*
X162701982Y-93805966D01*
X162594034Y-93698018D01*
X162467100Y-93613204D01*
X162326059Y-93554783D01*
X162176331Y-93525000D01*
X162023669Y-93525000D01*
X161873941Y-93554783D01*
X161842650Y-93567744D01*
X161786796Y-93432900D01*
X161701982Y-93305966D01*
X161594034Y-93198018D01*
X161467100Y-93113204D01*
X161326059Y-93054783D01*
X161176331Y-93025000D01*
X161023669Y-93025000D01*
X160873941Y-93054783D01*
X160732900Y-93113204D01*
X160605966Y-93198018D01*
X160498018Y-93305966D01*
X160413204Y-93432900D01*
X160354783Y-93573941D01*
X160325000Y-93723669D01*
X160148998Y-93723669D01*
X160186796Y-93667100D01*
X160245217Y-93526059D01*
X160275000Y-93376331D01*
X160275000Y-93223669D01*
X160245217Y-93073941D01*
X160186796Y-92932900D01*
X160101982Y-92805966D01*
X159994034Y-92698018D01*
X159867100Y-92613204D01*
X159726059Y-92554783D01*
X159576331Y-92525000D01*
X159423669Y-92525000D01*
X159273941Y-92554783D01*
X159132900Y-92613204D01*
X159005966Y-92698018D01*
X158898018Y-92805966D01*
X158813204Y-92932900D01*
X158754783Y-93073941D01*
X158725000Y-93223669D01*
X154786060Y-93223669D01*
X154770217Y-93144023D01*
X154711796Y-93002982D01*
X154626982Y-92876048D01*
X154567507Y-92816573D01*
X154616896Y-92767184D01*
X154701710Y-92640250D01*
X154760131Y-92499209D01*
X154763726Y-92481133D01*
X161895144Y-92481133D01*
X161895144Y-92633795D01*
X161924927Y-92783523D01*
X161983348Y-92924564D01*
X162068162Y-93051498D01*
X162176110Y-93159446D01*
X162303044Y-93244260D01*
X162444085Y-93302681D01*
X162593813Y-93332464D01*
X162746475Y-93332464D01*
X162896203Y-93302681D01*
X163037244Y-93244260D01*
X163164178Y-93159446D01*
X163272126Y-93051498D01*
X163356940Y-92924564D01*
X163415361Y-92783523D01*
X163445144Y-92633795D01*
X163445144Y-92481133D01*
X163415361Y-92331405D01*
X163356940Y-92190364D01*
X163272126Y-92063430D01*
X163164178Y-91955482D01*
X163037244Y-91870668D01*
X162896203Y-91812247D01*
X162746475Y-91782464D01*
X162593813Y-91782464D01*
X162444085Y-91812247D01*
X162303044Y-91870668D01*
X162176110Y-91955482D01*
X162068162Y-92063430D01*
X161983348Y-92190364D01*
X161924927Y-92331405D01*
X161895144Y-92481133D01*
X154763726Y-92481133D01*
X154789914Y-92349481D01*
X154789914Y-92196819D01*
X154760131Y-92047091D01*
X154701710Y-91906050D01*
X154616896Y-91779116D01*
X154508948Y-91671168D01*
X154382014Y-91586354D01*
X154240973Y-91527933D01*
X154107678Y-91501419D01*
X154107678Y-91465685D01*
X154077895Y-91315957D01*
X154019474Y-91174916D01*
X153934660Y-91047982D01*
X153826712Y-90940034D01*
X153699778Y-90855220D01*
X153558737Y-90796799D01*
X153409009Y-90767016D01*
X153256347Y-90767016D01*
X153106619Y-90796799D01*
X152965578Y-90855220D01*
X152838644Y-90940034D01*
X152730696Y-91047982D01*
X152645882Y-91174916D01*
X152587461Y-91315957D01*
X152557678Y-91465685D01*
X147789800Y-91465685D01*
X147789800Y-91433549D01*
X147760017Y-91283821D01*
X147701596Y-91142780D01*
X147616782Y-91015846D01*
X147508834Y-90907898D01*
X147381900Y-90823084D01*
X147240859Y-90764663D01*
X147091131Y-90734880D01*
X146938469Y-90734880D01*
X146788741Y-90764663D01*
X146647700Y-90823084D01*
X146520766Y-90907898D01*
X146412818Y-91015846D01*
X146328004Y-91142780D01*
X146269583Y-91283821D01*
X146239800Y-91433549D01*
X146239800Y-91586211D01*
X146269583Y-91735939D01*
X146328004Y-91876980D01*
X146412818Y-92003914D01*
X146520766Y-92111862D01*
X146571450Y-92145728D01*
X146513204Y-92232900D01*
X146454783Y-92373941D01*
X146425000Y-92523669D01*
X146425000Y-92676331D01*
X146454783Y-92826059D01*
X146513204Y-92967100D01*
X146598018Y-93094034D01*
X146634209Y-93130225D01*
X146631675Y-93131274D01*
X146504741Y-93216088D01*
X146396793Y-93324036D01*
X146311979Y-93450970D01*
X146253558Y-93592011D01*
X146223775Y-93741739D01*
X144558703Y-93741739D01*
X144545217Y-93673941D01*
X144486796Y-93532900D01*
X144401982Y-93405966D01*
X144294034Y-93298018D01*
X144167100Y-93213204D01*
X144026059Y-93154783D01*
X143876331Y-93125000D01*
X143723669Y-93125000D01*
X143573941Y-93154783D01*
X143432900Y-93213204D01*
X143305966Y-93298018D01*
X143198018Y-93405966D01*
X143113204Y-93532900D01*
X143054783Y-93673941D01*
X143025000Y-93823669D01*
X129025000Y-93823669D01*
X129025000Y-88670505D01*
X132178165Y-88670505D01*
X132178165Y-88823167D01*
X132207948Y-88972895D01*
X132266369Y-89113936D01*
X132351183Y-89240870D01*
X132459131Y-89348818D01*
X132519365Y-89389065D01*
X132505966Y-89398018D01*
X132398018Y-89505966D01*
X132313204Y-89632900D01*
X132254783Y-89773941D01*
X132225000Y-89923669D01*
X132225000Y-90076331D01*
X132254783Y-90226059D01*
X132313204Y-90367100D01*
X132398018Y-90494034D01*
X132505966Y-90601982D01*
X132632900Y-90686796D01*
X132773941Y-90745217D01*
X132923669Y-90775000D01*
X133076331Y-90775000D01*
X133226059Y-90745217D01*
X133367100Y-90686796D01*
X133494034Y-90601982D01*
X133601982Y-90494034D01*
X133686796Y-90367100D01*
X133745217Y-90226059D01*
X133775000Y-90076331D01*
X133775000Y-89923669D01*
X152125000Y-89923669D01*
X152125000Y-90076331D01*
X152154783Y-90226059D01*
X152213204Y-90367100D01*
X152298018Y-90494034D01*
X152405966Y-90601982D01*
X152532900Y-90686796D01*
X152673941Y-90745217D01*
X152823669Y-90775000D01*
X152976331Y-90775000D01*
X153126059Y-90745217D01*
X153267100Y-90686796D01*
X153394034Y-90601982D01*
X153501982Y-90494034D01*
X153586796Y-90367100D01*
X153645217Y-90226059D01*
X153675000Y-90076331D01*
X153675000Y-89923669D01*
X153645217Y-89773941D01*
X153586796Y-89632900D01*
X153501982Y-89505966D01*
X153394034Y-89398018D01*
X153267100Y-89313204D01*
X153126059Y-89254783D01*
X152976331Y-89225000D01*
X152823669Y-89225000D01*
X152673941Y-89254783D01*
X152532900Y-89313204D01*
X152405966Y-89398018D01*
X152298018Y-89505966D01*
X152213204Y-89632900D01*
X152154783Y-89773941D01*
X152125000Y-89923669D01*
X133775000Y-89923669D01*
X133745217Y-89773941D01*
X133686796Y-89632900D01*
X133601982Y-89505966D01*
X133494034Y-89398018D01*
X133433800Y-89357771D01*
X133447199Y-89348818D01*
X133555147Y-89240870D01*
X133639961Y-89113936D01*
X133698382Y-88972895D01*
X133728165Y-88823167D01*
X133728165Y-88670505D01*
X133698382Y-88520777D01*
X133658159Y-88423669D01*
X143800000Y-88423669D01*
X143800000Y-88576331D01*
X143829783Y-88726059D01*
X143888204Y-88867100D01*
X143973018Y-88994034D01*
X144080966Y-89101982D01*
X144207900Y-89186796D01*
X144348941Y-89245217D01*
X144498669Y-89275000D01*
X144651331Y-89275000D01*
X144801059Y-89245217D01*
X144942100Y-89186796D01*
X145069034Y-89101982D01*
X145176982Y-88994034D01*
X145261796Y-88867100D01*
X145320217Y-88726059D01*
X145350000Y-88576331D01*
X145350000Y-88423669D01*
X146925000Y-88423669D01*
X146925000Y-88576331D01*
X146954783Y-88726059D01*
X147013204Y-88867100D01*
X147098018Y-88994034D01*
X147205966Y-89101982D01*
X147332900Y-89186796D01*
X147473941Y-89245217D01*
X147623669Y-89275000D01*
X147776331Y-89275000D01*
X147926059Y-89245217D01*
X148067100Y-89186796D01*
X148194034Y-89101982D01*
X148301982Y-88994034D01*
X148386796Y-88867100D01*
X148445217Y-88726059D01*
X148475000Y-88576331D01*
X148475000Y-88423669D01*
X148445217Y-88273941D01*
X148386796Y-88132900D01*
X148301982Y-88005966D01*
X148194034Y-87898018D01*
X148117360Y-87846786D01*
X149095727Y-87846786D01*
X149095727Y-87999448D01*
X149125510Y-88149176D01*
X149183931Y-88290217D01*
X149268745Y-88417151D01*
X149376693Y-88525099D01*
X149503627Y-88609913D01*
X149644668Y-88668334D01*
X149794396Y-88698117D01*
X149947058Y-88698117D01*
X150096786Y-88668334D01*
X150237827Y-88609913D01*
X150364761Y-88525099D01*
X150472709Y-88417151D01*
X150557523Y-88290217D01*
X150564377Y-88273669D01*
X161725000Y-88273669D01*
X161725000Y-88426331D01*
X161754783Y-88576059D01*
X161813204Y-88717100D01*
X161898018Y-88844034D01*
X161963352Y-88909368D01*
X161917889Y-88977408D01*
X161859468Y-89118449D01*
X161829685Y-89268177D01*
X161829685Y-89420839D01*
X161859468Y-89570567D01*
X161917889Y-89711608D01*
X162002703Y-89838542D01*
X162110651Y-89946490D01*
X162237585Y-90031304D01*
X162378626Y-90089725D01*
X162528354Y-90119508D01*
X162681016Y-90119508D01*
X162830744Y-90089725D01*
X162971785Y-90031304D01*
X163098719Y-89946490D01*
X163206667Y-89838542D01*
X163291481Y-89711608D01*
X163349902Y-89570567D01*
X163379685Y-89420839D01*
X163379685Y-89268177D01*
X163349902Y-89118449D01*
X163291481Y-88977408D01*
X163206667Y-88850474D01*
X163141333Y-88785140D01*
X163186796Y-88717100D01*
X163245217Y-88576059D01*
X163275000Y-88426331D01*
X163275000Y-88273669D01*
X163265055Y-88223669D01*
X164825000Y-88223669D01*
X164825000Y-88376331D01*
X164854783Y-88526059D01*
X164913204Y-88667100D01*
X164998018Y-88794034D01*
X165105966Y-88901982D01*
X165232900Y-88986796D01*
X165373941Y-89045217D01*
X165523669Y-89075000D01*
X165676331Y-89075000D01*
X165826059Y-89045217D01*
X165967100Y-88986796D01*
X166094034Y-88901982D01*
X166201982Y-88794034D01*
X166286796Y-88667100D01*
X166345217Y-88526059D01*
X166365583Y-88423669D01*
X167325000Y-88423669D01*
X167325000Y-88576331D01*
X167354783Y-88726059D01*
X167413204Y-88867100D01*
X167498018Y-88994034D01*
X167605966Y-89101982D01*
X167732900Y-89186796D01*
X167873941Y-89245217D01*
X168023669Y-89275000D01*
X168176331Y-89275000D01*
X168326059Y-89245217D01*
X168467100Y-89186796D01*
X168594034Y-89101982D01*
X168701982Y-88994034D01*
X168786796Y-88867100D01*
X168845217Y-88726059D01*
X168875000Y-88576331D01*
X168875000Y-88423669D01*
X168845217Y-88273941D01*
X168786796Y-88132900D01*
X168701982Y-88005966D01*
X168594034Y-87898018D01*
X168467100Y-87813204D01*
X168326059Y-87754783D01*
X168176331Y-87725000D01*
X168023669Y-87725000D01*
X167873941Y-87754783D01*
X167732900Y-87813204D01*
X167605966Y-87898018D01*
X167498018Y-88005966D01*
X167413204Y-88132900D01*
X167354783Y-88273941D01*
X167325000Y-88423669D01*
X166365583Y-88423669D01*
X166375000Y-88376331D01*
X166375000Y-88223669D01*
X166345217Y-88073941D01*
X166286796Y-87932900D01*
X166217230Y-87828786D01*
X166251982Y-87794034D01*
X166336796Y-87667100D01*
X166395217Y-87526059D01*
X166425000Y-87376331D01*
X166425000Y-87223669D01*
X166395217Y-87073941D01*
X166336796Y-86932900D01*
X166251982Y-86805966D01*
X166144034Y-86698018D01*
X166017100Y-86613204D01*
X165876059Y-86554783D01*
X165726331Y-86525000D01*
X165573669Y-86525000D01*
X165423941Y-86554783D01*
X165282900Y-86613204D01*
X165155966Y-86698018D01*
X165048018Y-86805966D01*
X164963204Y-86932900D01*
X164904783Y-87073941D01*
X164875000Y-87223669D01*
X164875000Y-87376331D01*
X164904783Y-87526059D01*
X164963204Y-87667100D01*
X165032770Y-87771214D01*
X164998018Y-87805966D01*
X164913204Y-87932900D01*
X164854783Y-88073941D01*
X164825000Y-88223669D01*
X163265055Y-88223669D01*
X163245217Y-88123941D01*
X163186796Y-87982900D01*
X163101982Y-87855966D01*
X162994034Y-87748018D01*
X162867100Y-87663204D01*
X162726059Y-87604783D01*
X162576331Y-87575000D01*
X162423669Y-87575000D01*
X162273941Y-87604783D01*
X162132900Y-87663204D01*
X162005966Y-87748018D01*
X161898018Y-87855966D01*
X161813204Y-87982900D01*
X161754783Y-88123941D01*
X161725000Y-88273669D01*
X150564377Y-88273669D01*
X150615944Y-88149176D01*
X150645727Y-87999448D01*
X150645727Y-87846786D01*
X150615944Y-87697058D01*
X150557523Y-87556017D01*
X150472709Y-87429083D01*
X150364761Y-87321135D01*
X150237827Y-87236321D01*
X150096786Y-87177900D01*
X149947058Y-87148117D01*
X149794396Y-87148117D01*
X149644668Y-87177900D01*
X149503627Y-87236321D01*
X149376693Y-87321135D01*
X149268745Y-87429083D01*
X149183931Y-87556017D01*
X149125510Y-87697058D01*
X149095727Y-87846786D01*
X148117360Y-87846786D01*
X148067100Y-87813204D01*
X147926059Y-87754783D01*
X147776331Y-87725000D01*
X147623669Y-87725000D01*
X147473941Y-87754783D01*
X147332900Y-87813204D01*
X147205966Y-87898018D01*
X147098018Y-88005966D01*
X147013204Y-88132900D01*
X146954783Y-88273941D01*
X146925000Y-88423669D01*
X145350000Y-88423669D01*
X145340319Y-88375000D01*
X145376331Y-88375000D01*
X145526059Y-88345217D01*
X145667100Y-88286796D01*
X145794034Y-88201982D01*
X145901982Y-88094034D01*
X145986796Y-87967100D01*
X146045217Y-87826059D01*
X146075000Y-87676331D01*
X146075000Y-87524990D01*
X146126341Y-87524990D01*
X146276069Y-87495207D01*
X146417110Y-87436786D01*
X146544044Y-87351972D01*
X146651992Y-87244024D01*
X146736806Y-87117090D01*
X146795227Y-86976049D01*
X146825010Y-86826321D01*
X146825010Y-86673659D01*
X146795227Y-86523931D01*
X146736806Y-86382890D01*
X146651992Y-86255956D01*
X146544044Y-86148008D01*
X146417110Y-86063194D01*
X146276069Y-86004773D01*
X146126341Y-85974990D01*
X145973679Y-85974990D01*
X145823951Y-86004773D01*
X145682910Y-86063194D01*
X145555976Y-86148008D01*
X145448028Y-86255956D01*
X145363214Y-86382890D01*
X145304793Y-86523931D01*
X145275010Y-86673659D01*
X145275010Y-86825000D01*
X145223669Y-86825000D01*
X145073941Y-86854783D01*
X144932900Y-86913204D01*
X144805966Y-86998018D01*
X144698018Y-87105966D01*
X144613204Y-87232900D01*
X144554783Y-87373941D01*
X144525000Y-87523669D01*
X144525000Y-87676331D01*
X144534681Y-87725000D01*
X144498669Y-87725000D01*
X144348941Y-87754783D01*
X144207900Y-87813204D01*
X144080966Y-87898018D01*
X143973018Y-88005966D01*
X143888204Y-88132900D01*
X143829783Y-88273941D01*
X143800000Y-88423669D01*
X133658159Y-88423669D01*
X133639961Y-88379736D01*
X133555147Y-88252802D01*
X133447199Y-88144854D01*
X133320265Y-88060040D01*
X133179224Y-88001619D01*
X133029496Y-87971836D01*
X132876834Y-87971836D01*
X132727106Y-88001619D01*
X132586065Y-88060040D01*
X132459131Y-88144854D01*
X132351183Y-88252802D01*
X132266369Y-88379736D01*
X132207948Y-88520777D01*
X132178165Y-88670505D01*
X129025000Y-88670505D01*
X129025000Y-86123669D01*
X132275000Y-86123669D01*
X132275000Y-86276331D01*
X132304783Y-86426059D01*
X132363204Y-86567100D01*
X132448018Y-86694034D01*
X132555966Y-86801982D01*
X132682900Y-86886796D01*
X132823941Y-86945217D01*
X132973669Y-86975000D01*
X133126331Y-86975000D01*
X133276059Y-86945217D01*
X133417100Y-86886796D01*
X133436746Y-86873669D01*
X134425010Y-86873669D01*
X134425010Y-87026331D01*
X134454793Y-87176059D01*
X134513214Y-87317100D01*
X134598028Y-87444034D01*
X134705976Y-87551982D01*
X134832910Y-87636796D01*
X134973951Y-87695217D01*
X135123679Y-87725000D01*
X135276341Y-87725000D01*
X135426069Y-87695217D01*
X135567110Y-87636796D01*
X135694044Y-87551982D01*
X135801992Y-87444034D01*
X135815599Y-87423669D01*
X141899990Y-87423669D01*
X141899990Y-87576331D01*
X141929773Y-87726059D01*
X141988194Y-87867100D01*
X142073008Y-87994034D01*
X142180956Y-88101982D01*
X142307890Y-88186796D01*
X142448931Y-88245217D01*
X142598659Y-88275000D01*
X142751321Y-88275000D01*
X142901049Y-88245217D01*
X143042090Y-88186796D01*
X143169024Y-88101982D01*
X143276972Y-87994034D01*
X143361786Y-87867100D01*
X143420207Y-87726059D01*
X143449990Y-87576331D01*
X143449990Y-87423669D01*
X143420207Y-87273941D01*
X143361786Y-87132900D01*
X143276972Y-87005966D01*
X143169024Y-86898018D01*
X143042090Y-86813204D01*
X142901049Y-86754783D01*
X142751321Y-86725000D01*
X142598659Y-86725000D01*
X142448931Y-86754783D01*
X142307890Y-86813204D01*
X142180956Y-86898018D01*
X142073008Y-87005966D01*
X141988194Y-87132900D01*
X141929773Y-87273941D01*
X141899990Y-87423669D01*
X135815599Y-87423669D01*
X135886806Y-87317100D01*
X135945227Y-87176059D01*
X135975010Y-87026331D01*
X135975010Y-86873669D01*
X135945227Y-86723941D01*
X135886806Y-86582900D01*
X135801992Y-86455966D01*
X135694044Y-86348018D01*
X135567110Y-86263204D01*
X135426069Y-86204783D01*
X135276341Y-86175000D01*
X135123679Y-86175000D01*
X134973951Y-86204783D01*
X134832910Y-86263204D01*
X134705976Y-86348018D01*
X134598028Y-86455966D01*
X134513214Y-86582900D01*
X134454793Y-86723941D01*
X134425010Y-86873669D01*
X133436746Y-86873669D01*
X133544034Y-86801982D01*
X133651982Y-86694034D01*
X133736796Y-86567100D01*
X133795217Y-86426059D01*
X133825000Y-86276331D01*
X133825000Y-86123669D01*
X133795217Y-85973941D01*
X133774394Y-85923669D01*
X165725000Y-85923669D01*
X165725000Y-86076331D01*
X165754783Y-86226059D01*
X165813204Y-86367100D01*
X165898018Y-86494034D01*
X166005966Y-86601982D01*
X166132900Y-86686796D01*
X166273941Y-86745217D01*
X166423669Y-86775000D01*
X166576331Y-86775000D01*
X166726059Y-86745217D01*
X166867100Y-86686796D01*
X166994034Y-86601982D01*
X167101982Y-86494034D01*
X167186796Y-86367100D01*
X167245217Y-86226059D01*
X167275000Y-86076331D01*
X167275000Y-85923669D01*
X167245217Y-85773941D01*
X167186796Y-85632900D01*
X167101982Y-85505966D01*
X166994034Y-85398018D01*
X166867100Y-85313204D01*
X166726059Y-85254783D01*
X166576331Y-85225000D01*
X166423669Y-85225000D01*
X166273941Y-85254783D01*
X166132900Y-85313204D01*
X166005966Y-85398018D01*
X165898018Y-85505966D01*
X165813204Y-85632900D01*
X165754783Y-85773941D01*
X165725000Y-85923669D01*
X133774394Y-85923669D01*
X133736796Y-85832900D01*
X133651982Y-85705966D01*
X133544034Y-85598018D01*
X133417100Y-85513204D01*
X133276059Y-85454783D01*
X133126331Y-85425000D01*
X132973669Y-85425000D01*
X132823941Y-85454783D01*
X132682900Y-85513204D01*
X132555966Y-85598018D01*
X132448018Y-85705966D01*
X132363204Y-85832900D01*
X132304783Y-85973941D01*
X132275000Y-86123669D01*
X129025000Y-86123669D01*
X129025000Y-83573669D01*
X132625000Y-83573669D01*
X132625000Y-83726331D01*
X132654783Y-83876059D01*
X132713204Y-84017100D01*
X132798018Y-84144034D01*
X132905966Y-84251982D01*
X133032900Y-84336796D01*
X133173941Y-84395217D01*
X133323669Y-84425000D01*
X133476331Y-84425000D01*
X133626059Y-84395217D01*
X133767100Y-84336796D01*
X133894034Y-84251982D01*
X134001982Y-84144034D01*
X134086796Y-84017100D01*
X134145217Y-83876059D01*
X134175000Y-83726331D01*
X134175000Y-83623669D01*
X141725000Y-83623669D01*
X141725000Y-83776331D01*
X141754783Y-83926059D01*
X141813204Y-84067100D01*
X141898018Y-84194034D01*
X142005966Y-84301982D01*
X142132900Y-84386796D01*
X142273941Y-84445217D01*
X142423669Y-84475000D01*
X142576331Y-84475000D01*
X142726059Y-84445217D01*
X142742405Y-84438446D01*
X146025003Y-84438446D01*
X146025003Y-84561560D01*
X146049021Y-84682308D01*
X146096135Y-84796051D01*
X146164534Y-84898417D01*
X146251588Y-84985471D01*
X146353954Y-85053870D01*
X146467697Y-85100984D01*
X146588445Y-85125002D01*
X146711559Y-85125002D01*
X146832307Y-85100984D01*
X146946050Y-85053870D01*
X146998844Y-85018594D01*
X146975004Y-85138447D01*
X146975004Y-85261561D01*
X146999022Y-85382309D01*
X147046136Y-85496052D01*
X147114535Y-85598418D01*
X147201589Y-85685472D01*
X147303955Y-85753871D01*
X147417698Y-85800985D01*
X147538446Y-85825003D01*
X147661560Y-85825003D01*
X147782308Y-85800985D01*
X147896051Y-85753871D01*
X147998417Y-85685472D01*
X148085471Y-85598418D01*
X148153870Y-85496052D01*
X148200984Y-85382309D01*
X148225002Y-85261561D01*
X148225002Y-85138447D01*
X148201162Y-85018595D01*
X148253955Y-85053870D01*
X148367698Y-85100984D01*
X148488446Y-85125002D01*
X148611560Y-85125002D01*
X148732308Y-85100984D01*
X148846051Y-85053870D01*
X148948417Y-84985471D01*
X149035471Y-84898417D01*
X149085416Y-84823669D01*
X149475000Y-84823669D01*
X149475000Y-84976331D01*
X149504783Y-85126059D01*
X149563204Y-85267100D01*
X149648018Y-85394034D01*
X149755966Y-85501982D01*
X149882900Y-85586796D01*
X150023941Y-85645217D01*
X150173669Y-85675000D01*
X150326331Y-85675000D01*
X150476059Y-85645217D01*
X150617100Y-85586796D01*
X150744034Y-85501982D01*
X150851982Y-85394034D01*
X150936796Y-85267100D01*
X150995217Y-85126059D01*
X151025000Y-84976331D01*
X151025000Y-84823669D01*
X150995217Y-84673941D01*
X150936796Y-84532900D01*
X150851982Y-84405966D01*
X150744034Y-84298018D01*
X150617100Y-84213204D01*
X150476059Y-84154783D01*
X150326331Y-84125000D01*
X150173669Y-84125000D01*
X150023941Y-84154783D01*
X149882900Y-84213204D01*
X149755966Y-84298018D01*
X149648018Y-84405966D01*
X149563204Y-84532900D01*
X149504783Y-84673941D01*
X149475000Y-84823669D01*
X149085416Y-84823669D01*
X149103870Y-84796051D01*
X149150984Y-84682308D01*
X149175002Y-84561560D01*
X149175002Y-84438446D01*
X149150984Y-84317698D01*
X149103870Y-84203955D01*
X149035471Y-84101589D01*
X148948417Y-84014535D01*
X148846051Y-83946136D01*
X148732308Y-83899022D01*
X148611560Y-83875004D01*
X148488446Y-83875004D01*
X148367698Y-83899022D01*
X148253955Y-83946136D01*
X148201162Y-83981411D01*
X148225002Y-83861558D01*
X148225002Y-83738444D01*
X148200984Y-83617696D01*
X148153870Y-83503953D01*
X148085471Y-83401587D01*
X147998417Y-83314533D01*
X147896051Y-83246134D01*
X147782308Y-83199020D01*
X147661560Y-83175002D01*
X147538446Y-83175002D01*
X147417698Y-83199020D01*
X147303955Y-83246134D01*
X147201589Y-83314533D01*
X147114535Y-83401587D01*
X147046136Y-83503953D01*
X146999022Y-83617696D01*
X146975004Y-83738444D01*
X146975004Y-83861558D01*
X146998844Y-83981412D01*
X146946050Y-83946136D01*
X146832307Y-83899022D01*
X146711559Y-83875004D01*
X146588445Y-83875004D01*
X146467697Y-83899022D01*
X146353954Y-83946136D01*
X146251588Y-84014535D01*
X146164534Y-84101589D01*
X146096135Y-84203955D01*
X146049021Y-84317698D01*
X146025003Y-84438446D01*
X142742405Y-84438446D01*
X142867100Y-84386796D01*
X142994034Y-84301982D01*
X143101982Y-84194034D01*
X143186796Y-84067100D01*
X143245217Y-83926059D01*
X143275000Y-83776331D01*
X143275000Y-83623669D01*
X143245217Y-83473941D01*
X143186796Y-83332900D01*
X143101982Y-83205966D01*
X142994034Y-83098018D01*
X142867100Y-83013204D01*
X142726059Y-82954783D01*
X142576331Y-82925000D01*
X142423669Y-82925000D01*
X142273941Y-82954783D01*
X142132900Y-83013204D01*
X142005966Y-83098018D01*
X141898018Y-83205966D01*
X141813204Y-83332900D01*
X141754783Y-83473941D01*
X141725000Y-83623669D01*
X134175000Y-83623669D01*
X134175000Y-83573669D01*
X134145217Y-83423941D01*
X134086796Y-83282900D01*
X134001982Y-83155966D01*
X133894034Y-83048018D01*
X133767100Y-82963204D01*
X133671662Y-82923672D01*
X153525000Y-82923672D01*
X153525000Y-83076334D01*
X153554783Y-83226062D01*
X153613204Y-83367103D01*
X153698018Y-83494037D01*
X153805966Y-83601985D01*
X153932900Y-83686799D01*
X154073941Y-83745220D01*
X154223669Y-83775003D01*
X154376331Y-83775003D01*
X154526059Y-83745220D01*
X154667100Y-83686799D01*
X154794034Y-83601985D01*
X154847350Y-83548669D01*
X164750640Y-83548669D01*
X164750640Y-83701331D01*
X164780423Y-83851059D01*
X164838844Y-83992100D01*
X164923658Y-84119034D01*
X165031606Y-84226982D01*
X165158540Y-84311796D01*
X165299581Y-84370217D01*
X165449309Y-84400000D01*
X165601971Y-84400000D01*
X165751699Y-84370217D01*
X165892740Y-84311796D01*
X166019674Y-84226982D01*
X166127622Y-84119034D01*
X166212436Y-83992100D01*
X166270857Y-83851059D01*
X166300640Y-83701331D01*
X166300640Y-83548669D01*
X166270857Y-83398941D01*
X166212436Y-83257900D01*
X166127622Y-83130966D01*
X166019674Y-83023018D01*
X165892740Y-82938204D01*
X165751699Y-82879783D01*
X165601971Y-82850000D01*
X165449309Y-82850000D01*
X165299581Y-82879783D01*
X165158540Y-82938204D01*
X165031606Y-83023018D01*
X164923658Y-83130966D01*
X164838844Y-83257900D01*
X164780423Y-83398941D01*
X164750640Y-83548669D01*
X154847350Y-83548669D01*
X154901982Y-83494037D01*
X154986796Y-83367103D01*
X155045217Y-83226062D01*
X155075000Y-83076334D01*
X155075000Y-82923672D01*
X155045217Y-82773944D01*
X154986796Y-82632903D01*
X154901982Y-82505969D01*
X154794034Y-82398021D01*
X154667100Y-82313207D01*
X154526059Y-82254786D01*
X154376331Y-82225003D01*
X154223669Y-82225003D01*
X154073941Y-82254786D01*
X153932900Y-82313207D01*
X153805966Y-82398021D01*
X153698018Y-82505969D01*
X153613204Y-82632903D01*
X153554783Y-82773944D01*
X153525000Y-82923672D01*
X133671662Y-82923672D01*
X133626059Y-82904783D01*
X133476331Y-82875000D01*
X133323669Y-82875000D01*
X133173941Y-82904783D01*
X133032900Y-82963204D01*
X132905966Y-83048018D01*
X132798018Y-83155966D01*
X132713204Y-83282900D01*
X132654783Y-83423941D01*
X132625000Y-83573669D01*
X129025000Y-83573669D01*
X129025000Y-82859585D01*
X129048018Y-82894034D01*
X129155966Y-83001982D01*
X129282900Y-83086796D01*
X129423941Y-83145217D01*
X129573669Y-83175000D01*
X129726331Y-83175000D01*
X129876059Y-83145217D01*
X130017100Y-83086796D01*
X130144034Y-83001982D01*
X130251982Y-82894034D01*
X130336796Y-82767100D01*
X130395217Y-82626059D01*
X130425000Y-82476331D01*
X130425000Y-82323669D01*
X130395217Y-82173941D01*
X130336796Y-82032900D01*
X130251982Y-81905966D01*
X130169675Y-81823659D01*
X144525000Y-81823659D01*
X144525000Y-81976321D01*
X144554783Y-82126049D01*
X144613204Y-82267090D01*
X144698018Y-82394024D01*
X144805966Y-82501972D01*
X144932900Y-82586786D01*
X145073941Y-82645207D01*
X145223669Y-82674990D01*
X145376331Y-82674990D01*
X145526059Y-82645207D01*
X145667100Y-82586786D01*
X145794034Y-82501972D01*
X145817277Y-82478729D01*
X145835909Y-82497361D01*
X145962843Y-82582175D01*
X146103884Y-82640596D01*
X146253612Y-82670379D01*
X146406274Y-82670379D01*
X146556002Y-82640596D01*
X146697043Y-82582175D01*
X146823977Y-82497361D01*
X146931925Y-82389413D01*
X147016739Y-82262479D01*
X147075160Y-82121438D01*
X147104943Y-81971710D01*
X147104943Y-81819048D01*
X147075160Y-81669320D01*
X147016739Y-81528279D01*
X146931925Y-81401345D01*
X146823977Y-81293397D01*
X146741500Y-81238288D01*
X148954196Y-81238288D01*
X148954196Y-81390950D01*
X148983979Y-81540678D01*
X149042400Y-81681719D01*
X149127214Y-81808653D01*
X149235162Y-81916601D01*
X149362096Y-82001415D01*
X149503137Y-82059836D01*
X149652865Y-82089619D01*
X149805527Y-82089619D01*
X149955255Y-82059836D01*
X150096296Y-82001415D01*
X150223230Y-81916601D01*
X150331178Y-81808653D01*
X150415992Y-81681719D01*
X150440037Y-81623669D01*
X157125000Y-81623669D01*
X157125000Y-81776331D01*
X157154783Y-81926059D01*
X157213204Y-82067100D01*
X157298018Y-82194034D01*
X157405966Y-82301982D01*
X157532900Y-82386796D01*
X157673941Y-82445217D01*
X157823669Y-82475000D01*
X157976331Y-82475000D01*
X158126059Y-82445217D01*
X158267100Y-82386796D01*
X158394034Y-82301982D01*
X158501982Y-82194034D01*
X158586796Y-82067100D01*
X158645217Y-81926059D01*
X158675000Y-81776331D01*
X158675000Y-81623669D01*
X159925000Y-81623669D01*
X159925000Y-81776331D01*
X159954783Y-81926059D01*
X160013204Y-82067100D01*
X160098018Y-82194034D01*
X160205966Y-82301982D01*
X160332900Y-82386796D01*
X160473941Y-82445217D01*
X160623669Y-82475000D01*
X160776331Y-82475000D01*
X160926059Y-82445217D01*
X161067100Y-82386796D01*
X161194034Y-82301982D01*
X161301982Y-82194034D01*
X161386796Y-82067100D01*
X161445217Y-81926059D01*
X161475000Y-81776331D01*
X161475000Y-81623669D01*
X161445217Y-81473941D01*
X161386796Y-81332900D01*
X161301982Y-81205966D01*
X161195937Y-81099921D01*
X164043359Y-81099921D01*
X164043359Y-81252583D01*
X164073142Y-81402311D01*
X164131563Y-81543352D01*
X164216377Y-81670286D01*
X164324325Y-81778234D01*
X164451259Y-81863048D01*
X164592300Y-81921469D01*
X164742028Y-81951252D01*
X164894690Y-81951252D01*
X165044418Y-81921469D01*
X165185459Y-81863048D01*
X165312393Y-81778234D01*
X165420341Y-81670286D01*
X165505155Y-81543352D01*
X165563576Y-81402311D01*
X165593359Y-81252583D01*
X165593359Y-81099921D01*
X165563576Y-80950193D01*
X165505155Y-80809152D01*
X165420341Y-80682218D01*
X165312393Y-80574270D01*
X165185459Y-80489456D01*
X165044418Y-80431035D01*
X164894690Y-80401252D01*
X164742028Y-80401252D01*
X164592300Y-80431035D01*
X164451259Y-80489456D01*
X164324325Y-80574270D01*
X164216377Y-80682218D01*
X164131563Y-80809152D01*
X164073142Y-80950193D01*
X164043359Y-81099921D01*
X161195937Y-81099921D01*
X161194034Y-81098018D01*
X161067100Y-81013204D01*
X160926059Y-80954783D01*
X160776331Y-80925000D01*
X160623669Y-80925000D01*
X160473941Y-80954783D01*
X160332900Y-81013204D01*
X160205966Y-81098018D01*
X160098018Y-81205966D01*
X160013204Y-81332900D01*
X159954783Y-81473941D01*
X159925000Y-81623669D01*
X158675000Y-81623669D01*
X158645217Y-81473941D01*
X158586796Y-81332900D01*
X158501982Y-81205966D01*
X158394034Y-81098018D01*
X158267100Y-81013204D01*
X158126059Y-80954783D01*
X157976331Y-80925000D01*
X157823669Y-80925000D01*
X157673941Y-80954783D01*
X157532900Y-81013204D01*
X157405966Y-81098018D01*
X157298018Y-81205966D01*
X157213204Y-81332900D01*
X157154783Y-81473941D01*
X157125000Y-81623669D01*
X150440037Y-81623669D01*
X150474413Y-81540678D01*
X150504196Y-81390950D01*
X150504196Y-81238288D01*
X150474413Y-81088560D01*
X150415992Y-80947519D01*
X150331178Y-80820585D01*
X150223230Y-80712637D01*
X150096296Y-80627823D01*
X149955255Y-80569402D01*
X149805527Y-80539619D01*
X149652865Y-80539619D01*
X149503137Y-80569402D01*
X149362096Y-80627823D01*
X149235162Y-80712637D01*
X149127214Y-80820585D01*
X149042400Y-80947519D01*
X148983979Y-81088560D01*
X148954196Y-81238288D01*
X146741500Y-81238288D01*
X146697043Y-81208583D01*
X146556002Y-81150162D01*
X146406274Y-81120379D01*
X146253612Y-81120379D01*
X146103884Y-81150162D01*
X145962843Y-81208583D01*
X145835909Y-81293397D01*
X145812666Y-81316640D01*
X145794034Y-81298008D01*
X145667100Y-81213194D01*
X145526059Y-81154773D01*
X145376331Y-81124990D01*
X145223669Y-81124990D01*
X145073941Y-81154773D01*
X144932900Y-81213194D01*
X144805966Y-81298008D01*
X144698018Y-81405956D01*
X144613204Y-81532890D01*
X144554783Y-81673931D01*
X144525000Y-81823659D01*
X130169675Y-81823659D01*
X130144034Y-81798018D01*
X130017100Y-81713204D01*
X129876059Y-81654783D01*
X129726331Y-81625000D01*
X129573669Y-81625000D01*
X129423941Y-81654783D01*
X129282900Y-81713204D01*
X129155966Y-81798018D01*
X129048018Y-81905966D01*
X129025000Y-81940415D01*
X129025000Y-79673669D01*
X143375000Y-79673669D01*
X143375000Y-79826331D01*
X143404783Y-79976059D01*
X143463204Y-80117100D01*
X143548018Y-80244034D01*
X143655966Y-80351982D01*
X143782900Y-80436796D01*
X143923941Y-80495217D01*
X144073669Y-80525000D01*
X144226331Y-80525000D01*
X144376059Y-80495217D01*
X144517100Y-80436796D01*
X144644034Y-80351982D01*
X144751982Y-80244034D01*
X144836796Y-80117100D01*
X144895217Y-79976059D01*
X144925000Y-79826331D01*
X144925000Y-79673669D01*
X144895217Y-79523941D01*
X144895105Y-79523669D01*
X162125000Y-79523669D01*
X162125000Y-79676331D01*
X162154783Y-79826059D01*
X162213204Y-79967100D01*
X162298018Y-80094034D01*
X162405966Y-80201982D01*
X162532900Y-80286796D01*
X162673941Y-80345217D01*
X162823669Y-80375000D01*
X162976331Y-80375000D01*
X163126059Y-80345217D01*
X163267100Y-80286796D01*
X163394034Y-80201982D01*
X163501982Y-80094034D01*
X163586796Y-79967100D01*
X163645217Y-79826059D01*
X163675000Y-79676331D01*
X163675000Y-79523669D01*
X163645217Y-79373941D01*
X163586796Y-79232900D01*
X163501982Y-79105966D01*
X163394034Y-78998018D01*
X163267100Y-78913204D01*
X163126059Y-78854783D01*
X162976331Y-78825000D01*
X162823669Y-78825000D01*
X162673941Y-78854783D01*
X162532900Y-78913204D01*
X162405966Y-78998018D01*
X162298018Y-79105966D01*
X162213204Y-79232900D01*
X162154783Y-79373941D01*
X162125000Y-79523669D01*
X144895105Y-79523669D01*
X144836796Y-79382900D01*
X144751982Y-79255966D01*
X144644034Y-79148018D01*
X144517100Y-79063204D01*
X144376059Y-79004783D01*
X144226331Y-78975000D01*
X144073669Y-78975000D01*
X143923941Y-79004783D01*
X143782900Y-79063204D01*
X143655966Y-79148018D01*
X143548018Y-79255966D01*
X143463204Y-79382900D01*
X143404783Y-79523941D01*
X143375000Y-79673669D01*
X129025000Y-79673669D01*
X129025000Y-77673669D01*
X129825000Y-77673669D01*
X129825000Y-77826331D01*
X129854783Y-77976059D01*
X129913204Y-78117100D01*
X129998018Y-78244034D01*
X130105966Y-78351982D01*
X130232900Y-78436796D01*
X130373941Y-78495217D01*
X130523669Y-78525000D01*
X130676331Y-78525000D01*
X130826059Y-78495217D01*
X130967100Y-78436796D01*
X131094034Y-78351982D01*
X131201982Y-78244034D01*
X131215589Y-78223669D01*
X150725000Y-78223669D01*
X150725000Y-78376331D01*
X150754783Y-78526059D01*
X150813204Y-78667100D01*
X150898018Y-78794034D01*
X151005966Y-78901982D01*
X151132900Y-78986796D01*
X151273941Y-79045217D01*
X151423669Y-79075000D01*
X151576331Y-79075000D01*
X151726059Y-79045217D01*
X151867100Y-78986796D01*
X151994034Y-78901982D01*
X152101982Y-78794034D01*
X152186796Y-78667100D01*
X152245217Y-78526059D01*
X152275000Y-78376331D01*
X152275000Y-78223669D01*
X152245217Y-78073941D01*
X152186796Y-77932900D01*
X152101982Y-77805966D01*
X151994034Y-77698018D01*
X151867100Y-77613204D01*
X151726059Y-77554783D01*
X151576331Y-77525000D01*
X151423669Y-77525000D01*
X151273941Y-77554783D01*
X151132900Y-77613204D01*
X151005966Y-77698018D01*
X150898018Y-77805966D01*
X150813204Y-77932900D01*
X150754783Y-78073941D01*
X150725000Y-78223669D01*
X131215589Y-78223669D01*
X131286796Y-78117100D01*
X131345217Y-77976059D01*
X131375000Y-77826331D01*
X131375000Y-77673669D01*
X131345217Y-77523941D01*
X131286796Y-77382900D01*
X131201982Y-77255966D01*
X131094034Y-77148018D01*
X130967100Y-77063204D01*
X130826059Y-77004783D01*
X130676331Y-76975000D01*
X130523669Y-76975000D01*
X130373941Y-77004783D01*
X130232900Y-77063204D01*
X130105966Y-77148018D01*
X129998018Y-77255966D01*
X129913204Y-77382900D01*
X129854783Y-77523941D01*
X129825000Y-77673669D01*
X129025000Y-77673669D01*
X129025000Y-76737166D01*
X144597521Y-76737166D01*
X144597521Y-76889828D01*
X144627304Y-77039556D01*
X144685725Y-77180597D01*
X144770539Y-77307531D01*
X144878487Y-77415479D01*
X145005421Y-77500293D01*
X145146462Y-77558714D01*
X145296190Y-77588497D01*
X145448852Y-77588497D01*
X145452154Y-77587840D01*
X145454783Y-77601056D01*
X145513204Y-77742097D01*
X145598018Y-77869031D01*
X145705966Y-77976979D01*
X145832900Y-78061793D01*
X145973941Y-78120214D01*
X146123669Y-78149997D01*
X146276331Y-78149997D01*
X146426059Y-78120214D01*
X146567100Y-78061793D01*
X146694034Y-77976979D01*
X146801982Y-77869031D01*
X146886796Y-77742097D01*
X146945217Y-77601056D01*
X146975000Y-77451328D01*
X146975000Y-77298666D01*
X146945217Y-77148938D01*
X146886796Y-77007897D01*
X146801982Y-76880963D01*
X146694034Y-76773015D01*
X146567100Y-76688201D01*
X146426059Y-76629780D01*
X146276331Y-76599997D01*
X146123669Y-76599997D01*
X146120367Y-76600654D01*
X146117738Y-76587438D01*
X146059317Y-76446397D01*
X145987183Y-76338440D01*
X148625002Y-76338440D01*
X148625002Y-76461554D01*
X148649020Y-76582302D01*
X148696134Y-76696045D01*
X148764533Y-76798411D01*
X148851587Y-76885465D01*
X148953953Y-76953864D01*
X149067696Y-77000978D01*
X149188444Y-77024996D01*
X149311558Y-77024996D01*
X149431412Y-77001156D01*
X149396136Y-77053950D01*
X149349022Y-77167693D01*
X149325004Y-77288441D01*
X149325004Y-77411555D01*
X149349022Y-77532303D01*
X149396136Y-77646046D01*
X149464535Y-77748412D01*
X149551589Y-77835466D01*
X149653955Y-77903865D01*
X149767698Y-77950979D01*
X149888446Y-77974997D01*
X150011560Y-77974997D01*
X150132308Y-77950979D01*
X150246051Y-77903865D01*
X150348417Y-77835466D01*
X150435471Y-77748412D01*
X150503870Y-77646046D01*
X150550984Y-77532303D01*
X150575002Y-77411555D01*
X150575002Y-77288441D01*
X150550984Y-77167693D01*
X150518551Y-77089392D01*
X154487173Y-77089392D01*
X154487173Y-77242054D01*
X154516956Y-77391782D01*
X154575377Y-77532823D01*
X154660191Y-77659757D01*
X154761321Y-77760887D01*
X154713204Y-77832900D01*
X154654783Y-77973941D01*
X154625000Y-78123669D01*
X154625000Y-78276331D01*
X154654783Y-78426059D01*
X154713204Y-78567100D01*
X154798018Y-78694034D01*
X154905966Y-78801982D01*
X155032900Y-78886796D01*
X155173941Y-78945217D01*
X155323669Y-78975000D01*
X155476331Y-78975000D01*
X155626059Y-78945217D01*
X155767100Y-78886796D01*
X155894034Y-78801982D01*
X155919497Y-78776519D01*
X155998018Y-78894034D01*
X156105966Y-79001982D01*
X156232900Y-79086796D01*
X156373941Y-79145217D01*
X156523669Y-79175000D01*
X156676331Y-79175000D01*
X156826059Y-79145217D01*
X156967100Y-79086796D01*
X157094034Y-79001982D01*
X157201982Y-78894034D01*
X157286796Y-78767100D01*
X157345217Y-78626059D01*
X157375000Y-78476331D01*
X157375000Y-78323669D01*
X157345217Y-78173941D01*
X157286796Y-78032900D01*
X157201982Y-77905966D01*
X157094034Y-77798018D01*
X156967100Y-77713204D01*
X156826059Y-77654783D01*
X156676331Y-77625000D01*
X156523669Y-77625000D01*
X156373941Y-77654783D01*
X156232900Y-77713204D01*
X156105966Y-77798018D01*
X156080503Y-77823481D01*
X156001982Y-77705966D01*
X155900852Y-77604836D01*
X155948969Y-77532823D01*
X156007390Y-77391782D01*
X156037173Y-77242054D01*
X156037173Y-77089392D01*
X156007390Y-76939664D01*
X155948969Y-76798623D01*
X155864155Y-76671689D01*
X155756207Y-76563741D01*
X155629273Y-76478927D01*
X155488232Y-76420506D01*
X155338504Y-76390723D01*
X155185842Y-76390723D01*
X155036114Y-76420506D01*
X154895073Y-76478927D01*
X154768139Y-76563741D01*
X154660191Y-76671689D01*
X154575377Y-76798623D01*
X154516956Y-76939664D01*
X154487173Y-77089392D01*
X150518551Y-77089392D01*
X150503870Y-77053950D01*
X150468594Y-77001156D01*
X150588447Y-77024996D01*
X150711561Y-77024996D01*
X150832309Y-77000978D01*
X150946052Y-76953864D01*
X151048418Y-76885465D01*
X151135472Y-76798411D01*
X151203871Y-76696045D01*
X151250985Y-76582302D01*
X151275003Y-76461554D01*
X151275003Y-76338440D01*
X151250985Y-76217692D01*
X151203871Y-76103949D01*
X151135472Y-76001583D01*
X151048418Y-75914529D01*
X150946052Y-75846130D01*
X150832309Y-75799016D01*
X150711561Y-75774998D01*
X150588447Y-75774998D01*
X150468595Y-75798838D01*
X150503870Y-75746045D01*
X150550984Y-75632302D01*
X150575002Y-75511554D01*
X150575002Y-75388440D01*
X150550984Y-75267692D01*
X150503870Y-75153949D01*
X150435471Y-75051583D01*
X150348417Y-74964529D01*
X150246051Y-74896130D01*
X150132308Y-74849016D01*
X150011560Y-74824998D01*
X149888446Y-74824998D01*
X149767698Y-74849016D01*
X149653955Y-74896130D01*
X149551589Y-74964529D01*
X149464535Y-75051583D01*
X149396136Y-75153949D01*
X149349022Y-75267692D01*
X149325004Y-75388440D01*
X149325004Y-75511554D01*
X149349022Y-75632302D01*
X149396136Y-75746045D01*
X149431411Y-75798838D01*
X149311558Y-75774998D01*
X149188444Y-75774998D01*
X149067696Y-75799016D01*
X148953953Y-75846130D01*
X148851587Y-75914529D01*
X148764533Y-76001583D01*
X148696134Y-76103949D01*
X148649020Y-76217692D01*
X148625002Y-76338440D01*
X145987183Y-76338440D01*
X145974503Y-76319463D01*
X145866555Y-76211515D01*
X145739621Y-76126701D01*
X145598580Y-76068280D01*
X145448852Y-76038497D01*
X145296190Y-76038497D01*
X145146462Y-76068280D01*
X145005421Y-76126701D01*
X144878487Y-76211515D01*
X144770539Y-76319463D01*
X144685725Y-76446397D01*
X144627304Y-76587438D01*
X144597521Y-76737166D01*
X129025000Y-76737166D01*
X129025000Y-75073669D01*
X145624999Y-75073669D01*
X145624999Y-75226331D01*
X145654782Y-75376059D01*
X145713203Y-75517100D01*
X145798017Y-75644034D01*
X145905965Y-75751982D01*
X146032899Y-75836796D01*
X146173940Y-75895217D01*
X146323668Y-75925000D01*
X146476330Y-75925000D01*
X146626058Y-75895217D01*
X146767099Y-75836796D01*
X146894033Y-75751982D01*
X147001981Y-75644034D01*
X147086795Y-75517100D01*
X147145216Y-75376059D01*
X147174999Y-75226331D01*
X147174999Y-75073669D01*
X147145216Y-74923941D01*
X147086795Y-74782900D01*
X147001981Y-74655966D01*
X146894033Y-74548018D01*
X146767099Y-74463204D01*
X146626058Y-74404783D01*
X146476330Y-74375000D01*
X146323668Y-74375000D01*
X146173940Y-74404783D01*
X146032899Y-74463204D01*
X145905965Y-74548018D01*
X145798017Y-74655966D01*
X145713203Y-74782900D01*
X145654782Y-74923941D01*
X145624999Y-75073669D01*
X129025000Y-75073669D01*
X129025000Y-74273669D01*
X150575000Y-74273669D01*
X150575000Y-74426331D01*
X150604783Y-74576059D01*
X150663204Y-74717100D01*
X150748018Y-74844034D01*
X150855966Y-74951982D01*
X150982900Y-75036796D01*
X151123941Y-75095217D01*
X151273669Y-75125000D01*
X151426331Y-75125000D01*
X151576059Y-75095217D01*
X151717100Y-75036796D01*
X151844034Y-74951982D01*
X151951982Y-74844034D01*
X152036796Y-74717100D01*
X152095217Y-74576059D01*
X152125000Y-74426331D01*
X152125000Y-74273669D01*
X152095217Y-74123941D01*
X152036796Y-73982900D01*
X151951982Y-73855966D01*
X151844034Y-73748018D01*
X151717100Y-73663204D01*
X151576059Y-73604783D01*
X151426331Y-73575000D01*
X151273669Y-73575000D01*
X151123941Y-73604783D01*
X150982900Y-73663204D01*
X150855966Y-73748018D01*
X150748018Y-73855966D01*
X150663204Y-73982900D01*
X150604783Y-74123941D01*
X150575000Y-74273669D01*
X129025000Y-74273669D01*
X129025000Y-72973669D01*
X132025000Y-72973669D01*
X132025000Y-73126331D01*
X132054783Y-73276059D01*
X132113204Y-73417100D01*
X132198018Y-73544034D01*
X132305966Y-73651982D01*
X132432900Y-73736796D01*
X132573941Y-73795217D01*
X132723669Y-73825000D01*
X132876331Y-73825000D01*
X133026059Y-73795217D01*
X133167100Y-73736796D01*
X133294034Y-73651982D01*
X133401982Y-73544034D01*
X133486796Y-73417100D01*
X133545217Y-73276059D01*
X133575000Y-73126331D01*
X133575000Y-73023669D01*
X135425000Y-73023669D01*
X135425000Y-73176331D01*
X135454783Y-73326059D01*
X135513204Y-73467100D01*
X135598018Y-73594034D01*
X135705966Y-73701982D01*
X135832900Y-73786796D01*
X135973941Y-73845217D01*
X136123669Y-73875000D01*
X136276331Y-73875000D01*
X136426059Y-73845217D01*
X136567100Y-73786796D01*
X136694034Y-73701982D01*
X136801982Y-73594034D01*
X136886796Y-73467100D01*
X136945217Y-73326059D01*
X136975000Y-73176331D01*
X136975000Y-73023669D01*
X138825000Y-73023669D01*
X138825000Y-73176331D01*
X138854783Y-73326059D01*
X138913204Y-73467100D01*
X138998018Y-73594034D01*
X139105966Y-73701982D01*
X139232900Y-73786796D01*
X139373941Y-73845217D01*
X139523669Y-73875000D01*
X139676331Y-73875000D01*
X139826059Y-73845217D01*
X139967100Y-73786796D01*
X140094034Y-73701982D01*
X140201982Y-73594034D01*
X140286796Y-73467100D01*
X140345217Y-73326059D01*
X140375000Y-73176331D01*
X140375000Y-73023669D01*
X140345217Y-72873941D01*
X140286796Y-72732900D01*
X140201982Y-72605966D01*
X140094034Y-72498018D01*
X139967100Y-72413204D01*
X139826059Y-72354783D01*
X139676331Y-72325000D01*
X139523669Y-72325000D01*
X139373941Y-72354783D01*
X139232900Y-72413204D01*
X139105966Y-72498018D01*
X138998018Y-72605966D01*
X138913204Y-72732900D01*
X138854783Y-72873941D01*
X138825000Y-73023669D01*
X136975000Y-73023669D01*
X136945217Y-72873941D01*
X136886796Y-72732900D01*
X136801982Y-72605966D01*
X136694034Y-72498018D01*
X136567100Y-72413204D01*
X136426059Y-72354783D01*
X136276331Y-72325000D01*
X136123669Y-72325000D01*
X135973941Y-72354783D01*
X135832900Y-72413204D01*
X135705966Y-72498018D01*
X135598018Y-72605966D01*
X135513204Y-72732900D01*
X135454783Y-72873941D01*
X135425000Y-73023669D01*
X133575000Y-73023669D01*
X133575000Y-72973669D01*
X133545217Y-72823941D01*
X133486796Y-72682900D01*
X133401982Y-72555966D01*
X133294034Y-72448018D01*
X133167100Y-72363204D01*
X133026059Y-72304783D01*
X132876331Y-72275000D01*
X132723669Y-72275000D01*
X132573941Y-72304783D01*
X132432900Y-72363204D01*
X132305966Y-72448018D01*
X132198018Y-72555966D01*
X132113204Y-72682900D01*
X132054783Y-72823941D01*
X132025000Y-72973669D01*
X129025000Y-72973669D01*
X129025000Y-71850000D01*
X155973186Y-71850000D01*
X155973186Y-73550000D01*
X155980426Y-73623513D01*
X156001869Y-73694200D01*
X156036691Y-73759347D01*
X156083552Y-73816448D01*
X156140653Y-73863309D01*
X156205800Y-73898131D01*
X156276487Y-73919574D01*
X156350000Y-73926814D01*
X158050000Y-73926814D01*
X158123513Y-73919574D01*
X158194200Y-73898131D01*
X158259347Y-73863309D01*
X158316448Y-73816448D01*
X158363309Y-73759347D01*
X158398131Y-73694200D01*
X158419574Y-73623513D01*
X158426814Y-73550000D01*
X158426814Y-72579348D01*
X158515000Y-72579348D01*
X158515000Y-72820652D01*
X158562076Y-73057319D01*
X158654419Y-73280255D01*
X158788481Y-73480892D01*
X158959108Y-73651519D01*
X159159745Y-73785581D01*
X159382681Y-73877924D01*
X159619348Y-73925000D01*
X159860652Y-73925000D01*
X160097319Y-73877924D01*
X160320255Y-73785581D01*
X160520892Y-73651519D01*
X160691519Y-73480892D01*
X160825581Y-73280255D01*
X160917924Y-73057319D01*
X160965000Y-72820652D01*
X160965000Y-72579348D01*
X161055000Y-72579348D01*
X161055000Y-72820652D01*
X161102076Y-73057319D01*
X161194419Y-73280255D01*
X161328481Y-73480892D01*
X161499108Y-73651519D01*
X161699745Y-73785581D01*
X161922681Y-73877924D01*
X162159348Y-73925000D01*
X162400652Y-73925000D01*
X162637319Y-73877924D01*
X162860255Y-73785581D01*
X163060892Y-73651519D01*
X163231519Y-73480892D01*
X163365581Y-73280255D01*
X163457924Y-73057319D01*
X163505000Y-72820652D01*
X163505000Y-72579348D01*
X163595000Y-72579348D01*
X163595000Y-72820652D01*
X163642076Y-73057319D01*
X163734419Y-73280255D01*
X163868481Y-73480892D01*
X164039108Y-73651519D01*
X164239745Y-73785581D01*
X164462681Y-73877924D01*
X164699348Y-73925000D01*
X164940652Y-73925000D01*
X165177319Y-73877924D01*
X165400255Y-73785581D01*
X165600892Y-73651519D01*
X165771519Y-73480892D01*
X165905581Y-73280255D01*
X165997924Y-73057319D01*
X166045000Y-72820652D01*
X166045000Y-72579348D01*
X165997924Y-72342681D01*
X165905581Y-72119745D01*
X165771519Y-71919108D01*
X165600892Y-71748481D01*
X165400255Y-71614419D01*
X165177319Y-71522076D01*
X164940652Y-71475000D01*
X164699348Y-71475000D01*
X164462681Y-71522076D01*
X164239745Y-71614419D01*
X164039108Y-71748481D01*
X163868481Y-71919108D01*
X163734419Y-72119745D01*
X163642076Y-72342681D01*
X163595000Y-72579348D01*
X163505000Y-72579348D01*
X163457924Y-72342681D01*
X163365581Y-72119745D01*
X163231519Y-71919108D01*
X163060892Y-71748481D01*
X162860255Y-71614419D01*
X162637319Y-71522076D01*
X162400652Y-71475000D01*
X162159348Y-71475000D01*
X161922681Y-71522076D01*
X161699745Y-71614419D01*
X161499108Y-71748481D01*
X161328481Y-71919108D01*
X161194419Y-72119745D01*
X161102076Y-72342681D01*
X161055000Y-72579348D01*
X160965000Y-72579348D01*
X160917924Y-72342681D01*
X160825581Y-72119745D01*
X160691519Y-71919108D01*
X160520892Y-71748481D01*
X160320255Y-71614419D01*
X160097319Y-71522076D01*
X159860652Y-71475000D01*
X159619348Y-71475000D01*
X159382681Y-71522076D01*
X159159745Y-71614419D01*
X158959108Y-71748481D01*
X158788481Y-71919108D01*
X158654419Y-72119745D01*
X158562076Y-72342681D01*
X158515000Y-72579348D01*
X158426814Y-72579348D01*
X158426814Y-71850000D01*
X158419574Y-71776487D01*
X158398131Y-71705800D01*
X158363309Y-71640653D01*
X158316448Y-71583552D01*
X158259347Y-71536691D01*
X158194200Y-71501869D01*
X158123513Y-71480426D01*
X158050000Y-71473186D01*
X156350000Y-71473186D01*
X156276487Y-71480426D01*
X156205800Y-71501869D01*
X156140653Y-71536691D01*
X156083552Y-71583552D01*
X156036691Y-71640653D01*
X156001869Y-71705800D01*
X155980426Y-71776487D01*
X155973186Y-71850000D01*
X129025000Y-71850000D01*
X129025000Y-70600000D01*
X169125000Y-70600000D01*
X169125000Y-80625133D01*
%TA.AperFunction,Conductor*%
D18*
G36*
X169125000Y-80625133D02*
G01*
X169086796Y-80532900D01*
X169001982Y-80405966D01*
X168894034Y-80298018D01*
X168767100Y-80213204D01*
X168626059Y-80154783D01*
X168476331Y-80125000D01*
X168323669Y-80125000D01*
X168173941Y-80154783D01*
X168032900Y-80213204D01*
X167905966Y-80298018D01*
X167798018Y-80405966D01*
X167713204Y-80532900D01*
X167654783Y-80673941D01*
X167625000Y-80823669D01*
X167625000Y-80976331D01*
X167654783Y-81126059D01*
X167713204Y-81267100D01*
X167798018Y-81394034D01*
X167905966Y-81501982D01*
X168032900Y-81586796D01*
X168173941Y-81645217D01*
X168323669Y-81675000D01*
X168476331Y-81675000D01*
X168626059Y-81645217D01*
X168767100Y-81586796D01*
X168894034Y-81501982D01*
X169001982Y-81394034D01*
X169086796Y-81267100D01*
X169125000Y-81174867D01*
X169125000Y-94000000D01*
X169127402Y-94024386D01*
X169134515Y-94047835D01*
X169146066Y-94069446D01*
X169161612Y-94088388D01*
X169180554Y-94103934D01*
X169202165Y-94115485D01*
X169225614Y-94122598D01*
X169250000Y-94125000D01*
X173395766Y-94125000D01*
X173354783Y-94223941D01*
X173325000Y-94373669D01*
X173325000Y-94526331D01*
X173354783Y-94676059D01*
X173413204Y-94817100D01*
X173498018Y-94944034D01*
X173605966Y-95051982D01*
X173732900Y-95136796D01*
X173873941Y-95195217D01*
X174023669Y-95225000D01*
X174176331Y-95225000D01*
X174326059Y-95195217D01*
X174467100Y-95136796D01*
X174594034Y-95051982D01*
X174701982Y-94944034D01*
X174786796Y-94817100D01*
X174845217Y-94676059D01*
X174875000Y-94526331D01*
X174875000Y-94373669D01*
X174845217Y-94223941D01*
X174804234Y-94125000D01*
X184000001Y-94125000D01*
X184000001Y-108730426D01*
X183986691Y-108866167D01*
X183952953Y-108977912D01*
X183898156Y-109080972D01*
X183824380Y-109171430D01*
X183734444Y-109245832D01*
X183631764Y-109301350D01*
X183520265Y-109335865D01*
X183385785Y-109350000D01*
X176175000Y-109350000D01*
X176175000Y-99725000D01*
X176225000Y-99725000D01*
X176225000Y-99600000D01*
X176175000Y-99600000D01*
X176175000Y-99350000D01*
X176172598Y-99325614D01*
X176165485Y-99302165D01*
X176153934Y-99280554D01*
X176138388Y-99261612D01*
X176119446Y-99246066D01*
X176097835Y-99234515D01*
X176074386Y-99227402D01*
X176050000Y-99225000D01*
X168631517Y-99225000D01*
X168636796Y-99217100D01*
X168695217Y-99076059D01*
X168725000Y-98926331D01*
X168725000Y-98773669D01*
X168695217Y-98623941D01*
X168667611Y-98557295D01*
X168717100Y-98536796D01*
X168844034Y-98451982D01*
X168875000Y-98421016D01*
X168905966Y-98451982D01*
X169032900Y-98536796D01*
X169173941Y-98595217D01*
X169323669Y-98625000D01*
X169476331Y-98625000D01*
X169626059Y-98595217D01*
X169767100Y-98536796D01*
X169894034Y-98451982D01*
X170001982Y-98344034D01*
X170086796Y-98217100D01*
X170145217Y-98076059D01*
X170175000Y-97926331D01*
X170175000Y-97773669D01*
X170145217Y-97623941D01*
X170086796Y-97482900D01*
X170001982Y-97355966D01*
X169894034Y-97248018D01*
X169767100Y-97163204D01*
X169626059Y-97104783D01*
X169476331Y-97075000D01*
X169323669Y-97075000D01*
X169173941Y-97104783D01*
X169032900Y-97163204D01*
X168905966Y-97248018D01*
X168875000Y-97278984D01*
X168844034Y-97248018D01*
X168717100Y-97163204D01*
X168576059Y-97104783D01*
X168426331Y-97075000D01*
X168273669Y-97075000D01*
X168123941Y-97104783D01*
X167982900Y-97163204D01*
X167855966Y-97248018D01*
X167748018Y-97355966D01*
X167663204Y-97482900D01*
X167604783Y-97623941D01*
X167575000Y-97773669D01*
X167575000Y-97926331D01*
X167604783Y-98076059D01*
X167632389Y-98142705D01*
X167582900Y-98163204D01*
X167455966Y-98248018D01*
X167348018Y-98355966D01*
X167263204Y-98482900D01*
X167204783Y-98623941D01*
X167175000Y-98773669D01*
X167175000Y-98926331D01*
X167204783Y-99076059D01*
X167263204Y-99217100D01*
X167268483Y-99225000D01*
X161195428Y-99225000D01*
X161225000Y-99076331D01*
X161225000Y-98923669D01*
X161195217Y-98773941D01*
X161136796Y-98632900D01*
X161051982Y-98505966D01*
X160944034Y-98398018D01*
X160817100Y-98313204D01*
X160676059Y-98254783D01*
X160526331Y-98225000D01*
X160373669Y-98225000D01*
X160223941Y-98254783D01*
X160082900Y-98313204D01*
X159955966Y-98398018D01*
X159848018Y-98505966D01*
X159763204Y-98632900D01*
X159704783Y-98773941D01*
X159675000Y-98923669D01*
X159675000Y-99076331D01*
X159704572Y-99225000D01*
X154125000Y-99225000D01*
X154125000Y-97050000D01*
X154122598Y-97025614D01*
X154115485Y-97002165D01*
X154103934Y-96980554D01*
X154088388Y-96961612D01*
X154069446Y-96946066D01*
X154047835Y-96934515D01*
X154024386Y-96927402D01*
X154000000Y-96925000D01*
X142571016Y-96925000D01*
X142601982Y-96894034D01*
X142686796Y-96767100D01*
X142745217Y-96626059D01*
X142775000Y-96476331D01*
X142775000Y-96323669D01*
X142745217Y-96173941D01*
X142686796Y-96032900D01*
X142601982Y-95905966D01*
X142494034Y-95798018D01*
X142367100Y-95713204D01*
X142226059Y-95654783D01*
X142076331Y-95625000D01*
X141923669Y-95625000D01*
X141773941Y-95654783D01*
X141632900Y-95713204D01*
X141505966Y-95798018D01*
X141398018Y-95905966D01*
X141313204Y-96032900D01*
X141254783Y-96173941D01*
X141225000Y-96323669D01*
X141225000Y-96476331D01*
X141254783Y-96626059D01*
X141313204Y-96767100D01*
X141398018Y-96894034D01*
X141428984Y-96925000D01*
X129025000Y-96925000D01*
X129025000Y-95023669D01*
X129125000Y-95023669D01*
X129125000Y-95176331D01*
X129154783Y-95326059D01*
X129213204Y-95467100D01*
X129298018Y-95594034D01*
X129405966Y-95701982D01*
X129532900Y-95786796D01*
X129673941Y-95845217D01*
X129823669Y-95875000D01*
X129976331Y-95875000D01*
X130126059Y-95845217D01*
X130267100Y-95786796D01*
X130394034Y-95701982D01*
X130501982Y-95594034D01*
X130586796Y-95467100D01*
X130645217Y-95326059D01*
X130675000Y-95176331D01*
X130675000Y-95023669D01*
X138475000Y-95023669D01*
X138475000Y-95176331D01*
X138504783Y-95326059D01*
X138563204Y-95467100D01*
X138648018Y-95594034D01*
X138755966Y-95701982D01*
X138882900Y-95786796D01*
X139023941Y-95845217D01*
X139173669Y-95875000D01*
X139326331Y-95875000D01*
X139476059Y-95845217D01*
X139617100Y-95786796D01*
X139744034Y-95701982D01*
X139851982Y-95594034D01*
X139936796Y-95467100D01*
X139995217Y-95326059D01*
X140025000Y-95176331D01*
X140025000Y-95023669D01*
X139995217Y-94873941D01*
X139936796Y-94732900D01*
X139851982Y-94605966D01*
X139744034Y-94498018D01*
X139617100Y-94413204D01*
X139476059Y-94354783D01*
X139326331Y-94325000D01*
X139173669Y-94325000D01*
X139023941Y-94354783D01*
X138882900Y-94413204D01*
X138755966Y-94498018D01*
X138648018Y-94605966D01*
X138563204Y-94732900D01*
X138504783Y-94873941D01*
X138475000Y-95023669D01*
X130675000Y-95023669D01*
X130645217Y-94873941D01*
X130586796Y-94732900D01*
X130501982Y-94605966D01*
X130394034Y-94498018D01*
X130267100Y-94413204D01*
X130126059Y-94354783D01*
X129976331Y-94325000D01*
X129823669Y-94325000D01*
X129673941Y-94354783D01*
X129532900Y-94413204D01*
X129405966Y-94498018D01*
X129298018Y-94605966D01*
X129213204Y-94732900D01*
X129154783Y-94873941D01*
X129125000Y-95023669D01*
X129025000Y-95023669D01*
X129025000Y-93823669D01*
X143025000Y-93823669D01*
X143025000Y-93976331D01*
X143054783Y-94126059D01*
X143113204Y-94267100D01*
X143198018Y-94394034D01*
X143305966Y-94501982D01*
X143432900Y-94586796D01*
X143573941Y-94645217D01*
X143723669Y-94675000D01*
X143876331Y-94675000D01*
X144026059Y-94645217D01*
X144167100Y-94586796D01*
X144294034Y-94501982D01*
X144401982Y-94394034D01*
X144486796Y-94267100D01*
X144545217Y-94126059D01*
X144575000Y-93976331D01*
X144575000Y-93823669D01*
X144558703Y-93741739D01*
X146223775Y-93741739D01*
X146223775Y-93894401D01*
X146253558Y-94044129D01*
X146311979Y-94185170D01*
X146396793Y-94312104D01*
X146504741Y-94420052D01*
X146631675Y-94504866D01*
X146772716Y-94563287D01*
X146922444Y-94593070D01*
X147075106Y-94593070D01*
X147224834Y-94563287D01*
X147365875Y-94504866D01*
X147492809Y-94420052D01*
X147600757Y-94312104D01*
X147685571Y-94185170D01*
X147743992Y-94044129D01*
X147773775Y-93894401D01*
X147773775Y-93788444D01*
X148624997Y-93788444D01*
X148624997Y-93911558D01*
X148649015Y-94032306D01*
X148696129Y-94146049D01*
X148764528Y-94248415D01*
X148851582Y-94335469D01*
X148953948Y-94403868D01*
X149067691Y-94450982D01*
X149188439Y-94475000D01*
X149311553Y-94475000D01*
X149431405Y-94451160D01*
X149396130Y-94503953D01*
X149349016Y-94617696D01*
X149324998Y-94738444D01*
X149324998Y-94861558D01*
X149349016Y-94982306D01*
X149396130Y-95096049D01*
X149446270Y-95171088D01*
X149405966Y-95198018D01*
X149298018Y-95305966D01*
X149213204Y-95432900D01*
X149154783Y-95573941D01*
X149125000Y-95723669D01*
X149125000Y-95876331D01*
X149154783Y-96026059D01*
X149213204Y-96167100D01*
X149298018Y-96294034D01*
X149405966Y-96401982D01*
X149532900Y-96486796D01*
X149673941Y-96545217D01*
X149823669Y-96575000D01*
X149976331Y-96575000D01*
X150126059Y-96545217D01*
X150267100Y-96486796D01*
X150394034Y-96401982D01*
X150501982Y-96294034D01*
X150586796Y-96167100D01*
X150645217Y-96026059D01*
X150675000Y-95876331D01*
X150675000Y-95850000D01*
X155073186Y-95850000D01*
X155073186Y-97550000D01*
X155080426Y-97623513D01*
X155101869Y-97694200D01*
X155136691Y-97759347D01*
X155183552Y-97816448D01*
X155240653Y-97863309D01*
X155305800Y-97898131D01*
X155376487Y-97919574D01*
X155450000Y-97926814D01*
X157150000Y-97926814D01*
X157223513Y-97919574D01*
X157294200Y-97898131D01*
X157359347Y-97863309D01*
X157416448Y-97816448D01*
X157463309Y-97759347D01*
X157498131Y-97694200D01*
X157519574Y-97623513D01*
X157526814Y-97550000D01*
X157526814Y-96579348D01*
X157615000Y-96579348D01*
X157615000Y-96820652D01*
X157662076Y-97057319D01*
X157754419Y-97280255D01*
X157888481Y-97480892D01*
X158059108Y-97651519D01*
X158259745Y-97785581D01*
X158482681Y-97877924D01*
X158719348Y-97925000D01*
X158960652Y-97925000D01*
X159197319Y-97877924D01*
X159420255Y-97785581D01*
X159620892Y-97651519D01*
X159791519Y-97480892D01*
X159925581Y-97280255D01*
X160017924Y-97057319D01*
X160065000Y-96820652D01*
X160065000Y-96579348D01*
X160155000Y-96579348D01*
X160155000Y-96820652D01*
X160202076Y-97057319D01*
X160294419Y-97280255D01*
X160428481Y-97480892D01*
X160599108Y-97651519D01*
X160799745Y-97785581D01*
X161022681Y-97877924D01*
X161259348Y-97925000D01*
X161500652Y-97925000D01*
X161737319Y-97877924D01*
X161960255Y-97785581D01*
X162160892Y-97651519D01*
X162331519Y-97480892D01*
X162465581Y-97280255D01*
X162557924Y-97057319D01*
X162605000Y-96820652D01*
X162605000Y-96579348D01*
X162557924Y-96342681D01*
X162465581Y-96119745D01*
X162331519Y-95919108D01*
X162160892Y-95748481D01*
X161960255Y-95614419D01*
X161737319Y-95522076D01*
X161500652Y-95475000D01*
X161259348Y-95475000D01*
X161022681Y-95522076D01*
X160799745Y-95614419D01*
X160599108Y-95748481D01*
X160428481Y-95919108D01*
X160294419Y-96119745D01*
X160202076Y-96342681D01*
X160155000Y-96579348D01*
X160065000Y-96579348D01*
X160017924Y-96342681D01*
X159925581Y-96119745D01*
X159791519Y-95919108D01*
X159620892Y-95748481D01*
X159420255Y-95614419D01*
X159197319Y-95522076D01*
X158960652Y-95475000D01*
X158719348Y-95475000D01*
X158482681Y-95522076D01*
X158259745Y-95614419D01*
X158059108Y-95748481D01*
X157888481Y-95919108D01*
X157754419Y-96119745D01*
X157662076Y-96342681D01*
X157615000Y-96579348D01*
X157526814Y-96579348D01*
X157526814Y-95850000D01*
X157519574Y-95776487D01*
X157498131Y-95705800D01*
X157463309Y-95640653D01*
X157416448Y-95583552D01*
X157359347Y-95536691D01*
X157294200Y-95501869D01*
X157223513Y-95480426D01*
X157150000Y-95473186D01*
X155450000Y-95473186D01*
X155376487Y-95480426D01*
X155305800Y-95501869D01*
X155240653Y-95536691D01*
X155183552Y-95583552D01*
X155136691Y-95640653D01*
X155101869Y-95705800D01*
X155080426Y-95776487D01*
X155073186Y-95850000D01*
X150675000Y-95850000D01*
X150675000Y-95723669D01*
X150645217Y-95573941D01*
X150586796Y-95432900D01*
X150501982Y-95305966D01*
X150414948Y-95218932D01*
X150435465Y-95198415D01*
X150503864Y-95096049D01*
X150550978Y-94982306D01*
X150574996Y-94861558D01*
X150574996Y-94738444D01*
X150550978Y-94617696D01*
X150512031Y-94523669D01*
X156125000Y-94523669D01*
X156125000Y-94676331D01*
X156154783Y-94826059D01*
X156213204Y-94967100D01*
X156298018Y-95094034D01*
X156405966Y-95201982D01*
X156532900Y-95286796D01*
X156673941Y-95345217D01*
X156823669Y-95375000D01*
X156976331Y-95375000D01*
X157126059Y-95345217D01*
X157267100Y-95286796D01*
X157394034Y-95201982D01*
X157501982Y-95094034D01*
X157586796Y-94967100D01*
X157645217Y-94826059D01*
X157675000Y-94676331D01*
X157675000Y-94523669D01*
X157645217Y-94373941D01*
X157586796Y-94232900D01*
X157501982Y-94105966D01*
X157394034Y-93998018D01*
X157267100Y-93913204D01*
X157126059Y-93854783D01*
X156976331Y-93825000D01*
X156823669Y-93825000D01*
X156673941Y-93854783D01*
X156532900Y-93913204D01*
X156405966Y-93998018D01*
X156298018Y-94105966D01*
X156213204Y-94232900D01*
X156154783Y-94373941D01*
X156125000Y-94523669D01*
X150512031Y-94523669D01*
X150503864Y-94503953D01*
X150468589Y-94451160D01*
X150588442Y-94475000D01*
X150711556Y-94475000D01*
X150832304Y-94450982D01*
X150946047Y-94403868D01*
X151048413Y-94335469D01*
X151135467Y-94248415D01*
X151203866Y-94146049D01*
X151250980Y-94032306D01*
X151274998Y-93911558D01*
X151274998Y-93788444D01*
X151250980Y-93667696D01*
X151203866Y-93553953D01*
X151135467Y-93451587D01*
X151048413Y-93364533D01*
X150946047Y-93296134D01*
X150832304Y-93249020D01*
X150711556Y-93225002D01*
X150588442Y-93225002D01*
X150468588Y-93248842D01*
X150503864Y-93196048D01*
X150550978Y-93082305D01*
X150574996Y-92961557D01*
X150574996Y-92838443D01*
X150550978Y-92717695D01*
X150503864Y-92603952D01*
X150435465Y-92501586D01*
X150348411Y-92414532D01*
X150246045Y-92346133D01*
X150132302Y-92299019D01*
X150011554Y-92275001D01*
X149888440Y-92275001D01*
X149767692Y-92299019D01*
X149653949Y-92346133D01*
X149551583Y-92414532D01*
X149464529Y-92501586D01*
X149396130Y-92603952D01*
X149349016Y-92717695D01*
X149324998Y-92838443D01*
X149324998Y-92961557D01*
X149349016Y-93082305D01*
X149396130Y-93196048D01*
X149431406Y-93248842D01*
X149311553Y-93225002D01*
X149188439Y-93225002D01*
X149067691Y-93249020D01*
X148953948Y-93296134D01*
X148851582Y-93364533D01*
X148764528Y-93451587D01*
X148696129Y-93553953D01*
X148649015Y-93667696D01*
X148624997Y-93788444D01*
X147773775Y-93788444D01*
X147773775Y-93741739D01*
X147743992Y-93592011D01*
X147685571Y-93450970D01*
X147600757Y-93324036D01*
X147564566Y-93287845D01*
X147567100Y-93286796D01*
X147694034Y-93201982D01*
X147801982Y-93094034D01*
X147886796Y-92967100D01*
X147945217Y-92826059D01*
X147975000Y-92676331D01*
X147975000Y-92523669D01*
X147945217Y-92373941D01*
X147886796Y-92232900D01*
X147801982Y-92105966D01*
X147694034Y-91998018D01*
X147643350Y-91964152D01*
X147701596Y-91876980D01*
X147760017Y-91735939D01*
X147789800Y-91586211D01*
X147789800Y-91465685D01*
X152557678Y-91465685D01*
X152557678Y-91618347D01*
X152587461Y-91768075D01*
X152645882Y-91909116D01*
X152730696Y-92036050D01*
X152838644Y-92143998D01*
X152965578Y-92228812D01*
X153106619Y-92287233D01*
X153239914Y-92313747D01*
X153239914Y-92349481D01*
X153269697Y-92499209D01*
X153328118Y-92640250D01*
X153412932Y-92767184D01*
X153472407Y-92826659D01*
X153423018Y-92876048D01*
X153338204Y-93002982D01*
X153279783Y-93144023D01*
X153250000Y-93293751D01*
X153250000Y-93446413D01*
X153279783Y-93596141D01*
X153338204Y-93737182D01*
X153423018Y-93864116D01*
X153530966Y-93972064D01*
X153657900Y-94056878D01*
X153798941Y-94115299D01*
X153948669Y-94145082D01*
X154101331Y-94145082D01*
X154251059Y-94115299D01*
X154392100Y-94056878D01*
X154519034Y-93972064D01*
X154626982Y-93864116D01*
X154711796Y-93737182D01*
X154770217Y-93596141D01*
X154800000Y-93446413D01*
X154800000Y-93293751D01*
X154786060Y-93223669D01*
X158725000Y-93223669D01*
X158725000Y-93376331D01*
X158754783Y-93526059D01*
X158813204Y-93667100D01*
X158898018Y-93794034D01*
X159005966Y-93901982D01*
X159132900Y-93986796D01*
X159273941Y-94045217D01*
X159423669Y-94075000D01*
X159576331Y-94075000D01*
X159726059Y-94045217D01*
X159867100Y-93986796D01*
X159994034Y-93901982D01*
X160101982Y-93794034D01*
X160148998Y-93723669D01*
X160325000Y-93723669D01*
X160325000Y-93876331D01*
X160354783Y-94026059D01*
X160413204Y-94167100D01*
X160498018Y-94294034D01*
X160605966Y-94401982D01*
X160732900Y-94486796D01*
X160873941Y-94545217D01*
X161023669Y-94575000D01*
X161176331Y-94575000D01*
X161326059Y-94545217D01*
X161357350Y-94532256D01*
X161413204Y-94667100D01*
X161498018Y-94794034D01*
X161605966Y-94901982D01*
X161732900Y-94986796D01*
X161873941Y-95045217D01*
X162023669Y-95075000D01*
X162176331Y-95075000D01*
X162326059Y-95045217D01*
X162467100Y-94986796D01*
X162594034Y-94901982D01*
X162701982Y-94794034D01*
X162786796Y-94667100D01*
X162845217Y-94526059D01*
X162875000Y-94376331D01*
X162875000Y-94223669D01*
X162845217Y-94073941D01*
X162786796Y-93932900D01*
X162701982Y-93805966D01*
X162594034Y-93698018D01*
X162467100Y-93613204D01*
X162326059Y-93554783D01*
X162176331Y-93525000D01*
X162023669Y-93525000D01*
X161873941Y-93554783D01*
X161842650Y-93567744D01*
X161786796Y-93432900D01*
X161701982Y-93305966D01*
X161594034Y-93198018D01*
X161467100Y-93113204D01*
X161326059Y-93054783D01*
X161176331Y-93025000D01*
X161023669Y-93025000D01*
X160873941Y-93054783D01*
X160732900Y-93113204D01*
X160605966Y-93198018D01*
X160498018Y-93305966D01*
X160413204Y-93432900D01*
X160354783Y-93573941D01*
X160325000Y-93723669D01*
X160148998Y-93723669D01*
X160186796Y-93667100D01*
X160245217Y-93526059D01*
X160275000Y-93376331D01*
X160275000Y-93223669D01*
X160245217Y-93073941D01*
X160186796Y-92932900D01*
X160101982Y-92805966D01*
X159994034Y-92698018D01*
X159867100Y-92613204D01*
X159726059Y-92554783D01*
X159576331Y-92525000D01*
X159423669Y-92525000D01*
X159273941Y-92554783D01*
X159132900Y-92613204D01*
X159005966Y-92698018D01*
X158898018Y-92805966D01*
X158813204Y-92932900D01*
X158754783Y-93073941D01*
X158725000Y-93223669D01*
X154786060Y-93223669D01*
X154770217Y-93144023D01*
X154711796Y-93002982D01*
X154626982Y-92876048D01*
X154567507Y-92816573D01*
X154616896Y-92767184D01*
X154701710Y-92640250D01*
X154760131Y-92499209D01*
X154763726Y-92481133D01*
X161895144Y-92481133D01*
X161895144Y-92633795D01*
X161924927Y-92783523D01*
X161983348Y-92924564D01*
X162068162Y-93051498D01*
X162176110Y-93159446D01*
X162303044Y-93244260D01*
X162444085Y-93302681D01*
X162593813Y-93332464D01*
X162746475Y-93332464D01*
X162896203Y-93302681D01*
X163037244Y-93244260D01*
X163164178Y-93159446D01*
X163272126Y-93051498D01*
X163356940Y-92924564D01*
X163415361Y-92783523D01*
X163445144Y-92633795D01*
X163445144Y-92481133D01*
X163415361Y-92331405D01*
X163356940Y-92190364D01*
X163272126Y-92063430D01*
X163164178Y-91955482D01*
X163037244Y-91870668D01*
X162896203Y-91812247D01*
X162746475Y-91782464D01*
X162593813Y-91782464D01*
X162444085Y-91812247D01*
X162303044Y-91870668D01*
X162176110Y-91955482D01*
X162068162Y-92063430D01*
X161983348Y-92190364D01*
X161924927Y-92331405D01*
X161895144Y-92481133D01*
X154763726Y-92481133D01*
X154789914Y-92349481D01*
X154789914Y-92196819D01*
X154760131Y-92047091D01*
X154701710Y-91906050D01*
X154616896Y-91779116D01*
X154508948Y-91671168D01*
X154382014Y-91586354D01*
X154240973Y-91527933D01*
X154107678Y-91501419D01*
X154107678Y-91465685D01*
X154077895Y-91315957D01*
X154019474Y-91174916D01*
X153934660Y-91047982D01*
X153826712Y-90940034D01*
X153699778Y-90855220D01*
X153558737Y-90796799D01*
X153409009Y-90767016D01*
X153256347Y-90767016D01*
X153106619Y-90796799D01*
X152965578Y-90855220D01*
X152838644Y-90940034D01*
X152730696Y-91047982D01*
X152645882Y-91174916D01*
X152587461Y-91315957D01*
X152557678Y-91465685D01*
X147789800Y-91465685D01*
X147789800Y-91433549D01*
X147760017Y-91283821D01*
X147701596Y-91142780D01*
X147616782Y-91015846D01*
X147508834Y-90907898D01*
X147381900Y-90823084D01*
X147240859Y-90764663D01*
X147091131Y-90734880D01*
X146938469Y-90734880D01*
X146788741Y-90764663D01*
X146647700Y-90823084D01*
X146520766Y-90907898D01*
X146412818Y-91015846D01*
X146328004Y-91142780D01*
X146269583Y-91283821D01*
X146239800Y-91433549D01*
X146239800Y-91586211D01*
X146269583Y-91735939D01*
X146328004Y-91876980D01*
X146412818Y-92003914D01*
X146520766Y-92111862D01*
X146571450Y-92145728D01*
X146513204Y-92232900D01*
X146454783Y-92373941D01*
X146425000Y-92523669D01*
X146425000Y-92676331D01*
X146454783Y-92826059D01*
X146513204Y-92967100D01*
X146598018Y-93094034D01*
X146634209Y-93130225D01*
X146631675Y-93131274D01*
X146504741Y-93216088D01*
X146396793Y-93324036D01*
X146311979Y-93450970D01*
X146253558Y-93592011D01*
X146223775Y-93741739D01*
X144558703Y-93741739D01*
X144545217Y-93673941D01*
X144486796Y-93532900D01*
X144401982Y-93405966D01*
X144294034Y-93298018D01*
X144167100Y-93213204D01*
X144026059Y-93154783D01*
X143876331Y-93125000D01*
X143723669Y-93125000D01*
X143573941Y-93154783D01*
X143432900Y-93213204D01*
X143305966Y-93298018D01*
X143198018Y-93405966D01*
X143113204Y-93532900D01*
X143054783Y-93673941D01*
X143025000Y-93823669D01*
X129025000Y-93823669D01*
X129025000Y-88670505D01*
X132178165Y-88670505D01*
X132178165Y-88823167D01*
X132207948Y-88972895D01*
X132266369Y-89113936D01*
X132351183Y-89240870D01*
X132459131Y-89348818D01*
X132519365Y-89389065D01*
X132505966Y-89398018D01*
X132398018Y-89505966D01*
X132313204Y-89632900D01*
X132254783Y-89773941D01*
X132225000Y-89923669D01*
X132225000Y-90076331D01*
X132254783Y-90226059D01*
X132313204Y-90367100D01*
X132398018Y-90494034D01*
X132505966Y-90601982D01*
X132632900Y-90686796D01*
X132773941Y-90745217D01*
X132923669Y-90775000D01*
X133076331Y-90775000D01*
X133226059Y-90745217D01*
X133367100Y-90686796D01*
X133494034Y-90601982D01*
X133601982Y-90494034D01*
X133686796Y-90367100D01*
X133745217Y-90226059D01*
X133775000Y-90076331D01*
X133775000Y-89923669D01*
X152125000Y-89923669D01*
X152125000Y-90076331D01*
X152154783Y-90226059D01*
X152213204Y-90367100D01*
X152298018Y-90494034D01*
X152405966Y-90601982D01*
X152532900Y-90686796D01*
X152673941Y-90745217D01*
X152823669Y-90775000D01*
X152976331Y-90775000D01*
X153126059Y-90745217D01*
X153267100Y-90686796D01*
X153394034Y-90601982D01*
X153501982Y-90494034D01*
X153586796Y-90367100D01*
X153645217Y-90226059D01*
X153675000Y-90076331D01*
X153675000Y-89923669D01*
X153645217Y-89773941D01*
X153586796Y-89632900D01*
X153501982Y-89505966D01*
X153394034Y-89398018D01*
X153267100Y-89313204D01*
X153126059Y-89254783D01*
X152976331Y-89225000D01*
X152823669Y-89225000D01*
X152673941Y-89254783D01*
X152532900Y-89313204D01*
X152405966Y-89398018D01*
X152298018Y-89505966D01*
X152213204Y-89632900D01*
X152154783Y-89773941D01*
X152125000Y-89923669D01*
X133775000Y-89923669D01*
X133745217Y-89773941D01*
X133686796Y-89632900D01*
X133601982Y-89505966D01*
X133494034Y-89398018D01*
X133433800Y-89357771D01*
X133447199Y-89348818D01*
X133555147Y-89240870D01*
X133639961Y-89113936D01*
X133698382Y-88972895D01*
X133728165Y-88823167D01*
X133728165Y-88670505D01*
X133698382Y-88520777D01*
X133658159Y-88423669D01*
X143800000Y-88423669D01*
X143800000Y-88576331D01*
X143829783Y-88726059D01*
X143888204Y-88867100D01*
X143973018Y-88994034D01*
X144080966Y-89101982D01*
X144207900Y-89186796D01*
X144348941Y-89245217D01*
X144498669Y-89275000D01*
X144651331Y-89275000D01*
X144801059Y-89245217D01*
X144942100Y-89186796D01*
X145069034Y-89101982D01*
X145176982Y-88994034D01*
X145261796Y-88867100D01*
X145320217Y-88726059D01*
X145350000Y-88576331D01*
X145350000Y-88423669D01*
X146925000Y-88423669D01*
X146925000Y-88576331D01*
X146954783Y-88726059D01*
X147013204Y-88867100D01*
X147098018Y-88994034D01*
X147205966Y-89101982D01*
X147332900Y-89186796D01*
X147473941Y-89245217D01*
X147623669Y-89275000D01*
X147776331Y-89275000D01*
X147926059Y-89245217D01*
X148067100Y-89186796D01*
X148194034Y-89101982D01*
X148301982Y-88994034D01*
X148386796Y-88867100D01*
X148445217Y-88726059D01*
X148475000Y-88576331D01*
X148475000Y-88423669D01*
X148445217Y-88273941D01*
X148386796Y-88132900D01*
X148301982Y-88005966D01*
X148194034Y-87898018D01*
X148117360Y-87846786D01*
X149095727Y-87846786D01*
X149095727Y-87999448D01*
X149125510Y-88149176D01*
X149183931Y-88290217D01*
X149268745Y-88417151D01*
X149376693Y-88525099D01*
X149503627Y-88609913D01*
X149644668Y-88668334D01*
X149794396Y-88698117D01*
X149947058Y-88698117D01*
X150096786Y-88668334D01*
X150237827Y-88609913D01*
X150364761Y-88525099D01*
X150472709Y-88417151D01*
X150557523Y-88290217D01*
X150564377Y-88273669D01*
X161725000Y-88273669D01*
X161725000Y-88426331D01*
X161754783Y-88576059D01*
X161813204Y-88717100D01*
X161898018Y-88844034D01*
X161963352Y-88909368D01*
X161917889Y-88977408D01*
X161859468Y-89118449D01*
X161829685Y-89268177D01*
X161829685Y-89420839D01*
X161859468Y-89570567D01*
X161917889Y-89711608D01*
X162002703Y-89838542D01*
X162110651Y-89946490D01*
X162237585Y-90031304D01*
X162378626Y-90089725D01*
X162528354Y-90119508D01*
X162681016Y-90119508D01*
X162830744Y-90089725D01*
X162971785Y-90031304D01*
X163098719Y-89946490D01*
X163206667Y-89838542D01*
X163291481Y-89711608D01*
X163349902Y-89570567D01*
X163379685Y-89420839D01*
X163379685Y-89268177D01*
X163349902Y-89118449D01*
X163291481Y-88977408D01*
X163206667Y-88850474D01*
X163141333Y-88785140D01*
X163186796Y-88717100D01*
X163245217Y-88576059D01*
X163275000Y-88426331D01*
X163275000Y-88273669D01*
X163265055Y-88223669D01*
X164825000Y-88223669D01*
X164825000Y-88376331D01*
X164854783Y-88526059D01*
X164913204Y-88667100D01*
X164998018Y-88794034D01*
X165105966Y-88901982D01*
X165232900Y-88986796D01*
X165373941Y-89045217D01*
X165523669Y-89075000D01*
X165676331Y-89075000D01*
X165826059Y-89045217D01*
X165967100Y-88986796D01*
X166094034Y-88901982D01*
X166201982Y-88794034D01*
X166286796Y-88667100D01*
X166345217Y-88526059D01*
X166365583Y-88423669D01*
X167325000Y-88423669D01*
X167325000Y-88576331D01*
X167354783Y-88726059D01*
X167413204Y-88867100D01*
X167498018Y-88994034D01*
X167605966Y-89101982D01*
X167732900Y-89186796D01*
X167873941Y-89245217D01*
X168023669Y-89275000D01*
X168176331Y-89275000D01*
X168326059Y-89245217D01*
X168467100Y-89186796D01*
X168594034Y-89101982D01*
X168701982Y-88994034D01*
X168786796Y-88867100D01*
X168845217Y-88726059D01*
X168875000Y-88576331D01*
X168875000Y-88423669D01*
X168845217Y-88273941D01*
X168786796Y-88132900D01*
X168701982Y-88005966D01*
X168594034Y-87898018D01*
X168467100Y-87813204D01*
X168326059Y-87754783D01*
X168176331Y-87725000D01*
X168023669Y-87725000D01*
X167873941Y-87754783D01*
X167732900Y-87813204D01*
X167605966Y-87898018D01*
X167498018Y-88005966D01*
X167413204Y-88132900D01*
X167354783Y-88273941D01*
X167325000Y-88423669D01*
X166365583Y-88423669D01*
X166375000Y-88376331D01*
X166375000Y-88223669D01*
X166345217Y-88073941D01*
X166286796Y-87932900D01*
X166217230Y-87828786D01*
X166251982Y-87794034D01*
X166336796Y-87667100D01*
X166395217Y-87526059D01*
X166425000Y-87376331D01*
X166425000Y-87223669D01*
X166395217Y-87073941D01*
X166336796Y-86932900D01*
X166251982Y-86805966D01*
X166144034Y-86698018D01*
X166017100Y-86613204D01*
X165876059Y-86554783D01*
X165726331Y-86525000D01*
X165573669Y-86525000D01*
X165423941Y-86554783D01*
X165282900Y-86613204D01*
X165155966Y-86698018D01*
X165048018Y-86805966D01*
X164963204Y-86932900D01*
X164904783Y-87073941D01*
X164875000Y-87223669D01*
X164875000Y-87376331D01*
X164904783Y-87526059D01*
X164963204Y-87667100D01*
X165032770Y-87771214D01*
X164998018Y-87805966D01*
X164913204Y-87932900D01*
X164854783Y-88073941D01*
X164825000Y-88223669D01*
X163265055Y-88223669D01*
X163245217Y-88123941D01*
X163186796Y-87982900D01*
X163101982Y-87855966D01*
X162994034Y-87748018D01*
X162867100Y-87663204D01*
X162726059Y-87604783D01*
X162576331Y-87575000D01*
X162423669Y-87575000D01*
X162273941Y-87604783D01*
X162132900Y-87663204D01*
X162005966Y-87748018D01*
X161898018Y-87855966D01*
X161813204Y-87982900D01*
X161754783Y-88123941D01*
X161725000Y-88273669D01*
X150564377Y-88273669D01*
X150615944Y-88149176D01*
X150645727Y-87999448D01*
X150645727Y-87846786D01*
X150615944Y-87697058D01*
X150557523Y-87556017D01*
X150472709Y-87429083D01*
X150364761Y-87321135D01*
X150237827Y-87236321D01*
X150096786Y-87177900D01*
X149947058Y-87148117D01*
X149794396Y-87148117D01*
X149644668Y-87177900D01*
X149503627Y-87236321D01*
X149376693Y-87321135D01*
X149268745Y-87429083D01*
X149183931Y-87556017D01*
X149125510Y-87697058D01*
X149095727Y-87846786D01*
X148117360Y-87846786D01*
X148067100Y-87813204D01*
X147926059Y-87754783D01*
X147776331Y-87725000D01*
X147623669Y-87725000D01*
X147473941Y-87754783D01*
X147332900Y-87813204D01*
X147205966Y-87898018D01*
X147098018Y-88005966D01*
X147013204Y-88132900D01*
X146954783Y-88273941D01*
X146925000Y-88423669D01*
X145350000Y-88423669D01*
X145340319Y-88375000D01*
X145376331Y-88375000D01*
X145526059Y-88345217D01*
X145667100Y-88286796D01*
X145794034Y-88201982D01*
X145901982Y-88094034D01*
X145986796Y-87967100D01*
X146045217Y-87826059D01*
X146075000Y-87676331D01*
X146075000Y-87524990D01*
X146126341Y-87524990D01*
X146276069Y-87495207D01*
X146417110Y-87436786D01*
X146544044Y-87351972D01*
X146651992Y-87244024D01*
X146736806Y-87117090D01*
X146795227Y-86976049D01*
X146825010Y-86826321D01*
X146825010Y-86673659D01*
X146795227Y-86523931D01*
X146736806Y-86382890D01*
X146651992Y-86255956D01*
X146544044Y-86148008D01*
X146417110Y-86063194D01*
X146276069Y-86004773D01*
X146126341Y-85974990D01*
X145973679Y-85974990D01*
X145823951Y-86004773D01*
X145682910Y-86063194D01*
X145555976Y-86148008D01*
X145448028Y-86255956D01*
X145363214Y-86382890D01*
X145304793Y-86523931D01*
X145275010Y-86673659D01*
X145275010Y-86825000D01*
X145223669Y-86825000D01*
X145073941Y-86854783D01*
X144932900Y-86913204D01*
X144805966Y-86998018D01*
X144698018Y-87105966D01*
X144613204Y-87232900D01*
X144554783Y-87373941D01*
X144525000Y-87523669D01*
X144525000Y-87676331D01*
X144534681Y-87725000D01*
X144498669Y-87725000D01*
X144348941Y-87754783D01*
X144207900Y-87813204D01*
X144080966Y-87898018D01*
X143973018Y-88005966D01*
X143888204Y-88132900D01*
X143829783Y-88273941D01*
X143800000Y-88423669D01*
X133658159Y-88423669D01*
X133639961Y-88379736D01*
X133555147Y-88252802D01*
X133447199Y-88144854D01*
X133320265Y-88060040D01*
X133179224Y-88001619D01*
X133029496Y-87971836D01*
X132876834Y-87971836D01*
X132727106Y-88001619D01*
X132586065Y-88060040D01*
X132459131Y-88144854D01*
X132351183Y-88252802D01*
X132266369Y-88379736D01*
X132207948Y-88520777D01*
X132178165Y-88670505D01*
X129025000Y-88670505D01*
X129025000Y-86123669D01*
X132275000Y-86123669D01*
X132275000Y-86276331D01*
X132304783Y-86426059D01*
X132363204Y-86567100D01*
X132448018Y-86694034D01*
X132555966Y-86801982D01*
X132682900Y-86886796D01*
X132823941Y-86945217D01*
X132973669Y-86975000D01*
X133126331Y-86975000D01*
X133276059Y-86945217D01*
X133417100Y-86886796D01*
X133436746Y-86873669D01*
X134425010Y-86873669D01*
X134425010Y-87026331D01*
X134454793Y-87176059D01*
X134513214Y-87317100D01*
X134598028Y-87444034D01*
X134705976Y-87551982D01*
X134832910Y-87636796D01*
X134973951Y-87695217D01*
X135123679Y-87725000D01*
X135276341Y-87725000D01*
X135426069Y-87695217D01*
X135567110Y-87636796D01*
X135694044Y-87551982D01*
X135801992Y-87444034D01*
X135815599Y-87423669D01*
X141899990Y-87423669D01*
X141899990Y-87576331D01*
X141929773Y-87726059D01*
X141988194Y-87867100D01*
X142073008Y-87994034D01*
X142180956Y-88101982D01*
X142307890Y-88186796D01*
X142448931Y-88245217D01*
X142598659Y-88275000D01*
X142751321Y-88275000D01*
X142901049Y-88245217D01*
X143042090Y-88186796D01*
X143169024Y-88101982D01*
X143276972Y-87994034D01*
X143361786Y-87867100D01*
X143420207Y-87726059D01*
X143449990Y-87576331D01*
X143449990Y-87423669D01*
X143420207Y-87273941D01*
X143361786Y-87132900D01*
X143276972Y-87005966D01*
X143169024Y-86898018D01*
X143042090Y-86813204D01*
X142901049Y-86754783D01*
X142751321Y-86725000D01*
X142598659Y-86725000D01*
X142448931Y-86754783D01*
X142307890Y-86813204D01*
X142180956Y-86898018D01*
X142073008Y-87005966D01*
X141988194Y-87132900D01*
X141929773Y-87273941D01*
X141899990Y-87423669D01*
X135815599Y-87423669D01*
X135886806Y-87317100D01*
X135945227Y-87176059D01*
X135975010Y-87026331D01*
X135975010Y-86873669D01*
X135945227Y-86723941D01*
X135886806Y-86582900D01*
X135801992Y-86455966D01*
X135694044Y-86348018D01*
X135567110Y-86263204D01*
X135426069Y-86204783D01*
X135276341Y-86175000D01*
X135123679Y-86175000D01*
X134973951Y-86204783D01*
X134832910Y-86263204D01*
X134705976Y-86348018D01*
X134598028Y-86455966D01*
X134513214Y-86582900D01*
X134454793Y-86723941D01*
X134425010Y-86873669D01*
X133436746Y-86873669D01*
X133544034Y-86801982D01*
X133651982Y-86694034D01*
X133736796Y-86567100D01*
X133795217Y-86426059D01*
X133825000Y-86276331D01*
X133825000Y-86123669D01*
X133795217Y-85973941D01*
X133774394Y-85923669D01*
X165725000Y-85923669D01*
X165725000Y-86076331D01*
X165754783Y-86226059D01*
X165813204Y-86367100D01*
X165898018Y-86494034D01*
X166005966Y-86601982D01*
X166132900Y-86686796D01*
X166273941Y-86745217D01*
X166423669Y-86775000D01*
X166576331Y-86775000D01*
X166726059Y-86745217D01*
X166867100Y-86686796D01*
X166994034Y-86601982D01*
X167101982Y-86494034D01*
X167186796Y-86367100D01*
X167245217Y-86226059D01*
X167275000Y-86076331D01*
X167275000Y-85923669D01*
X167245217Y-85773941D01*
X167186796Y-85632900D01*
X167101982Y-85505966D01*
X166994034Y-85398018D01*
X166867100Y-85313204D01*
X166726059Y-85254783D01*
X166576331Y-85225000D01*
X166423669Y-85225000D01*
X166273941Y-85254783D01*
X166132900Y-85313204D01*
X166005966Y-85398018D01*
X165898018Y-85505966D01*
X165813204Y-85632900D01*
X165754783Y-85773941D01*
X165725000Y-85923669D01*
X133774394Y-85923669D01*
X133736796Y-85832900D01*
X133651982Y-85705966D01*
X133544034Y-85598018D01*
X133417100Y-85513204D01*
X133276059Y-85454783D01*
X133126331Y-85425000D01*
X132973669Y-85425000D01*
X132823941Y-85454783D01*
X132682900Y-85513204D01*
X132555966Y-85598018D01*
X132448018Y-85705966D01*
X132363204Y-85832900D01*
X132304783Y-85973941D01*
X132275000Y-86123669D01*
X129025000Y-86123669D01*
X129025000Y-83573669D01*
X132625000Y-83573669D01*
X132625000Y-83726331D01*
X132654783Y-83876059D01*
X132713204Y-84017100D01*
X132798018Y-84144034D01*
X132905966Y-84251982D01*
X133032900Y-84336796D01*
X133173941Y-84395217D01*
X133323669Y-84425000D01*
X133476331Y-84425000D01*
X133626059Y-84395217D01*
X133767100Y-84336796D01*
X133894034Y-84251982D01*
X134001982Y-84144034D01*
X134086796Y-84017100D01*
X134145217Y-83876059D01*
X134175000Y-83726331D01*
X134175000Y-83623669D01*
X141725000Y-83623669D01*
X141725000Y-83776331D01*
X141754783Y-83926059D01*
X141813204Y-84067100D01*
X141898018Y-84194034D01*
X142005966Y-84301982D01*
X142132900Y-84386796D01*
X142273941Y-84445217D01*
X142423669Y-84475000D01*
X142576331Y-84475000D01*
X142726059Y-84445217D01*
X142742405Y-84438446D01*
X146025003Y-84438446D01*
X146025003Y-84561560D01*
X146049021Y-84682308D01*
X146096135Y-84796051D01*
X146164534Y-84898417D01*
X146251588Y-84985471D01*
X146353954Y-85053870D01*
X146467697Y-85100984D01*
X146588445Y-85125002D01*
X146711559Y-85125002D01*
X146832307Y-85100984D01*
X146946050Y-85053870D01*
X146998844Y-85018594D01*
X146975004Y-85138447D01*
X146975004Y-85261561D01*
X146999022Y-85382309D01*
X147046136Y-85496052D01*
X147114535Y-85598418D01*
X147201589Y-85685472D01*
X147303955Y-85753871D01*
X147417698Y-85800985D01*
X147538446Y-85825003D01*
X147661560Y-85825003D01*
X147782308Y-85800985D01*
X147896051Y-85753871D01*
X147998417Y-85685472D01*
X148085471Y-85598418D01*
X148153870Y-85496052D01*
X148200984Y-85382309D01*
X148225002Y-85261561D01*
X148225002Y-85138447D01*
X148201162Y-85018595D01*
X148253955Y-85053870D01*
X148367698Y-85100984D01*
X148488446Y-85125002D01*
X148611560Y-85125002D01*
X148732308Y-85100984D01*
X148846051Y-85053870D01*
X148948417Y-84985471D01*
X149035471Y-84898417D01*
X149085416Y-84823669D01*
X149475000Y-84823669D01*
X149475000Y-84976331D01*
X149504783Y-85126059D01*
X149563204Y-85267100D01*
X149648018Y-85394034D01*
X149755966Y-85501982D01*
X149882900Y-85586796D01*
X150023941Y-85645217D01*
X150173669Y-85675000D01*
X150326331Y-85675000D01*
X150476059Y-85645217D01*
X150617100Y-85586796D01*
X150744034Y-85501982D01*
X150851982Y-85394034D01*
X150936796Y-85267100D01*
X150995217Y-85126059D01*
X151025000Y-84976331D01*
X151025000Y-84823669D01*
X150995217Y-84673941D01*
X150936796Y-84532900D01*
X150851982Y-84405966D01*
X150744034Y-84298018D01*
X150617100Y-84213204D01*
X150476059Y-84154783D01*
X150326331Y-84125000D01*
X150173669Y-84125000D01*
X150023941Y-84154783D01*
X149882900Y-84213204D01*
X149755966Y-84298018D01*
X149648018Y-84405966D01*
X149563204Y-84532900D01*
X149504783Y-84673941D01*
X149475000Y-84823669D01*
X149085416Y-84823669D01*
X149103870Y-84796051D01*
X149150984Y-84682308D01*
X149175002Y-84561560D01*
X149175002Y-84438446D01*
X149150984Y-84317698D01*
X149103870Y-84203955D01*
X149035471Y-84101589D01*
X148948417Y-84014535D01*
X148846051Y-83946136D01*
X148732308Y-83899022D01*
X148611560Y-83875004D01*
X148488446Y-83875004D01*
X148367698Y-83899022D01*
X148253955Y-83946136D01*
X148201162Y-83981411D01*
X148225002Y-83861558D01*
X148225002Y-83738444D01*
X148200984Y-83617696D01*
X148153870Y-83503953D01*
X148085471Y-83401587D01*
X147998417Y-83314533D01*
X147896051Y-83246134D01*
X147782308Y-83199020D01*
X147661560Y-83175002D01*
X147538446Y-83175002D01*
X147417698Y-83199020D01*
X147303955Y-83246134D01*
X147201589Y-83314533D01*
X147114535Y-83401587D01*
X147046136Y-83503953D01*
X146999022Y-83617696D01*
X146975004Y-83738444D01*
X146975004Y-83861558D01*
X146998844Y-83981412D01*
X146946050Y-83946136D01*
X146832307Y-83899022D01*
X146711559Y-83875004D01*
X146588445Y-83875004D01*
X146467697Y-83899022D01*
X146353954Y-83946136D01*
X146251588Y-84014535D01*
X146164534Y-84101589D01*
X146096135Y-84203955D01*
X146049021Y-84317698D01*
X146025003Y-84438446D01*
X142742405Y-84438446D01*
X142867100Y-84386796D01*
X142994034Y-84301982D01*
X143101982Y-84194034D01*
X143186796Y-84067100D01*
X143245217Y-83926059D01*
X143275000Y-83776331D01*
X143275000Y-83623669D01*
X143245217Y-83473941D01*
X143186796Y-83332900D01*
X143101982Y-83205966D01*
X142994034Y-83098018D01*
X142867100Y-83013204D01*
X142726059Y-82954783D01*
X142576331Y-82925000D01*
X142423669Y-82925000D01*
X142273941Y-82954783D01*
X142132900Y-83013204D01*
X142005966Y-83098018D01*
X141898018Y-83205966D01*
X141813204Y-83332900D01*
X141754783Y-83473941D01*
X141725000Y-83623669D01*
X134175000Y-83623669D01*
X134175000Y-83573669D01*
X134145217Y-83423941D01*
X134086796Y-83282900D01*
X134001982Y-83155966D01*
X133894034Y-83048018D01*
X133767100Y-82963204D01*
X133671662Y-82923672D01*
X153525000Y-82923672D01*
X153525000Y-83076334D01*
X153554783Y-83226062D01*
X153613204Y-83367103D01*
X153698018Y-83494037D01*
X153805966Y-83601985D01*
X153932900Y-83686799D01*
X154073941Y-83745220D01*
X154223669Y-83775003D01*
X154376331Y-83775003D01*
X154526059Y-83745220D01*
X154667100Y-83686799D01*
X154794034Y-83601985D01*
X154847350Y-83548669D01*
X164750640Y-83548669D01*
X164750640Y-83701331D01*
X164780423Y-83851059D01*
X164838844Y-83992100D01*
X164923658Y-84119034D01*
X165031606Y-84226982D01*
X165158540Y-84311796D01*
X165299581Y-84370217D01*
X165449309Y-84400000D01*
X165601971Y-84400000D01*
X165751699Y-84370217D01*
X165892740Y-84311796D01*
X166019674Y-84226982D01*
X166127622Y-84119034D01*
X166212436Y-83992100D01*
X166270857Y-83851059D01*
X166300640Y-83701331D01*
X166300640Y-83548669D01*
X166270857Y-83398941D01*
X166212436Y-83257900D01*
X166127622Y-83130966D01*
X166019674Y-83023018D01*
X165892740Y-82938204D01*
X165751699Y-82879783D01*
X165601971Y-82850000D01*
X165449309Y-82850000D01*
X165299581Y-82879783D01*
X165158540Y-82938204D01*
X165031606Y-83023018D01*
X164923658Y-83130966D01*
X164838844Y-83257900D01*
X164780423Y-83398941D01*
X164750640Y-83548669D01*
X154847350Y-83548669D01*
X154901982Y-83494037D01*
X154986796Y-83367103D01*
X155045217Y-83226062D01*
X155075000Y-83076334D01*
X155075000Y-82923672D01*
X155045217Y-82773944D01*
X154986796Y-82632903D01*
X154901982Y-82505969D01*
X154794034Y-82398021D01*
X154667100Y-82313207D01*
X154526059Y-82254786D01*
X154376331Y-82225003D01*
X154223669Y-82225003D01*
X154073941Y-82254786D01*
X153932900Y-82313207D01*
X153805966Y-82398021D01*
X153698018Y-82505969D01*
X153613204Y-82632903D01*
X153554783Y-82773944D01*
X153525000Y-82923672D01*
X133671662Y-82923672D01*
X133626059Y-82904783D01*
X133476331Y-82875000D01*
X133323669Y-82875000D01*
X133173941Y-82904783D01*
X133032900Y-82963204D01*
X132905966Y-83048018D01*
X132798018Y-83155966D01*
X132713204Y-83282900D01*
X132654783Y-83423941D01*
X132625000Y-83573669D01*
X129025000Y-83573669D01*
X129025000Y-82859585D01*
X129048018Y-82894034D01*
X129155966Y-83001982D01*
X129282900Y-83086796D01*
X129423941Y-83145217D01*
X129573669Y-83175000D01*
X129726331Y-83175000D01*
X129876059Y-83145217D01*
X130017100Y-83086796D01*
X130144034Y-83001982D01*
X130251982Y-82894034D01*
X130336796Y-82767100D01*
X130395217Y-82626059D01*
X130425000Y-82476331D01*
X130425000Y-82323669D01*
X130395217Y-82173941D01*
X130336796Y-82032900D01*
X130251982Y-81905966D01*
X130169675Y-81823659D01*
X144525000Y-81823659D01*
X144525000Y-81976321D01*
X144554783Y-82126049D01*
X144613204Y-82267090D01*
X144698018Y-82394024D01*
X144805966Y-82501972D01*
X144932900Y-82586786D01*
X145073941Y-82645207D01*
X145223669Y-82674990D01*
X145376331Y-82674990D01*
X145526059Y-82645207D01*
X145667100Y-82586786D01*
X145794034Y-82501972D01*
X145817277Y-82478729D01*
X145835909Y-82497361D01*
X145962843Y-82582175D01*
X146103884Y-82640596D01*
X146253612Y-82670379D01*
X146406274Y-82670379D01*
X146556002Y-82640596D01*
X146697043Y-82582175D01*
X146823977Y-82497361D01*
X146931925Y-82389413D01*
X147016739Y-82262479D01*
X147075160Y-82121438D01*
X147104943Y-81971710D01*
X147104943Y-81819048D01*
X147075160Y-81669320D01*
X147016739Y-81528279D01*
X146931925Y-81401345D01*
X146823977Y-81293397D01*
X146741500Y-81238288D01*
X148954196Y-81238288D01*
X148954196Y-81390950D01*
X148983979Y-81540678D01*
X149042400Y-81681719D01*
X149127214Y-81808653D01*
X149235162Y-81916601D01*
X149362096Y-82001415D01*
X149503137Y-82059836D01*
X149652865Y-82089619D01*
X149805527Y-82089619D01*
X149955255Y-82059836D01*
X150096296Y-82001415D01*
X150223230Y-81916601D01*
X150331178Y-81808653D01*
X150415992Y-81681719D01*
X150440037Y-81623669D01*
X157125000Y-81623669D01*
X157125000Y-81776331D01*
X157154783Y-81926059D01*
X157213204Y-82067100D01*
X157298018Y-82194034D01*
X157405966Y-82301982D01*
X157532900Y-82386796D01*
X157673941Y-82445217D01*
X157823669Y-82475000D01*
X157976331Y-82475000D01*
X158126059Y-82445217D01*
X158267100Y-82386796D01*
X158394034Y-82301982D01*
X158501982Y-82194034D01*
X158586796Y-82067100D01*
X158645217Y-81926059D01*
X158675000Y-81776331D01*
X158675000Y-81623669D01*
X159925000Y-81623669D01*
X159925000Y-81776331D01*
X159954783Y-81926059D01*
X160013204Y-82067100D01*
X160098018Y-82194034D01*
X160205966Y-82301982D01*
X160332900Y-82386796D01*
X160473941Y-82445217D01*
X160623669Y-82475000D01*
X160776331Y-82475000D01*
X160926059Y-82445217D01*
X161067100Y-82386796D01*
X161194034Y-82301982D01*
X161301982Y-82194034D01*
X161386796Y-82067100D01*
X161445217Y-81926059D01*
X161475000Y-81776331D01*
X161475000Y-81623669D01*
X161445217Y-81473941D01*
X161386796Y-81332900D01*
X161301982Y-81205966D01*
X161195937Y-81099921D01*
X164043359Y-81099921D01*
X164043359Y-81252583D01*
X164073142Y-81402311D01*
X164131563Y-81543352D01*
X164216377Y-81670286D01*
X164324325Y-81778234D01*
X164451259Y-81863048D01*
X164592300Y-81921469D01*
X164742028Y-81951252D01*
X164894690Y-81951252D01*
X165044418Y-81921469D01*
X165185459Y-81863048D01*
X165312393Y-81778234D01*
X165420341Y-81670286D01*
X165505155Y-81543352D01*
X165563576Y-81402311D01*
X165593359Y-81252583D01*
X165593359Y-81099921D01*
X165563576Y-80950193D01*
X165505155Y-80809152D01*
X165420341Y-80682218D01*
X165312393Y-80574270D01*
X165185459Y-80489456D01*
X165044418Y-80431035D01*
X164894690Y-80401252D01*
X164742028Y-80401252D01*
X164592300Y-80431035D01*
X164451259Y-80489456D01*
X164324325Y-80574270D01*
X164216377Y-80682218D01*
X164131563Y-80809152D01*
X164073142Y-80950193D01*
X164043359Y-81099921D01*
X161195937Y-81099921D01*
X161194034Y-81098018D01*
X161067100Y-81013204D01*
X160926059Y-80954783D01*
X160776331Y-80925000D01*
X160623669Y-80925000D01*
X160473941Y-80954783D01*
X160332900Y-81013204D01*
X160205966Y-81098018D01*
X160098018Y-81205966D01*
X160013204Y-81332900D01*
X159954783Y-81473941D01*
X159925000Y-81623669D01*
X158675000Y-81623669D01*
X158645217Y-81473941D01*
X158586796Y-81332900D01*
X158501982Y-81205966D01*
X158394034Y-81098018D01*
X158267100Y-81013204D01*
X158126059Y-80954783D01*
X157976331Y-80925000D01*
X157823669Y-80925000D01*
X157673941Y-80954783D01*
X157532900Y-81013204D01*
X157405966Y-81098018D01*
X157298018Y-81205966D01*
X157213204Y-81332900D01*
X157154783Y-81473941D01*
X157125000Y-81623669D01*
X150440037Y-81623669D01*
X150474413Y-81540678D01*
X150504196Y-81390950D01*
X150504196Y-81238288D01*
X150474413Y-81088560D01*
X150415992Y-80947519D01*
X150331178Y-80820585D01*
X150223230Y-80712637D01*
X150096296Y-80627823D01*
X149955255Y-80569402D01*
X149805527Y-80539619D01*
X149652865Y-80539619D01*
X149503137Y-80569402D01*
X149362096Y-80627823D01*
X149235162Y-80712637D01*
X149127214Y-80820585D01*
X149042400Y-80947519D01*
X148983979Y-81088560D01*
X148954196Y-81238288D01*
X146741500Y-81238288D01*
X146697043Y-81208583D01*
X146556002Y-81150162D01*
X146406274Y-81120379D01*
X146253612Y-81120379D01*
X146103884Y-81150162D01*
X145962843Y-81208583D01*
X145835909Y-81293397D01*
X145812666Y-81316640D01*
X145794034Y-81298008D01*
X145667100Y-81213194D01*
X145526059Y-81154773D01*
X145376331Y-81124990D01*
X145223669Y-81124990D01*
X145073941Y-81154773D01*
X144932900Y-81213194D01*
X144805966Y-81298008D01*
X144698018Y-81405956D01*
X144613204Y-81532890D01*
X144554783Y-81673931D01*
X144525000Y-81823659D01*
X130169675Y-81823659D01*
X130144034Y-81798018D01*
X130017100Y-81713204D01*
X129876059Y-81654783D01*
X129726331Y-81625000D01*
X129573669Y-81625000D01*
X129423941Y-81654783D01*
X129282900Y-81713204D01*
X129155966Y-81798018D01*
X129048018Y-81905966D01*
X129025000Y-81940415D01*
X129025000Y-79673669D01*
X143375000Y-79673669D01*
X143375000Y-79826331D01*
X143404783Y-79976059D01*
X143463204Y-80117100D01*
X143548018Y-80244034D01*
X143655966Y-80351982D01*
X143782900Y-80436796D01*
X143923941Y-80495217D01*
X144073669Y-80525000D01*
X144226331Y-80525000D01*
X144376059Y-80495217D01*
X144517100Y-80436796D01*
X144644034Y-80351982D01*
X144751982Y-80244034D01*
X144836796Y-80117100D01*
X144895217Y-79976059D01*
X144925000Y-79826331D01*
X144925000Y-79673669D01*
X144895217Y-79523941D01*
X144895105Y-79523669D01*
X162125000Y-79523669D01*
X162125000Y-79676331D01*
X162154783Y-79826059D01*
X162213204Y-79967100D01*
X162298018Y-80094034D01*
X162405966Y-80201982D01*
X162532900Y-80286796D01*
X162673941Y-80345217D01*
X162823669Y-80375000D01*
X162976331Y-80375000D01*
X163126059Y-80345217D01*
X163267100Y-80286796D01*
X163394034Y-80201982D01*
X163501982Y-80094034D01*
X163586796Y-79967100D01*
X163645217Y-79826059D01*
X163675000Y-79676331D01*
X163675000Y-79523669D01*
X163645217Y-79373941D01*
X163586796Y-79232900D01*
X163501982Y-79105966D01*
X163394034Y-78998018D01*
X163267100Y-78913204D01*
X163126059Y-78854783D01*
X162976331Y-78825000D01*
X162823669Y-78825000D01*
X162673941Y-78854783D01*
X162532900Y-78913204D01*
X162405966Y-78998018D01*
X162298018Y-79105966D01*
X162213204Y-79232900D01*
X162154783Y-79373941D01*
X162125000Y-79523669D01*
X144895105Y-79523669D01*
X144836796Y-79382900D01*
X144751982Y-79255966D01*
X144644034Y-79148018D01*
X144517100Y-79063204D01*
X144376059Y-79004783D01*
X144226331Y-78975000D01*
X144073669Y-78975000D01*
X143923941Y-79004783D01*
X143782900Y-79063204D01*
X143655966Y-79148018D01*
X143548018Y-79255966D01*
X143463204Y-79382900D01*
X143404783Y-79523941D01*
X143375000Y-79673669D01*
X129025000Y-79673669D01*
X129025000Y-77673669D01*
X129825000Y-77673669D01*
X129825000Y-77826331D01*
X129854783Y-77976059D01*
X129913204Y-78117100D01*
X129998018Y-78244034D01*
X130105966Y-78351982D01*
X130232900Y-78436796D01*
X130373941Y-78495217D01*
X130523669Y-78525000D01*
X130676331Y-78525000D01*
X130826059Y-78495217D01*
X130967100Y-78436796D01*
X131094034Y-78351982D01*
X131201982Y-78244034D01*
X131215589Y-78223669D01*
X150725000Y-78223669D01*
X150725000Y-78376331D01*
X150754783Y-78526059D01*
X150813204Y-78667100D01*
X150898018Y-78794034D01*
X151005966Y-78901982D01*
X151132900Y-78986796D01*
X151273941Y-79045217D01*
X151423669Y-79075000D01*
X151576331Y-79075000D01*
X151726059Y-79045217D01*
X151867100Y-78986796D01*
X151994034Y-78901982D01*
X152101982Y-78794034D01*
X152186796Y-78667100D01*
X152245217Y-78526059D01*
X152275000Y-78376331D01*
X152275000Y-78223669D01*
X152245217Y-78073941D01*
X152186796Y-77932900D01*
X152101982Y-77805966D01*
X151994034Y-77698018D01*
X151867100Y-77613204D01*
X151726059Y-77554783D01*
X151576331Y-77525000D01*
X151423669Y-77525000D01*
X151273941Y-77554783D01*
X151132900Y-77613204D01*
X151005966Y-77698018D01*
X150898018Y-77805966D01*
X150813204Y-77932900D01*
X150754783Y-78073941D01*
X150725000Y-78223669D01*
X131215589Y-78223669D01*
X131286796Y-78117100D01*
X131345217Y-77976059D01*
X131375000Y-77826331D01*
X131375000Y-77673669D01*
X131345217Y-77523941D01*
X131286796Y-77382900D01*
X131201982Y-77255966D01*
X131094034Y-77148018D01*
X130967100Y-77063204D01*
X130826059Y-77004783D01*
X130676331Y-76975000D01*
X130523669Y-76975000D01*
X130373941Y-77004783D01*
X130232900Y-77063204D01*
X130105966Y-77148018D01*
X129998018Y-77255966D01*
X129913204Y-77382900D01*
X129854783Y-77523941D01*
X129825000Y-77673669D01*
X129025000Y-77673669D01*
X129025000Y-76737166D01*
X144597521Y-76737166D01*
X144597521Y-76889828D01*
X144627304Y-77039556D01*
X144685725Y-77180597D01*
X144770539Y-77307531D01*
X144878487Y-77415479D01*
X145005421Y-77500293D01*
X145146462Y-77558714D01*
X145296190Y-77588497D01*
X145448852Y-77588497D01*
X145452154Y-77587840D01*
X145454783Y-77601056D01*
X145513204Y-77742097D01*
X145598018Y-77869031D01*
X145705966Y-77976979D01*
X145832900Y-78061793D01*
X145973941Y-78120214D01*
X146123669Y-78149997D01*
X146276331Y-78149997D01*
X146426059Y-78120214D01*
X146567100Y-78061793D01*
X146694034Y-77976979D01*
X146801982Y-77869031D01*
X146886796Y-77742097D01*
X146945217Y-77601056D01*
X146975000Y-77451328D01*
X146975000Y-77298666D01*
X146945217Y-77148938D01*
X146886796Y-77007897D01*
X146801982Y-76880963D01*
X146694034Y-76773015D01*
X146567100Y-76688201D01*
X146426059Y-76629780D01*
X146276331Y-76599997D01*
X146123669Y-76599997D01*
X146120367Y-76600654D01*
X146117738Y-76587438D01*
X146059317Y-76446397D01*
X145987183Y-76338440D01*
X148625002Y-76338440D01*
X148625002Y-76461554D01*
X148649020Y-76582302D01*
X148696134Y-76696045D01*
X148764533Y-76798411D01*
X148851587Y-76885465D01*
X148953953Y-76953864D01*
X149067696Y-77000978D01*
X149188444Y-77024996D01*
X149311558Y-77024996D01*
X149431412Y-77001156D01*
X149396136Y-77053950D01*
X149349022Y-77167693D01*
X149325004Y-77288441D01*
X149325004Y-77411555D01*
X149349022Y-77532303D01*
X149396136Y-77646046D01*
X149464535Y-77748412D01*
X149551589Y-77835466D01*
X149653955Y-77903865D01*
X149767698Y-77950979D01*
X149888446Y-77974997D01*
X150011560Y-77974997D01*
X150132308Y-77950979D01*
X150246051Y-77903865D01*
X150348417Y-77835466D01*
X150435471Y-77748412D01*
X150503870Y-77646046D01*
X150550984Y-77532303D01*
X150575002Y-77411555D01*
X150575002Y-77288441D01*
X150550984Y-77167693D01*
X150518551Y-77089392D01*
X154487173Y-77089392D01*
X154487173Y-77242054D01*
X154516956Y-77391782D01*
X154575377Y-77532823D01*
X154660191Y-77659757D01*
X154761321Y-77760887D01*
X154713204Y-77832900D01*
X154654783Y-77973941D01*
X154625000Y-78123669D01*
X154625000Y-78276331D01*
X154654783Y-78426059D01*
X154713204Y-78567100D01*
X154798018Y-78694034D01*
X154905966Y-78801982D01*
X155032900Y-78886796D01*
X155173941Y-78945217D01*
X155323669Y-78975000D01*
X155476331Y-78975000D01*
X155626059Y-78945217D01*
X155767100Y-78886796D01*
X155894034Y-78801982D01*
X155919497Y-78776519D01*
X155998018Y-78894034D01*
X156105966Y-79001982D01*
X156232900Y-79086796D01*
X156373941Y-79145217D01*
X156523669Y-79175000D01*
X156676331Y-79175000D01*
X156826059Y-79145217D01*
X156967100Y-79086796D01*
X157094034Y-79001982D01*
X157201982Y-78894034D01*
X157286796Y-78767100D01*
X157345217Y-78626059D01*
X157375000Y-78476331D01*
X157375000Y-78323669D01*
X157345217Y-78173941D01*
X157286796Y-78032900D01*
X157201982Y-77905966D01*
X157094034Y-77798018D01*
X156967100Y-77713204D01*
X156826059Y-77654783D01*
X156676331Y-77625000D01*
X156523669Y-77625000D01*
X156373941Y-77654783D01*
X156232900Y-77713204D01*
X156105966Y-77798018D01*
X156080503Y-77823481D01*
X156001982Y-77705966D01*
X155900852Y-77604836D01*
X155948969Y-77532823D01*
X156007390Y-77391782D01*
X156037173Y-77242054D01*
X156037173Y-77089392D01*
X156007390Y-76939664D01*
X155948969Y-76798623D01*
X155864155Y-76671689D01*
X155756207Y-76563741D01*
X155629273Y-76478927D01*
X155488232Y-76420506D01*
X155338504Y-76390723D01*
X155185842Y-76390723D01*
X155036114Y-76420506D01*
X154895073Y-76478927D01*
X154768139Y-76563741D01*
X154660191Y-76671689D01*
X154575377Y-76798623D01*
X154516956Y-76939664D01*
X154487173Y-77089392D01*
X150518551Y-77089392D01*
X150503870Y-77053950D01*
X150468594Y-77001156D01*
X150588447Y-77024996D01*
X150711561Y-77024996D01*
X150832309Y-77000978D01*
X150946052Y-76953864D01*
X151048418Y-76885465D01*
X151135472Y-76798411D01*
X151203871Y-76696045D01*
X151250985Y-76582302D01*
X151275003Y-76461554D01*
X151275003Y-76338440D01*
X151250985Y-76217692D01*
X151203871Y-76103949D01*
X151135472Y-76001583D01*
X151048418Y-75914529D01*
X150946052Y-75846130D01*
X150832309Y-75799016D01*
X150711561Y-75774998D01*
X150588447Y-75774998D01*
X150468595Y-75798838D01*
X150503870Y-75746045D01*
X150550984Y-75632302D01*
X150575002Y-75511554D01*
X150575002Y-75388440D01*
X150550984Y-75267692D01*
X150503870Y-75153949D01*
X150435471Y-75051583D01*
X150348417Y-74964529D01*
X150246051Y-74896130D01*
X150132308Y-74849016D01*
X150011560Y-74824998D01*
X149888446Y-74824998D01*
X149767698Y-74849016D01*
X149653955Y-74896130D01*
X149551589Y-74964529D01*
X149464535Y-75051583D01*
X149396136Y-75153949D01*
X149349022Y-75267692D01*
X149325004Y-75388440D01*
X149325004Y-75511554D01*
X149349022Y-75632302D01*
X149396136Y-75746045D01*
X149431411Y-75798838D01*
X149311558Y-75774998D01*
X149188444Y-75774998D01*
X149067696Y-75799016D01*
X148953953Y-75846130D01*
X148851587Y-75914529D01*
X148764533Y-76001583D01*
X148696134Y-76103949D01*
X148649020Y-76217692D01*
X148625002Y-76338440D01*
X145987183Y-76338440D01*
X145974503Y-76319463D01*
X145866555Y-76211515D01*
X145739621Y-76126701D01*
X145598580Y-76068280D01*
X145448852Y-76038497D01*
X145296190Y-76038497D01*
X145146462Y-76068280D01*
X145005421Y-76126701D01*
X144878487Y-76211515D01*
X144770539Y-76319463D01*
X144685725Y-76446397D01*
X144627304Y-76587438D01*
X144597521Y-76737166D01*
X129025000Y-76737166D01*
X129025000Y-75073669D01*
X145624999Y-75073669D01*
X145624999Y-75226331D01*
X145654782Y-75376059D01*
X145713203Y-75517100D01*
X145798017Y-75644034D01*
X145905965Y-75751982D01*
X146032899Y-75836796D01*
X146173940Y-75895217D01*
X146323668Y-75925000D01*
X146476330Y-75925000D01*
X146626058Y-75895217D01*
X146767099Y-75836796D01*
X146894033Y-75751982D01*
X147001981Y-75644034D01*
X147086795Y-75517100D01*
X147145216Y-75376059D01*
X147174999Y-75226331D01*
X147174999Y-75073669D01*
X147145216Y-74923941D01*
X147086795Y-74782900D01*
X147001981Y-74655966D01*
X146894033Y-74548018D01*
X146767099Y-74463204D01*
X146626058Y-74404783D01*
X146476330Y-74375000D01*
X146323668Y-74375000D01*
X146173940Y-74404783D01*
X146032899Y-74463204D01*
X145905965Y-74548018D01*
X145798017Y-74655966D01*
X145713203Y-74782900D01*
X145654782Y-74923941D01*
X145624999Y-75073669D01*
X129025000Y-75073669D01*
X129025000Y-74273669D01*
X150575000Y-74273669D01*
X150575000Y-74426331D01*
X150604783Y-74576059D01*
X150663204Y-74717100D01*
X150748018Y-74844034D01*
X150855966Y-74951982D01*
X150982900Y-75036796D01*
X151123941Y-75095217D01*
X151273669Y-75125000D01*
X151426331Y-75125000D01*
X151576059Y-75095217D01*
X151717100Y-75036796D01*
X151844034Y-74951982D01*
X151951982Y-74844034D01*
X152036796Y-74717100D01*
X152095217Y-74576059D01*
X152125000Y-74426331D01*
X152125000Y-74273669D01*
X152095217Y-74123941D01*
X152036796Y-73982900D01*
X151951982Y-73855966D01*
X151844034Y-73748018D01*
X151717100Y-73663204D01*
X151576059Y-73604783D01*
X151426331Y-73575000D01*
X151273669Y-73575000D01*
X151123941Y-73604783D01*
X150982900Y-73663204D01*
X150855966Y-73748018D01*
X150748018Y-73855966D01*
X150663204Y-73982900D01*
X150604783Y-74123941D01*
X150575000Y-74273669D01*
X129025000Y-74273669D01*
X129025000Y-72973669D01*
X132025000Y-72973669D01*
X132025000Y-73126331D01*
X132054783Y-73276059D01*
X132113204Y-73417100D01*
X132198018Y-73544034D01*
X132305966Y-73651982D01*
X132432900Y-73736796D01*
X132573941Y-73795217D01*
X132723669Y-73825000D01*
X132876331Y-73825000D01*
X133026059Y-73795217D01*
X133167100Y-73736796D01*
X133294034Y-73651982D01*
X133401982Y-73544034D01*
X133486796Y-73417100D01*
X133545217Y-73276059D01*
X133575000Y-73126331D01*
X133575000Y-73023669D01*
X135425000Y-73023669D01*
X135425000Y-73176331D01*
X135454783Y-73326059D01*
X135513204Y-73467100D01*
X135598018Y-73594034D01*
X135705966Y-73701982D01*
X135832900Y-73786796D01*
X135973941Y-73845217D01*
X136123669Y-73875000D01*
X136276331Y-73875000D01*
X136426059Y-73845217D01*
X136567100Y-73786796D01*
X136694034Y-73701982D01*
X136801982Y-73594034D01*
X136886796Y-73467100D01*
X136945217Y-73326059D01*
X136975000Y-73176331D01*
X136975000Y-73023669D01*
X138825000Y-73023669D01*
X138825000Y-73176331D01*
X138854783Y-73326059D01*
X138913204Y-73467100D01*
X138998018Y-73594034D01*
X139105966Y-73701982D01*
X139232900Y-73786796D01*
X139373941Y-73845217D01*
X139523669Y-73875000D01*
X139676331Y-73875000D01*
X139826059Y-73845217D01*
X139967100Y-73786796D01*
X140094034Y-73701982D01*
X140201982Y-73594034D01*
X140286796Y-73467100D01*
X140345217Y-73326059D01*
X140375000Y-73176331D01*
X140375000Y-73023669D01*
X140345217Y-72873941D01*
X140286796Y-72732900D01*
X140201982Y-72605966D01*
X140094034Y-72498018D01*
X139967100Y-72413204D01*
X139826059Y-72354783D01*
X139676331Y-72325000D01*
X139523669Y-72325000D01*
X139373941Y-72354783D01*
X139232900Y-72413204D01*
X139105966Y-72498018D01*
X138998018Y-72605966D01*
X138913204Y-72732900D01*
X138854783Y-72873941D01*
X138825000Y-73023669D01*
X136975000Y-73023669D01*
X136945217Y-72873941D01*
X136886796Y-72732900D01*
X136801982Y-72605966D01*
X136694034Y-72498018D01*
X136567100Y-72413204D01*
X136426059Y-72354783D01*
X136276331Y-72325000D01*
X136123669Y-72325000D01*
X135973941Y-72354783D01*
X135832900Y-72413204D01*
X135705966Y-72498018D01*
X135598018Y-72605966D01*
X135513204Y-72732900D01*
X135454783Y-72873941D01*
X135425000Y-73023669D01*
X133575000Y-73023669D01*
X133575000Y-72973669D01*
X133545217Y-72823941D01*
X133486796Y-72682900D01*
X133401982Y-72555966D01*
X133294034Y-72448018D01*
X133167100Y-72363204D01*
X133026059Y-72304783D01*
X132876331Y-72275000D01*
X132723669Y-72275000D01*
X132573941Y-72304783D01*
X132432900Y-72363204D01*
X132305966Y-72448018D01*
X132198018Y-72555966D01*
X132113204Y-72682900D01*
X132054783Y-72823941D01*
X132025000Y-72973669D01*
X129025000Y-72973669D01*
X129025000Y-71850000D01*
X155973186Y-71850000D01*
X155973186Y-73550000D01*
X155980426Y-73623513D01*
X156001869Y-73694200D01*
X156036691Y-73759347D01*
X156083552Y-73816448D01*
X156140653Y-73863309D01*
X156205800Y-73898131D01*
X156276487Y-73919574D01*
X156350000Y-73926814D01*
X158050000Y-73926814D01*
X158123513Y-73919574D01*
X158194200Y-73898131D01*
X158259347Y-73863309D01*
X158316448Y-73816448D01*
X158363309Y-73759347D01*
X158398131Y-73694200D01*
X158419574Y-73623513D01*
X158426814Y-73550000D01*
X158426814Y-72579348D01*
X158515000Y-72579348D01*
X158515000Y-72820652D01*
X158562076Y-73057319D01*
X158654419Y-73280255D01*
X158788481Y-73480892D01*
X158959108Y-73651519D01*
X159159745Y-73785581D01*
X159382681Y-73877924D01*
X159619348Y-73925000D01*
X159860652Y-73925000D01*
X160097319Y-73877924D01*
X160320255Y-73785581D01*
X160520892Y-73651519D01*
X160691519Y-73480892D01*
X160825581Y-73280255D01*
X160917924Y-73057319D01*
X160965000Y-72820652D01*
X160965000Y-72579348D01*
X161055000Y-72579348D01*
X161055000Y-72820652D01*
X161102076Y-73057319D01*
X161194419Y-73280255D01*
X161328481Y-73480892D01*
X161499108Y-73651519D01*
X161699745Y-73785581D01*
X161922681Y-73877924D01*
X162159348Y-73925000D01*
X162400652Y-73925000D01*
X162637319Y-73877924D01*
X162860255Y-73785581D01*
X163060892Y-73651519D01*
X163231519Y-73480892D01*
X163365581Y-73280255D01*
X163457924Y-73057319D01*
X163505000Y-72820652D01*
X163505000Y-72579348D01*
X163595000Y-72579348D01*
X163595000Y-72820652D01*
X163642076Y-73057319D01*
X163734419Y-73280255D01*
X163868481Y-73480892D01*
X164039108Y-73651519D01*
X164239745Y-73785581D01*
X164462681Y-73877924D01*
X164699348Y-73925000D01*
X164940652Y-73925000D01*
X165177319Y-73877924D01*
X165400255Y-73785581D01*
X165600892Y-73651519D01*
X165771519Y-73480892D01*
X165905581Y-73280255D01*
X165997924Y-73057319D01*
X166045000Y-72820652D01*
X166045000Y-72579348D01*
X165997924Y-72342681D01*
X165905581Y-72119745D01*
X165771519Y-71919108D01*
X165600892Y-71748481D01*
X165400255Y-71614419D01*
X165177319Y-71522076D01*
X164940652Y-71475000D01*
X164699348Y-71475000D01*
X164462681Y-71522076D01*
X164239745Y-71614419D01*
X164039108Y-71748481D01*
X163868481Y-71919108D01*
X163734419Y-72119745D01*
X163642076Y-72342681D01*
X163595000Y-72579348D01*
X163505000Y-72579348D01*
X163457924Y-72342681D01*
X163365581Y-72119745D01*
X163231519Y-71919108D01*
X163060892Y-71748481D01*
X162860255Y-71614419D01*
X162637319Y-71522076D01*
X162400652Y-71475000D01*
X162159348Y-71475000D01*
X161922681Y-71522076D01*
X161699745Y-71614419D01*
X161499108Y-71748481D01*
X161328481Y-71919108D01*
X161194419Y-72119745D01*
X161102076Y-72342681D01*
X161055000Y-72579348D01*
X160965000Y-72579348D01*
X160917924Y-72342681D01*
X160825581Y-72119745D01*
X160691519Y-71919108D01*
X160520892Y-71748481D01*
X160320255Y-71614419D01*
X160097319Y-71522076D01*
X159860652Y-71475000D01*
X159619348Y-71475000D01*
X159382681Y-71522076D01*
X159159745Y-71614419D01*
X158959108Y-71748481D01*
X158788481Y-71919108D01*
X158654419Y-72119745D01*
X158562076Y-72342681D01*
X158515000Y-72579348D01*
X158426814Y-72579348D01*
X158426814Y-71850000D01*
X158419574Y-71776487D01*
X158398131Y-71705800D01*
X158363309Y-71640653D01*
X158316448Y-71583552D01*
X158259347Y-71536691D01*
X158194200Y-71501869D01*
X158123513Y-71480426D01*
X158050000Y-71473186D01*
X156350000Y-71473186D01*
X156276487Y-71480426D01*
X156205800Y-71501869D01*
X156140653Y-71536691D01*
X156083552Y-71583552D01*
X156036691Y-71640653D01*
X156001869Y-71705800D01*
X155980426Y-71776487D01*
X155973186Y-71850000D01*
X129025000Y-71850000D01*
X129025000Y-70600000D01*
X169125000Y-70600000D01*
X169125000Y-80625133D01*
G37*
%TD.AperFunction*%
%TD*%
D17*
%TO.N,MTR_C*%
X117575000Y-81475000D02*
X117025000Y-81475000D01*
X117025000Y-76500000D01*
X117022598Y-76475614D01*
X117015485Y-76452165D01*
X117003934Y-76430554D01*
X116988388Y-76411612D01*
X116969446Y-76396066D01*
X116947835Y-76384515D01*
X116924386Y-76377402D01*
X116900000Y-76375000D01*
X110525000Y-76375000D01*
X110525000Y-71125000D01*
X117575000Y-71125000D01*
X117575000Y-81475000D01*
%TA.AperFunction,Conductor*%
D18*
G36*
X117575000Y-81475000D02*
G01*
X117025000Y-81475000D01*
X117025000Y-76500000D01*
X117022598Y-76475614D01*
X117015485Y-76452165D01*
X117003934Y-76430554D01*
X116988388Y-76411612D01*
X116969446Y-76396066D01*
X116947835Y-76384515D01*
X116924386Y-76377402D01*
X116900000Y-76375000D01*
X110525000Y-76375000D01*
X110525000Y-71125000D01*
X117575000Y-71125000D01*
X117575000Y-81475000D01*
G37*
%TD.AperFunction*%
%TD*%
D17*
%TO.N,MTR_B*%
X117525000Y-90200000D02*
X117527402Y-90224386D01*
X117534515Y-90247835D01*
X117546066Y-90269446D01*
X117561612Y-90288388D01*
X117580554Y-90303934D01*
X117602165Y-90315485D01*
X117625000Y-90322412D01*
X117625000Y-93525000D01*
X116975000Y-93525000D01*
X116975000Y-88550000D01*
X116972598Y-88525614D01*
X116965485Y-88502165D01*
X116953934Y-88480554D01*
X116938388Y-88461612D01*
X116919446Y-88446066D01*
X116897835Y-88434515D01*
X116874386Y-88427402D01*
X116850000Y-88425000D01*
X110525000Y-88425000D01*
X110525000Y-83175000D01*
X117525000Y-83175000D01*
X117525000Y-90200000D01*
%TA.AperFunction,Conductor*%
D18*
G36*
X117525000Y-90200000D02*
G01*
X117527402Y-90224386D01*
X117534515Y-90247835D01*
X117546066Y-90269446D01*
X117561612Y-90288388D01*
X117580554Y-90303934D01*
X117602165Y-90315485D01*
X117625000Y-90322412D01*
X117625000Y-93525000D01*
X116975000Y-93525000D01*
X116975000Y-88550000D01*
X116972598Y-88525614D01*
X116965485Y-88502165D01*
X116953934Y-88480554D01*
X116938388Y-88461612D01*
X116919446Y-88446066D01*
X116897835Y-88434515D01*
X116874386Y-88427402D01*
X116850000Y-88425000D01*
X110525000Y-88425000D01*
X110525000Y-83175000D01*
X117525000Y-83175000D01*
X117525000Y-90200000D01*
G37*
%TD.AperFunction*%
%TD*%
D17*
%TO.N,MTR_A*%
X117525000Y-102200000D02*
X117527402Y-102224386D01*
X117534515Y-102247835D01*
X117546066Y-102269446D01*
X117561612Y-102288388D01*
X117580554Y-102303934D01*
X117602165Y-102315485D01*
X117625000Y-102322412D01*
X117625000Y-104175000D01*
X116975000Y-104175000D01*
X116975000Y-100550000D01*
X116972598Y-100525614D01*
X116965485Y-100502165D01*
X116953934Y-100480554D01*
X116938388Y-100461612D01*
X116919446Y-100446066D01*
X116897835Y-100434515D01*
X116874386Y-100427402D01*
X116850000Y-100425000D01*
X110525000Y-100425000D01*
X110525000Y-95175000D01*
X117525000Y-95175000D01*
X117525000Y-102200000D01*
%TA.AperFunction,Conductor*%
D18*
G36*
X117525000Y-102200000D02*
G01*
X117527402Y-102224386D01*
X117534515Y-102247835D01*
X117546066Y-102269446D01*
X117561612Y-102288388D01*
X117580554Y-102303934D01*
X117602165Y-102315485D01*
X117625000Y-102322412D01*
X117625000Y-104175000D01*
X116975000Y-104175000D01*
X116975000Y-100550000D01*
X116972598Y-100525614D01*
X116965485Y-100502165D01*
X116953934Y-100480554D01*
X116938388Y-100461612D01*
X116919446Y-100446066D01*
X116897835Y-100434515D01*
X116874386Y-100427402D01*
X116850000Y-100425000D01*
X110525000Y-100425000D01*
X110525000Y-95175000D01*
X117525000Y-95175000D01*
X117525000Y-102200000D01*
G37*
%TD.AperFunction*%
%TD*%
M02*
