%TF.GenerationSoftware,KiCad,Pcbnew,(5.1.8)-1*%
%TF.CreationDate,2021-01-30T00:08:38-08:00*%
%TF.ProjectId,MicroMotor,4d696372-6f4d-46f7-946f-722e6b696361,rev?*%
%TF.SameCoordinates,Original*%
%TF.FileFunction,Paste,Top*%
%TF.FilePolarity,Positive*%
%FSLAX46Y46*%
G04 Gerber Fmt 4.6, Leading zero omitted, Abs format (unit mm)*
G04 Created by KiCad (PCBNEW (5.1.8)-1) date 2021-01-30 00:08:38*
%MOMM*%
%LPD*%
G01*
G04 APERTURE LIST*
%ADD10R,0.762000X0.330200*%
%ADD11R,0.762000X1.041400*%
%ADD12R,4.550000X5.250000*%
%ADD13R,4.600000X1.100000*%
%ADD14R,1.879600X0.558800*%
%ADD15R,0.558800X1.981200*%
%ADD16R,0.900000X1.000000*%
%ADD17R,0.400000X0.800000*%
%ADD18R,0.800000X0.400000*%
%ADD19R,2.100000X2.100000*%
%ADD20R,0.300000X0.520000*%
%ADD21R,0.300000X0.490000*%
%ADD22R,1.200000X0.900000*%
%ADD23R,7.500000X1.800000*%
G04 APERTURE END LIST*
D10*
%TO.C,J1*%
X157214701Y-66820000D03*
X157214701Y-67319999D03*
X157214701Y-67820001D03*
X157214701Y-68320000D03*
X157214701Y-68819999D03*
X157214701Y-69320000D03*
X157214701Y-70320000D03*
X157214701Y-70820001D03*
X157214701Y-71320000D03*
X157214701Y-71819999D03*
X157214701Y-72320001D03*
X157214701Y-72820000D03*
D11*
X155914699Y-66720000D03*
D10*
X155914699Y-67569999D03*
X155914699Y-68070001D03*
X155914699Y-68570000D03*
X155914699Y-69069999D03*
X155914699Y-69570000D03*
X155914699Y-70070000D03*
X155914699Y-70570001D03*
X155914699Y-71070000D03*
X155914699Y-71569999D03*
X155914699Y-72070001D03*
D11*
X155914699Y-72920000D03*
%TD*%
%TO.C,U2*%
G36*
G01*
X184780000Y-90190000D02*
X184930000Y-90190000D01*
G75*
G02*
X185005000Y-90265000I0J-75000D01*
G01*
X185005000Y-91665000D01*
G75*
G02*
X184930000Y-91740000I-75000J0D01*
G01*
X184780000Y-91740000D01*
G75*
G02*
X184705000Y-91665000I0J75000D01*
G01*
X184705000Y-90265000D01*
G75*
G02*
X184780000Y-90190000I75000J0D01*
G01*
G37*
G36*
G01*
X184280000Y-90190000D02*
X184430000Y-90190000D01*
G75*
G02*
X184505000Y-90265000I0J-75000D01*
G01*
X184505000Y-91665000D01*
G75*
G02*
X184430000Y-91740000I-75000J0D01*
G01*
X184280000Y-91740000D01*
G75*
G02*
X184205000Y-91665000I0J75000D01*
G01*
X184205000Y-90265000D01*
G75*
G02*
X184280000Y-90190000I75000J0D01*
G01*
G37*
G36*
G01*
X183780000Y-90190000D02*
X183930000Y-90190000D01*
G75*
G02*
X184005000Y-90265000I0J-75000D01*
G01*
X184005000Y-91665000D01*
G75*
G02*
X183930000Y-91740000I-75000J0D01*
G01*
X183780000Y-91740000D01*
G75*
G02*
X183705000Y-91665000I0J75000D01*
G01*
X183705000Y-90265000D01*
G75*
G02*
X183780000Y-90190000I75000J0D01*
G01*
G37*
G36*
G01*
X183280000Y-90190000D02*
X183430000Y-90190000D01*
G75*
G02*
X183505000Y-90265000I0J-75000D01*
G01*
X183505000Y-91665000D01*
G75*
G02*
X183430000Y-91740000I-75000J0D01*
G01*
X183280000Y-91740000D01*
G75*
G02*
X183205000Y-91665000I0J75000D01*
G01*
X183205000Y-90265000D01*
G75*
G02*
X183280000Y-90190000I75000J0D01*
G01*
G37*
G36*
G01*
X182780000Y-90190000D02*
X182930000Y-90190000D01*
G75*
G02*
X183005000Y-90265000I0J-75000D01*
G01*
X183005000Y-91665000D01*
G75*
G02*
X182930000Y-91740000I-75000J0D01*
G01*
X182780000Y-91740000D01*
G75*
G02*
X182705000Y-91665000I0J75000D01*
G01*
X182705000Y-90265000D01*
G75*
G02*
X182780000Y-90190000I75000J0D01*
G01*
G37*
G36*
G01*
X182280000Y-90190000D02*
X182430000Y-90190000D01*
G75*
G02*
X182505000Y-90265000I0J-75000D01*
G01*
X182505000Y-91665000D01*
G75*
G02*
X182430000Y-91740000I-75000J0D01*
G01*
X182280000Y-91740000D01*
G75*
G02*
X182205000Y-91665000I0J75000D01*
G01*
X182205000Y-90265000D01*
G75*
G02*
X182280000Y-90190000I75000J0D01*
G01*
G37*
G36*
G01*
X181780000Y-90190000D02*
X181930000Y-90190000D01*
G75*
G02*
X182005000Y-90265000I0J-75000D01*
G01*
X182005000Y-91665000D01*
G75*
G02*
X181930000Y-91740000I-75000J0D01*
G01*
X181780000Y-91740000D01*
G75*
G02*
X181705000Y-91665000I0J75000D01*
G01*
X181705000Y-90265000D01*
G75*
G02*
X181780000Y-90190000I75000J0D01*
G01*
G37*
G36*
G01*
X181280000Y-90190000D02*
X181430000Y-90190000D01*
G75*
G02*
X181505000Y-90265000I0J-75000D01*
G01*
X181505000Y-91665000D01*
G75*
G02*
X181430000Y-91740000I-75000J0D01*
G01*
X181280000Y-91740000D01*
G75*
G02*
X181205000Y-91665000I0J75000D01*
G01*
X181205000Y-90265000D01*
G75*
G02*
X181280000Y-90190000I75000J0D01*
G01*
G37*
G36*
G01*
X180780000Y-90190000D02*
X180930000Y-90190000D01*
G75*
G02*
X181005000Y-90265000I0J-75000D01*
G01*
X181005000Y-91665000D01*
G75*
G02*
X180930000Y-91740000I-75000J0D01*
G01*
X180780000Y-91740000D01*
G75*
G02*
X180705000Y-91665000I0J75000D01*
G01*
X180705000Y-90265000D01*
G75*
G02*
X180780000Y-90190000I75000J0D01*
G01*
G37*
G36*
G01*
X180280000Y-90190000D02*
X180430000Y-90190000D01*
G75*
G02*
X180505000Y-90265000I0J-75000D01*
G01*
X180505000Y-91665000D01*
G75*
G02*
X180430000Y-91740000I-75000J0D01*
G01*
X180280000Y-91740000D01*
G75*
G02*
X180205000Y-91665000I0J75000D01*
G01*
X180205000Y-90265000D01*
G75*
G02*
X180280000Y-90190000I75000J0D01*
G01*
G37*
G36*
G01*
X179780000Y-90190000D02*
X179930000Y-90190000D01*
G75*
G02*
X180005000Y-90265000I0J-75000D01*
G01*
X180005000Y-91665000D01*
G75*
G02*
X179930000Y-91740000I-75000J0D01*
G01*
X179780000Y-91740000D01*
G75*
G02*
X179705000Y-91665000I0J75000D01*
G01*
X179705000Y-90265000D01*
G75*
G02*
X179780000Y-90190000I75000J0D01*
G01*
G37*
G36*
G01*
X179280000Y-90190000D02*
X179430000Y-90190000D01*
G75*
G02*
X179505000Y-90265000I0J-75000D01*
G01*
X179505000Y-91665000D01*
G75*
G02*
X179430000Y-91740000I-75000J0D01*
G01*
X179280000Y-91740000D01*
G75*
G02*
X179205000Y-91665000I0J75000D01*
G01*
X179205000Y-90265000D01*
G75*
G02*
X179280000Y-90190000I75000J0D01*
G01*
G37*
G36*
G01*
X178780000Y-90190000D02*
X178930000Y-90190000D01*
G75*
G02*
X179005000Y-90265000I0J-75000D01*
G01*
X179005000Y-91665000D01*
G75*
G02*
X178930000Y-91740000I-75000J0D01*
G01*
X178780000Y-91740000D01*
G75*
G02*
X178705000Y-91665000I0J75000D01*
G01*
X178705000Y-90265000D01*
G75*
G02*
X178780000Y-90190000I75000J0D01*
G01*
G37*
G36*
G01*
X178280000Y-90190000D02*
X178430000Y-90190000D01*
G75*
G02*
X178505000Y-90265000I0J-75000D01*
G01*
X178505000Y-91665000D01*
G75*
G02*
X178430000Y-91740000I-75000J0D01*
G01*
X178280000Y-91740000D01*
G75*
G02*
X178205000Y-91665000I0J75000D01*
G01*
X178205000Y-90265000D01*
G75*
G02*
X178280000Y-90190000I75000J0D01*
G01*
G37*
G36*
G01*
X177780000Y-90190000D02*
X177930000Y-90190000D01*
G75*
G02*
X178005000Y-90265000I0J-75000D01*
G01*
X178005000Y-91665000D01*
G75*
G02*
X177930000Y-91740000I-75000J0D01*
G01*
X177780000Y-91740000D01*
G75*
G02*
X177705000Y-91665000I0J75000D01*
G01*
X177705000Y-90265000D01*
G75*
G02*
X177780000Y-90190000I75000J0D01*
G01*
G37*
G36*
G01*
X177280000Y-90190000D02*
X177430000Y-90190000D01*
G75*
G02*
X177505000Y-90265000I0J-75000D01*
G01*
X177505000Y-91665000D01*
G75*
G02*
X177430000Y-91740000I-75000J0D01*
G01*
X177280000Y-91740000D01*
G75*
G02*
X177205000Y-91665000I0J75000D01*
G01*
X177205000Y-90265000D01*
G75*
G02*
X177280000Y-90190000I75000J0D01*
G01*
G37*
G36*
G01*
X174730000Y-92740000D02*
X176130000Y-92740000D01*
G75*
G02*
X176205000Y-92815000I0J-75000D01*
G01*
X176205000Y-92965000D01*
G75*
G02*
X176130000Y-93040000I-75000J0D01*
G01*
X174730000Y-93040000D01*
G75*
G02*
X174655000Y-92965000I0J75000D01*
G01*
X174655000Y-92815000D01*
G75*
G02*
X174730000Y-92740000I75000J0D01*
G01*
G37*
G36*
G01*
X174730000Y-93240000D02*
X176130000Y-93240000D01*
G75*
G02*
X176205000Y-93315000I0J-75000D01*
G01*
X176205000Y-93465000D01*
G75*
G02*
X176130000Y-93540000I-75000J0D01*
G01*
X174730000Y-93540000D01*
G75*
G02*
X174655000Y-93465000I0J75000D01*
G01*
X174655000Y-93315000D01*
G75*
G02*
X174730000Y-93240000I75000J0D01*
G01*
G37*
G36*
G01*
X174730000Y-93740000D02*
X176130000Y-93740000D01*
G75*
G02*
X176205000Y-93815000I0J-75000D01*
G01*
X176205000Y-93965000D01*
G75*
G02*
X176130000Y-94040000I-75000J0D01*
G01*
X174730000Y-94040000D01*
G75*
G02*
X174655000Y-93965000I0J75000D01*
G01*
X174655000Y-93815000D01*
G75*
G02*
X174730000Y-93740000I75000J0D01*
G01*
G37*
G36*
G01*
X174730000Y-94240000D02*
X176130000Y-94240000D01*
G75*
G02*
X176205000Y-94315000I0J-75000D01*
G01*
X176205000Y-94465000D01*
G75*
G02*
X176130000Y-94540000I-75000J0D01*
G01*
X174730000Y-94540000D01*
G75*
G02*
X174655000Y-94465000I0J75000D01*
G01*
X174655000Y-94315000D01*
G75*
G02*
X174730000Y-94240000I75000J0D01*
G01*
G37*
G36*
G01*
X174730000Y-94740000D02*
X176130000Y-94740000D01*
G75*
G02*
X176205000Y-94815000I0J-75000D01*
G01*
X176205000Y-94965000D01*
G75*
G02*
X176130000Y-95040000I-75000J0D01*
G01*
X174730000Y-95040000D01*
G75*
G02*
X174655000Y-94965000I0J75000D01*
G01*
X174655000Y-94815000D01*
G75*
G02*
X174730000Y-94740000I75000J0D01*
G01*
G37*
G36*
G01*
X174730000Y-95240000D02*
X176130000Y-95240000D01*
G75*
G02*
X176205000Y-95315000I0J-75000D01*
G01*
X176205000Y-95465000D01*
G75*
G02*
X176130000Y-95540000I-75000J0D01*
G01*
X174730000Y-95540000D01*
G75*
G02*
X174655000Y-95465000I0J75000D01*
G01*
X174655000Y-95315000D01*
G75*
G02*
X174730000Y-95240000I75000J0D01*
G01*
G37*
G36*
G01*
X174730000Y-95740000D02*
X176130000Y-95740000D01*
G75*
G02*
X176205000Y-95815000I0J-75000D01*
G01*
X176205000Y-95965000D01*
G75*
G02*
X176130000Y-96040000I-75000J0D01*
G01*
X174730000Y-96040000D01*
G75*
G02*
X174655000Y-95965000I0J75000D01*
G01*
X174655000Y-95815000D01*
G75*
G02*
X174730000Y-95740000I75000J0D01*
G01*
G37*
G36*
G01*
X174730000Y-96240000D02*
X176130000Y-96240000D01*
G75*
G02*
X176205000Y-96315000I0J-75000D01*
G01*
X176205000Y-96465000D01*
G75*
G02*
X176130000Y-96540000I-75000J0D01*
G01*
X174730000Y-96540000D01*
G75*
G02*
X174655000Y-96465000I0J75000D01*
G01*
X174655000Y-96315000D01*
G75*
G02*
X174730000Y-96240000I75000J0D01*
G01*
G37*
G36*
G01*
X174730000Y-96740000D02*
X176130000Y-96740000D01*
G75*
G02*
X176205000Y-96815000I0J-75000D01*
G01*
X176205000Y-96965000D01*
G75*
G02*
X176130000Y-97040000I-75000J0D01*
G01*
X174730000Y-97040000D01*
G75*
G02*
X174655000Y-96965000I0J75000D01*
G01*
X174655000Y-96815000D01*
G75*
G02*
X174730000Y-96740000I75000J0D01*
G01*
G37*
G36*
G01*
X174730000Y-97240000D02*
X176130000Y-97240000D01*
G75*
G02*
X176205000Y-97315000I0J-75000D01*
G01*
X176205000Y-97465000D01*
G75*
G02*
X176130000Y-97540000I-75000J0D01*
G01*
X174730000Y-97540000D01*
G75*
G02*
X174655000Y-97465000I0J75000D01*
G01*
X174655000Y-97315000D01*
G75*
G02*
X174730000Y-97240000I75000J0D01*
G01*
G37*
G36*
G01*
X174730000Y-97740000D02*
X176130000Y-97740000D01*
G75*
G02*
X176205000Y-97815000I0J-75000D01*
G01*
X176205000Y-97965000D01*
G75*
G02*
X176130000Y-98040000I-75000J0D01*
G01*
X174730000Y-98040000D01*
G75*
G02*
X174655000Y-97965000I0J75000D01*
G01*
X174655000Y-97815000D01*
G75*
G02*
X174730000Y-97740000I75000J0D01*
G01*
G37*
G36*
G01*
X174730000Y-98240000D02*
X176130000Y-98240000D01*
G75*
G02*
X176205000Y-98315000I0J-75000D01*
G01*
X176205000Y-98465000D01*
G75*
G02*
X176130000Y-98540000I-75000J0D01*
G01*
X174730000Y-98540000D01*
G75*
G02*
X174655000Y-98465000I0J75000D01*
G01*
X174655000Y-98315000D01*
G75*
G02*
X174730000Y-98240000I75000J0D01*
G01*
G37*
G36*
G01*
X174730000Y-98740000D02*
X176130000Y-98740000D01*
G75*
G02*
X176205000Y-98815000I0J-75000D01*
G01*
X176205000Y-98965000D01*
G75*
G02*
X176130000Y-99040000I-75000J0D01*
G01*
X174730000Y-99040000D01*
G75*
G02*
X174655000Y-98965000I0J75000D01*
G01*
X174655000Y-98815000D01*
G75*
G02*
X174730000Y-98740000I75000J0D01*
G01*
G37*
G36*
G01*
X174730000Y-99240000D02*
X176130000Y-99240000D01*
G75*
G02*
X176205000Y-99315000I0J-75000D01*
G01*
X176205000Y-99465000D01*
G75*
G02*
X176130000Y-99540000I-75000J0D01*
G01*
X174730000Y-99540000D01*
G75*
G02*
X174655000Y-99465000I0J75000D01*
G01*
X174655000Y-99315000D01*
G75*
G02*
X174730000Y-99240000I75000J0D01*
G01*
G37*
G36*
G01*
X174730000Y-99740000D02*
X176130000Y-99740000D01*
G75*
G02*
X176205000Y-99815000I0J-75000D01*
G01*
X176205000Y-99965000D01*
G75*
G02*
X176130000Y-100040000I-75000J0D01*
G01*
X174730000Y-100040000D01*
G75*
G02*
X174655000Y-99965000I0J75000D01*
G01*
X174655000Y-99815000D01*
G75*
G02*
X174730000Y-99740000I75000J0D01*
G01*
G37*
G36*
G01*
X174730000Y-100240000D02*
X176130000Y-100240000D01*
G75*
G02*
X176205000Y-100315000I0J-75000D01*
G01*
X176205000Y-100465000D01*
G75*
G02*
X176130000Y-100540000I-75000J0D01*
G01*
X174730000Y-100540000D01*
G75*
G02*
X174655000Y-100465000I0J75000D01*
G01*
X174655000Y-100315000D01*
G75*
G02*
X174730000Y-100240000I75000J0D01*
G01*
G37*
G36*
G01*
X177280000Y-101540000D02*
X177430000Y-101540000D01*
G75*
G02*
X177505000Y-101615000I0J-75000D01*
G01*
X177505000Y-103015000D01*
G75*
G02*
X177430000Y-103090000I-75000J0D01*
G01*
X177280000Y-103090000D01*
G75*
G02*
X177205000Y-103015000I0J75000D01*
G01*
X177205000Y-101615000D01*
G75*
G02*
X177280000Y-101540000I75000J0D01*
G01*
G37*
G36*
G01*
X177780000Y-101540000D02*
X177930000Y-101540000D01*
G75*
G02*
X178005000Y-101615000I0J-75000D01*
G01*
X178005000Y-103015000D01*
G75*
G02*
X177930000Y-103090000I-75000J0D01*
G01*
X177780000Y-103090000D01*
G75*
G02*
X177705000Y-103015000I0J75000D01*
G01*
X177705000Y-101615000D01*
G75*
G02*
X177780000Y-101540000I75000J0D01*
G01*
G37*
G36*
G01*
X178280000Y-101540000D02*
X178430000Y-101540000D01*
G75*
G02*
X178505000Y-101615000I0J-75000D01*
G01*
X178505000Y-103015000D01*
G75*
G02*
X178430000Y-103090000I-75000J0D01*
G01*
X178280000Y-103090000D01*
G75*
G02*
X178205000Y-103015000I0J75000D01*
G01*
X178205000Y-101615000D01*
G75*
G02*
X178280000Y-101540000I75000J0D01*
G01*
G37*
G36*
G01*
X178780000Y-101540000D02*
X178930000Y-101540000D01*
G75*
G02*
X179005000Y-101615000I0J-75000D01*
G01*
X179005000Y-103015000D01*
G75*
G02*
X178930000Y-103090000I-75000J0D01*
G01*
X178780000Y-103090000D01*
G75*
G02*
X178705000Y-103015000I0J75000D01*
G01*
X178705000Y-101615000D01*
G75*
G02*
X178780000Y-101540000I75000J0D01*
G01*
G37*
G36*
G01*
X179280000Y-101540000D02*
X179430000Y-101540000D01*
G75*
G02*
X179505000Y-101615000I0J-75000D01*
G01*
X179505000Y-103015000D01*
G75*
G02*
X179430000Y-103090000I-75000J0D01*
G01*
X179280000Y-103090000D01*
G75*
G02*
X179205000Y-103015000I0J75000D01*
G01*
X179205000Y-101615000D01*
G75*
G02*
X179280000Y-101540000I75000J0D01*
G01*
G37*
G36*
G01*
X179780000Y-101540000D02*
X179930000Y-101540000D01*
G75*
G02*
X180005000Y-101615000I0J-75000D01*
G01*
X180005000Y-103015000D01*
G75*
G02*
X179930000Y-103090000I-75000J0D01*
G01*
X179780000Y-103090000D01*
G75*
G02*
X179705000Y-103015000I0J75000D01*
G01*
X179705000Y-101615000D01*
G75*
G02*
X179780000Y-101540000I75000J0D01*
G01*
G37*
G36*
G01*
X180280000Y-101540000D02*
X180430000Y-101540000D01*
G75*
G02*
X180505000Y-101615000I0J-75000D01*
G01*
X180505000Y-103015000D01*
G75*
G02*
X180430000Y-103090000I-75000J0D01*
G01*
X180280000Y-103090000D01*
G75*
G02*
X180205000Y-103015000I0J75000D01*
G01*
X180205000Y-101615000D01*
G75*
G02*
X180280000Y-101540000I75000J0D01*
G01*
G37*
G36*
G01*
X180780000Y-101540000D02*
X180930000Y-101540000D01*
G75*
G02*
X181005000Y-101615000I0J-75000D01*
G01*
X181005000Y-103015000D01*
G75*
G02*
X180930000Y-103090000I-75000J0D01*
G01*
X180780000Y-103090000D01*
G75*
G02*
X180705000Y-103015000I0J75000D01*
G01*
X180705000Y-101615000D01*
G75*
G02*
X180780000Y-101540000I75000J0D01*
G01*
G37*
G36*
G01*
X181280000Y-101540000D02*
X181430000Y-101540000D01*
G75*
G02*
X181505000Y-101615000I0J-75000D01*
G01*
X181505000Y-103015000D01*
G75*
G02*
X181430000Y-103090000I-75000J0D01*
G01*
X181280000Y-103090000D01*
G75*
G02*
X181205000Y-103015000I0J75000D01*
G01*
X181205000Y-101615000D01*
G75*
G02*
X181280000Y-101540000I75000J0D01*
G01*
G37*
G36*
G01*
X181780000Y-101540000D02*
X181930000Y-101540000D01*
G75*
G02*
X182005000Y-101615000I0J-75000D01*
G01*
X182005000Y-103015000D01*
G75*
G02*
X181930000Y-103090000I-75000J0D01*
G01*
X181780000Y-103090000D01*
G75*
G02*
X181705000Y-103015000I0J75000D01*
G01*
X181705000Y-101615000D01*
G75*
G02*
X181780000Y-101540000I75000J0D01*
G01*
G37*
G36*
G01*
X182280000Y-101540000D02*
X182430000Y-101540000D01*
G75*
G02*
X182505000Y-101615000I0J-75000D01*
G01*
X182505000Y-103015000D01*
G75*
G02*
X182430000Y-103090000I-75000J0D01*
G01*
X182280000Y-103090000D01*
G75*
G02*
X182205000Y-103015000I0J75000D01*
G01*
X182205000Y-101615000D01*
G75*
G02*
X182280000Y-101540000I75000J0D01*
G01*
G37*
G36*
G01*
X182780000Y-101540000D02*
X182930000Y-101540000D01*
G75*
G02*
X183005000Y-101615000I0J-75000D01*
G01*
X183005000Y-103015000D01*
G75*
G02*
X182930000Y-103090000I-75000J0D01*
G01*
X182780000Y-103090000D01*
G75*
G02*
X182705000Y-103015000I0J75000D01*
G01*
X182705000Y-101615000D01*
G75*
G02*
X182780000Y-101540000I75000J0D01*
G01*
G37*
G36*
G01*
X183280000Y-101540000D02*
X183430000Y-101540000D01*
G75*
G02*
X183505000Y-101615000I0J-75000D01*
G01*
X183505000Y-103015000D01*
G75*
G02*
X183430000Y-103090000I-75000J0D01*
G01*
X183280000Y-103090000D01*
G75*
G02*
X183205000Y-103015000I0J75000D01*
G01*
X183205000Y-101615000D01*
G75*
G02*
X183280000Y-101540000I75000J0D01*
G01*
G37*
G36*
G01*
X183780000Y-101540000D02*
X183930000Y-101540000D01*
G75*
G02*
X184005000Y-101615000I0J-75000D01*
G01*
X184005000Y-103015000D01*
G75*
G02*
X183930000Y-103090000I-75000J0D01*
G01*
X183780000Y-103090000D01*
G75*
G02*
X183705000Y-103015000I0J75000D01*
G01*
X183705000Y-101615000D01*
G75*
G02*
X183780000Y-101540000I75000J0D01*
G01*
G37*
G36*
G01*
X184280000Y-101540000D02*
X184430000Y-101540000D01*
G75*
G02*
X184505000Y-101615000I0J-75000D01*
G01*
X184505000Y-103015000D01*
G75*
G02*
X184430000Y-103090000I-75000J0D01*
G01*
X184280000Y-103090000D01*
G75*
G02*
X184205000Y-103015000I0J75000D01*
G01*
X184205000Y-101615000D01*
G75*
G02*
X184280000Y-101540000I75000J0D01*
G01*
G37*
G36*
G01*
X184780000Y-101540000D02*
X184930000Y-101540000D01*
G75*
G02*
X185005000Y-101615000I0J-75000D01*
G01*
X185005000Y-103015000D01*
G75*
G02*
X184930000Y-103090000I-75000J0D01*
G01*
X184780000Y-103090000D01*
G75*
G02*
X184705000Y-103015000I0J75000D01*
G01*
X184705000Y-101615000D01*
G75*
G02*
X184780000Y-101540000I75000J0D01*
G01*
G37*
G36*
G01*
X186080000Y-100240000D02*
X187480000Y-100240000D01*
G75*
G02*
X187555000Y-100315000I0J-75000D01*
G01*
X187555000Y-100465000D01*
G75*
G02*
X187480000Y-100540000I-75000J0D01*
G01*
X186080000Y-100540000D01*
G75*
G02*
X186005000Y-100465000I0J75000D01*
G01*
X186005000Y-100315000D01*
G75*
G02*
X186080000Y-100240000I75000J0D01*
G01*
G37*
G36*
G01*
X186080000Y-99740000D02*
X187480000Y-99740000D01*
G75*
G02*
X187555000Y-99815000I0J-75000D01*
G01*
X187555000Y-99965000D01*
G75*
G02*
X187480000Y-100040000I-75000J0D01*
G01*
X186080000Y-100040000D01*
G75*
G02*
X186005000Y-99965000I0J75000D01*
G01*
X186005000Y-99815000D01*
G75*
G02*
X186080000Y-99740000I75000J0D01*
G01*
G37*
G36*
G01*
X186080000Y-99240000D02*
X187480000Y-99240000D01*
G75*
G02*
X187555000Y-99315000I0J-75000D01*
G01*
X187555000Y-99465000D01*
G75*
G02*
X187480000Y-99540000I-75000J0D01*
G01*
X186080000Y-99540000D01*
G75*
G02*
X186005000Y-99465000I0J75000D01*
G01*
X186005000Y-99315000D01*
G75*
G02*
X186080000Y-99240000I75000J0D01*
G01*
G37*
G36*
G01*
X186080000Y-98740000D02*
X187480000Y-98740000D01*
G75*
G02*
X187555000Y-98815000I0J-75000D01*
G01*
X187555000Y-98965000D01*
G75*
G02*
X187480000Y-99040000I-75000J0D01*
G01*
X186080000Y-99040000D01*
G75*
G02*
X186005000Y-98965000I0J75000D01*
G01*
X186005000Y-98815000D01*
G75*
G02*
X186080000Y-98740000I75000J0D01*
G01*
G37*
G36*
G01*
X186080000Y-98240000D02*
X187480000Y-98240000D01*
G75*
G02*
X187555000Y-98315000I0J-75000D01*
G01*
X187555000Y-98465000D01*
G75*
G02*
X187480000Y-98540000I-75000J0D01*
G01*
X186080000Y-98540000D01*
G75*
G02*
X186005000Y-98465000I0J75000D01*
G01*
X186005000Y-98315000D01*
G75*
G02*
X186080000Y-98240000I75000J0D01*
G01*
G37*
G36*
G01*
X186080000Y-97740000D02*
X187480000Y-97740000D01*
G75*
G02*
X187555000Y-97815000I0J-75000D01*
G01*
X187555000Y-97965000D01*
G75*
G02*
X187480000Y-98040000I-75000J0D01*
G01*
X186080000Y-98040000D01*
G75*
G02*
X186005000Y-97965000I0J75000D01*
G01*
X186005000Y-97815000D01*
G75*
G02*
X186080000Y-97740000I75000J0D01*
G01*
G37*
G36*
G01*
X186080000Y-97240000D02*
X187480000Y-97240000D01*
G75*
G02*
X187555000Y-97315000I0J-75000D01*
G01*
X187555000Y-97465000D01*
G75*
G02*
X187480000Y-97540000I-75000J0D01*
G01*
X186080000Y-97540000D01*
G75*
G02*
X186005000Y-97465000I0J75000D01*
G01*
X186005000Y-97315000D01*
G75*
G02*
X186080000Y-97240000I75000J0D01*
G01*
G37*
G36*
G01*
X186080000Y-96740000D02*
X187480000Y-96740000D01*
G75*
G02*
X187555000Y-96815000I0J-75000D01*
G01*
X187555000Y-96965000D01*
G75*
G02*
X187480000Y-97040000I-75000J0D01*
G01*
X186080000Y-97040000D01*
G75*
G02*
X186005000Y-96965000I0J75000D01*
G01*
X186005000Y-96815000D01*
G75*
G02*
X186080000Y-96740000I75000J0D01*
G01*
G37*
G36*
G01*
X186080000Y-96240000D02*
X187480000Y-96240000D01*
G75*
G02*
X187555000Y-96315000I0J-75000D01*
G01*
X187555000Y-96465000D01*
G75*
G02*
X187480000Y-96540000I-75000J0D01*
G01*
X186080000Y-96540000D01*
G75*
G02*
X186005000Y-96465000I0J75000D01*
G01*
X186005000Y-96315000D01*
G75*
G02*
X186080000Y-96240000I75000J0D01*
G01*
G37*
G36*
G01*
X186080000Y-95740000D02*
X187480000Y-95740000D01*
G75*
G02*
X187555000Y-95815000I0J-75000D01*
G01*
X187555000Y-95965000D01*
G75*
G02*
X187480000Y-96040000I-75000J0D01*
G01*
X186080000Y-96040000D01*
G75*
G02*
X186005000Y-95965000I0J75000D01*
G01*
X186005000Y-95815000D01*
G75*
G02*
X186080000Y-95740000I75000J0D01*
G01*
G37*
G36*
G01*
X186080000Y-95240000D02*
X187480000Y-95240000D01*
G75*
G02*
X187555000Y-95315000I0J-75000D01*
G01*
X187555000Y-95465000D01*
G75*
G02*
X187480000Y-95540000I-75000J0D01*
G01*
X186080000Y-95540000D01*
G75*
G02*
X186005000Y-95465000I0J75000D01*
G01*
X186005000Y-95315000D01*
G75*
G02*
X186080000Y-95240000I75000J0D01*
G01*
G37*
G36*
G01*
X186080000Y-94740000D02*
X187480000Y-94740000D01*
G75*
G02*
X187555000Y-94815000I0J-75000D01*
G01*
X187555000Y-94965000D01*
G75*
G02*
X187480000Y-95040000I-75000J0D01*
G01*
X186080000Y-95040000D01*
G75*
G02*
X186005000Y-94965000I0J75000D01*
G01*
X186005000Y-94815000D01*
G75*
G02*
X186080000Y-94740000I75000J0D01*
G01*
G37*
G36*
G01*
X186080000Y-94240000D02*
X187480000Y-94240000D01*
G75*
G02*
X187555000Y-94315000I0J-75000D01*
G01*
X187555000Y-94465000D01*
G75*
G02*
X187480000Y-94540000I-75000J0D01*
G01*
X186080000Y-94540000D01*
G75*
G02*
X186005000Y-94465000I0J75000D01*
G01*
X186005000Y-94315000D01*
G75*
G02*
X186080000Y-94240000I75000J0D01*
G01*
G37*
G36*
G01*
X186080000Y-93740000D02*
X187480000Y-93740000D01*
G75*
G02*
X187555000Y-93815000I0J-75000D01*
G01*
X187555000Y-93965000D01*
G75*
G02*
X187480000Y-94040000I-75000J0D01*
G01*
X186080000Y-94040000D01*
G75*
G02*
X186005000Y-93965000I0J75000D01*
G01*
X186005000Y-93815000D01*
G75*
G02*
X186080000Y-93740000I75000J0D01*
G01*
G37*
G36*
G01*
X186080000Y-93240000D02*
X187480000Y-93240000D01*
G75*
G02*
X187555000Y-93315000I0J-75000D01*
G01*
X187555000Y-93465000D01*
G75*
G02*
X187480000Y-93540000I-75000J0D01*
G01*
X186080000Y-93540000D01*
G75*
G02*
X186005000Y-93465000I0J75000D01*
G01*
X186005000Y-93315000D01*
G75*
G02*
X186080000Y-93240000I75000J0D01*
G01*
G37*
G36*
G01*
X186080000Y-92740000D02*
X187480000Y-92740000D01*
G75*
G02*
X187555000Y-92815000I0J-75000D01*
G01*
X187555000Y-92965000D01*
G75*
G02*
X187480000Y-93040000I-75000J0D01*
G01*
X186080000Y-93040000D01*
G75*
G02*
X186005000Y-92965000I0J75000D01*
G01*
X186005000Y-92815000D01*
G75*
G02*
X186080000Y-92740000I75000J0D01*
G01*
G37*
%TD*%
%TO.C,R15*%
G36*
G01*
X137310000Y-111715000D02*
X137310000Y-112265000D01*
G75*
G02*
X137110000Y-112465000I-200000J0D01*
G01*
X136710000Y-112465000D01*
G75*
G02*
X136510000Y-112265000I0J200000D01*
G01*
X136510000Y-111715000D01*
G75*
G02*
X136710000Y-111515000I200000J0D01*
G01*
X137110000Y-111515000D01*
G75*
G02*
X137310000Y-111715000I0J-200000D01*
G01*
G37*
G36*
G01*
X135660000Y-111715000D02*
X135660000Y-112265000D01*
G75*
G02*
X135460000Y-112465000I-200000J0D01*
G01*
X135060000Y-112465000D01*
G75*
G02*
X134860000Y-112265000I0J200000D01*
G01*
X134860000Y-111715000D01*
G75*
G02*
X135060000Y-111515000I200000J0D01*
G01*
X135460000Y-111515000D01*
G75*
G02*
X135660000Y-111715000I0J-200000D01*
G01*
G37*
%TD*%
D12*
%TO.C,Q1*%
X108085000Y-112815000D03*
X103235000Y-118365000D03*
X108085000Y-118365000D03*
X103235000Y-112815000D03*
D13*
X114810000Y-113050000D03*
X114810000Y-118130000D03*
%TD*%
%TO.C,R21*%
G36*
G01*
X172330000Y-86665000D02*
X172880000Y-86665000D01*
G75*
G02*
X173080000Y-86865000I0J-200000D01*
G01*
X173080000Y-87265000D01*
G75*
G02*
X172880000Y-87465000I-200000J0D01*
G01*
X172330000Y-87465000D01*
G75*
G02*
X172130000Y-87265000I0J200000D01*
G01*
X172130000Y-86865000D01*
G75*
G02*
X172330000Y-86665000I200000J0D01*
G01*
G37*
G36*
G01*
X172330000Y-85015000D02*
X172880000Y-85015000D01*
G75*
G02*
X173080000Y-85215000I0J-200000D01*
G01*
X173080000Y-85615000D01*
G75*
G02*
X172880000Y-85815000I-200000J0D01*
G01*
X172330000Y-85815000D01*
G75*
G02*
X172130000Y-85615000I0J200000D01*
G01*
X172130000Y-85215000D01*
G75*
G02*
X172330000Y-85015000I200000J0D01*
G01*
G37*
%TD*%
%TO.C,D14*%
G36*
G01*
X172861250Y-88940000D02*
X172348750Y-88940000D01*
G75*
G02*
X172130000Y-88721250I0J218750D01*
G01*
X172130000Y-88283750D01*
G75*
G02*
X172348750Y-88065000I218750J0D01*
G01*
X172861250Y-88065000D01*
G75*
G02*
X173080000Y-88283750I0J-218750D01*
G01*
X173080000Y-88721250D01*
G75*
G02*
X172861250Y-88940000I-218750J0D01*
G01*
G37*
G36*
G01*
X172861250Y-90515000D02*
X172348750Y-90515000D01*
G75*
G02*
X172130000Y-90296250I0J218750D01*
G01*
X172130000Y-89858750D01*
G75*
G02*
X172348750Y-89640000I218750J0D01*
G01*
X172861250Y-89640000D01*
G75*
G02*
X173080000Y-89858750I0J-218750D01*
G01*
X173080000Y-90296250D01*
G75*
G02*
X172861250Y-90515000I-218750J0D01*
G01*
G37*
%TD*%
%TO.C,D13*%
G36*
G01*
X169311250Y-108390000D02*
X168798750Y-108390000D01*
G75*
G02*
X168580000Y-108171250I0J218750D01*
G01*
X168580000Y-107733750D01*
G75*
G02*
X168798750Y-107515000I218750J0D01*
G01*
X169311250Y-107515000D01*
G75*
G02*
X169530000Y-107733750I0J-218750D01*
G01*
X169530000Y-108171250D01*
G75*
G02*
X169311250Y-108390000I-218750J0D01*
G01*
G37*
G36*
G01*
X169311250Y-109965000D02*
X168798750Y-109965000D01*
G75*
G02*
X168580000Y-109746250I0J218750D01*
G01*
X168580000Y-109308750D01*
G75*
G02*
X168798750Y-109090000I218750J0D01*
G01*
X169311250Y-109090000D01*
G75*
G02*
X169530000Y-109308750I0J-218750D01*
G01*
X169530000Y-109746250D01*
G75*
G02*
X169311250Y-109965000I-218750J0D01*
G01*
G37*
%TD*%
D14*
%TO.C,U9*%
X161017900Y-105425000D03*
X161017900Y-104155000D03*
X161017900Y-102885000D03*
X161017900Y-101615000D03*
X161017900Y-100345000D03*
X161017900Y-99075000D03*
X161017900Y-97805000D03*
X161017900Y-96535000D03*
X161017900Y-95265000D03*
X161017900Y-93995000D03*
X161017900Y-92725000D03*
X161017900Y-91455000D03*
X170492100Y-91455000D03*
X170492100Y-92725000D03*
X170492100Y-93995000D03*
X170492100Y-95265000D03*
X170492100Y-96535000D03*
X170492100Y-97805000D03*
X170492100Y-99075000D03*
X170492100Y-100345000D03*
X170492100Y-101615000D03*
X170492100Y-102885000D03*
X170492100Y-104155000D03*
X170492100Y-105425000D03*
%TD*%
%TO.C,C27*%
G36*
G01*
X118685000Y-81465000D02*
X118685000Y-80515000D01*
G75*
G02*
X118935000Y-80265000I250000J0D01*
G01*
X119435000Y-80265000D01*
G75*
G02*
X119685000Y-80515000I0J-250000D01*
G01*
X119685000Y-81465000D01*
G75*
G02*
X119435000Y-81715000I-250000J0D01*
G01*
X118935000Y-81715000D01*
G75*
G02*
X118685000Y-81465000I0J250000D01*
G01*
G37*
G36*
G01*
X120585000Y-81465000D02*
X120585000Y-80515000D01*
G75*
G02*
X120835000Y-80265000I250000J0D01*
G01*
X121335000Y-80265000D01*
G75*
G02*
X121585000Y-80515000I0J-250000D01*
G01*
X121585000Y-81465000D01*
G75*
G02*
X121335000Y-81715000I-250000J0D01*
G01*
X120835000Y-81715000D01*
G75*
G02*
X120585000Y-81465000I0J250000D01*
G01*
G37*
%TD*%
%TO.C,D5*%
G36*
G01*
X153080000Y-112665001D02*
X153080000Y-110514999D01*
G75*
G02*
X153329999Y-110265000I249999J0D01*
G01*
X154180001Y-110265000D01*
G75*
G02*
X154430000Y-110514999I0J-249999D01*
G01*
X154430000Y-112665001D01*
G75*
G02*
X154180001Y-112915000I-249999J0D01*
G01*
X153329999Y-112915000D01*
G75*
G02*
X153080000Y-112665001I0J249999D01*
G01*
G37*
G36*
G01*
X157580000Y-112665001D02*
X157580000Y-110514999D01*
G75*
G02*
X157829999Y-110265000I249999J0D01*
G01*
X158680001Y-110265000D01*
G75*
G02*
X158930000Y-110514999I0J-249999D01*
G01*
X158930000Y-112665001D01*
G75*
G02*
X158680001Y-112915000I-249999J0D01*
G01*
X157829999Y-112915000D01*
G75*
G02*
X157580000Y-112665001I0J249999D01*
G01*
G37*
%TD*%
%TO.C,D2*%
G36*
G01*
X168950000Y-69276250D02*
X168950000Y-68763750D01*
G75*
G02*
X169168750Y-68545000I218750J0D01*
G01*
X169606250Y-68545000D01*
G75*
G02*
X169825000Y-68763750I0J-218750D01*
G01*
X169825000Y-69276250D01*
G75*
G02*
X169606250Y-69495000I-218750J0D01*
G01*
X169168750Y-69495000D01*
G75*
G02*
X168950000Y-69276250I0J218750D01*
G01*
G37*
G36*
G01*
X170525000Y-69276250D02*
X170525000Y-68763750D01*
G75*
G02*
X170743750Y-68545000I218750J0D01*
G01*
X171181250Y-68545000D01*
G75*
G02*
X171400000Y-68763750I0J-218750D01*
G01*
X171400000Y-69276250D01*
G75*
G02*
X171181250Y-69495000I-218750J0D01*
G01*
X170743750Y-69495000D01*
G75*
G02*
X170525000Y-69276250I0J218750D01*
G01*
G37*
%TD*%
%TO.C,R4*%
G36*
G01*
X168950000Y-70895000D02*
X168950000Y-70345000D01*
G75*
G02*
X169150000Y-70145000I200000J0D01*
G01*
X169550000Y-70145000D01*
G75*
G02*
X169750000Y-70345000I0J-200000D01*
G01*
X169750000Y-70895000D01*
G75*
G02*
X169550000Y-71095000I-200000J0D01*
G01*
X169150000Y-71095000D01*
G75*
G02*
X168950000Y-70895000I0J200000D01*
G01*
G37*
G36*
G01*
X170600000Y-70895000D02*
X170600000Y-70345000D01*
G75*
G02*
X170800000Y-70145000I200000J0D01*
G01*
X171200000Y-70145000D01*
G75*
G02*
X171400000Y-70345000I0J-200000D01*
G01*
X171400000Y-70895000D01*
G75*
G02*
X171200000Y-71095000I-200000J0D01*
G01*
X170800000Y-71095000D01*
G75*
G02*
X170600000Y-70895000I0J200000D01*
G01*
G37*
%TD*%
D15*
%TO.C,U3*%
X166880000Y-74356200D03*
X165610000Y-74356200D03*
X164340000Y-74356200D03*
X163070000Y-74356200D03*
X163070000Y-79283800D03*
X164340000Y-79283800D03*
X165610000Y-79283800D03*
X166880000Y-79283800D03*
%TD*%
%TO.C,C1*%
G36*
G01*
X158925000Y-73495000D02*
X159425000Y-73495000D01*
G75*
G02*
X159650000Y-73720000I0J-225000D01*
G01*
X159650000Y-74170000D01*
G75*
G02*
X159425000Y-74395000I-225000J0D01*
G01*
X158925000Y-74395000D01*
G75*
G02*
X158700000Y-74170000I0J225000D01*
G01*
X158700000Y-73720000D01*
G75*
G02*
X158925000Y-73495000I225000J0D01*
G01*
G37*
G36*
G01*
X158925000Y-75045000D02*
X159425000Y-75045000D01*
G75*
G02*
X159650000Y-75270000I0J-225000D01*
G01*
X159650000Y-75720000D01*
G75*
G02*
X159425000Y-75945000I-225000J0D01*
G01*
X158925000Y-75945000D01*
G75*
G02*
X158700000Y-75720000I0J225000D01*
G01*
X158700000Y-75270000D01*
G75*
G02*
X158925000Y-75045000I225000J0D01*
G01*
G37*
%TD*%
%TO.C,C2*%
G36*
G01*
X160500000Y-67770000D02*
X160500000Y-67270000D01*
G75*
G02*
X160725000Y-67045000I225000J0D01*
G01*
X161175000Y-67045000D01*
G75*
G02*
X161400000Y-67270000I0J-225000D01*
G01*
X161400000Y-67770000D01*
G75*
G02*
X161175000Y-67995000I-225000J0D01*
G01*
X160725000Y-67995000D01*
G75*
G02*
X160500000Y-67770000I0J225000D01*
G01*
G37*
G36*
G01*
X158950000Y-67770000D02*
X158950000Y-67270000D01*
G75*
G02*
X159175000Y-67045000I225000J0D01*
G01*
X159625000Y-67045000D01*
G75*
G02*
X159850000Y-67270000I0J-225000D01*
G01*
X159850000Y-67770000D01*
G75*
G02*
X159625000Y-67995000I-225000J0D01*
G01*
X159175000Y-67995000D01*
G75*
G02*
X158950000Y-67770000I0J225000D01*
G01*
G37*
%TD*%
%TO.C,C3*%
G36*
G01*
X160500000Y-72570000D02*
X160500000Y-72070000D01*
G75*
G02*
X160725000Y-71845000I225000J0D01*
G01*
X161175000Y-71845000D01*
G75*
G02*
X161400000Y-72070000I0J-225000D01*
G01*
X161400000Y-72570000D01*
G75*
G02*
X161175000Y-72795000I-225000J0D01*
G01*
X160725000Y-72795000D01*
G75*
G02*
X160500000Y-72570000I0J225000D01*
G01*
G37*
G36*
G01*
X158950000Y-72570000D02*
X158950000Y-72070000D01*
G75*
G02*
X159175000Y-71845000I225000J0D01*
G01*
X159625000Y-71845000D01*
G75*
G02*
X159850000Y-72070000I0J-225000D01*
G01*
X159850000Y-72570000D01*
G75*
G02*
X159625000Y-72795000I-225000J0D01*
G01*
X159175000Y-72795000D01*
G75*
G02*
X158950000Y-72570000I0J225000D01*
G01*
G37*
%TD*%
%TO.C,C4*%
G36*
G01*
X175430000Y-79565000D02*
X175430000Y-80065000D01*
G75*
G02*
X175205000Y-80290000I-225000J0D01*
G01*
X174755000Y-80290000D01*
G75*
G02*
X174530000Y-80065000I0J225000D01*
G01*
X174530000Y-79565000D01*
G75*
G02*
X174755000Y-79340000I225000J0D01*
G01*
X175205000Y-79340000D01*
G75*
G02*
X175430000Y-79565000I0J-225000D01*
G01*
G37*
G36*
G01*
X173880000Y-79565000D02*
X173880000Y-80065000D01*
G75*
G02*
X173655000Y-80290000I-225000J0D01*
G01*
X173205000Y-80290000D01*
G75*
G02*
X172980000Y-80065000I0J225000D01*
G01*
X172980000Y-79565000D01*
G75*
G02*
X173205000Y-79340000I225000J0D01*
G01*
X173655000Y-79340000D01*
G75*
G02*
X173880000Y-79565000I0J-225000D01*
G01*
G37*
%TD*%
%TO.C,C5*%
G36*
G01*
X169975000Y-74395000D02*
X170475000Y-74395000D01*
G75*
G02*
X170700000Y-74620000I0J-225000D01*
G01*
X170700000Y-75070000D01*
G75*
G02*
X170475000Y-75295000I-225000J0D01*
G01*
X169975000Y-75295000D01*
G75*
G02*
X169750000Y-75070000I0J225000D01*
G01*
X169750000Y-74620000D01*
G75*
G02*
X169975000Y-74395000I225000J0D01*
G01*
G37*
G36*
G01*
X169975000Y-72845000D02*
X170475000Y-72845000D01*
G75*
G02*
X170700000Y-73070000I0J-225000D01*
G01*
X170700000Y-73520000D01*
G75*
G02*
X170475000Y-73745000I-225000J0D01*
G01*
X169975000Y-73745000D01*
G75*
G02*
X169750000Y-73520000I0J225000D01*
G01*
X169750000Y-73070000D01*
G75*
G02*
X169975000Y-72845000I225000J0D01*
G01*
G37*
%TD*%
%TO.C,C6*%
G36*
G01*
X173580000Y-102815000D02*
X174080000Y-102815000D01*
G75*
G02*
X174305000Y-103040000I0J-225000D01*
G01*
X174305000Y-103490000D01*
G75*
G02*
X174080000Y-103715000I-225000J0D01*
G01*
X173580000Y-103715000D01*
G75*
G02*
X173355000Y-103490000I0J225000D01*
G01*
X173355000Y-103040000D01*
G75*
G02*
X173580000Y-102815000I225000J0D01*
G01*
G37*
G36*
G01*
X173580000Y-101265000D02*
X174080000Y-101265000D01*
G75*
G02*
X174305000Y-101490000I0J-225000D01*
G01*
X174305000Y-101940000D01*
G75*
G02*
X174080000Y-102165000I-225000J0D01*
G01*
X173580000Y-102165000D01*
G75*
G02*
X173355000Y-101940000I0J225000D01*
G01*
X173355000Y-101490000D01*
G75*
G02*
X173580000Y-101265000I225000J0D01*
G01*
G37*
%TD*%
%TO.C,C7*%
G36*
G01*
X187880000Y-91390000D02*
X187380000Y-91390000D01*
G75*
G02*
X187155000Y-91165000I0J225000D01*
G01*
X187155000Y-90715000D01*
G75*
G02*
X187380000Y-90490000I225000J0D01*
G01*
X187880000Y-90490000D01*
G75*
G02*
X188105000Y-90715000I0J-225000D01*
G01*
X188105000Y-91165000D01*
G75*
G02*
X187880000Y-91390000I-225000J0D01*
G01*
G37*
G36*
G01*
X187880000Y-89840000D02*
X187380000Y-89840000D01*
G75*
G02*
X187155000Y-89615000I0J225000D01*
G01*
X187155000Y-89165000D01*
G75*
G02*
X187380000Y-88940000I225000J0D01*
G01*
X187880000Y-88940000D01*
G75*
G02*
X188105000Y-89165000I0J-225000D01*
G01*
X188105000Y-89615000D01*
G75*
G02*
X187880000Y-89840000I-225000J0D01*
G01*
G37*
%TD*%
%TO.C,C8*%
G36*
G01*
X180680000Y-105665000D02*
X181180000Y-105665000D01*
G75*
G02*
X181405000Y-105890000I0J-225000D01*
G01*
X181405000Y-106340000D01*
G75*
G02*
X181180000Y-106565000I-225000J0D01*
G01*
X180680000Y-106565000D01*
G75*
G02*
X180455000Y-106340000I0J225000D01*
G01*
X180455000Y-105890000D01*
G75*
G02*
X180680000Y-105665000I225000J0D01*
G01*
G37*
G36*
G01*
X180680000Y-104115000D02*
X181180000Y-104115000D01*
G75*
G02*
X181405000Y-104340000I0J-225000D01*
G01*
X181405000Y-104790000D01*
G75*
G02*
X181180000Y-105015000I-225000J0D01*
G01*
X180680000Y-105015000D01*
G75*
G02*
X180455000Y-104790000I0J225000D01*
G01*
X180455000Y-104340000D01*
G75*
G02*
X180680000Y-104115000I225000J0D01*
G01*
G37*
%TD*%
%TO.C,C9*%
G36*
G01*
X186005000Y-103115000D02*
X186505000Y-103115000D01*
G75*
G02*
X186730000Y-103340000I0J-225000D01*
G01*
X186730000Y-103790000D01*
G75*
G02*
X186505000Y-104015000I-225000J0D01*
G01*
X186005000Y-104015000D01*
G75*
G02*
X185780000Y-103790000I0J225000D01*
G01*
X185780000Y-103340000D01*
G75*
G02*
X186005000Y-103115000I225000J0D01*
G01*
G37*
G36*
G01*
X186005000Y-104665000D02*
X186505000Y-104665000D01*
G75*
G02*
X186730000Y-104890000I0J-225000D01*
G01*
X186730000Y-105340000D01*
G75*
G02*
X186505000Y-105565000I-225000J0D01*
G01*
X186005000Y-105565000D01*
G75*
G02*
X185780000Y-105340000I0J225000D01*
G01*
X185780000Y-104890000D01*
G75*
G02*
X186005000Y-104665000I225000J0D01*
G01*
G37*
%TD*%
%TO.C,C10*%
G36*
G01*
X164005000Y-81140000D02*
X164005000Y-81640000D01*
G75*
G02*
X163780000Y-81865000I-225000J0D01*
G01*
X163330000Y-81865000D01*
G75*
G02*
X163105000Y-81640000I0J225000D01*
G01*
X163105000Y-81140000D01*
G75*
G02*
X163330000Y-80915000I225000J0D01*
G01*
X163780000Y-80915000D01*
G75*
G02*
X164005000Y-81140000I0J-225000D01*
G01*
G37*
G36*
G01*
X165555000Y-81140000D02*
X165555000Y-81640000D01*
G75*
G02*
X165330000Y-81865000I-225000J0D01*
G01*
X164880000Y-81865000D01*
G75*
G02*
X164655000Y-81640000I0J225000D01*
G01*
X164655000Y-81140000D01*
G75*
G02*
X164880000Y-80915000I225000J0D01*
G01*
X165330000Y-80915000D01*
G75*
G02*
X165555000Y-81140000I0J-225000D01*
G01*
G37*
%TD*%
%TO.C,C19*%
G36*
G01*
X155680000Y-115490000D02*
X155680000Y-115990000D01*
G75*
G02*
X155455000Y-116215000I-225000J0D01*
G01*
X155005000Y-116215000D01*
G75*
G02*
X154780000Y-115990000I0J225000D01*
G01*
X154780000Y-115490000D01*
G75*
G02*
X155005000Y-115265000I225000J0D01*
G01*
X155455000Y-115265000D01*
G75*
G02*
X155680000Y-115490000I0J-225000D01*
G01*
G37*
G36*
G01*
X157230000Y-115490000D02*
X157230000Y-115990000D01*
G75*
G02*
X157005000Y-116215000I-225000J0D01*
G01*
X156555000Y-116215000D01*
G75*
G02*
X156330000Y-115990000I0J225000D01*
G01*
X156330000Y-115490000D01*
G75*
G02*
X156555000Y-115265000I225000J0D01*
G01*
X157005000Y-115265000D01*
G75*
G02*
X157230000Y-115490000I0J-225000D01*
G01*
G37*
%TD*%
%TO.C,C20*%
G36*
G01*
X179005000Y-112065000D02*
X179505000Y-112065000D01*
G75*
G02*
X179730000Y-112290000I0J-225000D01*
G01*
X179730000Y-112740000D01*
G75*
G02*
X179505000Y-112965000I-225000J0D01*
G01*
X179005000Y-112965000D01*
G75*
G02*
X178780000Y-112740000I0J225000D01*
G01*
X178780000Y-112290000D01*
G75*
G02*
X179005000Y-112065000I225000J0D01*
G01*
G37*
G36*
G01*
X179005000Y-113615000D02*
X179505000Y-113615000D01*
G75*
G02*
X179730000Y-113840000I0J-225000D01*
G01*
X179730000Y-114290000D01*
G75*
G02*
X179505000Y-114515000I-225000J0D01*
G01*
X179005000Y-114515000D01*
G75*
G02*
X178780000Y-114290000I0J225000D01*
G01*
X178780000Y-113840000D01*
G75*
G02*
X179005000Y-113615000I225000J0D01*
G01*
G37*
%TD*%
%TO.C,C21*%
G36*
G01*
X155880000Y-103690000D02*
X155880000Y-104190000D01*
G75*
G02*
X155655000Y-104415000I-225000J0D01*
G01*
X155205000Y-104415000D01*
G75*
G02*
X154980000Y-104190000I0J225000D01*
G01*
X154980000Y-103690000D01*
G75*
G02*
X155205000Y-103465000I225000J0D01*
G01*
X155655000Y-103465000D01*
G75*
G02*
X155880000Y-103690000I0J-225000D01*
G01*
G37*
G36*
G01*
X157430000Y-103690000D02*
X157430000Y-104190000D01*
G75*
G02*
X157205000Y-104415000I-225000J0D01*
G01*
X156755000Y-104415000D01*
G75*
G02*
X156530000Y-104190000I0J225000D01*
G01*
X156530000Y-103690000D01*
G75*
G02*
X156755000Y-103465000I225000J0D01*
G01*
X157205000Y-103465000D01*
G75*
G02*
X157430000Y-103690000I0J-225000D01*
G01*
G37*
%TD*%
%TO.C,C22*%
G36*
G01*
X157480000Y-88890000D02*
X157480000Y-89390000D01*
G75*
G02*
X157255000Y-89615000I-225000J0D01*
G01*
X156805000Y-89615000D01*
G75*
G02*
X156580000Y-89390000I0J225000D01*
G01*
X156580000Y-88890000D01*
G75*
G02*
X156805000Y-88665000I225000J0D01*
G01*
X157255000Y-88665000D01*
G75*
G02*
X157480000Y-88890000I0J-225000D01*
G01*
G37*
G36*
G01*
X155930000Y-88890000D02*
X155930000Y-89390000D01*
G75*
G02*
X155705000Y-89615000I-225000J0D01*
G01*
X155255000Y-89615000D01*
G75*
G02*
X155030000Y-89390000I0J225000D01*
G01*
X155030000Y-88890000D01*
G75*
G02*
X155255000Y-88665000I225000J0D01*
G01*
X155705000Y-88665000D01*
G75*
G02*
X155930000Y-88890000I0J-225000D01*
G01*
G37*
%TD*%
%TO.C,C23*%
G36*
G01*
X179505000Y-109915000D02*
X179005000Y-109915000D01*
G75*
G02*
X178780000Y-109690000I0J225000D01*
G01*
X178780000Y-109240000D01*
G75*
G02*
X179005000Y-109015000I225000J0D01*
G01*
X179505000Y-109015000D01*
G75*
G02*
X179730000Y-109240000I0J-225000D01*
G01*
X179730000Y-109690000D01*
G75*
G02*
X179505000Y-109915000I-225000J0D01*
G01*
G37*
G36*
G01*
X179505000Y-111465000D02*
X179005000Y-111465000D01*
G75*
G02*
X178780000Y-111240000I0J225000D01*
G01*
X178780000Y-110790000D01*
G75*
G02*
X179005000Y-110565000I225000J0D01*
G01*
X179505000Y-110565000D01*
G75*
G02*
X179730000Y-110790000I0J-225000D01*
G01*
X179730000Y-111240000D01*
G75*
G02*
X179505000Y-111465000I-225000J0D01*
G01*
G37*
%TD*%
%TO.C,C24*%
G36*
G01*
X157130000Y-100290000D02*
X157130000Y-100790000D01*
G75*
G02*
X156905000Y-101015000I-225000J0D01*
G01*
X156455000Y-101015000D01*
G75*
G02*
X156230000Y-100790000I0J225000D01*
G01*
X156230000Y-100290000D01*
G75*
G02*
X156455000Y-100065000I225000J0D01*
G01*
X156905000Y-100065000D01*
G75*
G02*
X157130000Y-100290000I0J-225000D01*
G01*
G37*
G36*
G01*
X158680000Y-100290000D02*
X158680000Y-100790000D01*
G75*
G02*
X158455000Y-101015000I-225000J0D01*
G01*
X158005000Y-101015000D01*
G75*
G02*
X157780000Y-100790000I0J225000D01*
G01*
X157780000Y-100290000D01*
G75*
G02*
X158005000Y-100065000I225000J0D01*
G01*
X158455000Y-100065000D01*
G75*
G02*
X158680000Y-100290000I0J-225000D01*
G01*
G37*
%TD*%
%TO.C,C25*%
G36*
G01*
X120585000Y-116065000D02*
X120585000Y-115115000D01*
G75*
G02*
X120835000Y-114865000I250000J0D01*
G01*
X121335000Y-114865000D01*
G75*
G02*
X121585000Y-115115000I0J-250000D01*
G01*
X121585000Y-116065000D01*
G75*
G02*
X121335000Y-116315000I-250000J0D01*
G01*
X120835000Y-116315000D01*
G75*
G02*
X120585000Y-116065000I0J250000D01*
G01*
G37*
G36*
G01*
X118685000Y-116065000D02*
X118685000Y-115115000D01*
G75*
G02*
X118935000Y-114865000I250000J0D01*
G01*
X119435000Y-114865000D01*
G75*
G02*
X119685000Y-115115000I0J-250000D01*
G01*
X119685000Y-116065000D01*
G75*
G02*
X119435000Y-116315000I-250000J0D01*
G01*
X118935000Y-116315000D01*
G75*
G02*
X118685000Y-116065000I0J250000D01*
G01*
G37*
%TD*%
%TO.C,C26*%
G36*
G01*
X120585000Y-98765000D02*
X120585000Y-97815000D01*
G75*
G02*
X120835000Y-97565000I250000J0D01*
G01*
X121335000Y-97565000D01*
G75*
G02*
X121585000Y-97815000I0J-250000D01*
G01*
X121585000Y-98765000D01*
G75*
G02*
X121335000Y-99015000I-250000J0D01*
G01*
X120835000Y-99015000D01*
G75*
G02*
X120585000Y-98765000I0J250000D01*
G01*
G37*
G36*
G01*
X118685000Y-98765000D02*
X118685000Y-97815000D01*
G75*
G02*
X118935000Y-97565000I250000J0D01*
G01*
X119435000Y-97565000D01*
G75*
G02*
X119685000Y-97815000I0J-250000D01*
G01*
X119685000Y-98765000D01*
G75*
G02*
X119435000Y-99015000I-250000J0D01*
G01*
X118935000Y-99015000D01*
G75*
G02*
X118685000Y-98765000I0J250000D01*
G01*
G37*
%TD*%
%TO.C,D1*%
G36*
G01*
X170525000Y-66326250D02*
X170525000Y-65813750D01*
G75*
G02*
X170743750Y-65595000I218750J0D01*
G01*
X171181250Y-65595000D01*
G75*
G02*
X171400000Y-65813750I0J-218750D01*
G01*
X171400000Y-66326250D01*
G75*
G02*
X171181250Y-66545000I-218750J0D01*
G01*
X170743750Y-66545000D01*
G75*
G02*
X170525000Y-66326250I0J218750D01*
G01*
G37*
G36*
G01*
X168950000Y-66326250D02*
X168950000Y-65813750D01*
G75*
G02*
X169168750Y-65595000I218750J0D01*
G01*
X169606250Y-65595000D01*
G75*
G02*
X169825000Y-65813750I0J-218750D01*
G01*
X169825000Y-66326250D01*
G75*
G02*
X169606250Y-66545000I-218750J0D01*
G01*
X169168750Y-66545000D01*
G75*
G02*
X168950000Y-66326250I0J218750D01*
G01*
G37*
%TD*%
%TO.C,D4*%
G36*
G01*
X166830001Y-85015000D02*
X164679999Y-85015000D01*
G75*
G02*
X164430000Y-84765001I0J249999D01*
G01*
X164430000Y-83914999D01*
G75*
G02*
X164679999Y-83665000I249999J0D01*
G01*
X166830001Y-83665000D01*
G75*
G02*
X167080000Y-83914999I0J-249999D01*
G01*
X167080000Y-84765001D01*
G75*
G02*
X166830001Y-85015000I-249999J0D01*
G01*
G37*
G36*
G01*
X166830001Y-89515000D02*
X164679999Y-89515000D01*
G75*
G02*
X164430000Y-89265001I0J249999D01*
G01*
X164430000Y-88414999D01*
G75*
G02*
X164679999Y-88165000I249999J0D01*
G01*
X166830001Y-88165000D01*
G75*
G02*
X167080000Y-88414999I0J-249999D01*
G01*
X167080000Y-89265001D01*
G75*
G02*
X166830001Y-89515000I-249999J0D01*
G01*
G37*
%TD*%
%TO.C,D6*%
G36*
G01*
X158930000Y-107164999D02*
X158930000Y-109315001D01*
G75*
G02*
X158680001Y-109565000I-249999J0D01*
G01*
X157829999Y-109565000D01*
G75*
G02*
X157580000Y-109315001I0J249999D01*
G01*
X157580000Y-107164999D01*
G75*
G02*
X157829999Y-106915000I249999J0D01*
G01*
X158680001Y-106915000D01*
G75*
G02*
X158930000Y-107164999I0J-249999D01*
G01*
G37*
G36*
G01*
X154430000Y-107164999D02*
X154430000Y-109315001D01*
G75*
G02*
X154180001Y-109565000I-249999J0D01*
G01*
X153329999Y-109565000D01*
G75*
G02*
X153080000Y-109315001I0J249999D01*
G01*
X153080000Y-107164999D01*
G75*
G02*
X153329999Y-106915000I249999J0D01*
G01*
X154180001Y-106915000D01*
G75*
G02*
X154430000Y-107164999I0J-249999D01*
G01*
G37*
%TD*%
%TO.C,D7*%
G36*
G01*
X170230001Y-89515000D02*
X168079999Y-89515000D01*
G75*
G02*
X167830000Y-89265001I0J249999D01*
G01*
X167830000Y-88414999D01*
G75*
G02*
X168079999Y-88165000I249999J0D01*
G01*
X170230001Y-88165000D01*
G75*
G02*
X170480000Y-88414999I0J-249999D01*
G01*
X170480000Y-89265001D01*
G75*
G02*
X170230001Y-89515000I-249999J0D01*
G01*
G37*
G36*
G01*
X170230001Y-85015000D02*
X168079999Y-85015000D01*
G75*
G02*
X167830000Y-84765001I0J249999D01*
G01*
X167830000Y-83914999D01*
G75*
G02*
X168079999Y-83665000I249999J0D01*
G01*
X170230001Y-83665000D01*
G75*
G02*
X170480000Y-83914999I0J-249999D01*
G01*
X170480000Y-84765001D01*
G75*
G02*
X170230001Y-85015000I-249999J0D01*
G01*
G37*
%TD*%
%TO.C,D8*%
G36*
G01*
X152480000Y-99065001D02*
X152480000Y-96914999D01*
G75*
G02*
X152729999Y-96665000I249999J0D01*
G01*
X153580001Y-96665000D01*
G75*
G02*
X153830000Y-96914999I0J-249999D01*
G01*
X153830000Y-99065001D01*
G75*
G02*
X153580001Y-99315000I-249999J0D01*
G01*
X152729999Y-99315000D01*
G75*
G02*
X152480000Y-99065001I0J249999D01*
G01*
G37*
G36*
G01*
X156980000Y-99065001D02*
X156980000Y-96914999D01*
G75*
G02*
X157229999Y-96665000I249999J0D01*
G01*
X158080001Y-96665000D01*
G75*
G02*
X158330000Y-96914999I0J-249999D01*
G01*
X158330000Y-99065001D01*
G75*
G02*
X158080001Y-99315000I-249999J0D01*
G01*
X157229999Y-99315000D01*
G75*
G02*
X156980000Y-99065001I0J249999D01*
G01*
G37*
%TD*%
%TO.C,D9*%
G36*
G01*
X153830000Y-93564999D02*
X153830000Y-95715001D01*
G75*
G02*
X153580001Y-95965000I-249999J0D01*
G01*
X152729999Y-95965000D01*
G75*
G02*
X152480000Y-95715001I0J249999D01*
G01*
X152480000Y-93564999D01*
G75*
G02*
X152729999Y-93315000I249999J0D01*
G01*
X153580001Y-93315000D01*
G75*
G02*
X153830000Y-93564999I0J-249999D01*
G01*
G37*
G36*
G01*
X158330000Y-93564999D02*
X158330000Y-95715001D01*
G75*
G02*
X158080001Y-95965000I-249999J0D01*
G01*
X157229999Y-95965000D01*
G75*
G02*
X156980000Y-95715001I0J249999D01*
G01*
X156980000Y-93564999D01*
G75*
G02*
X157229999Y-93315000I249999J0D01*
G01*
X158080001Y-93315000D01*
G75*
G02*
X158330000Y-93564999I0J-249999D01*
G01*
G37*
%TD*%
%TO.C,D10*%
G36*
G01*
X163430001Y-85015000D02*
X161279999Y-85015000D01*
G75*
G02*
X161030000Y-84765001I0J249999D01*
G01*
X161030000Y-83914999D01*
G75*
G02*
X161279999Y-83665000I249999J0D01*
G01*
X163430001Y-83665000D01*
G75*
G02*
X163680000Y-83914999I0J-249999D01*
G01*
X163680000Y-84765001D01*
G75*
G02*
X163430001Y-85015000I-249999J0D01*
G01*
G37*
G36*
G01*
X163430001Y-89515000D02*
X161279999Y-89515000D01*
G75*
G02*
X161030000Y-89265001I0J249999D01*
G01*
X161030000Y-88414999D01*
G75*
G02*
X161279999Y-88165000I249999J0D01*
G01*
X163430001Y-88165000D01*
G75*
G02*
X163680000Y-88414999I0J-249999D01*
G01*
X163680000Y-89265001D01*
G75*
G02*
X163430001Y-89515000I-249999J0D01*
G01*
G37*
%TD*%
%TO.C,D11*%
G36*
G01*
X153330000Y-87165001D02*
X153330000Y-85014999D01*
G75*
G02*
X153579999Y-84765000I249999J0D01*
G01*
X154430001Y-84765000D01*
G75*
G02*
X154680000Y-85014999I0J-249999D01*
G01*
X154680000Y-87165001D01*
G75*
G02*
X154430001Y-87415000I-249999J0D01*
G01*
X153579999Y-87415000D01*
G75*
G02*
X153330000Y-87165001I0J249999D01*
G01*
G37*
G36*
G01*
X157830000Y-87165001D02*
X157830000Y-85014999D01*
G75*
G02*
X158079999Y-84765000I249999J0D01*
G01*
X158930001Y-84765000D01*
G75*
G02*
X159180000Y-85014999I0J-249999D01*
G01*
X159180000Y-87165001D01*
G75*
G02*
X158930001Y-87415000I-249999J0D01*
G01*
X158079999Y-87415000D01*
G75*
G02*
X157830000Y-87165001I0J249999D01*
G01*
G37*
%TD*%
%TO.C,D12*%
G36*
G01*
X154630000Y-81664999D02*
X154630000Y-83815001D01*
G75*
G02*
X154380001Y-84065000I-249999J0D01*
G01*
X153529999Y-84065000D01*
G75*
G02*
X153280000Y-83815001I0J249999D01*
G01*
X153280000Y-81664999D01*
G75*
G02*
X153529999Y-81415000I249999J0D01*
G01*
X154380001Y-81415000D01*
G75*
G02*
X154630000Y-81664999I0J-249999D01*
G01*
G37*
G36*
G01*
X159130000Y-81664999D02*
X159130000Y-83815001D01*
G75*
G02*
X158880001Y-84065000I-249999J0D01*
G01*
X158029999Y-84065000D01*
G75*
G02*
X157780000Y-83815001I0J249999D01*
G01*
X157780000Y-81664999D01*
G75*
G02*
X158029999Y-81415000I249999J0D01*
G01*
X158880001Y-81415000D01*
G75*
G02*
X159130000Y-81664999I0J-249999D01*
G01*
G37*
%TD*%
%TO.C,FB1*%
G36*
G01*
X166875000Y-64038750D02*
X166875000Y-64801250D01*
G75*
G02*
X166656250Y-65020000I-218750J0D01*
G01*
X166218750Y-65020000D01*
G75*
G02*
X166000000Y-64801250I0J218750D01*
G01*
X166000000Y-64038750D01*
G75*
G02*
X166218750Y-63820000I218750J0D01*
G01*
X166656250Y-63820000D01*
G75*
G02*
X166875000Y-64038750I0J-218750D01*
G01*
G37*
G36*
G01*
X164750000Y-64038750D02*
X164750000Y-64801250D01*
G75*
G02*
X164531250Y-65020000I-218750J0D01*
G01*
X164093750Y-65020000D01*
G75*
G02*
X163875000Y-64801250I0J218750D01*
G01*
X163875000Y-64038750D01*
G75*
G02*
X164093750Y-63820000I218750J0D01*
G01*
X164531250Y-63820000D01*
G75*
G02*
X164750000Y-64038750I0J-218750D01*
G01*
G37*
%TD*%
%TO.C,R1*%
G36*
G01*
X158950000Y-69395000D02*
X158950000Y-68845000D01*
G75*
G02*
X159150000Y-68645000I200000J0D01*
G01*
X159550000Y-68645000D01*
G75*
G02*
X159750000Y-68845000I0J-200000D01*
G01*
X159750000Y-69395000D01*
G75*
G02*
X159550000Y-69595000I-200000J0D01*
G01*
X159150000Y-69595000D01*
G75*
G02*
X158950000Y-69395000I0J200000D01*
G01*
G37*
G36*
G01*
X160600000Y-69395000D02*
X160600000Y-68845000D01*
G75*
G02*
X160800000Y-68645000I200000J0D01*
G01*
X161200000Y-68645000D01*
G75*
G02*
X161400000Y-68845000I0J-200000D01*
G01*
X161400000Y-69395000D01*
G75*
G02*
X161200000Y-69595000I-200000J0D01*
G01*
X160800000Y-69595000D01*
G75*
G02*
X160600000Y-69395000I0J200000D01*
G01*
G37*
%TD*%
%TO.C,R2*%
G36*
G01*
X159750000Y-70445000D02*
X159750000Y-70995000D01*
G75*
G02*
X159550000Y-71195000I-200000J0D01*
G01*
X159150000Y-71195000D01*
G75*
G02*
X158950000Y-70995000I0J200000D01*
G01*
X158950000Y-70445000D01*
G75*
G02*
X159150000Y-70245000I200000J0D01*
G01*
X159550000Y-70245000D01*
G75*
G02*
X159750000Y-70445000I0J-200000D01*
G01*
G37*
G36*
G01*
X161400000Y-70445000D02*
X161400000Y-70995000D01*
G75*
G02*
X161200000Y-71195000I-200000J0D01*
G01*
X160800000Y-71195000D01*
G75*
G02*
X160600000Y-70995000I0J200000D01*
G01*
X160600000Y-70445000D01*
G75*
G02*
X160800000Y-70245000I200000J0D01*
G01*
X161200000Y-70245000D01*
G75*
G02*
X161400000Y-70445000I0J-200000D01*
G01*
G37*
%TD*%
%TO.C,R3*%
G36*
G01*
X170600000Y-64745000D02*
X170600000Y-64195000D01*
G75*
G02*
X170800000Y-63995000I200000J0D01*
G01*
X171200000Y-63995000D01*
G75*
G02*
X171400000Y-64195000I0J-200000D01*
G01*
X171400000Y-64745000D01*
G75*
G02*
X171200000Y-64945000I-200000J0D01*
G01*
X170800000Y-64945000D01*
G75*
G02*
X170600000Y-64745000I0J200000D01*
G01*
G37*
G36*
G01*
X168950000Y-64745000D02*
X168950000Y-64195000D01*
G75*
G02*
X169150000Y-63995000I200000J0D01*
G01*
X169550000Y-63995000D01*
G75*
G02*
X169750000Y-64195000I0J-200000D01*
G01*
X169750000Y-64745000D01*
G75*
G02*
X169550000Y-64945000I-200000J0D01*
G01*
X169150000Y-64945000D01*
G75*
G02*
X168950000Y-64745000I0J200000D01*
G01*
G37*
%TD*%
%TO.C,R5*%
G36*
G01*
X174630000Y-78490000D02*
X174630000Y-77940000D01*
G75*
G02*
X174830000Y-77740000I200000J0D01*
G01*
X175230000Y-77740000D01*
G75*
G02*
X175430000Y-77940000I0J-200000D01*
G01*
X175430000Y-78490000D01*
G75*
G02*
X175230000Y-78690000I-200000J0D01*
G01*
X174830000Y-78690000D01*
G75*
G02*
X174630000Y-78490000I0J200000D01*
G01*
G37*
G36*
G01*
X172980000Y-78490000D02*
X172980000Y-77940000D01*
G75*
G02*
X173180000Y-77740000I200000J0D01*
G01*
X173580000Y-77740000D01*
G75*
G02*
X173780000Y-77940000I0J-200000D01*
G01*
X173780000Y-78490000D01*
G75*
G02*
X173580000Y-78690000I-200000J0D01*
G01*
X173180000Y-78690000D01*
G75*
G02*
X172980000Y-78490000I0J200000D01*
G01*
G37*
%TD*%
%TO.C,R6*%
G36*
G01*
X189355000Y-97390000D02*
X188805000Y-97390000D01*
G75*
G02*
X188605000Y-97190000I0J200000D01*
G01*
X188605000Y-96790000D01*
G75*
G02*
X188805000Y-96590000I200000J0D01*
G01*
X189355000Y-96590000D01*
G75*
G02*
X189555000Y-96790000I0J-200000D01*
G01*
X189555000Y-97190000D01*
G75*
G02*
X189355000Y-97390000I-200000J0D01*
G01*
G37*
G36*
G01*
X189355000Y-95740000D02*
X188805000Y-95740000D01*
G75*
G02*
X188605000Y-95540000I0J200000D01*
G01*
X188605000Y-95140000D01*
G75*
G02*
X188805000Y-94940000I200000J0D01*
G01*
X189355000Y-94940000D01*
G75*
G02*
X189555000Y-95140000I0J-200000D01*
G01*
X189555000Y-95540000D01*
G75*
G02*
X189355000Y-95740000I-200000J0D01*
G01*
G37*
%TD*%
%TO.C,R9*%
G36*
G01*
X173955000Y-89690000D02*
X174505000Y-89690000D01*
G75*
G02*
X174705000Y-89890000I0J-200000D01*
G01*
X174705000Y-90290000D01*
G75*
G02*
X174505000Y-90490000I-200000J0D01*
G01*
X173955000Y-90490000D01*
G75*
G02*
X173755000Y-90290000I0J200000D01*
G01*
X173755000Y-89890000D01*
G75*
G02*
X173955000Y-89690000I200000J0D01*
G01*
G37*
G36*
G01*
X173955000Y-88040000D02*
X174505000Y-88040000D01*
G75*
G02*
X174705000Y-88240000I0J-200000D01*
G01*
X174705000Y-88640000D01*
G75*
G02*
X174505000Y-88840000I-200000J0D01*
G01*
X173955000Y-88840000D01*
G75*
G02*
X173755000Y-88640000I0J200000D01*
G01*
X173755000Y-88240000D01*
G75*
G02*
X173955000Y-88040000I200000J0D01*
G01*
G37*
%TD*%
%TO.C,R10*%
G36*
G01*
X173630000Y-107715000D02*
X173080000Y-107715000D01*
G75*
G02*
X172880000Y-107515000I0J200000D01*
G01*
X172880000Y-107115000D01*
G75*
G02*
X173080000Y-106915000I200000J0D01*
G01*
X173630000Y-106915000D01*
G75*
G02*
X173830000Y-107115000I0J-200000D01*
G01*
X173830000Y-107515000D01*
G75*
G02*
X173630000Y-107715000I-200000J0D01*
G01*
G37*
G36*
G01*
X173630000Y-109365000D02*
X173080000Y-109365000D01*
G75*
G02*
X172880000Y-109165000I0J200000D01*
G01*
X172880000Y-108765000D01*
G75*
G02*
X173080000Y-108565000I200000J0D01*
G01*
X173630000Y-108565000D01*
G75*
G02*
X173830000Y-108765000I0J-200000D01*
G01*
X173830000Y-109165000D01*
G75*
G02*
X173630000Y-109365000I-200000J0D01*
G01*
G37*
%TD*%
%TO.C,R11*%
G36*
G01*
X135660000Y-100515000D02*
X135660000Y-101065000D01*
G75*
G02*
X135460000Y-101265000I-200000J0D01*
G01*
X135060000Y-101265000D01*
G75*
G02*
X134860000Y-101065000I0J200000D01*
G01*
X134860000Y-100515000D01*
G75*
G02*
X135060000Y-100315000I200000J0D01*
G01*
X135460000Y-100315000D01*
G75*
G02*
X135660000Y-100515000I0J-200000D01*
G01*
G37*
G36*
G01*
X137310000Y-100515000D02*
X137310000Y-101065000D01*
G75*
G02*
X137110000Y-101265000I-200000J0D01*
G01*
X136710000Y-101265000D01*
G75*
G02*
X136510000Y-101065000I0J200000D01*
G01*
X136510000Y-100515000D01*
G75*
G02*
X136710000Y-100315000I200000J0D01*
G01*
X137110000Y-100315000D01*
G75*
G02*
X137310000Y-100515000I0J-200000D01*
G01*
G37*
%TD*%
%TO.C,R12*%
G36*
G01*
X135660000Y-94465000D02*
X135660000Y-95015000D01*
G75*
G02*
X135460000Y-95215000I-200000J0D01*
G01*
X135060000Y-95215000D01*
G75*
G02*
X134860000Y-95015000I0J200000D01*
G01*
X134860000Y-94465000D01*
G75*
G02*
X135060000Y-94265000I200000J0D01*
G01*
X135460000Y-94265000D01*
G75*
G02*
X135660000Y-94465000I0J-200000D01*
G01*
G37*
G36*
G01*
X137310000Y-94465000D02*
X137310000Y-95015000D01*
G75*
G02*
X137110000Y-95215000I-200000J0D01*
G01*
X136710000Y-95215000D01*
G75*
G02*
X136510000Y-95015000I0J200000D01*
G01*
X136510000Y-94465000D01*
G75*
G02*
X136710000Y-94265000I200000J0D01*
G01*
X137110000Y-94265000D01*
G75*
G02*
X137310000Y-94465000I0J-200000D01*
G01*
G37*
%TD*%
%TO.C,R13*%
G36*
G01*
X135660000Y-77165000D02*
X135660000Y-77715000D01*
G75*
G02*
X135460000Y-77915000I-200000J0D01*
G01*
X135060000Y-77915000D01*
G75*
G02*
X134860000Y-77715000I0J200000D01*
G01*
X134860000Y-77165000D01*
G75*
G02*
X135060000Y-76965000I200000J0D01*
G01*
X135460000Y-76965000D01*
G75*
G02*
X135660000Y-77165000I0J-200000D01*
G01*
G37*
G36*
G01*
X137310000Y-77165000D02*
X137310000Y-77715000D01*
G75*
G02*
X137110000Y-77915000I-200000J0D01*
G01*
X136710000Y-77915000D01*
G75*
G02*
X136510000Y-77715000I0J200000D01*
G01*
X136510000Y-77165000D01*
G75*
G02*
X136710000Y-76965000I200000J0D01*
G01*
X137110000Y-76965000D01*
G75*
G02*
X137310000Y-77165000I0J-200000D01*
G01*
G37*
%TD*%
%TO.C,R14*%
G36*
G01*
X137260000Y-83315000D02*
X137260000Y-83865000D01*
G75*
G02*
X137060000Y-84065000I-200000J0D01*
G01*
X136660000Y-84065000D01*
G75*
G02*
X136460000Y-83865000I0J200000D01*
G01*
X136460000Y-83315000D01*
G75*
G02*
X136660000Y-83115000I200000J0D01*
G01*
X137060000Y-83115000D01*
G75*
G02*
X137260000Y-83315000I0J-200000D01*
G01*
G37*
G36*
G01*
X135610000Y-83315000D02*
X135610000Y-83865000D01*
G75*
G02*
X135410000Y-84065000I-200000J0D01*
G01*
X135010000Y-84065000D01*
G75*
G02*
X134810000Y-83865000I0J200000D01*
G01*
X134810000Y-83315000D01*
G75*
G02*
X135010000Y-83115000I200000J0D01*
G01*
X135410000Y-83115000D01*
G75*
G02*
X135610000Y-83315000I0J-200000D01*
G01*
G37*
%TD*%
%TO.C,R16*%
G36*
G01*
X135685000Y-117915000D02*
X135685000Y-118465000D01*
G75*
G02*
X135485000Y-118665000I-200000J0D01*
G01*
X135085000Y-118665000D01*
G75*
G02*
X134885000Y-118465000I0J200000D01*
G01*
X134885000Y-117915000D01*
G75*
G02*
X135085000Y-117715000I200000J0D01*
G01*
X135485000Y-117715000D01*
G75*
G02*
X135685000Y-117915000I0J-200000D01*
G01*
G37*
G36*
G01*
X137335000Y-117915000D02*
X137335000Y-118465000D01*
G75*
G02*
X137135000Y-118665000I-200000J0D01*
G01*
X136735000Y-118665000D01*
G75*
G02*
X136535000Y-118465000I0J200000D01*
G01*
X136535000Y-117915000D01*
G75*
G02*
X136735000Y-117715000I200000J0D01*
G01*
X137135000Y-117715000D01*
G75*
G02*
X137335000Y-117915000I0J-200000D01*
G01*
G37*
%TD*%
%TO.C,R17*%
G36*
G01*
X135610000Y-110915000D02*
X135060000Y-110915000D01*
G75*
G02*
X134860000Y-110715000I0J200000D01*
G01*
X134860000Y-110315000D01*
G75*
G02*
X135060000Y-110115000I200000J0D01*
G01*
X135610000Y-110115000D01*
G75*
G02*
X135810000Y-110315000I0J-200000D01*
G01*
X135810000Y-110715000D01*
G75*
G02*
X135610000Y-110915000I-200000J0D01*
G01*
G37*
G36*
G01*
X135610000Y-109265000D02*
X135060000Y-109265000D01*
G75*
G02*
X134860000Y-109065000I0J200000D01*
G01*
X134860000Y-108665000D01*
G75*
G02*
X135060000Y-108465000I200000J0D01*
G01*
X135610000Y-108465000D01*
G75*
G02*
X135810000Y-108665000I0J-200000D01*
G01*
X135810000Y-109065000D01*
G75*
G02*
X135610000Y-109265000I-200000J0D01*
G01*
G37*
%TD*%
%TO.C,R18*%
G36*
G01*
X135610000Y-91965000D02*
X135060000Y-91965000D01*
G75*
G02*
X134860000Y-91765000I0J200000D01*
G01*
X134860000Y-91365000D01*
G75*
G02*
X135060000Y-91165000I200000J0D01*
G01*
X135610000Y-91165000D01*
G75*
G02*
X135810000Y-91365000I0J-200000D01*
G01*
X135810000Y-91765000D01*
G75*
G02*
X135610000Y-91965000I-200000J0D01*
G01*
G37*
G36*
G01*
X135610000Y-93615000D02*
X135060000Y-93615000D01*
G75*
G02*
X134860000Y-93415000I0J200000D01*
G01*
X134860000Y-93015000D01*
G75*
G02*
X135060000Y-92815000I200000J0D01*
G01*
X135610000Y-92815000D01*
G75*
G02*
X135810000Y-93015000I0J-200000D01*
G01*
X135810000Y-93415000D01*
G75*
G02*
X135610000Y-93615000I-200000J0D01*
G01*
G37*
%TD*%
%TO.C,R19*%
G36*
G01*
X135610000Y-74665000D02*
X135060000Y-74665000D01*
G75*
G02*
X134860000Y-74465000I0J200000D01*
G01*
X134860000Y-74065000D01*
G75*
G02*
X135060000Y-73865000I200000J0D01*
G01*
X135610000Y-73865000D01*
G75*
G02*
X135810000Y-74065000I0J-200000D01*
G01*
X135810000Y-74465000D01*
G75*
G02*
X135610000Y-74665000I-200000J0D01*
G01*
G37*
G36*
G01*
X135610000Y-76315000D02*
X135060000Y-76315000D01*
G75*
G02*
X134860000Y-76115000I0J200000D01*
G01*
X134860000Y-75715000D01*
G75*
G02*
X135060000Y-75515000I200000J0D01*
G01*
X135610000Y-75515000D01*
G75*
G02*
X135810000Y-75715000I0J-200000D01*
G01*
X135810000Y-76115000D01*
G75*
G02*
X135610000Y-76315000I-200000J0D01*
G01*
G37*
%TD*%
D16*
%TO.C,SW1*%
X176855000Y-78265000D03*
X176855000Y-79865000D03*
X180955000Y-78265000D03*
X180955000Y-79865000D03*
%TD*%
D17*
%TO.C,U1*%
X165200000Y-70620000D03*
X164550000Y-70620000D03*
X163900000Y-70620000D03*
X165850000Y-70620000D03*
D18*
X163075000Y-69145000D03*
X163075000Y-68495000D03*
X163075000Y-69795000D03*
X163075000Y-67845000D03*
X166675000Y-69795000D03*
X166675000Y-69145000D03*
X166675000Y-68495000D03*
X166675000Y-67845000D03*
D17*
X163900000Y-67020000D03*
X164550000Y-67020000D03*
X165200000Y-67020000D03*
X165850000Y-67020000D03*
D19*
X164875000Y-68820000D03*
%TD*%
%TO.C,U10*%
G36*
G01*
X175855000Y-113540000D02*
X175555000Y-113540000D01*
G75*
G02*
X175405000Y-113390000I0J150000D01*
G01*
X175405000Y-112365000D01*
G75*
G02*
X175555000Y-112215000I150000J0D01*
G01*
X175855000Y-112215000D01*
G75*
G02*
X176005000Y-112365000I0J-150000D01*
G01*
X176005000Y-113390000D01*
G75*
G02*
X175855000Y-113540000I-150000J0D01*
G01*
G37*
G36*
G01*
X176805000Y-113540000D02*
X176505000Y-113540000D01*
G75*
G02*
X176355000Y-113390000I0J150000D01*
G01*
X176355000Y-112365000D01*
G75*
G02*
X176505000Y-112215000I150000J0D01*
G01*
X176805000Y-112215000D01*
G75*
G02*
X176955000Y-112365000I0J-150000D01*
G01*
X176955000Y-113390000D01*
G75*
G02*
X176805000Y-113540000I-150000J0D01*
G01*
G37*
G36*
G01*
X177755000Y-113540000D02*
X177455000Y-113540000D01*
G75*
G02*
X177305000Y-113390000I0J150000D01*
G01*
X177305000Y-112365000D01*
G75*
G02*
X177455000Y-112215000I150000J0D01*
G01*
X177755000Y-112215000D01*
G75*
G02*
X177905000Y-112365000I0J-150000D01*
G01*
X177905000Y-113390000D01*
G75*
G02*
X177755000Y-113540000I-150000J0D01*
G01*
G37*
G36*
G01*
X177755000Y-111265000D02*
X177455000Y-111265000D01*
G75*
G02*
X177305000Y-111115000I0J150000D01*
G01*
X177305000Y-110090000D01*
G75*
G02*
X177455000Y-109940000I150000J0D01*
G01*
X177755000Y-109940000D01*
G75*
G02*
X177905000Y-110090000I0J-150000D01*
G01*
X177905000Y-111115000D01*
G75*
G02*
X177755000Y-111265000I-150000J0D01*
G01*
G37*
G36*
G01*
X175855000Y-111265000D02*
X175555000Y-111265000D01*
G75*
G02*
X175405000Y-111115000I0J150000D01*
G01*
X175405000Y-110090000D01*
G75*
G02*
X175555000Y-109940000I150000J0D01*
G01*
X175855000Y-109940000D01*
G75*
G02*
X176005000Y-110090000I0J-150000D01*
G01*
X176005000Y-111115000D01*
G75*
G02*
X175855000Y-111265000I-150000J0D01*
G01*
G37*
%TD*%
%TO.C,R22*%
G36*
G01*
X161200000Y-75995000D02*
X160650000Y-75995000D01*
G75*
G02*
X160450000Y-75795000I0J200000D01*
G01*
X160450000Y-75395000D01*
G75*
G02*
X160650000Y-75195000I200000J0D01*
G01*
X161200000Y-75195000D01*
G75*
G02*
X161400000Y-75395000I0J-200000D01*
G01*
X161400000Y-75795000D01*
G75*
G02*
X161200000Y-75995000I-200000J0D01*
G01*
G37*
G36*
G01*
X161200000Y-74345000D02*
X160650000Y-74345000D01*
G75*
G02*
X160450000Y-74145000I0J200000D01*
G01*
X160450000Y-73745000D01*
G75*
G02*
X160650000Y-73545000I200000J0D01*
G01*
X161200000Y-73545000D01*
G75*
G02*
X161400000Y-73745000I0J-200000D01*
G01*
X161400000Y-74145000D01*
G75*
G02*
X161200000Y-74345000I-200000J0D01*
G01*
G37*
%TD*%
%TO.C,R23*%
G36*
G01*
X167250000Y-71895000D02*
X167250000Y-72445000D01*
G75*
G02*
X167050000Y-72645000I-200000J0D01*
G01*
X166650000Y-72645000D01*
G75*
G02*
X166450000Y-72445000I0J200000D01*
G01*
X166450000Y-71895000D01*
G75*
G02*
X166650000Y-71695000I200000J0D01*
G01*
X167050000Y-71695000D01*
G75*
G02*
X167250000Y-71895000I0J-200000D01*
G01*
G37*
G36*
G01*
X168900000Y-71895000D02*
X168900000Y-72445000D01*
G75*
G02*
X168700000Y-72645000I-200000J0D01*
G01*
X168300000Y-72645000D01*
G75*
G02*
X168100000Y-72445000I0J200000D01*
G01*
X168100000Y-71895000D01*
G75*
G02*
X168300000Y-71695000I200000J0D01*
G01*
X168700000Y-71695000D01*
G75*
G02*
X168900000Y-71895000I0J-200000D01*
G01*
G37*
%TD*%
%TO.C,R24*%
G36*
G01*
X166655000Y-81715000D02*
X166655000Y-81165000D01*
G75*
G02*
X166855000Y-80965000I200000J0D01*
G01*
X167255000Y-80965000D01*
G75*
G02*
X167455000Y-81165000I0J-200000D01*
G01*
X167455000Y-81715000D01*
G75*
G02*
X167255000Y-81915000I-200000J0D01*
G01*
X166855000Y-81915000D01*
G75*
G02*
X166655000Y-81715000I0J200000D01*
G01*
G37*
G36*
G01*
X168305000Y-81715000D02*
X168305000Y-81165000D01*
G75*
G02*
X168505000Y-80965000I200000J0D01*
G01*
X168905000Y-80965000D01*
G75*
G02*
X169105000Y-81165000I0J-200000D01*
G01*
X169105000Y-81715000D01*
G75*
G02*
X168905000Y-81915000I-200000J0D01*
G01*
X168505000Y-81915000D01*
G75*
G02*
X168305000Y-81715000I0J200000D01*
G01*
G37*
%TD*%
%TO.C,R25*%
G36*
G01*
X169305000Y-79515000D02*
X169305000Y-80065000D01*
G75*
G02*
X169105000Y-80265000I-200000J0D01*
G01*
X168705000Y-80265000D01*
G75*
G02*
X168505000Y-80065000I0J200000D01*
G01*
X168505000Y-79515000D01*
G75*
G02*
X168705000Y-79315000I200000J0D01*
G01*
X169105000Y-79315000D01*
G75*
G02*
X169305000Y-79515000I0J-200000D01*
G01*
G37*
G36*
G01*
X170955000Y-79515000D02*
X170955000Y-80065000D01*
G75*
G02*
X170755000Y-80265000I-200000J0D01*
G01*
X170355000Y-80265000D01*
G75*
G02*
X170155000Y-80065000I0J200000D01*
G01*
X170155000Y-79515000D01*
G75*
G02*
X170355000Y-79315000I200000J0D01*
G01*
X170755000Y-79315000D01*
G75*
G02*
X170955000Y-79515000I0J-200000D01*
G01*
G37*
%TD*%
D20*
%TO.C,U11*%
X163585000Y-72567500D03*
X164085000Y-72567500D03*
X164585000Y-72567500D03*
D21*
X164585000Y-71817500D03*
X164085000Y-71817500D03*
X163585000Y-71817500D03*
%TD*%
%TO.C,R26*%
G36*
G01*
X160600000Y-66195000D02*
X160600000Y-65645000D01*
G75*
G02*
X160800000Y-65445000I200000J0D01*
G01*
X161200000Y-65445000D01*
G75*
G02*
X161400000Y-65645000I0J-200000D01*
G01*
X161400000Y-66195000D01*
G75*
G02*
X161200000Y-66395000I-200000J0D01*
G01*
X160800000Y-66395000D01*
G75*
G02*
X160600000Y-66195000I0J200000D01*
G01*
G37*
G36*
G01*
X158950000Y-66195000D02*
X158950000Y-65645000D01*
G75*
G02*
X159150000Y-65445000I200000J0D01*
G01*
X159550000Y-65445000D01*
G75*
G02*
X159750000Y-65645000I0J-200000D01*
G01*
X159750000Y-66195000D01*
G75*
G02*
X159550000Y-66395000I-200000J0D01*
G01*
X159150000Y-66395000D01*
G75*
G02*
X158950000Y-66195000I0J200000D01*
G01*
G37*
%TD*%
%TO.C,R27*%
G36*
G01*
X158950000Y-64595000D02*
X158950000Y-64045000D01*
G75*
G02*
X159150000Y-63845000I200000J0D01*
G01*
X159550000Y-63845000D01*
G75*
G02*
X159750000Y-64045000I0J-200000D01*
G01*
X159750000Y-64595000D01*
G75*
G02*
X159550000Y-64795000I-200000J0D01*
G01*
X159150000Y-64795000D01*
G75*
G02*
X158950000Y-64595000I0J200000D01*
G01*
G37*
G36*
G01*
X160600000Y-64595000D02*
X160600000Y-64045000D01*
G75*
G02*
X160800000Y-63845000I200000J0D01*
G01*
X161200000Y-63845000D01*
G75*
G02*
X161400000Y-64045000I0J-200000D01*
G01*
X161400000Y-64595000D01*
G75*
G02*
X161200000Y-64795000I-200000J0D01*
G01*
X160800000Y-64795000D01*
G75*
G02*
X160600000Y-64595000I0J200000D01*
G01*
G37*
%TD*%
%TO.C,R28*%
G36*
G01*
X183805000Y-122740000D02*
X183805000Y-122190000D01*
G75*
G02*
X184005000Y-121990000I200000J0D01*
G01*
X184405000Y-121990000D01*
G75*
G02*
X184605000Y-122190000I0J-200000D01*
G01*
X184605000Y-122740000D01*
G75*
G02*
X184405000Y-122940000I-200000J0D01*
G01*
X184005000Y-122940000D01*
G75*
G02*
X183805000Y-122740000I0J200000D01*
G01*
G37*
G36*
G01*
X185455000Y-122740000D02*
X185455000Y-122190000D01*
G75*
G02*
X185655000Y-121990000I200000J0D01*
G01*
X186055000Y-121990000D01*
G75*
G02*
X186255000Y-122190000I0J-200000D01*
G01*
X186255000Y-122740000D01*
G75*
G02*
X186055000Y-122940000I-200000J0D01*
G01*
X185655000Y-122940000D01*
G75*
G02*
X185455000Y-122740000I0J200000D01*
G01*
G37*
%TD*%
%TO.C,R29*%
G36*
G01*
X183805000Y-121165000D02*
X183805000Y-120615000D01*
G75*
G02*
X184005000Y-120415000I200000J0D01*
G01*
X184405000Y-120415000D01*
G75*
G02*
X184605000Y-120615000I0J-200000D01*
G01*
X184605000Y-121165000D01*
G75*
G02*
X184405000Y-121365000I-200000J0D01*
G01*
X184005000Y-121365000D01*
G75*
G02*
X183805000Y-121165000I0J200000D01*
G01*
G37*
G36*
G01*
X185455000Y-121165000D02*
X185455000Y-120615000D01*
G75*
G02*
X185655000Y-120415000I200000J0D01*
G01*
X186055000Y-120415000D01*
G75*
G02*
X186255000Y-120615000I0J-200000D01*
G01*
X186255000Y-121165000D01*
G75*
G02*
X186055000Y-121365000I-200000J0D01*
G01*
X185655000Y-121365000D01*
G75*
G02*
X185455000Y-121165000I0J200000D01*
G01*
G37*
%TD*%
%TO.C,R30*%
G36*
G01*
X185455000Y-124315000D02*
X185455000Y-123765000D01*
G75*
G02*
X185655000Y-123565000I200000J0D01*
G01*
X186055000Y-123565000D01*
G75*
G02*
X186255000Y-123765000I0J-200000D01*
G01*
X186255000Y-124315000D01*
G75*
G02*
X186055000Y-124515000I-200000J0D01*
G01*
X185655000Y-124515000D01*
G75*
G02*
X185455000Y-124315000I0J200000D01*
G01*
G37*
G36*
G01*
X183805000Y-124315000D02*
X183805000Y-123765000D01*
G75*
G02*
X184005000Y-123565000I200000J0D01*
G01*
X184405000Y-123565000D01*
G75*
G02*
X184605000Y-123765000I0J-200000D01*
G01*
X184605000Y-124315000D01*
G75*
G02*
X184405000Y-124515000I-200000J0D01*
G01*
X184005000Y-124515000D01*
G75*
G02*
X183805000Y-124315000I0J200000D01*
G01*
G37*
%TD*%
%TO.C,C12*%
G36*
G01*
X174155000Y-119939999D02*
X174155000Y-121240001D01*
G75*
G02*
X173905001Y-121490000I-249999J0D01*
G01*
X173254999Y-121490000D01*
G75*
G02*
X173005000Y-121240001I0J249999D01*
G01*
X173005000Y-119939999D01*
G75*
G02*
X173254999Y-119690000I249999J0D01*
G01*
X173905001Y-119690000D01*
G75*
G02*
X174155000Y-119939999I0J-249999D01*
G01*
G37*
G36*
G01*
X171205000Y-119939999D02*
X171205000Y-121240001D01*
G75*
G02*
X170955001Y-121490000I-249999J0D01*
G01*
X170304999Y-121490000D01*
G75*
G02*
X170055000Y-121240001I0J249999D01*
G01*
X170055000Y-119939999D01*
G75*
G02*
X170304999Y-119690000I249999J0D01*
G01*
X170955001Y-119690000D01*
G75*
G02*
X171205000Y-119939999I0J-249999D01*
G01*
G37*
%TD*%
%TO.C,C13*%
G36*
G01*
X171205000Y-122339999D02*
X171205000Y-123640001D01*
G75*
G02*
X170955001Y-123890000I-249999J0D01*
G01*
X170304999Y-123890000D01*
G75*
G02*
X170055000Y-123640001I0J249999D01*
G01*
X170055000Y-122339999D01*
G75*
G02*
X170304999Y-122090000I249999J0D01*
G01*
X170955001Y-122090000D01*
G75*
G02*
X171205000Y-122339999I0J-249999D01*
G01*
G37*
G36*
G01*
X174155000Y-122339999D02*
X174155000Y-123640001D01*
G75*
G02*
X173905001Y-123890000I-249999J0D01*
G01*
X173254999Y-123890000D01*
G75*
G02*
X173005000Y-123640001I0J249999D01*
G01*
X173005000Y-122339999D01*
G75*
G02*
X173254999Y-122090000I249999J0D01*
G01*
X173905001Y-122090000D01*
G75*
G02*
X174155000Y-122339999I0J-249999D01*
G01*
G37*
%TD*%
%TO.C,C16*%
G36*
G01*
X174155000Y-124739999D02*
X174155000Y-126040001D01*
G75*
G02*
X173905001Y-126290000I-249999J0D01*
G01*
X173254999Y-126290000D01*
G75*
G02*
X173005000Y-126040001I0J249999D01*
G01*
X173005000Y-124739999D01*
G75*
G02*
X173254999Y-124490000I249999J0D01*
G01*
X173905001Y-124490000D01*
G75*
G02*
X174155000Y-124739999I0J-249999D01*
G01*
G37*
G36*
G01*
X171205000Y-124739999D02*
X171205000Y-126040001D01*
G75*
G02*
X170955001Y-126290000I-249999J0D01*
G01*
X170304999Y-126290000D01*
G75*
G02*
X170055000Y-126040001I0J249999D01*
G01*
X170055000Y-124739999D01*
G75*
G02*
X170304999Y-124490000I249999J0D01*
G01*
X170955001Y-124490000D01*
G75*
G02*
X171205000Y-124739999I0J-249999D01*
G01*
G37*
%TD*%
%TO.C,C17*%
G36*
G01*
X177980000Y-107965000D02*
X177980000Y-108465000D01*
G75*
G02*
X177755000Y-108690000I-225000J0D01*
G01*
X177305000Y-108690000D01*
G75*
G02*
X177080000Y-108465000I0J225000D01*
G01*
X177080000Y-107965000D01*
G75*
G02*
X177305000Y-107740000I225000J0D01*
G01*
X177755000Y-107740000D01*
G75*
G02*
X177980000Y-107965000I0J-225000D01*
G01*
G37*
G36*
G01*
X176430000Y-107965000D02*
X176430000Y-108465000D01*
G75*
G02*
X176205000Y-108690000I-225000J0D01*
G01*
X175755000Y-108690000D01*
G75*
G02*
X175530000Y-108465000I0J225000D01*
G01*
X175530000Y-107965000D01*
G75*
G02*
X175755000Y-107740000I225000J0D01*
G01*
X176205000Y-107740000D01*
G75*
G02*
X176430000Y-107965000I0J-225000D01*
G01*
G37*
%TD*%
%TO.C,C18*%
G36*
G01*
X197605000Y-81190000D02*
X197605000Y-81690000D01*
G75*
G02*
X197380000Y-81915000I-225000J0D01*
G01*
X196930000Y-81915000D01*
G75*
G02*
X196705000Y-81690000I0J225000D01*
G01*
X196705000Y-81190000D01*
G75*
G02*
X196930000Y-80965000I225000J0D01*
G01*
X197380000Y-80965000D01*
G75*
G02*
X197605000Y-81190000I0J-225000D01*
G01*
G37*
G36*
G01*
X199155000Y-81190000D02*
X199155000Y-81690000D01*
G75*
G02*
X198930000Y-81915000I-225000J0D01*
G01*
X198480000Y-81915000D01*
G75*
G02*
X198255000Y-81690000I0J225000D01*
G01*
X198255000Y-81190000D01*
G75*
G02*
X198480000Y-80965000I225000J0D01*
G01*
X198930000Y-80965000D01*
G75*
G02*
X199155000Y-81190000I0J-225000D01*
G01*
G37*
%TD*%
%TO.C,C29*%
G36*
G01*
X199155000Y-98390000D02*
X199155000Y-98890000D01*
G75*
G02*
X198930000Y-99115000I-225000J0D01*
G01*
X198480000Y-99115000D01*
G75*
G02*
X198255000Y-98890000I0J225000D01*
G01*
X198255000Y-98390000D01*
G75*
G02*
X198480000Y-98165000I225000J0D01*
G01*
X198930000Y-98165000D01*
G75*
G02*
X199155000Y-98390000I0J-225000D01*
G01*
G37*
G36*
G01*
X197605000Y-98390000D02*
X197605000Y-98890000D01*
G75*
G02*
X197380000Y-99115000I-225000J0D01*
G01*
X196930000Y-99115000D01*
G75*
G02*
X196705000Y-98890000I0J225000D01*
G01*
X196705000Y-98390000D01*
G75*
G02*
X196930000Y-98165000I225000J0D01*
G01*
X197380000Y-98165000D01*
G75*
G02*
X197605000Y-98390000I0J-225000D01*
G01*
G37*
%TD*%
D22*
%TO.C,D3*%
X159580000Y-119640000D03*
X159580000Y-122940000D03*
%TD*%
D23*
%TO.C,L1*%
X165105000Y-120390000D03*
X165105000Y-125990000D03*
%TD*%
%TO.C,R7*%
G36*
G01*
X155780000Y-102065000D02*
X155780000Y-102615000D01*
G75*
G02*
X155580000Y-102815000I-200000J0D01*
G01*
X155180000Y-102815000D01*
G75*
G02*
X154980000Y-102615000I0J200000D01*
G01*
X154980000Y-102065000D01*
G75*
G02*
X155180000Y-101865000I200000J0D01*
G01*
X155580000Y-101865000D01*
G75*
G02*
X155780000Y-102065000I0J-200000D01*
G01*
G37*
G36*
G01*
X157430000Y-102065000D02*
X157430000Y-102615000D01*
G75*
G02*
X157230000Y-102815000I-200000J0D01*
G01*
X156830000Y-102815000D01*
G75*
G02*
X156630000Y-102615000I0J200000D01*
G01*
X156630000Y-102065000D01*
G75*
G02*
X156830000Y-101865000I200000J0D01*
G01*
X157230000Y-101865000D01*
G75*
G02*
X157430000Y-102065000I0J-200000D01*
G01*
G37*
%TD*%
%TO.C,R8*%
G36*
G01*
X155580000Y-113865000D02*
X155580000Y-114415000D01*
G75*
G02*
X155380000Y-114615000I-200000J0D01*
G01*
X154980000Y-114615000D01*
G75*
G02*
X154780000Y-114415000I0J200000D01*
G01*
X154780000Y-113865000D01*
G75*
G02*
X154980000Y-113665000I200000J0D01*
G01*
X155380000Y-113665000D01*
G75*
G02*
X155580000Y-113865000I0J-200000D01*
G01*
G37*
G36*
G01*
X157230000Y-113865000D02*
X157230000Y-114415000D01*
G75*
G02*
X157030000Y-114615000I-200000J0D01*
G01*
X156630000Y-114615000D01*
G75*
G02*
X156430000Y-114415000I0J200000D01*
G01*
X156430000Y-113865000D01*
G75*
G02*
X156630000Y-113665000I200000J0D01*
G01*
X157030000Y-113665000D01*
G75*
G02*
X157230000Y-113865000I0J-200000D01*
G01*
G37*
%TD*%
%TO.C,R31*%
G36*
G01*
X157480000Y-90465000D02*
X157480000Y-91015000D01*
G75*
G02*
X157280000Y-91215000I-200000J0D01*
G01*
X156880000Y-91215000D01*
G75*
G02*
X156680000Y-91015000I0J200000D01*
G01*
X156680000Y-90465000D01*
G75*
G02*
X156880000Y-90265000I200000J0D01*
G01*
X157280000Y-90265000D01*
G75*
G02*
X157480000Y-90465000I0J-200000D01*
G01*
G37*
G36*
G01*
X155830000Y-90465000D02*
X155830000Y-91015000D01*
G75*
G02*
X155630000Y-91215000I-200000J0D01*
G01*
X155230000Y-91215000D01*
G75*
G02*
X155030000Y-91015000I0J200000D01*
G01*
X155030000Y-90465000D01*
G75*
G02*
X155230000Y-90265000I200000J0D01*
G01*
X155630000Y-90265000D01*
G75*
G02*
X155830000Y-90465000I0J-200000D01*
G01*
G37*
%TD*%
%TO.C,R32*%
G36*
G01*
X167330000Y-109965000D02*
X166780000Y-109965000D01*
G75*
G02*
X166580000Y-109765000I0J200000D01*
G01*
X166580000Y-109365000D01*
G75*
G02*
X166780000Y-109165000I200000J0D01*
G01*
X167330000Y-109165000D01*
G75*
G02*
X167530000Y-109365000I0J-200000D01*
G01*
X167530000Y-109765000D01*
G75*
G02*
X167330000Y-109965000I-200000J0D01*
G01*
G37*
G36*
G01*
X167330000Y-108315000D02*
X166780000Y-108315000D01*
G75*
G02*
X166580000Y-108115000I0J200000D01*
G01*
X166580000Y-107715000D01*
G75*
G02*
X166780000Y-107515000I200000J0D01*
G01*
X167330000Y-107515000D01*
G75*
G02*
X167530000Y-107715000I0J-200000D01*
G01*
X167530000Y-108115000D01*
G75*
G02*
X167330000Y-108315000I-200000J0D01*
G01*
G37*
%TD*%
%TO.C,R33*%
G36*
G01*
X199805000Y-105615000D02*
X199805000Y-108465000D01*
G75*
G02*
X199555000Y-108715000I-250000J0D01*
G01*
X198830000Y-108715000D01*
G75*
G02*
X198580000Y-108465000I0J250000D01*
G01*
X198580000Y-105615000D01*
G75*
G02*
X198830000Y-105365000I250000J0D01*
G01*
X199555000Y-105365000D01*
G75*
G02*
X199805000Y-105615000I0J-250000D01*
G01*
G37*
G36*
G01*
X193880000Y-105615000D02*
X193880000Y-108465000D01*
G75*
G02*
X193630000Y-108715000I-250000J0D01*
G01*
X192905000Y-108715000D01*
G75*
G02*
X192655000Y-108465000I0J250000D01*
G01*
X192655000Y-105615000D01*
G75*
G02*
X192905000Y-105365000I250000J0D01*
G01*
X193630000Y-105365000D01*
G75*
G02*
X193880000Y-105615000I0J-250000D01*
G01*
G37*
%TD*%
%TO.C,R34*%
G36*
G01*
X193880000Y-88415000D02*
X193880000Y-91265000D01*
G75*
G02*
X193630000Y-91515000I-250000J0D01*
G01*
X192905000Y-91515000D01*
G75*
G02*
X192655000Y-91265000I0J250000D01*
G01*
X192655000Y-88415000D01*
G75*
G02*
X192905000Y-88165000I250000J0D01*
G01*
X193630000Y-88165000D01*
G75*
G02*
X193880000Y-88415000I0J-250000D01*
G01*
G37*
G36*
G01*
X199805000Y-88415000D02*
X199805000Y-91265000D01*
G75*
G02*
X199555000Y-91515000I-250000J0D01*
G01*
X198830000Y-91515000D01*
G75*
G02*
X198580000Y-91265000I0J250000D01*
G01*
X198580000Y-88415000D01*
G75*
G02*
X198830000Y-88165000I250000J0D01*
G01*
X199555000Y-88165000D01*
G75*
G02*
X199805000Y-88415000I0J-250000D01*
G01*
G37*
%TD*%
%TO.C,U4*%
G36*
G01*
X172155000Y-117745000D02*
X172155000Y-118045000D01*
G75*
G02*
X172005000Y-118195000I-150000J0D01*
G01*
X170355000Y-118195000D01*
G75*
G02*
X170205000Y-118045000I0J150000D01*
G01*
X170205000Y-117745000D01*
G75*
G02*
X170355000Y-117595000I150000J0D01*
G01*
X172005000Y-117595000D01*
G75*
G02*
X172155000Y-117745000I0J-150000D01*
G01*
G37*
G36*
G01*
X172155000Y-116475000D02*
X172155000Y-116775000D01*
G75*
G02*
X172005000Y-116925000I-150000J0D01*
G01*
X170355000Y-116925000D01*
G75*
G02*
X170205000Y-116775000I0J150000D01*
G01*
X170205000Y-116475000D01*
G75*
G02*
X170355000Y-116325000I150000J0D01*
G01*
X172005000Y-116325000D01*
G75*
G02*
X172155000Y-116475000I0J-150000D01*
G01*
G37*
G36*
G01*
X172155000Y-115205000D02*
X172155000Y-115505000D01*
G75*
G02*
X172005000Y-115655000I-150000J0D01*
G01*
X170355000Y-115655000D01*
G75*
G02*
X170205000Y-115505000I0J150000D01*
G01*
X170205000Y-115205000D01*
G75*
G02*
X170355000Y-115055000I150000J0D01*
G01*
X172005000Y-115055000D01*
G75*
G02*
X172155000Y-115205000I0J-150000D01*
G01*
G37*
G36*
G01*
X172155000Y-113935000D02*
X172155000Y-114235000D01*
G75*
G02*
X172005000Y-114385000I-150000J0D01*
G01*
X170355000Y-114385000D01*
G75*
G02*
X170205000Y-114235000I0J150000D01*
G01*
X170205000Y-113935000D01*
G75*
G02*
X170355000Y-113785000I150000J0D01*
G01*
X172005000Y-113785000D01*
G75*
G02*
X172155000Y-113935000I0J-150000D01*
G01*
G37*
G36*
G01*
X167205000Y-113935000D02*
X167205000Y-114235000D01*
G75*
G02*
X167055000Y-114385000I-150000J0D01*
G01*
X165405000Y-114385000D01*
G75*
G02*
X165255000Y-114235000I0J150000D01*
G01*
X165255000Y-113935000D01*
G75*
G02*
X165405000Y-113785000I150000J0D01*
G01*
X167055000Y-113785000D01*
G75*
G02*
X167205000Y-113935000I0J-150000D01*
G01*
G37*
G36*
G01*
X167205000Y-115205000D02*
X167205000Y-115505000D01*
G75*
G02*
X167055000Y-115655000I-150000J0D01*
G01*
X165405000Y-115655000D01*
G75*
G02*
X165255000Y-115505000I0J150000D01*
G01*
X165255000Y-115205000D01*
G75*
G02*
X165405000Y-115055000I150000J0D01*
G01*
X167055000Y-115055000D01*
G75*
G02*
X167205000Y-115205000I0J-150000D01*
G01*
G37*
G36*
G01*
X167205000Y-116475000D02*
X167205000Y-116775000D01*
G75*
G02*
X167055000Y-116925000I-150000J0D01*
G01*
X165405000Y-116925000D01*
G75*
G02*
X165255000Y-116775000I0J150000D01*
G01*
X165255000Y-116475000D01*
G75*
G02*
X165405000Y-116325000I150000J0D01*
G01*
X167055000Y-116325000D01*
G75*
G02*
X167205000Y-116475000I0J-150000D01*
G01*
G37*
G36*
G01*
X167205000Y-117745000D02*
X167205000Y-118045000D01*
G75*
G02*
X167055000Y-118195000I-150000J0D01*
G01*
X165405000Y-118195000D01*
G75*
G02*
X165255000Y-118045000I0J150000D01*
G01*
X165255000Y-117745000D01*
G75*
G02*
X165405000Y-117595000I150000J0D01*
G01*
X167055000Y-117595000D01*
G75*
G02*
X167205000Y-117745000I0J-150000D01*
G01*
G37*
%TD*%
%TO.C,U5*%
G36*
G01*
X199680000Y-103995000D02*
X199680000Y-104295000D01*
G75*
G02*
X199530000Y-104445000I-150000J0D01*
G01*
X197880000Y-104445000D01*
G75*
G02*
X197730000Y-104295000I0J150000D01*
G01*
X197730000Y-103995000D01*
G75*
G02*
X197880000Y-103845000I150000J0D01*
G01*
X199530000Y-103845000D01*
G75*
G02*
X199680000Y-103995000I0J-150000D01*
G01*
G37*
G36*
G01*
X199680000Y-102725000D02*
X199680000Y-103025000D01*
G75*
G02*
X199530000Y-103175000I-150000J0D01*
G01*
X197880000Y-103175000D01*
G75*
G02*
X197730000Y-103025000I0J150000D01*
G01*
X197730000Y-102725000D01*
G75*
G02*
X197880000Y-102575000I150000J0D01*
G01*
X199530000Y-102575000D01*
G75*
G02*
X199680000Y-102725000I0J-150000D01*
G01*
G37*
G36*
G01*
X199680000Y-101455000D02*
X199680000Y-101755000D01*
G75*
G02*
X199530000Y-101905000I-150000J0D01*
G01*
X197880000Y-101905000D01*
G75*
G02*
X197730000Y-101755000I0J150000D01*
G01*
X197730000Y-101455000D01*
G75*
G02*
X197880000Y-101305000I150000J0D01*
G01*
X199530000Y-101305000D01*
G75*
G02*
X199680000Y-101455000I0J-150000D01*
G01*
G37*
G36*
G01*
X199680000Y-100185000D02*
X199680000Y-100485000D01*
G75*
G02*
X199530000Y-100635000I-150000J0D01*
G01*
X197880000Y-100635000D01*
G75*
G02*
X197730000Y-100485000I0J150000D01*
G01*
X197730000Y-100185000D01*
G75*
G02*
X197880000Y-100035000I150000J0D01*
G01*
X199530000Y-100035000D01*
G75*
G02*
X199680000Y-100185000I0J-150000D01*
G01*
G37*
G36*
G01*
X194730000Y-100185000D02*
X194730000Y-100485000D01*
G75*
G02*
X194580000Y-100635000I-150000J0D01*
G01*
X192930000Y-100635000D01*
G75*
G02*
X192780000Y-100485000I0J150000D01*
G01*
X192780000Y-100185000D01*
G75*
G02*
X192930000Y-100035000I150000J0D01*
G01*
X194580000Y-100035000D01*
G75*
G02*
X194730000Y-100185000I0J-150000D01*
G01*
G37*
G36*
G01*
X194730000Y-101455000D02*
X194730000Y-101755000D01*
G75*
G02*
X194580000Y-101905000I-150000J0D01*
G01*
X192930000Y-101905000D01*
G75*
G02*
X192780000Y-101755000I0J150000D01*
G01*
X192780000Y-101455000D01*
G75*
G02*
X192930000Y-101305000I150000J0D01*
G01*
X194580000Y-101305000D01*
G75*
G02*
X194730000Y-101455000I0J-150000D01*
G01*
G37*
G36*
G01*
X194730000Y-102725000D02*
X194730000Y-103025000D01*
G75*
G02*
X194580000Y-103175000I-150000J0D01*
G01*
X192930000Y-103175000D01*
G75*
G02*
X192780000Y-103025000I0J150000D01*
G01*
X192780000Y-102725000D01*
G75*
G02*
X192930000Y-102575000I150000J0D01*
G01*
X194580000Y-102575000D01*
G75*
G02*
X194730000Y-102725000I0J-150000D01*
G01*
G37*
G36*
G01*
X194730000Y-103995000D02*
X194730000Y-104295000D01*
G75*
G02*
X194580000Y-104445000I-150000J0D01*
G01*
X192930000Y-104445000D01*
G75*
G02*
X192780000Y-104295000I0J150000D01*
G01*
X192780000Y-103995000D01*
G75*
G02*
X192930000Y-103845000I150000J0D01*
G01*
X194580000Y-103845000D01*
G75*
G02*
X194730000Y-103995000I0J-150000D01*
G01*
G37*
%TD*%
%TO.C,U6*%
G36*
G01*
X194730000Y-86795000D02*
X194730000Y-87095000D01*
G75*
G02*
X194580000Y-87245000I-150000J0D01*
G01*
X192930000Y-87245000D01*
G75*
G02*
X192780000Y-87095000I0J150000D01*
G01*
X192780000Y-86795000D01*
G75*
G02*
X192930000Y-86645000I150000J0D01*
G01*
X194580000Y-86645000D01*
G75*
G02*
X194730000Y-86795000I0J-150000D01*
G01*
G37*
G36*
G01*
X194730000Y-85525000D02*
X194730000Y-85825000D01*
G75*
G02*
X194580000Y-85975000I-150000J0D01*
G01*
X192930000Y-85975000D01*
G75*
G02*
X192780000Y-85825000I0J150000D01*
G01*
X192780000Y-85525000D01*
G75*
G02*
X192930000Y-85375000I150000J0D01*
G01*
X194580000Y-85375000D01*
G75*
G02*
X194730000Y-85525000I0J-150000D01*
G01*
G37*
G36*
G01*
X194730000Y-84255000D02*
X194730000Y-84555000D01*
G75*
G02*
X194580000Y-84705000I-150000J0D01*
G01*
X192930000Y-84705000D01*
G75*
G02*
X192780000Y-84555000I0J150000D01*
G01*
X192780000Y-84255000D01*
G75*
G02*
X192930000Y-84105000I150000J0D01*
G01*
X194580000Y-84105000D01*
G75*
G02*
X194730000Y-84255000I0J-150000D01*
G01*
G37*
G36*
G01*
X194730000Y-82985000D02*
X194730000Y-83285000D01*
G75*
G02*
X194580000Y-83435000I-150000J0D01*
G01*
X192930000Y-83435000D01*
G75*
G02*
X192780000Y-83285000I0J150000D01*
G01*
X192780000Y-82985000D01*
G75*
G02*
X192930000Y-82835000I150000J0D01*
G01*
X194580000Y-82835000D01*
G75*
G02*
X194730000Y-82985000I0J-150000D01*
G01*
G37*
G36*
G01*
X199680000Y-82985000D02*
X199680000Y-83285000D01*
G75*
G02*
X199530000Y-83435000I-150000J0D01*
G01*
X197880000Y-83435000D01*
G75*
G02*
X197730000Y-83285000I0J150000D01*
G01*
X197730000Y-82985000D01*
G75*
G02*
X197880000Y-82835000I150000J0D01*
G01*
X199530000Y-82835000D01*
G75*
G02*
X199680000Y-82985000I0J-150000D01*
G01*
G37*
G36*
G01*
X199680000Y-84255000D02*
X199680000Y-84555000D01*
G75*
G02*
X199530000Y-84705000I-150000J0D01*
G01*
X197880000Y-84705000D01*
G75*
G02*
X197730000Y-84555000I0J150000D01*
G01*
X197730000Y-84255000D01*
G75*
G02*
X197880000Y-84105000I150000J0D01*
G01*
X199530000Y-84105000D01*
G75*
G02*
X199680000Y-84255000I0J-150000D01*
G01*
G37*
G36*
G01*
X199680000Y-85525000D02*
X199680000Y-85825000D01*
G75*
G02*
X199530000Y-85975000I-150000J0D01*
G01*
X197880000Y-85975000D01*
G75*
G02*
X197730000Y-85825000I0J150000D01*
G01*
X197730000Y-85525000D01*
G75*
G02*
X197880000Y-85375000I150000J0D01*
G01*
X199530000Y-85375000D01*
G75*
G02*
X199680000Y-85525000I0J-150000D01*
G01*
G37*
G36*
G01*
X199680000Y-86795000D02*
X199680000Y-87095000D01*
G75*
G02*
X199530000Y-87245000I-150000J0D01*
G01*
X197880000Y-87245000D01*
G75*
G02*
X197730000Y-87095000I0J150000D01*
G01*
X197730000Y-86795000D01*
G75*
G02*
X197880000Y-86645000I150000J0D01*
G01*
X199530000Y-86645000D01*
G75*
G02*
X199680000Y-86795000I0J-150000D01*
G01*
G37*
%TD*%
D12*
%TO.C,Q2*%
X124885000Y-105315000D03*
X120035000Y-110865000D03*
X124885000Y-110865000D03*
X120035000Y-105315000D03*
D13*
X131610000Y-105550000D03*
X131610000Y-110630000D03*
%TD*%
D12*
%TO.C,Q3*%
X108085000Y-95515000D03*
X103235000Y-101065000D03*
X108085000Y-101065000D03*
X103235000Y-95515000D03*
D13*
X114810000Y-95750000D03*
X114810000Y-100830000D03*
%TD*%
D12*
%TO.C,Q4*%
X124885000Y-88015000D03*
X120035000Y-93565000D03*
X124885000Y-93565000D03*
X120035000Y-88015000D03*
D13*
X131610000Y-88250000D03*
X131610000Y-93330000D03*
%TD*%
%TO.C,Q5*%
X114810000Y-83530000D03*
X114810000Y-78450000D03*
D12*
X103235000Y-78215000D03*
X108085000Y-83765000D03*
X103235000Y-83765000D03*
X108085000Y-78215000D03*
%TD*%
D13*
%TO.C,Q6*%
X131610000Y-76030000D03*
X131610000Y-70950000D03*
D12*
X120035000Y-70715000D03*
X124885000Y-76265000D03*
X120035000Y-76265000D03*
X124885000Y-70715000D03*
%TD*%
%TO.C,C14*%
G36*
G01*
X180580000Y-112065000D02*
X181080000Y-112065000D01*
G75*
G02*
X181305000Y-112290000I0J-225000D01*
G01*
X181305000Y-112740000D01*
G75*
G02*
X181080000Y-112965000I-225000J0D01*
G01*
X180580000Y-112965000D01*
G75*
G02*
X180355000Y-112740000I0J225000D01*
G01*
X180355000Y-112290000D01*
G75*
G02*
X180580000Y-112065000I225000J0D01*
G01*
G37*
G36*
G01*
X180580000Y-113615000D02*
X181080000Y-113615000D01*
G75*
G02*
X181305000Y-113840000I0J-225000D01*
G01*
X181305000Y-114290000D01*
G75*
G02*
X181080000Y-114515000I-225000J0D01*
G01*
X180580000Y-114515000D01*
G75*
G02*
X180355000Y-114290000I0J225000D01*
G01*
X180355000Y-113840000D01*
G75*
G02*
X180580000Y-113615000I225000J0D01*
G01*
G37*
%TD*%
%TO.C,C15*%
G36*
G01*
X177030000Y-117840000D02*
X177530000Y-117840000D01*
G75*
G02*
X177755000Y-118065000I0J-225000D01*
G01*
X177755000Y-118515000D01*
G75*
G02*
X177530000Y-118740000I-225000J0D01*
G01*
X177030000Y-118740000D01*
G75*
G02*
X176805000Y-118515000I0J225000D01*
G01*
X176805000Y-118065000D01*
G75*
G02*
X177030000Y-117840000I225000J0D01*
G01*
G37*
G36*
G01*
X177030000Y-116290000D02*
X177530000Y-116290000D01*
G75*
G02*
X177755000Y-116515000I0J-225000D01*
G01*
X177755000Y-116965000D01*
G75*
G02*
X177530000Y-117190000I-225000J0D01*
G01*
X177030000Y-117190000D01*
G75*
G02*
X176805000Y-116965000I0J225000D01*
G01*
X176805000Y-116515000D01*
G75*
G02*
X177030000Y-116290000I225000J0D01*
G01*
G37*
%TD*%
%TO.C,C31*%
G36*
G01*
X178955000Y-120140000D02*
X178955000Y-119640000D01*
G75*
G02*
X179180000Y-119415000I225000J0D01*
G01*
X179630000Y-119415000D01*
G75*
G02*
X179855000Y-119640000I0J-225000D01*
G01*
X179855000Y-120140000D01*
G75*
G02*
X179630000Y-120365000I-225000J0D01*
G01*
X179180000Y-120365000D01*
G75*
G02*
X178955000Y-120140000I0J225000D01*
G01*
G37*
G36*
G01*
X180505000Y-120140000D02*
X180505000Y-119640000D01*
G75*
G02*
X180730000Y-119415000I225000J0D01*
G01*
X181180000Y-119415000D01*
G75*
G02*
X181405000Y-119640000I0J-225000D01*
G01*
X181405000Y-120140000D01*
G75*
G02*
X181180000Y-120365000I-225000J0D01*
G01*
X180730000Y-120365000D01*
G75*
G02*
X180505000Y-120140000I0J225000D01*
G01*
G37*
%TD*%
%TO.C,U7*%
G36*
G01*
X180754999Y-115190001D02*
X181054999Y-115190001D01*
G75*
G02*
X181204999Y-115340001I0J-150000D01*
G01*
X181204999Y-116365001D01*
G75*
G02*
X181054999Y-116515001I-150000J0D01*
G01*
X180754999Y-116515001D01*
G75*
G02*
X180604999Y-116365001I0J150000D01*
G01*
X180604999Y-115340001D01*
G75*
G02*
X180754999Y-115190001I150000J0D01*
G01*
G37*
G36*
G01*
X179804999Y-115190001D02*
X180104999Y-115190001D01*
G75*
G02*
X180254999Y-115340001I0J-150000D01*
G01*
X180254999Y-116365001D01*
G75*
G02*
X180104999Y-116515001I-150000J0D01*
G01*
X179804999Y-116515001D01*
G75*
G02*
X179654999Y-116365001I0J150000D01*
G01*
X179654999Y-115340001D01*
G75*
G02*
X179804999Y-115190001I150000J0D01*
G01*
G37*
G36*
G01*
X178854999Y-115190001D02*
X179154999Y-115190001D01*
G75*
G02*
X179304999Y-115340001I0J-150000D01*
G01*
X179304999Y-116365001D01*
G75*
G02*
X179154999Y-116515001I-150000J0D01*
G01*
X178854999Y-116515001D01*
G75*
G02*
X178704999Y-116365001I0J150000D01*
G01*
X178704999Y-115340001D01*
G75*
G02*
X178854999Y-115190001I150000J0D01*
G01*
G37*
G36*
G01*
X178854999Y-117465001D02*
X179154999Y-117465001D01*
G75*
G02*
X179304999Y-117615001I0J-150000D01*
G01*
X179304999Y-118640001D01*
G75*
G02*
X179154999Y-118790001I-150000J0D01*
G01*
X178854999Y-118790001D01*
G75*
G02*
X178704999Y-118640001I0J150000D01*
G01*
X178704999Y-117615001D01*
G75*
G02*
X178854999Y-117465001I150000J0D01*
G01*
G37*
G36*
G01*
X180754999Y-117465001D02*
X181054999Y-117465001D01*
G75*
G02*
X181204999Y-117615001I0J-150000D01*
G01*
X181204999Y-118640001D01*
G75*
G02*
X181054999Y-118790001I-150000J0D01*
G01*
X180754999Y-118790001D01*
G75*
G02*
X180604999Y-118640001I0J150000D01*
G01*
X180604999Y-117615001D01*
G75*
G02*
X180754999Y-117465001I150000J0D01*
G01*
G37*
%TD*%
%TO.C,C11*%
G36*
G01*
X165280000Y-112690001D02*
X165280000Y-111389999D01*
G75*
G02*
X165529999Y-111140000I249999J0D01*
G01*
X166180001Y-111140000D01*
G75*
G02*
X166430000Y-111389999I0J-249999D01*
G01*
X166430000Y-112690001D01*
G75*
G02*
X166180001Y-112940000I-249999J0D01*
G01*
X165529999Y-112940000D01*
G75*
G02*
X165280000Y-112690001I0J249999D01*
G01*
G37*
G36*
G01*
X168230000Y-112690001D02*
X168230000Y-111389999D01*
G75*
G02*
X168479999Y-111140000I249999J0D01*
G01*
X169130001Y-111140000D01*
G75*
G02*
X169380000Y-111389999I0J-249999D01*
G01*
X169380000Y-112690001D01*
G75*
G02*
X169130001Y-112940000I-249999J0D01*
G01*
X168479999Y-112940000D01*
G75*
G02*
X168230000Y-112690001I0J249999D01*
G01*
G37*
%TD*%
M02*
