%FSLAX45Y45*%
G04 Gerber Fmt 4.5, Leading zero omitted, Abs format (unit mm)*
G04 Created by KiCad (PCBNEW (5.1.8)-1) date 2021-01-30 00:08:28*
%MOMM*%
%LPD*%
G01*
G04 APERTURE LIST*
%TA.AperFunction,Profile*%
%ADD10C,0.050000*%
%TD*%
%ADD11C,0.200000*%
%ADD12C,0.300000*%
G04 APERTURE END LIST*
D10*
X14715990Y-12666000D02*
G75*
G02*
X14915990Y-12666000I100000J0D01*
G01*
X14916003Y-6690000D02*
G75*
G02*
X14716003Y-6690000I-100000J0D01*
G01*
X14916003Y-6690000D02*
X14916003Y-6419003D01*
X14716003Y-6419003D02*
X14716010Y-6690000D01*
X14916000Y-12678997D02*
X14915990Y-12666000D01*
X14715990Y-12666000D02*
X14716000Y-12678997D01*
X14716000Y-12678997D02*
G75*
G02*
X14565997Y-12829000I-150003J0D01*
G01*
X9818500Y-12829000D02*
G75*
G02*
X9668497Y-12678997I0J150003D01*
G01*
X9668497Y-6419003D02*
G75*
G02*
X9818500Y-6269000I150003J0D01*
G01*
X14566000Y-6269000D02*
G75*
G02*
X14716003Y-6419003I0J-150003D01*
G01*
X9818500Y-12829000D02*
X14565997Y-12829000D01*
X9668497Y-6419003D02*
X9668497Y-12678997D01*
X14566000Y-6269000D02*
X9818500Y-6269000D01*
X20315500Y-6269000D02*
G75*
G02*
X20465503Y-6419003I0J-150003D01*
G01*
X20465500Y-12679000D02*
G75*
G02*
X20315497Y-12829003I-150003J0D01*
G01*
X15066003Y-12829000D02*
G75*
G02*
X14916000Y-12678997I0J150003D01*
G01*
X14916000Y-6419000D02*
G75*
G02*
X15066003Y-6268997I150003J0D01*
G01*
X20465500Y-12679000D02*
X20465503Y-6419003D01*
X15066003Y-12829000D02*
X20315497Y-12829003D01*
X20315500Y-6269000D02*
X15066003Y-6268997D01*
D11*
D12*
X9952425Y-13297218D02*
X9952425Y-12997218D01*
X10023854Y-12997218D01*
X10066711Y-13011503D01*
X10095282Y-13040075D01*
X10109568Y-13068646D01*
X10123854Y-13125789D01*
X10123854Y-13168646D01*
X10109568Y-13225789D01*
X10095282Y-13254360D01*
X10066711Y-13282932D01*
X10023854Y-13297218D01*
X9952425Y-13297218D01*
X10252425Y-13297218D02*
X10252425Y-13097218D01*
X10252425Y-13154360D02*
X10266711Y-13125789D01*
X10280997Y-13111503D01*
X10309568Y-13097218D01*
X10338139Y-13097218D01*
X10438139Y-13297218D02*
X10438139Y-13097218D01*
X10438139Y-12997218D02*
X10423854Y-13011503D01*
X10438139Y-13025789D01*
X10452425Y-13011503D01*
X10438139Y-12997218D01*
X10438139Y-13025789D01*
X10623854Y-13297218D02*
X10595282Y-13282932D01*
X10580997Y-13254360D01*
X10580997Y-12997218D01*
X10780997Y-13297218D02*
X10752425Y-13282932D01*
X10738139Y-13254360D01*
X10738139Y-12997218D01*
X11123854Y-13297218D02*
X11123854Y-12997218D01*
X11223854Y-13211503D01*
X11323854Y-12997218D01*
X11323854Y-13297218D01*
X11595282Y-13297218D02*
X11595282Y-13140075D01*
X11580997Y-13111503D01*
X11552425Y-13097218D01*
X11495282Y-13097218D01*
X11466711Y-13111503D01*
X11595282Y-13282932D02*
X11566711Y-13297218D01*
X11495282Y-13297218D01*
X11466711Y-13282932D01*
X11452425Y-13254360D01*
X11452425Y-13225789D01*
X11466711Y-13197218D01*
X11495282Y-13182932D01*
X11566711Y-13182932D01*
X11595282Y-13168646D01*
X11738139Y-13097218D02*
X11738139Y-13397218D01*
X11738139Y-13111503D02*
X11766711Y-13097218D01*
X11823854Y-13097218D01*
X11852425Y-13111503D01*
X11866711Y-13125789D01*
X11880997Y-13154360D01*
X11880997Y-13240075D01*
X11866711Y-13268646D01*
X11852425Y-13282932D01*
X11823854Y-13297218D01*
X11766711Y-13297218D01*
X11738139Y-13282932D01*
X12009568Y-13268646D02*
X12023854Y-13282932D01*
X12009568Y-13297218D01*
X11995282Y-13282932D01*
X12009568Y-13268646D01*
X12009568Y-13297218D01*
X12009568Y-13111503D02*
X12023854Y-13125789D01*
X12009568Y-13140075D01*
X11995282Y-13125789D01*
X12009568Y-13111503D01*
X12009568Y-13140075D01*
M02*
