M48
; DRILL file {KiCad (5.1.8)-1} date 01/30/21 00:08:26
; FORMAT={-:-/ absolute / inch / decimal}
; #@! TF.CreationDate,2021-01-30T00:08:26-08:00
; #@! TF.GenerationSoftware,Kicad,Pcbnew,(5.1.8)-1
; #@! TF.FileFunction,Plated,1,4,PTH
FMAT,2
INCH
T1C0.0157
T2C0.0197
T3C0.0236
T4C0.0394
T5C0.0787
T6C0.1181
T7C0.1378
%
G90
G05
T1
X3.9295Y-2.7673
X3.9295Y-2.9346
X3.9295Y-3.4484
X3.9295Y-3.6157
X3.9295Y-4.1295
X3.9295Y-4.2969
X3.9787Y-2.7673
X3.9787Y-2.9346
X3.9787Y-3.4484
X3.9787Y-3.6157
X3.9787Y-4.1295
X3.9787Y-4.2969
X3.9896Y-2.9917
X3.9896Y-3.0476
X3.9896Y-3.1035
X3.9896Y-3.1594
X3.9896Y-3.2154
X3.9896Y-3.2713
X3.9896Y-3.3272
X3.9896Y-3.3831
X3.9896Y-3.6728
X3.9896Y-3.7287
X3.9896Y-3.7846
X3.9896Y-3.8406
X3.9896Y-3.8965
X3.9896Y-3.9524
X3.9896Y-4.0083
X3.9896Y-4.0642
X3.9896Y-4.3539
X3.9896Y-4.4098
X3.9896Y-4.4657
X3.9896Y-4.5217
X3.9896Y-4.5776
X3.9896Y-4.6335
X3.9896Y-4.6894
X3.9896Y-4.7453
X4.028Y-2.7673
X4.028Y-2.9346
X4.028Y-3.4484
X4.028Y-3.6157
X4.028Y-4.1295
X4.028Y-4.2969
X4.0565Y-2.9917
X4.0565Y-3.0476
X4.0565Y-3.1035
X4.0565Y-3.1594
X4.0565Y-3.2154
X4.0565Y-3.2713
X4.0565Y-3.3272
X4.0565Y-3.3831
X4.0565Y-3.6728
X4.0565Y-3.7287
X4.0565Y-3.7846
X4.0565Y-3.8406
X4.0565Y-3.8965
X4.0565Y-3.9524
X4.0565Y-4.0083
X4.0565Y-4.0642
X4.0565Y-4.3539
X4.0565Y-4.4098
X4.0565Y-4.4657
X4.0565Y-4.5217
X4.0565Y-4.5776
X4.0565Y-4.6335
X4.0565Y-4.6894
X4.0565Y-4.7453
X4.0772Y-2.7673
X4.0772Y-2.9346
X4.0772Y-3.4484
X4.0772Y-3.6157
X4.0772Y-4.1295
X4.0772Y-4.2969
X4.0969Y-4.8087
X4.0969Y-4.8579
X4.0969Y-4.9071
X4.0969Y-4.9563
X4.0969Y-5.0055
X4.1234Y-2.9917
X4.1234Y-3.0476
X4.1234Y-3.1035
X4.1234Y-3.1594
X4.1234Y-3.2154
X4.1234Y-3.2713
X4.1234Y-3.3272
X4.1234Y-3.3831
X4.1234Y-3.6728
X4.1234Y-3.7287
X4.1234Y-3.7846
X4.1234Y-3.8406
X4.1234Y-3.8965
X4.1234Y-3.9524
X4.1234Y-4.0083
X4.1234Y-4.0642
X4.1234Y-4.3539
X4.1234Y-4.4098
X4.1234Y-4.4657
X4.1234Y-4.5217
X4.1234Y-4.5776
X4.1234Y-4.6335
X4.1234Y-4.6894
X4.1234Y-4.7453
X4.1264Y-2.7673
X4.1264Y-2.9346
X4.1264Y-3.4484
X4.1264Y-3.6157
X4.1264Y-4.1295
X4.1264Y-4.2969
X4.1461Y-4.8087
X4.1461Y-4.8579
X4.1461Y-5.0055
X4.1756Y-2.7673
X4.1756Y-2.9346
X4.1756Y-3.4484
X4.1756Y-3.6157
X4.1756Y-4.1295
X4.1756Y-4.2969
X4.1904Y-2.9917
X4.1904Y-3.0476
X4.1904Y-3.1035
X4.1904Y-3.1594
X4.1904Y-3.2154
X4.1904Y-3.2713
X4.1904Y-3.3272
X4.1904Y-3.3831
X4.1904Y-3.6728
X4.1904Y-3.7287
X4.1904Y-3.7846
X4.1904Y-3.8406
X4.1904Y-3.8965
X4.1904Y-3.9524
X4.1904Y-4.0083
X4.1904Y-4.0642
X4.1904Y-4.3539
X4.1904Y-4.4098
X4.1904Y-4.4657
X4.1904Y-4.5217
X4.1904Y-4.5776
X4.1904Y-4.6335
X4.1904Y-4.6894
X4.1904Y-4.7453
X4.1953Y-4.8087
X4.2248Y-2.7673
X4.2248Y-2.9346
X4.2248Y-3.4484
X4.2248Y-3.6157
X4.2248Y-4.1295
X4.2248Y-4.2969
X4.2445Y-4.8087
X4.2573Y-2.9917
X4.2573Y-3.0476
X4.2573Y-3.1035
X4.2573Y-3.1594
X4.2573Y-3.2154
X4.2573Y-3.2713
X4.2573Y-3.3272
X4.2573Y-3.3831
X4.2573Y-3.6728
X4.2573Y-3.7287
X4.2573Y-3.7846
X4.2573Y-3.8406
X4.2573Y-3.8965
X4.2573Y-3.9524
X4.2573Y-4.0083
X4.2573Y-4.0642
X4.2573Y-4.3539
X4.2573Y-4.4098
X4.2573Y-4.4657
X4.2573Y-4.5217
X4.2573Y-4.5776
X4.2573Y-4.6335
X4.2573Y-4.6894
X4.2573Y-4.7453
X4.274Y-2.7673
X4.274Y-2.9346
X4.274Y-3.4484
X4.274Y-3.6157
X4.274Y-4.1295
X4.274Y-4.2969
X4.2937Y-4.8087
X4.2937Y-4.8579
X4.2937Y-5.0055
X4.3232Y-2.7673
X4.3232Y-2.9346
X4.3232Y-3.4484
X4.3232Y-3.6157
X4.3232Y-4.1295
X4.3232Y-4.2969
X4.3242Y-2.9917
X4.3242Y-3.0476
X4.3242Y-3.1035
X4.3242Y-3.1594
X4.3242Y-3.2154
X4.3242Y-3.2713
X4.3242Y-3.3272
X4.3242Y-3.3831
X4.3242Y-3.6728
X4.3242Y-3.7287
X4.3242Y-3.7846
X4.3242Y-3.8406
X4.3242Y-3.8965
X4.3242Y-3.9524
X4.3242Y-4.0083
X4.3242Y-4.0642
X4.3242Y-4.3539
X4.3242Y-4.4098
X4.3242Y-4.4657
X4.3242Y-4.5217
X4.3242Y-4.5776
X4.3242Y-4.6335
X4.3242Y-4.6894
X4.3242Y-4.7453
X4.3429Y-4.8087
X4.3429Y-4.8579
X4.3429Y-4.9071
X4.3429Y-4.9563
X4.3429Y-5.0055
X4.3724Y-2.7673
X4.3724Y-2.9346
X4.3724Y-3.4484
X4.3724Y-3.6157
X4.3724Y-4.1295
X4.3724Y-4.2969
X4.4423Y-2.9563
X4.4423Y-2.9957
X4.4423Y-3.035
X4.4423Y-3.6374
X4.4423Y-3.6768
X4.4423Y-3.7161
X4.4423Y-4.3185
X4.4423Y-4.3579
X4.4423Y-4.3972
X4.4817Y-2.9563
X4.4817Y-2.9957
X4.4817Y-3.035
X4.4817Y-3.6374
X4.4817Y-3.6768
X4.4817Y-3.7161
X4.4817Y-4.3185
X4.4817Y-4.3579
X4.4817Y-4.3972
X4.5211Y-2.9563
X4.5211Y-2.9957
X4.5211Y-3.035
X4.5211Y-3.6374
X4.5211Y-3.6768
X4.5211Y-3.7161
X4.5211Y-4.3185
X4.5211Y-4.3579
X4.5211Y-4.3972
X4.5604Y-2.9563
X4.5604Y-2.9957
X4.5604Y-3.035
X4.5604Y-3.6374
X4.5604Y-3.6768
X4.5604Y-3.7161
X4.5604Y-4.3185
X4.5604Y-4.3579
X4.5604Y-4.3972
X4.5998Y-2.9563
X4.5998Y-2.9957
X4.5998Y-3.035
X4.5998Y-3.6374
X4.5998Y-3.6768
X4.5998Y-3.7161
X4.5998Y-4.3185
X4.5998Y-4.3579
X4.5998Y-4.3972
X4.6289Y-3.2886
X4.6289Y-4.6508
X4.6333Y-3.9691
X4.651Y-2.6965
X4.651Y-2.7524
X4.651Y-2.8083
X4.651Y-2.8642
X4.651Y-2.9201
X4.651Y-2.976
X4.651Y-3.0319
X4.651Y-3.0878
X4.651Y-3.3776
X4.651Y-3.4335
X4.651Y-3.4894
X4.651Y-3.5453
X4.651Y-3.6012
X4.651Y-3.6571
X4.651Y-3.713
X4.651Y-3.7689
X4.651Y-4.0587
X4.651Y-4.1146
X4.651Y-4.1705
X4.651Y-4.2264
X4.651Y-4.2823
X4.651Y-4.3382
X4.651Y-4.3941
X4.651Y-4.45
X4.7179Y-2.6965
X4.7179Y-2.7524
X4.7179Y-2.8083
X4.7179Y-2.8642
X4.7179Y-2.9201
X4.7179Y-2.976
X4.7179Y-3.0319
X4.7179Y-3.0878
X4.7179Y-3.3776
X4.7179Y-3.4335
X4.7179Y-3.4894
X4.7179Y-3.5453
X4.7179Y-3.6012
X4.7179Y-3.6571
X4.7179Y-3.713
X4.7179Y-3.7689
X4.7179Y-4.0587
X4.7179Y-4.1146
X4.7179Y-4.1705
X4.7179Y-4.2264
X4.7179Y-4.2823
X4.7179Y-4.3382
X4.7179Y-4.3941
X4.7179Y-4.45
X4.7848Y-2.6965
X4.7848Y-2.7524
X4.7848Y-2.8083
X4.7848Y-2.8642
X4.7848Y-2.9201
X4.7848Y-2.976
X4.7848Y-3.0319
X4.7848Y-3.0878
X4.7848Y-3.3776
X4.7848Y-3.4335
X4.7848Y-3.4894
X4.7848Y-3.5453
X4.7848Y-3.6012
X4.7848Y-3.6571
X4.7848Y-3.713
X4.7848Y-3.7689
X4.7848Y-4.0587
X4.7848Y-4.1146
X4.7848Y-4.1705
X4.7848Y-4.2264
X4.7848Y-4.2823
X4.7848Y-4.3382
X4.7848Y-4.3941
X4.7848Y-4.45
X4.8518Y-2.6965
X4.8518Y-2.7524
X4.8518Y-2.8083
X4.8518Y-2.8642
X4.8518Y-2.9201
X4.8518Y-2.976
X4.8518Y-3.0319
X4.8518Y-3.0878
X4.8518Y-3.3776
X4.8518Y-3.4335
X4.8518Y-3.4894
X4.8518Y-3.5453
X4.8518Y-3.6012
X4.8518Y-3.6571
X4.8518Y-3.713
X4.8518Y-3.7689
X4.8518Y-4.0587
X4.8518Y-4.1146
X4.8518Y-4.1705
X4.8518Y-4.2264
X4.8518Y-4.2823
X4.8518Y-4.3382
X4.8518Y-4.3941
X4.8518Y-4.45
X4.8852Y-3.1906
X4.8852Y-3.8598
X4.8852Y-4.5685
X4.8852Y-4.7083
X4.8852Y-4.8083
X4.8852Y-5.0083
X4.9187Y-2.6965
X4.9187Y-2.7524
X4.9187Y-2.8083
X4.9187Y-2.8642
X4.9187Y-2.9201
X4.9187Y-2.976
X4.9187Y-3.0319
X4.9187Y-3.0878
X4.9187Y-3.3776
X4.9187Y-3.4335
X4.9187Y-3.4894
X4.9187Y-3.5453
X4.9187Y-3.6012
X4.9187Y-3.6571
X4.9187Y-3.713
X4.9187Y-3.7689
X4.9187Y-4.0587
X4.9187Y-4.1146
X4.9187Y-4.1705
X4.9187Y-4.2264
X4.9187Y-4.2823
X4.9187Y-4.3382
X4.9187Y-4.3941
X4.9187Y-4.45
X4.9852Y-3.1906
X4.9852Y-3.8598
X4.9852Y-4.5685
X4.9852Y-4.7083
X4.9852Y-4.8083
X4.9852Y-4.9083
X4.9852Y-5.0083
X4.9856Y-2.6965
X4.9856Y-2.7524
X4.9856Y-2.8083
X4.9856Y-2.8642
X4.9856Y-2.9201
X4.9856Y-2.976
X4.9856Y-3.0319
X4.9856Y-3.0878
X4.9856Y-3.3776
X4.9856Y-3.4335
X4.9856Y-3.4894
X4.9856Y-3.5453
X4.9856Y-3.6012
X4.9856Y-3.6571
X4.9856Y-3.713
X4.9856Y-3.7689
X4.9856Y-4.0587
X4.9856Y-4.1146
X4.9856Y-4.1705
X4.9856Y-4.2264
X4.9856Y-4.2823
X4.9856Y-4.3382
X4.9856Y-4.3941
X4.9856Y-4.45
X5.0852Y-3.1906
X5.0852Y-3.8598
X5.0852Y-4.5685
X5.0852Y-4.7083
X5.0852Y-4.8083
X5.0852Y-4.9083
X5.0852Y-5.0083
X5.103Y-3.3736
X5.103Y-3.4209
X5.103Y-3.5311
X5.103Y-3.5783
X5.103Y-4.0547
X5.103Y-4.102
X5.103Y-4.2122
X5.103Y-4.2594
X5.1037Y-2.6925
X5.1037Y-2.7398
X5.1037Y-2.85
X5.1037Y-2.8972
X5.1502Y-3.3736
X5.1502Y-3.4209
X5.1502Y-3.5311
X5.1502Y-3.5783
X5.1502Y-4.0547
X5.1502Y-4.102
X5.1502Y-4.2122
X5.1502Y-4.2594
X5.151Y-2.6925
X5.151Y-2.7398
X5.151Y-2.85
X5.151Y-2.8972
X5.1852Y-3.1906
X5.1852Y-3.8598
X5.1852Y-4.5685
X5.1852Y-4.7083
X5.1852Y-4.8083
X5.1852Y-4.9083
X5.1852Y-5.0083
X5.1974Y-3.3736
X5.1974Y-3.4209
X5.1974Y-3.5311
X5.1974Y-3.5783
X5.1974Y-4.0547
X5.1974Y-4.102
X5.1974Y-4.2122
X5.1974Y-4.2594
X5.1982Y-2.6925
X5.1982Y-2.7398
X5.1982Y-2.85
X5.1982Y-2.8972
X5.2447Y-3.3736
X5.2447Y-3.4209
X5.2447Y-3.5311
X5.2447Y-3.5783
X5.2447Y-4.0547
X5.2447Y-4.102
X5.2447Y-4.2122
X5.2447Y-4.2594
X5.2455Y-2.6925
X5.2455Y-2.7398
X5.2455Y-2.85
X5.2455Y-2.8972
X5.2809Y-4.6531
X5.2819Y-3.2909
X5.2852Y-3.1906
X5.2852Y-3.8598
X5.2852Y-4.5685
X5.2852Y-4.7083
X5.2868Y-3.9681
X5.2919Y-3.3736
X5.2919Y-3.4209
X5.2919Y-3.5311
X5.2919Y-3.5783
X5.2919Y-4.0547
X5.2919Y-4.102
X5.2919Y-4.2122
X5.2919Y-4.2594
X5.2927Y-2.6925
X5.2927Y-2.7398
X5.2927Y-2.85
X5.2927Y-2.8972
X5.3055Y-4.8087
X5.3055Y-4.8579
X5.3055Y-4.9071
X5.3055Y-4.9563
X5.3055Y-5.0055
X5.3547Y-4.8087
X5.3547Y-4.8579
X5.3547Y-5.0055
X5.3852Y-4.5685
X5.3852Y-4.7083
X5.4039Y-4.8087
X5.4531Y-4.8087
X5.4852Y-3.1906
X5.4852Y-3.8598
X5.4852Y-4.5685
X5.4852Y-4.7083
X5.5024Y-4.8087
X5.5024Y-4.8579
X5.5024Y-5.0055
X5.5516Y-4.8087
X5.5516Y-4.8579
X5.5516Y-4.9071
X5.5516Y-4.9563
X5.5516Y-5.0055
X5.5852Y-3.1906
X5.5852Y-3.8598
X5.5852Y-4.5685
X5.5852Y-4.7083
X5.9134Y-4.8957
X5.9268Y-3.6907
X5.9268Y-3.7301
X5.9268Y-3.7695
X5.9274Y-3.3953
X5.9274Y-3.4346
X5.9528Y-4.8957
X5.9661Y-3.6907
X5.9661Y-3.7301
X5.9661Y-3.7695
X5.9667Y-3.3953
X5.9667Y-3.4346
X5.9882Y-4.8406
X5.9882Y-4.878
X5.9943Y-4.2181
X5.9943Y-4.2654
X5.9943Y-4.3126
X6.01Y-3.9504
X6.01Y-3.9898
X6.0177Y-3.1043
X6.0177Y-3.1634
X6.0258Y-3.6354
X6.0573Y-3.9504
X6.0573Y-3.9898
X6.0652Y-3.6354
X6.0671Y-2.7933
X6.0794Y-2.755
X6.0807Y-2.7156
X6.1045Y-3.6354
X6.1124Y-3.1039
X6.1124Y-3.163
X6.1439Y-3.6354
X6.1833Y-3.6354
X6.2069Y-3.1039
X6.2069Y-3.163
X6.2148Y-4.0921
X6.2185Y-4.8484
X6.2185Y-4.8898
X6.2305Y-3.5803
X6.2325Y-2.5039
X6.2384Y-2.8835
X6.2468Y-2.7592
X6.2559Y-4.8898
X6.2567Y-4.0187
X6.2756Y-2.6927
X6.2778Y-3.8953
X6.2933Y-4.8898
X6.2935Y-4.2181
X6.2935Y-4.2654
X6.2935Y-4.3126
X6.3014Y-3.1039
X6.3014Y-3.163
X6.314Y-2.7783
X6.3407Y-4.2181
X6.3407Y-4.2654
X6.3407Y-4.3126
X6.3711Y-2.8866
X6.373Y-2.6425
X6.378Y-2.6864
X6.388Y-4.2181
X6.388Y-4.2654
X6.3919Y-3.2831
X6.3998Y-3.9504
X6.4018Y-3.8008
X6.4045Y-2.8374
X6.4222Y-2.7911
X6.44Y-2.5362
X6.4695Y-2.987
X6.4724Y-2.5877
X6.4744Y-4.378
X6.4744Y-4.4134
X6.4744Y-4.4488
X6.4864Y-3.8303
X6.5217Y-4.313
X6.5217Y-4.3465
X6.5258Y-3.285
X6.5307Y-3.2004
X6.5581Y-2.6406
X6.5581Y-2.7921
X6.5689Y-2.9801
X6.6071Y-2.6859
X6.6093Y-2.7291
X6.6289Y-2.5382
X6.6289Y-2.6012
X6.6459Y-4.1512
X6.6596Y-3.285
X6.6703Y-2.8866
X6.7018Y-2.987
X6.7157Y-3.0941
X6.7344Y-4.2102
X6.7659Y-3.8992
X6.7659Y-3.9504
X6.7738Y-3.6512
X6.7738Y-3.9976
X6.7738Y-4.0528
X6.7807Y-3.852
X6.7817Y-3.6984
X6.7846Y-4.3618
X6.7894Y-4.124
X6.7963Y-3.0724
X6.825Y-4.1906
X6.8427Y-3.7772
X6.8563Y-3.3598
X6.8563Y-4.122
X6.8594Y-3.4435
X6.8878Y-4.7146
X6.8878Y-4.7776
X6.8878Y-4.813
X6.8878Y-4.8701
X6.8878Y-4.9055
X6.8878Y-4.9665
X6.8957Y-4.0886
X6.9096Y-3.9878
X6.9175Y-4.3047
X6.9549Y-4.3224
X6.9549Y-4.3579
X6.9559Y-4.4002
X6.9569Y-3.9307
X6.9648Y-3.7024
X6.9766Y-3.5173
X7.0317Y-3.478
X7.0396Y-3.9189
X7.0578Y-3.5231
X7.0593Y-3.6315
X7.0728Y-4.1811
X7.0728Y-4.2165
X7.1065Y-3.6512
X7.1102Y-4.2303
X7.1102Y-4.2992
X7.1102Y-4.3465
X7.1262Y-3.9583
X7.1476Y-4.2992
X7.1476Y-4.3465
X7.1508Y-3.1827
X7.1508Y-4.8185
X7.1516Y-4.2303
X7.1577Y-3.9346
X7.1587Y-3.5114
X7.1646Y-4.1079
X7.1904Y-3.9565
X7.2167Y-3.6512
X7.2522Y-4.9307
X7.2561Y-4.0882
X7.2876Y-3.913
X7.2917Y-3.9521
X7.2943Y-4.0786
X7.3033Y-3.5685
X7.3327Y-4.6358
X7.3789Y-3.6306
X7.3996Y-4.6319
X7.4096Y-3.6551
X7.4272Y-2.5217
X7.4272Y-2.6004
X7.4272Y-2.6791
X7.4677Y-2.7496
X7.4677Y-2.789
X7.4677Y-2.8283
X7.4677Y-2.8677
X7.4677Y-2.9071
X7.4677Y-2.9465
X7.4677Y-3.4307
X7.4677Y-3.4701
X7.4677Y-3.5094
X7.4677Y-3.5488
X7.4677Y-3.5882
X7.4677Y-3.6276
X7.4677Y-4.1138
X7.4677Y-4.1551
X7.4677Y-4.1945
X7.4677Y-4.2339
X7.4677Y-4.2732
X7.4677Y-4.3165
X7.502Y-4.3839
X7.502Y-4.4626
X7.502Y-4.5413
X7.502Y-4.6201
X7.502Y-4.6988
X7.502Y-4.7776
X7.502Y-4.8563
X7.502Y-4.935
X7.5059Y-2.5217
X7.5059Y-2.6004
X7.5059Y-2.6791
X7.5071Y-2.852
X7.5189Y-4.2142
X7.5504Y-2.852
X7.5661Y-4.2142
X7.5807Y-4.3839
X7.5807Y-4.4626
X7.5807Y-4.5413
X7.5807Y-4.6201
X7.5807Y-4.6988
X7.5807Y-4.7776
X7.5807Y-4.8563
X7.5807Y-4.935
X7.5846Y-2.5217
X7.5846Y-2.6004
X7.5846Y-2.6791
X7.5937Y-2.852
X7.609Y-3.537
X7.609Y-4.2142
X7.6094Y-3.4858
X7.6094Y-3.5882
X7.6094Y-4.163
X7.6094Y-4.2654
X7.637Y-2.852
X7.6594Y-4.3839
X7.6594Y-4.4626
X7.6594Y-4.5413
X7.6594Y-4.6201
X7.6594Y-4.6988
X7.6594Y-4.7776
X7.6594Y-4.8563
X7.6594Y-4.935
X7.6634Y-2.5217
X7.6634Y-2.6004
X7.6634Y-2.6791
X7.6803Y-2.852
X7.6882Y-3.5331
X7.6882Y-4.2142
X7.7236Y-2.852
X7.7315Y-2.7496
X7.7315Y-2.789
X7.7315Y-2.9071
X7.7315Y-2.9504
X7.7315Y-3.4307
X7.7315Y-3.4701
X7.7315Y-3.5094
X7.7315Y-3.5488
X7.7315Y-3.5882
X7.7315Y-3.6276
X7.7335Y-4.1177
X7.7335Y-4.1571
X7.7335Y-4.1965
X7.7335Y-4.2358
X7.7335Y-4.2752
X7.7335Y-4.3146
X7.7382Y-4.3839
X7.7382Y-4.4626
X7.7382Y-4.5413
X7.7382Y-4.6201
X7.7382Y-4.6988
X7.7382Y-4.7776
X7.7382Y-4.8563
X7.7382Y-4.935
X7.7421Y-2.5217
X7.7421Y-2.6004
X7.7421Y-2.6791
X7.8169Y-4.3839
X7.8169Y-4.4626
X7.8169Y-4.5413
X7.8169Y-4.6201
X7.8169Y-4.6988
X7.8169Y-4.7776
X7.8169Y-4.8563
X7.8169Y-4.935
X7.8209Y-2.5217
X7.8209Y-2.6004
X7.8209Y-2.6791
X7.822Y-2.7496
X7.822Y-2.789
X7.822Y-2.8283
X7.822Y-2.8677
X7.822Y-2.9071
X7.822Y-2.9465
X7.8614Y-2.7496
X7.8614Y-2.789
X7.8614Y-2.8283
X7.8614Y-2.8677
X7.8614Y-2.9071
X7.8614Y-2.9465
X7.8957Y-4.3839
X7.8957Y-4.4626
X7.8957Y-4.5413
X7.8957Y-4.6201
X7.8957Y-4.6988
X7.8957Y-4.7776
X7.8957Y-4.8563
X7.8957Y-4.935
X7.8996Y-2.5217
X7.8996Y-2.6004
X7.8996Y-2.6791
X7.9744Y-4.3839
X7.9744Y-4.4626
X7.9744Y-4.5413
X7.9744Y-4.6201
X7.9744Y-4.6988
X7.9744Y-4.7776
X7.9744Y-4.8563
X7.9744Y-4.935
X7.9783Y-2.5217
X7.9783Y-2.6004
X7.9783Y-2.6791
T2
X5.8327Y-3.4114
X5.8327Y-3.4547
X5.8327Y-3.498
X5.8327Y-4.1339
X5.8327Y-4.1772
X5.8327Y-4.2205
X5.8327Y-4.8612
X5.8327Y-4.9045
X5.8327Y-2.6988
X5.8327Y-2.7421
X5.8327Y-2.7854
X5.9205Y-4.8047
X5.9205Y-4.8441
X3.9541Y-4.1945
X3.9541Y-4.2339
X3.9935Y-4.1945
X3.9935Y-4.2339
X4.0329Y-4.1945
X4.0329Y-4.2339
X4.0722Y-4.1945
X4.0722Y-4.2339
X4.1116Y-4.1945
X4.1116Y-4.2339
X4.151Y-4.1945
X4.151Y-4.2339
X5.7327Y-4.8047
X5.7327Y-4.8441
X3.9541Y-3.5134
X3.9541Y-3.5528
X3.9935Y-3.5134
X3.9935Y-3.5528
X4.0329Y-3.5134
X4.0329Y-3.5528
X4.0722Y-3.5134
X4.0722Y-3.5528
X4.1116Y-3.5134
X4.1116Y-3.5528
X4.151Y-3.5134
X4.151Y-3.5528
X5.9205Y-4.5724
X5.9205Y-4.6118
X5.9205Y-4.6512
X5.9205Y-4.6906
X3.9541Y-2.8323
X3.9541Y-2.8717
X3.9935Y-2.8323
X3.9935Y-2.8717
X4.0329Y-2.8323
X4.0329Y-2.8717
X4.0722Y-2.8323
X4.0722Y-2.8717
X4.1116Y-2.8323
X4.1116Y-2.8717
X4.151Y-2.8323
X4.151Y-2.8717
X5.9205Y-3.8913
X5.9205Y-3.9307
X5.9205Y-3.9701
X5.9205Y-4.0094
X5.7327Y-3.8913
X5.7327Y-3.9307
X5.7327Y-3.9701
X5.7327Y-4.0094
X5.7327Y-4.5724
X5.7327Y-4.6118
X5.7327Y-4.6512
X5.7327Y-4.6906
X5.9205Y-3.2102
X5.9205Y-3.2496
X5.9205Y-3.289
X5.9205Y-3.3283
X5.7327Y-3.2102
X5.7327Y-3.2496
X5.7327Y-3.289
X5.7327Y-3.3283
T4
X7.3171Y-4.976
X7.4274Y-4.976
X7.2315Y-4.2161
X7.2315Y-4.3161
X7.2315Y-4.4161
X7.2315Y-4.5161
X4.588Y-4.9209
X4.8833Y-4.9209
X6.9234Y-2.5705
X7.0234Y-2.5705
X7.1234Y-2.5705
X7.2234Y-2.5705
X7.3234Y-2.5705
X6.9864Y-4.976
X7.2069Y-4.976
X7.0967Y-4.976
X4.5713Y-2.5488
X4.8665Y-2.5488
T7
X4.2179Y-4.9248
X5.4276Y-4.9258
T3
G00X5.9341Y-2.5787
M15
G01X5.9931Y-2.5787
M16
G05
G00X5.9341Y-2.9189
M15
G01X5.9931Y-2.9189
M16
G05
G00X6.1549Y-2.5787
M15
G01X6.1943Y-2.5787
M16
G05
G00X6.1549Y-2.9189
M15
G01X6.1943Y-2.9189
M16
G05
T5
G00X5.8331Y-2.8547
M15
G01X5.8331Y-3.3469
M16
G05
G00X5.8327Y-3.5719
M15
G01X5.8327Y-4.064
M16
G05
G00X5.8327Y-4.2854
M15
G01X5.8327Y-4.7776
M16
G05
T6
G00X7.9638Y-2.8323
M15
G01X7.9638Y-2.8717
M16
G05
G00X7.9638Y-4.1945
M15
G01X7.9638Y-4.2339
M16
G05
G00X7.9638Y-3.5173
M15
G01X7.9638Y-3.5567
M16
G05
T0
M30
