%TF.GenerationSoftware,KiCad,Pcbnew,(5.1.8)-1*%
%TF.CreationDate,2020-11-11T18:37:22-08:00*%
%TF.ProjectId,MicroMotor,4d696372-6f4d-46f7-946f-722e6b696361,rev?*%
%TF.SameCoordinates,Original*%
%TF.FileFunction,Paste,Top*%
%TF.FilePolarity,Positive*%
%FSLAX46Y46*%
G04 Gerber Fmt 4.6, Leading zero omitted, Abs format (unit mm)*
G04 Created by KiCad (PCBNEW (5.1.8)-1) date 2020-11-11 18:37:22*
%MOMM*%
%LPD*%
G01*
G04 APERTURE LIST*
%ADD10C,0.152400*%
%ADD11R,1.879600X0.558800*%
%ADD12O,0.240000X0.599999*%
%ADD13O,0.599999X0.240000*%
%ADD14R,2.050001X2.550000*%
%ADD15R,2.550000X2.050001*%
%ADD16R,1.981200X0.558800*%
%ADD17R,2.400000X3.300001*%
%ADD18R,2.400000X1.000001*%
%ADD19R,0.900000X1.200000*%
%ADD20R,0.450000X1.380000*%
%ADD21R,1.425000X1.550000*%
%ADD22R,1.650000X1.300000*%
%ADD23R,1.800000X1.900000*%
%ADD24R,1.000000X1.900000*%
%ADD25R,1.500000X4.000000*%
%ADD26R,0.750000X0.500000*%
%ADD27R,1.500000X1.500000*%
%ADD28R,0.750000X0.400000*%
%ADD29R,0.900000X1.000000*%
%ADD30R,0.800000X0.400000*%
%ADD31R,0.400000X0.800000*%
%ADD32R,2.100000X2.100000*%
%ADD33R,0.520000X0.300000*%
%ADD34R,0.490000X0.300000*%
G04 APERTURE END LIST*
D10*
%TO.C,U4*%
X150050000Y-75160000D02*
X150050000Y-76300000D01*
X150967001Y-75160000D02*
X150050000Y-75160000D01*
X150967001Y-76300000D02*
X150967001Y-75160000D01*
X150050000Y-76300000D02*
X150967001Y-76300000D01*
X149850000Y-76300000D02*
X149850000Y-75160000D01*
X148932999Y-76300000D02*
X149850000Y-76300000D01*
X148932999Y-75160000D02*
X148932999Y-76300000D01*
X149850000Y-75160000D02*
X148932999Y-75160000D01*
X149850000Y-77639998D02*
X149850000Y-76499997D01*
X148932999Y-77639998D02*
X149850000Y-77639998D01*
X148932999Y-76499997D02*
X148932999Y-77639998D01*
X149850000Y-76499997D02*
X148932999Y-76499997D01*
X150050000Y-76499997D02*
X150050000Y-77639998D01*
X150967001Y-76499997D02*
X150050000Y-76499997D01*
X150967001Y-77639998D02*
X150967001Y-76499997D01*
X150050000Y-77639998D02*
X150967001Y-77639998D01*
%TO.C,U6*%
X149850000Y-95089998D02*
X149850000Y-93949998D01*
X148932999Y-95089998D02*
X149850000Y-95089998D01*
X148932999Y-93949998D02*
X148932999Y-95089998D01*
X149850000Y-93949998D02*
X148932999Y-93949998D01*
X150050000Y-93949998D02*
X150050000Y-95089998D01*
X150967001Y-93949998D02*
X150050000Y-93949998D01*
X150967001Y-95089998D02*
X150967001Y-93949998D01*
X150050000Y-95089998D02*
X150967001Y-95089998D01*
X150050000Y-92610000D02*
X150050000Y-93750001D01*
X150967001Y-92610000D02*
X150050000Y-92610000D01*
X150967001Y-93750001D02*
X150967001Y-92610000D01*
X150050000Y-93750001D02*
X150967001Y-93750001D01*
X149850000Y-93750001D02*
X149850000Y-92610000D01*
X148932999Y-93750001D02*
X149850000Y-93750001D01*
X148932999Y-92610000D02*
X148932999Y-93750001D01*
X149850000Y-92610000D02*
X148932999Y-92610000D01*
%TO.C,U5*%
X146360002Y-84600000D02*
X146360002Y-85517001D01*
X146360002Y-85517001D02*
X147500003Y-85517001D01*
X147500003Y-85517001D02*
X147500003Y-84600000D01*
X147500003Y-84600000D02*
X146360002Y-84600000D01*
X147500003Y-84400000D02*
X147500003Y-83482999D01*
X147500003Y-83482999D02*
X146360002Y-83482999D01*
X146360002Y-83482999D02*
X146360002Y-84400000D01*
X146360002Y-84400000D02*
X147500003Y-84400000D01*
X148840000Y-84400000D02*
X148840000Y-83482999D01*
X148840000Y-83482999D02*
X147700000Y-83482999D01*
X147700000Y-83482999D02*
X147700000Y-84400000D01*
X147700000Y-84400000D02*
X148840000Y-84400000D01*
X147700000Y-84600000D02*
X147700000Y-85517001D01*
X147700000Y-85517001D02*
X148840000Y-85517001D01*
X148840000Y-85517001D02*
X148840000Y-84600000D01*
X148840000Y-84600000D02*
X147700000Y-84600000D01*
%TD*%
%TO.C,R21*%
G36*
G01*
X142775000Y-76325000D02*
X143325000Y-76325000D01*
G75*
G02*
X143525000Y-76525000I0J-200000D01*
G01*
X143525000Y-76925000D01*
G75*
G02*
X143325000Y-77125000I-200000J0D01*
G01*
X142775000Y-77125000D01*
G75*
G02*
X142575000Y-76925000I0J200000D01*
G01*
X142575000Y-76525000D01*
G75*
G02*
X142775000Y-76325000I200000J0D01*
G01*
G37*
G36*
G01*
X142775000Y-74675000D02*
X143325000Y-74675000D01*
G75*
G02*
X143525000Y-74875000I0J-200000D01*
G01*
X143525000Y-75275000D01*
G75*
G02*
X143325000Y-75475000I-200000J0D01*
G01*
X142775000Y-75475000D01*
G75*
G02*
X142575000Y-75275000I0J200000D01*
G01*
X142575000Y-74875000D01*
G75*
G02*
X142775000Y-74675000I200000J0D01*
G01*
G37*
%TD*%
%TO.C,R20*%
G36*
G01*
X137525000Y-97525000D02*
X137525000Y-96975000D01*
G75*
G02*
X137725000Y-96775000I200000J0D01*
G01*
X138125000Y-96775000D01*
G75*
G02*
X138325000Y-96975000I0J-200000D01*
G01*
X138325000Y-97525000D01*
G75*
G02*
X138125000Y-97725000I-200000J0D01*
G01*
X137725000Y-97725000D01*
G75*
G02*
X137525000Y-97525000I0J200000D01*
G01*
G37*
G36*
G01*
X135875000Y-97525000D02*
X135875000Y-96975000D01*
G75*
G02*
X136075000Y-96775000I200000J0D01*
G01*
X136475000Y-96775000D01*
G75*
G02*
X136675000Y-96975000I0J-200000D01*
G01*
X136675000Y-97525000D01*
G75*
G02*
X136475000Y-97725000I-200000J0D01*
G01*
X136075000Y-97725000D01*
G75*
G02*
X135875000Y-97525000I0J200000D01*
G01*
G37*
%TD*%
%TO.C,D14*%
G36*
G01*
X143306250Y-78600000D02*
X142793750Y-78600000D01*
G75*
G02*
X142575000Y-78381250I0J218750D01*
G01*
X142575000Y-77943750D01*
G75*
G02*
X142793750Y-77725000I218750J0D01*
G01*
X143306250Y-77725000D01*
G75*
G02*
X143525000Y-77943750I0J-218750D01*
G01*
X143525000Y-78381250D01*
G75*
G02*
X143306250Y-78600000I-218750J0D01*
G01*
G37*
G36*
G01*
X143306250Y-80175000D02*
X142793750Y-80175000D01*
G75*
G02*
X142575000Y-79956250I0J218750D01*
G01*
X142575000Y-79518750D01*
G75*
G02*
X142793750Y-79300000I218750J0D01*
G01*
X143306250Y-79300000D01*
G75*
G02*
X143525000Y-79518750I0J-218750D01*
G01*
X143525000Y-79956250D01*
G75*
G02*
X143306250Y-80175000I-218750J0D01*
G01*
G37*
%TD*%
%TO.C,D13*%
G36*
G01*
X139800000Y-96993750D02*
X139800000Y-97506250D01*
G75*
G02*
X139581250Y-97725000I-218750J0D01*
G01*
X139143750Y-97725000D01*
G75*
G02*
X138925000Y-97506250I0J218750D01*
G01*
X138925000Y-96993750D01*
G75*
G02*
X139143750Y-96775000I218750J0D01*
G01*
X139581250Y-96775000D01*
G75*
G02*
X139800000Y-96993750I0J-218750D01*
G01*
G37*
G36*
G01*
X141375000Y-96993750D02*
X141375000Y-97506250D01*
G75*
G02*
X141156250Y-97725000I-218750J0D01*
G01*
X140718750Y-97725000D01*
G75*
G02*
X140500000Y-97506250I0J218750D01*
G01*
X140500000Y-96993750D01*
G75*
G02*
X140718750Y-96775000I218750J0D01*
G01*
X141156250Y-96775000D01*
G75*
G02*
X141375000Y-96993750I0J-218750D01*
G01*
G37*
%TD*%
D11*
%TO.C,U9*%
X131462900Y-95085000D03*
X131462900Y-93815000D03*
X131462900Y-92545000D03*
X131462900Y-91275000D03*
X131462900Y-90005000D03*
X131462900Y-88735000D03*
X131462900Y-87465000D03*
X131462900Y-86195000D03*
X131462900Y-84925000D03*
X131462900Y-83655000D03*
X131462900Y-82385000D03*
X131462900Y-81115000D03*
X140937100Y-81115000D03*
X140937100Y-82385000D03*
X140937100Y-83655000D03*
X140937100Y-84925000D03*
X140937100Y-86195000D03*
X140937100Y-87465000D03*
X140937100Y-88735000D03*
X140937100Y-90005000D03*
X140937100Y-91275000D03*
X140937100Y-92545000D03*
X140937100Y-93815000D03*
X140937100Y-95085000D03*
%TD*%
%TO.C,C27*%
G36*
G01*
X119450000Y-82025000D02*
X119450000Y-81075000D01*
G75*
G02*
X119700000Y-80825000I250000J0D01*
G01*
X120200000Y-80825000D01*
G75*
G02*
X120450000Y-81075000I0J-250000D01*
G01*
X120450000Y-82025000D01*
G75*
G02*
X120200000Y-82275000I-250000J0D01*
G01*
X119700000Y-82275000D01*
G75*
G02*
X119450000Y-82025000I0J250000D01*
G01*
G37*
G36*
G01*
X121350000Y-82025000D02*
X121350000Y-81075000D01*
G75*
G02*
X121600000Y-80825000I250000J0D01*
G01*
X122100000Y-80825000D01*
G75*
G02*
X122350000Y-81075000I0J-250000D01*
G01*
X122350000Y-82025000D01*
G75*
G02*
X122100000Y-82275000I-250000J0D01*
G01*
X121600000Y-82275000D01*
G75*
G02*
X121350000Y-82025000I0J250000D01*
G01*
G37*
%TD*%
%TO.C,D5*%
G36*
G01*
X123525000Y-101925001D02*
X123525000Y-99774999D01*
G75*
G02*
X123774999Y-99525000I249999J0D01*
G01*
X124625001Y-99525000D01*
G75*
G02*
X124875000Y-99774999I0J-249999D01*
G01*
X124875000Y-101925001D01*
G75*
G02*
X124625001Y-102175000I-249999J0D01*
G01*
X123774999Y-102175000D01*
G75*
G02*
X123525000Y-101925001I0J249999D01*
G01*
G37*
G36*
G01*
X128025000Y-101925001D02*
X128025000Y-99774999D01*
G75*
G02*
X128274999Y-99525000I249999J0D01*
G01*
X129125001Y-99525000D01*
G75*
G02*
X129375000Y-99774999I0J-249999D01*
G01*
X129375000Y-101925001D01*
G75*
G02*
X129125001Y-102175000I-249999J0D01*
G01*
X128274999Y-102175000D01*
G75*
G02*
X128025000Y-101925001I0J249999D01*
G01*
G37*
%TD*%
%TO.C,D2*%
G36*
G01*
X177843750Y-89375000D02*
X178356250Y-89375000D01*
G75*
G02*
X178575000Y-89593750I0J-218750D01*
G01*
X178575000Y-90031250D01*
G75*
G02*
X178356250Y-90250000I-218750J0D01*
G01*
X177843750Y-90250000D01*
G75*
G02*
X177625000Y-90031250I0J218750D01*
G01*
X177625000Y-89593750D01*
G75*
G02*
X177843750Y-89375000I218750J0D01*
G01*
G37*
G36*
G01*
X177843750Y-90950000D02*
X178356250Y-90950000D01*
G75*
G02*
X178575000Y-91168750I0J-218750D01*
G01*
X178575000Y-91606250D01*
G75*
G02*
X178356250Y-91825000I-218750J0D01*
G01*
X177843750Y-91825000D01*
G75*
G02*
X177625000Y-91606250I0J218750D01*
G01*
X177625000Y-91168750D01*
G75*
G02*
X177843750Y-90950000I218750J0D01*
G01*
G37*
%TD*%
%TO.C,R4*%
G36*
G01*
X176225000Y-89375000D02*
X176775000Y-89375000D01*
G75*
G02*
X176975000Y-89575000I0J-200000D01*
G01*
X176975000Y-89975000D01*
G75*
G02*
X176775000Y-90175000I-200000J0D01*
G01*
X176225000Y-90175000D01*
G75*
G02*
X176025000Y-89975000I0J200000D01*
G01*
X176025000Y-89575000D01*
G75*
G02*
X176225000Y-89375000I200000J0D01*
G01*
G37*
G36*
G01*
X176225000Y-91025000D02*
X176775000Y-91025000D01*
G75*
G02*
X176975000Y-91225000I0J-200000D01*
G01*
X176975000Y-91625000D01*
G75*
G02*
X176775000Y-91825000I-200000J0D01*
G01*
X176225000Y-91825000D01*
G75*
G02*
X176025000Y-91625000I0J200000D01*
G01*
X176025000Y-91225000D01*
G75*
G02*
X176225000Y-91025000I200000J0D01*
G01*
G37*
%TD*%
D12*
%TO.C,U4*%
X149200002Y-74500001D03*
D13*
X148300001Y-75149997D03*
X148300001Y-75649996D03*
X148300001Y-76149998D03*
X148300001Y-76649997D03*
X148300001Y-77149998D03*
X148300001Y-77649997D03*
D12*
X149200002Y-78299999D03*
X150700004Y-78299999D03*
D13*
X151599999Y-77649997D03*
X151599999Y-77149998D03*
X151599999Y-76649997D03*
X151599999Y-76149998D03*
X151599999Y-75649996D03*
X151599999Y-75149997D03*
D12*
X150700004Y-74500001D03*
D14*
X149950000Y-76400000D03*
%TD*%
D12*
%TO.C,U6*%
X150699998Y-95749997D03*
D13*
X151599999Y-95100001D03*
X151599999Y-94600002D03*
X151599999Y-94100000D03*
X151599999Y-93600001D03*
X151599999Y-93100000D03*
X151599999Y-92600001D03*
D12*
X150699998Y-91949999D03*
X149199996Y-91949999D03*
D13*
X148300001Y-92600001D03*
X148300001Y-93100000D03*
X148300001Y-93600001D03*
X148300001Y-94100000D03*
X148300001Y-94600002D03*
X148300001Y-95100001D03*
D12*
X149199996Y-95749997D03*
D14*
X149950000Y-93849998D03*
%TD*%
D15*
%TO.C,U5*%
X147600000Y-84500000D03*
D13*
X149499999Y-85250004D03*
D12*
X148850003Y-86149999D03*
X148350004Y-86149999D03*
X147850002Y-86149999D03*
X147350003Y-86149999D03*
X146850002Y-86149999D03*
X146350003Y-86149999D03*
D13*
X145700001Y-85250004D03*
X145700001Y-83750002D03*
D12*
X146350003Y-82850001D03*
X146850002Y-82850001D03*
X147350003Y-82850001D03*
X147850002Y-82850001D03*
X148350004Y-82850001D03*
X148850003Y-82850001D03*
D13*
X149499999Y-83750002D03*
%TD*%
D16*
%TO.C,U3*%
X172763800Y-87305000D03*
X172763800Y-86035000D03*
X172763800Y-84765000D03*
X172763800Y-83495000D03*
X167836200Y-83495000D03*
X167836200Y-84765000D03*
X167836200Y-86035000D03*
X167836200Y-87305000D03*
%TD*%
D17*
%TO.C,U7*%
X156399998Y-103550000D03*
D18*
X162199999Y-101250000D03*
X162199999Y-103550000D03*
X162199999Y-105850000D03*
%TD*%
%TO.C,C1*%
G36*
G01*
X180550000Y-78150000D02*
X180550000Y-77650000D01*
G75*
G02*
X180775000Y-77425000I225000J0D01*
G01*
X181225000Y-77425000D01*
G75*
G02*
X181450000Y-77650000I0J-225000D01*
G01*
X181450000Y-78150000D01*
G75*
G02*
X181225000Y-78375000I-225000J0D01*
G01*
X180775000Y-78375000D01*
G75*
G02*
X180550000Y-78150000I0J225000D01*
G01*
G37*
G36*
G01*
X182100000Y-78150000D02*
X182100000Y-77650000D01*
G75*
G02*
X182325000Y-77425000I225000J0D01*
G01*
X182775000Y-77425000D01*
G75*
G02*
X183000000Y-77650000I0J-225000D01*
G01*
X183000000Y-78150000D01*
G75*
G02*
X182775000Y-78375000I-225000J0D01*
G01*
X182325000Y-78375000D01*
G75*
G02*
X182100000Y-78150000I0J225000D01*
G01*
G37*
%TD*%
%TO.C,C2*%
G36*
G01*
X179750000Y-80925000D02*
X180250000Y-80925000D01*
G75*
G02*
X180475000Y-81150000I0J-225000D01*
G01*
X180475000Y-81600000D01*
G75*
G02*
X180250000Y-81825000I-225000J0D01*
G01*
X179750000Y-81825000D01*
G75*
G02*
X179525000Y-81600000I0J225000D01*
G01*
X179525000Y-81150000D01*
G75*
G02*
X179750000Y-80925000I225000J0D01*
G01*
G37*
G36*
G01*
X179750000Y-79375000D02*
X180250000Y-79375000D01*
G75*
G02*
X180475000Y-79600000I0J-225000D01*
G01*
X180475000Y-80050000D01*
G75*
G02*
X180250000Y-80275000I-225000J0D01*
G01*
X179750000Y-80275000D01*
G75*
G02*
X179525000Y-80050000I0J225000D01*
G01*
X179525000Y-79600000D01*
G75*
G02*
X179750000Y-79375000I225000J0D01*
G01*
G37*
%TD*%
%TO.C,C3*%
G36*
G01*
X174950000Y-80925000D02*
X175450000Y-80925000D01*
G75*
G02*
X175675000Y-81150000I0J-225000D01*
G01*
X175675000Y-81600000D01*
G75*
G02*
X175450000Y-81825000I-225000J0D01*
G01*
X174950000Y-81825000D01*
G75*
G02*
X174725000Y-81600000I0J225000D01*
G01*
X174725000Y-81150000D01*
G75*
G02*
X174950000Y-80925000I225000J0D01*
G01*
G37*
G36*
G01*
X174950000Y-79375000D02*
X175450000Y-79375000D01*
G75*
G02*
X175675000Y-79600000I0J-225000D01*
G01*
X175675000Y-80050000D01*
G75*
G02*
X175450000Y-80275000I-225000J0D01*
G01*
X174950000Y-80275000D01*
G75*
G02*
X174725000Y-80050000I0J225000D01*
G01*
X174725000Y-79600000D01*
G75*
G02*
X174950000Y-79375000I225000J0D01*
G01*
G37*
%TD*%
%TO.C,C4*%
G36*
G01*
X163325000Y-76250000D02*
X163325000Y-76750000D01*
G75*
G02*
X163100000Y-76975000I-225000J0D01*
G01*
X162650000Y-76975000D01*
G75*
G02*
X162425000Y-76750000I0J225000D01*
G01*
X162425000Y-76250000D01*
G75*
G02*
X162650000Y-76025000I225000J0D01*
G01*
X163100000Y-76025000D01*
G75*
G02*
X163325000Y-76250000I0J-225000D01*
G01*
G37*
G36*
G01*
X161775000Y-76250000D02*
X161775000Y-76750000D01*
G75*
G02*
X161550000Y-76975000I-225000J0D01*
G01*
X161100000Y-76975000D01*
G75*
G02*
X160875000Y-76750000I0J225000D01*
G01*
X160875000Y-76250000D01*
G75*
G02*
X161100000Y-76025000I225000J0D01*
G01*
X161550000Y-76025000D01*
G75*
G02*
X161775000Y-76250000I0J-225000D01*
G01*
G37*
%TD*%
%TO.C,C5*%
G36*
G01*
X172725000Y-90400000D02*
X172725000Y-90900000D01*
G75*
G02*
X172500000Y-91125000I-225000J0D01*
G01*
X172050000Y-91125000D01*
G75*
G02*
X171825000Y-90900000I0J225000D01*
G01*
X171825000Y-90400000D01*
G75*
G02*
X172050000Y-90175000I225000J0D01*
G01*
X172500000Y-90175000D01*
G75*
G02*
X172725000Y-90400000I0J-225000D01*
G01*
G37*
G36*
G01*
X174275000Y-90400000D02*
X174275000Y-90900000D01*
G75*
G02*
X174050000Y-91125000I-225000J0D01*
G01*
X173600000Y-91125000D01*
G75*
G02*
X173375000Y-90900000I0J225000D01*
G01*
X173375000Y-90400000D01*
G75*
G02*
X173600000Y-90175000I225000J0D01*
G01*
X174050000Y-90175000D01*
G75*
G02*
X174275000Y-90400000I0J-225000D01*
G01*
G37*
%TD*%
%TO.C,C6*%
G36*
G01*
X150550000Y-89825000D02*
X151050000Y-89825000D01*
G75*
G02*
X151275000Y-90050000I0J-225000D01*
G01*
X151275000Y-90500000D01*
G75*
G02*
X151050000Y-90725000I-225000J0D01*
G01*
X150550000Y-90725000D01*
G75*
G02*
X150325000Y-90500000I0J225000D01*
G01*
X150325000Y-90050000D01*
G75*
G02*
X150550000Y-89825000I225000J0D01*
G01*
G37*
G36*
G01*
X150550000Y-88275000D02*
X151050000Y-88275000D01*
G75*
G02*
X151275000Y-88500000I0J-225000D01*
G01*
X151275000Y-88950000D01*
G75*
G02*
X151050000Y-89175000I-225000J0D01*
G01*
X150550000Y-89175000D01*
G75*
G02*
X150325000Y-88950000I0J225000D01*
G01*
X150325000Y-88500000D01*
G75*
G02*
X150550000Y-88275000I225000J0D01*
G01*
G37*
%TD*%
%TO.C,C7*%
G36*
G01*
X164575000Y-80150000D02*
X164575000Y-79650000D01*
G75*
G02*
X164800000Y-79425000I225000J0D01*
G01*
X165250000Y-79425000D01*
G75*
G02*
X165475000Y-79650000I0J-225000D01*
G01*
X165475000Y-80150000D01*
G75*
G02*
X165250000Y-80375000I-225000J0D01*
G01*
X164800000Y-80375000D01*
G75*
G02*
X164575000Y-80150000I0J225000D01*
G01*
G37*
G36*
G01*
X166125000Y-80150000D02*
X166125000Y-79650000D01*
G75*
G02*
X166350000Y-79425000I225000J0D01*
G01*
X166800000Y-79425000D01*
G75*
G02*
X167025000Y-79650000I0J-225000D01*
G01*
X167025000Y-80150000D01*
G75*
G02*
X166800000Y-80375000I-225000J0D01*
G01*
X166350000Y-80375000D01*
G75*
G02*
X166125000Y-80150000I0J225000D01*
G01*
G37*
%TD*%
%TO.C,C8*%
G36*
G01*
X165000000Y-93625000D02*
X165500000Y-93625000D01*
G75*
G02*
X165725000Y-93850000I0J-225000D01*
G01*
X165725000Y-94300000D01*
G75*
G02*
X165500000Y-94525000I-225000J0D01*
G01*
X165000000Y-94525000D01*
G75*
G02*
X164775000Y-94300000I0J225000D01*
G01*
X164775000Y-93850000D01*
G75*
G02*
X165000000Y-93625000I225000J0D01*
G01*
G37*
G36*
G01*
X165000000Y-92075000D02*
X165500000Y-92075000D01*
G75*
G02*
X165725000Y-92300000I0J-225000D01*
G01*
X165725000Y-92750000D01*
G75*
G02*
X165500000Y-92975000I-225000J0D01*
G01*
X165000000Y-92975000D01*
G75*
G02*
X164775000Y-92750000I0J225000D01*
G01*
X164775000Y-92300000D01*
G75*
G02*
X165000000Y-92075000I225000J0D01*
G01*
G37*
%TD*%
%TO.C,C9*%
G36*
G01*
X163400000Y-92075000D02*
X163900000Y-92075000D01*
G75*
G02*
X164125000Y-92300000I0J-225000D01*
G01*
X164125000Y-92750000D01*
G75*
G02*
X163900000Y-92975000I-225000J0D01*
G01*
X163400000Y-92975000D01*
G75*
G02*
X163175000Y-92750000I0J225000D01*
G01*
X163175000Y-92300000D01*
G75*
G02*
X163400000Y-92075000I225000J0D01*
G01*
G37*
G36*
G01*
X163400000Y-93625000D02*
X163900000Y-93625000D01*
G75*
G02*
X164125000Y-93850000I0J-225000D01*
G01*
X164125000Y-94300000D01*
G75*
G02*
X163900000Y-94525000I-225000J0D01*
G01*
X163400000Y-94525000D01*
G75*
G02*
X163175000Y-94300000I0J225000D01*
G01*
X163175000Y-93850000D01*
G75*
G02*
X163400000Y-93625000I225000J0D01*
G01*
G37*
%TD*%
%TO.C,C10*%
G36*
G01*
X167275000Y-81550000D02*
X167275000Y-82050000D01*
G75*
G02*
X167050000Y-82275000I-225000J0D01*
G01*
X166600000Y-82275000D01*
G75*
G02*
X166375000Y-82050000I0J225000D01*
G01*
X166375000Y-81550000D01*
G75*
G02*
X166600000Y-81325000I225000J0D01*
G01*
X167050000Y-81325000D01*
G75*
G02*
X167275000Y-81550000I0J-225000D01*
G01*
G37*
G36*
G01*
X168825000Y-81550000D02*
X168825000Y-82050000D01*
G75*
G02*
X168600000Y-82275000I-225000J0D01*
G01*
X168150000Y-82275000D01*
G75*
G02*
X167925000Y-82050000I0J225000D01*
G01*
X167925000Y-81550000D01*
G75*
G02*
X168150000Y-81325000I225000J0D01*
G01*
X168600000Y-81325000D01*
G75*
G02*
X168825000Y-81550000I0J-225000D01*
G01*
G37*
%TD*%
%TO.C,C11*%
G36*
G01*
X145925000Y-73350000D02*
X145925000Y-73850000D01*
G75*
G02*
X145700000Y-74075000I-225000J0D01*
G01*
X145250000Y-74075000D01*
G75*
G02*
X145025000Y-73850000I0J225000D01*
G01*
X145025000Y-73350000D01*
G75*
G02*
X145250000Y-73125000I225000J0D01*
G01*
X145700000Y-73125000D01*
G75*
G02*
X145925000Y-73350000I0J-225000D01*
G01*
G37*
G36*
G01*
X147475000Y-73350000D02*
X147475000Y-73850000D01*
G75*
G02*
X147250000Y-74075000I-225000J0D01*
G01*
X146800000Y-74075000D01*
G75*
G02*
X146575000Y-73850000I0J225000D01*
G01*
X146575000Y-73350000D01*
G75*
G02*
X146800000Y-73125000I225000J0D01*
G01*
X147250000Y-73125000D01*
G75*
G02*
X147475000Y-73350000I0J-225000D01*
G01*
G37*
%TD*%
%TO.C,C12*%
G36*
G01*
X151200000Y-82325000D02*
X150700000Y-82325000D01*
G75*
G02*
X150475000Y-82100000I0J225000D01*
G01*
X150475000Y-81650000D01*
G75*
G02*
X150700000Y-81425000I225000J0D01*
G01*
X151200000Y-81425000D01*
G75*
G02*
X151425000Y-81650000I0J-225000D01*
G01*
X151425000Y-82100000D01*
G75*
G02*
X151200000Y-82325000I-225000J0D01*
G01*
G37*
G36*
G01*
X151200000Y-80775000D02*
X150700000Y-80775000D01*
G75*
G02*
X150475000Y-80550000I0J225000D01*
G01*
X150475000Y-80100000D01*
G75*
G02*
X150700000Y-79875000I225000J0D01*
G01*
X151200000Y-79875000D01*
G75*
G02*
X151425000Y-80100000I0J-225000D01*
G01*
X151425000Y-80550000D01*
G75*
G02*
X151200000Y-80775000I-225000J0D01*
G01*
G37*
%TD*%
%TO.C,C13*%
G36*
G01*
X146200000Y-94075000D02*
X145700000Y-94075000D01*
G75*
G02*
X145475000Y-93850000I0J225000D01*
G01*
X145475000Y-93400000D01*
G75*
G02*
X145700000Y-93175000I225000J0D01*
G01*
X146200000Y-93175000D01*
G75*
G02*
X146425000Y-93400000I0J-225000D01*
G01*
X146425000Y-93850000D01*
G75*
G02*
X146200000Y-94075000I-225000J0D01*
G01*
G37*
G36*
G01*
X146200000Y-95625000D02*
X145700000Y-95625000D01*
G75*
G02*
X145475000Y-95400000I0J225000D01*
G01*
X145475000Y-94950000D01*
G75*
G02*
X145700000Y-94725000I225000J0D01*
G01*
X146200000Y-94725000D01*
G75*
G02*
X146425000Y-94950000I0J-225000D01*
G01*
X146425000Y-95400000D01*
G75*
G02*
X146200000Y-95625000I-225000J0D01*
G01*
G37*
%TD*%
%TO.C,C14*%
G36*
G01*
X164550000Y-105475000D02*
X165050000Y-105475000D01*
G75*
G02*
X165275000Y-105700000I0J-225000D01*
G01*
X165275000Y-106150000D01*
G75*
G02*
X165050000Y-106375000I-225000J0D01*
G01*
X164550000Y-106375000D01*
G75*
G02*
X164325000Y-106150000I0J225000D01*
G01*
X164325000Y-105700000D01*
G75*
G02*
X164550000Y-105475000I225000J0D01*
G01*
G37*
G36*
G01*
X164550000Y-103925000D02*
X165050000Y-103925000D01*
G75*
G02*
X165275000Y-104150000I0J-225000D01*
G01*
X165275000Y-104600000D01*
G75*
G02*
X165050000Y-104825000I-225000J0D01*
G01*
X164550000Y-104825000D01*
G75*
G02*
X164325000Y-104600000I0J225000D01*
G01*
X164325000Y-104150000D01*
G75*
G02*
X164550000Y-103925000I225000J0D01*
G01*
G37*
%TD*%
%TO.C,C15*%
G36*
G01*
X165050000Y-103275000D02*
X164550000Y-103275000D01*
G75*
G02*
X164325000Y-103050000I0J225000D01*
G01*
X164325000Y-102600000D01*
G75*
G02*
X164550000Y-102375000I225000J0D01*
G01*
X165050000Y-102375000D01*
G75*
G02*
X165275000Y-102600000I0J-225000D01*
G01*
X165275000Y-103050000D01*
G75*
G02*
X165050000Y-103275000I-225000J0D01*
G01*
G37*
G36*
G01*
X165050000Y-101725000D02*
X164550000Y-101725000D01*
G75*
G02*
X164325000Y-101500000I0J225000D01*
G01*
X164325000Y-101050000D01*
G75*
G02*
X164550000Y-100825000I225000J0D01*
G01*
X165050000Y-100825000D01*
G75*
G02*
X165275000Y-101050000I0J-225000D01*
G01*
X165275000Y-101500000D01*
G75*
G02*
X165050000Y-101725000I-225000J0D01*
G01*
G37*
%TD*%
%TO.C,C16*%
G36*
G01*
X179825000Y-96150000D02*
X179825000Y-96650000D01*
G75*
G02*
X179600000Y-96875000I-225000J0D01*
G01*
X179150000Y-96875000D01*
G75*
G02*
X178925000Y-96650000I0J225000D01*
G01*
X178925000Y-96150000D01*
G75*
G02*
X179150000Y-95925000I225000J0D01*
G01*
X179600000Y-95925000D01*
G75*
G02*
X179825000Y-96150000I0J-225000D01*
G01*
G37*
G36*
G01*
X178275000Y-96150000D02*
X178275000Y-96650000D01*
G75*
G02*
X178050000Y-96875000I-225000J0D01*
G01*
X177600000Y-96875000D01*
G75*
G02*
X177375000Y-96650000I0J225000D01*
G01*
X177375000Y-96150000D01*
G75*
G02*
X177600000Y-95925000I225000J0D01*
G01*
X178050000Y-95925000D01*
G75*
G02*
X178275000Y-96150000I0J-225000D01*
G01*
G37*
%TD*%
%TO.C,C17*%
G36*
G01*
X166650000Y-103325000D02*
X166150000Y-103325000D01*
G75*
G02*
X165925000Y-103100000I0J225000D01*
G01*
X165925000Y-102650000D01*
G75*
G02*
X166150000Y-102425000I225000J0D01*
G01*
X166650000Y-102425000D01*
G75*
G02*
X166875000Y-102650000I0J-225000D01*
G01*
X166875000Y-103100000D01*
G75*
G02*
X166650000Y-103325000I-225000J0D01*
G01*
G37*
G36*
G01*
X166650000Y-104875000D02*
X166150000Y-104875000D01*
G75*
G02*
X165925000Y-104650000I0J225000D01*
G01*
X165925000Y-104200000D01*
G75*
G02*
X166150000Y-103975000I225000J0D01*
G01*
X166650000Y-103975000D01*
G75*
G02*
X166875000Y-104200000I0J-225000D01*
G01*
X166875000Y-104650000D01*
G75*
G02*
X166650000Y-104875000I-225000J0D01*
G01*
G37*
%TD*%
%TO.C,C18*%
G36*
G01*
X180475000Y-96650000D02*
X180475000Y-96150000D01*
G75*
G02*
X180700000Y-95925000I225000J0D01*
G01*
X181150000Y-95925000D01*
G75*
G02*
X181375000Y-96150000I0J-225000D01*
G01*
X181375000Y-96650000D01*
G75*
G02*
X181150000Y-96875000I-225000J0D01*
G01*
X180700000Y-96875000D01*
G75*
G02*
X180475000Y-96650000I0J225000D01*
G01*
G37*
G36*
G01*
X182025000Y-96650000D02*
X182025000Y-96150000D01*
G75*
G02*
X182250000Y-95925000I225000J0D01*
G01*
X182700000Y-95925000D01*
G75*
G02*
X182925000Y-96150000I0J-225000D01*
G01*
X182925000Y-96650000D01*
G75*
G02*
X182700000Y-96875000I-225000J0D01*
G01*
X182250000Y-96875000D01*
G75*
G02*
X182025000Y-96650000I0J225000D01*
G01*
G37*
%TD*%
%TO.C,C19*%
G36*
G01*
X122575000Y-103150000D02*
X122575000Y-103650000D01*
G75*
G02*
X122350000Y-103875000I-225000J0D01*
G01*
X121900000Y-103875000D01*
G75*
G02*
X121675000Y-103650000I0J225000D01*
G01*
X121675000Y-103150000D01*
G75*
G02*
X121900000Y-102925000I225000J0D01*
G01*
X122350000Y-102925000D01*
G75*
G02*
X122575000Y-103150000I0J-225000D01*
G01*
G37*
G36*
G01*
X124125000Y-103150000D02*
X124125000Y-103650000D01*
G75*
G02*
X123900000Y-103875000I-225000J0D01*
G01*
X123450000Y-103875000D01*
G75*
G02*
X123225000Y-103650000I0J225000D01*
G01*
X123225000Y-103150000D01*
G75*
G02*
X123450000Y-102925000I225000J0D01*
G01*
X123900000Y-102925000D01*
G75*
G02*
X124125000Y-103150000I0J-225000D01*
G01*
G37*
%TD*%
%TO.C,C20*%
G36*
G01*
X170775000Y-95500000D02*
X170775000Y-95000000D01*
G75*
G02*
X171000000Y-94775000I225000J0D01*
G01*
X171450000Y-94775000D01*
G75*
G02*
X171675000Y-95000000I0J-225000D01*
G01*
X171675000Y-95500000D01*
G75*
G02*
X171450000Y-95725000I-225000J0D01*
G01*
X171000000Y-95725000D01*
G75*
G02*
X170775000Y-95500000I0J225000D01*
G01*
G37*
G36*
G01*
X172325000Y-95500000D02*
X172325000Y-95000000D01*
G75*
G02*
X172550000Y-94775000I225000J0D01*
G01*
X173000000Y-94775000D01*
G75*
G02*
X173225000Y-95000000I0J-225000D01*
G01*
X173225000Y-95500000D01*
G75*
G02*
X173000000Y-95725000I-225000J0D01*
G01*
X172550000Y-95725000D01*
G75*
G02*
X172325000Y-95500000I0J225000D01*
G01*
G37*
%TD*%
%TO.C,C21*%
G36*
G01*
X122675000Y-91000000D02*
X122675000Y-91500000D01*
G75*
G02*
X122450000Y-91725000I-225000J0D01*
G01*
X122000000Y-91725000D01*
G75*
G02*
X121775000Y-91500000I0J225000D01*
G01*
X121775000Y-91000000D01*
G75*
G02*
X122000000Y-90775000I225000J0D01*
G01*
X122450000Y-90775000D01*
G75*
G02*
X122675000Y-91000000I0J-225000D01*
G01*
G37*
G36*
G01*
X124225000Y-91000000D02*
X124225000Y-91500000D01*
G75*
G02*
X124000000Y-91725000I-225000J0D01*
G01*
X123550000Y-91725000D01*
G75*
G02*
X123325000Y-91500000I0J225000D01*
G01*
X123325000Y-91000000D01*
G75*
G02*
X123550000Y-90775000I225000J0D01*
G01*
X124000000Y-90775000D01*
G75*
G02*
X124225000Y-91000000I0J-225000D01*
G01*
G37*
%TD*%
%TO.C,C22*%
G36*
G01*
X124225000Y-79000000D02*
X124225000Y-79500000D01*
G75*
G02*
X124000000Y-79725000I-225000J0D01*
G01*
X123550000Y-79725000D01*
G75*
G02*
X123325000Y-79500000I0J225000D01*
G01*
X123325000Y-79000000D01*
G75*
G02*
X123550000Y-78775000I225000J0D01*
G01*
X124000000Y-78775000D01*
G75*
G02*
X124225000Y-79000000I0J-225000D01*
G01*
G37*
G36*
G01*
X122675000Y-79000000D02*
X122675000Y-79500000D01*
G75*
G02*
X122450000Y-79725000I-225000J0D01*
G01*
X122000000Y-79725000D01*
G75*
G02*
X121775000Y-79500000I0J225000D01*
G01*
X121775000Y-79000000D01*
G75*
G02*
X122000000Y-78775000I225000J0D01*
G01*
X122450000Y-78775000D01*
G75*
G02*
X122675000Y-79000000I0J-225000D01*
G01*
G37*
%TD*%
%TO.C,C23*%
G36*
G01*
X168625000Y-95000000D02*
X168625000Y-95500000D01*
G75*
G02*
X168400000Y-95725000I-225000J0D01*
G01*
X167950000Y-95725000D01*
G75*
G02*
X167725000Y-95500000I0J225000D01*
G01*
X167725000Y-95000000D01*
G75*
G02*
X167950000Y-94775000I225000J0D01*
G01*
X168400000Y-94775000D01*
G75*
G02*
X168625000Y-95000000I0J-225000D01*
G01*
G37*
G36*
G01*
X170175000Y-95000000D02*
X170175000Y-95500000D01*
G75*
G02*
X169950000Y-95725000I-225000J0D01*
G01*
X169500000Y-95725000D01*
G75*
G02*
X169275000Y-95500000I0J225000D01*
G01*
X169275000Y-95000000D01*
G75*
G02*
X169500000Y-94775000I225000J0D01*
G01*
X169950000Y-94775000D01*
G75*
G02*
X170175000Y-95000000I0J-225000D01*
G01*
G37*
%TD*%
%TO.C,C24*%
G36*
G01*
X133925000Y-72050000D02*
X133925000Y-71550000D01*
G75*
G02*
X134150000Y-71325000I225000J0D01*
G01*
X134600000Y-71325000D01*
G75*
G02*
X134825000Y-71550000I0J-225000D01*
G01*
X134825000Y-72050000D01*
G75*
G02*
X134600000Y-72275000I-225000J0D01*
G01*
X134150000Y-72275000D01*
G75*
G02*
X133925000Y-72050000I0J225000D01*
G01*
G37*
G36*
G01*
X132375000Y-72050000D02*
X132375000Y-71550000D01*
G75*
G02*
X132600000Y-71325000I225000J0D01*
G01*
X133050000Y-71325000D01*
G75*
G02*
X133275000Y-71550000I0J-225000D01*
G01*
X133275000Y-72050000D01*
G75*
G02*
X133050000Y-72275000I-225000J0D01*
G01*
X132600000Y-72275000D01*
G75*
G02*
X132375000Y-72050000I0J225000D01*
G01*
G37*
%TD*%
%TO.C,C25*%
G36*
G01*
X121350000Y-105775000D02*
X121350000Y-104825000D01*
G75*
G02*
X121600000Y-104575000I250000J0D01*
G01*
X122100000Y-104575000D01*
G75*
G02*
X122350000Y-104825000I0J-250000D01*
G01*
X122350000Y-105775000D01*
G75*
G02*
X122100000Y-106025000I-250000J0D01*
G01*
X121600000Y-106025000D01*
G75*
G02*
X121350000Y-105775000I0J250000D01*
G01*
G37*
G36*
G01*
X119450000Y-105775000D02*
X119450000Y-104825000D01*
G75*
G02*
X119700000Y-104575000I250000J0D01*
G01*
X120200000Y-104575000D01*
G75*
G02*
X120450000Y-104825000I0J-250000D01*
G01*
X120450000Y-105775000D01*
G75*
G02*
X120200000Y-106025000I-250000J0D01*
G01*
X119700000Y-106025000D01*
G75*
G02*
X119450000Y-105775000I0J250000D01*
G01*
G37*
%TD*%
%TO.C,C26*%
G36*
G01*
X121350000Y-93975000D02*
X121350000Y-93025000D01*
G75*
G02*
X121600000Y-92775000I250000J0D01*
G01*
X122100000Y-92775000D01*
G75*
G02*
X122350000Y-93025000I0J-250000D01*
G01*
X122350000Y-93975000D01*
G75*
G02*
X122100000Y-94225000I-250000J0D01*
G01*
X121600000Y-94225000D01*
G75*
G02*
X121350000Y-93975000I0J250000D01*
G01*
G37*
G36*
G01*
X119450000Y-93975000D02*
X119450000Y-93025000D01*
G75*
G02*
X119700000Y-92775000I250000J0D01*
G01*
X120200000Y-92775000D01*
G75*
G02*
X120450000Y-93025000I0J-250000D01*
G01*
X120450000Y-93975000D01*
G75*
G02*
X120200000Y-94225000I-250000J0D01*
G01*
X119700000Y-94225000D01*
G75*
G02*
X119450000Y-93975000I0J250000D01*
G01*
G37*
%TD*%
%TO.C,C28*%
G36*
G01*
X150375001Y-108419999D02*
X148375001Y-108419999D01*
G75*
G02*
X148125001Y-108169999I0J250000D01*
G01*
X148125001Y-105169999D01*
G75*
G02*
X148375001Y-104919999I250000J0D01*
G01*
X150375001Y-104919999D01*
G75*
G02*
X150625001Y-105169999I0J-250000D01*
G01*
X150625001Y-108169999D01*
G75*
G02*
X150375001Y-108419999I-250000J0D01*
G01*
G37*
G36*
G01*
X150375001Y-101919999D02*
X148375001Y-101919999D01*
G75*
G02*
X148125001Y-101669999I0J250000D01*
G01*
X148125001Y-98669999D01*
G75*
G02*
X148375001Y-98419999I250000J0D01*
G01*
X150375001Y-98419999D01*
G75*
G02*
X150625001Y-98669999I0J-250000D01*
G01*
X150625001Y-101669999D01*
G75*
G02*
X150375001Y-101919999I-250000J0D01*
G01*
G37*
%TD*%
%TO.C,C29*%
G36*
G01*
X141400000Y-101900000D02*
X139400000Y-101900000D01*
G75*
G02*
X139150000Y-101650000I0J250000D01*
G01*
X139150000Y-98650000D01*
G75*
G02*
X139400000Y-98400000I250000J0D01*
G01*
X141400000Y-98400000D01*
G75*
G02*
X141650000Y-98650000I0J-250000D01*
G01*
X141650000Y-101650000D01*
G75*
G02*
X141400000Y-101900000I-250000J0D01*
G01*
G37*
G36*
G01*
X141400000Y-108400000D02*
X139400000Y-108400000D01*
G75*
G02*
X139150000Y-108150000I0J250000D01*
G01*
X139150000Y-105150000D01*
G75*
G02*
X139400000Y-104900000I250000J0D01*
G01*
X141400000Y-104900000D01*
G75*
G02*
X141650000Y-105150000I0J-250000D01*
G01*
X141650000Y-108150000D01*
G75*
G02*
X141400000Y-108400000I-250000J0D01*
G01*
G37*
%TD*%
%TO.C,D1*%
G36*
G01*
X180793750Y-90950000D02*
X181306250Y-90950000D01*
G75*
G02*
X181525000Y-91168750I0J-218750D01*
G01*
X181525000Y-91606250D01*
G75*
G02*
X181306250Y-91825000I-218750J0D01*
G01*
X180793750Y-91825000D01*
G75*
G02*
X180575000Y-91606250I0J218750D01*
G01*
X180575000Y-91168750D01*
G75*
G02*
X180793750Y-90950000I218750J0D01*
G01*
G37*
G36*
G01*
X180793750Y-89375000D02*
X181306250Y-89375000D01*
G75*
G02*
X181525000Y-89593750I0J-218750D01*
G01*
X181525000Y-90031250D01*
G75*
G02*
X181306250Y-90250000I-218750J0D01*
G01*
X180793750Y-90250000D01*
G75*
G02*
X180575000Y-90031250I0J218750D01*
G01*
X180575000Y-89593750D01*
G75*
G02*
X180793750Y-89375000I218750J0D01*
G01*
G37*
%TD*%
D19*
%TO.C,D3*%
X176650000Y-104100000D03*
X179950000Y-104100000D03*
%TD*%
%TO.C,D4*%
G36*
G01*
X137275001Y-74675000D02*
X135124999Y-74675000D01*
G75*
G02*
X134875000Y-74425001I0J249999D01*
G01*
X134875000Y-73574999D01*
G75*
G02*
X135124999Y-73325000I249999J0D01*
G01*
X137275001Y-73325000D01*
G75*
G02*
X137525000Y-73574999I0J-249999D01*
G01*
X137525000Y-74425001D01*
G75*
G02*
X137275001Y-74675000I-249999J0D01*
G01*
G37*
G36*
G01*
X137275001Y-79175000D02*
X135124999Y-79175000D01*
G75*
G02*
X134875000Y-78925001I0J249999D01*
G01*
X134875000Y-78074999D01*
G75*
G02*
X135124999Y-77825000I249999J0D01*
G01*
X137275001Y-77825000D01*
G75*
G02*
X137525000Y-78074999I0J-249999D01*
G01*
X137525000Y-78925001D01*
G75*
G02*
X137275001Y-79175000I-249999J0D01*
G01*
G37*
%TD*%
%TO.C,D6*%
G36*
G01*
X129375000Y-96424999D02*
X129375000Y-98575001D01*
G75*
G02*
X129125001Y-98825000I-249999J0D01*
G01*
X128274999Y-98825000D01*
G75*
G02*
X128025000Y-98575001I0J249999D01*
G01*
X128025000Y-96424999D01*
G75*
G02*
X128274999Y-96175000I249999J0D01*
G01*
X129125001Y-96175000D01*
G75*
G02*
X129375000Y-96424999I0J-249999D01*
G01*
G37*
G36*
G01*
X124875000Y-96424999D02*
X124875000Y-98575001D01*
G75*
G02*
X124625001Y-98825000I-249999J0D01*
G01*
X123774999Y-98825000D01*
G75*
G02*
X123525000Y-98575001I0J249999D01*
G01*
X123525000Y-96424999D01*
G75*
G02*
X123774999Y-96175000I249999J0D01*
G01*
X124625001Y-96175000D01*
G75*
G02*
X124875000Y-96424999I0J-249999D01*
G01*
G37*
%TD*%
%TO.C,D7*%
G36*
G01*
X140675001Y-79175000D02*
X138524999Y-79175000D01*
G75*
G02*
X138275000Y-78925001I0J249999D01*
G01*
X138275000Y-78074999D01*
G75*
G02*
X138524999Y-77825000I249999J0D01*
G01*
X140675001Y-77825000D01*
G75*
G02*
X140925000Y-78074999I0J-249999D01*
G01*
X140925000Y-78925001D01*
G75*
G02*
X140675001Y-79175000I-249999J0D01*
G01*
G37*
G36*
G01*
X140675001Y-74675000D02*
X138524999Y-74675000D01*
G75*
G02*
X138275000Y-74425001I0J249999D01*
G01*
X138275000Y-73574999D01*
G75*
G02*
X138524999Y-73325000I249999J0D01*
G01*
X140675001Y-73325000D01*
G75*
G02*
X140925000Y-73574999I0J-249999D01*
G01*
X140925000Y-74425001D01*
G75*
G02*
X140675001Y-74675000I-249999J0D01*
G01*
G37*
%TD*%
%TO.C,D8*%
G36*
G01*
X123725000Y-89525001D02*
X123725000Y-87374999D01*
G75*
G02*
X123974999Y-87125000I249999J0D01*
G01*
X124825001Y-87125000D01*
G75*
G02*
X125075000Y-87374999I0J-249999D01*
G01*
X125075000Y-89525001D01*
G75*
G02*
X124825001Y-89775000I-249999J0D01*
G01*
X123974999Y-89775000D01*
G75*
G02*
X123725000Y-89525001I0J249999D01*
G01*
G37*
G36*
G01*
X128225000Y-89525001D02*
X128225000Y-87374999D01*
G75*
G02*
X128474999Y-87125000I249999J0D01*
G01*
X129325001Y-87125000D01*
G75*
G02*
X129575000Y-87374999I0J-249999D01*
G01*
X129575000Y-89525001D01*
G75*
G02*
X129325001Y-89775000I-249999J0D01*
G01*
X128474999Y-89775000D01*
G75*
G02*
X128225000Y-89525001I0J249999D01*
G01*
G37*
%TD*%
%TO.C,D9*%
G36*
G01*
X125075000Y-84024999D02*
X125075000Y-86175001D01*
G75*
G02*
X124825001Y-86425000I-249999J0D01*
G01*
X123974999Y-86425000D01*
G75*
G02*
X123725000Y-86175001I0J249999D01*
G01*
X123725000Y-84024999D01*
G75*
G02*
X123974999Y-83775000I249999J0D01*
G01*
X124825001Y-83775000D01*
G75*
G02*
X125075000Y-84024999I0J-249999D01*
G01*
G37*
G36*
G01*
X129575000Y-84024999D02*
X129575000Y-86175001D01*
G75*
G02*
X129325001Y-86425000I-249999J0D01*
G01*
X128474999Y-86425000D01*
G75*
G02*
X128225000Y-86175001I0J249999D01*
G01*
X128225000Y-84024999D01*
G75*
G02*
X128474999Y-83775000I249999J0D01*
G01*
X129325001Y-83775000D01*
G75*
G02*
X129575000Y-84024999I0J-249999D01*
G01*
G37*
%TD*%
%TO.C,D10*%
G36*
G01*
X133875001Y-74675000D02*
X131724999Y-74675000D01*
G75*
G02*
X131475000Y-74425001I0J249999D01*
G01*
X131475000Y-73574999D01*
G75*
G02*
X131724999Y-73325000I249999J0D01*
G01*
X133875001Y-73325000D01*
G75*
G02*
X134125000Y-73574999I0J-249999D01*
G01*
X134125000Y-74425001D01*
G75*
G02*
X133875001Y-74675000I-249999J0D01*
G01*
G37*
G36*
G01*
X133875001Y-79175000D02*
X131724999Y-79175000D01*
G75*
G02*
X131475000Y-78925001I0J249999D01*
G01*
X131475000Y-78074999D01*
G75*
G02*
X131724999Y-77825000I249999J0D01*
G01*
X133875001Y-77825000D01*
G75*
G02*
X134125000Y-78074999I0J-249999D01*
G01*
X134125000Y-78925001D01*
G75*
G02*
X133875001Y-79175000I-249999J0D01*
G01*
G37*
%TD*%
%TO.C,D11*%
G36*
G01*
X123775000Y-77625001D02*
X123775000Y-75474999D01*
G75*
G02*
X124024999Y-75225000I249999J0D01*
G01*
X124875001Y-75225000D01*
G75*
G02*
X125125000Y-75474999I0J-249999D01*
G01*
X125125000Y-77625001D01*
G75*
G02*
X124875001Y-77875000I-249999J0D01*
G01*
X124024999Y-77875000D01*
G75*
G02*
X123775000Y-77625001I0J249999D01*
G01*
G37*
G36*
G01*
X128275000Y-77625001D02*
X128275000Y-75474999D01*
G75*
G02*
X128524999Y-75225000I249999J0D01*
G01*
X129375001Y-75225000D01*
G75*
G02*
X129625000Y-75474999I0J-249999D01*
G01*
X129625000Y-77625001D01*
G75*
G02*
X129375001Y-77875000I-249999J0D01*
G01*
X128524999Y-77875000D01*
G75*
G02*
X128275000Y-77625001I0J249999D01*
G01*
G37*
%TD*%
%TO.C,D12*%
G36*
G01*
X125075000Y-72124999D02*
X125075000Y-74275001D01*
G75*
G02*
X124825001Y-74525000I-249999J0D01*
G01*
X123974999Y-74525000D01*
G75*
G02*
X123725000Y-74275001I0J249999D01*
G01*
X123725000Y-72124999D01*
G75*
G02*
X123974999Y-71875000I249999J0D01*
G01*
X124825001Y-71875000D01*
G75*
G02*
X125075000Y-72124999I0J-249999D01*
G01*
G37*
G36*
G01*
X129575000Y-72124999D02*
X129575000Y-74275001D01*
G75*
G02*
X129325001Y-74525000I-249999J0D01*
G01*
X128474999Y-74525000D01*
G75*
G02*
X128225000Y-74275001I0J249999D01*
G01*
X128225000Y-72124999D01*
G75*
G02*
X128474999Y-71875000I249999J0D01*
G01*
X129325001Y-71875000D01*
G75*
G02*
X129575000Y-72124999I0J-249999D01*
G01*
G37*
%TD*%
%TO.C,FB1*%
G36*
G01*
X182131250Y-84000000D02*
X181368750Y-84000000D01*
G75*
G02*
X181150000Y-83781250I0J218750D01*
G01*
X181150000Y-83343750D01*
G75*
G02*
X181368750Y-83125000I218750J0D01*
G01*
X182131250Y-83125000D01*
G75*
G02*
X182350000Y-83343750I0J-218750D01*
G01*
X182350000Y-83781250D01*
G75*
G02*
X182131250Y-84000000I-218750J0D01*
G01*
G37*
G36*
G01*
X182131250Y-81875000D02*
X181368750Y-81875000D01*
G75*
G02*
X181150000Y-81656250I0J218750D01*
G01*
X181150000Y-81218750D01*
G75*
G02*
X181368750Y-81000000I218750J0D01*
G01*
X182131250Y-81000000D01*
G75*
G02*
X182350000Y-81218750I0J-218750D01*
G01*
X182350000Y-81656250D01*
G75*
G02*
X182131250Y-81875000I-218750J0D01*
G01*
G37*
%TD*%
D20*
%TO.C,J1*%
X178600000Y-75610000D03*
X177950000Y-75610000D03*
X177300000Y-75610000D03*
X176650000Y-75610000D03*
X176000000Y-75610000D03*
D21*
X179787500Y-75525000D03*
X174812500Y-75525000D03*
D22*
X180675000Y-72950000D03*
X173925000Y-72950000D03*
D23*
X178450000Y-72950000D03*
D24*
X175750000Y-72950000D03*
%TD*%
D25*
%TO.C,L1*%
X178600000Y-100000000D03*
X182200000Y-100000000D03*
%TD*%
D26*
%TO.C,Q1*%
X112595000Y-101345000D03*
X112595000Y-102615000D03*
X112595000Y-103885000D03*
X112595000Y-105155000D03*
D27*
X115700000Y-102400000D03*
X115700000Y-104100000D03*
X114000000Y-102400000D03*
X114000000Y-104100000D03*
D28*
X118400000Y-101345000D03*
X118400000Y-102615000D03*
X118400000Y-103885000D03*
X118400000Y-105155000D03*
%TD*%
D26*
%TO.C,Q2*%
X112595000Y-95345000D03*
X112595000Y-96615000D03*
X112595000Y-97885000D03*
X112595000Y-99155000D03*
D27*
X115700000Y-96400000D03*
X115700000Y-98100000D03*
X114000000Y-96400000D03*
X114000000Y-98100000D03*
D28*
X118400000Y-95345000D03*
X118400000Y-96615000D03*
X118400000Y-97885000D03*
X118400000Y-99155000D03*
%TD*%
D26*
%TO.C,Q3*%
X112595000Y-89295000D03*
X112595000Y-90565000D03*
X112595000Y-91835000D03*
X112595000Y-93105000D03*
D27*
X115700000Y-90350000D03*
X115700000Y-92050000D03*
X114000000Y-90350000D03*
X114000000Y-92050000D03*
D28*
X118400000Y-89295000D03*
X118400000Y-90565000D03*
X118400000Y-91835000D03*
X118400000Y-93105000D03*
%TD*%
%TO.C,Q4*%
X118400000Y-87155000D03*
X118400000Y-85885000D03*
X118400000Y-84615000D03*
X118400000Y-83345000D03*
D27*
X114000000Y-86100000D03*
X114000000Y-84400000D03*
X115700000Y-86100000D03*
X115700000Y-84400000D03*
D26*
X112595000Y-87155000D03*
X112595000Y-85885000D03*
X112595000Y-84615000D03*
X112595000Y-83345000D03*
%TD*%
%TO.C,Q5*%
X112595000Y-77295000D03*
X112595000Y-78565000D03*
X112595000Y-79835000D03*
X112595000Y-81105000D03*
D27*
X115700000Y-78350000D03*
X115700000Y-80050000D03*
X114000000Y-78350000D03*
X114000000Y-80050000D03*
D28*
X118400000Y-77295000D03*
X118400000Y-78565000D03*
X118400000Y-79835000D03*
X118400000Y-81105000D03*
%TD*%
%TO.C,Q6*%
X118400000Y-75105000D03*
X118400000Y-73835000D03*
X118400000Y-72565000D03*
X118400000Y-71295000D03*
D27*
X114000000Y-74050000D03*
X114000000Y-72350000D03*
X115700000Y-74050000D03*
X115700000Y-72350000D03*
D26*
X112595000Y-75105000D03*
X112595000Y-73835000D03*
X112595000Y-72565000D03*
X112595000Y-71295000D03*
%TD*%
%TO.C,R1*%
G36*
G01*
X178125000Y-79375000D02*
X178675000Y-79375000D01*
G75*
G02*
X178875000Y-79575000I0J-200000D01*
G01*
X178875000Y-79975000D01*
G75*
G02*
X178675000Y-80175000I-200000J0D01*
G01*
X178125000Y-80175000D01*
G75*
G02*
X177925000Y-79975000I0J200000D01*
G01*
X177925000Y-79575000D01*
G75*
G02*
X178125000Y-79375000I200000J0D01*
G01*
G37*
G36*
G01*
X178125000Y-81025000D02*
X178675000Y-81025000D01*
G75*
G02*
X178875000Y-81225000I0J-200000D01*
G01*
X178875000Y-81625000D01*
G75*
G02*
X178675000Y-81825000I-200000J0D01*
G01*
X178125000Y-81825000D01*
G75*
G02*
X177925000Y-81625000I0J200000D01*
G01*
X177925000Y-81225000D01*
G75*
G02*
X178125000Y-81025000I200000J0D01*
G01*
G37*
%TD*%
%TO.C,R2*%
G36*
G01*
X177075000Y-80175000D02*
X176525000Y-80175000D01*
G75*
G02*
X176325000Y-79975000I0J200000D01*
G01*
X176325000Y-79575000D01*
G75*
G02*
X176525000Y-79375000I200000J0D01*
G01*
X177075000Y-79375000D01*
G75*
G02*
X177275000Y-79575000I0J-200000D01*
G01*
X177275000Y-79975000D01*
G75*
G02*
X177075000Y-80175000I-200000J0D01*
G01*
G37*
G36*
G01*
X177075000Y-81825000D02*
X176525000Y-81825000D01*
G75*
G02*
X176325000Y-81625000I0J200000D01*
G01*
X176325000Y-81225000D01*
G75*
G02*
X176525000Y-81025000I200000J0D01*
G01*
X177075000Y-81025000D01*
G75*
G02*
X177275000Y-81225000I0J-200000D01*
G01*
X177275000Y-81625000D01*
G75*
G02*
X177075000Y-81825000I-200000J0D01*
G01*
G37*
%TD*%
%TO.C,R3*%
G36*
G01*
X182375000Y-91025000D02*
X182925000Y-91025000D01*
G75*
G02*
X183125000Y-91225000I0J-200000D01*
G01*
X183125000Y-91625000D01*
G75*
G02*
X182925000Y-91825000I-200000J0D01*
G01*
X182375000Y-91825000D01*
G75*
G02*
X182175000Y-91625000I0J200000D01*
G01*
X182175000Y-91225000D01*
G75*
G02*
X182375000Y-91025000I200000J0D01*
G01*
G37*
G36*
G01*
X182375000Y-89375000D02*
X182925000Y-89375000D01*
G75*
G02*
X183125000Y-89575000I0J-200000D01*
G01*
X183125000Y-89975000D01*
G75*
G02*
X182925000Y-90175000I-200000J0D01*
G01*
X182375000Y-90175000D01*
G75*
G02*
X182175000Y-89975000I0J200000D01*
G01*
X182175000Y-89575000D01*
G75*
G02*
X182375000Y-89375000I200000J0D01*
G01*
G37*
%TD*%
%TO.C,R5*%
G36*
G01*
X162525000Y-75175000D02*
X162525000Y-74625000D01*
G75*
G02*
X162725000Y-74425000I200000J0D01*
G01*
X163125000Y-74425000D01*
G75*
G02*
X163325000Y-74625000I0J-200000D01*
G01*
X163325000Y-75175000D01*
G75*
G02*
X163125000Y-75375000I-200000J0D01*
G01*
X162725000Y-75375000D01*
G75*
G02*
X162525000Y-75175000I0J200000D01*
G01*
G37*
G36*
G01*
X160875000Y-75175000D02*
X160875000Y-74625000D01*
G75*
G02*
X161075000Y-74425000I200000J0D01*
G01*
X161475000Y-74425000D01*
G75*
G02*
X161675000Y-74625000I0J-200000D01*
G01*
X161675000Y-75175000D01*
G75*
G02*
X161475000Y-75375000I-200000J0D01*
G01*
X161075000Y-75375000D01*
G75*
G02*
X160875000Y-75175000I0J200000D01*
G01*
G37*
%TD*%
%TO.C,R6*%
G36*
G01*
X168375000Y-91325000D02*
X167825000Y-91325000D01*
G75*
G02*
X167625000Y-91125000I0J200000D01*
G01*
X167625000Y-90725000D01*
G75*
G02*
X167825000Y-90525000I200000J0D01*
G01*
X168375000Y-90525000D01*
G75*
G02*
X168575000Y-90725000I0J-200000D01*
G01*
X168575000Y-91125000D01*
G75*
G02*
X168375000Y-91325000I-200000J0D01*
G01*
G37*
G36*
G01*
X168375000Y-89675000D02*
X167825000Y-89675000D01*
G75*
G02*
X167625000Y-89475000I0J200000D01*
G01*
X167625000Y-89075000D01*
G75*
G02*
X167825000Y-88875000I200000J0D01*
G01*
X168375000Y-88875000D01*
G75*
G02*
X168575000Y-89075000I0J-200000D01*
G01*
X168575000Y-89475000D01*
G75*
G02*
X168375000Y-89675000I-200000J0D01*
G01*
G37*
%TD*%
%TO.C,R7*%
G36*
G01*
X176525000Y-97225000D02*
X176525000Y-97775000D01*
G75*
G02*
X176325000Y-97975000I-200000J0D01*
G01*
X175925000Y-97975000D01*
G75*
G02*
X175725000Y-97775000I0J200000D01*
G01*
X175725000Y-97225000D01*
G75*
G02*
X175925000Y-97025000I200000J0D01*
G01*
X176325000Y-97025000D01*
G75*
G02*
X176525000Y-97225000I0J-200000D01*
G01*
G37*
G36*
G01*
X174875000Y-97225000D02*
X174875000Y-97775000D01*
G75*
G02*
X174675000Y-97975000I-200000J0D01*
G01*
X174275000Y-97975000D01*
G75*
G02*
X174075000Y-97775000I0J200000D01*
G01*
X174075000Y-97225000D01*
G75*
G02*
X174275000Y-97025000I200000J0D01*
G01*
X174675000Y-97025000D01*
G75*
G02*
X174875000Y-97225000I0J-200000D01*
G01*
G37*
%TD*%
%TO.C,R8*%
G36*
G01*
X174075000Y-96175000D02*
X174075000Y-95625000D01*
G75*
G02*
X174275000Y-95425000I200000J0D01*
G01*
X174675000Y-95425000D01*
G75*
G02*
X174875000Y-95625000I0J-200000D01*
G01*
X174875000Y-96175000D01*
G75*
G02*
X174675000Y-96375000I-200000J0D01*
G01*
X174275000Y-96375000D01*
G75*
G02*
X174075000Y-96175000I0J200000D01*
G01*
G37*
G36*
G01*
X175725000Y-96175000D02*
X175725000Y-95625000D01*
G75*
G02*
X175925000Y-95425000I200000J0D01*
G01*
X176325000Y-95425000D01*
G75*
G02*
X176525000Y-95625000I0J-200000D01*
G01*
X176525000Y-96175000D01*
G75*
G02*
X176325000Y-96375000I-200000J0D01*
G01*
X175925000Y-96375000D01*
G75*
G02*
X175725000Y-96175000I0J200000D01*
G01*
G37*
%TD*%
%TO.C,R9*%
G36*
G01*
X157275000Y-93025000D02*
X157275000Y-93575000D01*
G75*
G02*
X157075000Y-93775000I-200000J0D01*
G01*
X156675000Y-93775000D01*
G75*
G02*
X156475000Y-93575000I0J200000D01*
G01*
X156475000Y-93025000D01*
G75*
G02*
X156675000Y-92825000I200000J0D01*
G01*
X157075000Y-92825000D01*
G75*
G02*
X157275000Y-93025000I0J-200000D01*
G01*
G37*
G36*
G01*
X158925000Y-93025000D02*
X158925000Y-93575000D01*
G75*
G02*
X158725000Y-93775000I-200000J0D01*
G01*
X158325000Y-93775000D01*
G75*
G02*
X158125000Y-93575000I0J200000D01*
G01*
X158125000Y-93025000D01*
G75*
G02*
X158325000Y-92825000I200000J0D01*
G01*
X158725000Y-92825000D01*
G75*
G02*
X158925000Y-93025000I0J-200000D01*
G01*
G37*
%TD*%
%TO.C,R10*%
G36*
G01*
X144075000Y-95175000D02*
X143525000Y-95175000D01*
G75*
G02*
X143325000Y-94975000I0J200000D01*
G01*
X143325000Y-94575000D01*
G75*
G02*
X143525000Y-94375000I200000J0D01*
G01*
X144075000Y-94375000D01*
G75*
G02*
X144275000Y-94575000I0J-200000D01*
G01*
X144275000Y-94975000D01*
G75*
G02*
X144075000Y-95175000I-200000J0D01*
G01*
G37*
G36*
G01*
X144075000Y-96825000D02*
X143525000Y-96825000D01*
G75*
G02*
X143325000Y-96625000I0J200000D01*
G01*
X143325000Y-96225000D01*
G75*
G02*
X143525000Y-96025000I200000J0D01*
G01*
X144075000Y-96025000D01*
G75*
G02*
X144275000Y-96225000I0J-200000D01*
G01*
X144275000Y-96625000D01*
G75*
G02*
X144075000Y-96825000I-200000J0D01*
G01*
G37*
%TD*%
%TO.C,R11*%
G36*
G01*
X120275000Y-89025000D02*
X120275000Y-89575000D01*
G75*
G02*
X120075000Y-89775000I-200000J0D01*
G01*
X119675000Y-89775000D01*
G75*
G02*
X119475000Y-89575000I0J200000D01*
G01*
X119475000Y-89025000D01*
G75*
G02*
X119675000Y-88825000I200000J0D01*
G01*
X120075000Y-88825000D01*
G75*
G02*
X120275000Y-89025000I0J-200000D01*
G01*
G37*
G36*
G01*
X121925000Y-89025000D02*
X121925000Y-89575000D01*
G75*
G02*
X121725000Y-89775000I-200000J0D01*
G01*
X121325000Y-89775000D01*
G75*
G02*
X121125000Y-89575000I0J200000D01*
G01*
X121125000Y-89025000D01*
G75*
G02*
X121325000Y-88825000I200000J0D01*
G01*
X121725000Y-88825000D01*
G75*
G02*
X121925000Y-89025000I0J-200000D01*
G01*
G37*
%TD*%
%TO.C,R12*%
G36*
G01*
X120275000Y-83075000D02*
X120275000Y-83625000D01*
G75*
G02*
X120075000Y-83825000I-200000J0D01*
G01*
X119675000Y-83825000D01*
G75*
G02*
X119475000Y-83625000I0J200000D01*
G01*
X119475000Y-83075000D01*
G75*
G02*
X119675000Y-82875000I200000J0D01*
G01*
X120075000Y-82875000D01*
G75*
G02*
X120275000Y-83075000I0J-200000D01*
G01*
G37*
G36*
G01*
X121925000Y-83075000D02*
X121925000Y-83625000D01*
G75*
G02*
X121725000Y-83825000I-200000J0D01*
G01*
X121325000Y-83825000D01*
G75*
G02*
X121125000Y-83625000I0J200000D01*
G01*
X121125000Y-83075000D01*
G75*
G02*
X121325000Y-82875000I200000J0D01*
G01*
X121725000Y-82875000D01*
G75*
G02*
X121925000Y-83075000I0J-200000D01*
G01*
G37*
%TD*%
%TO.C,R13*%
G36*
G01*
X120275000Y-71025000D02*
X120275000Y-71575000D01*
G75*
G02*
X120075000Y-71775000I-200000J0D01*
G01*
X119675000Y-71775000D01*
G75*
G02*
X119475000Y-71575000I0J200000D01*
G01*
X119475000Y-71025000D01*
G75*
G02*
X119675000Y-70825000I200000J0D01*
G01*
X120075000Y-70825000D01*
G75*
G02*
X120275000Y-71025000I0J-200000D01*
G01*
G37*
G36*
G01*
X121925000Y-71025000D02*
X121925000Y-71575000D01*
G75*
G02*
X121725000Y-71775000I-200000J0D01*
G01*
X121325000Y-71775000D01*
G75*
G02*
X121125000Y-71575000I0J200000D01*
G01*
X121125000Y-71025000D01*
G75*
G02*
X121325000Y-70825000I200000J0D01*
G01*
X121725000Y-70825000D01*
G75*
G02*
X121925000Y-71025000I0J-200000D01*
G01*
G37*
%TD*%
%TO.C,R14*%
G36*
G01*
X121925000Y-77025000D02*
X121925000Y-77575000D01*
G75*
G02*
X121725000Y-77775000I-200000J0D01*
G01*
X121325000Y-77775000D01*
G75*
G02*
X121125000Y-77575000I0J200000D01*
G01*
X121125000Y-77025000D01*
G75*
G02*
X121325000Y-76825000I200000J0D01*
G01*
X121725000Y-76825000D01*
G75*
G02*
X121925000Y-77025000I0J-200000D01*
G01*
G37*
G36*
G01*
X120275000Y-77025000D02*
X120275000Y-77575000D01*
G75*
G02*
X120075000Y-77775000I-200000J0D01*
G01*
X119675000Y-77775000D01*
G75*
G02*
X119475000Y-77575000I0J200000D01*
G01*
X119475000Y-77025000D01*
G75*
G02*
X119675000Y-76825000I200000J0D01*
G01*
X120075000Y-76825000D01*
G75*
G02*
X120275000Y-77025000I0J-200000D01*
G01*
G37*
%TD*%
%TO.C,R15*%
G36*
G01*
X121925000Y-95075000D02*
X121925000Y-95625000D01*
G75*
G02*
X121725000Y-95825000I-200000J0D01*
G01*
X121325000Y-95825000D01*
G75*
G02*
X121125000Y-95625000I0J200000D01*
G01*
X121125000Y-95075000D01*
G75*
G02*
X121325000Y-94875000I200000J0D01*
G01*
X121725000Y-94875000D01*
G75*
G02*
X121925000Y-95075000I0J-200000D01*
G01*
G37*
G36*
G01*
X120275000Y-95075000D02*
X120275000Y-95625000D01*
G75*
G02*
X120075000Y-95825000I-200000J0D01*
G01*
X119675000Y-95825000D01*
G75*
G02*
X119475000Y-95625000I0J200000D01*
G01*
X119475000Y-95075000D01*
G75*
G02*
X119675000Y-94875000I200000J0D01*
G01*
X120075000Y-94875000D01*
G75*
G02*
X120275000Y-95075000I0J-200000D01*
G01*
G37*
%TD*%
%TO.C,R16*%
G36*
G01*
X120275000Y-101075000D02*
X120275000Y-101625000D01*
G75*
G02*
X120075000Y-101825000I-200000J0D01*
G01*
X119675000Y-101825000D01*
G75*
G02*
X119475000Y-101625000I0J200000D01*
G01*
X119475000Y-101075000D01*
G75*
G02*
X119675000Y-100875000I200000J0D01*
G01*
X120075000Y-100875000D01*
G75*
G02*
X120275000Y-101075000I0J-200000D01*
G01*
G37*
G36*
G01*
X121925000Y-101075000D02*
X121925000Y-101625000D01*
G75*
G02*
X121725000Y-101825000I-200000J0D01*
G01*
X121325000Y-101825000D01*
G75*
G02*
X121125000Y-101625000I0J200000D01*
G01*
X121125000Y-101075000D01*
G75*
G02*
X121325000Y-100875000I200000J0D01*
G01*
X121725000Y-100875000D01*
G75*
G02*
X121925000Y-101075000I0J-200000D01*
G01*
G37*
%TD*%
%TO.C,R17*%
G36*
G01*
X119475000Y-97175000D02*
X119475000Y-96625000D01*
G75*
G02*
X119675000Y-96425000I200000J0D01*
G01*
X120075000Y-96425000D01*
G75*
G02*
X120275000Y-96625000I0J-200000D01*
G01*
X120275000Y-97175000D01*
G75*
G02*
X120075000Y-97375000I-200000J0D01*
G01*
X119675000Y-97375000D01*
G75*
G02*
X119475000Y-97175000I0J200000D01*
G01*
G37*
G36*
G01*
X121125000Y-97175000D02*
X121125000Y-96625000D01*
G75*
G02*
X121325000Y-96425000I200000J0D01*
G01*
X121725000Y-96425000D01*
G75*
G02*
X121925000Y-96625000I0J-200000D01*
G01*
X121925000Y-97175000D01*
G75*
G02*
X121725000Y-97375000I-200000J0D01*
G01*
X121325000Y-97375000D01*
G75*
G02*
X121125000Y-97175000I0J200000D01*
G01*
G37*
%TD*%
%TO.C,R18*%
G36*
G01*
X121125000Y-85175000D02*
X121125000Y-84625000D01*
G75*
G02*
X121325000Y-84425000I200000J0D01*
G01*
X121725000Y-84425000D01*
G75*
G02*
X121925000Y-84625000I0J-200000D01*
G01*
X121925000Y-85175000D01*
G75*
G02*
X121725000Y-85375000I-200000J0D01*
G01*
X121325000Y-85375000D01*
G75*
G02*
X121125000Y-85175000I0J200000D01*
G01*
G37*
G36*
G01*
X119475000Y-85175000D02*
X119475000Y-84625000D01*
G75*
G02*
X119675000Y-84425000I200000J0D01*
G01*
X120075000Y-84425000D01*
G75*
G02*
X120275000Y-84625000I0J-200000D01*
G01*
X120275000Y-85175000D01*
G75*
G02*
X120075000Y-85375000I-200000J0D01*
G01*
X119675000Y-85375000D01*
G75*
G02*
X119475000Y-85175000I0J200000D01*
G01*
G37*
%TD*%
%TO.C,R19*%
G36*
G01*
X121125000Y-73125000D02*
X121125000Y-72575000D01*
G75*
G02*
X121325000Y-72375000I200000J0D01*
G01*
X121725000Y-72375000D01*
G75*
G02*
X121925000Y-72575000I0J-200000D01*
G01*
X121925000Y-73125000D01*
G75*
G02*
X121725000Y-73325000I-200000J0D01*
G01*
X121325000Y-73325000D01*
G75*
G02*
X121125000Y-73125000I0J200000D01*
G01*
G37*
G36*
G01*
X119475000Y-73125000D02*
X119475000Y-72575000D01*
G75*
G02*
X119675000Y-72375000I200000J0D01*
G01*
X120075000Y-72375000D01*
G75*
G02*
X120275000Y-72575000I0J-200000D01*
G01*
X120275000Y-73125000D01*
G75*
G02*
X120075000Y-73325000I-200000J0D01*
G01*
X119675000Y-73325000D01*
G75*
G02*
X119475000Y-73125000I0J200000D01*
G01*
G37*
%TD*%
D29*
%TO.C,SW1*%
X164750000Y-75550000D03*
X164750000Y-77150000D03*
X168850000Y-75550000D03*
X168850000Y-77150000D03*
%TD*%
D30*
%TO.C,U1*%
X176500000Y-85625000D03*
X176500000Y-84975000D03*
X176500000Y-84325000D03*
X176500000Y-86275000D03*
D31*
X177975000Y-83500000D03*
X178625000Y-83500000D03*
X177325000Y-83500000D03*
X179275000Y-83500000D03*
X177325000Y-87100000D03*
X177975000Y-87100000D03*
X178625000Y-87100000D03*
X179275000Y-87100000D03*
D30*
X180100000Y-84325000D03*
X180100000Y-84975000D03*
X180100000Y-85625000D03*
X180100000Y-86275000D03*
D32*
X178300000Y-85300000D03*
%TD*%
%TO.C,U2*%
G36*
G01*
X162175000Y-79150000D02*
X162325000Y-79150000D01*
G75*
G02*
X162400000Y-79225000I0J-75000D01*
G01*
X162400000Y-80625000D01*
G75*
G02*
X162325000Y-80700000I-75000J0D01*
G01*
X162175000Y-80700000D01*
G75*
G02*
X162100000Y-80625000I0J75000D01*
G01*
X162100000Y-79225000D01*
G75*
G02*
X162175000Y-79150000I75000J0D01*
G01*
G37*
G36*
G01*
X161675000Y-79150000D02*
X161825000Y-79150000D01*
G75*
G02*
X161900000Y-79225000I0J-75000D01*
G01*
X161900000Y-80625000D01*
G75*
G02*
X161825000Y-80700000I-75000J0D01*
G01*
X161675000Y-80700000D01*
G75*
G02*
X161600000Y-80625000I0J75000D01*
G01*
X161600000Y-79225000D01*
G75*
G02*
X161675000Y-79150000I75000J0D01*
G01*
G37*
G36*
G01*
X161175000Y-79150000D02*
X161325000Y-79150000D01*
G75*
G02*
X161400000Y-79225000I0J-75000D01*
G01*
X161400000Y-80625000D01*
G75*
G02*
X161325000Y-80700000I-75000J0D01*
G01*
X161175000Y-80700000D01*
G75*
G02*
X161100000Y-80625000I0J75000D01*
G01*
X161100000Y-79225000D01*
G75*
G02*
X161175000Y-79150000I75000J0D01*
G01*
G37*
G36*
G01*
X160675000Y-79150000D02*
X160825000Y-79150000D01*
G75*
G02*
X160900000Y-79225000I0J-75000D01*
G01*
X160900000Y-80625000D01*
G75*
G02*
X160825000Y-80700000I-75000J0D01*
G01*
X160675000Y-80700000D01*
G75*
G02*
X160600000Y-80625000I0J75000D01*
G01*
X160600000Y-79225000D01*
G75*
G02*
X160675000Y-79150000I75000J0D01*
G01*
G37*
G36*
G01*
X160175000Y-79150000D02*
X160325000Y-79150000D01*
G75*
G02*
X160400000Y-79225000I0J-75000D01*
G01*
X160400000Y-80625000D01*
G75*
G02*
X160325000Y-80700000I-75000J0D01*
G01*
X160175000Y-80700000D01*
G75*
G02*
X160100000Y-80625000I0J75000D01*
G01*
X160100000Y-79225000D01*
G75*
G02*
X160175000Y-79150000I75000J0D01*
G01*
G37*
G36*
G01*
X159675000Y-79150000D02*
X159825000Y-79150000D01*
G75*
G02*
X159900000Y-79225000I0J-75000D01*
G01*
X159900000Y-80625000D01*
G75*
G02*
X159825000Y-80700000I-75000J0D01*
G01*
X159675000Y-80700000D01*
G75*
G02*
X159600000Y-80625000I0J75000D01*
G01*
X159600000Y-79225000D01*
G75*
G02*
X159675000Y-79150000I75000J0D01*
G01*
G37*
G36*
G01*
X159175000Y-79150000D02*
X159325000Y-79150000D01*
G75*
G02*
X159400000Y-79225000I0J-75000D01*
G01*
X159400000Y-80625000D01*
G75*
G02*
X159325000Y-80700000I-75000J0D01*
G01*
X159175000Y-80700000D01*
G75*
G02*
X159100000Y-80625000I0J75000D01*
G01*
X159100000Y-79225000D01*
G75*
G02*
X159175000Y-79150000I75000J0D01*
G01*
G37*
G36*
G01*
X158675000Y-79150000D02*
X158825000Y-79150000D01*
G75*
G02*
X158900000Y-79225000I0J-75000D01*
G01*
X158900000Y-80625000D01*
G75*
G02*
X158825000Y-80700000I-75000J0D01*
G01*
X158675000Y-80700000D01*
G75*
G02*
X158600000Y-80625000I0J75000D01*
G01*
X158600000Y-79225000D01*
G75*
G02*
X158675000Y-79150000I75000J0D01*
G01*
G37*
G36*
G01*
X158175000Y-79150000D02*
X158325000Y-79150000D01*
G75*
G02*
X158400000Y-79225000I0J-75000D01*
G01*
X158400000Y-80625000D01*
G75*
G02*
X158325000Y-80700000I-75000J0D01*
G01*
X158175000Y-80700000D01*
G75*
G02*
X158100000Y-80625000I0J75000D01*
G01*
X158100000Y-79225000D01*
G75*
G02*
X158175000Y-79150000I75000J0D01*
G01*
G37*
G36*
G01*
X157675000Y-79150000D02*
X157825000Y-79150000D01*
G75*
G02*
X157900000Y-79225000I0J-75000D01*
G01*
X157900000Y-80625000D01*
G75*
G02*
X157825000Y-80700000I-75000J0D01*
G01*
X157675000Y-80700000D01*
G75*
G02*
X157600000Y-80625000I0J75000D01*
G01*
X157600000Y-79225000D01*
G75*
G02*
X157675000Y-79150000I75000J0D01*
G01*
G37*
G36*
G01*
X157175000Y-79150000D02*
X157325000Y-79150000D01*
G75*
G02*
X157400000Y-79225000I0J-75000D01*
G01*
X157400000Y-80625000D01*
G75*
G02*
X157325000Y-80700000I-75000J0D01*
G01*
X157175000Y-80700000D01*
G75*
G02*
X157100000Y-80625000I0J75000D01*
G01*
X157100000Y-79225000D01*
G75*
G02*
X157175000Y-79150000I75000J0D01*
G01*
G37*
G36*
G01*
X156675000Y-79150000D02*
X156825000Y-79150000D01*
G75*
G02*
X156900000Y-79225000I0J-75000D01*
G01*
X156900000Y-80625000D01*
G75*
G02*
X156825000Y-80700000I-75000J0D01*
G01*
X156675000Y-80700000D01*
G75*
G02*
X156600000Y-80625000I0J75000D01*
G01*
X156600000Y-79225000D01*
G75*
G02*
X156675000Y-79150000I75000J0D01*
G01*
G37*
G36*
G01*
X156175000Y-79150000D02*
X156325000Y-79150000D01*
G75*
G02*
X156400000Y-79225000I0J-75000D01*
G01*
X156400000Y-80625000D01*
G75*
G02*
X156325000Y-80700000I-75000J0D01*
G01*
X156175000Y-80700000D01*
G75*
G02*
X156100000Y-80625000I0J75000D01*
G01*
X156100000Y-79225000D01*
G75*
G02*
X156175000Y-79150000I75000J0D01*
G01*
G37*
G36*
G01*
X155675000Y-79150000D02*
X155825000Y-79150000D01*
G75*
G02*
X155900000Y-79225000I0J-75000D01*
G01*
X155900000Y-80625000D01*
G75*
G02*
X155825000Y-80700000I-75000J0D01*
G01*
X155675000Y-80700000D01*
G75*
G02*
X155600000Y-80625000I0J75000D01*
G01*
X155600000Y-79225000D01*
G75*
G02*
X155675000Y-79150000I75000J0D01*
G01*
G37*
G36*
G01*
X155175000Y-79150000D02*
X155325000Y-79150000D01*
G75*
G02*
X155400000Y-79225000I0J-75000D01*
G01*
X155400000Y-80625000D01*
G75*
G02*
X155325000Y-80700000I-75000J0D01*
G01*
X155175000Y-80700000D01*
G75*
G02*
X155100000Y-80625000I0J75000D01*
G01*
X155100000Y-79225000D01*
G75*
G02*
X155175000Y-79150000I75000J0D01*
G01*
G37*
G36*
G01*
X154675000Y-79150000D02*
X154825000Y-79150000D01*
G75*
G02*
X154900000Y-79225000I0J-75000D01*
G01*
X154900000Y-80625000D01*
G75*
G02*
X154825000Y-80700000I-75000J0D01*
G01*
X154675000Y-80700000D01*
G75*
G02*
X154600000Y-80625000I0J75000D01*
G01*
X154600000Y-79225000D01*
G75*
G02*
X154675000Y-79150000I75000J0D01*
G01*
G37*
G36*
G01*
X152125000Y-81700000D02*
X153525000Y-81700000D01*
G75*
G02*
X153600000Y-81775000I0J-75000D01*
G01*
X153600000Y-81925000D01*
G75*
G02*
X153525000Y-82000000I-75000J0D01*
G01*
X152125000Y-82000000D01*
G75*
G02*
X152050000Y-81925000I0J75000D01*
G01*
X152050000Y-81775000D01*
G75*
G02*
X152125000Y-81700000I75000J0D01*
G01*
G37*
G36*
G01*
X152125000Y-82200000D02*
X153525000Y-82200000D01*
G75*
G02*
X153600000Y-82275000I0J-75000D01*
G01*
X153600000Y-82425000D01*
G75*
G02*
X153525000Y-82500000I-75000J0D01*
G01*
X152125000Y-82500000D01*
G75*
G02*
X152050000Y-82425000I0J75000D01*
G01*
X152050000Y-82275000D01*
G75*
G02*
X152125000Y-82200000I75000J0D01*
G01*
G37*
G36*
G01*
X152125000Y-82700000D02*
X153525000Y-82700000D01*
G75*
G02*
X153600000Y-82775000I0J-75000D01*
G01*
X153600000Y-82925000D01*
G75*
G02*
X153525000Y-83000000I-75000J0D01*
G01*
X152125000Y-83000000D01*
G75*
G02*
X152050000Y-82925000I0J75000D01*
G01*
X152050000Y-82775000D01*
G75*
G02*
X152125000Y-82700000I75000J0D01*
G01*
G37*
G36*
G01*
X152125000Y-83200000D02*
X153525000Y-83200000D01*
G75*
G02*
X153600000Y-83275000I0J-75000D01*
G01*
X153600000Y-83425000D01*
G75*
G02*
X153525000Y-83500000I-75000J0D01*
G01*
X152125000Y-83500000D01*
G75*
G02*
X152050000Y-83425000I0J75000D01*
G01*
X152050000Y-83275000D01*
G75*
G02*
X152125000Y-83200000I75000J0D01*
G01*
G37*
G36*
G01*
X152125000Y-83700000D02*
X153525000Y-83700000D01*
G75*
G02*
X153600000Y-83775000I0J-75000D01*
G01*
X153600000Y-83925000D01*
G75*
G02*
X153525000Y-84000000I-75000J0D01*
G01*
X152125000Y-84000000D01*
G75*
G02*
X152050000Y-83925000I0J75000D01*
G01*
X152050000Y-83775000D01*
G75*
G02*
X152125000Y-83700000I75000J0D01*
G01*
G37*
G36*
G01*
X152125000Y-84200000D02*
X153525000Y-84200000D01*
G75*
G02*
X153600000Y-84275000I0J-75000D01*
G01*
X153600000Y-84425000D01*
G75*
G02*
X153525000Y-84500000I-75000J0D01*
G01*
X152125000Y-84500000D01*
G75*
G02*
X152050000Y-84425000I0J75000D01*
G01*
X152050000Y-84275000D01*
G75*
G02*
X152125000Y-84200000I75000J0D01*
G01*
G37*
G36*
G01*
X152125000Y-84700000D02*
X153525000Y-84700000D01*
G75*
G02*
X153600000Y-84775000I0J-75000D01*
G01*
X153600000Y-84925000D01*
G75*
G02*
X153525000Y-85000000I-75000J0D01*
G01*
X152125000Y-85000000D01*
G75*
G02*
X152050000Y-84925000I0J75000D01*
G01*
X152050000Y-84775000D01*
G75*
G02*
X152125000Y-84700000I75000J0D01*
G01*
G37*
G36*
G01*
X152125000Y-85200000D02*
X153525000Y-85200000D01*
G75*
G02*
X153600000Y-85275000I0J-75000D01*
G01*
X153600000Y-85425000D01*
G75*
G02*
X153525000Y-85500000I-75000J0D01*
G01*
X152125000Y-85500000D01*
G75*
G02*
X152050000Y-85425000I0J75000D01*
G01*
X152050000Y-85275000D01*
G75*
G02*
X152125000Y-85200000I75000J0D01*
G01*
G37*
G36*
G01*
X152125000Y-85700000D02*
X153525000Y-85700000D01*
G75*
G02*
X153600000Y-85775000I0J-75000D01*
G01*
X153600000Y-85925000D01*
G75*
G02*
X153525000Y-86000000I-75000J0D01*
G01*
X152125000Y-86000000D01*
G75*
G02*
X152050000Y-85925000I0J75000D01*
G01*
X152050000Y-85775000D01*
G75*
G02*
X152125000Y-85700000I75000J0D01*
G01*
G37*
G36*
G01*
X152125000Y-86200000D02*
X153525000Y-86200000D01*
G75*
G02*
X153600000Y-86275000I0J-75000D01*
G01*
X153600000Y-86425000D01*
G75*
G02*
X153525000Y-86500000I-75000J0D01*
G01*
X152125000Y-86500000D01*
G75*
G02*
X152050000Y-86425000I0J75000D01*
G01*
X152050000Y-86275000D01*
G75*
G02*
X152125000Y-86200000I75000J0D01*
G01*
G37*
G36*
G01*
X152125000Y-86700000D02*
X153525000Y-86700000D01*
G75*
G02*
X153600000Y-86775000I0J-75000D01*
G01*
X153600000Y-86925000D01*
G75*
G02*
X153525000Y-87000000I-75000J0D01*
G01*
X152125000Y-87000000D01*
G75*
G02*
X152050000Y-86925000I0J75000D01*
G01*
X152050000Y-86775000D01*
G75*
G02*
X152125000Y-86700000I75000J0D01*
G01*
G37*
G36*
G01*
X152125000Y-87200000D02*
X153525000Y-87200000D01*
G75*
G02*
X153600000Y-87275000I0J-75000D01*
G01*
X153600000Y-87425000D01*
G75*
G02*
X153525000Y-87500000I-75000J0D01*
G01*
X152125000Y-87500000D01*
G75*
G02*
X152050000Y-87425000I0J75000D01*
G01*
X152050000Y-87275000D01*
G75*
G02*
X152125000Y-87200000I75000J0D01*
G01*
G37*
G36*
G01*
X152125000Y-87700000D02*
X153525000Y-87700000D01*
G75*
G02*
X153600000Y-87775000I0J-75000D01*
G01*
X153600000Y-87925000D01*
G75*
G02*
X153525000Y-88000000I-75000J0D01*
G01*
X152125000Y-88000000D01*
G75*
G02*
X152050000Y-87925000I0J75000D01*
G01*
X152050000Y-87775000D01*
G75*
G02*
X152125000Y-87700000I75000J0D01*
G01*
G37*
G36*
G01*
X152125000Y-88200000D02*
X153525000Y-88200000D01*
G75*
G02*
X153600000Y-88275000I0J-75000D01*
G01*
X153600000Y-88425000D01*
G75*
G02*
X153525000Y-88500000I-75000J0D01*
G01*
X152125000Y-88500000D01*
G75*
G02*
X152050000Y-88425000I0J75000D01*
G01*
X152050000Y-88275000D01*
G75*
G02*
X152125000Y-88200000I75000J0D01*
G01*
G37*
G36*
G01*
X152125000Y-88700000D02*
X153525000Y-88700000D01*
G75*
G02*
X153600000Y-88775000I0J-75000D01*
G01*
X153600000Y-88925000D01*
G75*
G02*
X153525000Y-89000000I-75000J0D01*
G01*
X152125000Y-89000000D01*
G75*
G02*
X152050000Y-88925000I0J75000D01*
G01*
X152050000Y-88775000D01*
G75*
G02*
X152125000Y-88700000I75000J0D01*
G01*
G37*
G36*
G01*
X152125000Y-89200000D02*
X153525000Y-89200000D01*
G75*
G02*
X153600000Y-89275000I0J-75000D01*
G01*
X153600000Y-89425000D01*
G75*
G02*
X153525000Y-89500000I-75000J0D01*
G01*
X152125000Y-89500000D01*
G75*
G02*
X152050000Y-89425000I0J75000D01*
G01*
X152050000Y-89275000D01*
G75*
G02*
X152125000Y-89200000I75000J0D01*
G01*
G37*
G36*
G01*
X154675000Y-90500000D02*
X154825000Y-90500000D01*
G75*
G02*
X154900000Y-90575000I0J-75000D01*
G01*
X154900000Y-91975000D01*
G75*
G02*
X154825000Y-92050000I-75000J0D01*
G01*
X154675000Y-92050000D01*
G75*
G02*
X154600000Y-91975000I0J75000D01*
G01*
X154600000Y-90575000D01*
G75*
G02*
X154675000Y-90500000I75000J0D01*
G01*
G37*
G36*
G01*
X155175000Y-90500000D02*
X155325000Y-90500000D01*
G75*
G02*
X155400000Y-90575000I0J-75000D01*
G01*
X155400000Y-91975000D01*
G75*
G02*
X155325000Y-92050000I-75000J0D01*
G01*
X155175000Y-92050000D01*
G75*
G02*
X155100000Y-91975000I0J75000D01*
G01*
X155100000Y-90575000D01*
G75*
G02*
X155175000Y-90500000I75000J0D01*
G01*
G37*
G36*
G01*
X155675000Y-90500000D02*
X155825000Y-90500000D01*
G75*
G02*
X155900000Y-90575000I0J-75000D01*
G01*
X155900000Y-91975000D01*
G75*
G02*
X155825000Y-92050000I-75000J0D01*
G01*
X155675000Y-92050000D01*
G75*
G02*
X155600000Y-91975000I0J75000D01*
G01*
X155600000Y-90575000D01*
G75*
G02*
X155675000Y-90500000I75000J0D01*
G01*
G37*
G36*
G01*
X156175000Y-90500000D02*
X156325000Y-90500000D01*
G75*
G02*
X156400000Y-90575000I0J-75000D01*
G01*
X156400000Y-91975000D01*
G75*
G02*
X156325000Y-92050000I-75000J0D01*
G01*
X156175000Y-92050000D01*
G75*
G02*
X156100000Y-91975000I0J75000D01*
G01*
X156100000Y-90575000D01*
G75*
G02*
X156175000Y-90500000I75000J0D01*
G01*
G37*
G36*
G01*
X156675000Y-90500000D02*
X156825000Y-90500000D01*
G75*
G02*
X156900000Y-90575000I0J-75000D01*
G01*
X156900000Y-91975000D01*
G75*
G02*
X156825000Y-92050000I-75000J0D01*
G01*
X156675000Y-92050000D01*
G75*
G02*
X156600000Y-91975000I0J75000D01*
G01*
X156600000Y-90575000D01*
G75*
G02*
X156675000Y-90500000I75000J0D01*
G01*
G37*
G36*
G01*
X157175000Y-90500000D02*
X157325000Y-90500000D01*
G75*
G02*
X157400000Y-90575000I0J-75000D01*
G01*
X157400000Y-91975000D01*
G75*
G02*
X157325000Y-92050000I-75000J0D01*
G01*
X157175000Y-92050000D01*
G75*
G02*
X157100000Y-91975000I0J75000D01*
G01*
X157100000Y-90575000D01*
G75*
G02*
X157175000Y-90500000I75000J0D01*
G01*
G37*
G36*
G01*
X157675000Y-90500000D02*
X157825000Y-90500000D01*
G75*
G02*
X157900000Y-90575000I0J-75000D01*
G01*
X157900000Y-91975000D01*
G75*
G02*
X157825000Y-92050000I-75000J0D01*
G01*
X157675000Y-92050000D01*
G75*
G02*
X157600000Y-91975000I0J75000D01*
G01*
X157600000Y-90575000D01*
G75*
G02*
X157675000Y-90500000I75000J0D01*
G01*
G37*
G36*
G01*
X158175000Y-90500000D02*
X158325000Y-90500000D01*
G75*
G02*
X158400000Y-90575000I0J-75000D01*
G01*
X158400000Y-91975000D01*
G75*
G02*
X158325000Y-92050000I-75000J0D01*
G01*
X158175000Y-92050000D01*
G75*
G02*
X158100000Y-91975000I0J75000D01*
G01*
X158100000Y-90575000D01*
G75*
G02*
X158175000Y-90500000I75000J0D01*
G01*
G37*
G36*
G01*
X158675000Y-90500000D02*
X158825000Y-90500000D01*
G75*
G02*
X158900000Y-90575000I0J-75000D01*
G01*
X158900000Y-91975000D01*
G75*
G02*
X158825000Y-92050000I-75000J0D01*
G01*
X158675000Y-92050000D01*
G75*
G02*
X158600000Y-91975000I0J75000D01*
G01*
X158600000Y-90575000D01*
G75*
G02*
X158675000Y-90500000I75000J0D01*
G01*
G37*
G36*
G01*
X159175000Y-90500000D02*
X159325000Y-90500000D01*
G75*
G02*
X159400000Y-90575000I0J-75000D01*
G01*
X159400000Y-91975000D01*
G75*
G02*
X159325000Y-92050000I-75000J0D01*
G01*
X159175000Y-92050000D01*
G75*
G02*
X159100000Y-91975000I0J75000D01*
G01*
X159100000Y-90575000D01*
G75*
G02*
X159175000Y-90500000I75000J0D01*
G01*
G37*
G36*
G01*
X159675000Y-90500000D02*
X159825000Y-90500000D01*
G75*
G02*
X159900000Y-90575000I0J-75000D01*
G01*
X159900000Y-91975000D01*
G75*
G02*
X159825000Y-92050000I-75000J0D01*
G01*
X159675000Y-92050000D01*
G75*
G02*
X159600000Y-91975000I0J75000D01*
G01*
X159600000Y-90575000D01*
G75*
G02*
X159675000Y-90500000I75000J0D01*
G01*
G37*
G36*
G01*
X160175000Y-90500000D02*
X160325000Y-90500000D01*
G75*
G02*
X160400000Y-90575000I0J-75000D01*
G01*
X160400000Y-91975000D01*
G75*
G02*
X160325000Y-92050000I-75000J0D01*
G01*
X160175000Y-92050000D01*
G75*
G02*
X160100000Y-91975000I0J75000D01*
G01*
X160100000Y-90575000D01*
G75*
G02*
X160175000Y-90500000I75000J0D01*
G01*
G37*
G36*
G01*
X160675000Y-90500000D02*
X160825000Y-90500000D01*
G75*
G02*
X160900000Y-90575000I0J-75000D01*
G01*
X160900000Y-91975000D01*
G75*
G02*
X160825000Y-92050000I-75000J0D01*
G01*
X160675000Y-92050000D01*
G75*
G02*
X160600000Y-91975000I0J75000D01*
G01*
X160600000Y-90575000D01*
G75*
G02*
X160675000Y-90500000I75000J0D01*
G01*
G37*
G36*
G01*
X161175000Y-90500000D02*
X161325000Y-90500000D01*
G75*
G02*
X161400000Y-90575000I0J-75000D01*
G01*
X161400000Y-91975000D01*
G75*
G02*
X161325000Y-92050000I-75000J0D01*
G01*
X161175000Y-92050000D01*
G75*
G02*
X161100000Y-91975000I0J75000D01*
G01*
X161100000Y-90575000D01*
G75*
G02*
X161175000Y-90500000I75000J0D01*
G01*
G37*
G36*
G01*
X161675000Y-90500000D02*
X161825000Y-90500000D01*
G75*
G02*
X161900000Y-90575000I0J-75000D01*
G01*
X161900000Y-91975000D01*
G75*
G02*
X161825000Y-92050000I-75000J0D01*
G01*
X161675000Y-92050000D01*
G75*
G02*
X161600000Y-91975000I0J75000D01*
G01*
X161600000Y-90575000D01*
G75*
G02*
X161675000Y-90500000I75000J0D01*
G01*
G37*
G36*
G01*
X162175000Y-90500000D02*
X162325000Y-90500000D01*
G75*
G02*
X162400000Y-90575000I0J-75000D01*
G01*
X162400000Y-91975000D01*
G75*
G02*
X162325000Y-92050000I-75000J0D01*
G01*
X162175000Y-92050000D01*
G75*
G02*
X162100000Y-91975000I0J75000D01*
G01*
X162100000Y-90575000D01*
G75*
G02*
X162175000Y-90500000I75000J0D01*
G01*
G37*
G36*
G01*
X163475000Y-89200000D02*
X164875000Y-89200000D01*
G75*
G02*
X164950000Y-89275000I0J-75000D01*
G01*
X164950000Y-89425000D01*
G75*
G02*
X164875000Y-89500000I-75000J0D01*
G01*
X163475000Y-89500000D01*
G75*
G02*
X163400000Y-89425000I0J75000D01*
G01*
X163400000Y-89275000D01*
G75*
G02*
X163475000Y-89200000I75000J0D01*
G01*
G37*
G36*
G01*
X163475000Y-88700000D02*
X164875000Y-88700000D01*
G75*
G02*
X164950000Y-88775000I0J-75000D01*
G01*
X164950000Y-88925000D01*
G75*
G02*
X164875000Y-89000000I-75000J0D01*
G01*
X163475000Y-89000000D01*
G75*
G02*
X163400000Y-88925000I0J75000D01*
G01*
X163400000Y-88775000D01*
G75*
G02*
X163475000Y-88700000I75000J0D01*
G01*
G37*
G36*
G01*
X163475000Y-88200000D02*
X164875000Y-88200000D01*
G75*
G02*
X164950000Y-88275000I0J-75000D01*
G01*
X164950000Y-88425000D01*
G75*
G02*
X164875000Y-88500000I-75000J0D01*
G01*
X163475000Y-88500000D01*
G75*
G02*
X163400000Y-88425000I0J75000D01*
G01*
X163400000Y-88275000D01*
G75*
G02*
X163475000Y-88200000I75000J0D01*
G01*
G37*
G36*
G01*
X163475000Y-87700000D02*
X164875000Y-87700000D01*
G75*
G02*
X164950000Y-87775000I0J-75000D01*
G01*
X164950000Y-87925000D01*
G75*
G02*
X164875000Y-88000000I-75000J0D01*
G01*
X163475000Y-88000000D01*
G75*
G02*
X163400000Y-87925000I0J75000D01*
G01*
X163400000Y-87775000D01*
G75*
G02*
X163475000Y-87700000I75000J0D01*
G01*
G37*
G36*
G01*
X163475000Y-87200000D02*
X164875000Y-87200000D01*
G75*
G02*
X164950000Y-87275000I0J-75000D01*
G01*
X164950000Y-87425000D01*
G75*
G02*
X164875000Y-87500000I-75000J0D01*
G01*
X163475000Y-87500000D01*
G75*
G02*
X163400000Y-87425000I0J75000D01*
G01*
X163400000Y-87275000D01*
G75*
G02*
X163475000Y-87200000I75000J0D01*
G01*
G37*
G36*
G01*
X163475000Y-86700000D02*
X164875000Y-86700000D01*
G75*
G02*
X164950000Y-86775000I0J-75000D01*
G01*
X164950000Y-86925000D01*
G75*
G02*
X164875000Y-87000000I-75000J0D01*
G01*
X163475000Y-87000000D01*
G75*
G02*
X163400000Y-86925000I0J75000D01*
G01*
X163400000Y-86775000D01*
G75*
G02*
X163475000Y-86700000I75000J0D01*
G01*
G37*
G36*
G01*
X163475000Y-86200000D02*
X164875000Y-86200000D01*
G75*
G02*
X164950000Y-86275000I0J-75000D01*
G01*
X164950000Y-86425000D01*
G75*
G02*
X164875000Y-86500000I-75000J0D01*
G01*
X163475000Y-86500000D01*
G75*
G02*
X163400000Y-86425000I0J75000D01*
G01*
X163400000Y-86275000D01*
G75*
G02*
X163475000Y-86200000I75000J0D01*
G01*
G37*
G36*
G01*
X163475000Y-85700000D02*
X164875000Y-85700000D01*
G75*
G02*
X164950000Y-85775000I0J-75000D01*
G01*
X164950000Y-85925000D01*
G75*
G02*
X164875000Y-86000000I-75000J0D01*
G01*
X163475000Y-86000000D01*
G75*
G02*
X163400000Y-85925000I0J75000D01*
G01*
X163400000Y-85775000D01*
G75*
G02*
X163475000Y-85700000I75000J0D01*
G01*
G37*
G36*
G01*
X163475000Y-85200000D02*
X164875000Y-85200000D01*
G75*
G02*
X164950000Y-85275000I0J-75000D01*
G01*
X164950000Y-85425000D01*
G75*
G02*
X164875000Y-85500000I-75000J0D01*
G01*
X163475000Y-85500000D01*
G75*
G02*
X163400000Y-85425000I0J75000D01*
G01*
X163400000Y-85275000D01*
G75*
G02*
X163475000Y-85200000I75000J0D01*
G01*
G37*
G36*
G01*
X163475000Y-84700000D02*
X164875000Y-84700000D01*
G75*
G02*
X164950000Y-84775000I0J-75000D01*
G01*
X164950000Y-84925000D01*
G75*
G02*
X164875000Y-85000000I-75000J0D01*
G01*
X163475000Y-85000000D01*
G75*
G02*
X163400000Y-84925000I0J75000D01*
G01*
X163400000Y-84775000D01*
G75*
G02*
X163475000Y-84700000I75000J0D01*
G01*
G37*
G36*
G01*
X163475000Y-84200000D02*
X164875000Y-84200000D01*
G75*
G02*
X164950000Y-84275000I0J-75000D01*
G01*
X164950000Y-84425000D01*
G75*
G02*
X164875000Y-84500000I-75000J0D01*
G01*
X163475000Y-84500000D01*
G75*
G02*
X163400000Y-84425000I0J75000D01*
G01*
X163400000Y-84275000D01*
G75*
G02*
X163475000Y-84200000I75000J0D01*
G01*
G37*
G36*
G01*
X163475000Y-83700000D02*
X164875000Y-83700000D01*
G75*
G02*
X164950000Y-83775000I0J-75000D01*
G01*
X164950000Y-83925000D01*
G75*
G02*
X164875000Y-84000000I-75000J0D01*
G01*
X163475000Y-84000000D01*
G75*
G02*
X163400000Y-83925000I0J75000D01*
G01*
X163400000Y-83775000D01*
G75*
G02*
X163475000Y-83700000I75000J0D01*
G01*
G37*
G36*
G01*
X163475000Y-83200000D02*
X164875000Y-83200000D01*
G75*
G02*
X164950000Y-83275000I0J-75000D01*
G01*
X164950000Y-83425000D01*
G75*
G02*
X164875000Y-83500000I-75000J0D01*
G01*
X163475000Y-83500000D01*
G75*
G02*
X163400000Y-83425000I0J75000D01*
G01*
X163400000Y-83275000D01*
G75*
G02*
X163475000Y-83200000I75000J0D01*
G01*
G37*
G36*
G01*
X163475000Y-82700000D02*
X164875000Y-82700000D01*
G75*
G02*
X164950000Y-82775000I0J-75000D01*
G01*
X164950000Y-82925000D01*
G75*
G02*
X164875000Y-83000000I-75000J0D01*
G01*
X163475000Y-83000000D01*
G75*
G02*
X163400000Y-82925000I0J75000D01*
G01*
X163400000Y-82775000D01*
G75*
G02*
X163475000Y-82700000I75000J0D01*
G01*
G37*
G36*
G01*
X163475000Y-82200000D02*
X164875000Y-82200000D01*
G75*
G02*
X164950000Y-82275000I0J-75000D01*
G01*
X164950000Y-82425000D01*
G75*
G02*
X164875000Y-82500000I-75000J0D01*
G01*
X163475000Y-82500000D01*
G75*
G02*
X163400000Y-82425000I0J75000D01*
G01*
X163400000Y-82275000D01*
G75*
G02*
X163475000Y-82200000I75000J0D01*
G01*
G37*
G36*
G01*
X163475000Y-81700000D02*
X164875000Y-81700000D01*
G75*
G02*
X164950000Y-81775000I0J-75000D01*
G01*
X164950000Y-81925000D01*
G75*
G02*
X164875000Y-82000000I-75000J0D01*
G01*
X163475000Y-82000000D01*
G75*
G02*
X163400000Y-81925000I0J75000D01*
G01*
X163400000Y-81775000D01*
G75*
G02*
X163475000Y-81700000I75000J0D01*
G01*
G37*
%TD*%
%TO.C,U8*%
G36*
G01*
X176250000Y-98937500D02*
X176550000Y-98937500D01*
G75*
G02*
X176700000Y-99087500I0J-150000D01*
G01*
X176700000Y-100112500D01*
G75*
G02*
X176550000Y-100262500I-150000J0D01*
G01*
X176250000Y-100262500D01*
G75*
G02*
X176100000Y-100112500I0J150000D01*
G01*
X176100000Y-99087500D01*
G75*
G02*
X176250000Y-98937500I150000J0D01*
G01*
G37*
G36*
G01*
X175300000Y-98937500D02*
X175600000Y-98937500D01*
G75*
G02*
X175750000Y-99087500I0J-150000D01*
G01*
X175750000Y-100112500D01*
G75*
G02*
X175600000Y-100262500I-150000J0D01*
G01*
X175300000Y-100262500D01*
G75*
G02*
X175150000Y-100112500I0J150000D01*
G01*
X175150000Y-99087500D01*
G75*
G02*
X175300000Y-98937500I150000J0D01*
G01*
G37*
G36*
G01*
X174350000Y-98937500D02*
X174650000Y-98937500D01*
G75*
G02*
X174800000Y-99087500I0J-150000D01*
G01*
X174800000Y-100112500D01*
G75*
G02*
X174650000Y-100262500I-150000J0D01*
G01*
X174350000Y-100262500D01*
G75*
G02*
X174200000Y-100112500I0J150000D01*
G01*
X174200000Y-99087500D01*
G75*
G02*
X174350000Y-98937500I150000J0D01*
G01*
G37*
G36*
G01*
X174350000Y-101212500D02*
X174650000Y-101212500D01*
G75*
G02*
X174800000Y-101362500I0J-150000D01*
G01*
X174800000Y-102387500D01*
G75*
G02*
X174650000Y-102537500I-150000J0D01*
G01*
X174350000Y-102537500D01*
G75*
G02*
X174200000Y-102387500I0J150000D01*
G01*
X174200000Y-101362500D01*
G75*
G02*
X174350000Y-101212500I150000J0D01*
G01*
G37*
G36*
G01*
X175300000Y-101212500D02*
X175600000Y-101212500D01*
G75*
G02*
X175750000Y-101362500I0J-150000D01*
G01*
X175750000Y-102387500D01*
G75*
G02*
X175600000Y-102537500I-150000J0D01*
G01*
X175300000Y-102537500D01*
G75*
G02*
X175150000Y-102387500I0J150000D01*
G01*
X175150000Y-101362500D01*
G75*
G02*
X175300000Y-101212500I150000J0D01*
G01*
G37*
G36*
G01*
X176250000Y-101212500D02*
X176550000Y-101212500D01*
G75*
G02*
X176700000Y-101362500I0J-150000D01*
G01*
X176700000Y-102387500D01*
G75*
G02*
X176550000Y-102537500I-150000J0D01*
G01*
X176250000Y-102537500D01*
G75*
G02*
X176100000Y-102387500I0J150000D01*
G01*
X176100000Y-101362500D01*
G75*
G02*
X176250000Y-101212500I150000J0D01*
G01*
G37*
%TD*%
%TO.C,U10*%
G36*
G01*
X172250000Y-98650000D02*
X172250000Y-98950000D01*
G75*
G02*
X172100000Y-99100000I-150000J0D01*
G01*
X171075000Y-99100000D01*
G75*
G02*
X170925000Y-98950000I0J150000D01*
G01*
X170925000Y-98650000D01*
G75*
G02*
X171075000Y-98500000I150000J0D01*
G01*
X172100000Y-98500000D01*
G75*
G02*
X172250000Y-98650000I0J-150000D01*
G01*
G37*
G36*
G01*
X172250000Y-97700000D02*
X172250000Y-98000000D01*
G75*
G02*
X172100000Y-98150000I-150000J0D01*
G01*
X171075000Y-98150000D01*
G75*
G02*
X170925000Y-98000000I0J150000D01*
G01*
X170925000Y-97700000D01*
G75*
G02*
X171075000Y-97550000I150000J0D01*
G01*
X172100000Y-97550000D01*
G75*
G02*
X172250000Y-97700000I0J-150000D01*
G01*
G37*
G36*
G01*
X172250000Y-96750000D02*
X172250000Y-97050000D01*
G75*
G02*
X172100000Y-97200000I-150000J0D01*
G01*
X171075000Y-97200000D01*
G75*
G02*
X170925000Y-97050000I0J150000D01*
G01*
X170925000Y-96750000D01*
G75*
G02*
X171075000Y-96600000I150000J0D01*
G01*
X172100000Y-96600000D01*
G75*
G02*
X172250000Y-96750000I0J-150000D01*
G01*
G37*
G36*
G01*
X169975000Y-96750000D02*
X169975000Y-97050000D01*
G75*
G02*
X169825000Y-97200000I-150000J0D01*
G01*
X168800000Y-97200000D01*
G75*
G02*
X168650000Y-97050000I0J150000D01*
G01*
X168650000Y-96750000D01*
G75*
G02*
X168800000Y-96600000I150000J0D01*
G01*
X169825000Y-96600000D01*
G75*
G02*
X169975000Y-96750000I0J-150000D01*
G01*
G37*
G36*
G01*
X169975000Y-98650000D02*
X169975000Y-98950000D01*
G75*
G02*
X169825000Y-99100000I-150000J0D01*
G01*
X168800000Y-99100000D01*
G75*
G02*
X168650000Y-98950000I0J150000D01*
G01*
X168650000Y-98650000D01*
G75*
G02*
X168800000Y-98500000I150000J0D01*
G01*
X169825000Y-98500000D01*
G75*
G02*
X169975000Y-98650000I0J-150000D01*
G01*
G37*
%TD*%
%TO.C,R22*%
G36*
G01*
X171125000Y-81625000D02*
X171125000Y-81075000D01*
G75*
G02*
X171325000Y-80875000I200000J0D01*
G01*
X171725000Y-80875000D01*
G75*
G02*
X171925000Y-81075000I0J-200000D01*
G01*
X171925000Y-81625000D01*
G75*
G02*
X171725000Y-81825000I-200000J0D01*
G01*
X171325000Y-81825000D01*
G75*
G02*
X171125000Y-81625000I0J200000D01*
G01*
G37*
G36*
G01*
X172775000Y-81625000D02*
X172775000Y-81075000D01*
G75*
G02*
X172975000Y-80875000I200000J0D01*
G01*
X173375000Y-80875000D01*
G75*
G02*
X173575000Y-81075000I0J-200000D01*
G01*
X173575000Y-81625000D01*
G75*
G02*
X173375000Y-81825000I-200000J0D01*
G01*
X172975000Y-81825000D01*
G75*
G02*
X172775000Y-81625000I0J200000D01*
G01*
G37*
%TD*%
%TO.C,R23*%
G36*
G01*
X175225000Y-87675000D02*
X174675000Y-87675000D01*
G75*
G02*
X174475000Y-87475000I0J200000D01*
G01*
X174475000Y-87075000D01*
G75*
G02*
X174675000Y-86875000I200000J0D01*
G01*
X175225000Y-86875000D01*
G75*
G02*
X175425000Y-87075000I0J-200000D01*
G01*
X175425000Y-87475000D01*
G75*
G02*
X175225000Y-87675000I-200000J0D01*
G01*
G37*
G36*
G01*
X175225000Y-89325000D02*
X174675000Y-89325000D01*
G75*
G02*
X174475000Y-89125000I0J200000D01*
G01*
X174475000Y-88725000D01*
G75*
G02*
X174675000Y-88525000I200000J0D01*
G01*
X175225000Y-88525000D01*
G75*
G02*
X175425000Y-88725000I0J-200000D01*
G01*
X175425000Y-89125000D01*
G75*
G02*
X175225000Y-89325000I-200000J0D01*
G01*
G37*
%TD*%
%TO.C,R24*%
G36*
G01*
X166825000Y-91325000D02*
X166275000Y-91325000D01*
G75*
G02*
X166075000Y-91125000I0J200000D01*
G01*
X166075000Y-90725000D01*
G75*
G02*
X166275000Y-90525000I200000J0D01*
G01*
X166825000Y-90525000D01*
G75*
G02*
X167025000Y-90725000I0J-200000D01*
G01*
X167025000Y-91125000D01*
G75*
G02*
X166825000Y-91325000I-200000J0D01*
G01*
G37*
G36*
G01*
X166825000Y-89675000D02*
X166275000Y-89675000D01*
G75*
G02*
X166075000Y-89475000I0J200000D01*
G01*
X166075000Y-89075000D01*
G75*
G02*
X166275000Y-88875000I200000J0D01*
G01*
X166825000Y-88875000D01*
G75*
G02*
X167025000Y-89075000I0J-200000D01*
G01*
X167025000Y-89475000D01*
G75*
G02*
X166825000Y-89675000I-200000J0D01*
G01*
G37*
%TD*%
%TO.C,R25*%
G36*
G01*
X168075000Y-93275000D02*
X168075000Y-92725000D01*
G75*
G02*
X168275000Y-92525000I200000J0D01*
G01*
X168675000Y-92525000D01*
G75*
G02*
X168875000Y-92725000I0J-200000D01*
G01*
X168875000Y-93275000D01*
G75*
G02*
X168675000Y-93475000I-200000J0D01*
G01*
X168275000Y-93475000D01*
G75*
G02*
X168075000Y-93275000I0J200000D01*
G01*
G37*
G36*
G01*
X166425000Y-93275000D02*
X166425000Y-92725000D01*
G75*
G02*
X166625000Y-92525000I200000J0D01*
G01*
X167025000Y-92525000D01*
G75*
G02*
X167225000Y-92725000I0J-200000D01*
G01*
X167225000Y-93275000D01*
G75*
G02*
X167025000Y-93475000I-200000J0D01*
G01*
X166625000Y-93475000D01*
G75*
G02*
X166425000Y-93275000I0J200000D01*
G01*
G37*
%TD*%
D33*
%TO.C,U11*%
X174552500Y-84010000D03*
X174552500Y-84510000D03*
X174552500Y-85010000D03*
D34*
X175302500Y-85010000D03*
X175302500Y-84510000D03*
X175302500Y-84010000D03*
%TD*%
M02*
