%TF.GenerationSoftware,KiCad,Pcbnew,(5.1.8)-1*%
%TF.CreationDate,2021-01-30T00:08:38-08:00*%
%TF.ProjectId,MicroMotor,4d696372-6f4d-46f7-946f-722e6b696361,rev?*%
%TF.SameCoordinates,Original*%
%TF.FileFunction,Profile,NP*%
%FSLAX46Y46*%
G04 Gerber Fmt 4.6, Leading zero omitted, Abs format (unit mm)*
G04 Created by KiCad (PCBNEW (5.1.8)-1) date 2021-01-30 00:08:38*
%MOMM*%
%LPD*%
G01*
G04 APERTURE LIST*
%TA.AperFunction,Profile*%
%ADD10C,0.050000*%
%TD*%
G04 APERTURE END LIST*
D10*
X147159901Y-126660000D02*
G75*
G02*
X149159901Y-126660000I1000000J0D01*
G01*
X149160033Y-66900000D02*
G75*
G02*
X147160033Y-66900000I-1000000J0D01*
G01*
X149160033Y-66900000D02*
X149160033Y-64190033D01*
X147160033Y-64190033D02*
X147160099Y-66900000D01*
X149160000Y-126789967D02*
X149159901Y-126660000D01*
X147159901Y-126660000D02*
X147160000Y-126789967D01*
X147160000Y-126789967D02*
G75*
G02*
X145659967Y-128290000I-1500033J0D01*
G01*
X98185000Y-128290000D02*
G75*
G02*
X96684967Y-126789967I0J1500033D01*
G01*
X96684967Y-64190033D02*
G75*
G02*
X98185000Y-62690000I1500033J0D01*
G01*
X145660000Y-62690000D02*
G75*
G02*
X147160033Y-64190033I0J-1500033D01*
G01*
X98185000Y-128290000D02*
X145659967Y-128290000D01*
X96684967Y-64190033D02*
X96684967Y-126789967D01*
X145660000Y-62690000D02*
X98185000Y-62690000D01*
X203155000Y-62690000D02*
G75*
G02*
X204655033Y-64190033I0J-1500033D01*
G01*
X204655000Y-126790000D02*
G75*
G02*
X203154967Y-128290033I-1500033J0D01*
G01*
X150660033Y-128290000D02*
G75*
G02*
X149160000Y-126789967I0J1500033D01*
G01*
X149160000Y-64190000D02*
G75*
G02*
X150660033Y-62689967I1500033J0D01*
G01*
X204655000Y-126790000D02*
X204655033Y-64190033D01*
X150660033Y-128290000D02*
X203154967Y-128290033D01*
X203155000Y-62690000D02*
X150660033Y-62689967D01*
M02*
