%TF.GenerationSoftware,KiCad,Pcbnew,(5.1.8)-1*%
%TF.CreationDate,2020-11-11T18:37:22-08:00*%
%TF.ProjectId,MicroMotor,4d696372-6f4d-46f7-946f-722e6b696361,rev?*%
%TF.SameCoordinates,Original*%
%TF.FileFunction,Soldermask,Bot*%
%TF.FilePolarity,Negative*%
%FSLAX46Y46*%
G04 Gerber Fmt 4.6, Leading zero omitted, Abs format (unit mm)*
G04 Created by KiCad (PCBNEW (5.1.8)-1) date 2020-11-11 18:37:22*
%MOMM*%
%LPD*%
G01*
G04 APERTURE LIST*
%ADD10C,0.100000*%
%ADD11C,0.010000*%
%ADD12C,0.850000*%
%ADD13O,1.500000X3.000000*%
%ADD14R,1.700000X1.700000*%
%ADD15O,1.700000X1.700000*%
%ADD16C,0.499999*%
%ADD17R,2.000000X1.300000*%
%ADD18R,0.400000X1.000000*%
G04 APERTURE END LIST*
D10*
G36*
X183100000Y-76900000D02*
G01*
X170300000Y-76900000D01*
X170300000Y-70700000D01*
X183100000Y-70700000D01*
X183100000Y-76900000D01*
G37*
X183100000Y-76900000D02*
X170300000Y-76900000D01*
X170300000Y-70700000D01*
X183100000Y-70700000D01*
X183100000Y-76900000D01*
G36*
X171400000Y-109400000D02*
G01*
X168200000Y-109400000D01*
X168200000Y-106500000D01*
X171400000Y-106500000D01*
X171400000Y-109400000D01*
G37*
X171400000Y-109400000D02*
X168200000Y-109400000D01*
X168200000Y-106500000D01*
X171400000Y-106500000D01*
X171400000Y-109400000D01*
G36*
X175450000Y-109400000D02*
G01*
X172250000Y-109400000D01*
X172250000Y-106500000D01*
X175450000Y-106500000D01*
X175450000Y-109400000D01*
G37*
X175450000Y-109400000D02*
X172250000Y-109400000D01*
X172250000Y-106500000D01*
X175450000Y-106500000D01*
X175450000Y-109400000D01*
D11*
%TO.C,G\u002A\u002A\u002A*%
G36*
X176574114Y-94708919D02*
G01*
X176558953Y-94730847D01*
X176556470Y-94737568D01*
X176552056Y-94765076D01*
X176552437Y-94802024D01*
X176556861Y-94844250D01*
X176564575Y-94887594D01*
X176574825Y-94927893D01*
X176586860Y-94960988D01*
X176599926Y-94982717D01*
X176601038Y-94983884D01*
X176625179Y-94997494D01*
X176659665Y-95002229D01*
X176701577Y-94997937D01*
X176730301Y-94990587D01*
X176769457Y-94973252D01*
X176793789Y-94950372D01*
X176803311Y-94922048D01*
X176798034Y-94888380D01*
X176777974Y-94849470D01*
X176743142Y-94805418D01*
X176700711Y-94762877D01*
X176658888Y-94728087D01*
X176623941Y-94707514D01*
X176595730Y-94701133D01*
X176574114Y-94708919D01*
G37*
X176574114Y-94708919D02*
X176558953Y-94730847D01*
X176556470Y-94737568D01*
X176552056Y-94765076D01*
X176552437Y-94802024D01*
X176556861Y-94844250D01*
X176564575Y-94887594D01*
X176574825Y-94927893D01*
X176586860Y-94960988D01*
X176599926Y-94982717D01*
X176601038Y-94983884D01*
X176625179Y-94997494D01*
X176659665Y-95002229D01*
X176701577Y-94997937D01*
X176730301Y-94990587D01*
X176769457Y-94973252D01*
X176793789Y-94950372D01*
X176803311Y-94922048D01*
X176798034Y-94888380D01*
X176777974Y-94849470D01*
X176743142Y-94805418D01*
X176700711Y-94762877D01*
X176658888Y-94728087D01*
X176623941Y-94707514D01*
X176595730Y-94701133D01*
X176574114Y-94708919D01*
G36*
X176336805Y-94538819D02*
G01*
X176301633Y-94558146D01*
X176272847Y-94586046D01*
X176257581Y-94612077D01*
X176247323Y-94653908D01*
X176246473Y-94704702D01*
X176254545Y-94761010D01*
X176271048Y-94819383D01*
X176294807Y-94875023D01*
X176328227Y-94932564D01*
X176362019Y-94974283D01*
X176396253Y-95000227D01*
X176431000Y-95010444D01*
X176466332Y-95004984D01*
X176477437Y-95000104D01*
X176495360Y-94985548D01*
X176508274Y-94967141D01*
X176513202Y-94954407D01*
X176514325Y-94941220D01*
X176511127Y-94923435D01*
X176503091Y-94896907D01*
X176497436Y-94880061D01*
X176486291Y-94842594D01*
X176477150Y-94803292D01*
X176471805Y-94769994D01*
X176471506Y-94766796D01*
X176470078Y-94736688D01*
X176472844Y-94715042D01*
X176481179Y-94694698D01*
X176487557Y-94683301D01*
X176499313Y-94661421D01*
X176503198Y-94646326D01*
X176500287Y-94631688D01*
X176497500Y-94624638D01*
X176479621Y-94593619D01*
X176454701Y-94564688D01*
X176427390Y-94542659D01*
X176410089Y-94534165D01*
X176374308Y-94530134D01*
X176336805Y-94538819D01*
G37*
X176336805Y-94538819D02*
X176301633Y-94558146D01*
X176272847Y-94586046D01*
X176257581Y-94612077D01*
X176247323Y-94653908D01*
X176246473Y-94704702D01*
X176254545Y-94761010D01*
X176271048Y-94819383D01*
X176294807Y-94875023D01*
X176328227Y-94932564D01*
X176362019Y-94974283D01*
X176396253Y-95000227D01*
X176431000Y-95010444D01*
X176466332Y-95004984D01*
X176477437Y-95000104D01*
X176495360Y-94985548D01*
X176508274Y-94967141D01*
X176513202Y-94954407D01*
X176514325Y-94941220D01*
X176511127Y-94923435D01*
X176503091Y-94896907D01*
X176497436Y-94880061D01*
X176486291Y-94842594D01*
X176477150Y-94803292D01*
X176471805Y-94769994D01*
X176471506Y-94766796D01*
X176470078Y-94736688D01*
X176472844Y-94715042D01*
X176481179Y-94694698D01*
X176487557Y-94683301D01*
X176499313Y-94661421D01*
X176503198Y-94646326D01*
X176500287Y-94631688D01*
X176497500Y-94624638D01*
X176479621Y-94593619D01*
X176454701Y-94564688D01*
X176427390Y-94542659D01*
X176410089Y-94534165D01*
X176374308Y-94530134D01*
X176336805Y-94538819D01*
G36*
X174720523Y-91612715D02*
G01*
X174695724Y-91628055D01*
X174680729Y-91651881D01*
X174678191Y-91679441D01*
X174679693Y-91685962D01*
X174689159Y-91702859D01*
X174707923Y-91726332D01*
X174732775Y-91753183D01*
X174760503Y-91780214D01*
X174787897Y-91804229D01*
X174811744Y-91822028D01*
X174822469Y-91828143D01*
X174863213Y-91840520D01*
X174904609Y-91841603D01*
X174940947Y-91831258D01*
X174941531Y-91830960D01*
X174962058Y-91817891D01*
X174977250Y-91804216D01*
X174992125Y-91794285D01*
X175018889Y-91787712D01*
X175040750Y-91785156D01*
X175091926Y-91777987D01*
X175128153Y-91766905D01*
X175149219Y-91751981D01*
X175152124Y-91747597D01*
X175154773Y-91735588D01*
X175148421Y-91721279D01*
X175134873Y-91704335D01*
X175109770Y-91675745D01*
X175049463Y-91680816D01*
X174974623Y-91681631D01*
X174907376Y-91671188D01*
X174849609Y-91649835D01*
X174834131Y-91641184D01*
X174797768Y-91620791D01*
X174769293Y-91609938D01*
X174744724Y-91607628D01*
X174720523Y-91612715D01*
G37*
X174720523Y-91612715D02*
X174695724Y-91628055D01*
X174680729Y-91651881D01*
X174678191Y-91679441D01*
X174679693Y-91685962D01*
X174689159Y-91702859D01*
X174707923Y-91726332D01*
X174732775Y-91753183D01*
X174760503Y-91780214D01*
X174787897Y-91804229D01*
X174811744Y-91822028D01*
X174822469Y-91828143D01*
X174863213Y-91840520D01*
X174904609Y-91841603D01*
X174940947Y-91831258D01*
X174941531Y-91830960D01*
X174962058Y-91817891D01*
X174977250Y-91804216D01*
X174992125Y-91794285D01*
X175018889Y-91787712D01*
X175040750Y-91785156D01*
X175091926Y-91777987D01*
X175128153Y-91766905D01*
X175149219Y-91751981D01*
X175152124Y-91747597D01*
X175154773Y-91735588D01*
X175148421Y-91721279D01*
X175134873Y-91704335D01*
X175109770Y-91675745D01*
X175049463Y-91680816D01*
X174974623Y-91681631D01*
X174907376Y-91671188D01*
X174849609Y-91649835D01*
X174834131Y-91641184D01*
X174797768Y-91620791D01*
X174769293Y-91609938D01*
X174744724Y-91607628D01*
X174720523Y-91612715D01*
G36*
X175393605Y-92103678D02*
G01*
X175363773Y-92113390D01*
X175341383Y-92128595D01*
X175336985Y-92134086D01*
X175326973Y-92161445D01*
X175328798Y-92191267D01*
X175340294Y-92221419D01*
X175359294Y-92249770D01*
X175383632Y-92274186D01*
X175411142Y-92292536D01*
X175439656Y-92302688D01*
X175467007Y-92302508D01*
X175491030Y-92289866D01*
X175493187Y-92287813D01*
X175504376Y-92266476D01*
X175507616Y-92236317D01*
X175503908Y-92201628D01*
X175494251Y-92166699D01*
X175479646Y-92135823D01*
X175461092Y-92113290D01*
X175450983Y-92106653D01*
X175424727Y-92100938D01*
X175393605Y-92103678D01*
G37*
X175393605Y-92103678D02*
X175363773Y-92113390D01*
X175341383Y-92128595D01*
X175336985Y-92134086D01*
X175326973Y-92161445D01*
X175328798Y-92191267D01*
X175340294Y-92221419D01*
X175359294Y-92249770D01*
X175383632Y-92274186D01*
X175411142Y-92292536D01*
X175439656Y-92302688D01*
X175467007Y-92302508D01*
X175491030Y-92289866D01*
X175493187Y-92287813D01*
X175504376Y-92266476D01*
X175507616Y-92236317D01*
X175503908Y-92201628D01*
X175494251Y-92166699D01*
X175479646Y-92135823D01*
X175461092Y-92113290D01*
X175450983Y-92106653D01*
X175424727Y-92100938D01*
X175393605Y-92103678D01*
G36*
X180022767Y-92020501D02*
G01*
X179990584Y-92028300D01*
X179964736Y-92045212D01*
X179941680Y-92073436D01*
X179921271Y-92108638D01*
X179903078Y-92139310D01*
X179885290Y-92162592D01*
X179871909Y-92174111D01*
X179862277Y-92177403D01*
X179846428Y-92179908D01*
X179822715Y-92181684D01*
X179789491Y-92182789D01*
X179745109Y-92183281D01*
X179687922Y-92183218D01*
X179627210Y-92182765D01*
X179403051Y-92180656D01*
X179398154Y-92156844D01*
X179391434Y-92133356D01*
X179384172Y-92116126D01*
X179368626Y-92100614D01*
X179341274Y-92086124D01*
X179306169Y-92074429D01*
X179274585Y-92068188D01*
X179252884Y-92066043D01*
X179242672Y-92068298D01*
X179239886Y-92076143D01*
X179239862Y-92078374D01*
X179245628Y-92104134D01*
X179260669Y-92135589D01*
X179282345Y-92167945D01*
X179301128Y-92189671D01*
X179327351Y-92214711D01*
X179357434Y-92239563D01*
X179393477Y-92265671D01*
X179437581Y-92294475D01*
X179491845Y-92327419D01*
X179555134Y-92364099D01*
X179614538Y-92398449D01*
X179662964Y-92427768D01*
X179703540Y-92454305D01*
X179739393Y-92480313D01*
X179773652Y-92508040D01*
X179809444Y-92539737D01*
X179843510Y-92571578D01*
X179870547Y-92596955D01*
X179893295Y-92617751D01*
X179909375Y-92631832D01*
X179916410Y-92637062D01*
X179916424Y-92637063D01*
X179924105Y-92631763D01*
X179930203Y-92625213D01*
X179943814Y-92615785D01*
X179965680Y-92606819D01*
X179972847Y-92604721D01*
X180020813Y-92586619D01*
X180062676Y-92560354D01*
X180096617Y-92528144D01*
X180120816Y-92492208D01*
X180133454Y-92454766D01*
X180132712Y-92418037D01*
X180131044Y-92411760D01*
X180128290Y-92377915D01*
X180138067Y-92342033D01*
X180158840Y-92309439D01*
X180161277Y-92306763D01*
X180178025Y-92291286D01*
X180198059Y-92277997D01*
X180223331Y-92266288D01*
X180255794Y-92255551D01*
X180297402Y-92245179D01*
X180350108Y-92234565D01*
X180415865Y-92223101D01*
X180446187Y-92218153D01*
X180469338Y-92212862D01*
X180480790Y-92205057D01*
X180484427Y-92194665D01*
X180479927Y-92173725D01*
X180462217Y-92153935D01*
X180433961Y-92136655D01*
X180397822Y-92123247D01*
X180356464Y-92115071D01*
X180324906Y-92113188D01*
X180302798Y-92113967D01*
X180283166Y-92117207D01*
X180262056Y-92124257D01*
X180235519Y-92136466D01*
X180199601Y-92155184D01*
X180195448Y-92157409D01*
X180152620Y-92179541D01*
X180121337Y-92193172D01*
X180099766Y-92198340D01*
X180086072Y-92195085D01*
X180078419Y-92183448D01*
X180074973Y-92163469D01*
X180074724Y-92160040D01*
X180074690Y-92136685D01*
X180079951Y-92118625D01*
X180093044Y-92099021D01*
X180100913Y-92089367D01*
X180118297Y-92064896D01*
X180126750Y-92044849D01*
X180127095Y-92038545D01*
X180124331Y-92029966D01*
X180116781Y-92024704D01*
X180101028Y-92021719D01*
X180073653Y-92019973D01*
X180064829Y-92019617D01*
X180022767Y-92020501D01*
G37*
X180022767Y-92020501D02*
X179990584Y-92028300D01*
X179964736Y-92045212D01*
X179941680Y-92073436D01*
X179921271Y-92108638D01*
X179903078Y-92139310D01*
X179885290Y-92162592D01*
X179871909Y-92174111D01*
X179862277Y-92177403D01*
X179846428Y-92179908D01*
X179822715Y-92181684D01*
X179789491Y-92182789D01*
X179745109Y-92183281D01*
X179687922Y-92183218D01*
X179627210Y-92182765D01*
X179403051Y-92180656D01*
X179398154Y-92156844D01*
X179391434Y-92133356D01*
X179384172Y-92116126D01*
X179368626Y-92100614D01*
X179341274Y-92086124D01*
X179306169Y-92074429D01*
X179274585Y-92068188D01*
X179252884Y-92066043D01*
X179242672Y-92068298D01*
X179239886Y-92076143D01*
X179239862Y-92078374D01*
X179245628Y-92104134D01*
X179260669Y-92135589D01*
X179282345Y-92167945D01*
X179301128Y-92189671D01*
X179327351Y-92214711D01*
X179357434Y-92239563D01*
X179393477Y-92265671D01*
X179437581Y-92294475D01*
X179491845Y-92327419D01*
X179555134Y-92364099D01*
X179614538Y-92398449D01*
X179662964Y-92427768D01*
X179703540Y-92454305D01*
X179739393Y-92480313D01*
X179773652Y-92508040D01*
X179809444Y-92539737D01*
X179843510Y-92571578D01*
X179870547Y-92596955D01*
X179893295Y-92617751D01*
X179909375Y-92631832D01*
X179916410Y-92637062D01*
X179916424Y-92637063D01*
X179924105Y-92631763D01*
X179930203Y-92625213D01*
X179943814Y-92615785D01*
X179965680Y-92606819D01*
X179972847Y-92604721D01*
X180020813Y-92586619D01*
X180062676Y-92560354D01*
X180096617Y-92528144D01*
X180120816Y-92492208D01*
X180133454Y-92454766D01*
X180132712Y-92418037D01*
X180131044Y-92411760D01*
X180128290Y-92377915D01*
X180138067Y-92342033D01*
X180158840Y-92309439D01*
X180161277Y-92306763D01*
X180178025Y-92291286D01*
X180198059Y-92277997D01*
X180223331Y-92266288D01*
X180255794Y-92255551D01*
X180297402Y-92245179D01*
X180350108Y-92234565D01*
X180415865Y-92223101D01*
X180446187Y-92218153D01*
X180469338Y-92212862D01*
X180480790Y-92205057D01*
X180484427Y-92194665D01*
X180479927Y-92173725D01*
X180462217Y-92153935D01*
X180433961Y-92136655D01*
X180397822Y-92123247D01*
X180356464Y-92115071D01*
X180324906Y-92113188D01*
X180302798Y-92113967D01*
X180283166Y-92117207D01*
X180262056Y-92124257D01*
X180235519Y-92136466D01*
X180199601Y-92155184D01*
X180195448Y-92157409D01*
X180152620Y-92179541D01*
X180121337Y-92193172D01*
X180099766Y-92198340D01*
X180086072Y-92195085D01*
X180078419Y-92183448D01*
X180074973Y-92163469D01*
X180074724Y-92160040D01*
X180074690Y-92136685D01*
X180079951Y-92118625D01*
X180093044Y-92099021D01*
X180100913Y-92089367D01*
X180118297Y-92064896D01*
X180126750Y-92044849D01*
X180127095Y-92038545D01*
X180124331Y-92029966D01*
X180116781Y-92024704D01*
X180101028Y-92021719D01*
X180073653Y-92019973D01*
X180064829Y-92019617D01*
X180022767Y-92020501D01*
G36*
X174402555Y-91444142D02*
G01*
X174390072Y-91461959D01*
X174381172Y-91493286D01*
X174377109Y-91520448D01*
X174375804Y-91559086D01*
X174378951Y-91607680D01*
X174385869Y-91661165D01*
X174395877Y-91714475D01*
X174408296Y-91762545D01*
X174410619Y-91769897D01*
X174425782Y-91838345D01*
X174429340Y-91911261D01*
X174421097Y-91982074D01*
X174417441Y-91997641D01*
X174411550Y-92022637D01*
X174409439Y-92042400D01*
X174411308Y-92062954D01*
X174417356Y-92090319D01*
X174420979Y-92104480D01*
X174449680Y-92195328D01*
X174490395Y-92294027D01*
X174542356Y-92399017D01*
X174604795Y-92508732D01*
X174669395Y-92610346D01*
X174749493Y-92730472D01*
X174845512Y-92743319D01*
X174939473Y-92752864D01*
X175027854Y-92755877D01*
X175107996Y-92752404D01*
X175177241Y-92742491D01*
X175199500Y-92737218D01*
X175242699Y-92725482D01*
X175292163Y-92711786D01*
X175345169Y-92696910D01*
X175398991Y-92681637D01*
X175450903Y-92666747D01*
X175498182Y-92653021D01*
X175538101Y-92641242D01*
X175567936Y-92632189D01*
X175584082Y-92626960D01*
X175615444Y-92615889D01*
X175556300Y-92575980D01*
X175447155Y-92511422D01*
X175333695Y-92462135D01*
X175322531Y-92458192D01*
X175292288Y-92447081D01*
X175267493Y-92436797D01*
X175252308Y-92429107D01*
X175250169Y-92427492D01*
X175244462Y-92416279D01*
X175236619Y-92393564D01*
X175227950Y-92363341D01*
X175223881Y-92347344D01*
X175200777Y-92269948D01*
X175171550Y-92204589D01*
X175134505Y-92148057D01*
X175095448Y-92104397D01*
X175072827Y-92081118D01*
X175056143Y-92062052D01*
X175047531Y-92049754D01*
X175047184Y-92046648D01*
X175060866Y-92045640D01*
X175087229Y-92050631D01*
X175124454Y-92061157D01*
X175170723Y-92076752D01*
X175184463Y-92081747D01*
X175231766Y-92096401D01*
X175268653Y-92101831D01*
X175294310Y-92098017D01*
X175307923Y-92084944D01*
X175308151Y-92084372D01*
X175309500Y-92060228D01*
X175299020Y-92030788D01*
X175278702Y-91998567D01*
X175250540Y-91966078D01*
X175216525Y-91935834D01*
X175178651Y-91910351D01*
X175164141Y-91902672D01*
X175143863Y-91893227D01*
X175126586Y-91887208D01*
X175108083Y-91884050D01*
X175084123Y-91883191D01*
X175050478Y-91884067D01*
X175030700Y-91884892D01*
X174987781Y-91887856D01*
X174944300Y-91892699D01*
X174906512Y-91898643D01*
X174888493Y-91902590D01*
X174835456Y-91916409D01*
X174792291Y-91896647D01*
X174758459Y-91878864D01*
X174727737Y-91857165D01*
X174698564Y-91829706D01*
X174669381Y-91794644D01*
X174638627Y-91750135D01*
X174604742Y-91694336D01*
X174572469Y-91636938D01*
X174536705Y-91573462D01*
X174506337Y-91523554D01*
X174480559Y-91486167D01*
X174458563Y-91460257D01*
X174439542Y-91444779D01*
X174422689Y-91438685D01*
X174419309Y-91438500D01*
X174402555Y-91444142D01*
G37*
X174402555Y-91444142D02*
X174390072Y-91461959D01*
X174381172Y-91493286D01*
X174377109Y-91520448D01*
X174375804Y-91559086D01*
X174378951Y-91607680D01*
X174385869Y-91661165D01*
X174395877Y-91714475D01*
X174408296Y-91762545D01*
X174410619Y-91769897D01*
X174425782Y-91838345D01*
X174429340Y-91911261D01*
X174421097Y-91982074D01*
X174417441Y-91997641D01*
X174411550Y-92022637D01*
X174409439Y-92042400D01*
X174411308Y-92062954D01*
X174417356Y-92090319D01*
X174420979Y-92104480D01*
X174449680Y-92195328D01*
X174490395Y-92294027D01*
X174542356Y-92399017D01*
X174604795Y-92508732D01*
X174669395Y-92610346D01*
X174749493Y-92730472D01*
X174845512Y-92743319D01*
X174939473Y-92752864D01*
X175027854Y-92755877D01*
X175107996Y-92752404D01*
X175177241Y-92742491D01*
X175199500Y-92737218D01*
X175242699Y-92725482D01*
X175292163Y-92711786D01*
X175345169Y-92696910D01*
X175398991Y-92681637D01*
X175450903Y-92666747D01*
X175498182Y-92653021D01*
X175538101Y-92641242D01*
X175567936Y-92632189D01*
X175584082Y-92626960D01*
X175615444Y-92615889D01*
X175556300Y-92575980D01*
X175447155Y-92511422D01*
X175333695Y-92462135D01*
X175322531Y-92458192D01*
X175292288Y-92447081D01*
X175267493Y-92436797D01*
X175252308Y-92429107D01*
X175250169Y-92427492D01*
X175244462Y-92416279D01*
X175236619Y-92393564D01*
X175227950Y-92363341D01*
X175223881Y-92347344D01*
X175200777Y-92269948D01*
X175171550Y-92204589D01*
X175134505Y-92148057D01*
X175095448Y-92104397D01*
X175072827Y-92081118D01*
X175056143Y-92062052D01*
X175047531Y-92049754D01*
X175047184Y-92046648D01*
X175060866Y-92045640D01*
X175087229Y-92050631D01*
X175124454Y-92061157D01*
X175170723Y-92076752D01*
X175184463Y-92081747D01*
X175231766Y-92096401D01*
X175268653Y-92101831D01*
X175294310Y-92098017D01*
X175307923Y-92084944D01*
X175308151Y-92084372D01*
X175309500Y-92060228D01*
X175299020Y-92030788D01*
X175278702Y-91998567D01*
X175250540Y-91966078D01*
X175216525Y-91935834D01*
X175178651Y-91910351D01*
X175164141Y-91902672D01*
X175143863Y-91893227D01*
X175126586Y-91887208D01*
X175108083Y-91884050D01*
X175084123Y-91883191D01*
X175050478Y-91884067D01*
X175030700Y-91884892D01*
X174987781Y-91887856D01*
X174944300Y-91892699D01*
X174906512Y-91898643D01*
X174888493Y-91902590D01*
X174835456Y-91916409D01*
X174792291Y-91896647D01*
X174758459Y-91878864D01*
X174727737Y-91857165D01*
X174698564Y-91829706D01*
X174669381Y-91794644D01*
X174638627Y-91750135D01*
X174604742Y-91694336D01*
X174572469Y-91636938D01*
X174536705Y-91573462D01*
X174506337Y-91523554D01*
X174480559Y-91486167D01*
X174458563Y-91460257D01*
X174439542Y-91444779D01*
X174422689Y-91438685D01*
X174419309Y-91438500D01*
X174402555Y-91444142D01*
G36*
X181260760Y-91257944D02*
G01*
X181229000Y-91269370D01*
X181197702Y-91292375D01*
X181163548Y-91328254D01*
X181157425Y-91335481D01*
X181123152Y-91373756D01*
X181086725Y-91408537D01*
X181045962Y-91441328D01*
X180998685Y-91473634D01*
X180942712Y-91506960D01*
X180875864Y-91542809D01*
X180807205Y-91577201D01*
X180751498Y-91604668D01*
X180707806Y-91626847D01*
X180673756Y-91645165D01*
X180646977Y-91661049D01*
X180625098Y-91675925D01*
X180605746Y-91691218D01*
X180586551Y-91708354D01*
X180581988Y-91712631D01*
X180545165Y-91750815D01*
X180522253Y-91783046D01*
X180512812Y-91810158D01*
X180516400Y-91832983D01*
X180517320Y-91834804D01*
X180527769Y-91848832D01*
X180543575Y-91859060D01*
X180567464Y-91866369D01*
X180602165Y-91871639D01*
X180642446Y-91875192D01*
X180690565Y-91880230D01*
X180724365Y-91887654D01*
X180745295Y-91898029D01*
X180754808Y-91911921D01*
X180755750Y-91919373D01*
X180748836Y-91933301D01*
X180731242Y-91947921D01*
X180707691Y-91960079D01*
X180685492Y-91966282D01*
X180624487Y-91976783D01*
X180578199Y-91988180D01*
X180545470Y-92001109D01*
X180525143Y-92016208D01*
X180516063Y-92034113D01*
X180517071Y-92055461D01*
X180517894Y-92058562D01*
X180525072Y-92076455D01*
X180538160Y-92103074D01*
X180554752Y-92133625D01*
X180560919Y-92144320D01*
X180582487Y-92184113D01*
X180594062Y-92214527D01*
X180595825Y-92238368D01*
X180587963Y-92258438D01*
X180570656Y-92277542D01*
X180569696Y-92278391D01*
X180547225Y-92293885D01*
X180518189Y-92305597D01*
X180479993Y-92314192D01*
X180430045Y-92320332D01*
X180395609Y-92322971D01*
X180342713Y-92330224D01*
X180298570Y-92344021D01*
X180265627Y-92363401D01*
X180250463Y-92379896D01*
X180242461Y-92401855D01*
X180242341Y-92432683D01*
X180250200Y-92474344D01*
X180256054Y-92496077D01*
X180262006Y-92519590D01*
X180262241Y-92534623D01*
X180256155Y-92547725D01*
X180250544Y-92555608D01*
X180233597Y-92572622D01*
X180215470Y-92583113D01*
X180215189Y-92583198D01*
X180198143Y-92588172D01*
X180171490Y-92595843D01*
X180140898Y-92604579D01*
X180139880Y-92604869D01*
X180095175Y-92620159D01*
X180064367Y-92637246D01*
X180045482Y-92657587D01*
X180036867Y-92680802D01*
X180038411Y-92715274D01*
X180055223Y-92753856D01*
X180087318Y-92796577D01*
X180115454Y-92825689D01*
X180165350Y-92873602D01*
X180217088Y-92869449D01*
X180265890Y-92870519D01*
X180309520Y-92883128D01*
X180351719Y-92908696D01*
X180377409Y-92930390D01*
X180411926Y-92957007D01*
X180443685Y-92971361D01*
X180470000Y-92972585D01*
X180479457Y-92964762D01*
X180493653Y-92946587D01*
X180509814Y-92921691D01*
X180512851Y-92916545D01*
X180566366Y-92828559D01*
X180628608Y-92733263D01*
X180697445Y-92633510D01*
X180770743Y-92532153D01*
X180846371Y-92432045D01*
X180922196Y-92336039D01*
X180996086Y-92246987D01*
X181065908Y-92167743D01*
X181099069Y-92132229D01*
X181129823Y-92098382D01*
X181156371Y-92066000D01*
X181176034Y-92038501D01*
X181184641Y-92023153D01*
X181192708Y-91999021D01*
X181199959Y-91964225D01*
X181206696Y-91917005D01*
X181212970Y-91858246D01*
X181218601Y-91807330D01*
X181225732Y-91755040D01*
X181233582Y-91706482D01*
X181241368Y-91666763D01*
X181244074Y-91655334D01*
X181262766Y-91593155D01*
X181286275Y-91532897D01*
X181312931Y-91477987D01*
X181341064Y-91431848D01*
X181369005Y-91397904D01*
X181370100Y-91396843D01*
X181391160Y-91374998D01*
X181402323Y-91357839D01*
X181406372Y-91340501D01*
X181406625Y-91333014D01*
X181400666Y-91304164D01*
X181382069Y-91282746D01*
X181349755Y-91267672D01*
X181338945Y-91264650D01*
X181296303Y-91256803D01*
X181260760Y-91257944D01*
G37*
X181260760Y-91257944D02*
X181229000Y-91269370D01*
X181197702Y-91292375D01*
X181163548Y-91328254D01*
X181157425Y-91335481D01*
X181123152Y-91373756D01*
X181086725Y-91408537D01*
X181045962Y-91441328D01*
X180998685Y-91473634D01*
X180942712Y-91506960D01*
X180875864Y-91542809D01*
X180807205Y-91577201D01*
X180751498Y-91604668D01*
X180707806Y-91626847D01*
X180673756Y-91645165D01*
X180646977Y-91661049D01*
X180625098Y-91675925D01*
X180605746Y-91691218D01*
X180586551Y-91708354D01*
X180581988Y-91712631D01*
X180545165Y-91750815D01*
X180522253Y-91783046D01*
X180512812Y-91810158D01*
X180516400Y-91832983D01*
X180517320Y-91834804D01*
X180527769Y-91848832D01*
X180543575Y-91859060D01*
X180567464Y-91866369D01*
X180602165Y-91871639D01*
X180642446Y-91875192D01*
X180690565Y-91880230D01*
X180724365Y-91887654D01*
X180745295Y-91898029D01*
X180754808Y-91911921D01*
X180755750Y-91919373D01*
X180748836Y-91933301D01*
X180731242Y-91947921D01*
X180707691Y-91960079D01*
X180685492Y-91966282D01*
X180624487Y-91976783D01*
X180578199Y-91988180D01*
X180545470Y-92001109D01*
X180525143Y-92016208D01*
X180516063Y-92034113D01*
X180517071Y-92055461D01*
X180517894Y-92058562D01*
X180525072Y-92076455D01*
X180538160Y-92103074D01*
X180554752Y-92133625D01*
X180560919Y-92144320D01*
X180582487Y-92184113D01*
X180594062Y-92214527D01*
X180595825Y-92238368D01*
X180587963Y-92258438D01*
X180570656Y-92277542D01*
X180569696Y-92278391D01*
X180547225Y-92293885D01*
X180518189Y-92305597D01*
X180479993Y-92314192D01*
X180430045Y-92320332D01*
X180395609Y-92322971D01*
X180342713Y-92330224D01*
X180298570Y-92344021D01*
X180265627Y-92363401D01*
X180250463Y-92379896D01*
X180242461Y-92401855D01*
X180242341Y-92432683D01*
X180250200Y-92474344D01*
X180256054Y-92496077D01*
X180262006Y-92519590D01*
X180262241Y-92534623D01*
X180256155Y-92547725D01*
X180250544Y-92555608D01*
X180233597Y-92572622D01*
X180215470Y-92583113D01*
X180215189Y-92583198D01*
X180198143Y-92588172D01*
X180171490Y-92595843D01*
X180140898Y-92604579D01*
X180139880Y-92604869D01*
X180095175Y-92620159D01*
X180064367Y-92637246D01*
X180045482Y-92657587D01*
X180036867Y-92680802D01*
X180038411Y-92715274D01*
X180055223Y-92753856D01*
X180087318Y-92796577D01*
X180115454Y-92825689D01*
X180165350Y-92873602D01*
X180217088Y-92869449D01*
X180265890Y-92870519D01*
X180309520Y-92883128D01*
X180351719Y-92908696D01*
X180377409Y-92930390D01*
X180411926Y-92957007D01*
X180443685Y-92971361D01*
X180470000Y-92972585D01*
X180479457Y-92964762D01*
X180493653Y-92946587D01*
X180509814Y-92921691D01*
X180512851Y-92916545D01*
X180566366Y-92828559D01*
X180628608Y-92733263D01*
X180697445Y-92633510D01*
X180770743Y-92532153D01*
X180846371Y-92432045D01*
X180922196Y-92336039D01*
X180996086Y-92246987D01*
X181065908Y-92167743D01*
X181099069Y-92132229D01*
X181129823Y-92098382D01*
X181156371Y-92066000D01*
X181176034Y-92038501D01*
X181184641Y-92023153D01*
X181192708Y-91999021D01*
X181199959Y-91964225D01*
X181206696Y-91917005D01*
X181212970Y-91858246D01*
X181218601Y-91807330D01*
X181225732Y-91755040D01*
X181233582Y-91706482D01*
X181241368Y-91666763D01*
X181244074Y-91655334D01*
X181262766Y-91593155D01*
X181286275Y-91532897D01*
X181312931Y-91477987D01*
X181341064Y-91431848D01*
X181369005Y-91397904D01*
X181370100Y-91396843D01*
X181391160Y-91374998D01*
X181402323Y-91357839D01*
X181406372Y-91340501D01*
X181406625Y-91333014D01*
X181400666Y-91304164D01*
X181382069Y-91282746D01*
X181349755Y-91267672D01*
X181338945Y-91264650D01*
X181296303Y-91256803D01*
X181260760Y-91257944D01*
G36*
X178609729Y-94745249D02*
G01*
X178595991Y-94753670D01*
X178574813Y-94771438D01*
X178548873Y-94795773D01*
X178520850Y-94823893D01*
X178493425Y-94853020D01*
X178469276Y-94880371D01*
X178451082Y-94903166D01*
X178441525Y-94918625D01*
X178440926Y-94920423D01*
X178439607Y-94940518D01*
X178443315Y-94953527D01*
X178460361Y-94967703D01*
X178488458Y-94978142D01*
X178523130Y-94984392D01*
X178559897Y-94986004D01*
X178594280Y-94982529D01*
X178621803Y-94973515D01*
X178624870Y-94971776D01*
X178652243Y-94950618D01*
X178675065Y-94924889D01*
X178689754Y-94899147D01*
X178693234Y-94884750D01*
X178691931Y-94838966D01*
X178683168Y-94799918D01*
X178668133Y-94769587D01*
X178648012Y-94749955D01*
X178623991Y-94743005D01*
X178609729Y-94745249D01*
G37*
X178609729Y-94745249D02*
X178595991Y-94753670D01*
X178574813Y-94771438D01*
X178548873Y-94795773D01*
X178520850Y-94823893D01*
X178493425Y-94853020D01*
X178469276Y-94880371D01*
X178451082Y-94903166D01*
X178441525Y-94918625D01*
X178440926Y-94920423D01*
X178439607Y-94940518D01*
X178443315Y-94953527D01*
X178460361Y-94967703D01*
X178488458Y-94978142D01*
X178523130Y-94984392D01*
X178559897Y-94986004D01*
X178594280Y-94982529D01*
X178621803Y-94973515D01*
X178624870Y-94971776D01*
X178652243Y-94950618D01*
X178675065Y-94924889D01*
X178689754Y-94899147D01*
X178693234Y-94884750D01*
X178691931Y-94838966D01*
X178683168Y-94799918D01*
X178668133Y-94769587D01*
X178648012Y-94749955D01*
X178623991Y-94743005D01*
X178609729Y-94745249D01*
G36*
X178868104Y-94644988D02*
G01*
X178866075Y-94645354D01*
X178829490Y-94654953D01*
X178802082Y-94669529D01*
X178781901Y-94691545D01*
X178766997Y-94723465D01*
X178755419Y-94767754D01*
X178751085Y-94790599D01*
X178743866Y-94840944D01*
X178740180Y-94887892D01*
X178740012Y-94928574D01*
X178743348Y-94960121D01*
X178750171Y-94979663D01*
X178752098Y-94982027D01*
X178763307Y-94990517D01*
X178776560Y-94993280D01*
X178794805Y-94989759D01*
X178820988Y-94979396D01*
X178856817Y-94962254D01*
X178916829Y-94925473D01*
X178963056Y-94881858D01*
X178995152Y-94831940D01*
X179012771Y-94776248D01*
X179015798Y-94718694D01*
X179012946Y-94691345D01*
X179008632Y-94670182D01*
X179004571Y-94660959D01*
X178989063Y-94653211D01*
X178962692Y-94647179D01*
X178930429Y-94643425D01*
X178897243Y-94642508D01*
X178868104Y-94644988D01*
G37*
X178868104Y-94644988D02*
X178866075Y-94645354D01*
X178829490Y-94654953D01*
X178802082Y-94669529D01*
X178781901Y-94691545D01*
X178766997Y-94723465D01*
X178755419Y-94767754D01*
X178751085Y-94790599D01*
X178743866Y-94840944D01*
X178740180Y-94887892D01*
X178740012Y-94928574D01*
X178743348Y-94960121D01*
X178750171Y-94979663D01*
X178752098Y-94982027D01*
X178763307Y-94990517D01*
X178776560Y-94993280D01*
X178794805Y-94989759D01*
X178820988Y-94979396D01*
X178856817Y-94962254D01*
X178916829Y-94925473D01*
X178963056Y-94881858D01*
X178995152Y-94831940D01*
X179012771Y-94776248D01*
X179015798Y-94718694D01*
X179012946Y-94691345D01*
X179008632Y-94670182D01*
X179004571Y-94660959D01*
X178989063Y-94653211D01*
X178962692Y-94647179D01*
X178930429Y-94643425D01*
X178897243Y-94642508D01*
X178868104Y-94644988D01*
G36*
X181769766Y-94490952D02*
G01*
X181722053Y-94512662D01*
X181672884Y-94547770D01*
X181624309Y-94594189D01*
X181578376Y-94649835D01*
X181537136Y-94712622D01*
X181518765Y-94746337D01*
X181504619Y-94769139D01*
X181489225Y-94786792D01*
X181483914Y-94790889D01*
X181471320Y-94794810D01*
X181445363Y-94800067D01*
X181408467Y-94806324D01*
X181363058Y-94813247D01*
X181311558Y-94820503D01*
X181256392Y-94827758D01*
X181199984Y-94834677D01*
X181144759Y-94840926D01*
X181093140Y-94846171D01*
X181063733Y-94848795D01*
X181002622Y-94853886D01*
X180997844Y-95073930D01*
X181041026Y-95086470D01*
X181109588Y-95112449D01*
X181179595Y-95149851D01*
X181246146Y-95195546D01*
X181304341Y-95246406D01*
X181323721Y-95266973D01*
X181372372Y-95331575D01*
X181414010Y-95405898D01*
X181446621Y-95485339D01*
X181468188Y-95565294D01*
X181475076Y-95612521D01*
X181478419Y-95640949D01*
X181482273Y-95662533D01*
X181485857Y-95672992D01*
X181486171Y-95673262D01*
X181490936Y-95667233D01*
X181502124Y-95648526D01*
X181518940Y-95618606D01*
X181540590Y-95578935D01*
X181566278Y-95530975D01*
X181595211Y-95476189D01*
X181626592Y-95416040D01*
X181639789Y-95390541D01*
X181787625Y-95104247D01*
X181787625Y-94485430D01*
X181769766Y-94490952D01*
G37*
X181769766Y-94490952D02*
X181722053Y-94512662D01*
X181672884Y-94547770D01*
X181624309Y-94594189D01*
X181578376Y-94649835D01*
X181537136Y-94712622D01*
X181518765Y-94746337D01*
X181504619Y-94769139D01*
X181489225Y-94786792D01*
X181483914Y-94790889D01*
X181471320Y-94794810D01*
X181445363Y-94800067D01*
X181408467Y-94806324D01*
X181363058Y-94813247D01*
X181311558Y-94820503D01*
X181256392Y-94827758D01*
X181199984Y-94834677D01*
X181144759Y-94840926D01*
X181093140Y-94846171D01*
X181063733Y-94848795D01*
X181002622Y-94853886D01*
X180997844Y-95073930D01*
X181041026Y-95086470D01*
X181109588Y-95112449D01*
X181179595Y-95149851D01*
X181246146Y-95195546D01*
X181304341Y-95246406D01*
X181323721Y-95266973D01*
X181372372Y-95331575D01*
X181414010Y-95405898D01*
X181446621Y-95485339D01*
X181468188Y-95565294D01*
X181475076Y-95612521D01*
X181478419Y-95640949D01*
X181482273Y-95662533D01*
X181485857Y-95672992D01*
X181486171Y-95673262D01*
X181490936Y-95667233D01*
X181502124Y-95648526D01*
X181518940Y-95618606D01*
X181540590Y-95578935D01*
X181566278Y-95530975D01*
X181595211Y-95476189D01*
X181626592Y-95416040D01*
X181639789Y-95390541D01*
X181787625Y-95104247D01*
X181787625Y-94485430D01*
X181769766Y-94490952D01*
G36*
X179011227Y-89500607D02*
G01*
X178933026Y-89540378D01*
X178865431Y-89576167D01*
X178804463Y-89610252D01*
X178746138Y-89644909D01*
X178686475Y-89682415D01*
X178638612Y-89713679D01*
X178591402Y-89746211D01*
X178545490Y-89780230D01*
X178502715Y-89814140D01*
X178464915Y-89846346D01*
X178433927Y-89875252D01*
X178411588Y-89899263D01*
X178399737Y-89916782D01*
X178398312Y-89922320D01*
X178405160Y-89940091D01*
X178423275Y-89960225D01*
X178449015Y-89979638D01*
X178478735Y-89995244D01*
X178488903Y-89999068D01*
X178539977Y-90009818D01*
X178601844Y-90012277D01*
X178672054Y-90006914D01*
X178748161Y-89994197D01*
X178827715Y-89974593D01*
X178908269Y-89948570D01*
X178987374Y-89916597D01*
X179032167Y-89895237D01*
X179061913Y-89882303D01*
X179080382Y-89879605D01*
X179088389Y-89887090D01*
X179088875Y-89891631D01*
X179083063Y-89903504D01*
X179067621Y-89922139D01*
X179045542Y-89944669D01*
X179019816Y-89968226D01*
X178993436Y-89989944D01*
X178969394Y-90006956D01*
X178967010Y-90008423D01*
X178875461Y-90055076D01*
X178781093Y-90086213D01*
X178684248Y-90101747D01*
X178605827Y-90102908D01*
X178542105Y-90097351D01*
X178489080Y-90086552D01*
X178442048Y-90069122D01*
X178396305Y-90043675D01*
X178389223Y-90039053D01*
X178363896Y-90023572D01*
X178340565Y-90013362D01*
X178313378Y-90006470D01*
X178276486Y-90000943D01*
X178274191Y-90000656D01*
X178230022Y-89997106D01*
X178174504Y-89995565D01*
X178112017Y-89995898D01*
X178046940Y-89997967D01*
X177983654Y-90001638D01*
X177926539Y-90006774D01*
X177882375Y-90012818D01*
X177755524Y-90039383D01*
X177639202Y-90073407D01*
X177534656Y-90114443D01*
X177443135Y-90162045D01*
X177414343Y-90180220D01*
X177391158Y-90197349D01*
X177363864Y-90220122D01*
X177335039Y-90246045D01*
X177307261Y-90272628D01*
X177283106Y-90297378D01*
X177265151Y-90317803D01*
X177255975Y-90331410D01*
X177255312Y-90333999D01*
X177249180Y-90341496D01*
X177233345Y-90354119D01*
X177217609Y-90364925D01*
X177184671Y-90388288D01*
X177141159Y-90422396D01*
X177087684Y-90466728D01*
X177024857Y-90520765D01*
X176953288Y-90583987D01*
X176873590Y-90655872D01*
X176840232Y-90686329D01*
X176760923Y-90758771D01*
X176692671Y-90820667D01*
X176635028Y-90872413D01*
X176587549Y-90914404D01*
X176549786Y-90947035D01*
X176521292Y-90970701D01*
X176501817Y-90985658D01*
X176475688Y-91004265D01*
X176479233Y-91140023D01*
X176480849Y-91192231D01*
X176482826Y-91231691D01*
X176485536Y-91261531D01*
X176489347Y-91284877D01*
X176494630Y-91304857D01*
X176500766Y-91322072D01*
X176528117Y-91375562D01*
X176564112Y-91416043D01*
X176609996Y-91444552D01*
X176667016Y-91462127D01*
X176669633Y-91462634D01*
X176694098Y-91466651D01*
X176709734Y-91465593D01*
X176723279Y-91457502D01*
X176739510Y-91442336D01*
X176772372Y-91417636D01*
X176812938Y-91397738D01*
X176854547Y-91385475D01*
X176879290Y-91382938D01*
X176894314Y-91381533D01*
X176908374Y-91375868D01*
X176924747Y-91363762D01*
X176946711Y-91343035D01*
X176960876Y-91328696D01*
X177013968Y-91280812D01*
X177066188Y-91247533D01*
X177119594Y-91227862D01*
X177176242Y-91220801D01*
X177183496Y-91220754D01*
X177217142Y-91221925D01*
X177243911Y-91226127D01*
X177270772Y-91235035D01*
X177302937Y-91249487D01*
X177336794Y-91268124D01*
X177375520Y-91293219D01*
X177412433Y-91320340D01*
X177424130Y-91329863D01*
X177453851Y-91354247D01*
X177475954Y-91370072D01*
X177494492Y-91379538D01*
X177513516Y-91384846D01*
X177529967Y-91387351D01*
X177586029Y-91386972D01*
X177643608Y-91373279D01*
X177698053Y-91347582D01*
X177717518Y-91334525D01*
X177755866Y-91308529D01*
X177793658Y-91286976D01*
X177827348Y-91271639D01*
X177853392Y-91264295D01*
X177858562Y-91263913D01*
X177896699Y-91270302D01*
X177939463Y-91288781D01*
X177983521Y-91317705D01*
X178006382Y-91336822D01*
X178031570Y-91358900D01*
X178054246Y-91377500D01*
X178070423Y-91389388D01*
X178073223Y-91391061D01*
X178099506Y-91398462D01*
X178133474Y-91399138D01*
X178168532Y-91393301D01*
X178185729Y-91387459D01*
X178227149Y-91376424D01*
X178268116Y-91379134D01*
X178309911Y-91396023D01*
X178353811Y-91427526D01*
X178382438Y-91454375D01*
X178426060Y-91493364D01*
X178467132Y-91518593D01*
X178508143Y-91531355D01*
X178534957Y-91533576D01*
X178578214Y-91528865D01*
X178623512Y-91515967D01*
X178662973Y-91497284D01*
X178670783Y-91492147D01*
X178690095Y-91481870D01*
X178700320Y-91484097D01*
X178700989Y-91498001D01*
X178691636Y-91522756D01*
X178689984Y-91526086D01*
X178664084Y-91560710D01*
X178627478Y-91587083D01*
X178583076Y-91605114D01*
X178533788Y-91614716D01*
X178482524Y-91615798D01*
X178432195Y-91608271D01*
X178385710Y-91592046D01*
X178345979Y-91567034D01*
X178318771Y-91537477D01*
X178285669Y-91502298D01*
X178243557Y-91480053D01*
X178192182Y-91470621D01*
X178178341Y-91470250D01*
X178149486Y-91471650D01*
X178124232Y-91477024D01*
X178096269Y-91488137D01*
X178072668Y-91499777D01*
X178015268Y-91529304D01*
X177978587Y-91507552D01*
X177951365Y-91492200D01*
X177917892Y-91474402D01*
X177891197Y-91460887D01*
X177834312Y-91439856D01*
X177773807Y-91431377D01*
X177708381Y-91435559D01*
X177636737Y-91452511D01*
X177557575Y-91482342D01*
X177539551Y-91490401D01*
X177489058Y-91511570D01*
X177450607Y-91523220D01*
X177429393Y-91525813D01*
X177387646Y-91519070D01*
X177340929Y-91498665D01*
X177288771Y-91464330D01*
X177230705Y-91415796D01*
X177221338Y-91407164D01*
X177191796Y-91380461D01*
X177165539Y-91358254D01*
X177145113Y-91342591D01*
X177133063Y-91335517D01*
X177131913Y-91335313D01*
X177105359Y-91342445D01*
X177075584Y-91362524D01*
X177044781Y-91393575D01*
X177015144Y-91433621D01*
X177005717Y-91448947D01*
X176985270Y-91483837D01*
X176929254Y-91488533D01*
X176884077Y-91495049D01*
X176850715Y-91507288D01*
X176825504Y-91527438D01*
X176804784Y-91557687D01*
X176800761Y-91565330D01*
X176772960Y-91611744D01*
X176744158Y-91642837D01*
X176713570Y-91659159D01*
X176680413Y-91661263D01*
X176668127Y-91658761D01*
X176644923Y-91647160D01*
X176615811Y-91624297D01*
X176583033Y-91592539D01*
X176548829Y-91554247D01*
X176515439Y-91511786D01*
X176485104Y-91467520D01*
X176481696Y-91462071D01*
X176437048Y-91390881D01*
X176397776Y-91330614D01*
X176361768Y-91278195D01*
X176326915Y-91230547D01*
X176292602Y-91186463D01*
X176163685Y-91037193D01*
X176025824Y-90900155D01*
X175879672Y-90775763D01*
X175725883Y-90664427D01*
X175565114Y-90566561D01*
X175398016Y-90482575D01*
X175225246Y-90412881D01*
X175047457Y-90357892D01*
X174933594Y-90331073D01*
X174874505Y-90319727D01*
X174812088Y-90309347D01*
X174750167Y-90300442D01*
X174692569Y-90293523D01*
X174643120Y-90289099D01*
X174608156Y-90287672D01*
X174533464Y-90291876D01*
X174454896Y-90303903D01*
X174376030Y-90322677D01*
X174300441Y-90347122D01*
X174231708Y-90376160D01*
X174173408Y-90408717D01*
X174149766Y-90425601D01*
X174126806Y-90449638D01*
X174119710Y-90473283D01*
X174128474Y-90496597D01*
X174143250Y-90512090D01*
X174163592Y-90525163D01*
X174189125Y-90533548D01*
X174221543Y-90537214D01*
X174262537Y-90536127D01*
X174313800Y-90530258D01*
X174377025Y-90519575D01*
X174442183Y-90506528D01*
X174516292Y-90492873D01*
X174581433Y-90484818D01*
X174635691Y-90482529D01*
X174676244Y-90486001D01*
X174716434Y-90496310D01*
X174767999Y-90513919D01*
X174828794Y-90537802D01*
X174896678Y-90566934D01*
X174969507Y-90600290D01*
X175045139Y-90636843D01*
X175121432Y-90675569D01*
X175196241Y-90715441D01*
X175267425Y-90755434D01*
X175332841Y-90794523D01*
X175369506Y-90817817D01*
X175510424Y-90915660D01*
X175642979Y-91020023D01*
X175768318Y-91132178D01*
X175887589Y-91253394D01*
X176001940Y-91384941D01*
X176112518Y-91528090D01*
X176220473Y-91684111D01*
X176326951Y-91854273D01*
X176365582Y-91919999D01*
X176389612Y-91961674D01*
X176406625Y-91992049D01*
X176417556Y-92013561D01*
X176423341Y-92028649D01*
X176424918Y-92039750D01*
X176423222Y-92049303D01*
X176419218Y-92059679D01*
X176399064Y-92088076D01*
X176364804Y-92112131D01*
X176324359Y-92128808D01*
X176301291Y-92140027D01*
X176283552Y-92155142D01*
X176281670Y-92157712D01*
X176275410Y-92169072D01*
X176273575Y-92180665D01*
X176276498Y-92197054D01*
X176284509Y-92222802D01*
X176286912Y-92229953D01*
X176299319Y-92270955D01*
X176303888Y-92300852D01*
X176299870Y-92322746D01*
X176286511Y-92339737D01*
X176263062Y-92354927D01*
X176255719Y-92358714D01*
X176229735Y-92367383D01*
X176190362Y-92373796D01*
X176140094Y-92377946D01*
X176053589Y-92386927D01*
X175976486Y-92403038D01*
X175910012Y-92425793D01*
X175855395Y-92454709D01*
X175813862Y-92489298D01*
X175794511Y-92514520D01*
X175783954Y-92537019D01*
X175773761Y-92567513D01*
X175767950Y-92591062D01*
X175760732Y-92620711D01*
X175752164Y-92639674D01*
X175739538Y-92653082D01*
X175732527Y-92658187D01*
X175704902Y-92673168D01*
X175661767Y-92691164D01*
X175603193Y-92712149D01*
X175529252Y-92736098D01*
X175440014Y-92762986D01*
X175433832Y-92764792D01*
X175382948Y-92779839D01*
X175330827Y-92795611D01*
X175282084Y-92810685D01*
X175241336Y-92823643D01*
X175223312Y-92829585D01*
X175191913Y-92839823D01*
X175166330Y-92846845D01*
X175142192Y-92851233D01*
X175115127Y-92853570D01*
X175080766Y-92854437D01*
X175036781Y-92854427D01*
X174987808Y-92853286D01*
X174938963Y-92850577D01*
X174895575Y-92846677D01*
X174864141Y-92842190D01*
X174835395Y-92836793D01*
X174813829Y-92832873D01*
X174803157Y-92831100D01*
X174802625Y-92831075D01*
X174804981Y-92838302D01*
X174811289Y-92857165D01*
X174820410Y-92884263D01*
X174825407Y-92899062D01*
X174836839Y-92936387D01*
X174846633Y-92974644D01*
X174853011Y-93006734D01*
X174853791Y-93012364D01*
X174858892Y-93041884D01*
X174865941Y-93068150D01*
X174870648Y-93079833D01*
X174880350Y-93111932D01*
X174876275Y-93146097D01*
X174858067Y-93183868D01*
X174841190Y-93207649D01*
X174828159Y-93235507D01*
X174830493Y-93266259D01*
X174846281Y-93297580D01*
X174858388Y-93317050D01*
X174865413Y-93331547D01*
X174866125Y-93334691D01*
X174859045Y-93347136D01*
X174841139Y-93358312D01*
X174817407Y-93365713D01*
X174801019Y-93367313D01*
X174783682Y-93368469D01*
X174771480Y-93374153D01*
X174760128Y-93387689D01*
X174747298Y-93408984D01*
X174727688Y-93454704D01*
X174722550Y-93499269D01*
X174732138Y-93543775D01*
X174756708Y-93589315D01*
X174796514Y-93636983D01*
X174801738Y-93642306D01*
X174831507Y-93676001D01*
X174847035Y-93704232D01*
X174848174Y-93728836D01*
X174834776Y-93751654D01*
X174806695Y-93774524D01*
X174790353Y-93784665D01*
X174769277Y-93798194D01*
X174758795Y-93810008D01*
X174755280Y-93825442D01*
X174755000Y-93836634D01*
X174762248Y-93881672D01*
X174782100Y-93925819D01*
X174811722Y-93964492D01*
X174848278Y-93993108D01*
X174853575Y-93995944D01*
X174901005Y-94023341D01*
X174951373Y-94058099D01*
X174999187Y-94096084D01*
X175038952Y-94133167D01*
X175045948Y-94140653D01*
X175089174Y-94197571D01*
X175127176Y-94265395D01*
X175158159Y-94339569D01*
X175180328Y-94415537D01*
X175191887Y-94488741D01*
X175193117Y-94514281D01*
X175192153Y-94549120D01*
X175187020Y-94578394D01*
X175176028Y-94610041D01*
X175169428Y-94625561D01*
X175148732Y-94681230D01*
X175139265Y-94730288D01*
X175140507Y-94776799D01*
X175146392Y-94806003D01*
X175168716Y-94866681D01*
X175201236Y-94915476D01*
X175244688Y-94953254D01*
X175292747Y-94978150D01*
X175322901Y-94984275D01*
X175363478Y-94983907D01*
X175410540Y-94977326D01*
X175453500Y-94966818D01*
X175511531Y-94957564D01*
X175568588Y-94963837D01*
X175623780Y-94985288D01*
X175676212Y-95021572D01*
X175724993Y-95072339D01*
X175725275Y-95072689D01*
X175744782Y-95099236D01*
X175753171Y-95118575D01*
X175750915Y-95134343D01*
X175738488Y-95150179D01*
X175735721Y-95152837D01*
X175715531Y-95165335D01*
X175693768Y-95164932D01*
X175668667Y-95151125D01*
X175640812Y-95125848D01*
X175604822Y-95095774D01*
X175566316Y-95075512D01*
X175528345Y-95065926D01*
X175493960Y-95067882D01*
X175471749Y-95077868D01*
X175452494Y-95100611D01*
X175441757Y-95134175D01*
X175439285Y-95176147D01*
X175444825Y-95224117D01*
X175458124Y-95275672D01*
X175478929Y-95328401D01*
X175502710Y-95372977D01*
X175528292Y-95415188D01*
X175573665Y-95415188D01*
X175670662Y-95422083D01*
X175761380Y-95442447D01*
X175844727Y-95475794D01*
X175919610Y-95521640D01*
X175984937Y-95579499D01*
X176010883Y-95609274D01*
X176048830Y-95656516D01*
X176118275Y-95654612D01*
X176191178Y-95657188D01*
X176263364Y-95668156D01*
X176329368Y-95686499D01*
X176362344Y-95699967D01*
X176390858Y-95716450D01*
X176424233Y-95740404D01*
X176458930Y-95768745D01*
X176491408Y-95798390D01*
X176518129Y-95826255D01*
X176535553Y-95849256D01*
X176537315Y-95852420D01*
X176545586Y-95876766D01*
X176548875Y-95902334D01*
X176549836Y-95915801D01*
X176554311Y-95925940D01*
X176564688Y-95933972D01*
X176583355Y-95941113D01*
X176612700Y-95948583D01*
X176655110Y-95957600D01*
X176658554Y-95958305D01*
X176692045Y-95966765D01*
X176723568Y-95977432D01*
X176745866Y-95987769D01*
X176820584Y-96041019D01*
X176893489Y-96109568D01*
X176964226Y-96192903D01*
X177032443Y-96290517D01*
X177097784Y-96401898D01*
X177159895Y-96526537D01*
X177218422Y-96663923D01*
X177222358Y-96673957D01*
X177245412Y-96734811D01*
X177262490Y-96785083D01*
X177274345Y-96828566D01*
X177281731Y-96869054D01*
X177285403Y-96910343D01*
X177286114Y-96956226D01*
X177285331Y-96990781D01*
X177283169Y-97039395D01*
X177279877Y-97076545D01*
X177274821Y-97106636D01*
X177267368Y-97134071D01*
X177262825Y-97147390D01*
X177255969Y-97165734D01*
X177250491Y-97181104D01*
X177247587Y-97193768D01*
X177248453Y-97203991D01*
X177254286Y-97212039D01*
X177266282Y-97218180D01*
X177285637Y-97222679D01*
X177313548Y-97225804D01*
X177351211Y-97227819D01*
X177399823Y-97228992D01*
X177460580Y-97229588D01*
X177534678Y-97229875D01*
X177623313Y-97230119D01*
X177634604Y-97230156D01*
X177709395Y-97230332D01*
X177779587Y-97230338D01*
X177843529Y-97230185D01*
X177899567Y-97229886D01*
X177946048Y-97229452D01*
X177981319Y-97228893D01*
X178003728Y-97228221D01*
X178011354Y-97227591D01*
X178026783Y-97215804D01*
X178032778Y-97191992D01*
X178029395Y-97156854D01*
X178016694Y-97111090D01*
X177997843Y-97062561D01*
X177976942Y-97007926D01*
X177965769Y-96962961D01*
X177963904Y-96925132D01*
X177969931Y-96894794D01*
X177985163Y-96865431D01*
X178011368Y-96832158D01*
X178045362Y-96798250D01*
X178083961Y-96766983D01*
X178112441Y-96748167D01*
X178144929Y-96724752D01*
X178184578Y-96689380D01*
X178230100Y-96643535D01*
X178280209Y-96588701D01*
X178333616Y-96526360D01*
X178389036Y-96457997D01*
X178445179Y-96385096D01*
X178500760Y-96309139D01*
X178531983Y-96264630D01*
X178559984Y-96225021D01*
X178594714Y-96177363D01*
X178632960Y-96125981D01*
X178671509Y-96075201D01*
X178700020Y-96038411D01*
X178732549Y-95996346D01*
X178763568Y-95955196D01*
X178790999Y-95917800D01*
X178812762Y-95886995D01*
X178826777Y-95865617D01*
X178827193Y-95864921D01*
X178884761Y-95782230D01*
X178952527Y-95710140D01*
X178967702Y-95698236D01*
X178245878Y-95698236D01*
X178245067Y-95703768D01*
X178238675Y-95712988D01*
X178227464Y-95715633D01*
X178209159Y-95711223D01*
X178181488Y-95699277D01*
X178150848Y-95683850D01*
X178107558Y-95657758D01*
X178063120Y-95624804D01*
X178020914Y-95588055D01*
X177984317Y-95550581D01*
X177956708Y-95515450D01*
X177946655Y-95498391D01*
X177928746Y-95452708D01*
X177924214Y-95412383D01*
X177932915Y-95374454D01*
X177939890Y-95359625D01*
X177966392Y-95322879D01*
X177999066Y-95298637D01*
X178035729Y-95288420D01*
X178042276Y-95288188D01*
X178065342Y-95291145D01*
X178086417Y-95301974D01*
X178104602Y-95316892D01*
X178126654Y-95340358D01*
X178134960Y-95360644D01*
X178129393Y-95380867D01*
X178109824Y-95404140D01*
X178100656Y-95412676D01*
X178079455Y-95433583D01*
X178068544Y-95450408D01*
X178065035Y-95467922D01*
X178064967Y-95471652D01*
X178070922Y-95503276D01*
X178089467Y-95535924D01*
X178121726Y-95571472D01*
X178128776Y-95578050D01*
X178169818Y-95615755D01*
X178200401Y-95644392D01*
X178221911Y-95665459D01*
X178235736Y-95680456D01*
X178243263Y-95690882D01*
X178245878Y-95698236D01*
X178967702Y-95698236D01*
X179028841Y-95650279D01*
X179069031Y-95625808D01*
X179090770Y-95614026D01*
X179105957Y-95606324D01*
X179110601Y-95604499D01*
X179118302Y-95602082D01*
X179135793Y-95595132D01*
X179147595Y-95590160D01*
X179179748Y-95578930D01*
X179223115Y-95567334D01*
X179273095Y-95556347D01*
X179325083Y-95546948D01*
X179374476Y-95540112D01*
X179391459Y-95538404D01*
X179421661Y-95535283D01*
X179443138Y-95530759D01*
X179461306Y-95522495D01*
X179481583Y-95508156D01*
X179503967Y-95489910D01*
X179548179Y-95449217D01*
X179583051Y-95408839D01*
X179606953Y-95370958D01*
X179618252Y-95337755D01*
X179618383Y-95336825D01*
X179618936Y-95308609D01*
X179610888Y-95287266D01*
X179592582Y-95271576D01*
X179562359Y-95260320D01*
X179518560Y-95252280D01*
X179500353Y-95250070D01*
X179471630Y-95245941D01*
X179455405Y-95240673D01*
X179448302Y-95232976D01*
X179447417Y-95229856D01*
X179451315Y-95212547D01*
X179466313Y-95193142D01*
X179488670Y-95175176D01*
X179514642Y-95162190D01*
X179521091Y-95160182D01*
X179555407Y-95155535D01*
X179601092Y-95156263D01*
X179654688Y-95162071D01*
X179712736Y-95172664D01*
X179738523Y-95178696D01*
X179804765Y-95195267D01*
X179824052Y-95172274D01*
X179858293Y-95127474D01*
X179891517Y-95076832D01*
X179921437Y-95024437D01*
X179945765Y-94974373D01*
X179962214Y-94930729D01*
X179965065Y-94920344D01*
X179971712Y-94900272D01*
X179982669Y-94873549D01*
X179990210Y-94857150D01*
X180009810Y-94816520D01*
X179982885Y-94772557D01*
X179951124Y-94716660D01*
X179922370Y-94656951D01*
X179895643Y-94590863D01*
X179869964Y-94515831D01*
X179844354Y-94429288D01*
X179826714Y-94363469D01*
X179816232Y-94323843D01*
X179807242Y-94291433D01*
X179800404Y-94268494D01*
X179796380Y-94257283D01*
X179795588Y-94257230D01*
X179790752Y-94276632D01*
X179778273Y-94304805D01*
X179760300Y-94338029D01*
X179738986Y-94372583D01*
X179716484Y-94404747D01*
X179695618Y-94430076D01*
X179652890Y-94476227D01*
X179660555Y-94523035D01*
X179666339Y-94574456D01*
X179667901Y-94628221D01*
X179665349Y-94678899D01*
X179658792Y-94721059D01*
X179656383Y-94730165D01*
X179644779Y-94756363D01*
X179625808Y-94785861D01*
X179602286Y-94815525D01*
X179577035Y-94842221D01*
X179552871Y-94862815D01*
X179532615Y-94874173D01*
X179525719Y-94875438D01*
X179509933Y-94871439D01*
X179485648Y-94860862D01*
X179457639Y-94845836D01*
X179452551Y-94842812D01*
X179413952Y-94823021D01*
X179384366Y-94815425D01*
X179364262Y-94819835D01*
X179354105Y-94836060D01*
X179354363Y-94863912D01*
X179358257Y-94881118D01*
X179366747Y-94929760D01*
X179362722Y-94973468D01*
X179345342Y-95015211D01*
X179313766Y-95057956D01*
X179305647Y-95066915D01*
X179282085Y-95090062D01*
X179250603Y-95118033D01*
X179214677Y-95148044D01*
X179177781Y-95177311D01*
X179143392Y-95203050D01*
X179114986Y-95222476D01*
X179101899Y-95230131D01*
X179047751Y-95253128D01*
X178992449Y-95267641D01*
X178939378Y-95273307D01*
X178891923Y-95269766D01*
X178853499Y-95256670D01*
X178826034Y-95240314D01*
X178798607Y-95222101D01*
X178795187Y-95219642D01*
X178775797Y-95208090D01*
X178754989Y-95201950D01*
X178730827Y-95201667D01*
X178701375Y-95207683D01*
X178664696Y-95220444D01*
X178618856Y-95240391D01*
X178561917Y-95267970D01*
X178543193Y-95277387D01*
X178493112Y-95302434D01*
X178454417Y-95320939D01*
X178424534Y-95333920D01*
X178400890Y-95342394D01*
X178380910Y-95347378D01*
X178362020Y-95349889D01*
X178359134Y-95350114D01*
X178312075Y-95353518D01*
X178237381Y-95282360D01*
X178190717Y-95240082D01*
X178150259Y-95208970D01*
X178112855Y-95187369D01*
X178075349Y-95173621D01*
X178034588Y-95166072D01*
X178012132Y-95164113D01*
X177971985Y-95161273D01*
X177943851Y-95157961D01*
X177923879Y-95153069D01*
X177908217Y-95145488D01*
X177893016Y-95134110D01*
X177885548Y-95127674D01*
X177852249Y-95092758D01*
X177326612Y-95092758D01*
X177326246Y-95116603D01*
X177323394Y-95133266D01*
X177315681Y-95147534D01*
X177300733Y-95164190D01*
X177282226Y-95182204D01*
X177237701Y-95224985D01*
X177244522Y-95322070D01*
X177247481Y-95374582D01*
X177249547Y-95433134D01*
X177250741Y-95494972D01*
X177251085Y-95557339D01*
X177250598Y-95617477D01*
X177249304Y-95672632D01*
X177247222Y-95720047D01*
X177244375Y-95756965D01*
X177240998Y-95779725D01*
X177228920Y-95819814D01*
X177213955Y-95850271D01*
X177197429Y-95869016D01*
X177180976Y-95874010D01*
X177174817Y-95872625D01*
X177170423Y-95868990D01*
X177167558Y-95860845D01*
X177165989Y-95845927D01*
X177165481Y-95821975D01*
X177165799Y-95786726D01*
X177166709Y-95737918D01*
X177166734Y-95736656D01*
X177167174Y-95676636D01*
X177166086Y-95622893D01*
X177163585Y-95578653D01*
X177159954Y-95548076D01*
X177145565Y-95488221D01*
X177123787Y-95424166D01*
X177097422Y-95363495D01*
X177079238Y-95329608D01*
X177053934Y-95293307D01*
X177019730Y-95252922D01*
X176981027Y-95213035D01*
X176942228Y-95178227D01*
X176912522Y-95156096D01*
X176900903Y-95149030D01*
X176888684Y-95143138D01*
X176874260Y-95138255D01*
X176856025Y-95134217D01*
X176832371Y-95130859D01*
X176801694Y-95128015D01*
X176762387Y-95125522D01*
X176712842Y-95123213D01*
X176651455Y-95120926D01*
X176576619Y-95118493D01*
X176533000Y-95117152D01*
X176454981Y-95114167D01*
X176390386Y-95110077D01*
X176336772Y-95104366D01*
X176291700Y-95096518D01*
X176252729Y-95086016D01*
X176217417Y-95072346D01*
X176183323Y-95054992D01*
X176153463Y-95036949D01*
X176116954Y-95010314D01*
X176074303Y-94973777D01*
X176028624Y-94930330D01*
X175983035Y-94882965D01*
X175940653Y-94834674D01*
X175932727Y-94825035D01*
X175882125Y-94762726D01*
X175882125Y-94694991D01*
X175881521Y-94659820D01*
X175878711Y-94634077D01*
X175872202Y-94611330D01*
X175860499Y-94585146D01*
X175853262Y-94570769D01*
X175820747Y-94499983D01*
X175797740Y-94434195D01*
X175784355Y-94374654D01*
X175780705Y-94322608D01*
X175786904Y-94279307D01*
X175803065Y-94246000D01*
X175822191Y-94228065D01*
X175849504Y-94218763D01*
X175885345Y-94218930D01*
X175926236Y-94227653D01*
X175968696Y-94244017D01*
X176009246Y-94267108D01*
X176029822Y-94282635D01*
X176058120Y-94298398D01*
X176100694Y-94309871D01*
X176108864Y-94311326D01*
X176173159Y-94329171D01*
X176228116Y-94359278D01*
X176272806Y-94401125D01*
X176275836Y-94404872D01*
X176303684Y-94439777D01*
X176324607Y-94464184D01*
X176341625Y-94479970D01*
X176357754Y-94489012D01*
X176376013Y-94493189D01*
X176399419Y-94494378D01*
X176419780Y-94494438D01*
X176473097Y-94497915D01*
X176514466Y-94508971D01*
X176546354Y-94528538D01*
X176565771Y-94549684D01*
X176583048Y-94573051D01*
X176766383Y-94571585D01*
X176825455Y-94571190D01*
X176871051Y-94571186D01*
X176905569Y-94571747D01*
X176931408Y-94573049D01*
X176950965Y-94575264D01*
X176966638Y-94578569D01*
X176980825Y-94583136D01*
X176993375Y-94588087D01*
X177038591Y-94610830D01*
X177071259Y-94637887D01*
X177094666Y-94672434D01*
X177104755Y-94695702D01*
X177118391Y-94726334D01*
X177134675Y-94747916D01*
X177158576Y-94767065D01*
X177215874Y-94811307D01*
X177257869Y-94855043D01*
X177282960Y-94894297D01*
X177301415Y-94941767D01*
X177315817Y-94997867D01*
X177324617Y-95055549D01*
X177326612Y-95092758D01*
X177852249Y-95092758D01*
X177851592Y-95092070D01*
X177827975Y-95055066D01*
X177815543Y-95019057D01*
X177815139Y-94986438D01*
X177826688Y-94960743D01*
X177844361Y-94944685D01*
X177865265Y-94939946D01*
X177892631Y-94946329D01*
X177913490Y-94955411D01*
X177946904Y-94966684D01*
X177984447Y-94971700D01*
X178022350Y-94970878D01*
X178056844Y-94964636D01*
X178084162Y-94953391D01*
X178100533Y-94937560D01*
X178101921Y-94934536D01*
X178103687Y-94910652D01*
X178091281Y-94890042D01*
X178068065Y-94876214D01*
X178047475Y-94865207D01*
X178021779Y-94846589D01*
X177997101Y-94824911D01*
X177965937Y-94788450D01*
X177945251Y-94748504D01*
X177933715Y-94701444D01*
X177930004Y-94643642D01*
X177930000Y-94641248D01*
X177930000Y-94584564D01*
X177894690Y-94566929D01*
X177852084Y-94537792D01*
X177821983Y-94499593D01*
X177810589Y-94473538D01*
X177807166Y-94454869D01*
X177481266Y-94454869D01*
X177480980Y-94479297D01*
X177466473Y-94497042D01*
X177438063Y-94507794D01*
X177424971Y-94509838D01*
X177401425Y-94513529D01*
X177389469Y-94519234D01*
X177384826Y-94529500D01*
X177384191Y-94534125D01*
X177379300Y-94574743D01*
X177374027Y-94603271D01*
X177367323Y-94623480D01*
X177358143Y-94639141D01*
X177353345Y-94645212D01*
X177334186Y-94662797D01*
X177315374Y-94667394D01*
X177294415Y-94658661D01*
X177268813Y-94636255D01*
X177265858Y-94633204D01*
X177241736Y-94603924D01*
X177231642Y-94579517D01*
X177235502Y-94557571D01*
X177253240Y-94535673D01*
X177262580Y-94527680D01*
X177292072Y-94496218D01*
X177306142Y-94461817D01*
X177304643Y-94424879D01*
X177302406Y-94417047D01*
X177286544Y-94381975D01*
X177260935Y-94341337D01*
X177228345Y-94299335D01*
X177214891Y-94284094D01*
X177196930Y-94258810D01*
X177177414Y-94221980D01*
X177157985Y-94177611D01*
X177140284Y-94129706D01*
X177125951Y-94082272D01*
X177118098Y-94047819D01*
X177113811Y-94020400D01*
X177113889Y-94003696D01*
X177118601Y-93993085D01*
X177121442Y-93989906D01*
X177131849Y-93982402D01*
X177140958Y-93987328D01*
X177145213Y-93992144D01*
X177155437Y-94007927D01*
X177167412Y-94031292D01*
X177172181Y-94042000D01*
X177209559Y-94116566D01*
X177259484Y-94194431D01*
X177319881Y-94272712D01*
X177388675Y-94348528D01*
X177403493Y-94363372D01*
X177431561Y-94392154D01*
X177455430Y-94418739D01*
X177472717Y-94440322D01*
X177481036Y-94454097D01*
X177481266Y-94454869D01*
X177807166Y-94454869D01*
X177804910Y-94442571D01*
X177804854Y-94405470D01*
X177809607Y-94366290D01*
X177818356Y-94329084D01*
X177830286Y-94297907D01*
X177844584Y-94276812D01*
X177851058Y-94271956D01*
X177869434Y-94265492D01*
X177890455Y-94266169D01*
X177918185Y-94274534D01*
X177941145Y-94284094D01*
X177969911Y-94294942D01*
X177997139Y-94302150D01*
X178011879Y-94303938D01*
X178026207Y-94302604D01*
X178037448Y-94296597D01*
X178048900Y-94282904D01*
X178063861Y-94258513D01*
X178066355Y-94254192D01*
X178098233Y-94203124D01*
X178135253Y-94150991D01*
X178175359Y-94100116D01*
X178216493Y-94052819D01*
X178256597Y-94011423D01*
X178293614Y-93978248D01*
X178308527Y-93967659D01*
X175563617Y-93967659D01*
X175553164Y-93985895D01*
X175551489Y-93987797D01*
X175536983Y-93999338D01*
X175520980Y-94001514D01*
X175501450Y-93993499D01*
X175476364Y-93974468D01*
X175444274Y-93944175D01*
X175383999Y-93892080D01*
X175321913Y-93853721D01*
X175259403Y-93829832D01*
X175213502Y-93821886D01*
X175183626Y-93820367D01*
X175162821Y-93822578D01*
X175144463Y-93829852D01*
X175129221Y-93838863D01*
X175095958Y-93857437D01*
X175070830Y-93864860D01*
X175050819Y-93861278D01*
X175032909Y-93846841D01*
X175030191Y-93843716D01*
X175016865Y-93825096D01*
X175014190Y-93811527D01*
X175017073Y-93803623D01*
X175035750Y-93781367D01*
X175064956Y-93760511D01*
X175099470Y-93744474D01*
X175114002Y-93740072D01*
X175157876Y-93736163D01*
X175210495Y-93743560D01*
X175270193Y-93761586D01*
X175335305Y-93789564D01*
X175404165Y-93826815D01*
X175475107Y-93872664D01*
X175518984Y-93904787D01*
X175547350Y-93929208D01*
X175561953Y-93949464D01*
X175563617Y-93967659D01*
X178308527Y-93967659D01*
X178325487Y-93955617D01*
X178335638Y-93950346D01*
X178355574Y-93942009D01*
X178367751Y-93940920D01*
X178378854Y-93947736D01*
X178387263Y-93955409D01*
X178403750Y-93972916D01*
X178415445Y-93988900D01*
X178415713Y-93989389D01*
X178417568Y-94006536D01*
X178406674Y-94021768D01*
X178386135Y-94032351D01*
X178363162Y-94035650D01*
X178350272Y-94036413D01*
X178339171Y-94040107D01*
X178327432Y-94048838D01*
X178312628Y-94064711D01*
X178292331Y-94089834D01*
X178275072Y-94112084D01*
X178230462Y-94173586D01*
X178198176Y-94226611D01*
X178177743Y-94272082D01*
X178168693Y-94310923D01*
X178168125Y-94322246D01*
X178169249Y-94344609D01*
X178174976Y-94359150D01*
X178188837Y-94372025D01*
X178201859Y-94381064D01*
X178227237Y-94401869D01*
X178237387Y-94421356D01*
X178232576Y-94441663D01*
X178213069Y-94464925D01*
X178212406Y-94465553D01*
X178182680Y-94500059D01*
X178161895Y-94537483D01*
X178150186Y-94575306D01*
X178147691Y-94611008D01*
X178154546Y-94642070D01*
X178170887Y-94665973D01*
X178196853Y-94680196D01*
X178200698Y-94681150D01*
X178226250Y-94683821D01*
X178250778Y-94679055D01*
X178277158Y-94665485D01*
X178308263Y-94641745D01*
X178335996Y-94616842D01*
X178416192Y-94549314D01*
X178497703Y-94496146D01*
X178581971Y-94456959D01*
X178670442Y-94431373D01*
X178764559Y-94419008D01*
X178865766Y-94419484D01*
X178975507Y-94432424D01*
X179012339Y-94439071D01*
X179090202Y-94450242D01*
X179172922Y-94455069D01*
X179257457Y-94453870D01*
X179340763Y-94446965D01*
X179419800Y-94434672D01*
X179491524Y-94417310D01*
X179552893Y-94395198D01*
X179584666Y-94379091D01*
X179620214Y-94353706D01*
X179652752Y-94322376D01*
X179677779Y-94289801D01*
X179687078Y-94272188D01*
X179700730Y-94250410D01*
X179721499Y-94228159D01*
X179730684Y-94220594D01*
X179743510Y-94209821D01*
X179754304Y-94197076D01*
X179763847Y-94180237D01*
X179772921Y-94157184D01*
X179782307Y-94125796D01*
X179792785Y-94083952D01*
X179805139Y-94029531D01*
X179811096Y-94002313D01*
X179830732Y-93920808D01*
X179851749Y-93852635D01*
X179859703Y-93833309D01*
X177360946Y-93833309D01*
X177359272Y-93882241D01*
X177345456Y-93924551D01*
X177339598Y-93934520D01*
X177324455Y-93951066D01*
X177309096Y-93952411D01*
X177291086Y-93938667D01*
X177289375Y-93936828D01*
X177269575Y-93910257D01*
X177253801Y-93877025D01*
X177240810Y-93833928D01*
X177230746Y-93785578D01*
X177219289Y-93731119D01*
X177205193Y-93685104D01*
X177186588Y-93644548D01*
X177176753Y-93629556D01*
X176779879Y-93629556D01*
X176776500Y-93657059D01*
X176759622Y-93681162D01*
X176744843Y-93692307D01*
X176728670Y-93694997D01*
X176707728Y-93688738D01*
X176678640Y-93673033D01*
X176670565Y-93668109D01*
X176642492Y-93646256D01*
X176615517Y-93617500D01*
X176602085Y-93599113D01*
X175445562Y-93599113D01*
X175438456Y-93615190D01*
X175419121Y-93626407D01*
X175390535Y-93632467D01*
X175355672Y-93633074D01*
X175317510Y-93627931D01*
X175279026Y-93616743D01*
X175276873Y-93615912D01*
X175218001Y-93584569D01*
X175165389Y-93539788D01*
X175120957Y-93483401D01*
X175100411Y-93447531D01*
X175089331Y-93414721D01*
X175087985Y-93382772D01*
X175096356Y-93356782D01*
X175100718Y-93350955D01*
X175117683Y-93337847D01*
X175134242Y-93338132D01*
X175152086Y-93352450D01*
X175170238Y-93377234D01*
X175216567Y-93437651D01*
X175270688Y-93488182D01*
X175329959Y-93526667D01*
X175377260Y-93546670D01*
X175414463Y-93561636D01*
X175436832Y-93577810D01*
X175445402Y-93595986D01*
X175445562Y-93599113D01*
X176602085Y-93599113D01*
X176592166Y-93585536D01*
X176574965Y-93554058D01*
X176566440Y-93526761D01*
X176566262Y-93515531D01*
X176574852Y-93501672D01*
X176593578Y-93496356D01*
X176619735Y-93498794D01*
X176650620Y-93508197D01*
X176683526Y-93523775D01*
X176715750Y-93544738D01*
X176740890Y-93566509D01*
X176768044Y-93599588D01*
X176779879Y-93629556D01*
X177176753Y-93629556D01*
X177161603Y-93606465D01*
X177128368Y-93567869D01*
X177085012Y-93525774D01*
X177046723Y-93491835D01*
X177016573Y-93464054D01*
X176999251Y-93443568D01*
X176994123Y-93429260D01*
X177000554Y-93420010D01*
X177004863Y-93417969D01*
X177019328Y-93419268D01*
X177043255Y-93428771D01*
X177073662Y-93444830D01*
X177107565Y-93465792D01*
X177141982Y-93490007D01*
X177158958Y-93503230D01*
X177214028Y-93553427D01*
X177261559Y-93607993D01*
X177300783Y-93665096D01*
X177330934Y-93722904D01*
X177351244Y-93779586D01*
X177360946Y-93833309D01*
X179859703Y-93833309D01*
X179875367Y-93795253D01*
X179902805Y-93746119D01*
X179935283Y-93702692D01*
X179974020Y-93662429D01*
X179974293Y-93662173D01*
X180003156Y-93636086D01*
X180026026Y-93618449D01*
X180047910Y-93606265D01*
X180073815Y-93596537D01*
X180094219Y-93590388D01*
X180153374Y-93570152D01*
X180197370Y-93547281D01*
X180226847Y-93520696D01*
X180242445Y-93489322D01*
X180244802Y-93452081D01*
X180234558Y-93407897D01*
X180227468Y-93390031D01*
X179801701Y-93390031D01*
X179793569Y-93410615D01*
X179774325Y-93422668D01*
X179742998Y-93426516D01*
X179702796Y-93423106D01*
X179666345Y-93419104D01*
X179623441Y-93416221D01*
X179584227Y-93415095D01*
X179519985Y-93414938D01*
X179487179Y-93453844D01*
X179465151Y-93476757D01*
X179437919Y-93500475D01*
X179408809Y-93522630D01*
X179381146Y-93540857D01*
X179358259Y-93552789D01*
X179343481Y-93556064D01*
X179332644Y-93547240D01*
X179328395Y-93535621D01*
X179331743Y-93513835D01*
X179345188Y-93485118D01*
X179366427Y-93452454D01*
X179393156Y-93418824D01*
X179423074Y-93387210D01*
X179453875Y-93360593D01*
X179474241Y-93346816D01*
X179537699Y-93318599D01*
X179605555Y-93305422D01*
X179676746Y-93307420D01*
X179720223Y-93315856D01*
X179759983Y-93330425D01*
X179787228Y-93350168D01*
X179800735Y-93373969D01*
X179801701Y-93390031D01*
X180227468Y-93390031D01*
X180221753Y-93375634D01*
X180211274Y-93344967D01*
X180208891Y-93315680D01*
X180215472Y-93286207D01*
X180231890Y-93254984D01*
X180259014Y-93220446D01*
X180297715Y-93181028D01*
X180348863Y-93135164D01*
X180361529Y-93124345D01*
X180384387Y-93098752D01*
X180391732Y-93073207D01*
X180383546Y-93046655D01*
X180359812Y-93018043D01*
X180359768Y-93018001D01*
X180323261Y-92992009D01*
X180278353Y-92976427D01*
X180222819Y-92970531D01*
X180213728Y-92970437D01*
X180160744Y-92964138D01*
X180104413Y-92946474D01*
X180050180Y-92919303D01*
X180035148Y-92909586D01*
X180016885Y-92894687D01*
X179990674Y-92870097D01*
X179958879Y-92838197D01*
X179923864Y-92801365D01*
X179887992Y-92761982D01*
X179883527Y-92756954D01*
X179829682Y-92696637D01*
X179783582Y-92646570D01*
X179742818Y-92604801D01*
X179704978Y-92569381D01*
X179667650Y-92538358D01*
X179628423Y-92509783D01*
X179584886Y-92481706D01*
X179534627Y-92452175D01*
X179475236Y-92419240D01*
X179447261Y-92404070D01*
X179378581Y-92364989D01*
X179323148Y-92328810D01*
X179278956Y-92294036D01*
X179244001Y-92259171D01*
X179229739Y-92241735D01*
X179190584Y-92180143D01*
X179166953Y-92117823D01*
X179158506Y-92053453D01*
X179164514Y-91987722D01*
X179177050Y-91935130D01*
X179194081Y-91891472D01*
X179218344Y-91851582D01*
X179252574Y-91810294D01*
X179266103Y-91795920D01*
X179292824Y-91767827D01*
X179315369Y-91743045D01*
X179335517Y-91719154D01*
X179355046Y-91693734D01*
X179375734Y-91664364D01*
X179399358Y-91628624D01*
X179427698Y-91584095D01*
X179461644Y-91529781D01*
X179505776Y-91459724D01*
X179544054Y-91401105D01*
X179578296Y-91351464D01*
X179610320Y-91308341D01*
X179641946Y-91269278D01*
X179674992Y-91231814D01*
X179707369Y-91197518D01*
X179771346Y-91135219D01*
X179837593Y-91078678D01*
X179907873Y-91026916D01*
X179983953Y-90978957D01*
X180067596Y-90933822D01*
X180160569Y-90890534D01*
X180264635Y-90848114D01*
X180381560Y-90805584D01*
X180466031Y-90777177D01*
X180514850Y-90761487D01*
X180562386Y-90746893D01*
X180611251Y-90732685D01*
X180664054Y-90718152D01*
X180723406Y-90702584D01*
X180791919Y-90685269D01*
X180872202Y-90665496D01*
X180910531Y-90656174D01*
X181061491Y-90613283D01*
X181203011Y-90559714D01*
X181338573Y-90494017D01*
X181438240Y-90436029D01*
X181470407Y-90416455D01*
X181497638Y-90400783D01*
X181517188Y-90390528D01*
X181526310Y-90387209D01*
X181526491Y-90387278D01*
X181530312Y-90396279D01*
X181534595Y-90415923D01*
X181536925Y-90431045D01*
X181545908Y-90476647D01*
X181561273Y-90530993D01*
X181581397Y-90589122D01*
X181604656Y-90646069D01*
X181613854Y-90666105D01*
X181630781Y-90704460D01*
X181640508Y-90735995D01*
X181643630Y-90766250D01*
X181640743Y-90800768D01*
X181632876Y-90843032D01*
X181617593Y-90900807D01*
X181597230Y-90948109D01*
X181569162Y-90990149D01*
X181544638Y-91018072D01*
X181518474Y-91048430D01*
X181504850Y-91073785D01*
X181503224Y-91098133D01*
X181513058Y-91125467D01*
X181526911Y-91149212D01*
X181545692Y-91185505D01*
X181550988Y-91215328D01*
X181542933Y-91240364D01*
X181534948Y-91250561D01*
X181524432Y-91265677D01*
X181519122Y-91285683D01*
X181517583Y-91315980D01*
X181513183Y-91362742D01*
X181499721Y-91411704D01*
X181476304Y-91465047D01*
X181442041Y-91524955D01*
X181415713Y-91565241D01*
X181368812Y-91637454D01*
X181332156Y-91701958D01*
X181304637Y-91762141D01*
X181285147Y-91821387D01*
X181272574Y-91883083D01*
X181265812Y-91950615D01*
X181263751Y-92027368D01*
X181263750Y-92029228D01*
X181263750Y-92102869D01*
X181218109Y-92142583D01*
X181145668Y-92209276D01*
X181074572Y-92281510D01*
X181010845Y-92353136D01*
X181004689Y-92360537D01*
X180978417Y-92392752D01*
X180955487Y-92422071D01*
X180934722Y-92450462D01*
X180914949Y-92479894D01*
X180894992Y-92512334D01*
X180873676Y-92549751D01*
X180849827Y-92594112D01*
X180822269Y-92647385D01*
X180789828Y-92711539D01*
X180762321Y-92766505D01*
X180718125Y-92854115D01*
X180678898Y-92929694D01*
X180643227Y-92995747D01*
X180609701Y-93054778D01*
X180576906Y-93109293D01*
X180543431Y-93161795D01*
X180517526Y-93200625D01*
X180497651Y-93230815D01*
X180481033Y-93257717D01*
X180469892Y-93277650D01*
X180466667Y-93285027D01*
X180465317Y-93310890D01*
X180472815Y-93348557D01*
X180488846Y-93396870D01*
X180513070Y-93454625D01*
X180538035Y-93512908D01*
X180554426Y-93560409D01*
X180562404Y-93599602D01*
X180562131Y-93632962D01*
X180553769Y-93662960D01*
X180537479Y-93692071D01*
X180529338Y-93703291D01*
X180514088Y-93725627D01*
X180503993Y-93744933D01*
X180501576Y-93753789D01*
X180496671Y-93775898D01*
X180482219Y-93808811D01*
X180457996Y-93852971D01*
X180423780Y-93908822D01*
X180422689Y-93910538D01*
X180401623Y-93944900D01*
X180382822Y-93977853D01*
X180368635Y-94005149D01*
X180362279Y-94019788D01*
X180351626Y-94068701D01*
X180356054Y-94112721D01*
X180375666Y-94152184D01*
X180410566Y-94187425D01*
X180414666Y-94190554D01*
X180434821Y-94207090D01*
X180448969Y-94223819D01*
X180460402Y-94245752D01*
X180472411Y-94277900D01*
X180472805Y-94279044D01*
X180495624Y-94359858D01*
X180505751Y-94432107D01*
X180503204Y-94495541D01*
X180488004Y-94549915D01*
X180460169Y-94594979D01*
X180446896Y-94609032D01*
X180431732Y-94624959D01*
X180423119Y-94636934D01*
X180422375Y-94639352D01*
X180426560Y-94649358D01*
X180437302Y-94667515D01*
X180446601Y-94681570D01*
X180461888Y-94706127D01*
X180480083Y-94738753D01*
X180497625Y-94773018D01*
X180500146Y-94778250D01*
X180514535Y-94809766D01*
X180523261Y-94834381D01*
X180527725Y-94858436D01*
X180529328Y-94888270D01*
X180529498Y-94911156D01*
X180523465Y-94981806D01*
X180506340Y-95052090D01*
X180479682Y-95116577D01*
X180461720Y-95147307D01*
X180431062Y-95183884D01*
X180388009Y-95221307D01*
X180335704Y-95257158D01*
X180277749Y-95288800D01*
X180244689Y-95304760D01*
X180213675Y-95319777D01*
X180189918Y-95331326D01*
X180184250Y-95334097D01*
X180162873Y-95349384D01*
X180143077Y-95374819D01*
X180130902Y-95396056D01*
X180111974Y-95436177D01*
X180097458Y-95477955D01*
X180086482Y-95525044D01*
X180078171Y-95581098D01*
X180072357Y-95640876D01*
X180067505Y-95691721D01*
X180061514Y-95730484D01*
X180053071Y-95760961D01*
X180040862Y-95786943D01*
X180023577Y-95812225D01*
X180005477Y-95834187D01*
X179954141Y-95882690D01*
X179888393Y-95926215D01*
X179809007Y-95964419D01*
X179716754Y-95996956D01*
X179612409Y-96023480D01*
X179557883Y-96034041D01*
X179499670Y-96045153D01*
X179455536Y-96055765D01*
X179423723Y-96066489D01*
X179402476Y-96077934D01*
X179390038Y-96090712D01*
X179388805Y-96092814D01*
X179384655Y-96105358D01*
X179382342Y-96125657D01*
X179381811Y-96155844D01*
X179383009Y-96198055D01*
X179385058Y-96239803D01*
X179384273Y-96257604D01*
X179376945Y-96269542D01*
X179359322Y-96281029D01*
X179354781Y-96283459D01*
X179316244Y-96295986D01*
X179266315Y-96299476D01*
X179206659Y-96293923D01*
X179158692Y-96284337D01*
X179125431Y-96277031D01*
X179101953Y-96274066D01*
X179082845Y-96275188D01*
X179063487Y-96279909D01*
X179011213Y-96303613D01*
X178966761Y-96340703D01*
X178930545Y-96390527D01*
X178902979Y-96452430D01*
X178884479Y-96525760D01*
X178878150Y-96572406D01*
X178877246Y-96621300D01*
X178885695Y-96658139D01*
X178903897Y-96683977D01*
X178925571Y-96697361D01*
X178942627Y-96703554D01*
X178960802Y-96707563D01*
X178983628Y-96709685D01*
X179014637Y-96710221D01*
X179057361Y-96709468D01*
X179066034Y-96709233D01*
X179113344Y-96711050D01*
X179149214Y-96720772D01*
X179176092Y-96740304D01*
X179196425Y-96771546D01*
X179212661Y-96816403D01*
X179215077Y-96825100D01*
X179221952Y-96845382D01*
X179231923Y-96857151D01*
X179250132Y-96865234D01*
X179261546Y-96868711D01*
X179292281Y-96874328D01*
X179338405Y-96877840D01*
X179399568Y-96879226D01*
X179418281Y-96879233D01*
X179465148Y-96878882D01*
X179499512Y-96877927D01*
X179524747Y-96875938D01*
X179544224Y-96872485D01*
X179561316Y-96867138D01*
X179579394Y-96859467D01*
X179581766Y-96858380D01*
X179617337Y-96839038D01*
X179643595Y-96818658D01*
X179658182Y-96799293D01*
X179660375Y-96789937D01*
X179665381Y-96777471D01*
X179679367Y-96755080D01*
X179700786Y-96724720D01*
X179728090Y-96688349D01*
X179759731Y-96647922D01*
X179794163Y-96605397D01*
X179829836Y-96562730D01*
X179865205Y-96521879D01*
X179898721Y-96484799D01*
X179916928Y-96465557D01*
X179967278Y-96414628D01*
X180014163Y-96370051D01*
X180060783Y-96329189D01*
X180110340Y-96289402D01*
X180166034Y-96248052D01*
X180231065Y-96202501D01*
X180259656Y-96183023D01*
X180332578Y-96131051D01*
X180394840Y-96081284D01*
X180445432Y-96034656D01*
X180483343Y-95992098D01*
X180507560Y-95954545D01*
X180507793Y-95954068D01*
X180518138Y-95927862D01*
X180523731Y-95899076D01*
X180525675Y-95861609D01*
X180525720Y-95854849D01*
X180528212Y-95790972D01*
X180535812Y-95725548D01*
X180549192Y-95653851D01*
X180562270Y-95597750D01*
X180598151Y-95482782D01*
X180646220Y-95377813D01*
X180706393Y-95283005D01*
X180764348Y-95213338D01*
X180814147Y-95160103D01*
X180820455Y-94972130D01*
X180824692Y-94862565D01*
X180829686Y-94766975D01*
X180835662Y-94683472D01*
X180842844Y-94610164D01*
X180851459Y-94545162D01*
X180861730Y-94486575D01*
X180873882Y-94432514D01*
X180888140Y-94381088D01*
X180892371Y-94367438D01*
X180931870Y-94261806D01*
X180980099Y-94165858D01*
X181017834Y-94106673D01*
X181041023Y-94075726D01*
X181057295Y-94058776D01*
X181066785Y-94055944D01*
X181069628Y-94067346D01*
X181065960Y-94093101D01*
X181055915Y-94133329D01*
X181054416Y-94138680D01*
X181045467Y-94172008D01*
X181038099Y-94204008D01*
X181032102Y-94236855D01*
X181027267Y-94272727D01*
X181023384Y-94313799D01*
X181020244Y-94362248D01*
X181017639Y-94420250D01*
X181015357Y-94489981D01*
X181013397Y-94565006D01*
X181007757Y-94798294D01*
X181030582Y-94793180D01*
X181065352Y-94785989D01*
X181111297Y-94777332D01*
X181163877Y-94767985D01*
X181218550Y-94758724D01*
X181270775Y-94750326D01*
X181316013Y-94743564D01*
X181339156Y-94740460D01*
X181380270Y-94734502D01*
X181408695Y-94728155D01*
X181427610Y-94720552D01*
X181437250Y-94713701D01*
X181460121Y-94688976D01*
X181486459Y-94654013D01*
X181513381Y-94613122D01*
X181538002Y-94570614D01*
X181553038Y-94540664D01*
X181573806Y-94498596D01*
X181593399Y-94466868D01*
X181615442Y-94440686D01*
X181643556Y-94415258D01*
X181654540Y-94406409D01*
X181678254Y-94388895D01*
X181697264Y-94379571D01*
X181718578Y-94375916D01*
X181740713Y-94375375D01*
X181787625Y-94375375D01*
X181787625Y-93654676D01*
X181286645Y-93654676D01*
X181285229Y-93692483D01*
X181277619Y-93741672D01*
X181262668Y-93781152D01*
X181238152Y-93816240D01*
X181229554Y-93825703D01*
X181203702Y-93845486D01*
X181178367Y-93851177D01*
X181155801Y-93842470D01*
X181149580Y-93836646D01*
X181142728Y-93827503D01*
X181141751Y-93818149D01*
X181147583Y-93804268D01*
X181161154Y-93781547D01*
X181161667Y-93780721D01*
X181177065Y-93752880D01*
X181184908Y-93728015D01*
X181187624Y-93697665D01*
X181187771Y-93689788D01*
X181187008Y-93659517D01*
X181182696Y-93638533D01*
X181173079Y-93620350D01*
X181166525Y-93611317D01*
X181145556Y-93581207D01*
X181135744Y-93559157D01*
X181136568Y-93542476D01*
X181147504Y-93528472D01*
X181150047Y-93526387D01*
X181175191Y-93512768D01*
X181200036Y-93513219D01*
X181227060Y-93528060D01*
X181238880Y-93537958D01*
X181265299Y-93569399D01*
X181280974Y-93607481D01*
X181286645Y-93654676D01*
X181787625Y-93654676D01*
X181787625Y-90009357D01*
X181765797Y-90000756D01*
X181696140Y-89974278D01*
X181613970Y-89944674D01*
X181522124Y-89912860D01*
X181423440Y-89879757D01*
X181320756Y-89846281D01*
X181216908Y-89813352D01*
X181114736Y-89781887D01*
X181017077Y-89752806D01*
X180926767Y-89727026D01*
X180882750Y-89714987D01*
X180834050Y-89701952D01*
X180793766Y-89691320D01*
X180757888Y-89682092D01*
X180722401Y-89673271D01*
X180683295Y-89663857D01*
X180636557Y-89652853D01*
X180581125Y-89639946D01*
X180288594Y-89577020D01*
X180005656Y-89526370D01*
X179731913Y-89487938D01*
X179466961Y-89461667D01*
X179251456Y-89448977D01*
X179124319Y-89443922D01*
X179011227Y-89500607D01*
G37*
X179011227Y-89500607D02*
X178933026Y-89540378D01*
X178865431Y-89576167D01*
X178804463Y-89610252D01*
X178746138Y-89644909D01*
X178686475Y-89682415D01*
X178638612Y-89713679D01*
X178591402Y-89746211D01*
X178545490Y-89780230D01*
X178502715Y-89814140D01*
X178464915Y-89846346D01*
X178433927Y-89875252D01*
X178411588Y-89899263D01*
X178399737Y-89916782D01*
X178398312Y-89922320D01*
X178405160Y-89940091D01*
X178423275Y-89960225D01*
X178449015Y-89979638D01*
X178478735Y-89995244D01*
X178488903Y-89999068D01*
X178539977Y-90009818D01*
X178601844Y-90012277D01*
X178672054Y-90006914D01*
X178748161Y-89994197D01*
X178827715Y-89974593D01*
X178908269Y-89948570D01*
X178987374Y-89916597D01*
X179032167Y-89895237D01*
X179061913Y-89882303D01*
X179080382Y-89879605D01*
X179088389Y-89887090D01*
X179088875Y-89891631D01*
X179083063Y-89903504D01*
X179067621Y-89922139D01*
X179045542Y-89944669D01*
X179019816Y-89968226D01*
X178993436Y-89989944D01*
X178969394Y-90006956D01*
X178967010Y-90008423D01*
X178875461Y-90055076D01*
X178781093Y-90086213D01*
X178684248Y-90101747D01*
X178605827Y-90102908D01*
X178542105Y-90097351D01*
X178489080Y-90086552D01*
X178442048Y-90069122D01*
X178396305Y-90043675D01*
X178389223Y-90039053D01*
X178363896Y-90023572D01*
X178340565Y-90013362D01*
X178313378Y-90006470D01*
X178276486Y-90000943D01*
X178274191Y-90000656D01*
X178230022Y-89997106D01*
X178174504Y-89995565D01*
X178112017Y-89995898D01*
X178046940Y-89997967D01*
X177983654Y-90001638D01*
X177926539Y-90006774D01*
X177882375Y-90012818D01*
X177755524Y-90039383D01*
X177639202Y-90073407D01*
X177534656Y-90114443D01*
X177443135Y-90162045D01*
X177414343Y-90180220D01*
X177391158Y-90197349D01*
X177363864Y-90220122D01*
X177335039Y-90246045D01*
X177307261Y-90272628D01*
X177283106Y-90297378D01*
X177265151Y-90317803D01*
X177255975Y-90331410D01*
X177255312Y-90333999D01*
X177249180Y-90341496D01*
X177233345Y-90354119D01*
X177217609Y-90364925D01*
X177184671Y-90388288D01*
X177141159Y-90422396D01*
X177087684Y-90466728D01*
X177024857Y-90520765D01*
X176953288Y-90583987D01*
X176873590Y-90655872D01*
X176840232Y-90686329D01*
X176760923Y-90758771D01*
X176692671Y-90820667D01*
X176635028Y-90872413D01*
X176587549Y-90914404D01*
X176549786Y-90947035D01*
X176521292Y-90970701D01*
X176501817Y-90985658D01*
X176475688Y-91004265D01*
X176479233Y-91140023D01*
X176480849Y-91192231D01*
X176482826Y-91231691D01*
X176485536Y-91261531D01*
X176489347Y-91284877D01*
X176494630Y-91304857D01*
X176500766Y-91322072D01*
X176528117Y-91375562D01*
X176564112Y-91416043D01*
X176609996Y-91444552D01*
X176667016Y-91462127D01*
X176669633Y-91462634D01*
X176694098Y-91466651D01*
X176709734Y-91465593D01*
X176723279Y-91457502D01*
X176739510Y-91442336D01*
X176772372Y-91417636D01*
X176812938Y-91397738D01*
X176854547Y-91385475D01*
X176879290Y-91382938D01*
X176894314Y-91381533D01*
X176908374Y-91375868D01*
X176924747Y-91363762D01*
X176946711Y-91343035D01*
X176960876Y-91328696D01*
X177013968Y-91280812D01*
X177066188Y-91247533D01*
X177119594Y-91227862D01*
X177176242Y-91220801D01*
X177183496Y-91220754D01*
X177217142Y-91221925D01*
X177243911Y-91226127D01*
X177270772Y-91235035D01*
X177302937Y-91249487D01*
X177336794Y-91268124D01*
X177375520Y-91293219D01*
X177412433Y-91320340D01*
X177424130Y-91329863D01*
X177453851Y-91354247D01*
X177475954Y-91370072D01*
X177494492Y-91379538D01*
X177513516Y-91384846D01*
X177529967Y-91387351D01*
X177586029Y-91386972D01*
X177643608Y-91373279D01*
X177698053Y-91347582D01*
X177717518Y-91334525D01*
X177755866Y-91308529D01*
X177793658Y-91286976D01*
X177827348Y-91271639D01*
X177853392Y-91264295D01*
X177858562Y-91263913D01*
X177896699Y-91270302D01*
X177939463Y-91288781D01*
X177983521Y-91317705D01*
X178006382Y-91336822D01*
X178031570Y-91358900D01*
X178054246Y-91377500D01*
X178070423Y-91389388D01*
X178073223Y-91391061D01*
X178099506Y-91398462D01*
X178133474Y-91399138D01*
X178168532Y-91393301D01*
X178185729Y-91387459D01*
X178227149Y-91376424D01*
X178268116Y-91379134D01*
X178309911Y-91396023D01*
X178353811Y-91427526D01*
X178382438Y-91454375D01*
X178426060Y-91493364D01*
X178467132Y-91518593D01*
X178508143Y-91531355D01*
X178534957Y-91533576D01*
X178578214Y-91528865D01*
X178623512Y-91515967D01*
X178662973Y-91497284D01*
X178670783Y-91492147D01*
X178690095Y-91481870D01*
X178700320Y-91484097D01*
X178700989Y-91498001D01*
X178691636Y-91522756D01*
X178689984Y-91526086D01*
X178664084Y-91560710D01*
X178627478Y-91587083D01*
X178583076Y-91605114D01*
X178533788Y-91614716D01*
X178482524Y-91615798D01*
X178432195Y-91608271D01*
X178385710Y-91592046D01*
X178345979Y-91567034D01*
X178318771Y-91537477D01*
X178285669Y-91502298D01*
X178243557Y-91480053D01*
X178192182Y-91470621D01*
X178178341Y-91470250D01*
X178149486Y-91471650D01*
X178124232Y-91477024D01*
X178096269Y-91488137D01*
X178072668Y-91499777D01*
X178015268Y-91529304D01*
X177978587Y-91507552D01*
X177951365Y-91492200D01*
X177917892Y-91474402D01*
X177891197Y-91460887D01*
X177834312Y-91439856D01*
X177773807Y-91431377D01*
X177708381Y-91435559D01*
X177636737Y-91452511D01*
X177557575Y-91482342D01*
X177539551Y-91490401D01*
X177489058Y-91511570D01*
X177450607Y-91523220D01*
X177429393Y-91525813D01*
X177387646Y-91519070D01*
X177340929Y-91498665D01*
X177288771Y-91464330D01*
X177230705Y-91415796D01*
X177221338Y-91407164D01*
X177191796Y-91380461D01*
X177165539Y-91358254D01*
X177145113Y-91342591D01*
X177133063Y-91335517D01*
X177131913Y-91335313D01*
X177105359Y-91342445D01*
X177075584Y-91362524D01*
X177044781Y-91393575D01*
X177015144Y-91433621D01*
X177005717Y-91448947D01*
X176985270Y-91483837D01*
X176929254Y-91488533D01*
X176884077Y-91495049D01*
X176850715Y-91507288D01*
X176825504Y-91527438D01*
X176804784Y-91557687D01*
X176800761Y-91565330D01*
X176772960Y-91611744D01*
X176744158Y-91642837D01*
X176713570Y-91659159D01*
X176680413Y-91661263D01*
X176668127Y-91658761D01*
X176644923Y-91647160D01*
X176615811Y-91624297D01*
X176583033Y-91592539D01*
X176548829Y-91554247D01*
X176515439Y-91511786D01*
X176485104Y-91467520D01*
X176481696Y-91462071D01*
X176437048Y-91390881D01*
X176397776Y-91330614D01*
X176361768Y-91278195D01*
X176326915Y-91230547D01*
X176292602Y-91186463D01*
X176163685Y-91037193D01*
X176025824Y-90900155D01*
X175879672Y-90775763D01*
X175725883Y-90664427D01*
X175565114Y-90566561D01*
X175398016Y-90482575D01*
X175225246Y-90412881D01*
X175047457Y-90357892D01*
X174933594Y-90331073D01*
X174874505Y-90319727D01*
X174812088Y-90309347D01*
X174750167Y-90300442D01*
X174692569Y-90293523D01*
X174643120Y-90289099D01*
X174608156Y-90287672D01*
X174533464Y-90291876D01*
X174454896Y-90303903D01*
X174376030Y-90322677D01*
X174300441Y-90347122D01*
X174231708Y-90376160D01*
X174173408Y-90408717D01*
X174149766Y-90425601D01*
X174126806Y-90449638D01*
X174119710Y-90473283D01*
X174128474Y-90496597D01*
X174143250Y-90512090D01*
X174163592Y-90525163D01*
X174189125Y-90533548D01*
X174221543Y-90537214D01*
X174262537Y-90536127D01*
X174313800Y-90530258D01*
X174377025Y-90519575D01*
X174442183Y-90506528D01*
X174516292Y-90492873D01*
X174581433Y-90484818D01*
X174635691Y-90482529D01*
X174676244Y-90486001D01*
X174716434Y-90496310D01*
X174767999Y-90513919D01*
X174828794Y-90537802D01*
X174896678Y-90566934D01*
X174969507Y-90600290D01*
X175045139Y-90636843D01*
X175121432Y-90675569D01*
X175196241Y-90715441D01*
X175267425Y-90755434D01*
X175332841Y-90794523D01*
X175369506Y-90817817D01*
X175510424Y-90915660D01*
X175642979Y-91020023D01*
X175768318Y-91132178D01*
X175887589Y-91253394D01*
X176001940Y-91384941D01*
X176112518Y-91528090D01*
X176220473Y-91684111D01*
X176326951Y-91854273D01*
X176365582Y-91919999D01*
X176389612Y-91961674D01*
X176406625Y-91992049D01*
X176417556Y-92013561D01*
X176423341Y-92028649D01*
X176424918Y-92039750D01*
X176423222Y-92049303D01*
X176419218Y-92059679D01*
X176399064Y-92088076D01*
X176364804Y-92112131D01*
X176324359Y-92128808D01*
X176301291Y-92140027D01*
X176283552Y-92155142D01*
X176281670Y-92157712D01*
X176275410Y-92169072D01*
X176273575Y-92180665D01*
X176276498Y-92197054D01*
X176284509Y-92222802D01*
X176286912Y-92229953D01*
X176299319Y-92270955D01*
X176303888Y-92300852D01*
X176299870Y-92322746D01*
X176286511Y-92339737D01*
X176263062Y-92354927D01*
X176255719Y-92358714D01*
X176229735Y-92367383D01*
X176190362Y-92373796D01*
X176140094Y-92377946D01*
X176053589Y-92386927D01*
X175976486Y-92403038D01*
X175910012Y-92425793D01*
X175855395Y-92454709D01*
X175813862Y-92489298D01*
X175794511Y-92514520D01*
X175783954Y-92537019D01*
X175773761Y-92567513D01*
X175767950Y-92591062D01*
X175760732Y-92620711D01*
X175752164Y-92639674D01*
X175739538Y-92653082D01*
X175732527Y-92658187D01*
X175704902Y-92673168D01*
X175661767Y-92691164D01*
X175603193Y-92712149D01*
X175529252Y-92736098D01*
X175440014Y-92762986D01*
X175433832Y-92764792D01*
X175382948Y-92779839D01*
X175330827Y-92795611D01*
X175282084Y-92810685D01*
X175241336Y-92823643D01*
X175223312Y-92829585D01*
X175191913Y-92839823D01*
X175166330Y-92846845D01*
X175142192Y-92851233D01*
X175115127Y-92853570D01*
X175080766Y-92854437D01*
X175036781Y-92854427D01*
X174987808Y-92853286D01*
X174938963Y-92850577D01*
X174895575Y-92846677D01*
X174864141Y-92842190D01*
X174835395Y-92836793D01*
X174813829Y-92832873D01*
X174803157Y-92831100D01*
X174802625Y-92831075D01*
X174804981Y-92838302D01*
X174811289Y-92857165D01*
X174820410Y-92884263D01*
X174825407Y-92899062D01*
X174836839Y-92936387D01*
X174846633Y-92974644D01*
X174853011Y-93006734D01*
X174853791Y-93012364D01*
X174858892Y-93041884D01*
X174865941Y-93068150D01*
X174870648Y-93079833D01*
X174880350Y-93111932D01*
X174876275Y-93146097D01*
X174858067Y-93183868D01*
X174841190Y-93207649D01*
X174828159Y-93235507D01*
X174830493Y-93266259D01*
X174846281Y-93297580D01*
X174858388Y-93317050D01*
X174865413Y-93331547D01*
X174866125Y-93334691D01*
X174859045Y-93347136D01*
X174841139Y-93358312D01*
X174817407Y-93365713D01*
X174801019Y-93367313D01*
X174783682Y-93368469D01*
X174771480Y-93374153D01*
X174760128Y-93387689D01*
X174747298Y-93408984D01*
X174727688Y-93454704D01*
X174722550Y-93499269D01*
X174732138Y-93543775D01*
X174756708Y-93589315D01*
X174796514Y-93636983D01*
X174801738Y-93642306D01*
X174831507Y-93676001D01*
X174847035Y-93704232D01*
X174848174Y-93728836D01*
X174834776Y-93751654D01*
X174806695Y-93774524D01*
X174790353Y-93784665D01*
X174769277Y-93798194D01*
X174758795Y-93810008D01*
X174755280Y-93825442D01*
X174755000Y-93836634D01*
X174762248Y-93881672D01*
X174782100Y-93925819D01*
X174811722Y-93964492D01*
X174848278Y-93993108D01*
X174853575Y-93995944D01*
X174901005Y-94023341D01*
X174951373Y-94058099D01*
X174999187Y-94096084D01*
X175038952Y-94133167D01*
X175045948Y-94140653D01*
X175089174Y-94197571D01*
X175127176Y-94265395D01*
X175158159Y-94339569D01*
X175180328Y-94415537D01*
X175191887Y-94488741D01*
X175193117Y-94514281D01*
X175192153Y-94549120D01*
X175187020Y-94578394D01*
X175176028Y-94610041D01*
X175169428Y-94625561D01*
X175148732Y-94681230D01*
X175139265Y-94730288D01*
X175140507Y-94776799D01*
X175146392Y-94806003D01*
X175168716Y-94866681D01*
X175201236Y-94915476D01*
X175244688Y-94953254D01*
X175292747Y-94978150D01*
X175322901Y-94984275D01*
X175363478Y-94983907D01*
X175410540Y-94977326D01*
X175453500Y-94966818D01*
X175511531Y-94957564D01*
X175568588Y-94963837D01*
X175623780Y-94985288D01*
X175676212Y-95021572D01*
X175724993Y-95072339D01*
X175725275Y-95072689D01*
X175744782Y-95099236D01*
X175753171Y-95118575D01*
X175750915Y-95134343D01*
X175738488Y-95150179D01*
X175735721Y-95152837D01*
X175715531Y-95165335D01*
X175693768Y-95164932D01*
X175668667Y-95151125D01*
X175640812Y-95125848D01*
X175604822Y-95095774D01*
X175566316Y-95075512D01*
X175528345Y-95065926D01*
X175493960Y-95067882D01*
X175471749Y-95077868D01*
X175452494Y-95100611D01*
X175441757Y-95134175D01*
X175439285Y-95176147D01*
X175444825Y-95224117D01*
X175458124Y-95275672D01*
X175478929Y-95328401D01*
X175502710Y-95372977D01*
X175528292Y-95415188D01*
X175573665Y-95415188D01*
X175670662Y-95422083D01*
X175761380Y-95442447D01*
X175844727Y-95475794D01*
X175919610Y-95521640D01*
X175984937Y-95579499D01*
X176010883Y-95609274D01*
X176048830Y-95656516D01*
X176118275Y-95654612D01*
X176191178Y-95657188D01*
X176263364Y-95668156D01*
X176329368Y-95686499D01*
X176362344Y-95699967D01*
X176390858Y-95716450D01*
X176424233Y-95740404D01*
X176458930Y-95768745D01*
X176491408Y-95798390D01*
X176518129Y-95826255D01*
X176535553Y-95849256D01*
X176537315Y-95852420D01*
X176545586Y-95876766D01*
X176548875Y-95902334D01*
X176549836Y-95915801D01*
X176554311Y-95925940D01*
X176564688Y-95933972D01*
X176583355Y-95941113D01*
X176612700Y-95948583D01*
X176655110Y-95957600D01*
X176658554Y-95958305D01*
X176692045Y-95966765D01*
X176723568Y-95977432D01*
X176745866Y-95987769D01*
X176820584Y-96041019D01*
X176893489Y-96109568D01*
X176964226Y-96192903D01*
X177032443Y-96290517D01*
X177097784Y-96401898D01*
X177159895Y-96526537D01*
X177218422Y-96663923D01*
X177222358Y-96673957D01*
X177245412Y-96734811D01*
X177262490Y-96785083D01*
X177274345Y-96828566D01*
X177281731Y-96869054D01*
X177285403Y-96910343D01*
X177286114Y-96956226D01*
X177285331Y-96990781D01*
X177283169Y-97039395D01*
X177279877Y-97076545D01*
X177274821Y-97106636D01*
X177267368Y-97134071D01*
X177262825Y-97147390D01*
X177255969Y-97165734D01*
X177250491Y-97181104D01*
X177247587Y-97193768D01*
X177248453Y-97203991D01*
X177254286Y-97212039D01*
X177266282Y-97218180D01*
X177285637Y-97222679D01*
X177313548Y-97225804D01*
X177351211Y-97227819D01*
X177399823Y-97228992D01*
X177460580Y-97229588D01*
X177534678Y-97229875D01*
X177623313Y-97230119D01*
X177634604Y-97230156D01*
X177709395Y-97230332D01*
X177779587Y-97230338D01*
X177843529Y-97230185D01*
X177899567Y-97229886D01*
X177946048Y-97229452D01*
X177981319Y-97228893D01*
X178003728Y-97228221D01*
X178011354Y-97227591D01*
X178026783Y-97215804D01*
X178032778Y-97191992D01*
X178029395Y-97156854D01*
X178016694Y-97111090D01*
X177997843Y-97062561D01*
X177976942Y-97007926D01*
X177965769Y-96962961D01*
X177963904Y-96925132D01*
X177969931Y-96894794D01*
X177985163Y-96865431D01*
X178011368Y-96832158D01*
X178045362Y-96798250D01*
X178083961Y-96766983D01*
X178112441Y-96748167D01*
X178144929Y-96724752D01*
X178184578Y-96689380D01*
X178230100Y-96643535D01*
X178280209Y-96588701D01*
X178333616Y-96526360D01*
X178389036Y-96457997D01*
X178445179Y-96385096D01*
X178500760Y-96309139D01*
X178531983Y-96264630D01*
X178559984Y-96225021D01*
X178594714Y-96177363D01*
X178632960Y-96125981D01*
X178671509Y-96075201D01*
X178700020Y-96038411D01*
X178732549Y-95996346D01*
X178763568Y-95955196D01*
X178790999Y-95917800D01*
X178812762Y-95886995D01*
X178826777Y-95865617D01*
X178827193Y-95864921D01*
X178884761Y-95782230D01*
X178952527Y-95710140D01*
X178967702Y-95698236D01*
X178245878Y-95698236D01*
X178245067Y-95703768D01*
X178238675Y-95712988D01*
X178227464Y-95715633D01*
X178209159Y-95711223D01*
X178181488Y-95699277D01*
X178150848Y-95683850D01*
X178107558Y-95657758D01*
X178063120Y-95624804D01*
X178020914Y-95588055D01*
X177984317Y-95550581D01*
X177956708Y-95515450D01*
X177946655Y-95498391D01*
X177928746Y-95452708D01*
X177924214Y-95412383D01*
X177932915Y-95374454D01*
X177939890Y-95359625D01*
X177966392Y-95322879D01*
X177999066Y-95298637D01*
X178035729Y-95288420D01*
X178042276Y-95288188D01*
X178065342Y-95291145D01*
X178086417Y-95301974D01*
X178104602Y-95316892D01*
X178126654Y-95340358D01*
X178134960Y-95360644D01*
X178129393Y-95380867D01*
X178109824Y-95404140D01*
X178100656Y-95412676D01*
X178079455Y-95433583D01*
X178068544Y-95450408D01*
X178065035Y-95467922D01*
X178064967Y-95471652D01*
X178070922Y-95503276D01*
X178089467Y-95535924D01*
X178121726Y-95571472D01*
X178128776Y-95578050D01*
X178169818Y-95615755D01*
X178200401Y-95644392D01*
X178221911Y-95665459D01*
X178235736Y-95680456D01*
X178243263Y-95690882D01*
X178245878Y-95698236D01*
X178967702Y-95698236D01*
X179028841Y-95650279D01*
X179069031Y-95625808D01*
X179090770Y-95614026D01*
X179105957Y-95606324D01*
X179110601Y-95604499D01*
X179118302Y-95602082D01*
X179135793Y-95595132D01*
X179147595Y-95590160D01*
X179179748Y-95578930D01*
X179223115Y-95567334D01*
X179273095Y-95556347D01*
X179325083Y-95546948D01*
X179374476Y-95540112D01*
X179391459Y-95538404D01*
X179421661Y-95535283D01*
X179443138Y-95530759D01*
X179461306Y-95522495D01*
X179481583Y-95508156D01*
X179503967Y-95489910D01*
X179548179Y-95449217D01*
X179583051Y-95408839D01*
X179606953Y-95370958D01*
X179618252Y-95337755D01*
X179618383Y-95336825D01*
X179618936Y-95308609D01*
X179610888Y-95287266D01*
X179592582Y-95271576D01*
X179562359Y-95260320D01*
X179518560Y-95252280D01*
X179500353Y-95250070D01*
X179471630Y-95245941D01*
X179455405Y-95240673D01*
X179448302Y-95232976D01*
X179447417Y-95229856D01*
X179451315Y-95212547D01*
X179466313Y-95193142D01*
X179488670Y-95175176D01*
X179514642Y-95162190D01*
X179521091Y-95160182D01*
X179555407Y-95155535D01*
X179601092Y-95156263D01*
X179654688Y-95162071D01*
X179712736Y-95172664D01*
X179738523Y-95178696D01*
X179804765Y-95195267D01*
X179824052Y-95172274D01*
X179858293Y-95127474D01*
X179891517Y-95076832D01*
X179921437Y-95024437D01*
X179945765Y-94974373D01*
X179962214Y-94930729D01*
X179965065Y-94920344D01*
X179971712Y-94900272D01*
X179982669Y-94873549D01*
X179990210Y-94857150D01*
X180009810Y-94816520D01*
X179982885Y-94772557D01*
X179951124Y-94716660D01*
X179922370Y-94656951D01*
X179895643Y-94590863D01*
X179869964Y-94515831D01*
X179844354Y-94429288D01*
X179826714Y-94363469D01*
X179816232Y-94323843D01*
X179807242Y-94291433D01*
X179800404Y-94268494D01*
X179796380Y-94257283D01*
X179795588Y-94257230D01*
X179790752Y-94276632D01*
X179778273Y-94304805D01*
X179760300Y-94338029D01*
X179738986Y-94372583D01*
X179716484Y-94404747D01*
X179695618Y-94430076D01*
X179652890Y-94476227D01*
X179660555Y-94523035D01*
X179666339Y-94574456D01*
X179667901Y-94628221D01*
X179665349Y-94678899D01*
X179658792Y-94721059D01*
X179656383Y-94730165D01*
X179644779Y-94756363D01*
X179625808Y-94785861D01*
X179602286Y-94815525D01*
X179577035Y-94842221D01*
X179552871Y-94862815D01*
X179532615Y-94874173D01*
X179525719Y-94875438D01*
X179509933Y-94871439D01*
X179485648Y-94860862D01*
X179457639Y-94845836D01*
X179452551Y-94842812D01*
X179413952Y-94823021D01*
X179384366Y-94815425D01*
X179364262Y-94819835D01*
X179354105Y-94836060D01*
X179354363Y-94863912D01*
X179358257Y-94881118D01*
X179366747Y-94929760D01*
X179362722Y-94973468D01*
X179345342Y-95015211D01*
X179313766Y-95057956D01*
X179305647Y-95066915D01*
X179282085Y-95090062D01*
X179250603Y-95118033D01*
X179214677Y-95148044D01*
X179177781Y-95177311D01*
X179143392Y-95203050D01*
X179114986Y-95222476D01*
X179101899Y-95230131D01*
X179047751Y-95253128D01*
X178992449Y-95267641D01*
X178939378Y-95273307D01*
X178891923Y-95269766D01*
X178853499Y-95256670D01*
X178826034Y-95240314D01*
X178798607Y-95222101D01*
X178795187Y-95219642D01*
X178775797Y-95208090D01*
X178754989Y-95201950D01*
X178730827Y-95201667D01*
X178701375Y-95207683D01*
X178664696Y-95220444D01*
X178618856Y-95240391D01*
X178561917Y-95267970D01*
X178543193Y-95277387D01*
X178493112Y-95302434D01*
X178454417Y-95320939D01*
X178424534Y-95333920D01*
X178400890Y-95342394D01*
X178380910Y-95347378D01*
X178362020Y-95349889D01*
X178359134Y-95350114D01*
X178312075Y-95353518D01*
X178237381Y-95282360D01*
X178190717Y-95240082D01*
X178150259Y-95208970D01*
X178112855Y-95187369D01*
X178075349Y-95173621D01*
X178034588Y-95166072D01*
X178012132Y-95164113D01*
X177971985Y-95161273D01*
X177943851Y-95157961D01*
X177923879Y-95153069D01*
X177908217Y-95145488D01*
X177893016Y-95134110D01*
X177885548Y-95127674D01*
X177852249Y-95092758D01*
X177326612Y-95092758D01*
X177326246Y-95116603D01*
X177323394Y-95133266D01*
X177315681Y-95147534D01*
X177300733Y-95164190D01*
X177282226Y-95182204D01*
X177237701Y-95224985D01*
X177244522Y-95322070D01*
X177247481Y-95374582D01*
X177249547Y-95433134D01*
X177250741Y-95494972D01*
X177251085Y-95557339D01*
X177250598Y-95617477D01*
X177249304Y-95672632D01*
X177247222Y-95720047D01*
X177244375Y-95756965D01*
X177240998Y-95779725D01*
X177228920Y-95819814D01*
X177213955Y-95850271D01*
X177197429Y-95869016D01*
X177180976Y-95874010D01*
X177174817Y-95872625D01*
X177170423Y-95868990D01*
X177167558Y-95860845D01*
X177165989Y-95845927D01*
X177165481Y-95821975D01*
X177165799Y-95786726D01*
X177166709Y-95737918D01*
X177166734Y-95736656D01*
X177167174Y-95676636D01*
X177166086Y-95622893D01*
X177163585Y-95578653D01*
X177159954Y-95548076D01*
X177145565Y-95488221D01*
X177123787Y-95424166D01*
X177097422Y-95363495D01*
X177079238Y-95329608D01*
X177053934Y-95293307D01*
X177019730Y-95252922D01*
X176981027Y-95213035D01*
X176942228Y-95178227D01*
X176912522Y-95156096D01*
X176900903Y-95149030D01*
X176888684Y-95143138D01*
X176874260Y-95138255D01*
X176856025Y-95134217D01*
X176832371Y-95130859D01*
X176801694Y-95128015D01*
X176762387Y-95125522D01*
X176712842Y-95123213D01*
X176651455Y-95120926D01*
X176576619Y-95118493D01*
X176533000Y-95117152D01*
X176454981Y-95114167D01*
X176390386Y-95110077D01*
X176336772Y-95104366D01*
X176291700Y-95096518D01*
X176252729Y-95086016D01*
X176217417Y-95072346D01*
X176183323Y-95054992D01*
X176153463Y-95036949D01*
X176116954Y-95010314D01*
X176074303Y-94973777D01*
X176028624Y-94930330D01*
X175983035Y-94882965D01*
X175940653Y-94834674D01*
X175932727Y-94825035D01*
X175882125Y-94762726D01*
X175882125Y-94694991D01*
X175881521Y-94659820D01*
X175878711Y-94634077D01*
X175872202Y-94611330D01*
X175860499Y-94585146D01*
X175853262Y-94570769D01*
X175820747Y-94499983D01*
X175797740Y-94434195D01*
X175784355Y-94374654D01*
X175780705Y-94322608D01*
X175786904Y-94279307D01*
X175803065Y-94246000D01*
X175822191Y-94228065D01*
X175849504Y-94218763D01*
X175885345Y-94218930D01*
X175926236Y-94227653D01*
X175968696Y-94244017D01*
X176009246Y-94267108D01*
X176029822Y-94282635D01*
X176058120Y-94298398D01*
X176100694Y-94309871D01*
X176108864Y-94311326D01*
X176173159Y-94329171D01*
X176228116Y-94359278D01*
X176272806Y-94401125D01*
X176275836Y-94404872D01*
X176303684Y-94439777D01*
X176324607Y-94464184D01*
X176341625Y-94479970D01*
X176357754Y-94489012D01*
X176376013Y-94493189D01*
X176399419Y-94494378D01*
X176419780Y-94494438D01*
X176473097Y-94497915D01*
X176514466Y-94508971D01*
X176546354Y-94528538D01*
X176565771Y-94549684D01*
X176583048Y-94573051D01*
X176766383Y-94571585D01*
X176825455Y-94571190D01*
X176871051Y-94571186D01*
X176905569Y-94571747D01*
X176931408Y-94573049D01*
X176950965Y-94575264D01*
X176966638Y-94578569D01*
X176980825Y-94583136D01*
X176993375Y-94588087D01*
X177038591Y-94610830D01*
X177071259Y-94637887D01*
X177094666Y-94672434D01*
X177104755Y-94695702D01*
X177118391Y-94726334D01*
X177134675Y-94747916D01*
X177158576Y-94767065D01*
X177215874Y-94811307D01*
X177257869Y-94855043D01*
X177282960Y-94894297D01*
X177301415Y-94941767D01*
X177315817Y-94997867D01*
X177324617Y-95055549D01*
X177326612Y-95092758D01*
X177852249Y-95092758D01*
X177851592Y-95092070D01*
X177827975Y-95055066D01*
X177815543Y-95019057D01*
X177815139Y-94986438D01*
X177826688Y-94960743D01*
X177844361Y-94944685D01*
X177865265Y-94939946D01*
X177892631Y-94946329D01*
X177913490Y-94955411D01*
X177946904Y-94966684D01*
X177984447Y-94971700D01*
X178022350Y-94970878D01*
X178056844Y-94964636D01*
X178084162Y-94953391D01*
X178100533Y-94937560D01*
X178101921Y-94934536D01*
X178103687Y-94910652D01*
X178091281Y-94890042D01*
X178068065Y-94876214D01*
X178047475Y-94865207D01*
X178021779Y-94846589D01*
X177997101Y-94824911D01*
X177965937Y-94788450D01*
X177945251Y-94748504D01*
X177933715Y-94701444D01*
X177930004Y-94643642D01*
X177930000Y-94641248D01*
X177930000Y-94584564D01*
X177894690Y-94566929D01*
X177852084Y-94537792D01*
X177821983Y-94499593D01*
X177810589Y-94473538D01*
X177807166Y-94454869D01*
X177481266Y-94454869D01*
X177480980Y-94479297D01*
X177466473Y-94497042D01*
X177438063Y-94507794D01*
X177424971Y-94509838D01*
X177401425Y-94513529D01*
X177389469Y-94519234D01*
X177384826Y-94529500D01*
X177384191Y-94534125D01*
X177379300Y-94574743D01*
X177374027Y-94603271D01*
X177367323Y-94623480D01*
X177358143Y-94639141D01*
X177353345Y-94645212D01*
X177334186Y-94662797D01*
X177315374Y-94667394D01*
X177294415Y-94658661D01*
X177268813Y-94636255D01*
X177265858Y-94633204D01*
X177241736Y-94603924D01*
X177231642Y-94579517D01*
X177235502Y-94557571D01*
X177253240Y-94535673D01*
X177262580Y-94527680D01*
X177292072Y-94496218D01*
X177306142Y-94461817D01*
X177304643Y-94424879D01*
X177302406Y-94417047D01*
X177286544Y-94381975D01*
X177260935Y-94341337D01*
X177228345Y-94299335D01*
X177214891Y-94284094D01*
X177196930Y-94258810D01*
X177177414Y-94221980D01*
X177157985Y-94177611D01*
X177140284Y-94129706D01*
X177125951Y-94082272D01*
X177118098Y-94047819D01*
X177113811Y-94020400D01*
X177113889Y-94003696D01*
X177118601Y-93993085D01*
X177121442Y-93989906D01*
X177131849Y-93982402D01*
X177140958Y-93987328D01*
X177145213Y-93992144D01*
X177155437Y-94007927D01*
X177167412Y-94031292D01*
X177172181Y-94042000D01*
X177209559Y-94116566D01*
X177259484Y-94194431D01*
X177319881Y-94272712D01*
X177388675Y-94348528D01*
X177403493Y-94363372D01*
X177431561Y-94392154D01*
X177455430Y-94418739D01*
X177472717Y-94440322D01*
X177481036Y-94454097D01*
X177481266Y-94454869D01*
X177807166Y-94454869D01*
X177804910Y-94442571D01*
X177804854Y-94405470D01*
X177809607Y-94366290D01*
X177818356Y-94329084D01*
X177830286Y-94297907D01*
X177844584Y-94276812D01*
X177851058Y-94271956D01*
X177869434Y-94265492D01*
X177890455Y-94266169D01*
X177918185Y-94274534D01*
X177941145Y-94284094D01*
X177969911Y-94294942D01*
X177997139Y-94302150D01*
X178011879Y-94303938D01*
X178026207Y-94302604D01*
X178037448Y-94296597D01*
X178048900Y-94282904D01*
X178063861Y-94258513D01*
X178066355Y-94254192D01*
X178098233Y-94203124D01*
X178135253Y-94150991D01*
X178175359Y-94100116D01*
X178216493Y-94052819D01*
X178256597Y-94011423D01*
X178293614Y-93978248D01*
X178308527Y-93967659D01*
X175563617Y-93967659D01*
X175553164Y-93985895D01*
X175551489Y-93987797D01*
X175536983Y-93999338D01*
X175520980Y-94001514D01*
X175501450Y-93993499D01*
X175476364Y-93974468D01*
X175444274Y-93944175D01*
X175383999Y-93892080D01*
X175321913Y-93853721D01*
X175259403Y-93829832D01*
X175213502Y-93821886D01*
X175183626Y-93820367D01*
X175162821Y-93822578D01*
X175144463Y-93829852D01*
X175129221Y-93838863D01*
X175095958Y-93857437D01*
X175070830Y-93864860D01*
X175050819Y-93861278D01*
X175032909Y-93846841D01*
X175030191Y-93843716D01*
X175016865Y-93825096D01*
X175014190Y-93811527D01*
X175017073Y-93803623D01*
X175035750Y-93781367D01*
X175064956Y-93760511D01*
X175099470Y-93744474D01*
X175114002Y-93740072D01*
X175157876Y-93736163D01*
X175210495Y-93743560D01*
X175270193Y-93761586D01*
X175335305Y-93789564D01*
X175404165Y-93826815D01*
X175475107Y-93872664D01*
X175518984Y-93904787D01*
X175547350Y-93929208D01*
X175561953Y-93949464D01*
X175563617Y-93967659D01*
X178308527Y-93967659D01*
X178325487Y-93955617D01*
X178335638Y-93950346D01*
X178355574Y-93942009D01*
X178367751Y-93940920D01*
X178378854Y-93947736D01*
X178387263Y-93955409D01*
X178403750Y-93972916D01*
X178415445Y-93988900D01*
X178415713Y-93989389D01*
X178417568Y-94006536D01*
X178406674Y-94021768D01*
X178386135Y-94032351D01*
X178363162Y-94035650D01*
X178350272Y-94036413D01*
X178339171Y-94040107D01*
X178327432Y-94048838D01*
X178312628Y-94064711D01*
X178292331Y-94089834D01*
X178275072Y-94112084D01*
X178230462Y-94173586D01*
X178198176Y-94226611D01*
X178177743Y-94272082D01*
X178168693Y-94310923D01*
X178168125Y-94322246D01*
X178169249Y-94344609D01*
X178174976Y-94359150D01*
X178188837Y-94372025D01*
X178201859Y-94381064D01*
X178227237Y-94401869D01*
X178237387Y-94421356D01*
X178232576Y-94441663D01*
X178213069Y-94464925D01*
X178212406Y-94465553D01*
X178182680Y-94500059D01*
X178161895Y-94537483D01*
X178150186Y-94575306D01*
X178147691Y-94611008D01*
X178154546Y-94642070D01*
X178170887Y-94665973D01*
X178196853Y-94680196D01*
X178200698Y-94681150D01*
X178226250Y-94683821D01*
X178250778Y-94679055D01*
X178277158Y-94665485D01*
X178308263Y-94641745D01*
X178335996Y-94616842D01*
X178416192Y-94549314D01*
X178497703Y-94496146D01*
X178581971Y-94456959D01*
X178670442Y-94431373D01*
X178764559Y-94419008D01*
X178865766Y-94419484D01*
X178975507Y-94432424D01*
X179012339Y-94439071D01*
X179090202Y-94450242D01*
X179172922Y-94455069D01*
X179257457Y-94453870D01*
X179340763Y-94446965D01*
X179419800Y-94434672D01*
X179491524Y-94417310D01*
X179552893Y-94395198D01*
X179584666Y-94379091D01*
X179620214Y-94353706D01*
X179652752Y-94322376D01*
X179677779Y-94289801D01*
X179687078Y-94272188D01*
X179700730Y-94250410D01*
X179721499Y-94228159D01*
X179730684Y-94220594D01*
X179743510Y-94209821D01*
X179754304Y-94197076D01*
X179763847Y-94180237D01*
X179772921Y-94157184D01*
X179782307Y-94125796D01*
X179792785Y-94083952D01*
X179805139Y-94029531D01*
X179811096Y-94002313D01*
X179830732Y-93920808D01*
X179851749Y-93852635D01*
X179859703Y-93833309D01*
X177360946Y-93833309D01*
X177359272Y-93882241D01*
X177345456Y-93924551D01*
X177339598Y-93934520D01*
X177324455Y-93951066D01*
X177309096Y-93952411D01*
X177291086Y-93938667D01*
X177289375Y-93936828D01*
X177269575Y-93910257D01*
X177253801Y-93877025D01*
X177240810Y-93833928D01*
X177230746Y-93785578D01*
X177219289Y-93731119D01*
X177205193Y-93685104D01*
X177186588Y-93644548D01*
X177176753Y-93629556D01*
X176779879Y-93629556D01*
X176776500Y-93657059D01*
X176759622Y-93681162D01*
X176744843Y-93692307D01*
X176728670Y-93694997D01*
X176707728Y-93688738D01*
X176678640Y-93673033D01*
X176670565Y-93668109D01*
X176642492Y-93646256D01*
X176615517Y-93617500D01*
X176602085Y-93599113D01*
X175445562Y-93599113D01*
X175438456Y-93615190D01*
X175419121Y-93626407D01*
X175390535Y-93632467D01*
X175355672Y-93633074D01*
X175317510Y-93627931D01*
X175279026Y-93616743D01*
X175276873Y-93615912D01*
X175218001Y-93584569D01*
X175165389Y-93539788D01*
X175120957Y-93483401D01*
X175100411Y-93447531D01*
X175089331Y-93414721D01*
X175087985Y-93382772D01*
X175096356Y-93356782D01*
X175100718Y-93350955D01*
X175117683Y-93337847D01*
X175134242Y-93338132D01*
X175152086Y-93352450D01*
X175170238Y-93377234D01*
X175216567Y-93437651D01*
X175270688Y-93488182D01*
X175329959Y-93526667D01*
X175377260Y-93546670D01*
X175414463Y-93561636D01*
X175436832Y-93577810D01*
X175445402Y-93595986D01*
X175445562Y-93599113D01*
X176602085Y-93599113D01*
X176592166Y-93585536D01*
X176574965Y-93554058D01*
X176566440Y-93526761D01*
X176566262Y-93515531D01*
X176574852Y-93501672D01*
X176593578Y-93496356D01*
X176619735Y-93498794D01*
X176650620Y-93508197D01*
X176683526Y-93523775D01*
X176715750Y-93544738D01*
X176740890Y-93566509D01*
X176768044Y-93599588D01*
X176779879Y-93629556D01*
X177176753Y-93629556D01*
X177161603Y-93606465D01*
X177128368Y-93567869D01*
X177085012Y-93525774D01*
X177046723Y-93491835D01*
X177016573Y-93464054D01*
X176999251Y-93443568D01*
X176994123Y-93429260D01*
X177000554Y-93420010D01*
X177004863Y-93417969D01*
X177019328Y-93419268D01*
X177043255Y-93428771D01*
X177073662Y-93444830D01*
X177107565Y-93465792D01*
X177141982Y-93490007D01*
X177158958Y-93503230D01*
X177214028Y-93553427D01*
X177261559Y-93607993D01*
X177300783Y-93665096D01*
X177330934Y-93722904D01*
X177351244Y-93779586D01*
X177360946Y-93833309D01*
X179859703Y-93833309D01*
X179875367Y-93795253D01*
X179902805Y-93746119D01*
X179935283Y-93702692D01*
X179974020Y-93662429D01*
X179974293Y-93662173D01*
X180003156Y-93636086D01*
X180026026Y-93618449D01*
X180047910Y-93606265D01*
X180073815Y-93596537D01*
X180094219Y-93590388D01*
X180153374Y-93570152D01*
X180197370Y-93547281D01*
X180226847Y-93520696D01*
X180242445Y-93489322D01*
X180244802Y-93452081D01*
X180234558Y-93407897D01*
X180227468Y-93390031D01*
X179801701Y-93390031D01*
X179793569Y-93410615D01*
X179774325Y-93422668D01*
X179742998Y-93426516D01*
X179702796Y-93423106D01*
X179666345Y-93419104D01*
X179623441Y-93416221D01*
X179584227Y-93415095D01*
X179519985Y-93414938D01*
X179487179Y-93453844D01*
X179465151Y-93476757D01*
X179437919Y-93500475D01*
X179408809Y-93522630D01*
X179381146Y-93540857D01*
X179358259Y-93552789D01*
X179343481Y-93556064D01*
X179332644Y-93547240D01*
X179328395Y-93535621D01*
X179331743Y-93513835D01*
X179345188Y-93485118D01*
X179366427Y-93452454D01*
X179393156Y-93418824D01*
X179423074Y-93387210D01*
X179453875Y-93360593D01*
X179474241Y-93346816D01*
X179537699Y-93318599D01*
X179605555Y-93305422D01*
X179676746Y-93307420D01*
X179720223Y-93315856D01*
X179759983Y-93330425D01*
X179787228Y-93350168D01*
X179800735Y-93373969D01*
X179801701Y-93390031D01*
X180227468Y-93390031D01*
X180221753Y-93375634D01*
X180211274Y-93344967D01*
X180208891Y-93315680D01*
X180215472Y-93286207D01*
X180231890Y-93254984D01*
X180259014Y-93220446D01*
X180297715Y-93181028D01*
X180348863Y-93135164D01*
X180361529Y-93124345D01*
X180384387Y-93098752D01*
X180391732Y-93073207D01*
X180383546Y-93046655D01*
X180359812Y-93018043D01*
X180359768Y-93018001D01*
X180323261Y-92992009D01*
X180278353Y-92976427D01*
X180222819Y-92970531D01*
X180213728Y-92970437D01*
X180160744Y-92964138D01*
X180104413Y-92946474D01*
X180050180Y-92919303D01*
X180035148Y-92909586D01*
X180016885Y-92894687D01*
X179990674Y-92870097D01*
X179958879Y-92838197D01*
X179923864Y-92801365D01*
X179887992Y-92761982D01*
X179883527Y-92756954D01*
X179829682Y-92696637D01*
X179783582Y-92646570D01*
X179742818Y-92604801D01*
X179704978Y-92569381D01*
X179667650Y-92538358D01*
X179628423Y-92509783D01*
X179584886Y-92481706D01*
X179534627Y-92452175D01*
X179475236Y-92419240D01*
X179447261Y-92404070D01*
X179378581Y-92364989D01*
X179323148Y-92328810D01*
X179278956Y-92294036D01*
X179244001Y-92259171D01*
X179229739Y-92241735D01*
X179190584Y-92180143D01*
X179166953Y-92117823D01*
X179158506Y-92053453D01*
X179164514Y-91987722D01*
X179177050Y-91935130D01*
X179194081Y-91891472D01*
X179218344Y-91851582D01*
X179252574Y-91810294D01*
X179266103Y-91795920D01*
X179292824Y-91767827D01*
X179315369Y-91743045D01*
X179335517Y-91719154D01*
X179355046Y-91693734D01*
X179375734Y-91664364D01*
X179399358Y-91628624D01*
X179427698Y-91584095D01*
X179461644Y-91529781D01*
X179505776Y-91459724D01*
X179544054Y-91401105D01*
X179578296Y-91351464D01*
X179610320Y-91308341D01*
X179641946Y-91269278D01*
X179674992Y-91231814D01*
X179707369Y-91197518D01*
X179771346Y-91135219D01*
X179837593Y-91078678D01*
X179907873Y-91026916D01*
X179983953Y-90978957D01*
X180067596Y-90933822D01*
X180160569Y-90890534D01*
X180264635Y-90848114D01*
X180381560Y-90805584D01*
X180466031Y-90777177D01*
X180514850Y-90761487D01*
X180562386Y-90746893D01*
X180611251Y-90732685D01*
X180664054Y-90718152D01*
X180723406Y-90702584D01*
X180791919Y-90685269D01*
X180872202Y-90665496D01*
X180910531Y-90656174D01*
X181061491Y-90613283D01*
X181203011Y-90559714D01*
X181338573Y-90494017D01*
X181438240Y-90436029D01*
X181470407Y-90416455D01*
X181497638Y-90400783D01*
X181517188Y-90390528D01*
X181526310Y-90387209D01*
X181526491Y-90387278D01*
X181530312Y-90396279D01*
X181534595Y-90415923D01*
X181536925Y-90431045D01*
X181545908Y-90476647D01*
X181561273Y-90530993D01*
X181581397Y-90589122D01*
X181604656Y-90646069D01*
X181613854Y-90666105D01*
X181630781Y-90704460D01*
X181640508Y-90735995D01*
X181643630Y-90766250D01*
X181640743Y-90800768D01*
X181632876Y-90843032D01*
X181617593Y-90900807D01*
X181597230Y-90948109D01*
X181569162Y-90990149D01*
X181544638Y-91018072D01*
X181518474Y-91048430D01*
X181504850Y-91073785D01*
X181503224Y-91098133D01*
X181513058Y-91125467D01*
X181526911Y-91149212D01*
X181545692Y-91185505D01*
X181550988Y-91215328D01*
X181542933Y-91240364D01*
X181534948Y-91250561D01*
X181524432Y-91265677D01*
X181519122Y-91285683D01*
X181517583Y-91315980D01*
X181513183Y-91362742D01*
X181499721Y-91411704D01*
X181476304Y-91465047D01*
X181442041Y-91524955D01*
X181415713Y-91565241D01*
X181368812Y-91637454D01*
X181332156Y-91701958D01*
X181304637Y-91762141D01*
X181285147Y-91821387D01*
X181272574Y-91883083D01*
X181265812Y-91950615D01*
X181263751Y-92027368D01*
X181263750Y-92029228D01*
X181263750Y-92102869D01*
X181218109Y-92142583D01*
X181145668Y-92209276D01*
X181074572Y-92281510D01*
X181010845Y-92353136D01*
X181004689Y-92360537D01*
X180978417Y-92392752D01*
X180955487Y-92422071D01*
X180934722Y-92450462D01*
X180914949Y-92479894D01*
X180894992Y-92512334D01*
X180873676Y-92549751D01*
X180849827Y-92594112D01*
X180822269Y-92647385D01*
X180789828Y-92711539D01*
X180762321Y-92766505D01*
X180718125Y-92854115D01*
X180678898Y-92929694D01*
X180643227Y-92995747D01*
X180609701Y-93054778D01*
X180576906Y-93109293D01*
X180543431Y-93161795D01*
X180517526Y-93200625D01*
X180497651Y-93230815D01*
X180481033Y-93257717D01*
X180469892Y-93277650D01*
X180466667Y-93285027D01*
X180465317Y-93310890D01*
X180472815Y-93348557D01*
X180488846Y-93396870D01*
X180513070Y-93454625D01*
X180538035Y-93512908D01*
X180554426Y-93560409D01*
X180562404Y-93599602D01*
X180562131Y-93632962D01*
X180553769Y-93662960D01*
X180537479Y-93692071D01*
X180529338Y-93703291D01*
X180514088Y-93725627D01*
X180503993Y-93744933D01*
X180501576Y-93753789D01*
X180496671Y-93775898D01*
X180482219Y-93808811D01*
X180457996Y-93852971D01*
X180423780Y-93908822D01*
X180422689Y-93910538D01*
X180401623Y-93944900D01*
X180382822Y-93977853D01*
X180368635Y-94005149D01*
X180362279Y-94019788D01*
X180351626Y-94068701D01*
X180356054Y-94112721D01*
X180375666Y-94152184D01*
X180410566Y-94187425D01*
X180414666Y-94190554D01*
X180434821Y-94207090D01*
X180448969Y-94223819D01*
X180460402Y-94245752D01*
X180472411Y-94277900D01*
X180472805Y-94279044D01*
X180495624Y-94359858D01*
X180505751Y-94432107D01*
X180503204Y-94495541D01*
X180488004Y-94549915D01*
X180460169Y-94594979D01*
X180446896Y-94609032D01*
X180431732Y-94624959D01*
X180423119Y-94636934D01*
X180422375Y-94639352D01*
X180426560Y-94649358D01*
X180437302Y-94667515D01*
X180446601Y-94681570D01*
X180461888Y-94706127D01*
X180480083Y-94738753D01*
X180497625Y-94773018D01*
X180500146Y-94778250D01*
X180514535Y-94809766D01*
X180523261Y-94834381D01*
X180527725Y-94858436D01*
X180529328Y-94888270D01*
X180529498Y-94911156D01*
X180523465Y-94981806D01*
X180506340Y-95052090D01*
X180479682Y-95116577D01*
X180461720Y-95147307D01*
X180431062Y-95183884D01*
X180388009Y-95221307D01*
X180335704Y-95257158D01*
X180277749Y-95288800D01*
X180244689Y-95304760D01*
X180213675Y-95319777D01*
X180189918Y-95331326D01*
X180184250Y-95334097D01*
X180162873Y-95349384D01*
X180143077Y-95374819D01*
X180130902Y-95396056D01*
X180111974Y-95436177D01*
X180097458Y-95477955D01*
X180086482Y-95525044D01*
X180078171Y-95581098D01*
X180072357Y-95640876D01*
X180067505Y-95691721D01*
X180061514Y-95730484D01*
X180053071Y-95760961D01*
X180040862Y-95786943D01*
X180023577Y-95812225D01*
X180005477Y-95834187D01*
X179954141Y-95882690D01*
X179888393Y-95926215D01*
X179809007Y-95964419D01*
X179716754Y-95996956D01*
X179612409Y-96023480D01*
X179557883Y-96034041D01*
X179499670Y-96045153D01*
X179455536Y-96055765D01*
X179423723Y-96066489D01*
X179402476Y-96077934D01*
X179390038Y-96090712D01*
X179388805Y-96092814D01*
X179384655Y-96105358D01*
X179382342Y-96125657D01*
X179381811Y-96155844D01*
X179383009Y-96198055D01*
X179385058Y-96239803D01*
X179384273Y-96257604D01*
X179376945Y-96269542D01*
X179359322Y-96281029D01*
X179354781Y-96283459D01*
X179316244Y-96295986D01*
X179266315Y-96299476D01*
X179206659Y-96293923D01*
X179158692Y-96284337D01*
X179125431Y-96277031D01*
X179101953Y-96274066D01*
X179082845Y-96275188D01*
X179063487Y-96279909D01*
X179011213Y-96303613D01*
X178966761Y-96340703D01*
X178930545Y-96390527D01*
X178902979Y-96452430D01*
X178884479Y-96525760D01*
X178878150Y-96572406D01*
X178877246Y-96621300D01*
X178885695Y-96658139D01*
X178903897Y-96683977D01*
X178925571Y-96697361D01*
X178942627Y-96703554D01*
X178960802Y-96707563D01*
X178983628Y-96709685D01*
X179014637Y-96710221D01*
X179057361Y-96709468D01*
X179066034Y-96709233D01*
X179113344Y-96711050D01*
X179149214Y-96720772D01*
X179176092Y-96740304D01*
X179196425Y-96771546D01*
X179212661Y-96816403D01*
X179215077Y-96825100D01*
X179221952Y-96845382D01*
X179231923Y-96857151D01*
X179250132Y-96865234D01*
X179261546Y-96868711D01*
X179292281Y-96874328D01*
X179338405Y-96877840D01*
X179399568Y-96879226D01*
X179418281Y-96879233D01*
X179465148Y-96878882D01*
X179499512Y-96877927D01*
X179524747Y-96875938D01*
X179544224Y-96872485D01*
X179561316Y-96867138D01*
X179579394Y-96859467D01*
X179581766Y-96858380D01*
X179617337Y-96839038D01*
X179643595Y-96818658D01*
X179658182Y-96799293D01*
X179660375Y-96789937D01*
X179665381Y-96777471D01*
X179679367Y-96755080D01*
X179700786Y-96724720D01*
X179728090Y-96688349D01*
X179759731Y-96647922D01*
X179794163Y-96605397D01*
X179829836Y-96562730D01*
X179865205Y-96521879D01*
X179898721Y-96484799D01*
X179916928Y-96465557D01*
X179967278Y-96414628D01*
X180014163Y-96370051D01*
X180060783Y-96329189D01*
X180110340Y-96289402D01*
X180166034Y-96248052D01*
X180231065Y-96202501D01*
X180259656Y-96183023D01*
X180332578Y-96131051D01*
X180394840Y-96081284D01*
X180445432Y-96034656D01*
X180483343Y-95992098D01*
X180507560Y-95954545D01*
X180507793Y-95954068D01*
X180518138Y-95927862D01*
X180523731Y-95899076D01*
X180525675Y-95861609D01*
X180525720Y-95854849D01*
X180528212Y-95790972D01*
X180535812Y-95725548D01*
X180549192Y-95653851D01*
X180562270Y-95597750D01*
X180598151Y-95482782D01*
X180646220Y-95377813D01*
X180706393Y-95283005D01*
X180764348Y-95213338D01*
X180814147Y-95160103D01*
X180820455Y-94972130D01*
X180824692Y-94862565D01*
X180829686Y-94766975D01*
X180835662Y-94683472D01*
X180842844Y-94610164D01*
X180851459Y-94545162D01*
X180861730Y-94486575D01*
X180873882Y-94432514D01*
X180888140Y-94381088D01*
X180892371Y-94367438D01*
X180931870Y-94261806D01*
X180980099Y-94165858D01*
X181017834Y-94106673D01*
X181041023Y-94075726D01*
X181057295Y-94058776D01*
X181066785Y-94055944D01*
X181069628Y-94067346D01*
X181065960Y-94093101D01*
X181055915Y-94133329D01*
X181054416Y-94138680D01*
X181045467Y-94172008D01*
X181038099Y-94204008D01*
X181032102Y-94236855D01*
X181027267Y-94272727D01*
X181023384Y-94313799D01*
X181020244Y-94362248D01*
X181017639Y-94420250D01*
X181015357Y-94489981D01*
X181013397Y-94565006D01*
X181007757Y-94798294D01*
X181030582Y-94793180D01*
X181065352Y-94785989D01*
X181111297Y-94777332D01*
X181163877Y-94767985D01*
X181218550Y-94758724D01*
X181270775Y-94750326D01*
X181316013Y-94743564D01*
X181339156Y-94740460D01*
X181380270Y-94734502D01*
X181408695Y-94728155D01*
X181427610Y-94720552D01*
X181437250Y-94713701D01*
X181460121Y-94688976D01*
X181486459Y-94654013D01*
X181513381Y-94613122D01*
X181538002Y-94570614D01*
X181553038Y-94540664D01*
X181573806Y-94498596D01*
X181593399Y-94466868D01*
X181615442Y-94440686D01*
X181643556Y-94415258D01*
X181654540Y-94406409D01*
X181678254Y-94388895D01*
X181697264Y-94379571D01*
X181718578Y-94375916D01*
X181740713Y-94375375D01*
X181787625Y-94375375D01*
X181787625Y-93654676D01*
X181286645Y-93654676D01*
X181285229Y-93692483D01*
X181277619Y-93741672D01*
X181262668Y-93781152D01*
X181238152Y-93816240D01*
X181229554Y-93825703D01*
X181203702Y-93845486D01*
X181178367Y-93851177D01*
X181155801Y-93842470D01*
X181149580Y-93836646D01*
X181142728Y-93827503D01*
X181141751Y-93818149D01*
X181147583Y-93804268D01*
X181161154Y-93781547D01*
X181161667Y-93780721D01*
X181177065Y-93752880D01*
X181184908Y-93728015D01*
X181187624Y-93697665D01*
X181187771Y-93689788D01*
X181187008Y-93659517D01*
X181182696Y-93638533D01*
X181173079Y-93620350D01*
X181166525Y-93611317D01*
X181145556Y-93581207D01*
X181135744Y-93559157D01*
X181136568Y-93542476D01*
X181147504Y-93528472D01*
X181150047Y-93526387D01*
X181175191Y-93512768D01*
X181200036Y-93513219D01*
X181227060Y-93528060D01*
X181238880Y-93537958D01*
X181265299Y-93569399D01*
X181280974Y-93607481D01*
X181286645Y-93654676D01*
X181787625Y-93654676D01*
X181787625Y-90009357D01*
X181765797Y-90000756D01*
X181696140Y-89974278D01*
X181613970Y-89944674D01*
X181522124Y-89912860D01*
X181423440Y-89879757D01*
X181320756Y-89846281D01*
X181216908Y-89813352D01*
X181114736Y-89781887D01*
X181017077Y-89752806D01*
X180926767Y-89727026D01*
X180882750Y-89714987D01*
X180834050Y-89701952D01*
X180793766Y-89691320D01*
X180757888Y-89682092D01*
X180722401Y-89673271D01*
X180683295Y-89663857D01*
X180636557Y-89652853D01*
X180581125Y-89639946D01*
X180288594Y-89577020D01*
X180005656Y-89526370D01*
X179731913Y-89487938D01*
X179466961Y-89461667D01*
X179251456Y-89448977D01*
X179124319Y-89443922D01*
X179011227Y-89500607D01*
G36*
X183049270Y-96978712D02*
G01*
X182935834Y-96978808D01*
X182807560Y-96978873D01*
X182779812Y-96978875D01*
X181994000Y-96978875D01*
X181994000Y-97010157D01*
X181992357Y-97031139D01*
X181988274Y-97044391D01*
X181986908Y-97045821D01*
X181977743Y-97043315D01*
X181960293Y-97032600D01*
X181938204Y-97015938D01*
X181936496Y-97014539D01*
X181893174Y-96978875D01*
X181724125Y-96978875D01*
X181724125Y-97010157D01*
X181722292Y-97031283D01*
X181717739Y-97044812D01*
X181716238Y-97046312D01*
X181706504Y-97044316D01*
X181687776Y-97034645D01*
X181663691Y-97019245D01*
X181657683Y-97015031D01*
X181607015Y-96978875D01*
X181462187Y-96978875D01*
X181462187Y-97014125D01*
X181460784Y-97036373D01*
X181457247Y-97051076D01*
X181455383Y-97053581D01*
X181446394Y-97051007D01*
X181428519Y-97040449D01*
X181405150Y-97023982D01*
X181397836Y-97018402D01*
X181347094Y-96979017D01*
X181261917Y-96978946D01*
X181176741Y-96978875D01*
X181181494Y-97013547D01*
X181182820Y-97036067D01*
X181180332Y-97050692D01*
X181178505Y-97053003D01*
X181169074Y-97050693D01*
X181150854Y-97040324D01*
X181127301Y-97023941D01*
X181120023Y-97018402D01*
X181069281Y-96979017D01*
X180899623Y-96978875D01*
X180904075Y-97006309D01*
X180906940Y-97033585D01*
X180903772Y-97047657D01*
X180893465Y-97048806D01*
X180874913Y-97037313D01*
X180853388Y-97019201D01*
X180808144Y-96978875D01*
X180636687Y-96978875D01*
X180636687Y-97014125D01*
X180635382Y-97036296D01*
X180632093Y-97050851D01*
X180630350Y-97053292D01*
X180621735Y-97050388D01*
X180604698Y-97039144D01*
X180582615Y-97021839D01*
X180578114Y-97018042D01*
X180532215Y-96978875D01*
X180372685Y-96978875D01*
X180376726Y-97014719D01*
X180377891Y-97036961D01*
X180376164Y-97051722D01*
X180374510Y-97054429D01*
X180365914Y-97051533D01*
X180348740Y-97040381D01*
X180326333Y-97023204D01*
X180320731Y-97018585D01*
X180273207Y-96978875D01*
X180112812Y-96978875D01*
X180112812Y-97013271D01*
X180111729Y-97035491D01*
X180109009Y-97050340D01*
X180107714Y-97052765D01*
X180099767Y-97050406D01*
X180083349Y-97039541D01*
X180061707Y-97022374D01*
X180057027Y-97018369D01*
X180011438Y-96978875D01*
X179581000Y-96978875D01*
X179581000Y-97256688D01*
X181305422Y-97255498D01*
X181470038Y-97255372D01*
X181630601Y-97255224D01*
X181786377Y-97255055D01*
X181936631Y-97254868D01*
X182080629Y-97254663D01*
X182217637Y-97254444D01*
X182346920Y-97254211D01*
X182467745Y-97253966D01*
X182579376Y-97253711D01*
X182681079Y-97253447D01*
X182772121Y-97253176D01*
X182851766Y-97252901D01*
X182919281Y-97252622D01*
X182973931Y-97252341D01*
X183014982Y-97252060D01*
X183041700Y-97251781D01*
X183053350Y-97251505D01*
X183053656Y-97251478D01*
X183134643Y-97240923D01*
X183202591Y-97229840D01*
X183260332Y-97217546D01*
X183310702Y-97203358D01*
X183356534Y-97186596D01*
X183394969Y-97169367D01*
X183447276Y-97141400D01*
X183487114Y-97113514D01*
X183517653Y-97083081D01*
X183542058Y-97047486D01*
X183549080Y-97036244D01*
X183555909Y-97026289D01*
X183561682Y-97017544D01*
X183565539Y-97009931D01*
X183566617Y-97003373D01*
X183564056Y-96997792D01*
X183556993Y-96993111D01*
X183544568Y-96989251D01*
X183525918Y-96986136D01*
X183500183Y-96983688D01*
X183466500Y-96981829D01*
X183424009Y-96980483D01*
X183371848Y-96979570D01*
X183309154Y-96979014D01*
X183235068Y-96978738D01*
X183148727Y-96978663D01*
X183049270Y-96978712D01*
G37*
X183049270Y-96978712D02*
X182935834Y-96978808D01*
X182807560Y-96978873D01*
X182779812Y-96978875D01*
X181994000Y-96978875D01*
X181994000Y-97010157D01*
X181992357Y-97031139D01*
X181988274Y-97044391D01*
X181986908Y-97045821D01*
X181977743Y-97043315D01*
X181960293Y-97032600D01*
X181938204Y-97015938D01*
X181936496Y-97014539D01*
X181893174Y-96978875D01*
X181724125Y-96978875D01*
X181724125Y-97010157D01*
X181722292Y-97031283D01*
X181717739Y-97044812D01*
X181716238Y-97046312D01*
X181706504Y-97044316D01*
X181687776Y-97034645D01*
X181663691Y-97019245D01*
X181657683Y-97015031D01*
X181607015Y-96978875D01*
X181462187Y-96978875D01*
X181462187Y-97014125D01*
X181460784Y-97036373D01*
X181457247Y-97051076D01*
X181455383Y-97053581D01*
X181446394Y-97051007D01*
X181428519Y-97040449D01*
X181405150Y-97023982D01*
X181397836Y-97018402D01*
X181347094Y-96979017D01*
X181261917Y-96978946D01*
X181176741Y-96978875D01*
X181181494Y-97013547D01*
X181182820Y-97036067D01*
X181180332Y-97050692D01*
X181178505Y-97053003D01*
X181169074Y-97050693D01*
X181150854Y-97040324D01*
X181127301Y-97023941D01*
X181120023Y-97018402D01*
X181069281Y-96979017D01*
X180899623Y-96978875D01*
X180904075Y-97006309D01*
X180906940Y-97033585D01*
X180903772Y-97047657D01*
X180893465Y-97048806D01*
X180874913Y-97037313D01*
X180853388Y-97019201D01*
X180808144Y-96978875D01*
X180636687Y-96978875D01*
X180636687Y-97014125D01*
X180635382Y-97036296D01*
X180632093Y-97050851D01*
X180630350Y-97053292D01*
X180621735Y-97050388D01*
X180604698Y-97039144D01*
X180582615Y-97021839D01*
X180578114Y-97018042D01*
X180532215Y-96978875D01*
X180372685Y-96978875D01*
X180376726Y-97014719D01*
X180377891Y-97036961D01*
X180376164Y-97051722D01*
X180374510Y-97054429D01*
X180365914Y-97051533D01*
X180348740Y-97040381D01*
X180326333Y-97023204D01*
X180320731Y-97018585D01*
X180273207Y-96978875D01*
X180112812Y-96978875D01*
X180112812Y-97013271D01*
X180111729Y-97035491D01*
X180109009Y-97050340D01*
X180107714Y-97052765D01*
X180099767Y-97050406D01*
X180083349Y-97039541D01*
X180061707Y-97022374D01*
X180057027Y-97018369D01*
X180011438Y-96978875D01*
X179581000Y-96978875D01*
X179581000Y-97256688D01*
X181305422Y-97255498D01*
X181470038Y-97255372D01*
X181630601Y-97255224D01*
X181786377Y-97255055D01*
X181936631Y-97254868D01*
X182080629Y-97254663D01*
X182217637Y-97254444D01*
X182346920Y-97254211D01*
X182467745Y-97253966D01*
X182579376Y-97253711D01*
X182681079Y-97253447D01*
X182772121Y-97253176D01*
X182851766Y-97252901D01*
X182919281Y-97252622D01*
X182973931Y-97252341D01*
X183014982Y-97252060D01*
X183041700Y-97251781D01*
X183053350Y-97251505D01*
X183053656Y-97251478D01*
X183134643Y-97240923D01*
X183202591Y-97229840D01*
X183260332Y-97217546D01*
X183310702Y-97203358D01*
X183356534Y-97186596D01*
X183394969Y-97169367D01*
X183447276Y-97141400D01*
X183487114Y-97113514D01*
X183517653Y-97083081D01*
X183542058Y-97047486D01*
X183549080Y-97036244D01*
X183555909Y-97026289D01*
X183561682Y-97017544D01*
X183565539Y-97009931D01*
X183566617Y-97003373D01*
X183564056Y-96997792D01*
X183556993Y-96993111D01*
X183544568Y-96989251D01*
X183525918Y-96986136D01*
X183500183Y-96983688D01*
X183466500Y-96981829D01*
X183424009Y-96980483D01*
X183371848Y-96979570D01*
X183309154Y-96979014D01*
X183235068Y-96978738D01*
X183148727Y-96978663D01*
X183049270Y-96978712D01*
G36*
X183654818Y-97050712D02*
G01*
X183623054Y-97082953D01*
X183589291Y-97114750D01*
X183557983Y-97142032D01*
X183537464Y-97158035D01*
X183454893Y-97208300D01*
X183363493Y-97248608D01*
X183267736Y-97277353D01*
X183172091Y-97292929D01*
X183159076Y-97293959D01*
X183128739Y-97296705D01*
X183106079Y-97300051D01*
X183094428Y-97303441D01*
X183093672Y-97304844D01*
X183102383Y-97309809D01*
X183122796Y-97318241D01*
X183151486Y-97328789D01*
X183172950Y-97336140D01*
X183255251Y-97370473D01*
X183325518Y-97414535D01*
X183370783Y-97454575D01*
X183390595Y-97473429D01*
X183406595Y-97482924D01*
X183425041Y-97485968D01*
X183438252Y-97485954D01*
X183464075Y-97484613D01*
X183485355Y-97482362D01*
X183490219Y-97481484D01*
X183547208Y-97465470D01*
X183613686Y-97441310D01*
X183686516Y-97410483D01*
X183762559Y-97374465D01*
X183838680Y-97334734D01*
X183911739Y-97292768D01*
X183971532Y-97254811D01*
X184017524Y-97222953D01*
X184064909Y-97188238D01*
X184111929Y-97152150D01*
X184156823Y-97116169D01*
X184197831Y-97081775D01*
X184233193Y-97050451D01*
X184261150Y-97023677D01*
X184279942Y-97002934D01*
X184287808Y-96989704D01*
X184287937Y-96988521D01*
X184284251Y-96985846D01*
X184272407Y-96983671D01*
X184251224Y-96981958D01*
X184219524Y-96980666D01*
X184176127Y-96979754D01*
X184119855Y-96979182D01*
X184049526Y-96978911D01*
X184005190Y-96978875D01*
X183722442Y-96978875D01*
X183654818Y-97050712D01*
G37*
X183654818Y-97050712D02*
X183623054Y-97082953D01*
X183589291Y-97114750D01*
X183557983Y-97142032D01*
X183537464Y-97158035D01*
X183454893Y-97208300D01*
X183363493Y-97248608D01*
X183267736Y-97277353D01*
X183172091Y-97292929D01*
X183159076Y-97293959D01*
X183128739Y-97296705D01*
X183106079Y-97300051D01*
X183094428Y-97303441D01*
X183093672Y-97304844D01*
X183102383Y-97309809D01*
X183122796Y-97318241D01*
X183151486Y-97328789D01*
X183172950Y-97336140D01*
X183255251Y-97370473D01*
X183325518Y-97414535D01*
X183370783Y-97454575D01*
X183390595Y-97473429D01*
X183406595Y-97482924D01*
X183425041Y-97485968D01*
X183438252Y-97485954D01*
X183464075Y-97484613D01*
X183485355Y-97482362D01*
X183490219Y-97481484D01*
X183547208Y-97465470D01*
X183613686Y-97441310D01*
X183686516Y-97410483D01*
X183762559Y-97374465D01*
X183838680Y-97334734D01*
X183911739Y-97292768D01*
X183971532Y-97254811D01*
X184017524Y-97222953D01*
X184064909Y-97188238D01*
X184111929Y-97152150D01*
X184156823Y-97116169D01*
X184197831Y-97081775D01*
X184233193Y-97050451D01*
X184261150Y-97023677D01*
X184279942Y-97002934D01*
X184287808Y-96989704D01*
X184287937Y-96988521D01*
X184284251Y-96985846D01*
X184272407Y-96983671D01*
X184251224Y-96981958D01*
X184219524Y-96980666D01*
X184176127Y-96979754D01*
X184119855Y-96979182D01*
X184049526Y-96978911D01*
X184005190Y-96978875D01*
X183722442Y-96978875D01*
X183654818Y-97050712D01*
G36*
X174469250Y-97582125D02*
G01*
X174786750Y-97582125D01*
X174786750Y-97026500D01*
X174469250Y-97026500D01*
X174469250Y-97582125D01*
G37*
X174469250Y-97582125D02*
X174786750Y-97582125D01*
X174786750Y-97026500D01*
X174469250Y-97026500D01*
X174469250Y-97582125D01*
G36*
X174882000Y-97582125D02*
G01*
X176633659Y-97582125D01*
X176638873Y-97409484D01*
X176640505Y-97350176D01*
X176641930Y-97288323D01*
X176643062Y-97228483D01*
X176643816Y-97175212D01*
X176644105Y-97133066D01*
X176644106Y-97131672D01*
X176644125Y-97026500D01*
X174882000Y-97026500D01*
X174882000Y-97582125D01*
G37*
X174882000Y-97582125D02*
X176633659Y-97582125D01*
X176638873Y-97409484D01*
X176640505Y-97350176D01*
X176641930Y-97288323D01*
X176643062Y-97228483D01*
X176643816Y-97175212D01*
X176644105Y-97133066D01*
X176644106Y-97131672D01*
X176644125Y-97026500D01*
X174882000Y-97026500D01*
X174882000Y-97582125D01*
G36*
X179292015Y-96995814D02*
G01*
X179253255Y-96997801D01*
X179223813Y-97001024D01*
X179213891Y-97003105D01*
X179184125Y-97011371D01*
X179184125Y-97268450D01*
X179184346Y-97331609D01*
X179184973Y-97390332D01*
X179185951Y-97442561D01*
X179187225Y-97486237D01*
X179188741Y-97519303D01*
X179190444Y-97539700D01*
X179191454Y-97544807D01*
X179201199Y-97561160D01*
X179210283Y-97568498D01*
X179235830Y-97574062D01*
X179276469Y-97576897D01*
X179332394Y-97577009D01*
X179392797Y-97574936D01*
X179437701Y-97572402D01*
X179468957Y-97569448D01*
X179488792Y-97565736D01*
X179499434Y-97560925D01*
X179501816Y-97558313D01*
X179503730Y-97547482D01*
X179505443Y-97522445D01*
X179506909Y-97484871D01*
X179508083Y-97436429D01*
X179508920Y-97378786D01*
X179509373Y-97313612D01*
X179509441Y-97279772D01*
X179509562Y-97013138D01*
X179478876Y-97003944D01*
X179456402Y-96999953D01*
X179422287Y-96997132D01*
X179380723Y-96995492D01*
X179335902Y-96995049D01*
X179292015Y-96995814D01*
G37*
X179292015Y-96995814D02*
X179253255Y-96997801D01*
X179223813Y-97001024D01*
X179213891Y-97003105D01*
X179184125Y-97011371D01*
X179184125Y-97268450D01*
X179184346Y-97331609D01*
X179184973Y-97390332D01*
X179185951Y-97442561D01*
X179187225Y-97486237D01*
X179188741Y-97519303D01*
X179190444Y-97539700D01*
X179191454Y-97544807D01*
X179201199Y-97561160D01*
X179210283Y-97568498D01*
X179235830Y-97574062D01*
X179276469Y-97576897D01*
X179332394Y-97577009D01*
X179392797Y-97574936D01*
X179437701Y-97572402D01*
X179468957Y-97569448D01*
X179488792Y-97565736D01*
X179499434Y-97560925D01*
X179501816Y-97558313D01*
X179503730Y-97547482D01*
X179505443Y-97522445D01*
X179506909Y-97484871D01*
X179508083Y-97436429D01*
X179508920Y-97378786D01*
X179509373Y-97313612D01*
X179509441Y-97279772D01*
X179509562Y-97013138D01*
X179478876Y-97003944D01*
X179456402Y-96999953D01*
X179422287Y-96997132D01*
X179380723Y-96995492D01*
X179335902Y-96995049D01*
X179292015Y-96995814D01*
G36*
X181245894Y-97304313D02*
G01*
X179596875Y-97304313D01*
X179596875Y-97582197D01*
X181289547Y-97581069D01*
X181453237Y-97580929D01*
X181613206Y-97580733D01*
X181768689Y-97580484D01*
X181918922Y-97580185D01*
X182063139Y-97579839D01*
X182200577Y-97579450D01*
X182330471Y-97579021D01*
X182452056Y-97578556D01*
X182564567Y-97578058D01*
X182667241Y-97577530D01*
X182759312Y-97576976D01*
X182840017Y-97576399D01*
X182908590Y-97575802D01*
X182964267Y-97575189D01*
X183006283Y-97574563D01*
X183033874Y-97573928D01*
X183045719Y-97573353D01*
X183099124Y-97566648D01*
X183151974Y-97557914D01*
X183201875Y-97547761D01*
X183246437Y-97536797D01*
X183283267Y-97525632D01*
X183309974Y-97514876D01*
X183324166Y-97505137D01*
X183325751Y-97501999D01*
X183320706Y-97489207D01*
X183303240Y-97471867D01*
X183275684Y-97451305D01*
X183240365Y-97428846D01*
X183199612Y-97405815D01*
X183155753Y-97383539D01*
X183111118Y-97363344D01*
X183068035Y-97346554D01*
X183033812Y-97335798D01*
X183020547Y-97332189D01*
X183008171Y-97328867D01*
X182996010Y-97325819D01*
X182983392Y-97323034D01*
X182969643Y-97320501D01*
X182954092Y-97318207D01*
X182936064Y-97316140D01*
X182914888Y-97314288D01*
X182889889Y-97312641D01*
X182860396Y-97311185D01*
X182825734Y-97309909D01*
X182785232Y-97308801D01*
X182738216Y-97307850D01*
X182684014Y-97307043D01*
X182621952Y-97306369D01*
X182551357Y-97305815D01*
X182471556Y-97305370D01*
X182381878Y-97305023D01*
X182281647Y-97304760D01*
X182170193Y-97304571D01*
X182046841Y-97304443D01*
X181910919Y-97304365D01*
X181761754Y-97304325D01*
X181598672Y-97304311D01*
X181421002Y-97304310D01*
X181245894Y-97304313D01*
G37*
X181245894Y-97304313D02*
X179596875Y-97304313D01*
X179596875Y-97582197D01*
X181289547Y-97581069D01*
X181453237Y-97580929D01*
X181613206Y-97580733D01*
X181768689Y-97580484D01*
X181918922Y-97580185D01*
X182063139Y-97579839D01*
X182200577Y-97579450D01*
X182330471Y-97579021D01*
X182452056Y-97578556D01*
X182564567Y-97578058D01*
X182667241Y-97577530D01*
X182759312Y-97576976D01*
X182840017Y-97576399D01*
X182908590Y-97575802D01*
X182964267Y-97575189D01*
X183006283Y-97574563D01*
X183033874Y-97573928D01*
X183045719Y-97573353D01*
X183099124Y-97566648D01*
X183151974Y-97557914D01*
X183201875Y-97547761D01*
X183246437Y-97536797D01*
X183283267Y-97525632D01*
X183309974Y-97514876D01*
X183324166Y-97505137D01*
X183325751Y-97501999D01*
X183320706Y-97489207D01*
X183303240Y-97471867D01*
X183275684Y-97451305D01*
X183240365Y-97428846D01*
X183199612Y-97405815D01*
X183155753Y-97383539D01*
X183111118Y-97363344D01*
X183068035Y-97346554D01*
X183033812Y-97335798D01*
X183020547Y-97332189D01*
X183008171Y-97328867D01*
X182996010Y-97325819D01*
X182983392Y-97323034D01*
X182969643Y-97320501D01*
X182954092Y-97318207D01*
X182936064Y-97316140D01*
X182914888Y-97314288D01*
X182889889Y-97312641D01*
X182860396Y-97311185D01*
X182825734Y-97309909D01*
X182785232Y-97308801D01*
X182738216Y-97307850D01*
X182684014Y-97307043D01*
X182621952Y-97306369D01*
X182551357Y-97305815D01*
X182471556Y-97305370D01*
X182381878Y-97305023D01*
X182281647Y-97304760D01*
X182170193Y-97304571D01*
X182046841Y-97304443D01*
X181910919Y-97304365D01*
X181761754Y-97304325D01*
X181598672Y-97304311D01*
X181421002Y-97304310D01*
X181245894Y-97304313D01*
G36*
X178882500Y-97748813D02*
G01*
X179120625Y-97748813D01*
X179120625Y-96772500D01*
X178882500Y-96772500D01*
X178882500Y-97748813D01*
G37*
X178882500Y-97748813D02*
X179120625Y-97748813D01*
X179120625Y-96772500D01*
X178882500Y-96772500D01*
X178882500Y-97748813D01*
G36*
X174585969Y-93793692D02*
G01*
X174563765Y-93811902D01*
X174547856Y-93839484D01*
X174540764Y-93857585D01*
X174537001Y-93874900D01*
X174536254Y-93896043D01*
X174538207Y-93925626D01*
X174540445Y-93948383D01*
X174547515Y-94001796D01*
X174557797Y-94051673D01*
X174572363Y-94100852D01*
X174592284Y-94152172D01*
X174618632Y-94208472D01*
X174652479Y-94272590D01*
X174683744Y-94328065D01*
X174747062Y-94438233D01*
X174747062Y-94585653D01*
X174747442Y-94645784D01*
X174748909Y-94692338D01*
X174751957Y-94727605D01*
X174757077Y-94753872D01*
X174764762Y-94773426D01*
X174775504Y-94788557D01*
X174789797Y-94801551D01*
X174794268Y-94804945D01*
X174816486Y-94818748D01*
X174845216Y-94833311D01*
X174860482Y-94839926D01*
X174901844Y-94856533D01*
X174907094Y-94988477D01*
X174913245Y-95091280D01*
X174923059Y-95186555D01*
X174936241Y-95273023D01*
X174952501Y-95349407D01*
X174971545Y-95414430D01*
X174993082Y-95466814D01*
X175016817Y-95505282D01*
X175028283Y-95517848D01*
X175055240Y-95534077D01*
X175094435Y-95544943D01*
X175142906Y-95549663D01*
X175149183Y-95549779D01*
X175198844Y-95556487D01*
X175253917Y-95574708D01*
X175310611Y-95603022D01*
X175338649Y-95620702D01*
X175370862Y-95641806D01*
X175403387Y-95661875D01*
X175430365Y-95677325D01*
X175435872Y-95680205D01*
X175474548Y-95701764D01*
X175497978Y-95719556D01*
X175506306Y-95733713D01*
X175503128Y-95741630D01*
X175495491Y-95745990D01*
X175481809Y-95747708D01*
X175459162Y-95746787D01*
X175424633Y-95743230D01*
X175411847Y-95741688D01*
X175373759Y-95736594D01*
X175346204Y-95731192D01*
X175323912Y-95723656D01*
X175301613Y-95712162D01*
X175274038Y-95694882D01*
X175270937Y-95692864D01*
X175215544Y-95659381D01*
X175170409Y-95637961D01*
X175135388Y-95628674D01*
X175110337Y-95631593D01*
X175095110Y-95646786D01*
X175089564Y-95674327D01*
X175093554Y-95714284D01*
X175106936Y-95766731D01*
X175108752Y-95772560D01*
X175119875Y-95805184D01*
X175131151Y-95829683D01*
X175145892Y-95851395D01*
X175167411Y-95875656D01*
X175182174Y-95890843D01*
X175231092Y-95933453D01*
X175281130Y-95961972D01*
X175335739Y-95978011D01*
X175378741Y-95982687D01*
X175427107Y-95990808D01*
X175472970Y-96009060D01*
X175512657Y-96035236D01*
X175542496Y-96067129D01*
X175554132Y-96088065D01*
X175572715Y-96113388D01*
X175601212Y-96129789D01*
X175635212Y-96135180D01*
X175650417Y-96133596D01*
X175669735Y-96126393D01*
X175692571Y-96110463D01*
X175721422Y-96083966D01*
X175731029Y-96074290D01*
X175762218Y-96043773D01*
X175790374Y-96020351D01*
X175818592Y-96002774D01*
X175849965Y-95989795D01*
X175887588Y-95980164D01*
X175934554Y-95972634D01*
X175993957Y-95965955D01*
X176001274Y-95965229D01*
X176060161Y-95959970D01*
X176105131Y-95957350D01*
X176137942Y-95957516D01*
X176160357Y-95960615D01*
X176174134Y-95966793D01*
X176181035Y-95976197D01*
X176182154Y-95980291D01*
X176176795Y-95993407D01*
X176156974Y-96009455D01*
X176149783Y-96013862D01*
X176129199Y-96024485D01*
X176108739Y-96030794D01*
X176083021Y-96033906D01*
X176048115Y-96034923D01*
X175994854Y-96037621D01*
X175954523Y-96044433D01*
X175927726Y-96055065D01*
X175915070Y-96069223D01*
X175917158Y-96086616D01*
X175923141Y-96095506D01*
X175934725Y-96104381D01*
X175959069Y-96118223D01*
X175996555Y-96137218D01*
X176047560Y-96161550D01*
X176112465Y-96191404D01*
X176191649Y-96226965D01*
X176207562Y-96234037D01*
X176249968Y-96253218D01*
X176291213Y-96272515D01*
X176327169Y-96289953D01*
X176353709Y-96303561D01*
X176358375Y-96306125D01*
X176452678Y-96365379D01*
X176532270Y-96429170D01*
X176597879Y-96498334D01*
X176650232Y-96573711D01*
X176690055Y-96656139D01*
X176708206Y-96709217D01*
X176712610Y-96725026D01*
X176716270Y-96740963D01*
X176719291Y-96758756D01*
X176721780Y-96780134D01*
X176723844Y-96806826D01*
X176725589Y-96840560D01*
X176727121Y-96883066D01*
X176728549Y-96936071D01*
X176729978Y-97001304D01*
X176731514Y-97080495D01*
X176731692Y-97090000D01*
X176733640Y-97184427D01*
X176735804Y-97264984D01*
X176738370Y-97333677D01*
X176741522Y-97392510D01*
X176745446Y-97443489D01*
X176750329Y-97488619D01*
X176756357Y-97529906D01*
X176763714Y-97569354D01*
X176772588Y-97608968D01*
X176783162Y-97650755D01*
X176783905Y-97653563D01*
X176796964Y-97696084D01*
X176814513Y-97744274D01*
X176833460Y-97789854D01*
X176840195Y-97804375D01*
X176861411Y-97845578D01*
X176882284Y-97878331D01*
X176907280Y-97908880D01*
X176936925Y-97939580D01*
X176991869Y-97987748D01*
X177049863Y-98025457D01*
X177113712Y-98053897D01*
X177186224Y-98074256D01*
X177270202Y-98087726D01*
X177291473Y-98089978D01*
X177332890Y-98093702D01*
X177366816Y-98095755D01*
X177398617Y-98096161D01*
X177433659Y-98094941D01*
X177477309Y-98092116D01*
X177495055Y-98090795D01*
X177525331Y-98087560D01*
X177549637Y-98083235D01*
X177563433Y-98078663D01*
X177564442Y-98077888D01*
X177570408Y-98066002D01*
X177577232Y-98043917D01*
X177581834Y-98024038D01*
X177586399Y-97989524D01*
X177583348Y-97963088D01*
X177571086Y-97943287D01*
X177548014Y-97928676D01*
X177512536Y-97917811D01*
X177463055Y-97909246D01*
X177453492Y-97907961D01*
X177374569Y-97889821D01*
X177300222Y-97857231D01*
X177233117Y-97811502D01*
X177204802Y-97785806D01*
X177154705Y-97727287D01*
X177118148Y-97664041D01*
X177094510Y-97594343D01*
X177083167Y-97516471D01*
X177082526Y-97447188D01*
X177085833Y-97398638D01*
X177092308Y-97360990D01*
X177103625Y-97329337D01*
X177121460Y-97298775D01*
X177143092Y-97269872D01*
X177166094Y-97234414D01*
X177185003Y-97189978D01*
X177200712Y-97134098D01*
X177211130Y-97082063D01*
X177222053Y-97012476D01*
X177228081Y-96954334D01*
X177229240Y-96903985D01*
X177225554Y-96857782D01*
X177217051Y-96812074D01*
X177213149Y-96796313D01*
X177188271Y-96714552D01*
X177155710Y-96628735D01*
X177116783Y-96541107D01*
X177072807Y-96453917D01*
X177025097Y-96369412D01*
X176974970Y-96289841D01*
X176923743Y-96217450D01*
X176872731Y-96154488D01*
X176823251Y-96103203D01*
X176791601Y-96076485D01*
X176753105Y-96049320D01*
X176717698Y-96029616D01*
X176679883Y-96015001D01*
X176634161Y-96003103D01*
X176609770Y-95998048D01*
X176562725Y-95986939D01*
X176527818Y-95973375D01*
X176501313Y-95954929D01*
X176479474Y-95929175D01*
X176463686Y-95903203D01*
X176429198Y-95851762D01*
X176389124Y-95813892D01*
X176341162Y-95787632D01*
X176318730Y-95779781D01*
X176293193Y-95772422D01*
X176273051Y-95768431D01*
X176253195Y-95767656D01*
X176228515Y-95769947D01*
X176193901Y-95775150D01*
X176189007Y-95775936D01*
X176129126Y-95784450D01*
X176082237Y-95788024D01*
X176046076Y-95786112D01*
X176018382Y-95778166D01*
X175996891Y-95763640D01*
X175979340Y-95741988D01*
X175968373Y-95722663D01*
X175945123Y-95688109D01*
X175910864Y-95651481D01*
X175869392Y-95616426D01*
X175830252Y-95589960D01*
X175784012Y-95562327D01*
X175688209Y-95564685D01*
X175594733Y-95562194D01*
X175512663Y-95549590D01*
X175440892Y-95526534D01*
X175378316Y-95492686D01*
X175331200Y-95454865D01*
X175302049Y-95425968D01*
X175284375Y-95403075D01*
X175277377Y-95382127D01*
X175280254Y-95359064D01*
X175292204Y-95329829D01*
X175302474Y-95309414D01*
X175321563Y-95268677D01*
X175331650Y-95234854D01*
X175331899Y-95205370D01*
X175321480Y-95177654D01*
X175299557Y-95149131D01*
X175265297Y-95117228D01*
X175231349Y-95089803D01*
X175171905Y-95038965D01*
X175126514Y-94989395D01*
X175093766Y-94938785D01*
X175072247Y-94884823D01*
X175060546Y-94825200D01*
X175058875Y-94807666D01*
X175058834Y-94747075D01*
X175069284Y-94689571D01*
X175091346Y-94629531D01*
X175096770Y-94617737D01*
X175119581Y-94551719D01*
X175127592Y-94483524D01*
X175121392Y-94414878D01*
X175101571Y-94347504D01*
X175068717Y-94283127D01*
X175023419Y-94223469D01*
X174966267Y-94170257D01*
X174936536Y-94148671D01*
X174905353Y-94126866D01*
X174867443Y-94099009D01*
X174828297Y-94069187D01*
X174802625Y-94048951D01*
X174754302Y-94007076D01*
X174718092Y-93967737D01*
X174691441Y-93927389D01*
X174671798Y-93882488D01*
X174663309Y-93855469D01*
X174653061Y-93822428D01*
X174643667Y-93802110D01*
X174633049Y-93791636D01*
X174619127Y-93788127D01*
X174614600Y-93788000D01*
X174585969Y-93793692D01*
G37*
X174585969Y-93793692D02*
X174563765Y-93811902D01*
X174547856Y-93839484D01*
X174540764Y-93857585D01*
X174537001Y-93874900D01*
X174536254Y-93896043D01*
X174538207Y-93925626D01*
X174540445Y-93948383D01*
X174547515Y-94001796D01*
X174557797Y-94051673D01*
X174572363Y-94100852D01*
X174592284Y-94152172D01*
X174618632Y-94208472D01*
X174652479Y-94272590D01*
X174683744Y-94328065D01*
X174747062Y-94438233D01*
X174747062Y-94585653D01*
X174747442Y-94645784D01*
X174748909Y-94692338D01*
X174751957Y-94727605D01*
X174757077Y-94753872D01*
X174764762Y-94773426D01*
X174775504Y-94788557D01*
X174789797Y-94801551D01*
X174794268Y-94804945D01*
X174816486Y-94818748D01*
X174845216Y-94833311D01*
X174860482Y-94839926D01*
X174901844Y-94856533D01*
X174907094Y-94988477D01*
X174913245Y-95091280D01*
X174923059Y-95186555D01*
X174936241Y-95273023D01*
X174952501Y-95349407D01*
X174971545Y-95414430D01*
X174993082Y-95466814D01*
X175016817Y-95505282D01*
X175028283Y-95517848D01*
X175055240Y-95534077D01*
X175094435Y-95544943D01*
X175142906Y-95549663D01*
X175149183Y-95549779D01*
X175198844Y-95556487D01*
X175253917Y-95574708D01*
X175310611Y-95603022D01*
X175338649Y-95620702D01*
X175370862Y-95641806D01*
X175403387Y-95661875D01*
X175430365Y-95677325D01*
X175435872Y-95680205D01*
X175474548Y-95701764D01*
X175497978Y-95719556D01*
X175506306Y-95733713D01*
X175503128Y-95741630D01*
X175495491Y-95745990D01*
X175481809Y-95747708D01*
X175459162Y-95746787D01*
X175424633Y-95743230D01*
X175411847Y-95741688D01*
X175373759Y-95736594D01*
X175346204Y-95731192D01*
X175323912Y-95723656D01*
X175301613Y-95712162D01*
X175274038Y-95694882D01*
X175270937Y-95692864D01*
X175215544Y-95659381D01*
X175170409Y-95637961D01*
X175135388Y-95628674D01*
X175110337Y-95631593D01*
X175095110Y-95646786D01*
X175089564Y-95674327D01*
X175093554Y-95714284D01*
X175106936Y-95766731D01*
X175108752Y-95772560D01*
X175119875Y-95805184D01*
X175131151Y-95829683D01*
X175145892Y-95851395D01*
X175167411Y-95875656D01*
X175182174Y-95890843D01*
X175231092Y-95933453D01*
X175281130Y-95961972D01*
X175335739Y-95978011D01*
X175378741Y-95982687D01*
X175427107Y-95990808D01*
X175472970Y-96009060D01*
X175512657Y-96035236D01*
X175542496Y-96067129D01*
X175554132Y-96088065D01*
X175572715Y-96113388D01*
X175601212Y-96129789D01*
X175635212Y-96135180D01*
X175650417Y-96133596D01*
X175669735Y-96126393D01*
X175692571Y-96110463D01*
X175721422Y-96083966D01*
X175731029Y-96074290D01*
X175762218Y-96043773D01*
X175790374Y-96020351D01*
X175818592Y-96002774D01*
X175849965Y-95989795D01*
X175887588Y-95980164D01*
X175934554Y-95972634D01*
X175993957Y-95965955D01*
X176001274Y-95965229D01*
X176060161Y-95959970D01*
X176105131Y-95957350D01*
X176137942Y-95957516D01*
X176160357Y-95960615D01*
X176174134Y-95966793D01*
X176181035Y-95976197D01*
X176182154Y-95980291D01*
X176176795Y-95993407D01*
X176156974Y-96009455D01*
X176149783Y-96013862D01*
X176129199Y-96024485D01*
X176108739Y-96030794D01*
X176083021Y-96033906D01*
X176048115Y-96034923D01*
X175994854Y-96037621D01*
X175954523Y-96044433D01*
X175927726Y-96055065D01*
X175915070Y-96069223D01*
X175917158Y-96086616D01*
X175923141Y-96095506D01*
X175934725Y-96104381D01*
X175959069Y-96118223D01*
X175996555Y-96137218D01*
X176047560Y-96161550D01*
X176112465Y-96191404D01*
X176191649Y-96226965D01*
X176207562Y-96234037D01*
X176249968Y-96253218D01*
X176291213Y-96272515D01*
X176327169Y-96289953D01*
X176353709Y-96303561D01*
X176358375Y-96306125D01*
X176452678Y-96365379D01*
X176532270Y-96429170D01*
X176597879Y-96498334D01*
X176650232Y-96573711D01*
X176690055Y-96656139D01*
X176708206Y-96709217D01*
X176712610Y-96725026D01*
X176716270Y-96740963D01*
X176719291Y-96758756D01*
X176721780Y-96780134D01*
X176723844Y-96806826D01*
X176725589Y-96840560D01*
X176727121Y-96883066D01*
X176728549Y-96936071D01*
X176729978Y-97001304D01*
X176731514Y-97080495D01*
X176731692Y-97090000D01*
X176733640Y-97184427D01*
X176735804Y-97264984D01*
X176738370Y-97333677D01*
X176741522Y-97392510D01*
X176745446Y-97443489D01*
X176750329Y-97488619D01*
X176756357Y-97529906D01*
X176763714Y-97569354D01*
X176772588Y-97608968D01*
X176783162Y-97650755D01*
X176783905Y-97653563D01*
X176796964Y-97696084D01*
X176814513Y-97744274D01*
X176833460Y-97789854D01*
X176840195Y-97804375D01*
X176861411Y-97845578D01*
X176882284Y-97878331D01*
X176907280Y-97908880D01*
X176936925Y-97939580D01*
X176991869Y-97987748D01*
X177049863Y-98025457D01*
X177113712Y-98053897D01*
X177186224Y-98074256D01*
X177270202Y-98087726D01*
X177291473Y-98089978D01*
X177332890Y-98093702D01*
X177366816Y-98095755D01*
X177398617Y-98096161D01*
X177433659Y-98094941D01*
X177477309Y-98092116D01*
X177495055Y-98090795D01*
X177525331Y-98087560D01*
X177549637Y-98083235D01*
X177563433Y-98078663D01*
X177564442Y-98077888D01*
X177570408Y-98066002D01*
X177577232Y-98043917D01*
X177581834Y-98024038D01*
X177586399Y-97989524D01*
X177583348Y-97963088D01*
X177571086Y-97943287D01*
X177548014Y-97928676D01*
X177512536Y-97917811D01*
X177463055Y-97909246D01*
X177453492Y-97907961D01*
X177374569Y-97889821D01*
X177300222Y-97857231D01*
X177233117Y-97811502D01*
X177204802Y-97785806D01*
X177154705Y-97727287D01*
X177118148Y-97664041D01*
X177094510Y-97594343D01*
X177083167Y-97516471D01*
X177082526Y-97447188D01*
X177085833Y-97398638D01*
X177092308Y-97360990D01*
X177103625Y-97329337D01*
X177121460Y-97298775D01*
X177143092Y-97269872D01*
X177166094Y-97234414D01*
X177185003Y-97189978D01*
X177200712Y-97134098D01*
X177211130Y-97082063D01*
X177222053Y-97012476D01*
X177228081Y-96954334D01*
X177229240Y-96903985D01*
X177225554Y-96857782D01*
X177217051Y-96812074D01*
X177213149Y-96796313D01*
X177188271Y-96714552D01*
X177155710Y-96628735D01*
X177116783Y-96541107D01*
X177072807Y-96453917D01*
X177025097Y-96369412D01*
X176974970Y-96289841D01*
X176923743Y-96217450D01*
X176872731Y-96154488D01*
X176823251Y-96103203D01*
X176791601Y-96076485D01*
X176753105Y-96049320D01*
X176717698Y-96029616D01*
X176679883Y-96015001D01*
X176634161Y-96003103D01*
X176609770Y-95998048D01*
X176562725Y-95986939D01*
X176527818Y-95973375D01*
X176501313Y-95954929D01*
X176479474Y-95929175D01*
X176463686Y-95903203D01*
X176429198Y-95851762D01*
X176389124Y-95813892D01*
X176341162Y-95787632D01*
X176318730Y-95779781D01*
X176293193Y-95772422D01*
X176273051Y-95768431D01*
X176253195Y-95767656D01*
X176228515Y-95769947D01*
X176193901Y-95775150D01*
X176189007Y-95775936D01*
X176129126Y-95784450D01*
X176082237Y-95788024D01*
X176046076Y-95786112D01*
X176018382Y-95778166D01*
X175996891Y-95763640D01*
X175979340Y-95741988D01*
X175968373Y-95722663D01*
X175945123Y-95688109D01*
X175910864Y-95651481D01*
X175869392Y-95616426D01*
X175830252Y-95589960D01*
X175784012Y-95562327D01*
X175688209Y-95564685D01*
X175594733Y-95562194D01*
X175512663Y-95549590D01*
X175440892Y-95526534D01*
X175378316Y-95492686D01*
X175331200Y-95454865D01*
X175302049Y-95425968D01*
X175284375Y-95403075D01*
X175277377Y-95382127D01*
X175280254Y-95359064D01*
X175292204Y-95329829D01*
X175302474Y-95309414D01*
X175321563Y-95268677D01*
X175331650Y-95234854D01*
X175331899Y-95205370D01*
X175321480Y-95177654D01*
X175299557Y-95149131D01*
X175265297Y-95117228D01*
X175231349Y-95089803D01*
X175171905Y-95038965D01*
X175126514Y-94989395D01*
X175093766Y-94938785D01*
X175072247Y-94884823D01*
X175060546Y-94825200D01*
X175058875Y-94807666D01*
X175058834Y-94747075D01*
X175069284Y-94689571D01*
X175091346Y-94629531D01*
X175096770Y-94617737D01*
X175119581Y-94551719D01*
X175127592Y-94483524D01*
X175121392Y-94414878D01*
X175101571Y-94347504D01*
X175068717Y-94283127D01*
X175023419Y-94223469D01*
X174966267Y-94170257D01*
X174936536Y-94148671D01*
X174905353Y-94126866D01*
X174867443Y-94099009D01*
X174828297Y-94069187D01*
X174802625Y-94048951D01*
X174754302Y-94007076D01*
X174718092Y-93967737D01*
X174691441Y-93927389D01*
X174671798Y-93882488D01*
X174663309Y-93855469D01*
X174653061Y-93822428D01*
X174643667Y-93802110D01*
X174633049Y-93791636D01*
X174619127Y-93788127D01*
X174614600Y-93788000D01*
X174585969Y-93793692D01*
G36*
X180369756Y-93485433D02*
G01*
X180365061Y-93502881D01*
X180363864Y-93509562D01*
X180351756Y-93544131D01*
X180328016Y-93579934D01*
X180295915Y-93612734D01*
X180269236Y-93632249D01*
X180247880Y-93643987D01*
X180226078Y-93651895D01*
X180198902Y-93657256D01*
X180161424Y-93661354D01*
X180155496Y-93661865D01*
X180110342Y-93666920D01*
X180078283Y-93674134D01*
X180056559Y-93684894D01*
X180042407Y-93700591D01*
X180033068Y-93722615D01*
X180032761Y-93723627D01*
X180015543Y-93755983D01*
X179988630Y-93783708D01*
X179967251Y-93804578D01*
X179947625Y-93830795D01*
X179928668Y-93864478D01*
X179909298Y-93907749D01*
X179888432Y-93962730D01*
X179870245Y-94015637D01*
X179855849Y-94059491D01*
X179845975Y-94092128D01*
X179839918Y-94117323D01*
X179836976Y-94138849D01*
X179836444Y-94160481D01*
X179837621Y-94185991D01*
X179837842Y-94189472D01*
X179844467Y-94245149D01*
X179857205Y-94310184D01*
X179875002Y-94381408D01*
X179896805Y-94455649D01*
X179921560Y-94529737D01*
X179948213Y-94600501D01*
X179975711Y-94664769D01*
X180003000Y-94719371D01*
X180026736Y-94757946D01*
X180041868Y-94779361D01*
X180071075Y-94762128D01*
X180096111Y-94752300D01*
X180130500Y-94745181D01*
X180169632Y-94741009D01*
X180208895Y-94740018D01*
X180243677Y-94742446D01*
X180269366Y-94748527D01*
X180275516Y-94751667D01*
X180292654Y-94768506D01*
X180294897Y-94785618D01*
X180283159Y-94801820D01*
X180258353Y-94815927D01*
X180221394Y-94826754D01*
X180216906Y-94827641D01*
X180191857Y-94832998D01*
X180173066Y-94838116D01*
X180167047Y-94840540D01*
X180163142Y-94851393D01*
X180162663Y-94875608D01*
X180164433Y-94899512D01*
X180166508Y-94929379D01*
X180166630Y-94954633D01*
X180164915Y-94969084D01*
X180156145Y-94980676D01*
X180137457Y-94997139D01*
X180112586Y-95015247D01*
X180107783Y-95018405D01*
X180057068Y-95054863D01*
X180009150Y-95096149D01*
X179966140Y-95139874D01*
X179930149Y-95183644D01*
X179903291Y-95225068D01*
X179887676Y-95261756D01*
X179885804Y-95269763D01*
X179875891Y-95297842D01*
X179856176Y-95333779D01*
X179828630Y-95374783D01*
X179795220Y-95418061D01*
X179757916Y-95460820D01*
X179732841Y-95486689D01*
X179690549Y-95525911D01*
X179649468Y-95557995D01*
X179606880Y-95584127D01*
X179560066Y-95605492D01*
X179506308Y-95623277D01*
X179442888Y-95638668D01*
X179367088Y-95652850D01*
X179342875Y-95656830D01*
X179278122Y-95667764D01*
X179225979Y-95677980D01*
X179183257Y-95688332D01*
X179146771Y-95699674D01*
X179113332Y-95712860D01*
X179085842Y-95725701D01*
X179016630Y-95765481D01*
X178962356Y-95808902D01*
X178925902Y-95851834D01*
X178905179Y-95879910D01*
X178878706Y-95912256D01*
X178852082Y-95942041D01*
X178851141Y-95943031D01*
X178824061Y-95973320D01*
X178794049Y-96009710D01*
X178766951Y-96045077D01*
X178763260Y-96050188D01*
X178739323Y-96082893D01*
X178713966Y-96116283D01*
X178691862Y-96144230D01*
X178687565Y-96149441D01*
X178670595Y-96170946D01*
X178647512Y-96201808D01*
X178621099Y-96238233D01*
X178594135Y-96276428D01*
X178588622Y-96284379D01*
X178530052Y-96367453D01*
X178476316Y-96439824D01*
X178424782Y-96504798D01*
X178372819Y-96565680D01*
X178317794Y-96625776D01*
X178311946Y-96631950D01*
X178243851Y-96704956D01*
X178187505Y-96768233D01*
X178143003Y-96821667D01*
X178110440Y-96865141D01*
X178089912Y-96898540D01*
X178087063Y-96904432D01*
X178078635Y-96925846D01*
X178073351Y-96948103D01*
X178070555Y-96975772D01*
X178069592Y-97013423D01*
X178069562Y-97026500D01*
X178075278Y-97110885D01*
X178092618Y-97185381D01*
X178122098Y-97251443D01*
X178164237Y-97310526D01*
X178174746Y-97322186D01*
X178211781Y-97361764D01*
X178214511Y-97435601D01*
X178212385Y-97507132D01*
X178199464Y-97570726D01*
X178174442Y-97630134D01*
X178136015Y-97689107D01*
X178118782Y-97710793D01*
X178076867Y-97753103D01*
X178022731Y-97795095D01*
X177959933Y-97834697D01*
X177892029Y-97869839D01*
X177822579Y-97898448D01*
X177767182Y-97915525D01*
X177736052Y-97924547D01*
X177709794Y-97934070D01*
X177693209Y-97942307D01*
X177691391Y-97943719D01*
X177676640Y-97966844D01*
X177672592Y-97996218D01*
X177678515Y-98027076D01*
X177693676Y-98054655D01*
X177710877Y-98070459D01*
X177734123Y-98082289D01*
X177762032Y-98089175D01*
X177798010Y-98091562D01*
X177845467Y-98089892D01*
X177855109Y-98089223D01*
X177957689Y-98074325D01*
X178059888Y-98045438D01*
X178158771Y-98003917D01*
X178251404Y-97951117D01*
X178334854Y-97888394D01*
X178378469Y-97847410D01*
X178432469Y-97785456D01*
X178474490Y-97721485D01*
X178506626Y-97653763D01*
X178525966Y-97605882D01*
X178530914Y-97012710D01*
X178535861Y-96419539D01*
X178574780Y-96378388D01*
X178598551Y-96355458D01*
X178622473Y-96335922D01*
X178640159Y-96324681D01*
X178682000Y-96313252D01*
X178727893Y-96315413D01*
X178774030Y-96330959D01*
X178775983Y-96331936D01*
X178801599Y-96343205D01*
X178824485Y-96350396D01*
X178834161Y-96351779D01*
X178849959Y-96345764D01*
X178872367Y-96329366D01*
X178898761Y-96305115D01*
X178926518Y-96275543D01*
X178953016Y-96243180D01*
X178967365Y-96223260D01*
X178995331Y-96192338D01*
X179028487Y-96175117D01*
X179067800Y-96171462D01*
X179114241Y-96181239D01*
X179154339Y-96197310D01*
X179191109Y-96210093D01*
X179229545Y-96216338D01*
X179264300Y-96215590D01*
X179287834Y-96208658D01*
X179299003Y-96194024D01*
X179303152Y-96167194D01*
X179300203Y-96130247D01*
X179292127Y-96092700D01*
X179285031Y-96054945D01*
X179287639Y-96026203D01*
X179300908Y-96002239D01*
X179316052Y-95986911D01*
X179339651Y-95970208D01*
X179369454Y-95957050D01*
X179407752Y-95946857D01*
X179456839Y-95939049D01*
X179519007Y-95933049D01*
X179533375Y-95932003D01*
X179589038Y-95927219D01*
X179632740Y-95921195D01*
X179668385Y-95913279D01*
X179693074Y-95905384D01*
X179767592Y-95872618D01*
X179828011Y-95833894D01*
X179874030Y-95789441D01*
X179902015Y-95746491D01*
X179917076Y-95711531D01*
X179921737Y-95686735D01*
X179915992Y-95670264D01*
X179901695Y-95660956D01*
X179878654Y-95657276D01*
X179849506Y-95662338D01*
X179812188Y-95676715D01*
X179771887Y-95697022D01*
X179740427Y-95712339D01*
X179720273Y-95717638D01*
X179710309Y-95712783D01*
X179709419Y-95697642D01*
X179711077Y-95689758D01*
X179727539Y-95655767D01*
X179757836Y-95625955D01*
X179800239Y-95601384D01*
X179853018Y-95583115D01*
X179899819Y-95573985D01*
X179931924Y-95568715D01*
X179953333Y-95562282D01*
X179969197Y-95552561D01*
X179982382Y-95539895D01*
X179996995Y-95519992D01*
X180013766Y-95490749D01*
X180029539Y-95457787D01*
X180032553Y-95450616D01*
X180056804Y-95392881D01*
X180077795Y-95347910D01*
X180097383Y-95313437D01*
X180117423Y-95287198D01*
X180139772Y-95266927D01*
X180166284Y-95250362D01*
X180198816Y-95235235D01*
X180214150Y-95228993D01*
X180293020Y-95191777D01*
X180358759Y-95148288D01*
X180410972Y-95099177D01*
X180449264Y-95045095D01*
X180473241Y-94986693D01*
X180482508Y-94924622D01*
X180476671Y-94859532D01*
X180464588Y-94815906D01*
X180450045Y-94782489D01*
X180428131Y-94742010D01*
X180401833Y-94699438D01*
X180374137Y-94659740D01*
X180359441Y-94640991D01*
X180341701Y-94617302D01*
X180331435Y-94595944D01*
X180328738Y-94573629D01*
X180333710Y-94547071D01*
X180346445Y-94512981D01*
X180364375Y-94473672D01*
X180388926Y-94415017D01*
X180401748Y-94366577D01*
X180402717Y-94327735D01*
X180391707Y-94297870D01*
X180368593Y-94276365D01*
X180333250Y-94262601D01*
X180321152Y-94260051D01*
X180268133Y-94244796D01*
X180228102Y-94220938D01*
X180201096Y-94189053D01*
X180187152Y-94149721D01*
X180186307Y-94103518D01*
X180198598Y-94051023D01*
X180224061Y-93992812D01*
X180262735Y-93929463D01*
X180296991Y-93883250D01*
X180351394Y-93812188D01*
X180394251Y-93750599D01*
X180425888Y-93697418D01*
X180446634Y-93651581D01*
X180456814Y-93612024D01*
X180456757Y-93577684D01*
X180446789Y-93547495D01*
X180427239Y-93520394D01*
X180412829Y-93506684D01*
X180393618Y-93491032D01*
X180379249Y-93480775D01*
X180374336Y-93478438D01*
X180369756Y-93485433D01*
G37*
X180369756Y-93485433D02*
X180365061Y-93502881D01*
X180363864Y-93509562D01*
X180351756Y-93544131D01*
X180328016Y-93579934D01*
X180295915Y-93612734D01*
X180269236Y-93632249D01*
X180247880Y-93643987D01*
X180226078Y-93651895D01*
X180198902Y-93657256D01*
X180161424Y-93661354D01*
X180155496Y-93661865D01*
X180110342Y-93666920D01*
X180078283Y-93674134D01*
X180056559Y-93684894D01*
X180042407Y-93700591D01*
X180033068Y-93722615D01*
X180032761Y-93723627D01*
X180015543Y-93755983D01*
X179988630Y-93783708D01*
X179967251Y-93804578D01*
X179947625Y-93830795D01*
X179928668Y-93864478D01*
X179909298Y-93907749D01*
X179888432Y-93962730D01*
X179870245Y-94015637D01*
X179855849Y-94059491D01*
X179845975Y-94092128D01*
X179839918Y-94117323D01*
X179836976Y-94138849D01*
X179836444Y-94160481D01*
X179837621Y-94185991D01*
X179837842Y-94189472D01*
X179844467Y-94245149D01*
X179857205Y-94310184D01*
X179875002Y-94381408D01*
X179896805Y-94455649D01*
X179921560Y-94529737D01*
X179948213Y-94600501D01*
X179975711Y-94664769D01*
X180003000Y-94719371D01*
X180026736Y-94757946D01*
X180041868Y-94779361D01*
X180071075Y-94762128D01*
X180096111Y-94752300D01*
X180130500Y-94745181D01*
X180169632Y-94741009D01*
X180208895Y-94740018D01*
X180243677Y-94742446D01*
X180269366Y-94748527D01*
X180275516Y-94751667D01*
X180292654Y-94768506D01*
X180294897Y-94785618D01*
X180283159Y-94801820D01*
X180258353Y-94815927D01*
X180221394Y-94826754D01*
X180216906Y-94827641D01*
X180191857Y-94832998D01*
X180173066Y-94838116D01*
X180167047Y-94840540D01*
X180163142Y-94851393D01*
X180162663Y-94875608D01*
X180164433Y-94899512D01*
X180166508Y-94929379D01*
X180166630Y-94954633D01*
X180164915Y-94969084D01*
X180156145Y-94980676D01*
X180137457Y-94997139D01*
X180112586Y-95015247D01*
X180107783Y-95018405D01*
X180057068Y-95054863D01*
X180009150Y-95096149D01*
X179966140Y-95139874D01*
X179930149Y-95183644D01*
X179903291Y-95225068D01*
X179887676Y-95261756D01*
X179885804Y-95269763D01*
X179875891Y-95297842D01*
X179856176Y-95333779D01*
X179828630Y-95374783D01*
X179795220Y-95418061D01*
X179757916Y-95460820D01*
X179732841Y-95486689D01*
X179690549Y-95525911D01*
X179649468Y-95557995D01*
X179606880Y-95584127D01*
X179560066Y-95605492D01*
X179506308Y-95623277D01*
X179442888Y-95638668D01*
X179367088Y-95652850D01*
X179342875Y-95656830D01*
X179278122Y-95667764D01*
X179225979Y-95677980D01*
X179183257Y-95688332D01*
X179146771Y-95699674D01*
X179113332Y-95712860D01*
X179085842Y-95725701D01*
X179016630Y-95765481D01*
X178962356Y-95808902D01*
X178925902Y-95851834D01*
X178905179Y-95879910D01*
X178878706Y-95912256D01*
X178852082Y-95942041D01*
X178851141Y-95943031D01*
X178824061Y-95973320D01*
X178794049Y-96009710D01*
X178766951Y-96045077D01*
X178763260Y-96050188D01*
X178739323Y-96082893D01*
X178713966Y-96116283D01*
X178691862Y-96144230D01*
X178687565Y-96149441D01*
X178670595Y-96170946D01*
X178647512Y-96201808D01*
X178621099Y-96238233D01*
X178594135Y-96276428D01*
X178588622Y-96284379D01*
X178530052Y-96367453D01*
X178476316Y-96439824D01*
X178424782Y-96504798D01*
X178372819Y-96565680D01*
X178317794Y-96625776D01*
X178311946Y-96631950D01*
X178243851Y-96704956D01*
X178187505Y-96768233D01*
X178143003Y-96821667D01*
X178110440Y-96865141D01*
X178089912Y-96898540D01*
X178087063Y-96904432D01*
X178078635Y-96925846D01*
X178073351Y-96948103D01*
X178070555Y-96975772D01*
X178069592Y-97013423D01*
X178069562Y-97026500D01*
X178075278Y-97110885D01*
X178092618Y-97185381D01*
X178122098Y-97251443D01*
X178164237Y-97310526D01*
X178174746Y-97322186D01*
X178211781Y-97361764D01*
X178214511Y-97435601D01*
X178212385Y-97507132D01*
X178199464Y-97570726D01*
X178174442Y-97630134D01*
X178136015Y-97689107D01*
X178118782Y-97710793D01*
X178076867Y-97753103D01*
X178022731Y-97795095D01*
X177959933Y-97834697D01*
X177892029Y-97869839D01*
X177822579Y-97898448D01*
X177767182Y-97915525D01*
X177736052Y-97924547D01*
X177709794Y-97934070D01*
X177693209Y-97942307D01*
X177691391Y-97943719D01*
X177676640Y-97966844D01*
X177672592Y-97996218D01*
X177678515Y-98027076D01*
X177693676Y-98054655D01*
X177710877Y-98070459D01*
X177734123Y-98082289D01*
X177762032Y-98089175D01*
X177798010Y-98091562D01*
X177845467Y-98089892D01*
X177855109Y-98089223D01*
X177957689Y-98074325D01*
X178059888Y-98045438D01*
X178158771Y-98003917D01*
X178251404Y-97951117D01*
X178334854Y-97888394D01*
X178378469Y-97847410D01*
X178432469Y-97785456D01*
X178474490Y-97721485D01*
X178506626Y-97653763D01*
X178525966Y-97605882D01*
X178530914Y-97012710D01*
X178535861Y-96419539D01*
X178574780Y-96378388D01*
X178598551Y-96355458D01*
X178622473Y-96335922D01*
X178640159Y-96324681D01*
X178682000Y-96313252D01*
X178727893Y-96315413D01*
X178774030Y-96330959D01*
X178775983Y-96331936D01*
X178801599Y-96343205D01*
X178824485Y-96350396D01*
X178834161Y-96351779D01*
X178849959Y-96345764D01*
X178872367Y-96329366D01*
X178898761Y-96305115D01*
X178926518Y-96275543D01*
X178953016Y-96243180D01*
X178967365Y-96223260D01*
X178995331Y-96192338D01*
X179028487Y-96175117D01*
X179067800Y-96171462D01*
X179114241Y-96181239D01*
X179154339Y-96197310D01*
X179191109Y-96210093D01*
X179229545Y-96216338D01*
X179264300Y-96215590D01*
X179287834Y-96208658D01*
X179299003Y-96194024D01*
X179303152Y-96167194D01*
X179300203Y-96130247D01*
X179292127Y-96092700D01*
X179285031Y-96054945D01*
X179287639Y-96026203D01*
X179300908Y-96002239D01*
X179316052Y-95986911D01*
X179339651Y-95970208D01*
X179369454Y-95957050D01*
X179407752Y-95946857D01*
X179456839Y-95939049D01*
X179519007Y-95933049D01*
X179533375Y-95932003D01*
X179589038Y-95927219D01*
X179632740Y-95921195D01*
X179668385Y-95913279D01*
X179693074Y-95905384D01*
X179767592Y-95872618D01*
X179828011Y-95833894D01*
X179874030Y-95789441D01*
X179902015Y-95746491D01*
X179917076Y-95711531D01*
X179921737Y-95686735D01*
X179915992Y-95670264D01*
X179901695Y-95660956D01*
X179878654Y-95657276D01*
X179849506Y-95662338D01*
X179812188Y-95676715D01*
X179771887Y-95697022D01*
X179740427Y-95712339D01*
X179720273Y-95717638D01*
X179710309Y-95712783D01*
X179709419Y-95697642D01*
X179711077Y-95689758D01*
X179727539Y-95655767D01*
X179757836Y-95625955D01*
X179800239Y-95601384D01*
X179853018Y-95583115D01*
X179899819Y-95573985D01*
X179931924Y-95568715D01*
X179953333Y-95562282D01*
X179969197Y-95552561D01*
X179982382Y-95539895D01*
X179996995Y-95519992D01*
X180013766Y-95490749D01*
X180029539Y-95457787D01*
X180032553Y-95450616D01*
X180056804Y-95392881D01*
X180077795Y-95347910D01*
X180097383Y-95313437D01*
X180117423Y-95287198D01*
X180139772Y-95266927D01*
X180166284Y-95250362D01*
X180198816Y-95235235D01*
X180214150Y-95228993D01*
X180293020Y-95191777D01*
X180358759Y-95148288D01*
X180410972Y-95099177D01*
X180449264Y-95045095D01*
X180473241Y-94986693D01*
X180482508Y-94924622D01*
X180476671Y-94859532D01*
X180464588Y-94815906D01*
X180450045Y-94782489D01*
X180428131Y-94742010D01*
X180401833Y-94699438D01*
X180374137Y-94659740D01*
X180359441Y-94640991D01*
X180341701Y-94617302D01*
X180331435Y-94595944D01*
X180328738Y-94573629D01*
X180333710Y-94547071D01*
X180346445Y-94512981D01*
X180364375Y-94473672D01*
X180388926Y-94415017D01*
X180401748Y-94366577D01*
X180402717Y-94327735D01*
X180391707Y-94297870D01*
X180368593Y-94276365D01*
X180333250Y-94262601D01*
X180321152Y-94260051D01*
X180268133Y-94244796D01*
X180228102Y-94220938D01*
X180201096Y-94189053D01*
X180187152Y-94149721D01*
X180186307Y-94103518D01*
X180198598Y-94051023D01*
X180224061Y-93992812D01*
X180262735Y-93929463D01*
X180296991Y-93883250D01*
X180351394Y-93812188D01*
X180394251Y-93750599D01*
X180425888Y-93697418D01*
X180446634Y-93651581D01*
X180456814Y-93612024D01*
X180456757Y-93577684D01*
X180446789Y-93547495D01*
X180427239Y-93520394D01*
X180412829Y-93506684D01*
X180393618Y-93491032D01*
X180379249Y-93480775D01*
X180374336Y-93478438D01*
X180369756Y-93485433D01*
G36*
X178674415Y-96387932D02*
G01*
X178649387Y-96401701D01*
X178647983Y-96403045D01*
X178628500Y-96422528D01*
X178628500Y-97316380D01*
X178628572Y-97477780D01*
X178628790Y-97623336D01*
X178629152Y-97753078D01*
X178629661Y-97867038D01*
X178630315Y-97965245D01*
X178631115Y-98047730D01*
X178632061Y-98114523D01*
X178633154Y-98165655D01*
X178634394Y-98201157D01*
X178635781Y-98221058D01*
X178636673Y-98225502D01*
X178655849Y-98246017D01*
X178684376Y-98259075D01*
X178716947Y-98263316D01*
X178748253Y-98257377D01*
X178752951Y-98255314D01*
X178769025Y-98241741D01*
X178778867Y-98226086D01*
X178780338Y-98216592D01*
X178781629Y-98195408D01*
X178782743Y-98162142D01*
X178783682Y-98116401D01*
X178784450Y-98057794D01*
X178785048Y-97985927D01*
X178785481Y-97900410D01*
X178785750Y-97800848D01*
X178785859Y-97686850D01*
X178785810Y-97558023D01*
X178785605Y-97413976D01*
X178785385Y-97309563D01*
X178783281Y-96413908D01*
X178764543Y-96398735D01*
X178738336Y-96386214D01*
X178706179Y-96382691D01*
X178674415Y-96387932D01*
G37*
X178674415Y-96387932D02*
X178649387Y-96401701D01*
X178647983Y-96403045D01*
X178628500Y-96422528D01*
X178628500Y-97316380D01*
X178628572Y-97477780D01*
X178628790Y-97623336D01*
X178629152Y-97753078D01*
X178629661Y-97867038D01*
X178630315Y-97965245D01*
X178631115Y-98047730D01*
X178632061Y-98114523D01*
X178633154Y-98165655D01*
X178634394Y-98201157D01*
X178635781Y-98221058D01*
X178636673Y-98225502D01*
X178655849Y-98246017D01*
X178684376Y-98259075D01*
X178716947Y-98263316D01*
X178748253Y-98257377D01*
X178752951Y-98255314D01*
X178769025Y-98241741D01*
X178778867Y-98226086D01*
X178780338Y-98216592D01*
X178781629Y-98195408D01*
X178782743Y-98162142D01*
X178783682Y-98116401D01*
X178784450Y-98057794D01*
X178785048Y-97985927D01*
X178785481Y-97900410D01*
X178785750Y-97800848D01*
X178785859Y-97686850D01*
X178785810Y-97558023D01*
X178785605Y-97413976D01*
X178785385Y-97309563D01*
X178783281Y-96413908D01*
X178764543Y-96398735D01*
X178738336Y-96386214D01*
X178706179Y-96382691D01*
X178674415Y-96387932D01*
G36*
X179219174Y-97769609D02*
G01*
X179181859Y-97783076D01*
X179148379Y-97803753D01*
X179132087Y-97819330D01*
X179107779Y-97841778D01*
X179077644Y-97856667D01*
X179039081Y-97864679D01*
X178989488Y-97866498D01*
X178957618Y-97865170D01*
X178874562Y-97860089D01*
X178874562Y-98046799D01*
X178874409Y-98111687D01*
X178873652Y-98162913D01*
X178871851Y-98202694D01*
X178868563Y-98233241D01*
X178863345Y-98256768D01*
X178855755Y-98275490D01*
X178845351Y-98291621D01*
X178831690Y-98307373D01*
X178820133Y-98319179D01*
X178779104Y-98349981D01*
X178733240Y-98367145D01*
X178685116Y-98371077D01*
X178637307Y-98362179D01*
X178592386Y-98340855D01*
X178552929Y-98307509D01*
X178527542Y-98273313D01*
X178501888Y-98230383D01*
X178506885Y-98058509D01*
X178508126Y-98006586D01*
X178508759Y-97958941D01*
X178508789Y-97918248D01*
X178508220Y-97887180D01*
X178507059Y-97868412D01*
X178506540Y-97865349D01*
X178496664Y-97848351D01*
X178481892Y-97844698D01*
X178466873Y-97855144D01*
X178464536Y-97858526D01*
X178443466Y-97887523D01*
X178413465Y-97922633D01*
X178378069Y-97960138D01*
X178340812Y-97996321D01*
X178305229Y-98027463D01*
X178299619Y-98031974D01*
X178230455Y-98081183D01*
X178156182Y-98122731D01*
X178074819Y-98157325D01*
X177984383Y-98185671D01*
X177882894Y-98208477D01*
X177768370Y-98226449D01*
X177746890Y-98229144D01*
X177710624Y-98233542D01*
X177701137Y-98334474D01*
X177697942Y-98366221D01*
X177694375Y-98395782D01*
X177689974Y-98425535D01*
X177684280Y-98457856D01*
X177676833Y-98495122D01*
X177667174Y-98539708D01*
X177654842Y-98593992D01*
X177639378Y-98660350D01*
X177632075Y-98691391D01*
X177614088Y-98790212D01*
X177606137Y-98892982D01*
X177608256Y-99001794D01*
X177620479Y-99118744D01*
X177641035Y-99237094D01*
X177662660Y-99330649D01*
X177687156Y-99412573D01*
X177714149Y-99482048D01*
X177743265Y-99538256D01*
X177774132Y-99580379D01*
X177806376Y-99607601D01*
X177811489Y-99610441D01*
X177839867Y-99619175D01*
X177872537Y-99621062D01*
X177898250Y-99616239D01*
X177910279Y-99608961D01*
X177929789Y-99594541D01*
X177949844Y-99578340D01*
X177984723Y-99551006D01*
X178018974Y-99529050D01*
X178056640Y-99510487D01*
X178101764Y-99493334D01*
X178158389Y-99475605D01*
X178160187Y-99475078D01*
X178246553Y-99447631D01*
X178326195Y-99417257D01*
X178402062Y-99382373D01*
X178477107Y-99341397D01*
X178554281Y-99292746D01*
X178636535Y-99234838D01*
X178705614Y-99182617D01*
X178778760Y-99125969D01*
X178779312Y-98671983D01*
X178829720Y-98605155D01*
X178934794Y-98456422D01*
X179036457Y-98293286D01*
X179135012Y-98115245D01*
X179182141Y-98022656D01*
X179204627Y-97977467D01*
X179226089Y-97934667D01*
X179244995Y-97897292D01*
X179259810Y-97868373D01*
X179268425Y-97852000D01*
X179280602Y-97823445D01*
X179285707Y-97797924D01*
X179285591Y-97792469D01*
X179282228Y-97776505D01*
X179272852Y-97769105D01*
X179253793Y-97766206D01*
X179219174Y-97769609D01*
G37*
X179219174Y-97769609D02*
X179181859Y-97783076D01*
X179148379Y-97803753D01*
X179132087Y-97819330D01*
X179107779Y-97841778D01*
X179077644Y-97856667D01*
X179039081Y-97864679D01*
X178989488Y-97866498D01*
X178957618Y-97865170D01*
X178874562Y-97860089D01*
X178874562Y-98046799D01*
X178874409Y-98111687D01*
X178873652Y-98162913D01*
X178871851Y-98202694D01*
X178868563Y-98233241D01*
X178863345Y-98256768D01*
X178855755Y-98275490D01*
X178845351Y-98291621D01*
X178831690Y-98307373D01*
X178820133Y-98319179D01*
X178779104Y-98349981D01*
X178733240Y-98367145D01*
X178685116Y-98371077D01*
X178637307Y-98362179D01*
X178592386Y-98340855D01*
X178552929Y-98307509D01*
X178527542Y-98273313D01*
X178501888Y-98230383D01*
X178506885Y-98058509D01*
X178508126Y-98006586D01*
X178508759Y-97958941D01*
X178508789Y-97918248D01*
X178508220Y-97887180D01*
X178507059Y-97868412D01*
X178506540Y-97865349D01*
X178496664Y-97848351D01*
X178481892Y-97844698D01*
X178466873Y-97855144D01*
X178464536Y-97858526D01*
X178443466Y-97887523D01*
X178413465Y-97922633D01*
X178378069Y-97960138D01*
X178340812Y-97996321D01*
X178305229Y-98027463D01*
X178299619Y-98031974D01*
X178230455Y-98081183D01*
X178156182Y-98122731D01*
X178074819Y-98157325D01*
X177984383Y-98185671D01*
X177882894Y-98208477D01*
X177768370Y-98226449D01*
X177746890Y-98229144D01*
X177710624Y-98233542D01*
X177701137Y-98334474D01*
X177697942Y-98366221D01*
X177694375Y-98395782D01*
X177689974Y-98425535D01*
X177684280Y-98457856D01*
X177676833Y-98495122D01*
X177667174Y-98539708D01*
X177654842Y-98593992D01*
X177639378Y-98660350D01*
X177632075Y-98691391D01*
X177614088Y-98790212D01*
X177606137Y-98892982D01*
X177608256Y-99001794D01*
X177620479Y-99118744D01*
X177641035Y-99237094D01*
X177662660Y-99330649D01*
X177687156Y-99412573D01*
X177714149Y-99482048D01*
X177743265Y-99538256D01*
X177774132Y-99580379D01*
X177806376Y-99607601D01*
X177811489Y-99610441D01*
X177839867Y-99619175D01*
X177872537Y-99621062D01*
X177898250Y-99616239D01*
X177910279Y-99608961D01*
X177929789Y-99594541D01*
X177949844Y-99578340D01*
X177984723Y-99551006D01*
X178018974Y-99529050D01*
X178056640Y-99510487D01*
X178101764Y-99493334D01*
X178158389Y-99475605D01*
X178160187Y-99475078D01*
X178246553Y-99447631D01*
X178326195Y-99417257D01*
X178402062Y-99382373D01*
X178477107Y-99341397D01*
X178554281Y-99292746D01*
X178636535Y-99234838D01*
X178705614Y-99182617D01*
X178778760Y-99125969D01*
X178779312Y-98671983D01*
X178829720Y-98605155D01*
X178934794Y-98456422D01*
X179036457Y-98293286D01*
X179135012Y-98115245D01*
X179182141Y-98022656D01*
X179204627Y-97977467D01*
X179226089Y-97934667D01*
X179244995Y-97897292D01*
X179259810Y-97868373D01*
X179268425Y-97852000D01*
X179280602Y-97823445D01*
X179285707Y-97797924D01*
X179285591Y-97792469D01*
X179282228Y-97776505D01*
X179272852Y-97769105D01*
X179253793Y-97766206D01*
X179219174Y-97769609D01*
G36*
X173842206Y-99774035D02*
G01*
X173781225Y-99775862D01*
X173728032Y-99778999D01*
X173686739Y-99783446D01*
X173679940Y-99784551D01*
X173521579Y-99819488D01*
X173373986Y-99866826D01*
X173235754Y-99927203D01*
X173105476Y-100001259D01*
X172981744Y-100089633D01*
X172947817Y-100117251D01*
X172831938Y-100224853D01*
X172729888Y-100342216D01*
X172641668Y-100469340D01*
X172567278Y-100606226D01*
X172506717Y-100752874D01*
X172459986Y-100909283D01*
X172434550Y-101029940D01*
X172429827Y-101068201D01*
X172426413Y-101119227D01*
X172424310Y-101178909D01*
X172423517Y-101243135D01*
X172424034Y-101307794D01*
X172425861Y-101368775D01*
X172428998Y-101421968D01*
X172433445Y-101463261D01*
X172434550Y-101470060D01*
X172471159Y-101633614D01*
X172521598Y-101787405D01*
X172585867Y-101931435D01*
X172663965Y-102065704D01*
X172755893Y-102190211D01*
X172861651Y-102304957D01*
X172947817Y-102382750D01*
X173070863Y-102475982D01*
X173199761Y-102554348D01*
X173335956Y-102618516D01*
X173480894Y-102669155D01*
X173636021Y-102706931D01*
X173658780Y-102711259D01*
X173689072Y-102715399D01*
X173731301Y-102719242D01*
X173781623Y-102722633D01*
X173836195Y-102725416D01*
X173891172Y-102727437D01*
X173942713Y-102728540D01*
X173986973Y-102728571D01*
X174020109Y-102727373D01*
X174031189Y-102726282D01*
X174092780Y-102717469D01*
X174142093Y-102709744D01*
X174183668Y-102702283D01*
X174222046Y-102694262D01*
X174261768Y-102684856D01*
X174268101Y-102683280D01*
X174414505Y-102638062D01*
X174554978Y-102577565D01*
X174688303Y-102502764D01*
X174813261Y-102414639D01*
X174928634Y-102314167D01*
X175033204Y-102202326D01*
X175125753Y-102080095D01*
X175205063Y-101948451D01*
X175220396Y-101918757D01*
X175277895Y-101789547D01*
X175323423Y-101654261D01*
X175358128Y-101509348D01*
X175365449Y-101470060D01*
X175370173Y-101431800D01*
X175373586Y-101380774D01*
X175375689Y-101321092D01*
X175376449Y-101259503D01*
X175107081Y-101259503D01*
X175105698Y-101330544D01*
X175102127Y-101396673D01*
X175096368Y-101453552D01*
X175090729Y-101486988D01*
X175055694Y-101616913D01*
X175007569Y-101742363D01*
X174947710Y-101860613D01*
X174877469Y-101968936D01*
X174809910Y-102051950D01*
X174761891Y-102104849D01*
X174433222Y-102104849D01*
X174433222Y-101199217D01*
X173800549Y-101199528D01*
X173167877Y-101199838D01*
X172995164Y-101500367D01*
X172957800Y-101564959D01*
X172922905Y-101624470D01*
X172891393Y-101677404D01*
X172864176Y-101722262D01*
X172842167Y-101757549D01*
X172826279Y-101781767D01*
X172817425Y-101793418D01*
X172815990Y-101794175D01*
X172807627Y-101780379D01*
X172795582Y-101754012D01*
X172781210Y-101718668D01*
X172765867Y-101677936D01*
X172750908Y-101635407D01*
X172737689Y-101594674D01*
X172728006Y-101561030D01*
X172711259Y-101490705D01*
X172699840Y-101425720D01*
X172693200Y-101360636D01*
X172690793Y-101290012D01*
X172692072Y-101208407D01*
X172692192Y-101204842D01*
X172696063Y-101127328D01*
X172702475Y-101061204D01*
X172712354Y-101001012D01*
X172726624Y-100941292D01*
X172746212Y-100876585D01*
X172749552Y-100866453D01*
X172796731Y-100745256D01*
X172855021Y-100633696D01*
X172926163Y-100528989D01*
X173011897Y-100428352D01*
X173044623Y-100394624D01*
X173144401Y-100303630D01*
X173247292Y-100227794D01*
X173356123Y-100165349D01*
X173473717Y-100114529D01*
X173516452Y-100099500D01*
X173576444Y-100080511D01*
X173629852Y-100066252D01*
X173680979Y-100056100D01*
X173734129Y-100049431D01*
X173793604Y-100045622D01*
X173863707Y-100044048D01*
X173900000Y-100043902D01*
X173976223Y-100044667D01*
X174039885Y-100047379D01*
X174095299Y-100052667D01*
X174146778Y-100061157D01*
X174198637Y-100073477D01*
X174255190Y-100090255D01*
X174284568Y-100099842D01*
X174408327Y-100148484D01*
X174522902Y-100209328D01*
X174630595Y-100283814D01*
X174733709Y-100373384D01*
X174755376Y-100394624D01*
X174851128Y-100500743D01*
X174931390Y-100612552D01*
X174996953Y-100731513D01*
X175048612Y-100859088D01*
X175087158Y-100996740D01*
X175090729Y-101013013D01*
X175098099Y-101060305D01*
X175103281Y-101120044D01*
X175106275Y-101187890D01*
X175107081Y-101259503D01*
X175376449Y-101259503D01*
X175376482Y-101256866D01*
X175375965Y-101192207D01*
X175374138Y-101131226D01*
X175371001Y-101078033D01*
X175366554Y-101036740D01*
X175365449Y-101029940D01*
X175328840Y-100866387D01*
X175278401Y-100712596D01*
X175214132Y-100568566D01*
X175136034Y-100434297D01*
X175044106Y-100309790D01*
X174938348Y-100195044D01*
X174852182Y-100117251D01*
X174730043Y-100024721D01*
X174601755Y-99946689D01*
X174465910Y-99882516D01*
X174321101Y-99831564D01*
X174165922Y-99793191D01*
X174120060Y-99784551D01*
X174081799Y-99779827D01*
X174030773Y-99776414D01*
X173971091Y-99774311D01*
X173906865Y-99773518D01*
X173842206Y-99774035D01*
G37*
X173842206Y-99774035D02*
X173781225Y-99775862D01*
X173728032Y-99778999D01*
X173686739Y-99783446D01*
X173679940Y-99784551D01*
X173521579Y-99819488D01*
X173373986Y-99866826D01*
X173235754Y-99927203D01*
X173105476Y-100001259D01*
X172981744Y-100089633D01*
X172947817Y-100117251D01*
X172831938Y-100224853D01*
X172729888Y-100342216D01*
X172641668Y-100469340D01*
X172567278Y-100606226D01*
X172506717Y-100752874D01*
X172459986Y-100909283D01*
X172434550Y-101029940D01*
X172429827Y-101068201D01*
X172426413Y-101119227D01*
X172424310Y-101178909D01*
X172423517Y-101243135D01*
X172424034Y-101307794D01*
X172425861Y-101368775D01*
X172428998Y-101421968D01*
X172433445Y-101463261D01*
X172434550Y-101470060D01*
X172471159Y-101633614D01*
X172521598Y-101787405D01*
X172585867Y-101931435D01*
X172663965Y-102065704D01*
X172755893Y-102190211D01*
X172861651Y-102304957D01*
X172947817Y-102382750D01*
X173070863Y-102475982D01*
X173199761Y-102554348D01*
X173335956Y-102618516D01*
X173480894Y-102669155D01*
X173636021Y-102706931D01*
X173658780Y-102711259D01*
X173689072Y-102715399D01*
X173731301Y-102719242D01*
X173781623Y-102722633D01*
X173836195Y-102725416D01*
X173891172Y-102727437D01*
X173942713Y-102728540D01*
X173986973Y-102728571D01*
X174020109Y-102727373D01*
X174031189Y-102726282D01*
X174092780Y-102717469D01*
X174142093Y-102709744D01*
X174183668Y-102702283D01*
X174222046Y-102694262D01*
X174261768Y-102684856D01*
X174268101Y-102683280D01*
X174414505Y-102638062D01*
X174554978Y-102577565D01*
X174688303Y-102502764D01*
X174813261Y-102414639D01*
X174928634Y-102314167D01*
X175033204Y-102202326D01*
X175125753Y-102080095D01*
X175205063Y-101948451D01*
X175220396Y-101918757D01*
X175277895Y-101789547D01*
X175323423Y-101654261D01*
X175358128Y-101509348D01*
X175365449Y-101470060D01*
X175370173Y-101431800D01*
X175373586Y-101380774D01*
X175375689Y-101321092D01*
X175376449Y-101259503D01*
X175107081Y-101259503D01*
X175105698Y-101330544D01*
X175102127Y-101396673D01*
X175096368Y-101453552D01*
X175090729Y-101486988D01*
X175055694Y-101616913D01*
X175007569Y-101742363D01*
X174947710Y-101860613D01*
X174877469Y-101968936D01*
X174809910Y-102051950D01*
X174761891Y-102104849D01*
X174433222Y-102104849D01*
X174433222Y-101199217D01*
X173800549Y-101199528D01*
X173167877Y-101199838D01*
X172995164Y-101500367D01*
X172957800Y-101564959D01*
X172922905Y-101624470D01*
X172891393Y-101677404D01*
X172864176Y-101722262D01*
X172842167Y-101757549D01*
X172826279Y-101781767D01*
X172817425Y-101793418D01*
X172815990Y-101794175D01*
X172807627Y-101780379D01*
X172795582Y-101754012D01*
X172781210Y-101718668D01*
X172765867Y-101677936D01*
X172750908Y-101635407D01*
X172737689Y-101594674D01*
X172728006Y-101561030D01*
X172711259Y-101490705D01*
X172699840Y-101425720D01*
X172693200Y-101360636D01*
X172690793Y-101290012D01*
X172692072Y-101208407D01*
X172692192Y-101204842D01*
X172696063Y-101127328D01*
X172702475Y-101061204D01*
X172712354Y-101001012D01*
X172726624Y-100941292D01*
X172746212Y-100876585D01*
X172749552Y-100866453D01*
X172796731Y-100745256D01*
X172855021Y-100633696D01*
X172926163Y-100528989D01*
X173011897Y-100428352D01*
X173044623Y-100394624D01*
X173144401Y-100303630D01*
X173247292Y-100227794D01*
X173356123Y-100165349D01*
X173473717Y-100114529D01*
X173516452Y-100099500D01*
X173576444Y-100080511D01*
X173629852Y-100066252D01*
X173680979Y-100056100D01*
X173734129Y-100049431D01*
X173793604Y-100045622D01*
X173863707Y-100044048D01*
X173900000Y-100043902D01*
X173976223Y-100044667D01*
X174039885Y-100047379D01*
X174095299Y-100052667D01*
X174146778Y-100061157D01*
X174198637Y-100073477D01*
X174255190Y-100090255D01*
X174284568Y-100099842D01*
X174408327Y-100148484D01*
X174522902Y-100209328D01*
X174630595Y-100283814D01*
X174733709Y-100373384D01*
X174755376Y-100394624D01*
X174851128Y-100500743D01*
X174931390Y-100612552D01*
X174996953Y-100731513D01*
X175048612Y-100859088D01*
X175087158Y-100996740D01*
X175090729Y-101013013D01*
X175098099Y-101060305D01*
X175103281Y-101120044D01*
X175106275Y-101187890D01*
X175107081Y-101259503D01*
X175376449Y-101259503D01*
X175376482Y-101256866D01*
X175375965Y-101192207D01*
X175374138Y-101131226D01*
X175371001Y-101078033D01*
X175366554Y-101036740D01*
X175365449Y-101029940D01*
X175328840Y-100866387D01*
X175278401Y-100712596D01*
X175214132Y-100568566D01*
X175136034Y-100434297D01*
X175044106Y-100309790D01*
X174938348Y-100195044D01*
X174852182Y-100117251D01*
X174730043Y-100024721D01*
X174601755Y-99946689D01*
X174465910Y-99882516D01*
X174321101Y-99831564D01*
X174165922Y-99793191D01*
X174120060Y-99784551D01*
X174081799Y-99779827D01*
X174030773Y-99776414D01*
X173971091Y-99774311D01*
X173906865Y-99773518D01*
X173842206Y-99774035D01*
%TD*%
D12*
%TO.C,J8*%
X113200000Y-108350000D03*
%TD*%
%TO.C,J8*%
X112100000Y-108350000D03*
%TD*%
%TO.C,J8*%
X111000000Y-108350000D03*
%TD*%
%TO.C,J8*%
X109900000Y-108350000D03*
%TD*%
D13*
%TO.C,REF\u002A\u002A*%
X111200000Y-97800000D03*
%TD*%
%TO.C,REF\u002A\u002A*%
X111200000Y-85800000D03*
%TD*%
%TO.C,REF\u002A\u002A*%
X111200000Y-73750000D03*
%TD*%
%TO.C,J4*%
G36*
G01*
X168192000Y-111350000D02*
X168192000Y-107950000D01*
G75*
G02*
X168992000Y-107150000I800000J0D01*
G01*
X170592000Y-107150000D01*
G75*
G02*
X171392000Y-107950000I0J-800000D01*
G01*
X171392000Y-111350000D01*
G75*
G02*
X170592000Y-112150000I-800000J0D01*
G01*
X168992000Y-112150000D01*
G75*
G02*
X168192000Y-111350000I0J800000D01*
G01*
G37*
G36*
G01*
X172256000Y-111370000D02*
X172256000Y-107970000D01*
G75*
G02*
X173056000Y-107170000I800000J0D01*
G01*
X174656000Y-107170000D01*
G75*
G02*
X175456000Y-107970000I0J-800000D01*
G01*
X175456000Y-111370000D01*
G75*
G02*
X174656000Y-112170000I-800000J0D01*
G01*
X173056000Y-112170000D01*
G75*
G02*
X172256000Y-111370000I0J800000D01*
G01*
G37*
%TD*%
D14*
%TO.C,J3*%
X157200000Y-72700000D03*
D15*
X159740000Y-72700000D03*
X162280000Y-72700000D03*
X164820000Y-72700000D03*
X167360000Y-72700000D03*
%TD*%
D16*
%TO.C,U4*%
X149950003Y-77349998D03*
X150650004Y-76399997D03*
X149250001Y-76399997D03*
X149950003Y-75449997D03*
%TD*%
%TO.C,U6*%
X149949997Y-92900000D03*
X149249996Y-93850001D03*
X150649999Y-93850001D03*
X149949997Y-94800001D03*
%TD*%
%TO.C,U5*%
X148550003Y-84500003D03*
X147600003Y-83800001D03*
X147600003Y-85200004D03*
X146650002Y-84500003D03*
%TD*%
D14*
%TO.C,J2*%
X156300000Y-96700000D03*
D15*
X158840000Y-96700000D03*
X161380000Y-96700000D03*
X163920000Y-96700000D03*
%TD*%
D17*
%TO.C,J5*%
X113650000Y-105610000D03*
X129250000Y-105610000D03*
D18*
X116450000Y-108310000D03*
X117450000Y-108310000D03*
X118450000Y-108310000D03*
X119450000Y-108310000D03*
X120450000Y-108310000D03*
X121450000Y-108310000D03*
X122450000Y-108310000D03*
X123450000Y-108310000D03*
X124450000Y-108310000D03*
X125450000Y-108310000D03*
X126450000Y-108310000D03*
%TD*%
M02*
