M48
; DRILL file {KiCad (5.1.8)-1} date 11/11/20 18:37:19
; FORMAT={-:-/ absolute / inch / decimal}
; #@! TF.CreationDate,2020-11-11T18:37:19-08:00
; #@! TF.GenerationSoftware,Kicad,Pcbnew,(5.1.8)-1
; #@! TF.FileFunction,Plated,1,4,PTH
FMAT,2
INCH
T1C0.0080
T2C0.0118
T3C0.0157
T4C0.0197
T5C0.0256
T6C0.0394
T7C0.0630
%
G90
G05
T1
X5.8484Y-3.3268
X5.876Y-3.0079
X5.9035Y-3.0453
X5.9311Y-3.0079
X5.876Y-3.6949
X5.9035Y-3.6575
X5.9035Y-3.7323
X5.9311Y-3.6949
X5.7736Y-3.3268
X5.811Y-3.2992
X5.811Y-3.3543
X5.9035Y-2.9705
T2
X4.6181Y-3.0472
X4.6181Y-3.0965
X4.6181Y-3.1476
X4.6181Y-3.1969
X4.6181Y-3.5217
X4.6181Y-3.5709
X4.6181Y-3.622
X4.6181Y-3.9941
X4.6181Y-4.0433
X4.6181Y-4.0945
T3
X4.2756Y-2.813
X4.2756Y-2.8917
X4.2756Y-2.9705
X4.2756Y-3.0512
X4.2756Y-3.1299
X4.2756Y-3.2087
X4.2756Y-3.2874
X4.2756Y-3.3661
X4.2756Y-3.4449
X4.2756Y-3.5236
X4.2756Y-3.6024
X4.2756Y-3.6811
X4.2756Y-3.7598
X4.2756Y-3.8386
X4.2756Y-3.9173
X4.2756Y-3.9961
X4.2756Y-4.0748
X4.2756Y-4.1535
X4.2756Y-4.2323
X4.3307Y-3.0512
X4.3307Y-3.1299
X4.3307Y-3.2087
X4.3307Y-3.5236
X4.3307Y-3.6024
X4.3307Y-3.6811
X4.3307Y-3.9961
X4.3307Y-4.0748
X4.3307Y-4.1535
X4.3858Y-3.0512
X4.3858Y-3.1299
X4.3858Y-3.2087
X4.3858Y-3.5236
X4.3858Y-3.6024
X4.3858Y-3.6811
X4.3858Y-3.9961
X4.3858Y-4.0748
X4.3858Y-4.1535
X4.4587Y-3.0669
X4.4587Y-3.1161
X4.4587Y-3.1654
X4.4587Y-3.2146
X4.4587Y-3.5394
X4.4587Y-3.5886
X4.4587Y-3.6378
X4.4587Y-3.687
X4.4587Y-4.0138
X4.4587Y-4.063
X4.4587Y-4.1024
X4.4606Y-2.8228
X4.4606Y-2.872
X4.4606Y-2.9213
X4.4606Y-2.9862
X4.4606Y-3.2972
X4.4606Y-3.3465
X4.4606Y-3.3957
X4.4606Y-3.4606
X4.4606Y-3.7697
X4.4606Y-3.8189
X4.4606Y-3.8681
X4.4606Y-3.9331
X4.5079Y-3.0669
X4.5079Y-3.1161
X4.5079Y-3.1654
X4.5079Y-3.2146
X4.5079Y-3.5394
X4.5079Y-3.5886
X4.5079Y-3.6378
X4.5079Y-3.687
X4.5079Y-4.0138
X4.5079Y-4.063
X4.5079Y-4.1024
X4.5098Y-2.8228
X4.5098Y-2.872
X4.5098Y-2.9213
X4.5098Y-2.9862
X4.5098Y-3.2972
X4.5098Y-3.3465
X4.5098Y-3.3957
X4.5098Y-3.4606
X4.5098Y-3.7697
X4.5098Y-3.8189
X4.5098Y-3.8681
X4.5098Y-3.9331
X4.5571Y-3.0669
X4.5571Y-3.1161
X4.5571Y-3.1654
X4.5571Y-3.2146
X4.5571Y-3.5394
X4.5571Y-3.5886
X4.5571Y-3.6378
X4.5571Y-3.687
X4.5571Y-4.0138
X4.5571Y-4.063
X4.5571Y-4.1122
X4.5571Y-4.1614
X4.5591Y-2.8228
X4.5591Y-2.872
X4.5591Y-2.9213
X4.5591Y-2.9862
X4.5591Y-3.2972
X4.5591Y-3.3465
X4.5591Y-3.3957
X4.5591Y-3.4606
X4.5591Y-3.7697
X4.5591Y-3.8189
X4.5591Y-3.8681
X4.5591Y-3.9331
X4.6083Y-2.8228
X4.6083Y-2.872
X4.6083Y-2.9213
X4.6083Y-2.9862
X4.6083Y-3.2972
X4.6083Y-3.3465
X4.6083Y-3.3957
X4.6083Y-3.4606
X4.6083Y-3.7697
X4.6083Y-3.8189
X4.6083Y-3.8681
X4.6083Y-3.9331
X4.7106Y-2.9252
X4.7106Y-2.9724
X4.7106Y-3.0906
X4.7598Y-2.9252
X4.7598Y-2.9724
X4.7598Y-3.0906
X4.7598Y-3.3996
X4.7598Y-3.4469
X4.7598Y-3.563
X4.8051Y-3.3996
X4.8051Y-3.4469
X4.815Y-2.939
X4.815Y-2.9843
X4.8209Y-4.252
X4.8228Y-3.0433
X4.8248Y-3.8957
X4.8248Y-3.9409
X4.8262Y-3.5092
X4.8268Y-3.9843
X4.8346Y-3.7972
X4.8583Y-3.6457
X4.8583Y-3.7185
X4.8602Y-4.252
X4.8996Y-4.252
X4.9055Y-3.6791
X4.9055Y-3.7205
X4.9154Y-3.2067
X4.9154Y-3.248
X4.939Y-4.252
X4.9508Y-3.6791
X4.9508Y-3.7205
X4.9528Y-3.939
X4.9547Y-3.8012
X4.9606Y-3.2067
X4.9606Y-3.248
X4.9626Y-3.5945
X4.9685Y-3.0472
X4.9921Y-3.7205
X5.0118Y-3.939
X5.0138Y-3.8071
X5.0138Y-3.874
X5.1043Y-3.2441
X5.1142Y-3.7441
X5.1299Y-3.8602
X5.1299Y-3.9016
X5.1299Y-3.9429
X5.1417Y-3.061
X5.1752Y-3.8602
X5.1752Y-3.9016
X5.185Y-4.0315
X5.185Y-4.0728
X5.185Y-4.1457
X5.185Y-4.187
X5.2283Y-2.876
X5.2303Y-4.0315
X5.2303Y-4.0728
X5.2303Y-4.1457
X5.2303Y-4.187
X5.2344Y-3.494
X5.2362Y-3.5433
X5.2382Y-3.3937
X5.2382Y-3.9843
X5.252Y-3.2933
X5.2756Y-4.0315
X5.2756Y-4.0728
X5.2756Y-4.1457
X5.2756Y-4.187
X5.3209Y-4.0315
X5.3209Y-4.0728
X5.3209Y-4.1457
X5.3209Y-4.187
X5.3228Y-3.4232
X5.3622Y-2.878
X5.374Y-2.8051
X5.3937Y-3.9272
X5.3937Y-3.9665
X5.3937Y-4.0059
X5.3976Y-4.1339
X5.3976Y-4.1752
X5.4429Y-3.9272
X5.4429Y-3.9665
X5.4429Y-4.0059
X5.4429Y-4.1339
X5.4429Y-4.1752
X5.4823Y-3.7441
X5.4843Y-4.0374
X5.4843Y-4.1043
X5.4961Y-2.878
X5.5276Y-4.0374
X5.5276Y-4.1043
X5.5709Y-4.0374
X5.5709Y-4.1043
X5.5906Y-3.7953
X5.6024Y-3.4921
X5.6102Y-3.2953
X5.6102Y-3.9272
X5.6102Y-3.9665
X5.6102Y-4.0059
X5.6102Y-4.1339
X5.6102Y-4.1732
X5.6171Y-3.4449
X5.6535Y-4.1339
X5.6535Y-4.1732
X5.6614Y-3.6969
X5.6634Y-3.9272
X5.6634Y-3.9665
X5.6634Y-4.0059
X5.6752Y-3.1398
X5.6919Y-3.2953
X5.6919Y-3.4843
X5.7205Y-3.2244
X5.7205Y-3.4488
X5.7233Y-3.0242
X5.748Y-3.9272
X5.748Y-3.9665
X5.748Y-4.0059
X5.75Y-3.4154
X5.7539Y-4.1339
X5.7539Y-4.1752
X5.7559Y-3.0463
X5.761Y-3.2242
X5.7638Y-2.9587
X5.7854Y-3.7359
X5.7874Y-3.6936
X5.788Y-3.6028
X5.7953Y-3.6457
X5.7972Y-3.9272
X5.7972Y-3.9665
X5.7972Y-4.0059
X5.7972Y-4.1339
X5.7972Y-4.1752
X5.8031Y-2.9587
X5.815Y-3.4843
X5.8386Y-4.0394
X5.8386Y-4.1043
X5.8647Y-3.2267
X5.8647Y-3.4449
X5.8819Y-4.0394
X5.8819Y-4.1043
X5.8949Y-3.2014
X5.8957Y-3.0827
X5.8976Y-2.9331
X5.9004Y-3.4615
X5.9016Y-3.7717
X5.9114Y-3.6201
X5.9154Y-3.3425
X5.9173Y-3.2972
X5.9252Y-4.0394
X5.9252Y-4.1043
X5.9567Y-3.7736
X5.9587Y-2.9272
X5.9646Y-3.0827
X5.9646Y-3.9272
X5.9646Y-3.9665
X5.9646Y-4.0059
X5.9646Y-4.1339
X5.9646Y-4.1752
X5.9803Y-3.5551
X6.0118Y-4.1339
X6.0118Y-4.1752
X6.0138Y-3.9272
X6.0138Y-3.9665
X6.0138Y-4.0059
X6.0197Y-3.5433
X6.0367Y-3.604
X6.0561Y-3.7146
X6.0636Y-3.6328
X6.064Y-3.676
X6.0669Y-3.4961
X6.0748Y-3.2283
X6.0748Y-3.2677
X6.0827Y-3.937
X6.0827Y-3.9764
X6.0827Y-4.0157
X6.0827Y-4.0551
X6.0886Y-3.0069
X6.1127Y-3.038
X6.1181Y-3.0787
X6.122Y-3.937
X6.122Y-3.9764
X6.1614Y-3.937
X6.1614Y-3.9764
X6.1654Y-3.0866
X6.1693Y-3.1969
X6.1772Y-3.7244
X6.2008Y-3.937
X6.2008Y-3.9764
X6.2165Y-3.2165
X6.2402Y-3.937
X6.2402Y-3.9764
X6.2402Y-4.0157
X6.2421Y-4.2402
X6.2421Y-4.2795
X6.2795Y-3.6732
X6.2795Y-3.937
X6.2795Y-3.9764
X6.2933Y-4.2402
X6.2933Y-4.2795
X6.3169Y-3.8976
X6.3198Y-2.9419
X6.3268Y-3.2165
X6.3425Y-3.6929
X6.3425Y-4.2402
X6.3425Y-4.2795
X6.3661Y-3.6535
X6.3819Y-3.7126
X6.3957Y-4.2402
X6.3957Y-4.2795
X6.3976Y-3.4783
X6.4018Y-3.5175
X6.4043Y-3.644
X6.4134Y-3.1339
X6.4449Y-4.0394
X6.4449Y-4.2402
X6.4449Y-4.2795
X6.4889Y-3.1959
X6.4941Y-4.2402
X6.4941Y-4.2795
X6.5168Y-3.2923
X6.5197Y-3.2205
X6.5197Y-3.4764
X6.5217Y-3.437
X6.5433Y-4.1614
X6.5433Y-4.2008
X6.5433Y-4.2402
X6.5433Y-4.2795
X6.5551Y-3.2835
X6.5551Y-3.3858
X6.5689Y-3.9508
X6.5689Y-3.998
X6.5886Y-4.122
X6.5886Y-4.1614
X6.5886Y-4.2008
X6.5886Y-4.2402
X6.5886Y-4.2795
X6.6083Y-3.9508
X6.6083Y-3.998
X6.6083Y-4.0453
X6.6122Y-3.8917
X6.6181Y-3.4843
X6.6181Y-3.6142
X6.628Y-3.8524
X6.6299Y-3.185
X6.6339Y-4.122
X6.6339Y-4.1614
X6.6476Y-3.9508
X6.6476Y-3.998
X6.6476Y-4.0453
X6.6693Y-3.8524
X6.687Y-3.9508
X6.687Y-3.998
X6.687Y-4.0453
X6.7116Y-3.8514
X6.7264Y-3.9508
X6.7264Y-3.998
X6.7264Y-4.0453
X6.7421Y-3.3366
X6.7421Y-3.5689
X6.749Y-3.436
X6.7657Y-3.9508
X6.7657Y-3.998
X6.8189Y-4.1043
X6.8425Y-3.2382
X6.8425Y-3.5374
X6.8543Y-3.7185
X6.8583Y-4.065
X6.8583Y-4.1043
X6.8661Y-3.2008
X6.8917Y-3.2716
X6.8976Y-4.065
X6.8976Y-4.1043
X6.9075Y-3.8652
X6.937Y-3.4252
X6.938Y-3.2894
X6.9665Y-3.1811
X6.9685Y-4.1732
X6.9685Y-4.2323
X7.0Y-3.4764
X7.0276Y-4.1732
X7.0276Y-4.2323
X7.035Y-3.2367
X7.0432Y-3.4742
X7.0866Y-3.2402
X7.0866Y-4.1732
X7.0866Y-4.2323
X7.0886Y-3.4252
X7.1122Y-3.878
X7.1122Y-3.9173
X7.1122Y-3.9567
X7.1122Y-3.9961
X7.128Y-3.4961
X7.1414Y-3.3396
X7.1457Y-4.1142
X7.1457Y-4.1732
X7.1457Y-4.2323
X7.1909Y-3.4961
X7.2047Y-4.1142
X7.2047Y-4.1732
X7.2047Y-4.2323
X7.2087Y-3.0669
T4
X4.3268Y-4.2657
X4.3701Y-4.2657
X4.4567Y-4.2657
X4.4134Y-4.2657
T6
X6.189Y-2.8622
X6.289Y-2.8622
X6.389Y-2.8622
X6.489Y-2.8622
X6.589Y-2.8622
X6.1535Y-3.8071
X6.2535Y-3.8071
X6.3535Y-3.8071
X6.4535Y-3.8071
T7
X6.6847Y-4.3169
X6.8447Y-4.3177
T5
G00X4.378Y-2.8907
M15
G01X4.378Y-2.9163
M16
G05
G00X4.378Y-3.3652
M15
G01X4.378Y-3.3907
M16
G05
G00X4.378Y-3.8376
M15
G01X4.378Y-3.8632
M16
G05
T0
M30
