%TF.GenerationSoftware,KiCad,Pcbnew,(5.1.8)-1*%
%TF.CreationDate,2021-01-30T00:08:38-08:00*%
%TF.ProjectId,MicroMotor,4d696372-6f4d-46f7-946f-722e6b696361,rev?*%
%TF.SameCoordinates,Original*%
%TF.FileFunction,Legend,Bot*%
%TF.FilePolarity,Positive*%
%FSLAX46Y46*%
G04 Gerber Fmt 4.6, Leading zero omitted, Abs format (unit mm)*
G04 Created by KiCad (PCBNEW (5.1.8)-1) date 2021-01-30 00:08:38*
%MOMM*%
%LPD*%
G01*
G04 APERTURE LIST*
%ADD10C,0.120000*%
G04 APERTURE END LIST*
D10*
%TO.C,J17*%
X150380000Y-121230000D02*
X149695000Y-121230000D01*
X149695000Y-121230000D02*
X149695000Y-122040000D01*
X149860000Y-123485898D02*
X149860000Y-123850000D01*
X151480000Y-123850000D02*
X149860000Y-123850000D01*
X151480000Y-122540000D02*
X151480000Y-123850000D01*
X151480000Y-122540000D02*
X151065000Y-122540000D01*
%TO.C,J4*%
X146305000Y-80855000D02*
X145610000Y-80855000D01*
X146305000Y-81540000D02*
X146305000Y-80855000D01*
X145001724Y-82225000D02*
X144915000Y-82225000D01*
X146305000Y-82225000D02*
X146218276Y-82225000D01*
X144915000Y-82225000D02*
X144915000Y-85100000D01*
X146305000Y-82225000D02*
X146305000Y-85100000D01*
X145215507Y-85100000D02*
X144915000Y-85100000D01*
X146305000Y-85100000D02*
X146004493Y-85100000D01*
%TO.C,J5*%
X146305000Y-102400000D02*
X146004493Y-102400000D01*
X145215507Y-102400000D02*
X144915000Y-102400000D01*
X146305000Y-99525000D02*
X146305000Y-102400000D01*
X144915000Y-99525000D02*
X144915000Y-102400000D01*
X146305000Y-99525000D02*
X146218276Y-99525000D01*
X145001724Y-99525000D02*
X144915000Y-99525000D01*
X146305000Y-98840000D02*
X146305000Y-98155000D01*
X146305000Y-98155000D02*
X145610000Y-98155000D01*
%TO.C,J6*%
X146305000Y-115455000D02*
X145610000Y-115455000D01*
X146305000Y-116140000D02*
X146305000Y-115455000D01*
X145001724Y-116825000D02*
X144915000Y-116825000D01*
X146305000Y-116825000D02*
X146218276Y-116825000D01*
X144915000Y-116825000D02*
X144915000Y-119700000D01*
X146305000Y-116825000D02*
X146305000Y-119700000D01*
X145215507Y-119700000D02*
X144915000Y-119700000D01*
X146305000Y-119700000D02*
X146004493Y-119700000D01*
%TO.C,C*%
X106120000Y-73650000D02*
X106120000Y-72940000D01*
X105435000Y-73650000D02*
X106120000Y-73650000D01*
X105995000Y-71545507D02*
X105995000Y-71230000D01*
X104750000Y-73650000D02*
X104750000Y-73548276D01*
X105995000Y-71230000D02*
X99875000Y-71230000D01*
X104750000Y-73650000D02*
X99875000Y-73650000D01*
X99875000Y-72545507D02*
X99875000Y-72334493D01*
X99875000Y-71545507D02*
X99875000Y-71230000D01*
X99875000Y-73650000D02*
X99875000Y-73334493D01*
%TO.C,B*%
X99875000Y-90950000D02*
X99875000Y-90634493D01*
X99875000Y-88845507D02*
X99875000Y-88530000D01*
X99875000Y-89845507D02*
X99875000Y-89634493D01*
X104750000Y-90950000D02*
X99875000Y-90950000D01*
X105995000Y-88530000D02*
X99875000Y-88530000D01*
X104750000Y-90950000D02*
X104750000Y-90848276D01*
X105995000Y-88845507D02*
X105995000Y-88530000D01*
X105435000Y-90950000D02*
X106120000Y-90950000D01*
X106120000Y-90950000D02*
X106120000Y-90240000D01*
%TO.C,A*%
X106120000Y-108250000D02*
X106120000Y-107540000D01*
X105435000Y-108250000D02*
X106120000Y-108250000D01*
X105995000Y-106145507D02*
X105995000Y-105830000D01*
X104750000Y-108250000D02*
X104750000Y-108148276D01*
X105995000Y-105830000D02*
X99875000Y-105830000D01*
X104750000Y-108250000D02*
X99875000Y-108250000D01*
X99875000Y-107145507D02*
X99875000Y-106934493D01*
X99875000Y-106145507D02*
X99875000Y-105830000D01*
X99875000Y-108250000D02*
X99875000Y-107934493D01*
%TO.C,J10*%
X196070000Y-71130000D02*
X196070000Y-70050000D01*
X190050000Y-73750000D02*
X189750000Y-73750000D01*
X196370000Y-73750000D02*
X196070000Y-73750000D01*
X189750000Y-73750000D02*
X189750000Y-71130000D01*
X190050000Y-71130000D02*
X189750000Y-71130000D01*
X196370000Y-71130000D02*
X196070000Y-71130000D01*
X196370000Y-73750000D02*
X196370000Y-71130000D01*
%TO.C,J11*%
X196370000Y-91050000D02*
X196370000Y-88430000D01*
X196370000Y-88430000D02*
X196070000Y-88430000D01*
X190050000Y-88430000D02*
X189750000Y-88430000D01*
X189750000Y-91050000D02*
X189750000Y-88430000D01*
X196370000Y-91050000D02*
X196070000Y-91050000D01*
X190050000Y-91050000D02*
X189750000Y-91050000D01*
X196070000Y-88430000D02*
X196070000Y-87350000D01*
%TO.C,J12*%
X196070000Y-105730000D02*
X196070000Y-104650000D01*
X190050000Y-108350000D02*
X189750000Y-108350000D01*
X196370000Y-108350000D02*
X196070000Y-108350000D01*
X189750000Y-108350000D02*
X189750000Y-105730000D01*
X190050000Y-105730000D02*
X189750000Y-105730000D01*
X196370000Y-105730000D02*
X196070000Y-105730000D01*
X196370000Y-108350000D02*
X196370000Y-105730000D01*
%TO.C,J13*%
X150380000Y-80730000D02*
X149695000Y-80730000D01*
X149695000Y-80730000D02*
X149695000Y-81540000D01*
X149860000Y-84985898D02*
X149860000Y-85350000D01*
X149860000Y-83985898D02*
X149860000Y-84094102D01*
X149860000Y-82985898D02*
X149860000Y-83094102D01*
X151480000Y-85350000D02*
X149860000Y-85350000D01*
X151480000Y-82040000D02*
X151480000Y-85350000D01*
X151480000Y-82040000D02*
X151065000Y-82040000D01*
%TO.C,J14*%
X151480000Y-99340000D02*
X151065000Y-99340000D01*
X151480000Y-99340000D02*
X151480000Y-102650000D01*
X151480000Y-102650000D02*
X149860000Y-102650000D01*
X149860000Y-100285898D02*
X149860000Y-100394102D01*
X149860000Y-101285898D02*
X149860000Y-101394102D01*
X149860000Y-102285898D02*
X149860000Y-102650000D01*
X149695000Y-98030000D02*
X149695000Y-98840000D01*
X150380000Y-98030000D02*
X149695000Y-98030000D01*
%TO.C,J15*%
X150380000Y-115330000D02*
X149695000Y-115330000D01*
X149695000Y-115330000D02*
X149695000Y-116140000D01*
X149860000Y-119585898D02*
X149860000Y-119950000D01*
X149860000Y-118585898D02*
X149860000Y-118694102D01*
X149860000Y-117585898D02*
X149860000Y-117694102D01*
X151480000Y-119950000D02*
X149860000Y-119950000D01*
X151480000Y-116640000D02*
X151480000Y-119950000D01*
X151480000Y-116640000D02*
X151065000Y-116640000D01*
%TO.C,J16*%
X146305000Y-121355000D02*
X145610000Y-121355000D01*
X146305000Y-122040000D02*
X146305000Y-121355000D01*
X145001724Y-122725000D02*
X144915000Y-122725000D01*
X146305000Y-122725000D02*
X146218276Y-122725000D01*
X144915000Y-122725000D02*
X144915000Y-123600000D01*
X146305000Y-122725000D02*
X146305000Y-123600000D01*
X145215507Y-123600000D02*
X144915000Y-123600000D01*
X146305000Y-123600000D02*
X146004493Y-123600000D01*
%TD*%
M02*
