%TF.GenerationSoftware,KiCad,Pcbnew,(5.1.8)-1*%
%TF.CreationDate,2021-01-30T00:08:38-08:00*%
%TF.ProjectId,MicroMotor,4d696372-6f4d-46f7-946f-722e6b696361,rev?*%
%TF.SameCoordinates,Original*%
%TF.FileFunction,Soldermask,Bot*%
%TF.FilePolarity,Negative*%
%FSLAX46Y46*%
G04 Gerber Fmt 4.6, Leading zero omitted, Abs format (unit mm)*
G04 Created by KiCad (PCBNEW (5.1.8)-1) date 2021-01-30 00:08:38*
%MOMM*%
%LPD*%
G01*
G04 APERTURE LIST*
%ADD10C,2.100000*%
%ADD11O,0.950000X0.950000*%
%ADD12O,2.259000X1.268400*%
%ADD13O,2.767000X1.268400*%
%ADD14C,5.100000*%
%ADD15O,1.800000X1.800000*%
G04 APERTURE END LIST*
D10*
%TO.C,C28*%
X123610000Y-64740000D03*
X116110000Y-64740000D03*
%TD*%
%TO.C,J17*%
G36*
G01*
X150855000Y-121615000D02*
X150855000Y-122465000D01*
G75*
G02*
X150805000Y-122515000I-50000J0D01*
G01*
X149955000Y-122515000D01*
G75*
G02*
X149905000Y-122465000I0J50000D01*
G01*
X149905000Y-121615000D01*
G75*
G02*
X149955000Y-121565000I50000J0D01*
G01*
X150805000Y-121565000D01*
G75*
G02*
X150855000Y-121615000I0J-50000D01*
G01*
G37*
D11*
X150380000Y-123040000D03*
%TD*%
D10*
%TO.C,C28*%
X116535000Y-124990000D03*
X124035000Y-124990000D03*
%TD*%
D12*
%TO.C,J1*%
X156835700Y-65499998D03*
X156835700Y-74140002D03*
D13*
X151475700Y-65499998D03*
X151475700Y-74140002D03*
%TD*%
%TO.C,C*%
G36*
G01*
X201255000Y-69890000D02*
X203305000Y-69890000D01*
G75*
G02*
X204330000Y-70915000I0J-1025000D01*
G01*
X204330000Y-73965000D01*
G75*
G02*
X203305000Y-74990000I-1025000J0D01*
G01*
X201255000Y-74990000D01*
G75*
G02*
X200230000Y-73965000I0J1025000D01*
G01*
X200230000Y-70915000D01*
G75*
G02*
X201255000Y-69890000I1025000J0D01*
G01*
G37*
%TD*%
%TO.C,B*%
G36*
G01*
X201255000Y-87290000D02*
X203305000Y-87290000D01*
G75*
G02*
X204330000Y-88315000I0J-1025000D01*
G01*
X204330000Y-91365000D01*
G75*
G02*
X203305000Y-92390000I-1025000J0D01*
G01*
X201255000Y-92390000D01*
G75*
G02*
X200230000Y-91365000I0J1025000D01*
G01*
X200230000Y-88315000D01*
G75*
G02*
X201255000Y-87290000I1025000J0D01*
G01*
G37*
%TD*%
%TO.C,A*%
G36*
G01*
X201255000Y-104490000D02*
X203305000Y-104490000D01*
G75*
G02*
X204330000Y-105515000I0J-1025000D01*
G01*
X204330000Y-108565000D01*
G75*
G02*
X203305000Y-109590000I-1025000J0D01*
G01*
X201255000Y-109590000D01*
G75*
G02*
X200230000Y-108565000I0J1025000D01*
G01*
X200230000Y-105515000D01*
G75*
G02*
X201255000Y-104490000I1025000J0D01*
G01*
G37*
%TD*%
D14*
%TO.C,GND*%
X137860000Y-125115000D03*
%TD*%
%TO.C,48V*%
X107135000Y-125090000D03*
%TD*%
%TO.C,J3*%
G36*
G01*
X176705000Y-66190000D02*
X175005000Y-66190000D01*
G75*
G02*
X174955000Y-66140000I0J50000D01*
G01*
X174955000Y-64440000D01*
G75*
G02*
X175005000Y-64390000I50000J0D01*
G01*
X176705000Y-64390000D01*
G75*
G02*
X176755000Y-64440000I0J-50000D01*
G01*
X176755000Y-66140000D01*
G75*
G02*
X176705000Y-66190000I-50000J0D01*
G01*
G37*
D15*
X178395000Y-65290000D03*
X180935000Y-65290000D03*
X183475000Y-65290000D03*
X186015000Y-65290000D03*
%TD*%
D10*
%TO.C,G*%
X188655000Y-126390000D03*
%TD*%
%TO.C,5*%
X185855000Y-126390000D03*
%TD*%
%TO.C,C*%
X183055000Y-126390000D03*
%TD*%
%TO.C,B*%
X180255000Y-126390000D03*
%TD*%
%TO.C,A*%
X177455000Y-126390000D03*
%TD*%
%TO.C,J2*%
G36*
G01*
X182780000Y-107940000D02*
X182780000Y-106240000D01*
G75*
G02*
X182830000Y-106190000I50000J0D01*
G01*
X184530000Y-106190000D01*
G75*
G02*
X184580000Y-106240000I0J-50000D01*
G01*
X184580000Y-107940000D01*
G75*
G02*
X184530000Y-107990000I-50000J0D01*
G01*
X182830000Y-107990000D01*
G75*
G02*
X182780000Y-107940000I0J50000D01*
G01*
G37*
D15*
X183680000Y-109630000D03*
X183680000Y-112170000D03*
X183680000Y-114710000D03*
%TD*%
%TO.C,J4*%
G36*
G01*
X146085000Y-81115000D02*
X146085000Y-81965000D01*
G75*
G02*
X146035000Y-82015000I-50000J0D01*
G01*
X145185000Y-82015000D01*
G75*
G02*
X145135000Y-81965000I0J50000D01*
G01*
X145135000Y-81115000D01*
G75*
G02*
X145185000Y-81065000I50000J0D01*
G01*
X146035000Y-81065000D01*
G75*
G02*
X146085000Y-81115000I0J-50000D01*
G01*
G37*
D11*
X145610000Y-82540000D03*
X145610000Y-83540000D03*
X145610000Y-84540000D03*
%TD*%
%TO.C,J5*%
X145610000Y-101840000D03*
X145610000Y-100840000D03*
X145610000Y-99840000D03*
G36*
G01*
X146085000Y-98415000D02*
X146085000Y-99265000D01*
G75*
G02*
X146035000Y-99315000I-50000J0D01*
G01*
X145185000Y-99315000D01*
G75*
G02*
X145135000Y-99265000I0J50000D01*
G01*
X145135000Y-98415000D01*
G75*
G02*
X145185000Y-98365000I50000J0D01*
G01*
X146035000Y-98365000D01*
G75*
G02*
X146085000Y-98415000I0J-50000D01*
G01*
G37*
%TD*%
%TO.C,J6*%
G36*
G01*
X146085000Y-115715000D02*
X146085000Y-116565000D01*
G75*
G02*
X146035000Y-116615000I-50000J0D01*
G01*
X145185000Y-116615000D01*
G75*
G02*
X145135000Y-116565000I0J50000D01*
G01*
X145135000Y-115715000D01*
G75*
G02*
X145185000Y-115665000I50000J0D01*
G01*
X146035000Y-115665000D01*
G75*
G02*
X146085000Y-115715000I0J-50000D01*
G01*
G37*
X145610000Y-117140000D03*
X145610000Y-118140000D03*
X145610000Y-119140000D03*
%TD*%
%TO.C,C*%
G36*
G01*
X105860000Y-73415000D02*
X105010000Y-73415000D01*
G75*
G02*
X104960000Y-73365000I0J50000D01*
G01*
X104960000Y-72515000D01*
G75*
G02*
X105010000Y-72465000I50000J0D01*
G01*
X105860000Y-72465000D01*
G75*
G02*
X105910000Y-72515000I0J-50000D01*
G01*
X105910000Y-73365000D01*
G75*
G02*
X105860000Y-73415000I-50000J0D01*
G01*
G37*
X105435000Y-71940000D03*
X104435000Y-72940000D03*
X104435000Y-71940000D03*
X103435000Y-72940000D03*
X103435000Y-71940000D03*
X102435000Y-72940000D03*
X102435000Y-71940000D03*
X101435000Y-72940000D03*
X101435000Y-71940000D03*
X100435000Y-72940000D03*
X100435000Y-71940000D03*
%TD*%
%TO.C,B*%
X100435000Y-89240000D03*
X100435000Y-90240000D03*
X101435000Y-89240000D03*
X101435000Y-90240000D03*
X102435000Y-89240000D03*
X102435000Y-90240000D03*
X103435000Y-89240000D03*
X103435000Y-90240000D03*
X104435000Y-89240000D03*
X104435000Y-90240000D03*
X105435000Y-89240000D03*
G36*
G01*
X105860000Y-90715000D02*
X105010000Y-90715000D01*
G75*
G02*
X104960000Y-90665000I0J50000D01*
G01*
X104960000Y-89815000D01*
G75*
G02*
X105010000Y-89765000I50000J0D01*
G01*
X105860000Y-89765000D01*
G75*
G02*
X105910000Y-89815000I0J-50000D01*
G01*
X105910000Y-90665000D01*
G75*
G02*
X105860000Y-90715000I-50000J0D01*
G01*
G37*
%TD*%
%TO.C,A*%
G36*
G01*
X105860000Y-108015000D02*
X105010000Y-108015000D01*
G75*
G02*
X104960000Y-107965000I0J50000D01*
G01*
X104960000Y-107115000D01*
G75*
G02*
X105010000Y-107065000I50000J0D01*
G01*
X105860000Y-107065000D01*
G75*
G02*
X105910000Y-107115000I0J-50000D01*
G01*
X105910000Y-107965000D01*
G75*
G02*
X105860000Y-108015000I-50000J0D01*
G01*
G37*
X105435000Y-106540000D03*
X104435000Y-107540000D03*
X104435000Y-106540000D03*
X103435000Y-107540000D03*
X103435000Y-106540000D03*
X102435000Y-107540000D03*
X102435000Y-106540000D03*
X101435000Y-107540000D03*
X101435000Y-106540000D03*
X100435000Y-107540000D03*
X100435000Y-106540000D03*
%TD*%
%TO.C,J10*%
G36*
G01*
X195810000Y-71890000D02*
X195310000Y-71890000D01*
G75*
G02*
X195260000Y-71840000I0J50000D01*
G01*
X195260000Y-69990000D01*
G75*
G02*
X195310000Y-69940000I50000J0D01*
G01*
X195810000Y-69940000D01*
G75*
G02*
X195860000Y-69990000I0J-50000D01*
G01*
X195860000Y-71840000D01*
G75*
G02*
X195810000Y-71890000I-50000J0D01*
G01*
G37*
G36*
G01*
X195810000Y-74940000D02*
X195310000Y-74940000D01*
G75*
G02*
X195260000Y-74890000I0J50000D01*
G01*
X195260000Y-73040000D01*
G75*
G02*
X195310000Y-72990000I50000J0D01*
G01*
X195810000Y-72990000D01*
G75*
G02*
X195860000Y-73040000I0J-50000D01*
G01*
X195860000Y-74890000D01*
G75*
G02*
X195810000Y-74940000I-50000J0D01*
G01*
G37*
G36*
G01*
X194810000Y-71890000D02*
X194310000Y-71890000D01*
G75*
G02*
X194260000Y-71840000I0J50000D01*
G01*
X194260000Y-69990000D01*
G75*
G02*
X194310000Y-69940000I50000J0D01*
G01*
X194810000Y-69940000D01*
G75*
G02*
X194860000Y-69990000I0J-50000D01*
G01*
X194860000Y-71840000D01*
G75*
G02*
X194810000Y-71890000I-50000J0D01*
G01*
G37*
G36*
G01*
X194810000Y-74940000D02*
X194310000Y-74940000D01*
G75*
G02*
X194260000Y-74890000I0J50000D01*
G01*
X194260000Y-73040000D01*
G75*
G02*
X194310000Y-72990000I50000J0D01*
G01*
X194810000Y-72990000D01*
G75*
G02*
X194860000Y-73040000I0J-50000D01*
G01*
X194860000Y-74890000D01*
G75*
G02*
X194810000Y-74940000I-50000J0D01*
G01*
G37*
G36*
G01*
X193810000Y-71890000D02*
X193310000Y-71890000D01*
G75*
G02*
X193260000Y-71840000I0J50000D01*
G01*
X193260000Y-69990000D01*
G75*
G02*
X193310000Y-69940000I50000J0D01*
G01*
X193810000Y-69940000D01*
G75*
G02*
X193860000Y-69990000I0J-50000D01*
G01*
X193860000Y-71840000D01*
G75*
G02*
X193810000Y-71890000I-50000J0D01*
G01*
G37*
G36*
G01*
X193810000Y-74940000D02*
X193310000Y-74940000D01*
G75*
G02*
X193260000Y-74890000I0J50000D01*
G01*
X193260000Y-73040000D01*
G75*
G02*
X193310000Y-72990000I50000J0D01*
G01*
X193810000Y-72990000D01*
G75*
G02*
X193860000Y-73040000I0J-50000D01*
G01*
X193860000Y-74890000D01*
G75*
G02*
X193810000Y-74940000I-50000J0D01*
G01*
G37*
G36*
G01*
X192810000Y-71890000D02*
X192310000Y-71890000D01*
G75*
G02*
X192260000Y-71840000I0J50000D01*
G01*
X192260000Y-69990000D01*
G75*
G02*
X192310000Y-69940000I50000J0D01*
G01*
X192810000Y-69940000D01*
G75*
G02*
X192860000Y-69990000I0J-50000D01*
G01*
X192860000Y-71840000D01*
G75*
G02*
X192810000Y-71890000I-50000J0D01*
G01*
G37*
G36*
G01*
X192810000Y-74940000D02*
X192310000Y-74940000D01*
G75*
G02*
X192260000Y-74890000I0J50000D01*
G01*
X192260000Y-73040000D01*
G75*
G02*
X192310000Y-72990000I50000J0D01*
G01*
X192810000Y-72990000D01*
G75*
G02*
X192860000Y-73040000I0J-50000D01*
G01*
X192860000Y-74890000D01*
G75*
G02*
X192810000Y-74940000I-50000J0D01*
G01*
G37*
G36*
G01*
X191810000Y-71890000D02*
X191310000Y-71890000D01*
G75*
G02*
X191260000Y-71840000I0J50000D01*
G01*
X191260000Y-69990000D01*
G75*
G02*
X191310000Y-69940000I50000J0D01*
G01*
X191810000Y-69940000D01*
G75*
G02*
X191860000Y-69990000I0J-50000D01*
G01*
X191860000Y-71840000D01*
G75*
G02*
X191810000Y-71890000I-50000J0D01*
G01*
G37*
G36*
G01*
X191810000Y-74940000D02*
X191310000Y-74940000D01*
G75*
G02*
X191260000Y-74890000I0J50000D01*
G01*
X191260000Y-73040000D01*
G75*
G02*
X191310000Y-72990000I50000J0D01*
G01*
X191810000Y-72990000D01*
G75*
G02*
X191860000Y-73040000I0J-50000D01*
G01*
X191860000Y-74890000D01*
G75*
G02*
X191810000Y-74940000I-50000J0D01*
G01*
G37*
G36*
G01*
X190810000Y-71890000D02*
X190310000Y-71890000D01*
G75*
G02*
X190260000Y-71840000I0J50000D01*
G01*
X190260000Y-69990000D01*
G75*
G02*
X190310000Y-69940000I50000J0D01*
G01*
X190810000Y-69940000D01*
G75*
G02*
X190860000Y-69990000I0J-50000D01*
G01*
X190860000Y-71840000D01*
G75*
G02*
X190810000Y-71890000I-50000J0D01*
G01*
G37*
G36*
G01*
X190810000Y-74940000D02*
X190310000Y-74940000D01*
G75*
G02*
X190260000Y-74890000I0J50000D01*
G01*
X190260000Y-73040000D01*
G75*
G02*
X190310000Y-72990000I50000J0D01*
G01*
X190810000Y-72990000D01*
G75*
G02*
X190860000Y-73040000I0J-50000D01*
G01*
X190860000Y-74890000D01*
G75*
G02*
X190810000Y-74940000I-50000J0D01*
G01*
G37*
%TD*%
%TO.C,J11*%
G36*
G01*
X190810000Y-92240000D02*
X190310000Y-92240000D01*
G75*
G02*
X190260000Y-92190000I0J50000D01*
G01*
X190260000Y-90340000D01*
G75*
G02*
X190310000Y-90290000I50000J0D01*
G01*
X190810000Y-90290000D01*
G75*
G02*
X190860000Y-90340000I0J-50000D01*
G01*
X190860000Y-92190000D01*
G75*
G02*
X190810000Y-92240000I-50000J0D01*
G01*
G37*
G36*
G01*
X190810000Y-89190000D02*
X190310000Y-89190000D01*
G75*
G02*
X190260000Y-89140000I0J50000D01*
G01*
X190260000Y-87290000D01*
G75*
G02*
X190310000Y-87240000I50000J0D01*
G01*
X190810000Y-87240000D01*
G75*
G02*
X190860000Y-87290000I0J-50000D01*
G01*
X190860000Y-89140000D01*
G75*
G02*
X190810000Y-89190000I-50000J0D01*
G01*
G37*
G36*
G01*
X191810000Y-92240000D02*
X191310000Y-92240000D01*
G75*
G02*
X191260000Y-92190000I0J50000D01*
G01*
X191260000Y-90340000D01*
G75*
G02*
X191310000Y-90290000I50000J0D01*
G01*
X191810000Y-90290000D01*
G75*
G02*
X191860000Y-90340000I0J-50000D01*
G01*
X191860000Y-92190000D01*
G75*
G02*
X191810000Y-92240000I-50000J0D01*
G01*
G37*
G36*
G01*
X191810000Y-89190000D02*
X191310000Y-89190000D01*
G75*
G02*
X191260000Y-89140000I0J50000D01*
G01*
X191260000Y-87290000D01*
G75*
G02*
X191310000Y-87240000I50000J0D01*
G01*
X191810000Y-87240000D01*
G75*
G02*
X191860000Y-87290000I0J-50000D01*
G01*
X191860000Y-89140000D01*
G75*
G02*
X191810000Y-89190000I-50000J0D01*
G01*
G37*
G36*
G01*
X192810000Y-92240000D02*
X192310000Y-92240000D01*
G75*
G02*
X192260000Y-92190000I0J50000D01*
G01*
X192260000Y-90340000D01*
G75*
G02*
X192310000Y-90290000I50000J0D01*
G01*
X192810000Y-90290000D01*
G75*
G02*
X192860000Y-90340000I0J-50000D01*
G01*
X192860000Y-92190000D01*
G75*
G02*
X192810000Y-92240000I-50000J0D01*
G01*
G37*
G36*
G01*
X192810000Y-89190000D02*
X192310000Y-89190000D01*
G75*
G02*
X192260000Y-89140000I0J50000D01*
G01*
X192260000Y-87290000D01*
G75*
G02*
X192310000Y-87240000I50000J0D01*
G01*
X192810000Y-87240000D01*
G75*
G02*
X192860000Y-87290000I0J-50000D01*
G01*
X192860000Y-89140000D01*
G75*
G02*
X192810000Y-89190000I-50000J0D01*
G01*
G37*
G36*
G01*
X193810000Y-92240000D02*
X193310000Y-92240000D01*
G75*
G02*
X193260000Y-92190000I0J50000D01*
G01*
X193260000Y-90340000D01*
G75*
G02*
X193310000Y-90290000I50000J0D01*
G01*
X193810000Y-90290000D01*
G75*
G02*
X193860000Y-90340000I0J-50000D01*
G01*
X193860000Y-92190000D01*
G75*
G02*
X193810000Y-92240000I-50000J0D01*
G01*
G37*
G36*
G01*
X193810000Y-89190000D02*
X193310000Y-89190000D01*
G75*
G02*
X193260000Y-89140000I0J50000D01*
G01*
X193260000Y-87290000D01*
G75*
G02*
X193310000Y-87240000I50000J0D01*
G01*
X193810000Y-87240000D01*
G75*
G02*
X193860000Y-87290000I0J-50000D01*
G01*
X193860000Y-89140000D01*
G75*
G02*
X193810000Y-89190000I-50000J0D01*
G01*
G37*
G36*
G01*
X194810000Y-92240000D02*
X194310000Y-92240000D01*
G75*
G02*
X194260000Y-92190000I0J50000D01*
G01*
X194260000Y-90340000D01*
G75*
G02*
X194310000Y-90290000I50000J0D01*
G01*
X194810000Y-90290000D01*
G75*
G02*
X194860000Y-90340000I0J-50000D01*
G01*
X194860000Y-92190000D01*
G75*
G02*
X194810000Y-92240000I-50000J0D01*
G01*
G37*
G36*
G01*
X194810000Y-89190000D02*
X194310000Y-89190000D01*
G75*
G02*
X194260000Y-89140000I0J50000D01*
G01*
X194260000Y-87290000D01*
G75*
G02*
X194310000Y-87240000I50000J0D01*
G01*
X194810000Y-87240000D01*
G75*
G02*
X194860000Y-87290000I0J-50000D01*
G01*
X194860000Y-89140000D01*
G75*
G02*
X194810000Y-89190000I-50000J0D01*
G01*
G37*
G36*
G01*
X195810000Y-92240000D02*
X195310000Y-92240000D01*
G75*
G02*
X195260000Y-92190000I0J50000D01*
G01*
X195260000Y-90340000D01*
G75*
G02*
X195310000Y-90290000I50000J0D01*
G01*
X195810000Y-90290000D01*
G75*
G02*
X195860000Y-90340000I0J-50000D01*
G01*
X195860000Y-92190000D01*
G75*
G02*
X195810000Y-92240000I-50000J0D01*
G01*
G37*
G36*
G01*
X195810000Y-89190000D02*
X195310000Y-89190000D01*
G75*
G02*
X195260000Y-89140000I0J50000D01*
G01*
X195260000Y-87290000D01*
G75*
G02*
X195310000Y-87240000I50000J0D01*
G01*
X195810000Y-87240000D01*
G75*
G02*
X195860000Y-87290000I0J-50000D01*
G01*
X195860000Y-89140000D01*
G75*
G02*
X195810000Y-89190000I-50000J0D01*
G01*
G37*
%TD*%
%TO.C,J12*%
G36*
G01*
X195810000Y-106490000D02*
X195310000Y-106490000D01*
G75*
G02*
X195260000Y-106440000I0J50000D01*
G01*
X195260000Y-104590000D01*
G75*
G02*
X195310000Y-104540000I50000J0D01*
G01*
X195810000Y-104540000D01*
G75*
G02*
X195860000Y-104590000I0J-50000D01*
G01*
X195860000Y-106440000D01*
G75*
G02*
X195810000Y-106490000I-50000J0D01*
G01*
G37*
G36*
G01*
X195810000Y-109540000D02*
X195310000Y-109540000D01*
G75*
G02*
X195260000Y-109490000I0J50000D01*
G01*
X195260000Y-107640000D01*
G75*
G02*
X195310000Y-107590000I50000J0D01*
G01*
X195810000Y-107590000D01*
G75*
G02*
X195860000Y-107640000I0J-50000D01*
G01*
X195860000Y-109490000D01*
G75*
G02*
X195810000Y-109540000I-50000J0D01*
G01*
G37*
G36*
G01*
X194810000Y-106490000D02*
X194310000Y-106490000D01*
G75*
G02*
X194260000Y-106440000I0J50000D01*
G01*
X194260000Y-104590000D01*
G75*
G02*
X194310000Y-104540000I50000J0D01*
G01*
X194810000Y-104540000D01*
G75*
G02*
X194860000Y-104590000I0J-50000D01*
G01*
X194860000Y-106440000D01*
G75*
G02*
X194810000Y-106490000I-50000J0D01*
G01*
G37*
G36*
G01*
X194810000Y-109540000D02*
X194310000Y-109540000D01*
G75*
G02*
X194260000Y-109490000I0J50000D01*
G01*
X194260000Y-107640000D01*
G75*
G02*
X194310000Y-107590000I50000J0D01*
G01*
X194810000Y-107590000D01*
G75*
G02*
X194860000Y-107640000I0J-50000D01*
G01*
X194860000Y-109490000D01*
G75*
G02*
X194810000Y-109540000I-50000J0D01*
G01*
G37*
G36*
G01*
X193810000Y-106490000D02*
X193310000Y-106490000D01*
G75*
G02*
X193260000Y-106440000I0J50000D01*
G01*
X193260000Y-104590000D01*
G75*
G02*
X193310000Y-104540000I50000J0D01*
G01*
X193810000Y-104540000D01*
G75*
G02*
X193860000Y-104590000I0J-50000D01*
G01*
X193860000Y-106440000D01*
G75*
G02*
X193810000Y-106490000I-50000J0D01*
G01*
G37*
G36*
G01*
X193810000Y-109540000D02*
X193310000Y-109540000D01*
G75*
G02*
X193260000Y-109490000I0J50000D01*
G01*
X193260000Y-107640000D01*
G75*
G02*
X193310000Y-107590000I50000J0D01*
G01*
X193810000Y-107590000D01*
G75*
G02*
X193860000Y-107640000I0J-50000D01*
G01*
X193860000Y-109490000D01*
G75*
G02*
X193810000Y-109540000I-50000J0D01*
G01*
G37*
G36*
G01*
X192810000Y-106490000D02*
X192310000Y-106490000D01*
G75*
G02*
X192260000Y-106440000I0J50000D01*
G01*
X192260000Y-104590000D01*
G75*
G02*
X192310000Y-104540000I50000J0D01*
G01*
X192810000Y-104540000D01*
G75*
G02*
X192860000Y-104590000I0J-50000D01*
G01*
X192860000Y-106440000D01*
G75*
G02*
X192810000Y-106490000I-50000J0D01*
G01*
G37*
G36*
G01*
X192810000Y-109540000D02*
X192310000Y-109540000D01*
G75*
G02*
X192260000Y-109490000I0J50000D01*
G01*
X192260000Y-107640000D01*
G75*
G02*
X192310000Y-107590000I50000J0D01*
G01*
X192810000Y-107590000D01*
G75*
G02*
X192860000Y-107640000I0J-50000D01*
G01*
X192860000Y-109490000D01*
G75*
G02*
X192810000Y-109540000I-50000J0D01*
G01*
G37*
G36*
G01*
X191810000Y-106490000D02*
X191310000Y-106490000D01*
G75*
G02*
X191260000Y-106440000I0J50000D01*
G01*
X191260000Y-104590000D01*
G75*
G02*
X191310000Y-104540000I50000J0D01*
G01*
X191810000Y-104540000D01*
G75*
G02*
X191860000Y-104590000I0J-50000D01*
G01*
X191860000Y-106440000D01*
G75*
G02*
X191810000Y-106490000I-50000J0D01*
G01*
G37*
G36*
G01*
X191810000Y-109540000D02*
X191310000Y-109540000D01*
G75*
G02*
X191260000Y-109490000I0J50000D01*
G01*
X191260000Y-107640000D01*
G75*
G02*
X191310000Y-107590000I50000J0D01*
G01*
X191810000Y-107590000D01*
G75*
G02*
X191860000Y-107640000I0J-50000D01*
G01*
X191860000Y-109490000D01*
G75*
G02*
X191810000Y-109540000I-50000J0D01*
G01*
G37*
G36*
G01*
X190810000Y-106490000D02*
X190310000Y-106490000D01*
G75*
G02*
X190260000Y-106440000I0J50000D01*
G01*
X190260000Y-104590000D01*
G75*
G02*
X190310000Y-104540000I50000J0D01*
G01*
X190810000Y-104540000D01*
G75*
G02*
X190860000Y-104590000I0J-50000D01*
G01*
X190860000Y-106440000D01*
G75*
G02*
X190810000Y-106490000I-50000J0D01*
G01*
G37*
G36*
G01*
X190810000Y-109540000D02*
X190310000Y-109540000D01*
G75*
G02*
X190260000Y-109490000I0J50000D01*
G01*
X190260000Y-107640000D01*
G75*
G02*
X190310000Y-107590000I50000J0D01*
G01*
X190810000Y-107590000D01*
G75*
G02*
X190860000Y-107640000I0J-50000D01*
G01*
X190860000Y-109490000D01*
G75*
G02*
X190810000Y-109540000I-50000J0D01*
G01*
G37*
%TD*%
%TO.C,J13*%
G36*
G01*
X150855000Y-81115000D02*
X150855000Y-81965000D01*
G75*
G02*
X150805000Y-82015000I-50000J0D01*
G01*
X149955000Y-82015000D01*
G75*
G02*
X149905000Y-81965000I0J50000D01*
G01*
X149905000Y-81115000D01*
G75*
G02*
X149955000Y-81065000I50000J0D01*
G01*
X150805000Y-81065000D01*
G75*
G02*
X150855000Y-81115000I0J-50000D01*
G01*
G37*
X150380000Y-82540000D03*
X150380000Y-83540000D03*
X150380000Y-84540000D03*
%TD*%
%TO.C,J14*%
X150380000Y-101840000D03*
X150380000Y-100840000D03*
X150380000Y-99840000D03*
G36*
G01*
X150855000Y-98415000D02*
X150855000Y-99265000D01*
G75*
G02*
X150805000Y-99315000I-50000J0D01*
G01*
X149955000Y-99315000D01*
G75*
G02*
X149905000Y-99265000I0J50000D01*
G01*
X149905000Y-98415000D01*
G75*
G02*
X149955000Y-98365000I50000J0D01*
G01*
X150805000Y-98365000D01*
G75*
G02*
X150855000Y-98415000I0J-50000D01*
G01*
G37*
%TD*%
%TO.C,J15*%
G36*
G01*
X150855000Y-115715000D02*
X150855000Y-116565000D01*
G75*
G02*
X150805000Y-116615000I-50000J0D01*
G01*
X149955000Y-116615000D01*
G75*
G02*
X149905000Y-116565000I0J50000D01*
G01*
X149905000Y-115715000D01*
G75*
G02*
X149955000Y-115665000I50000J0D01*
G01*
X150805000Y-115665000D01*
G75*
G02*
X150855000Y-115715000I0J-50000D01*
G01*
G37*
X150380000Y-117140000D03*
X150380000Y-118140000D03*
X150380000Y-119140000D03*
%TD*%
%TO.C,J16*%
G36*
G01*
X146085000Y-121615000D02*
X146085000Y-122465000D01*
G75*
G02*
X146035000Y-122515000I-50000J0D01*
G01*
X145185000Y-122515000D01*
G75*
G02*
X145135000Y-122465000I0J50000D01*
G01*
X145135000Y-121615000D01*
G75*
G02*
X145185000Y-121565000I50000J0D01*
G01*
X146035000Y-121565000D01*
G75*
G02*
X146085000Y-121615000I0J-50000D01*
G01*
G37*
X145610000Y-123040000D03*
%TD*%
M02*
