%TF.GenerationSoftware,KiCad,Pcbnew,(5.1.8)-1*%
%TF.CreationDate,2020-11-11T18:37:22-08:00*%
%TF.ProjectId,MicroMotor,4d696372-6f4d-46f7-946f-722e6b696361,rev?*%
%TF.SameCoordinates,Original*%
%TF.FileFunction,Legend,Top*%
%TF.FilePolarity,Positive*%
%FSLAX46Y46*%
G04 Gerber Fmt 4.6, Leading zero omitted, Abs format (unit mm)*
G04 Created by KiCad (PCBNEW (5.1.8)-1) date 2020-11-11 18:37:22*
%MOMM*%
%LPD*%
G01*
G04 APERTURE LIST*
%ADD10C,0.100000*%
%ADD11C,0.250000*%
%ADD12C,0.400000*%
%ADD13C,0.120000*%
%ADD14C,0.150000*%
%ADD15C,0.010000*%
%ADD16C,0.152400*%
G04 APERTURE END LIST*
D10*
X170628928Y-92326190D02*
X170691428Y-91826190D01*
X170846190Y-92302380D02*
X170890833Y-92326190D01*
X170986071Y-92326190D01*
X171036666Y-92302380D01*
X171066428Y-92254761D01*
X171069404Y-92230952D01*
X171051547Y-92183333D01*
X171006904Y-92159523D01*
X170935476Y-92159523D01*
X170890833Y-92135714D01*
X170872976Y-92088095D01*
X170875952Y-92064285D01*
X170905714Y-92016666D01*
X170956309Y-91992857D01*
X171027738Y-91992857D01*
X171072380Y-92016666D01*
X171343214Y-92326190D02*
X171298571Y-92302380D01*
X171277738Y-92278571D01*
X171259880Y-92230952D01*
X171277738Y-92088095D01*
X171307500Y-92040476D01*
X171334285Y-92016666D01*
X171384880Y-91992857D01*
X171456309Y-91992857D01*
X171500952Y-92016666D01*
X171521785Y-92040476D01*
X171539642Y-92088095D01*
X171521785Y-92230952D01*
X171492023Y-92278571D01*
X171465238Y-92302380D01*
X171414642Y-92326190D01*
X171343214Y-92326190D01*
X171795595Y-92326190D02*
X171750952Y-92302380D01*
X171733095Y-92254761D01*
X171786666Y-91826190D01*
X172200357Y-92326190D02*
X172233095Y-92064285D01*
X172215238Y-92016666D01*
X172170595Y-91992857D01*
X172075357Y-91992857D01*
X172024761Y-92016666D01*
X172203333Y-92302380D02*
X172152738Y-92326190D01*
X172033690Y-92326190D01*
X171989047Y-92302380D01*
X171971190Y-92254761D01*
X171977142Y-92207142D01*
X172006904Y-92159523D01*
X172057500Y-92135714D01*
X172176547Y-92135714D01*
X172227142Y-92111904D01*
X172408690Y-91992857D02*
X172599166Y-91992857D01*
X172500952Y-91826190D02*
X172447380Y-92254761D01*
X172465238Y-92302380D01*
X172509880Y-92326190D01*
X172557500Y-92326190D01*
X172917619Y-92302380D02*
X172867023Y-92326190D01*
X172771785Y-92326190D01*
X172727142Y-92302380D01*
X172709285Y-92254761D01*
X172733095Y-92064285D01*
X172762857Y-92016666D01*
X172813452Y-91992857D01*
X172908690Y-91992857D01*
X172953333Y-92016666D01*
X172971190Y-92064285D01*
X172965238Y-92111904D01*
X172721190Y-92159523D01*
X173367023Y-92326190D02*
X173429523Y-91826190D01*
X173370000Y-92302380D02*
X173319404Y-92326190D01*
X173224166Y-92326190D01*
X173179523Y-92302380D01*
X173158690Y-92278571D01*
X173140833Y-92230952D01*
X173158690Y-92088095D01*
X173188452Y-92040476D01*
X173215238Y-92016666D01*
X173265833Y-91992857D01*
X173361071Y-91992857D01*
X173405714Y-92016666D01*
X167980952Y-78776190D02*
X167814285Y-78538095D01*
X167695238Y-78776190D02*
X167695238Y-78276190D01*
X167885714Y-78276190D01*
X167933333Y-78300000D01*
X167957142Y-78323809D01*
X167980952Y-78371428D01*
X167980952Y-78442857D01*
X167957142Y-78490476D01*
X167933333Y-78514285D01*
X167885714Y-78538095D01*
X167695238Y-78538095D01*
X168385714Y-78752380D02*
X168338095Y-78776190D01*
X168242857Y-78776190D01*
X168195238Y-78752380D01*
X168171428Y-78704761D01*
X168171428Y-78514285D01*
X168195238Y-78466666D01*
X168242857Y-78442857D01*
X168338095Y-78442857D01*
X168385714Y-78466666D01*
X168409523Y-78514285D01*
X168409523Y-78561904D01*
X168171428Y-78609523D01*
X168600000Y-78752380D02*
X168647619Y-78776190D01*
X168742857Y-78776190D01*
X168790476Y-78752380D01*
X168814285Y-78704761D01*
X168814285Y-78680952D01*
X168790476Y-78633333D01*
X168742857Y-78609523D01*
X168671428Y-78609523D01*
X168623809Y-78585714D01*
X168600000Y-78538095D01*
X168600000Y-78514285D01*
X168623809Y-78466666D01*
X168671428Y-78442857D01*
X168742857Y-78442857D01*
X168790476Y-78466666D01*
X169219047Y-78752380D02*
X169171428Y-78776190D01*
X169076190Y-78776190D01*
X169028571Y-78752380D01*
X169004761Y-78704761D01*
X169004761Y-78514285D01*
X169028571Y-78466666D01*
X169076190Y-78442857D01*
X169171428Y-78442857D01*
X169219047Y-78466666D01*
X169242857Y-78514285D01*
X169242857Y-78561904D01*
X169004761Y-78609523D01*
X169385714Y-78442857D02*
X169576190Y-78442857D01*
X169457142Y-78276190D02*
X169457142Y-78704761D01*
X169480952Y-78752380D01*
X169528571Y-78776190D01*
X169576190Y-78776190D01*
X156091190Y-98676190D02*
X156091190Y-98176190D01*
X156267380Y-98176190D01*
X156373095Y-98200000D01*
X156443571Y-98247619D01*
X156478809Y-98295238D01*
X156514047Y-98390476D01*
X156514047Y-98461904D01*
X156478809Y-98557142D01*
X156443571Y-98604761D01*
X156373095Y-98652380D01*
X156267380Y-98676190D01*
X156091190Y-98676190D01*
X157571190Y-98842857D02*
X157571190Y-98128571D01*
X159086428Y-98628571D02*
X159051190Y-98652380D01*
X158945476Y-98676190D01*
X158875000Y-98676190D01*
X158769285Y-98652380D01*
X158698809Y-98604761D01*
X158663571Y-98557142D01*
X158628333Y-98461904D01*
X158628333Y-98390476D01*
X158663571Y-98295238D01*
X158698809Y-98247619D01*
X158769285Y-98200000D01*
X158875000Y-98176190D01*
X158945476Y-98176190D01*
X159051190Y-98200000D01*
X159086428Y-98223809D01*
X160143571Y-98842857D02*
X160143571Y-98128571D01*
X161165476Y-98176190D02*
X161623571Y-98176190D01*
X161376904Y-98366666D01*
X161482619Y-98366666D01*
X161553095Y-98390476D01*
X161588333Y-98414285D01*
X161623571Y-98461904D01*
X161623571Y-98580952D01*
X161588333Y-98628571D01*
X161553095Y-98652380D01*
X161482619Y-98676190D01*
X161271190Y-98676190D01*
X161200714Y-98652380D01*
X161165476Y-98628571D01*
X162680714Y-98842857D02*
X162680714Y-98128571D01*
X164160714Y-98200000D02*
X164090238Y-98176190D01*
X163984523Y-98176190D01*
X163878809Y-98200000D01*
X163808333Y-98247619D01*
X163773095Y-98295238D01*
X163737857Y-98390476D01*
X163737857Y-98461904D01*
X163773095Y-98557142D01*
X163808333Y-98604761D01*
X163878809Y-98652380D01*
X163984523Y-98676190D01*
X164055000Y-98676190D01*
X164160714Y-98652380D01*
X164195952Y-98628571D01*
X164195952Y-98461904D01*
X164055000Y-98461904D01*
D11*
X110076785Y-74385714D02*
X110005357Y-74457142D01*
X109791071Y-74528571D01*
X109648214Y-74528571D01*
X109433928Y-74457142D01*
X109291071Y-74314285D01*
X109219642Y-74171428D01*
X109148214Y-73885714D01*
X109148214Y-73671428D01*
X109219642Y-73385714D01*
X109291071Y-73242857D01*
X109433928Y-73100000D01*
X109648214Y-73028571D01*
X109791071Y-73028571D01*
X110005357Y-73100000D01*
X110076785Y-73171428D01*
X109719642Y-85792857D02*
X109933928Y-85864285D01*
X110005357Y-85935714D01*
X110076785Y-86078571D01*
X110076785Y-86292857D01*
X110005357Y-86435714D01*
X109933928Y-86507142D01*
X109791071Y-86578571D01*
X109219642Y-86578571D01*
X109219642Y-85078571D01*
X109719642Y-85078571D01*
X109862500Y-85150000D01*
X109933928Y-85221428D01*
X110005357Y-85364285D01*
X110005357Y-85507142D01*
X109933928Y-85650000D01*
X109862500Y-85721428D01*
X109719642Y-85792857D01*
X109219642Y-85792857D01*
X109148214Y-98150000D02*
X109862500Y-98150000D01*
X109005357Y-98578571D02*
X109505357Y-97078571D01*
X110005357Y-98578571D01*
D10*
X110176190Y-107615952D02*
X109676190Y-107615952D01*
X109914285Y-107615952D02*
X109914285Y-107330238D01*
X110176190Y-107330238D02*
X109676190Y-107330238D01*
X110128571Y-106806428D02*
X110152380Y-106830238D01*
X110176190Y-106901666D01*
X110176190Y-106949285D01*
X110152380Y-107020714D01*
X110104761Y-107068333D01*
X110057142Y-107092142D01*
X109961904Y-107115952D01*
X109890476Y-107115952D01*
X109795238Y-107092142D01*
X109747619Y-107068333D01*
X109700000Y-107020714D01*
X109676190Y-106949285D01*
X109676190Y-106901666D01*
X109700000Y-106830238D01*
X109723809Y-106806428D01*
X111276190Y-107615952D02*
X110776190Y-107615952D01*
X111014285Y-107615952D02*
X111014285Y-107330238D01*
X111276190Y-107330238D02*
X110776190Y-107330238D01*
X111133333Y-107115952D02*
X111133333Y-106877857D01*
X111276190Y-107163571D02*
X110776190Y-106996904D01*
X111276190Y-106830238D01*
X112376190Y-107615952D02*
X111876190Y-107615952D01*
X112114285Y-107615952D02*
X112114285Y-107330238D01*
X112376190Y-107330238D02*
X111876190Y-107330238D01*
X112114285Y-106925476D02*
X112138095Y-106854047D01*
X112161904Y-106830238D01*
X112209523Y-106806428D01*
X112280952Y-106806428D01*
X112328571Y-106830238D01*
X112352380Y-106854047D01*
X112376190Y-106901666D01*
X112376190Y-107092142D01*
X111876190Y-107092142D01*
X111876190Y-106925476D01*
X111900000Y-106877857D01*
X111923809Y-106854047D01*
X111971428Y-106830238D01*
X112019047Y-106830238D01*
X112066666Y-106854047D01*
X112090476Y-106877857D01*
X112114285Y-106925476D01*
X112114285Y-107092142D01*
X113000000Y-107354047D02*
X112976190Y-107401666D01*
X112976190Y-107473095D01*
X113000000Y-107544523D01*
X113047619Y-107592142D01*
X113095238Y-107615952D01*
X113190476Y-107639761D01*
X113261904Y-107639761D01*
X113357142Y-107615952D01*
X113404761Y-107592142D01*
X113452380Y-107544523D01*
X113476190Y-107473095D01*
X113476190Y-107425476D01*
X113452380Y-107354047D01*
X113428571Y-107330238D01*
X113261904Y-107330238D01*
X113261904Y-107425476D01*
X113476190Y-107115952D02*
X112976190Y-107115952D01*
X113476190Y-106830238D01*
X112976190Y-106830238D01*
X113476190Y-106592142D02*
X112976190Y-106592142D01*
X112976190Y-106473095D01*
X113000000Y-106401666D01*
X113047619Y-106354047D01*
X113095238Y-106330238D01*
X113190476Y-106306428D01*
X113261904Y-106306428D01*
X113357142Y-106330238D01*
X113404761Y-106354047D01*
X113452380Y-106401666D01*
X113476190Y-106473095D01*
X113476190Y-106592142D01*
X144415000Y-78792857D02*
X144034047Y-78935714D01*
X144415000Y-79078571D01*
X144653095Y-78935714D02*
X145034047Y-78935714D01*
X145330952Y-78801190D02*
X145330952Y-78301190D01*
X145497619Y-78658333D01*
X145664285Y-78301190D01*
X145664285Y-78801190D01*
X145973809Y-78801190D02*
X145926190Y-78777380D01*
X145902380Y-78753571D01*
X145878571Y-78705952D01*
X145878571Y-78563095D01*
X145902380Y-78515476D01*
X145926190Y-78491666D01*
X145973809Y-78467857D01*
X146045238Y-78467857D01*
X146092857Y-78491666D01*
X146116666Y-78515476D01*
X146140476Y-78563095D01*
X146140476Y-78705952D01*
X146116666Y-78753571D01*
X146092857Y-78777380D01*
X146045238Y-78801190D01*
X145973809Y-78801190D01*
X146283333Y-78467857D02*
X146473809Y-78467857D01*
X146354761Y-78301190D02*
X146354761Y-78729761D01*
X146378571Y-78777380D01*
X146426190Y-78801190D01*
X146473809Y-78801190D01*
X146711904Y-78801190D02*
X146664285Y-78777380D01*
X146640476Y-78753571D01*
X146616666Y-78705952D01*
X146616666Y-78563095D01*
X146640476Y-78515476D01*
X146664285Y-78491666D01*
X146711904Y-78467857D01*
X146783333Y-78467857D01*
X146830952Y-78491666D01*
X146854761Y-78515476D01*
X146878571Y-78563095D01*
X146878571Y-78705952D01*
X146854761Y-78753571D01*
X146830952Y-78777380D01*
X146783333Y-78801190D01*
X146711904Y-78801190D01*
X147092857Y-78801190D02*
X147092857Y-78467857D01*
X147092857Y-78563095D02*
X147116666Y-78515476D01*
X147140476Y-78491666D01*
X147188095Y-78467857D01*
X147235714Y-78467857D01*
X147378571Y-78777380D02*
X147426190Y-78801190D01*
X147521428Y-78801190D01*
X147569047Y-78777380D01*
X147592857Y-78729761D01*
X147592857Y-78705952D01*
X147569047Y-78658333D01*
X147521428Y-78634523D01*
X147450000Y-78634523D01*
X147402380Y-78610714D01*
X147378571Y-78563095D01*
X147378571Y-78539285D01*
X147402380Y-78491666D01*
X147450000Y-78467857D01*
X147521428Y-78467857D01*
X147569047Y-78491666D01*
X144973809Y-79389285D02*
X145140476Y-79389285D01*
X145211904Y-79651190D02*
X144973809Y-79651190D01*
X144973809Y-79151190D01*
X145211904Y-79151190D01*
X145426190Y-79317857D02*
X145426190Y-79651190D01*
X145426190Y-79365476D02*
X145450000Y-79341666D01*
X145497619Y-79317857D01*
X145569047Y-79317857D01*
X145616666Y-79341666D01*
X145640476Y-79389285D01*
X145640476Y-79651190D01*
X146092857Y-79651190D02*
X146092857Y-79389285D01*
X146069047Y-79341666D01*
X146021428Y-79317857D01*
X145926190Y-79317857D01*
X145878571Y-79341666D01*
X146092857Y-79627380D02*
X146045238Y-79651190D01*
X145926190Y-79651190D01*
X145878571Y-79627380D01*
X145854761Y-79579761D01*
X145854761Y-79532142D01*
X145878571Y-79484523D01*
X145926190Y-79460714D01*
X146045238Y-79460714D01*
X146092857Y-79436904D01*
X146330952Y-79651190D02*
X146330952Y-79151190D01*
X146330952Y-79341666D02*
X146378571Y-79317857D01*
X146473809Y-79317857D01*
X146521428Y-79341666D01*
X146545238Y-79365476D01*
X146569047Y-79413095D01*
X146569047Y-79555952D01*
X146545238Y-79603571D01*
X146521428Y-79627380D01*
X146473809Y-79651190D01*
X146378571Y-79651190D01*
X146330952Y-79627380D01*
X146854761Y-79651190D02*
X146807142Y-79627380D01*
X146783333Y-79579761D01*
X146783333Y-79151190D01*
X147235714Y-79627380D02*
X147188095Y-79651190D01*
X147092857Y-79651190D01*
X147045238Y-79627380D01*
X147021428Y-79579761D01*
X147021428Y-79389285D01*
X147045238Y-79341666D01*
X147092857Y-79317857D01*
X147188095Y-79317857D01*
X147235714Y-79341666D01*
X147259523Y-79389285D01*
X147259523Y-79436904D01*
X147021428Y-79484523D01*
X147688095Y-79651190D02*
X147688095Y-79151190D01*
X147688095Y-79627380D02*
X147640476Y-79651190D01*
X147545238Y-79651190D01*
X147497619Y-79627380D01*
X147473809Y-79603571D01*
X147450000Y-79555952D01*
X147450000Y-79413095D01*
X147473809Y-79365476D01*
X147497619Y-79341666D01*
X147545238Y-79317857D01*
X147640476Y-79317857D01*
X147688095Y-79341666D01*
X147926190Y-79603571D02*
X147950000Y-79627380D01*
X147926190Y-79651190D01*
X147902380Y-79627380D01*
X147926190Y-79603571D01*
X147926190Y-79651190D01*
X147926190Y-79460714D02*
X147902380Y-79175000D01*
X147926190Y-79151190D01*
X147950000Y-79175000D01*
X147926190Y-79460714D01*
X147926190Y-79151190D01*
X141911904Y-97626190D02*
X141911904Y-97126190D01*
X142102380Y-97126190D01*
X142150000Y-97150000D01*
X142173809Y-97173809D01*
X142197619Y-97221428D01*
X142197619Y-97292857D01*
X142173809Y-97340476D01*
X142150000Y-97364285D01*
X142102380Y-97388095D01*
X141911904Y-97388095D01*
X142483333Y-97626190D02*
X142435714Y-97602380D01*
X142411904Y-97578571D01*
X142388095Y-97530952D01*
X142388095Y-97388095D01*
X142411904Y-97340476D01*
X142435714Y-97316666D01*
X142483333Y-97292857D01*
X142554761Y-97292857D01*
X142602380Y-97316666D01*
X142626190Y-97340476D01*
X142650000Y-97388095D01*
X142650000Y-97530952D01*
X142626190Y-97578571D01*
X142602380Y-97602380D01*
X142554761Y-97626190D01*
X142483333Y-97626190D01*
X142816666Y-97292857D02*
X142911904Y-97626190D01*
X143007142Y-97388095D01*
X143102380Y-97626190D01*
X143197619Y-97292857D01*
X143578571Y-97602380D02*
X143530952Y-97626190D01*
X143435714Y-97626190D01*
X143388095Y-97602380D01*
X143364285Y-97554761D01*
X143364285Y-97364285D01*
X143388095Y-97316666D01*
X143435714Y-97292857D01*
X143530952Y-97292857D01*
X143578571Y-97316666D01*
X143602380Y-97364285D01*
X143602380Y-97411904D01*
X143364285Y-97459523D01*
X143816666Y-97626190D02*
X143816666Y-97292857D01*
X143816666Y-97388095D02*
X143840476Y-97340476D01*
X143864285Y-97316666D01*
X143911904Y-97292857D01*
X143959523Y-97292857D01*
X157055952Y-71033333D02*
X157408333Y-71033333D01*
X156985476Y-71176190D02*
X157232142Y-70676190D01*
X157478809Y-71176190D01*
X158465476Y-71342857D02*
X158465476Y-70628571D01*
X159804523Y-70914285D02*
X159910238Y-70938095D01*
X159945476Y-70961904D01*
X159980714Y-71009523D01*
X159980714Y-71080952D01*
X159945476Y-71128571D01*
X159910238Y-71152380D01*
X159839761Y-71176190D01*
X159557857Y-71176190D01*
X159557857Y-70676190D01*
X159804523Y-70676190D01*
X159875000Y-70700000D01*
X159910238Y-70723809D01*
X159945476Y-70771428D01*
X159945476Y-70819047D01*
X159910238Y-70866666D01*
X159875000Y-70890476D01*
X159804523Y-70914285D01*
X159557857Y-70914285D01*
X161037857Y-71342857D02*
X161037857Y-70628571D01*
X162059761Y-70676190D02*
X162553095Y-70676190D01*
X162059761Y-71176190D01*
X162553095Y-71176190D01*
X163575000Y-71342857D02*
X163575000Y-70628571D01*
X165019761Y-70676190D02*
X164667380Y-70676190D01*
X164632142Y-70914285D01*
X164667380Y-70890476D01*
X164737857Y-70866666D01*
X164914047Y-70866666D01*
X164984523Y-70890476D01*
X165019761Y-70914285D01*
X165055000Y-70961904D01*
X165055000Y-71080952D01*
X165019761Y-71128571D01*
X164984523Y-71152380D01*
X164914047Y-71176190D01*
X164737857Y-71176190D01*
X164667380Y-71152380D01*
X164632142Y-71128571D01*
X166112142Y-71342857D02*
X166112142Y-70628571D01*
X167592142Y-70700000D02*
X167521666Y-70676190D01*
X167415952Y-70676190D01*
X167310238Y-70700000D01*
X167239761Y-70747619D01*
X167204523Y-70795238D01*
X167169285Y-70890476D01*
X167169285Y-70961904D01*
X167204523Y-71057142D01*
X167239761Y-71104761D01*
X167310238Y-71152380D01*
X167415952Y-71176190D01*
X167486428Y-71176190D01*
X167592142Y-71152380D01*
X167627380Y-71128571D01*
X167627380Y-70961904D01*
X167486428Y-70961904D01*
D12*
X174611904Y-105392857D02*
X173088095Y-105392857D01*
X170611904Y-105392857D02*
X169088095Y-105392857D01*
X169850000Y-106154761D02*
X169850000Y-104630952D01*
D13*
X173380278Y-88100000D02*
G75*
G03*
X173380278Y-88100000I-180278J0D01*
G01*
D14*
X177238110Y-93202380D02*
X177809538Y-93202380D01*
X177398824Y-94202380D02*
X177523824Y-93202380D01*
X178047633Y-93202380D02*
X178589300Y-94202380D01*
X178714300Y-93202380D02*
X177922633Y-94202380D01*
X181308348Y-94202380D02*
X181034538Y-93726190D01*
X180736919Y-94202380D02*
X180861919Y-93202380D01*
X181242872Y-93202380D01*
X181332157Y-93250000D01*
X181373824Y-93297619D01*
X181409538Y-93392857D01*
X181391681Y-93535714D01*
X181332157Y-93630952D01*
X181278586Y-93678571D01*
X181177395Y-93726190D01*
X180796443Y-93726190D01*
X181766681Y-93202380D02*
X182308348Y-94202380D01*
X182433348Y-93202380D02*
X181641681Y-94202380D01*
D15*
%TO.C,G\u002A\u002A\u002A*%
G36*
X154251116Y-71936123D02*
G01*
X154279331Y-71943698D01*
X154282690Y-71945228D01*
X154306009Y-71963020D01*
X154321250Y-71988717D01*
X154327272Y-72020315D01*
X154327324Y-72023655D01*
X154325415Y-72034543D01*
X154320035Y-72055244D01*
X154311705Y-72084155D01*
X154300950Y-72119673D01*
X154288294Y-72160196D01*
X154274259Y-72204120D01*
X154259370Y-72249842D01*
X154244149Y-72295759D01*
X154229120Y-72340269D01*
X154214807Y-72381768D01*
X154201733Y-72418654D01*
X154190422Y-72449323D01*
X154181396Y-72472172D01*
X154179135Y-72477437D01*
X154156206Y-72516256D01*
X154125007Y-72550242D01*
X154088645Y-72576158D01*
X154080245Y-72580463D01*
X154045257Y-72592860D01*
X154007361Y-72599197D01*
X153970454Y-72599241D01*
X153938435Y-72592758D01*
X153930190Y-72589424D01*
X153905051Y-72571592D01*
X153889265Y-72546575D01*
X153883252Y-72515341D01*
X153885706Y-72486812D01*
X153888728Y-72474876D01*
X153988667Y-72474876D01*
X153992613Y-72491800D01*
X154005127Y-72501240D01*
X154025731Y-72504000D01*
X154044451Y-72501177D01*
X154061283Y-72491080D01*
X154068804Y-72484346D01*
X154074789Y-72477899D01*
X154080619Y-72469658D01*
X154086796Y-72458372D01*
X154093825Y-72442787D01*
X154102208Y-72421652D01*
X154112447Y-72393714D01*
X154125046Y-72357722D01*
X154140509Y-72312424D01*
X154154341Y-72271428D01*
X154169893Y-72224726D01*
X154184141Y-72181028D01*
X154196625Y-72141820D01*
X154206884Y-72108585D01*
X154214458Y-72082807D01*
X154218884Y-72065972D01*
X154219862Y-72060372D01*
X154215141Y-72041852D01*
X154201521Y-72029687D01*
X154185570Y-72026261D01*
X154166879Y-72031087D01*
X154146927Y-72043411D01*
X154130211Y-72060095D01*
X154124617Y-72068805D01*
X154119522Y-72080668D01*
X154111494Y-72101829D01*
X154101091Y-72130624D01*
X154088871Y-72165387D01*
X154075390Y-72204455D01*
X154061206Y-72246161D01*
X154046877Y-72288843D01*
X154032959Y-72330835D01*
X154020010Y-72370472D01*
X154008587Y-72406090D01*
X153999248Y-72436024D01*
X153992550Y-72458609D01*
X153989050Y-72472181D01*
X153988667Y-72474876D01*
X153888728Y-72474876D01*
X153889392Y-72472257D01*
X153896564Y-72448065D01*
X153906626Y-72415984D01*
X153918985Y-72377763D01*
X153933045Y-72335153D01*
X153948213Y-72289901D01*
X153963894Y-72243756D01*
X153979493Y-72198468D01*
X153994416Y-72155786D01*
X154008069Y-72117458D01*
X154019857Y-72085234D01*
X154029186Y-72060863D01*
X154035461Y-72046093D01*
X154035569Y-72045873D01*
X154056138Y-72013729D01*
X154083949Y-71983935D01*
X154115571Y-71959618D01*
X154147347Y-71943981D01*
X154180813Y-71936225D01*
X154216840Y-71933619D01*
X154251116Y-71936123D01*
G37*
X154251116Y-71936123D02*
X154279331Y-71943698D01*
X154282690Y-71945228D01*
X154306009Y-71963020D01*
X154321250Y-71988717D01*
X154327272Y-72020315D01*
X154327324Y-72023655D01*
X154325415Y-72034543D01*
X154320035Y-72055244D01*
X154311705Y-72084155D01*
X154300950Y-72119673D01*
X154288294Y-72160196D01*
X154274259Y-72204120D01*
X154259370Y-72249842D01*
X154244149Y-72295759D01*
X154229120Y-72340269D01*
X154214807Y-72381768D01*
X154201733Y-72418654D01*
X154190422Y-72449323D01*
X154181396Y-72472172D01*
X154179135Y-72477437D01*
X154156206Y-72516256D01*
X154125007Y-72550242D01*
X154088645Y-72576158D01*
X154080245Y-72580463D01*
X154045257Y-72592860D01*
X154007361Y-72599197D01*
X153970454Y-72599241D01*
X153938435Y-72592758D01*
X153930190Y-72589424D01*
X153905051Y-72571592D01*
X153889265Y-72546575D01*
X153883252Y-72515341D01*
X153885706Y-72486812D01*
X153888728Y-72474876D01*
X153988667Y-72474876D01*
X153992613Y-72491800D01*
X154005127Y-72501240D01*
X154025731Y-72504000D01*
X154044451Y-72501177D01*
X154061283Y-72491080D01*
X154068804Y-72484346D01*
X154074789Y-72477899D01*
X154080619Y-72469658D01*
X154086796Y-72458372D01*
X154093825Y-72442787D01*
X154102208Y-72421652D01*
X154112447Y-72393714D01*
X154125046Y-72357722D01*
X154140509Y-72312424D01*
X154154341Y-72271428D01*
X154169893Y-72224726D01*
X154184141Y-72181028D01*
X154196625Y-72141820D01*
X154206884Y-72108585D01*
X154214458Y-72082807D01*
X154218884Y-72065972D01*
X154219862Y-72060372D01*
X154215141Y-72041852D01*
X154201521Y-72029687D01*
X154185570Y-72026261D01*
X154166879Y-72031087D01*
X154146927Y-72043411D01*
X154130211Y-72060095D01*
X154124617Y-72068805D01*
X154119522Y-72080668D01*
X154111494Y-72101829D01*
X154101091Y-72130624D01*
X154088871Y-72165387D01*
X154075390Y-72204455D01*
X154061206Y-72246161D01*
X154046877Y-72288843D01*
X154032959Y-72330835D01*
X154020010Y-72370472D01*
X154008587Y-72406090D01*
X153999248Y-72436024D01*
X153992550Y-72458609D01*
X153989050Y-72472181D01*
X153988667Y-72474876D01*
X153888728Y-72474876D01*
X153889392Y-72472257D01*
X153896564Y-72448065D01*
X153906626Y-72415984D01*
X153918985Y-72377763D01*
X153933045Y-72335153D01*
X153948213Y-72289901D01*
X153963894Y-72243756D01*
X153979493Y-72198468D01*
X153994416Y-72155786D01*
X154008069Y-72117458D01*
X154019857Y-72085234D01*
X154029186Y-72060863D01*
X154035461Y-72046093D01*
X154035569Y-72045873D01*
X154056138Y-72013729D01*
X154083949Y-71983935D01*
X154115571Y-71959618D01*
X154147347Y-71943981D01*
X154180813Y-71936225D01*
X154216840Y-71933619D01*
X154251116Y-71936123D01*
G36*
X152854335Y-71936612D02*
G01*
X152900129Y-71938222D01*
X152935635Y-71940839D01*
X152962650Y-71944971D01*
X152982971Y-71951125D01*
X152998396Y-71959810D01*
X153010721Y-71971533D01*
X153019456Y-71983288D01*
X153029801Y-72006181D01*
X153032690Y-72033781D01*
X153028140Y-72067884D01*
X153020514Y-72096661D01*
X153001778Y-72151377D01*
X152981700Y-72195699D01*
X152959205Y-72231325D01*
X152933223Y-72259953D01*
X152902679Y-72283283D01*
X152902588Y-72283341D01*
X152869857Y-72304279D01*
X152869857Y-72594715D01*
X152760130Y-72594715D01*
X152763403Y-72562965D01*
X152764703Y-72546328D01*
X152766229Y-72520350D01*
X152767843Y-72487778D01*
X152769407Y-72451360D01*
X152770452Y-72423515D01*
X152774226Y-72315815D01*
X152745735Y-72317682D01*
X152717243Y-72319548D01*
X152670537Y-72455619D01*
X152623832Y-72591691D01*
X152574754Y-72593443D01*
X152525677Y-72595195D01*
X152569859Y-72466443D01*
X152583058Y-72427909D01*
X152599231Y-72380582D01*
X152617471Y-72327121D01*
X152636870Y-72270189D01*
X152654031Y-72219762D01*
X152750618Y-72219762D01*
X152800736Y-72219762D01*
X152825698Y-72219504D01*
X152842071Y-72218081D01*
X152853359Y-72214520D01*
X152863066Y-72207849D01*
X152871534Y-72200108D01*
X152886094Y-72182383D01*
X152898749Y-72157755D01*
X152908250Y-72132051D01*
X152918963Y-72096109D01*
X152923441Y-72069634D01*
X152921040Y-72051370D01*
X152911115Y-72040059D01*
X152893021Y-72034441D01*
X152866113Y-72033260D01*
X152857744Y-72033518D01*
X152813939Y-72035310D01*
X152782279Y-72127536D01*
X152750618Y-72219762D01*
X152654031Y-72219762D01*
X152656521Y-72212448D01*
X152675518Y-72156558D01*
X152682541Y-72135872D01*
X152751041Y-71934054D01*
X152854335Y-71936612D01*
G37*
X152854335Y-71936612D02*
X152900129Y-71938222D01*
X152935635Y-71940839D01*
X152962650Y-71944971D01*
X152982971Y-71951125D01*
X152998396Y-71959810D01*
X153010721Y-71971533D01*
X153019456Y-71983288D01*
X153029801Y-72006181D01*
X153032690Y-72033781D01*
X153028140Y-72067884D01*
X153020514Y-72096661D01*
X153001778Y-72151377D01*
X152981700Y-72195699D01*
X152959205Y-72231325D01*
X152933223Y-72259953D01*
X152902679Y-72283283D01*
X152902588Y-72283341D01*
X152869857Y-72304279D01*
X152869857Y-72594715D01*
X152760130Y-72594715D01*
X152763403Y-72562965D01*
X152764703Y-72546328D01*
X152766229Y-72520350D01*
X152767843Y-72487778D01*
X152769407Y-72451360D01*
X152770452Y-72423515D01*
X152774226Y-72315815D01*
X152745735Y-72317682D01*
X152717243Y-72319548D01*
X152670537Y-72455619D01*
X152623832Y-72591691D01*
X152574754Y-72593443D01*
X152525677Y-72595195D01*
X152569859Y-72466443D01*
X152583058Y-72427909D01*
X152599231Y-72380582D01*
X152617471Y-72327121D01*
X152636870Y-72270189D01*
X152654031Y-72219762D01*
X152750618Y-72219762D01*
X152800736Y-72219762D01*
X152825698Y-72219504D01*
X152842071Y-72218081D01*
X152853359Y-72214520D01*
X152863066Y-72207849D01*
X152871534Y-72200108D01*
X152886094Y-72182383D01*
X152898749Y-72157755D01*
X152908250Y-72132051D01*
X152918963Y-72096109D01*
X152923441Y-72069634D01*
X152921040Y-72051370D01*
X152911115Y-72040059D01*
X152893021Y-72034441D01*
X152866113Y-72033260D01*
X152857744Y-72033518D01*
X152813939Y-72035310D01*
X152782279Y-72127536D01*
X152750618Y-72219762D01*
X152654031Y-72219762D01*
X152656521Y-72212448D01*
X152675518Y-72156558D01*
X152682541Y-72135872D01*
X152751041Y-71934054D01*
X152854335Y-71936612D01*
G36*
X153352475Y-71935477D02*
G01*
X153385107Y-71936245D01*
X153413206Y-71937429D01*
X153434727Y-71939024D01*
X153447625Y-71941026D01*
X153450428Y-71942655D01*
X153448671Y-71951646D01*
X153444049Y-71968546D01*
X153437542Y-71989793D01*
X153437143Y-71991036D01*
X153423857Y-72032286D01*
X153233717Y-72032286D01*
X153205112Y-72118465D01*
X153194890Y-72149206D01*
X153185899Y-72176150D01*
X153178882Y-72197074D01*
X153174583Y-72209756D01*
X153173725Y-72212203D01*
X153175355Y-72215360D01*
X153183877Y-72217562D01*
X153200680Y-72218940D01*
X153227150Y-72219625D01*
X153253881Y-72219762D01*
X153288450Y-72220018D01*
X153312320Y-72220872D01*
X153326877Y-72222455D01*
X153333508Y-72224898D01*
X153334133Y-72227322D01*
X153330901Y-72236534D01*
X153324959Y-72253559D01*
X153317567Y-72274786D01*
X153317248Y-72275703D01*
X153303049Y-72316524D01*
X153137006Y-72316524D01*
X153106698Y-72407239D01*
X153076390Y-72497953D01*
X153170318Y-72497953D01*
X153207408Y-72498171D01*
X153233742Y-72498900D01*
X153250653Y-72500250D01*
X153259475Y-72502331D01*
X153261541Y-72505255D01*
X153261460Y-72505512D01*
X153258262Y-72514764D01*
X153252514Y-72531864D01*
X153245440Y-72553170D01*
X153245201Y-72553893D01*
X153231728Y-72594715D01*
X153090102Y-72594715D01*
X153049088Y-72594493D01*
X153013029Y-72593869D01*
X152983494Y-72592901D01*
X152962051Y-72591651D01*
X152950269Y-72590177D01*
X152948476Y-72589292D01*
X152950374Y-72582618D01*
X152955780Y-72565771D01*
X152964266Y-72540011D01*
X152975401Y-72506602D01*
X152988756Y-72466804D01*
X153003900Y-72421879D01*
X153020404Y-72373091D01*
X153037839Y-72321700D01*
X153055773Y-72268968D01*
X153073779Y-72216158D01*
X153091425Y-72164532D01*
X153108282Y-72115351D01*
X153123921Y-72069877D01*
X153137911Y-72029372D01*
X153149823Y-71995098D01*
X153159226Y-71968318D01*
X153165692Y-71950293D01*
X153168790Y-71942284D01*
X153168899Y-71942081D01*
X153176004Y-71939825D01*
X153192891Y-71938013D01*
X153217515Y-71936642D01*
X153247830Y-71935707D01*
X153281791Y-71935204D01*
X153317355Y-71935129D01*
X153352475Y-71935477D01*
G37*
X153352475Y-71935477D02*
X153385107Y-71936245D01*
X153413206Y-71937429D01*
X153434727Y-71939024D01*
X153447625Y-71941026D01*
X153450428Y-71942655D01*
X153448671Y-71951646D01*
X153444049Y-71968546D01*
X153437542Y-71989793D01*
X153437143Y-71991036D01*
X153423857Y-72032286D01*
X153233717Y-72032286D01*
X153205112Y-72118465D01*
X153194890Y-72149206D01*
X153185899Y-72176150D01*
X153178882Y-72197074D01*
X153174583Y-72209756D01*
X153173725Y-72212203D01*
X153175355Y-72215360D01*
X153183877Y-72217562D01*
X153200680Y-72218940D01*
X153227150Y-72219625D01*
X153253881Y-72219762D01*
X153288450Y-72220018D01*
X153312320Y-72220872D01*
X153326877Y-72222455D01*
X153333508Y-72224898D01*
X153334133Y-72227322D01*
X153330901Y-72236534D01*
X153324959Y-72253559D01*
X153317567Y-72274786D01*
X153317248Y-72275703D01*
X153303049Y-72316524D01*
X153137006Y-72316524D01*
X153106698Y-72407239D01*
X153076390Y-72497953D01*
X153170318Y-72497953D01*
X153207408Y-72498171D01*
X153233742Y-72498900D01*
X153250653Y-72500250D01*
X153259475Y-72502331D01*
X153261541Y-72505255D01*
X153261460Y-72505512D01*
X153258262Y-72514764D01*
X153252514Y-72531864D01*
X153245440Y-72553170D01*
X153245201Y-72553893D01*
X153231728Y-72594715D01*
X153090102Y-72594715D01*
X153049088Y-72594493D01*
X153013029Y-72593869D01*
X152983494Y-72592901D01*
X152962051Y-72591651D01*
X152950269Y-72590177D01*
X152948476Y-72589292D01*
X152950374Y-72582618D01*
X152955780Y-72565771D01*
X152964266Y-72540011D01*
X152975401Y-72506602D01*
X152988756Y-72466804D01*
X153003900Y-72421879D01*
X153020404Y-72373091D01*
X153037839Y-72321700D01*
X153055773Y-72268968D01*
X153073779Y-72216158D01*
X153091425Y-72164532D01*
X153108282Y-72115351D01*
X153123921Y-72069877D01*
X153137911Y-72029372D01*
X153149823Y-71995098D01*
X153159226Y-71968318D01*
X153165692Y-71950293D01*
X153168790Y-71942284D01*
X153168899Y-71942081D01*
X153176004Y-71939825D01*
X153192891Y-71938013D01*
X153217515Y-71936642D01*
X153247830Y-71935707D01*
X153281791Y-71935204D01*
X153317355Y-71935129D01*
X153352475Y-71935477D01*
G36*
X153566903Y-71936672D02*
G01*
X153574470Y-71938847D01*
X153577159Y-71943161D01*
X153577428Y-71946934D01*
X153576366Y-71955473D01*
X153573344Y-71974480D01*
X153568610Y-72002527D01*
X153562411Y-72038191D01*
X153554995Y-72080044D01*
X153546609Y-72126662D01*
X153538119Y-72173257D01*
X153529081Y-72222850D01*
X153520802Y-72268844D01*
X153513524Y-72309847D01*
X153507492Y-72344461D01*
X153502948Y-72371294D01*
X153500135Y-72388950D01*
X153499288Y-72395948D01*
X153501977Y-72392486D01*
X153509471Y-72379234D01*
X153521224Y-72357248D01*
X153536689Y-72327585D01*
X153555316Y-72291300D01*
X153576560Y-72249450D01*
X153599871Y-72203092D01*
X153615704Y-72171381D01*
X153731643Y-71938548D01*
X153781536Y-71936792D01*
X153804373Y-71936523D01*
X153821715Y-71937339D01*
X153830749Y-71939068D01*
X153831428Y-71939834D01*
X153828662Y-71945889D01*
X153820691Y-71961680D01*
X153808005Y-71986270D01*
X153791095Y-72018724D01*
X153770451Y-72058106D01*
X153746563Y-72103482D01*
X153719923Y-72153915D01*
X153691019Y-72208470D01*
X153660344Y-72266211D01*
X153659306Y-72268162D01*
X153487184Y-72591691D01*
X153435544Y-72593438D01*
X153383905Y-72595186D01*
X153384302Y-72578319D01*
X153385253Y-72569199D01*
X153387838Y-72549309D01*
X153391885Y-72519840D01*
X153397226Y-72481985D01*
X153403689Y-72436933D01*
X153411105Y-72385875D01*
X153419304Y-72330002D01*
X153428116Y-72270506D01*
X153431171Y-72250000D01*
X153477643Y-71938548D01*
X153527536Y-71936792D01*
X153552058Y-71936149D01*
X153566903Y-71936672D01*
G37*
X153566903Y-71936672D02*
X153574470Y-71938847D01*
X153577159Y-71943161D01*
X153577428Y-71946934D01*
X153576366Y-71955473D01*
X153573344Y-71974480D01*
X153568610Y-72002527D01*
X153562411Y-72038191D01*
X153554995Y-72080044D01*
X153546609Y-72126662D01*
X153538119Y-72173257D01*
X153529081Y-72222850D01*
X153520802Y-72268844D01*
X153513524Y-72309847D01*
X153507492Y-72344461D01*
X153502948Y-72371294D01*
X153500135Y-72388950D01*
X153499288Y-72395948D01*
X153501977Y-72392486D01*
X153509471Y-72379234D01*
X153521224Y-72357248D01*
X153536689Y-72327585D01*
X153555316Y-72291300D01*
X153576560Y-72249450D01*
X153599871Y-72203092D01*
X153615704Y-72171381D01*
X153731643Y-71938548D01*
X153781536Y-71936792D01*
X153804373Y-71936523D01*
X153821715Y-71937339D01*
X153830749Y-71939068D01*
X153831428Y-71939834D01*
X153828662Y-71945889D01*
X153820691Y-71961680D01*
X153808005Y-71986270D01*
X153791095Y-72018724D01*
X153770451Y-72058106D01*
X153746563Y-72103482D01*
X153719923Y-72153915D01*
X153691019Y-72208470D01*
X153660344Y-72266211D01*
X153659306Y-72268162D01*
X153487184Y-72591691D01*
X153435544Y-72593438D01*
X153383905Y-72595186D01*
X153384302Y-72578319D01*
X153385253Y-72569199D01*
X153387838Y-72549309D01*
X153391885Y-72519840D01*
X153397226Y-72481985D01*
X153403689Y-72436933D01*
X153411105Y-72385875D01*
X153419304Y-72330002D01*
X153428116Y-72270506D01*
X153431171Y-72250000D01*
X153477643Y-71938548D01*
X153527536Y-71936792D01*
X153552058Y-71936149D01*
X153566903Y-71936672D01*
G36*
X154336011Y-72493718D02*
G01*
X154344865Y-72495451D01*
X154345476Y-72496176D01*
X154343679Y-72503780D01*
X154338905Y-72519781D01*
X154332075Y-72541127D01*
X154329860Y-72547825D01*
X154314245Y-72594715D01*
X154213261Y-72594715D01*
X154230008Y-72544822D01*
X154246756Y-72494929D01*
X154296116Y-72493172D01*
X154318819Y-72492901D01*
X154336011Y-72493718D01*
G37*
X154336011Y-72493718D02*
X154344865Y-72495451D01*
X154345476Y-72496176D01*
X154343679Y-72503780D01*
X154338905Y-72519781D01*
X154332075Y-72541127D01*
X154329860Y-72547825D01*
X154314245Y-72594715D01*
X154213261Y-72594715D01*
X154230008Y-72544822D01*
X154246756Y-72494929D01*
X154296116Y-72493172D01*
X154318819Y-72492901D01*
X154336011Y-72493718D01*
G36*
X154744048Y-71936337D02*
G01*
X154761277Y-71938212D01*
X154768669Y-71941140D01*
X154768809Y-71941667D01*
X154766914Y-71948379D01*
X154761459Y-71965492D01*
X154752794Y-71991962D01*
X154741267Y-72026742D01*
X154727227Y-72068788D01*
X154711022Y-72117055D01*
X154693003Y-72170496D01*
X154673516Y-72228068D01*
X154658851Y-72271262D01*
X154548892Y-72594715D01*
X154448693Y-72594715D01*
X154539323Y-72327466D01*
X154557662Y-72273194D01*
X154574689Y-72222426D01*
X154590029Y-72176308D01*
X154603307Y-72135988D01*
X154614147Y-72102611D01*
X154622174Y-72077325D01*
X154627012Y-72061277D01*
X154628322Y-72055652D01*
X154622552Y-72056044D01*
X154608429Y-72060882D01*
X154588441Y-72069251D01*
X154576456Y-72074740D01*
X154552956Y-72085587D01*
X154538465Y-72091481D01*
X154531166Y-72092862D01*
X154529242Y-72090173D01*
X154530156Y-72085996D01*
X154534021Y-72074080D01*
X154540323Y-72054902D01*
X154547475Y-72033288D01*
X154560860Y-71992977D01*
X154614942Y-71964471D01*
X154640354Y-71951376D01*
X154659116Y-71943046D01*
X154675162Y-71938392D01*
X154692427Y-71936328D01*
X154714846Y-71935767D01*
X154718917Y-71935745D01*
X154744048Y-71936337D01*
G37*
X154744048Y-71936337D02*
X154761277Y-71938212D01*
X154768669Y-71941140D01*
X154768809Y-71941667D01*
X154766914Y-71948379D01*
X154761459Y-71965492D01*
X154752794Y-71991962D01*
X154741267Y-72026742D01*
X154727227Y-72068788D01*
X154711022Y-72117055D01*
X154693003Y-72170496D01*
X154673516Y-72228068D01*
X154658851Y-72271262D01*
X154548892Y-72594715D01*
X154448693Y-72594715D01*
X154539323Y-72327466D01*
X154557662Y-72273194D01*
X154574689Y-72222426D01*
X154590029Y-72176308D01*
X154603307Y-72135988D01*
X154614147Y-72102611D01*
X154622174Y-72077325D01*
X154627012Y-72061277D01*
X154628322Y-72055652D01*
X154622552Y-72056044D01*
X154608429Y-72060882D01*
X154588441Y-72069251D01*
X154576456Y-72074740D01*
X154552956Y-72085587D01*
X154538465Y-72091481D01*
X154531166Y-72092862D01*
X154529242Y-72090173D01*
X154530156Y-72085996D01*
X154534021Y-72074080D01*
X154540323Y-72054902D01*
X154547475Y-72033288D01*
X154560860Y-71992977D01*
X154614942Y-71964471D01*
X154640354Y-71951376D01*
X154659116Y-71943046D01*
X154675162Y-71938392D01*
X154692427Y-71936328D01*
X154714846Y-71935767D01*
X154718917Y-71935745D01*
X154744048Y-71936337D01*
G36*
X139353054Y-71335309D02*
G01*
X139422129Y-71335413D01*
X139485080Y-71335575D01*
X139540968Y-71335797D01*
X139588853Y-71336082D01*
X139627794Y-71336431D01*
X139656851Y-71336847D01*
X139675083Y-71337333D01*
X139681550Y-71337887D01*
X139680280Y-71344519D01*
X139675870Y-71362227D01*
X139668638Y-71389863D01*
X139658903Y-71426282D01*
X139646982Y-71470339D01*
X139633192Y-71520886D01*
X139617853Y-71576780D01*
X139601281Y-71636872D01*
X139583795Y-71700019D01*
X139565712Y-71765074D01*
X139547349Y-71830891D01*
X139529026Y-71896325D01*
X139511060Y-71960229D01*
X139493768Y-72021459D01*
X139477468Y-72078867D01*
X139462479Y-72131308D01*
X139449117Y-72177637D01*
X139439092Y-72211987D01*
X139432090Y-72235800D01*
X138942640Y-72235800D01*
X138946730Y-72217178D01*
X138949123Y-72207855D01*
X138954610Y-72187409D01*
X138962883Y-72156956D01*
X138973638Y-72117610D01*
X138986568Y-72070486D01*
X139001368Y-72016698D01*
X139017731Y-71957361D01*
X139035352Y-71893590D01*
X139053925Y-71826499D01*
X139055084Y-71822319D01*
X139073510Y-71755639D01*
X139090814Y-71692650D01*
X139106715Y-71634408D01*
X139120928Y-71581964D01*
X139133171Y-71536373D01*
X139143162Y-71498689D01*
X139150617Y-71469964D01*
X139155254Y-71451254D01*
X139156789Y-71443610D01*
X139156759Y-71443492D01*
X139151391Y-71446706D01*
X139137381Y-71457031D01*
X139115919Y-71473537D01*
X139088193Y-71495293D01*
X139055393Y-71521371D01*
X139018708Y-71550841D01*
X138996913Y-71568477D01*
X138958400Y-71599582D01*
X138922958Y-71627946D01*
X138891804Y-71652613D01*
X138866159Y-71672627D01*
X138847241Y-71687034D01*
X138836270Y-71694878D01*
X138834071Y-71696050D01*
X138828303Y-71691752D01*
X138814708Y-71679600D01*
X138794458Y-71660702D01*
X138768724Y-71636167D01*
X138738677Y-71607104D01*
X138705486Y-71574622D01*
X138695552Y-71564832D01*
X138661870Y-71531741D01*
X138631180Y-71501889D01*
X138604615Y-71476354D01*
X138583310Y-71456216D01*
X138568398Y-71442552D01*
X138561011Y-71436442D01*
X138560430Y-71436245D01*
X138558372Y-71442660D01*
X138553188Y-71460253D01*
X138545178Y-71487974D01*
X138534642Y-71524770D01*
X138521877Y-71569592D01*
X138507184Y-71621387D01*
X138490862Y-71679105D01*
X138473209Y-71741695D01*
X138454526Y-71808105D01*
X138452112Y-71816700D01*
X138433155Y-71884147D01*
X138415075Y-71948402D01*
X138398189Y-72008346D01*
X138382812Y-72062859D01*
X138369260Y-72110824D01*
X138357849Y-72151123D01*
X138348896Y-72182635D01*
X138342716Y-72204245D01*
X138339625Y-72214832D01*
X138339523Y-72215162D01*
X138333065Y-72235800D01*
X138104278Y-72235800D01*
X138042102Y-72235713D01*
X137991627Y-72235431D01*
X137951855Y-72234919D01*
X137921788Y-72234140D01*
X137900428Y-72233061D01*
X137886777Y-72231645D01*
X137879838Y-72229858D01*
X137878520Y-72227862D01*
X137880684Y-72220574D01*
X137885970Y-72202042D01*
X137894101Y-72173256D01*
X137904799Y-72135209D01*
X137917787Y-72088891D01*
X137932786Y-72035295D01*
X137949519Y-71975412D01*
X137967707Y-71910233D01*
X137987075Y-71840750D01*
X138003474Y-71781855D01*
X138023556Y-71709781D01*
X138042669Y-71641340D01*
X138060539Y-71577508D01*
X138076890Y-71519259D01*
X138091448Y-71467569D01*
X138103937Y-71423411D01*
X138114082Y-71387762D01*
X138121609Y-71361596D01*
X138126242Y-71345887D01*
X138127691Y-71341491D01*
X138134469Y-71340904D01*
X138152988Y-71340334D01*
X138182308Y-71339782D01*
X138221487Y-71339252D01*
X138269586Y-71338744D01*
X138325665Y-71338263D01*
X138388783Y-71337809D01*
X138458001Y-71337384D01*
X138532377Y-71336992D01*
X138610973Y-71336634D01*
X138692847Y-71336312D01*
X138777060Y-71336029D01*
X138862672Y-71335787D01*
X138948741Y-71335587D01*
X139034329Y-71335432D01*
X139118494Y-71335325D01*
X139200297Y-71335268D01*
X139278797Y-71335261D01*
X139353054Y-71335309D01*
G37*
X139353054Y-71335309D02*
X139422129Y-71335413D01*
X139485080Y-71335575D01*
X139540968Y-71335797D01*
X139588853Y-71336082D01*
X139627794Y-71336431D01*
X139656851Y-71336847D01*
X139675083Y-71337333D01*
X139681550Y-71337887D01*
X139680280Y-71344519D01*
X139675870Y-71362227D01*
X139668638Y-71389863D01*
X139658903Y-71426282D01*
X139646982Y-71470339D01*
X139633192Y-71520886D01*
X139617853Y-71576780D01*
X139601281Y-71636872D01*
X139583795Y-71700019D01*
X139565712Y-71765074D01*
X139547349Y-71830891D01*
X139529026Y-71896325D01*
X139511060Y-71960229D01*
X139493768Y-72021459D01*
X139477468Y-72078867D01*
X139462479Y-72131308D01*
X139449117Y-72177637D01*
X139439092Y-72211987D01*
X139432090Y-72235800D01*
X138942640Y-72235800D01*
X138946730Y-72217178D01*
X138949123Y-72207855D01*
X138954610Y-72187409D01*
X138962883Y-72156956D01*
X138973638Y-72117610D01*
X138986568Y-72070486D01*
X139001368Y-72016698D01*
X139017731Y-71957361D01*
X139035352Y-71893590D01*
X139053925Y-71826499D01*
X139055084Y-71822319D01*
X139073510Y-71755639D01*
X139090814Y-71692650D01*
X139106715Y-71634408D01*
X139120928Y-71581964D01*
X139133171Y-71536373D01*
X139143162Y-71498689D01*
X139150617Y-71469964D01*
X139155254Y-71451254D01*
X139156789Y-71443610D01*
X139156759Y-71443492D01*
X139151391Y-71446706D01*
X139137381Y-71457031D01*
X139115919Y-71473537D01*
X139088193Y-71495293D01*
X139055393Y-71521371D01*
X139018708Y-71550841D01*
X138996913Y-71568477D01*
X138958400Y-71599582D01*
X138922958Y-71627946D01*
X138891804Y-71652613D01*
X138866159Y-71672627D01*
X138847241Y-71687034D01*
X138836270Y-71694878D01*
X138834071Y-71696050D01*
X138828303Y-71691752D01*
X138814708Y-71679600D01*
X138794458Y-71660702D01*
X138768724Y-71636167D01*
X138738677Y-71607104D01*
X138705486Y-71574622D01*
X138695552Y-71564832D01*
X138661870Y-71531741D01*
X138631180Y-71501889D01*
X138604615Y-71476354D01*
X138583310Y-71456216D01*
X138568398Y-71442552D01*
X138561011Y-71436442D01*
X138560430Y-71436245D01*
X138558372Y-71442660D01*
X138553188Y-71460253D01*
X138545178Y-71487974D01*
X138534642Y-71524770D01*
X138521877Y-71569592D01*
X138507184Y-71621387D01*
X138490862Y-71679105D01*
X138473209Y-71741695D01*
X138454526Y-71808105D01*
X138452112Y-71816700D01*
X138433155Y-71884147D01*
X138415075Y-71948402D01*
X138398189Y-72008346D01*
X138382812Y-72062859D01*
X138369260Y-72110824D01*
X138357849Y-72151123D01*
X138348896Y-72182635D01*
X138342716Y-72204245D01*
X138339625Y-72214832D01*
X138339523Y-72215162D01*
X138333065Y-72235800D01*
X138104278Y-72235800D01*
X138042102Y-72235713D01*
X137991627Y-72235431D01*
X137951855Y-72234919D01*
X137921788Y-72234140D01*
X137900428Y-72233061D01*
X137886777Y-72231645D01*
X137879838Y-72229858D01*
X137878520Y-72227862D01*
X137880684Y-72220574D01*
X137885970Y-72202042D01*
X137894101Y-72173256D01*
X137904799Y-72135209D01*
X137917787Y-72088891D01*
X137932786Y-72035295D01*
X137949519Y-71975412D01*
X137967707Y-71910233D01*
X137987075Y-71840750D01*
X138003474Y-71781855D01*
X138023556Y-71709781D01*
X138042669Y-71641340D01*
X138060539Y-71577508D01*
X138076890Y-71519259D01*
X138091448Y-71467569D01*
X138103937Y-71423411D01*
X138114082Y-71387762D01*
X138121609Y-71361596D01*
X138126242Y-71345887D01*
X138127691Y-71341491D01*
X138134469Y-71340904D01*
X138152988Y-71340334D01*
X138182308Y-71339782D01*
X138221487Y-71339252D01*
X138269586Y-71338744D01*
X138325665Y-71338263D01*
X138388783Y-71337809D01*
X138458001Y-71337384D01*
X138532377Y-71336992D01*
X138610973Y-71336634D01*
X138692847Y-71336312D01*
X138777060Y-71336029D01*
X138862672Y-71335787D01*
X138948741Y-71335587D01*
X139034329Y-71335432D01*
X139118494Y-71335325D01*
X139200297Y-71335268D01*
X139278797Y-71335261D01*
X139353054Y-71335309D01*
G36*
X140170044Y-71340580D02*
G01*
X140219244Y-71340953D01*
X140262837Y-71341538D01*
X140299431Y-71342305D01*
X140327633Y-71343225D01*
X140346052Y-71344267D01*
X140353293Y-71345403D01*
X140353350Y-71345513D01*
X140351715Y-71352343D01*
X140346994Y-71370408D01*
X140339460Y-71398698D01*
X140329386Y-71436201D01*
X140317045Y-71481907D01*
X140302711Y-71534802D01*
X140286658Y-71593877D01*
X140269158Y-71658120D01*
X140250485Y-71726519D01*
X140239635Y-71766201D01*
X140220208Y-71837215D01*
X140201619Y-71905190D01*
X140184162Y-71969043D01*
X140168134Y-72027692D01*
X140153831Y-72080052D01*
X140141548Y-72125040D01*
X140131582Y-72161572D01*
X140124228Y-72188566D01*
X140119782Y-72204938D01*
X140118740Y-72208812D01*
X140111560Y-72235800D01*
X139630346Y-72235800D01*
X139641694Y-72196112D01*
X139645336Y-72183206D01*
X139652061Y-72159200D01*
X139661552Y-72125233D01*
X139673492Y-72082442D01*
X139687565Y-72031963D01*
X139703452Y-71974935D01*
X139720837Y-71912494D01*
X139739403Y-71845778D01*
X139758832Y-71775924D01*
X139766475Y-71748437D01*
X139879909Y-71340450D01*
X140116629Y-71340450D01*
X140170044Y-71340580D01*
G37*
X140170044Y-71340580D02*
X140219244Y-71340953D01*
X140262837Y-71341538D01*
X140299431Y-71342305D01*
X140327633Y-71343225D01*
X140346052Y-71344267D01*
X140353293Y-71345403D01*
X140353350Y-71345513D01*
X140351715Y-71352343D01*
X140346994Y-71370408D01*
X140339460Y-71398698D01*
X140329386Y-71436201D01*
X140317045Y-71481907D01*
X140302711Y-71534802D01*
X140286658Y-71593877D01*
X140269158Y-71658120D01*
X140250485Y-71726519D01*
X140239635Y-71766201D01*
X140220208Y-71837215D01*
X140201619Y-71905190D01*
X140184162Y-71969043D01*
X140168134Y-72027692D01*
X140153831Y-72080052D01*
X140141548Y-72125040D01*
X140131582Y-72161572D01*
X140124228Y-72188566D01*
X140119782Y-72204938D01*
X140118740Y-72208812D01*
X140111560Y-72235800D01*
X139630346Y-72235800D01*
X139641694Y-72196112D01*
X139645336Y-72183206D01*
X139652061Y-72159200D01*
X139661552Y-72125233D01*
X139673492Y-72082442D01*
X139687565Y-72031963D01*
X139703452Y-71974935D01*
X139720837Y-71912494D01*
X139739403Y-71845778D01*
X139758832Y-71775924D01*
X139766475Y-71748437D01*
X139879909Y-71340450D01*
X140116629Y-71340450D01*
X140170044Y-71340580D01*
G36*
X140866473Y-71340529D02*
G01*
X140919267Y-71340790D01*
X140961298Y-71341264D01*
X140993534Y-71341982D01*
X141016944Y-71342976D01*
X141032495Y-71344278D01*
X141041155Y-71345920D01*
X141043894Y-71347933D01*
X141043815Y-71348387D01*
X141041191Y-71356110D01*
X141035115Y-71374465D01*
X141026058Y-71402006D01*
X141014495Y-71437287D01*
X141000901Y-71478863D01*
X140985748Y-71525287D01*
X140972789Y-71565052D01*
X140952287Y-71628644D01*
X140935920Y-71680880D01*
X140923520Y-71722349D01*
X140914920Y-71753643D01*
X140909950Y-71775353D01*
X140908444Y-71788070D01*
X140908697Y-71790477D01*
X140917357Y-71818640D01*
X140929175Y-71837869D01*
X140946589Y-71851912D01*
X140949899Y-71853840D01*
X140955767Y-71856982D01*
X140961963Y-71859601D01*
X140969635Y-71861745D01*
X140979927Y-71863461D01*
X140993984Y-71864797D01*
X141012952Y-71865800D01*
X141037976Y-71866518D01*
X141070200Y-71866999D01*
X141110770Y-71867290D01*
X141160832Y-71867439D01*
X141221529Y-71867493D01*
X141278668Y-71867500D01*
X141339638Y-71867569D01*
X141396676Y-71867769D01*
X141448535Y-71868085D01*
X141493971Y-71868503D01*
X141531736Y-71869009D01*
X141560584Y-71869590D01*
X141579269Y-71870231D01*
X141586544Y-71870918D01*
X141586577Y-71870943D01*
X141586373Y-71878105D01*
X141583077Y-71894670D01*
X141577291Y-71917891D01*
X141572258Y-71936031D01*
X141564646Y-71962686D01*
X141554607Y-71998196D01*
X141543092Y-72039173D01*
X141531053Y-72082229D01*
X141521452Y-72116737D01*
X141488409Y-72235800D01*
X141132017Y-72235226D01*
X141046591Y-72234998D01*
X140973078Y-72234598D01*
X140910689Y-72234007D01*
X140858638Y-72233209D01*
X140816138Y-72232187D01*
X140782402Y-72230923D01*
X140756642Y-72229400D01*
X140738071Y-72227601D01*
X140730287Y-72226425D01*
X140690864Y-72218389D01*
X140658699Y-72209352D01*
X140628380Y-72197499D01*
X140594490Y-72181012D01*
X140593736Y-72180622D01*
X140550892Y-72153165D01*
X140511458Y-72118079D01*
X140478798Y-72078703D01*
X140461072Y-72048976D01*
X140447895Y-72018400D01*
X140438370Y-71986675D01*
X140432586Y-71952541D01*
X140430628Y-71914740D01*
X140432584Y-71872015D01*
X140438541Y-71823105D01*
X140448586Y-71766754D01*
X140462804Y-71701703D01*
X140481284Y-71626692D01*
X140493400Y-71580340D01*
X140506298Y-71531781D01*
X140518406Y-71486184D01*
X140529269Y-71445270D01*
X140538429Y-71410757D01*
X140545430Y-71384368D01*
X140549815Y-71367821D01*
X140550756Y-71364262D01*
X140557039Y-71340450D01*
X140801949Y-71340450D01*
X140866473Y-71340529D01*
G37*
X140866473Y-71340529D02*
X140919267Y-71340790D01*
X140961298Y-71341264D01*
X140993534Y-71341982D01*
X141016944Y-71342976D01*
X141032495Y-71344278D01*
X141041155Y-71345920D01*
X141043894Y-71347933D01*
X141043815Y-71348387D01*
X141041191Y-71356110D01*
X141035115Y-71374465D01*
X141026058Y-71402006D01*
X141014495Y-71437287D01*
X141000901Y-71478863D01*
X140985748Y-71525287D01*
X140972789Y-71565052D01*
X140952287Y-71628644D01*
X140935920Y-71680880D01*
X140923520Y-71722349D01*
X140914920Y-71753643D01*
X140909950Y-71775353D01*
X140908444Y-71788070D01*
X140908697Y-71790477D01*
X140917357Y-71818640D01*
X140929175Y-71837869D01*
X140946589Y-71851912D01*
X140949899Y-71853840D01*
X140955767Y-71856982D01*
X140961963Y-71859601D01*
X140969635Y-71861745D01*
X140979927Y-71863461D01*
X140993984Y-71864797D01*
X141012952Y-71865800D01*
X141037976Y-71866518D01*
X141070200Y-71866999D01*
X141110770Y-71867290D01*
X141160832Y-71867439D01*
X141221529Y-71867493D01*
X141278668Y-71867500D01*
X141339638Y-71867569D01*
X141396676Y-71867769D01*
X141448535Y-71868085D01*
X141493971Y-71868503D01*
X141531736Y-71869009D01*
X141560584Y-71869590D01*
X141579269Y-71870231D01*
X141586544Y-71870918D01*
X141586577Y-71870943D01*
X141586373Y-71878105D01*
X141583077Y-71894670D01*
X141577291Y-71917891D01*
X141572258Y-71936031D01*
X141564646Y-71962686D01*
X141554607Y-71998196D01*
X141543092Y-72039173D01*
X141531053Y-72082229D01*
X141521452Y-72116737D01*
X141488409Y-72235800D01*
X141132017Y-72235226D01*
X141046591Y-72234998D01*
X140973078Y-72234598D01*
X140910689Y-72234007D01*
X140858638Y-72233209D01*
X140816138Y-72232187D01*
X140782402Y-72230923D01*
X140756642Y-72229400D01*
X140738071Y-72227601D01*
X140730287Y-72226425D01*
X140690864Y-72218389D01*
X140658699Y-72209352D01*
X140628380Y-72197499D01*
X140594490Y-72181012D01*
X140593736Y-72180622D01*
X140550892Y-72153165D01*
X140511458Y-72118079D01*
X140478798Y-72078703D01*
X140461072Y-72048976D01*
X140447895Y-72018400D01*
X140438370Y-71986675D01*
X140432586Y-71952541D01*
X140430628Y-71914740D01*
X140432584Y-71872015D01*
X140438541Y-71823105D01*
X140448586Y-71766754D01*
X140462804Y-71701703D01*
X140481284Y-71626692D01*
X140493400Y-71580340D01*
X140506298Y-71531781D01*
X140518406Y-71486184D01*
X140529269Y-71445270D01*
X140538429Y-71410757D01*
X140545430Y-71384368D01*
X140549815Y-71367821D01*
X140550756Y-71364262D01*
X140557039Y-71340450D01*
X140801949Y-71340450D01*
X140866473Y-71340529D01*
G36*
X143438446Y-71367169D02*
G01*
X143427608Y-71400427D01*
X143409714Y-71438346D01*
X143386790Y-71476711D01*
X143383168Y-71482062D01*
X143366791Y-71502738D01*
X143344145Y-71527230D01*
X143317999Y-71552945D01*
X143291125Y-71577289D01*
X143266295Y-71597671D01*
X143246278Y-71611495D01*
X143242852Y-71613371D01*
X143225681Y-71622946D01*
X143218614Y-71630586D01*
X143220123Y-71639451D01*
X143225821Y-71648599D01*
X143240684Y-71678808D01*
X143251048Y-71718267D01*
X143256487Y-71764198D01*
X143256576Y-71813825D01*
X143254677Y-71837381D01*
X143251533Y-71863182D01*
X143247548Y-71888269D01*
X143242240Y-71914528D01*
X143235127Y-71943842D01*
X143225726Y-71978097D01*
X143213557Y-72019177D01*
X143198135Y-72068968D01*
X143184017Y-72113562D01*
X143145083Y-72235800D01*
X142923966Y-72235800D01*
X142872405Y-72235704D01*
X142825106Y-72235431D01*
X142783512Y-72235004D01*
X142749061Y-72234446D01*
X142723195Y-72233779D01*
X142707355Y-72233025D01*
X142702850Y-72232328D01*
X142704565Y-72225690D01*
X142709468Y-72208125D01*
X142717197Y-72180899D01*
X142727389Y-72145277D01*
X142739680Y-72102527D01*
X142753708Y-72053915D01*
X142769110Y-72000706D01*
X142779050Y-71966447D01*
X142795117Y-71911025D01*
X142810031Y-71859403D01*
X142823429Y-71812849D01*
X142834949Y-71772634D01*
X142844227Y-71740027D01*
X142850899Y-71716300D01*
X142854603Y-71702721D01*
X142855250Y-71699964D01*
X142849136Y-71699075D01*
X142831737Y-71698344D01*
X142804468Y-71697784D01*
X142768744Y-71697412D01*
X142725978Y-71697241D01*
X142677585Y-71697287D01*
X142625906Y-71697558D01*
X142396563Y-71699225D01*
X142324145Y-71934175D01*
X142307599Y-71987895D01*
X142291865Y-72039044D01*
X142277424Y-72086059D01*
X142264755Y-72127375D01*
X142254338Y-72161428D01*
X142246651Y-72186655D01*
X142242176Y-72201491D01*
X142241888Y-72202462D01*
X142232048Y-72235800D01*
X141770769Y-72235800D01*
X141804842Y-72119912D01*
X141813370Y-72090871D01*
X141824968Y-72051326D01*
X141839141Y-72002959D01*
X141855397Y-71947457D01*
X141873243Y-71886503D01*
X141892185Y-71821783D01*
X141911730Y-71754982D01*
X141931384Y-71687783D01*
X141935920Y-71672272D01*
X142032925Y-71340519D01*
X142738687Y-71340484D01*
X143444450Y-71340450D01*
X143438446Y-71367169D01*
G37*
X143438446Y-71367169D02*
X143427608Y-71400427D01*
X143409714Y-71438346D01*
X143386790Y-71476711D01*
X143383168Y-71482062D01*
X143366791Y-71502738D01*
X143344145Y-71527230D01*
X143317999Y-71552945D01*
X143291125Y-71577289D01*
X143266295Y-71597671D01*
X143246278Y-71611495D01*
X143242852Y-71613371D01*
X143225681Y-71622946D01*
X143218614Y-71630586D01*
X143220123Y-71639451D01*
X143225821Y-71648599D01*
X143240684Y-71678808D01*
X143251048Y-71718267D01*
X143256487Y-71764198D01*
X143256576Y-71813825D01*
X143254677Y-71837381D01*
X143251533Y-71863182D01*
X143247548Y-71888269D01*
X143242240Y-71914528D01*
X143235127Y-71943842D01*
X143225726Y-71978097D01*
X143213557Y-72019177D01*
X143198135Y-72068968D01*
X143184017Y-72113562D01*
X143145083Y-72235800D01*
X142923966Y-72235800D01*
X142872405Y-72235704D01*
X142825106Y-72235431D01*
X142783512Y-72235004D01*
X142749061Y-72234446D01*
X142723195Y-72233779D01*
X142707355Y-72233025D01*
X142702850Y-72232328D01*
X142704565Y-72225690D01*
X142709468Y-72208125D01*
X142717197Y-72180899D01*
X142727389Y-72145277D01*
X142739680Y-72102527D01*
X142753708Y-72053915D01*
X142769110Y-72000706D01*
X142779050Y-71966447D01*
X142795117Y-71911025D01*
X142810031Y-71859403D01*
X142823429Y-71812849D01*
X142834949Y-71772634D01*
X142844227Y-71740027D01*
X142850899Y-71716300D01*
X142854603Y-71702721D01*
X142855250Y-71699964D01*
X142849136Y-71699075D01*
X142831737Y-71698344D01*
X142804468Y-71697784D01*
X142768744Y-71697412D01*
X142725978Y-71697241D01*
X142677585Y-71697287D01*
X142625906Y-71697558D01*
X142396563Y-71699225D01*
X142324145Y-71934175D01*
X142307599Y-71987895D01*
X142291865Y-72039044D01*
X142277424Y-72086059D01*
X142264755Y-72127375D01*
X142254338Y-72161428D01*
X142246651Y-72186655D01*
X142242176Y-72201491D01*
X142241888Y-72202462D01*
X142232048Y-72235800D01*
X141770769Y-72235800D01*
X141804842Y-72119912D01*
X141813370Y-72090871D01*
X141824968Y-72051326D01*
X141839141Y-72002959D01*
X141855397Y-71947457D01*
X141873243Y-71886503D01*
X141892185Y-71821783D01*
X141911730Y-71754982D01*
X141931384Y-71687783D01*
X141935920Y-71672272D01*
X142032925Y-71340519D01*
X142738687Y-71340484D01*
X143444450Y-71340450D01*
X143438446Y-71367169D01*
G36*
X144819439Y-71334250D02*
G01*
X144850066Y-71334744D01*
X144871195Y-71335730D01*
X144884422Y-71337338D01*
X144891349Y-71339694D01*
X144893572Y-71342929D01*
X144893600Y-71343441D01*
X144891757Y-71354180D01*
X144886559Y-71375373D01*
X144878501Y-71405373D01*
X144868079Y-71442533D01*
X144855789Y-71485205D01*
X144842125Y-71531741D01*
X144827584Y-71580494D01*
X144812661Y-71629816D01*
X144797852Y-71678060D01*
X144783651Y-71723578D01*
X144770555Y-71764723D01*
X144759059Y-71799846D01*
X144749658Y-71827302D01*
X144742849Y-71845441D01*
X144742045Y-71847339D01*
X144700782Y-71928052D01*
X144650847Y-72000746D01*
X144593010Y-72064639D01*
X144528039Y-72118950D01*
X144456701Y-72162897D01*
X144411000Y-72184033D01*
X144381706Y-72195741D01*
X144355535Y-72205346D01*
X144330785Y-72213069D01*
X144305757Y-72219131D01*
X144278751Y-72223753D01*
X144248064Y-72227156D01*
X144211997Y-72229563D01*
X144168850Y-72231194D01*
X144116921Y-72232271D01*
X144054510Y-72233015D01*
X144033175Y-72233209D01*
X143966062Y-72233640D01*
X143910437Y-72233634D01*
X143865091Y-72233163D01*
X143828818Y-72232197D01*
X143800412Y-72230706D01*
X143778665Y-72228662D01*
X143765587Y-72226671D01*
X143726241Y-72218475D01*
X143694253Y-72209442D01*
X143664316Y-72197780D01*
X143631124Y-72181702D01*
X143629047Y-72180627D01*
X143576356Y-72146779D01*
X143533715Y-72105287D01*
X143501300Y-72056498D01*
X143479289Y-72000756D01*
X143467859Y-71938408D01*
X143467188Y-71869799D01*
X143467499Y-71865417D01*
X143469340Y-71843420D01*
X143471597Y-71822681D01*
X143474613Y-71801656D01*
X143478731Y-71778799D01*
X143484293Y-71752567D01*
X143491641Y-71721413D01*
X143501119Y-71683793D01*
X143513069Y-71638162D01*
X143527832Y-71582974D01*
X143540649Y-71535527D01*
X143553324Y-71488622D01*
X143564857Y-71445764D01*
X143574846Y-71408460D01*
X143582889Y-71378220D01*
X143588584Y-71356550D01*
X143591528Y-71344960D01*
X143591850Y-71343440D01*
X143597963Y-71342754D01*
X143615360Y-71342123D01*
X143642623Y-71341566D01*
X143678335Y-71341102D01*
X143721080Y-71340749D01*
X143769440Y-71340525D01*
X143820450Y-71340450D01*
X143882497Y-71340533D01*
X143932890Y-71340809D01*
X143972675Y-71341314D01*
X144002896Y-71342086D01*
X144024598Y-71343162D01*
X144038828Y-71344580D01*
X144046630Y-71346377D01*
X144049049Y-71348591D01*
X144049050Y-71348634D01*
X144047367Y-71356391D01*
X144042570Y-71374978D01*
X144035039Y-71403016D01*
X144025151Y-71439122D01*
X144013285Y-71481919D01*
X143999819Y-71530024D01*
X143985132Y-71582058D01*
X143982449Y-71591521D01*
X143967337Y-71645176D01*
X143953217Y-71696079D01*
X143940502Y-71742684D01*
X143929605Y-71783441D01*
X143920939Y-71816801D01*
X143914919Y-71841216D01*
X143911958Y-71855137D01*
X143911843Y-71855920D01*
X143910223Y-71875373D01*
X143913023Y-71888034D01*
X143921734Y-71899466D01*
X143924180Y-71901957D01*
X143940522Y-71918300D01*
X144085273Y-71918276D01*
X144132223Y-71918196D01*
X144168247Y-71917884D01*
X144195121Y-71917200D01*
X144214619Y-71916007D01*
X144228516Y-71914166D01*
X144238588Y-71911539D01*
X144246607Y-71907989D01*
X144251153Y-71905370D01*
X144259684Y-71899162D01*
X144267798Y-71890657D01*
X144275896Y-71878810D01*
X144284379Y-71862573D01*
X144293647Y-71840900D01*
X144304101Y-71812743D01*
X144316143Y-71777055D01*
X144330174Y-71732789D01*
X144346593Y-71678899D01*
X144365802Y-71614338D01*
X144376518Y-71577931D01*
X144445689Y-71342337D01*
X144553757Y-71338238D01*
X144599544Y-71336786D01*
X144652583Y-71335557D01*
X144707425Y-71334652D01*
X144758623Y-71334171D01*
X144777712Y-71334119D01*
X144819439Y-71334250D01*
G37*
X144819439Y-71334250D02*
X144850066Y-71334744D01*
X144871195Y-71335730D01*
X144884422Y-71337338D01*
X144891349Y-71339694D01*
X144893572Y-71342929D01*
X144893600Y-71343441D01*
X144891757Y-71354180D01*
X144886559Y-71375373D01*
X144878501Y-71405373D01*
X144868079Y-71442533D01*
X144855789Y-71485205D01*
X144842125Y-71531741D01*
X144827584Y-71580494D01*
X144812661Y-71629816D01*
X144797852Y-71678060D01*
X144783651Y-71723578D01*
X144770555Y-71764723D01*
X144759059Y-71799846D01*
X144749658Y-71827302D01*
X144742849Y-71845441D01*
X144742045Y-71847339D01*
X144700782Y-71928052D01*
X144650847Y-72000746D01*
X144593010Y-72064639D01*
X144528039Y-72118950D01*
X144456701Y-72162897D01*
X144411000Y-72184033D01*
X144381706Y-72195741D01*
X144355535Y-72205346D01*
X144330785Y-72213069D01*
X144305757Y-72219131D01*
X144278751Y-72223753D01*
X144248064Y-72227156D01*
X144211997Y-72229563D01*
X144168850Y-72231194D01*
X144116921Y-72232271D01*
X144054510Y-72233015D01*
X144033175Y-72233209D01*
X143966062Y-72233640D01*
X143910437Y-72233634D01*
X143865091Y-72233163D01*
X143828818Y-72232197D01*
X143800412Y-72230706D01*
X143778665Y-72228662D01*
X143765587Y-72226671D01*
X143726241Y-72218475D01*
X143694253Y-72209442D01*
X143664316Y-72197780D01*
X143631124Y-72181702D01*
X143629047Y-72180627D01*
X143576356Y-72146779D01*
X143533715Y-72105287D01*
X143501300Y-72056498D01*
X143479289Y-72000756D01*
X143467859Y-71938408D01*
X143467188Y-71869799D01*
X143467499Y-71865417D01*
X143469340Y-71843420D01*
X143471597Y-71822681D01*
X143474613Y-71801656D01*
X143478731Y-71778799D01*
X143484293Y-71752567D01*
X143491641Y-71721413D01*
X143501119Y-71683793D01*
X143513069Y-71638162D01*
X143527832Y-71582974D01*
X143540649Y-71535527D01*
X143553324Y-71488622D01*
X143564857Y-71445764D01*
X143574846Y-71408460D01*
X143582889Y-71378220D01*
X143588584Y-71356550D01*
X143591528Y-71344960D01*
X143591850Y-71343440D01*
X143597963Y-71342754D01*
X143615360Y-71342123D01*
X143642623Y-71341566D01*
X143678335Y-71341102D01*
X143721080Y-71340749D01*
X143769440Y-71340525D01*
X143820450Y-71340450D01*
X143882497Y-71340533D01*
X143932890Y-71340809D01*
X143972675Y-71341314D01*
X144002896Y-71342086D01*
X144024598Y-71343162D01*
X144038828Y-71344580D01*
X144046630Y-71346377D01*
X144049049Y-71348591D01*
X144049050Y-71348634D01*
X144047367Y-71356391D01*
X144042570Y-71374978D01*
X144035039Y-71403016D01*
X144025151Y-71439122D01*
X144013285Y-71481919D01*
X143999819Y-71530024D01*
X143985132Y-71582058D01*
X143982449Y-71591521D01*
X143967337Y-71645176D01*
X143953217Y-71696079D01*
X143940502Y-71742684D01*
X143929605Y-71783441D01*
X143920939Y-71816801D01*
X143914919Y-71841216D01*
X143911958Y-71855137D01*
X143911843Y-71855920D01*
X143910223Y-71875373D01*
X143913023Y-71888034D01*
X143921734Y-71899466D01*
X143924180Y-71901957D01*
X143940522Y-71918300D01*
X144085273Y-71918276D01*
X144132223Y-71918196D01*
X144168247Y-71917884D01*
X144195121Y-71917200D01*
X144214619Y-71916007D01*
X144228516Y-71914166D01*
X144238588Y-71911539D01*
X144246607Y-71907989D01*
X144251153Y-71905370D01*
X144259684Y-71899162D01*
X144267798Y-71890657D01*
X144275896Y-71878810D01*
X144284379Y-71862573D01*
X144293647Y-71840900D01*
X144304101Y-71812743D01*
X144316143Y-71777055D01*
X144330174Y-71732789D01*
X144346593Y-71678899D01*
X144365802Y-71614338D01*
X144376518Y-71577931D01*
X144445689Y-71342337D01*
X144553757Y-71338238D01*
X144599544Y-71336786D01*
X144652583Y-71335557D01*
X144707425Y-71334652D01*
X144758623Y-71334171D01*
X144777712Y-71334119D01*
X144819439Y-71334250D01*
G36*
X145403657Y-71341456D02*
G01*
X145483986Y-71341498D01*
X145570077Y-71341577D01*
X145661160Y-71341694D01*
X145756463Y-71341849D01*
X145840679Y-71342012D01*
X146618374Y-71343625D01*
X146498927Y-71765900D01*
X146478737Y-71837287D01*
X146459430Y-71905563D01*
X146441307Y-71969668D01*
X146424666Y-72028543D01*
X146409808Y-72081128D01*
X146397031Y-72126365D01*
X146386635Y-72163193D01*
X146378918Y-72190553D01*
X146374181Y-72207387D01*
X146372895Y-72211987D01*
X146366310Y-72235800D01*
X146122080Y-72235800D01*
X146064974Y-72235657D01*
X146013256Y-72235246D01*
X145968137Y-72234597D01*
X145930827Y-72233737D01*
X145902536Y-72232695D01*
X145884477Y-72231497D01*
X145877859Y-72230174D01*
X145877850Y-72230120D01*
X145879503Y-72223164D01*
X145884273Y-72205019D01*
X145891874Y-72176733D01*
X145902020Y-72139352D01*
X145914424Y-72093923D01*
X145928800Y-72041494D01*
X145944863Y-71983112D01*
X145962326Y-71919823D01*
X145980903Y-71852674D01*
X145985722Y-71835284D01*
X146004476Y-71767443D01*
X146022115Y-71703277D01*
X146038360Y-71643823D01*
X146052933Y-71590116D01*
X146065557Y-71543193D01*
X146075951Y-71504088D01*
X146083840Y-71473838D01*
X146088943Y-71453479D01*
X146090983Y-71444045D01*
X146090976Y-71443510D01*
X146085600Y-71446715D01*
X146071578Y-71457028D01*
X146050103Y-71473521D01*
X146022361Y-71495263D01*
X145989544Y-71521327D01*
X145952839Y-71550784D01*
X145930963Y-71568471D01*
X145892504Y-71599548D01*
X145857204Y-71627890D01*
X145826267Y-71652544D01*
X145800897Y-71672557D01*
X145782298Y-71686978D01*
X145771674Y-71694853D01*
X145769665Y-71696050D01*
X145764299Y-71691791D01*
X145751016Y-71679744D01*
X145730973Y-71661004D01*
X145705330Y-71636666D01*
X145675245Y-71607826D01*
X145641877Y-71575577D01*
X145631056Y-71565067D01*
X145597024Y-71532118D01*
X145566015Y-71502368D01*
X145539164Y-71476885D01*
X145517609Y-71456738D01*
X145502488Y-71442997D01*
X145494937Y-71436731D01*
X145494304Y-71436479D01*
X145492353Y-71442732D01*
X145487286Y-71460051D01*
X145479432Y-71487278D01*
X145469120Y-71523256D01*
X145456678Y-71566827D01*
X145442434Y-71616833D01*
X145426717Y-71672115D01*
X145409856Y-71731517D01*
X145392178Y-71793881D01*
X145374012Y-71858048D01*
X145355687Y-71922860D01*
X145337531Y-71987161D01*
X145319873Y-72049791D01*
X145303040Y-72109593D01*
X145287362Y-72165410D01*
X145273425Y-72215162D01*
X145267653Y-72235800D01*
X145038923Y-72235800D01*
X144978963Y-72235769D01*
X144930509Y-72235636D01*
X144892370Y-72235344D01*
X144863351Y-72234833D01*
X144842260Y-72234045D01*
X144827903Y-72232920D01*
X144819088Y-72231399D01*
X144814622Y-72229424D01*
X144813311Y-72226936D01*
X144813684Y-72224687D01*
X144815928Y-72216859D01*
X144821293Y-72197800D01*
X144829497Y-72168515D01*
X144840262Y-72130010D01*
X144853306Y-72083291D01*
X144868348Y-72029361D01*
X144885108Y-71969227D01*
X144903306Y-71903894D01*
X144922661Y-71834367D01*
X144938067Y-71778999D01*
X144958052Y-71707228D01*
X144977062Y-71639100D01*
X144994820Y-71575594D01*
X145011052Y-71517688D01*
X145025482Y-71466360D01*
X145037835Y-71422587D01*
X145047835Y-71387349D01*
X145055207Y-71361623D01*
X145059676Y-71346387D01*
X145060971Y-71342411D01*
X145067451Y-71342170D01*
X145085860Y-71341963D01*
X145115427Y-71341790D01*
X145155381Y-71341652D01*
X145204953Y-71341549D01*
X145263369Y-71341482D01*
X145329861Y-71341451D01*
X145403657Y-71341456D01*
G37*
X145403657Y-71341456D02*
X145483986Y-71341498D01*
X145570077Y-71341577D01*
X145661160Y-71341694D01*
X145756463Y-71341849D01*
X145840679Y-71342012D01*
X146618374Y-71343625D01*
X146498927Y-71765900D01*
X146478737Y-71837287D01*
X146459430Y-71905563D01*
X146441307Y-71969668D01*
X146424666Y-72028543D01*
X146409808Y-72081128D01*
X146397031Y-72126365D01*
X146386635Y-72163193D01*
X146378918Y-72190553D01*
X146374181Y-72207387D01*
X146372895Y-72211987D01*
X146366310Y-72235800D01*
X146122080Y-72235800D01*
X146064974Y-72235657D01*
X146013256Y-72235246D01*
X145968137Y-72234597D01*
X145930827Y-72233737D01*
X145902536Y-72232695D01*
X145884477Y-72231497D01*
X145877859Y-72230174D01*
X145877850Y-72230120D01*
X145879503Y-72223164D01*
X145884273Y-72205019D01*
X145891874Y-72176733D01*
X145902020Y-72139352D01*
X145914424Y-72093923D01*
X145928800Y-72041494D01*
X145944863Y-71983112D01*
X145962326Y-71919823D01*
X145980903Y-71852674D01*
X145985722Y-71835284D01*
X146004476Y-71767443D01*
X146022115Y-71703277D01*
X146038360Y-71643823D01*
X146052933Y-71590116D01*
X146065557Y-71543193D01*
X146075951Y-71504088D01*
X146083840Y-71473838D01*
X146088943Y-71453479D01*
X146090983Y-71444045D01*
X146090976Y-71443510D01*
X146085600Y-71446715D01*
X146071578Y-71457028D01*
X146050103Y-71473521D01*
X146022361Y-71495263D01*
X145989544Y-71521327D01*
X145952839Y-71550784D01*
X145930963Y-71568471D01*
X145892504Y-71599548D01*
X145857204Y-71627890D01*
X145826267Y-71652544D01*
X145800897Y-71672557D01*
X145782298Y-71686978D01*
X145771674Y-71694853D01*
X145769665Y-71696050D01*
X145764299Y-71691791D01*
X145751016Y-71679744D01*
X145730973Y-71661004D01*
X145705330Y-71636666D01*
X145675245Y-71607826D01*
X145641877Y-71575577D01*
X145631056Y-71565067D01*
X145597024Y-71532118D01*
X145566015Y-71502368D01*
X145539164Y-71476885D01*
X145517609Y-71456738D01*
X145502488Y-71442997D01*
X145494937Y-71436731D01*
X145494304Y-71436479D01*
X145492353Y-71442732D01*
X145487286Y-71460051D01*
X145479432Y-71487278D01*
X145469120Y-71523256D01*
X145456678Y-71566827D01*
X145442434Y-71616833D01*
X145426717Y-71672115D01*
X145409856Y-71731517D01*
X145392178Y-71793881D01*
X145374012Y-71858048D01*
X145355687Y-71922860D01*
X145337531Y-71987161D01*
X145319873Y-72049791D01*
X145303040Y-72109593D01*
X145287362Y-72165410D01*
X145273425Y-72215162D01*
X145267653Y-72235800D01*
X145038923Y-72235800D01*
X144978963Y-72235769D01*
X144930509Y-72235636D01*
X144892370Y-72235344D01*
X144863351Y-72234833D01*
X144842260Y-72234045D01*
X144827903Y-72232920D01*
X144819088Y-72231399D01*
X144814622Y-72229424D01*
X144813311Y-72226936D01*
X144813684Y-72224687D01*
X144815928Y-72216859D01*
X144821293Y-72197800D01*
X144829497Y-72168515D01*
X144840262Y-72130010D01*
X144853306Y-72083291D01*
X144868348Y-72029361D01*
X144885108Y-71969227D01*
X144903306Y-71903894D01*
X144922661Y-71834367D01*
X144938067Y-71778999D01*
X144958052Y-71707228D01*
X144977062Y-71639100D01*
X144994820Y-71575594D01*
X145011052Y-71517688D01*
X145025482Y-71466360D01*
X145037835Y-71422587D01*
X145047835Y-71387349D01*
X145055207Y-71361623D01*
X145059676Y-71346387D01*
X145060971Y-71342411D01*
X145067451Y-71342170D01*
X145085860Y-71341963D01*
X145115427Y-71341790D01*
X145155381Y-71341652D01*
X145204953Y-71341549D01*
X145263369Y-71341482D01*
X145329861Y-71341451D01*
X145403657Y-71341456D01*
G36*
X148088715Y-71334818D02*
G01*
X148109498Y-71335723D01*
X148121572Y-71337144D01*
X148125734Y-71339091D01*
X148125750Y-71339239D01*
X148123935Y-71349076D01*
X148118817Y-71369393D01*
X148110887Y-71398554D01*
X148100633Y-71434920D01*
X148088547Y-71476851D01*
X148075118Y-71522709D01*
X148060836Y-71570855D01*
X148046191Y-71619651D01*
X148031673Y-71667458D01*
X148017772Y-71712638D01*
X148004978Y-71753551D01*
X147993782Y-71788559D01*
X147984672Y-71816024D01*
X147978140Y-71834306D01*
X147976509Y-71838336D01*
X147941154Y-71909153D01*
X147898457Y-71976038D01*
X147850242Y-72036623D01*
X147798333Y-72088540D01*
X147761009Y-72118287D01*
X147706514Y-72152117D01*
X147644039Y-72182313D01*
X147578215Y-72206750D01*
X147551075Y-72214679D01*
X147533979Y-72219170D01*
X147518654Y-72222804D01*
X147503511Y-72225685D01*
X147486960Y-72227918D01*
X147467414Y-72229605D01*
X147443284Y-72230852D01*
X147412979Y-72231761D01*
X147374913Y-72232437D01*
X147327495Y-72232983D01*
X147269136Y-72233504D01*
X147262150Y-72233563D01*
X147201288Y-72234017D01*
X147151543Y-72234216D01*
X147111329Y-72234102D01*
X147079064Y-72233617D01*
X147053165Y-72232703D01*
X147032049Y-72231301D01*
X147014132Y-72229353D01*
X146997832Y-72226800D01*
X146981564Y-72223585D01*
X146979575Y-72223160D01*
X146909565Y-72202988D01*
X146848972Y-72174710D01*
X146798007Y-72138506D01*
X146756877Y-72094556D01*
X146725791Y-72043042D01*
X146705547Y-71986465D01*
X146700373Y-71954727D01*
X146698260Y-71914292D01*
X146699105Y-71868758D01*
X146702801Y-71821727D01*
X146709245Y-71776799D01*
X146712074Y-71762496D01*
X146716102Y-71745331D01*
X146722949Y-71717945D01*
X146732078Y-71682368D01*
X146742951Y-71640628D01*
X146755033Y-71594755D01*
X146767786Y-71546776D01*
X146780673Y-71498721D01*
X146793158Y-71452618D01*
X146804704Y-71410496D01*
X146814773Y-71374384D01*
X146814941Y-71373787D01*
X146824354Y-71340449D01*
X147052777Y-71340449D01*
X147108653Y-71340604D01*
X147158772Y-71341046D01*
X147201928Y-71341747D01*
X147236917Y-71342676D01*
X147262536Y-71343802D01*
X147277580Y-71345096D01*
X147281200Y-71346180D01*
X147279516Y-71353350D01*
X147274713Y-71371402D01*
X147267158Y-71399008D01*
X147257222Y-71434839D01*
X147245273Y-71477565D01*
X147231680Y-71525858D01*
X147216813Y-71578388D01*
X147211350Y-71597625D01*
X147196015Y-71652142D01*
X147181850Y-71703614D01*
X147169230Y-71750587D01*
X147158533Y-71791609D01*
X147150135Y-71825227D01*
X147144414Y-71849987D01*
X147141746Y-71864437D01*
X147141597Y-71866532D01*
X147142250Y-71881636D01*
X147144984Y-71893482D01*
X147151170Y-71902464D01*
X147162181Y-71908977D01*
X147179388Y-71913415D01*
X147204164Y-71916171D01*
X147237882Y-71917640D01*
X147281912Y-71918216D01*
X147321836Y-71918300D01*
X147464908Y-71918300D01*
X147486689Y-71899175D01*
X147503619Y-71880579D01*
X147518361Y-71858381D01*
X147521024Y-71853137D01*
X147525587Y-71841136D01*
X147533225Y-71818437D01*
X147543471Y-71786538D01*
X147555856Y-71746938D01*
X147569914Y-71701134D01*
X147585177Y-71650626D01*
X147601178Y-71596911D01*
X147604696Y-71584995D01*
X147620340Y-71532037D01*
X147634882Y-71483011D01*
X147647929Y-71439225D01*
X147659088Y-71401988D01*
X147667966Y-71372610D01*
X147674171Y-71352400D01*
X147677311Y-71342667D01*
X147677598Y-71341984D01*
X147684133Y-71341458D01*
X147701917Y-71340760D01*
X147729501Y-71339928D01*
X147765437Y-71338999D01*
X147808275Y-71338011D01*
X147856566Y-71337002D01*
X147902565Y-71336124D01*
X147966148Y-71335080D01*
X148017837Y-71334507D01*
X148058427Y-71334416D01*
X148088715Y-71334818D01*
G37*
X148088715Y-71334818D02*
X148109498Y-71335723D01*
X148121572Y-71337144D01*
X148125734Y-71339091D01*
X148125750Y-71339239D01*
X148123935Y-71349076D01*
X148118817Y-71369393D01*
X148110887Y-71398554D01*
X148100633Y-71434920D01*
X148088547Y-71476851D01*
X148075118Y-71522709D01*
X148060836Y-71570855D01*
X148046191Y-71619651D01*
X148031673Y-71667458D01*
X148017772Y-71712638D01*
X148004978Y-71753551D01*
X147993782Y-71788559D01*
X147984672Y-71816024D01*
X147978140Y-71834306D01*
X147976509Y-71838336D01*
X147941154Y-71909153D01*
X147898457Y-71976038D01*
X147850242Y-72036623D01*
X147798333Y-72088540D01*
X147761009Y-72118287D01*
X147706514Y-72152117D01*
X147644039Y-72182313D01*
X147578215Y-72206750D01*
X147551075Y-72214679D01*
X147533979Y-72219170D01*
X147518654Y-72222804D01*
X147503511Y-72225685D01*
X147486960Y-72227918D01*
X147467414Y-72229605D01*
X147443284Y-72230852D01*
X147412979Y-72231761D01*
X147374913Y-72232437D01*
X147327495Y-72232983D01*
X147269136Y-72233504D01*
X147262150Y-72233563D01*
X147201288Y-72234017D01*
X147151543Y-72234216D01*
X147111329Y-72234102D01*
X147079064Y-72233617D01*
X147053165Y-72232703D01*
X147032049Y-72231301D01*
X147014132Y-72229353D01*
X146997832Y-72226800D01*
X146981564Y-72223585D01*
X146979575Y-72223160D01*
X146909565Y-72202988D01*
X146848972Y-72174710D01*
X146798007Y-72138506D01*
X146756877Y-72094556D01*
X146725791Y-72043042D01*
X146705547Y-71986465D01*
X146700373Y-71954727D01*
X146698260Y-71914292D01*
X146699105Y-71868758D01*
X146702801Y-71821727D01*
X146709245Y-71776799D01*
X146712074Y-71762496D01*
X146716102Y-71745331D01*
X146722949Y-71717945D01*
X146732078Y-71682368D01*
X146742951Y-71640628D01*
X146755033Y-71594755D01*
X146767786Y-71546776D01*
X146780673Y-71498721D01*
X146793158Y-71452618D01*
X146804704Y-71410496D01*
X146814773Y-71374384D01*
X146814941Y-71373787D01*
X146824354Y-71340449D01*
X147052777Y-71340449D01*
X147108653Y-71340604D01*
X147158772Y-71341046D01*
X147201928Y-71341747D01*
X147236917Y-71342676D01*
X147262536Y-71343802D01*
X147277580Y-71345096D01*
X147281200Y-71346180D01*
X147279516Y-71353350D01*
X147274713Y-71371402D01*
X147267158Y-71399008D01*
X147257222Y-71434839D01*
X147245273Y-71477565D01*
X147231680Y-71525858D01*
X147216813Y-71578388D01*
X147211350Y-71597625D01*
X147196015Y-71652142D01*
X147181850Y-71703614D01*
X147169230Y-71750587D01*
X147158533Y-71791609D01*
X147150135Y-71825227D01*
X147144414Y-71849987D01*
X147141746Y-71864437D01*
X147141597Y-71866532D01*
X147142250Y-71881636D01*
X147144984Y-71893482D01*
X147151170Y-71902464D01*
X147162181Y-71908977D01*
X147179388Y-71913415D01*
X147204164Y-71916171D01*
X147237882Y-71917640D01*
X147281912Y-71918216D01*
X147321836Y-71918300D01*
X147464908Y-71918300D01*
X147486689Y-71899175D01*
X147503619Y-71880579D01*
X147518361Y-71858381D01*
X147521024Y-71853137D01*
X147525587Y-71841136D01*
X147533225Y-71818437D01*
X147543471Y-71786538D01*
X147555856Y-71746938D01*
X147569914Y-71701134D01*
X147585177Y-71650626D01*
X147601178Y-71596911D01*
X147604696Y-71584995D01*
X147620340Y-71532037D01*
X147634882Y-71483011D01*
X147647929Y-71439225D01*
X147659088Y-71401988D01*
X147667966Y-71372610D01*
X147674171Y-71352400D01*
X147677311Y-71342667D01*
X147677598Y-71341984D01*
X147684133Y-71341458D01*
X147701917Y-71340760D01*
X147729501Y-71339928D01*
X147765437Y-71338999D01*
X147808275Y-71338011D01*
X147856566Y-71337002D01*
X147902565Y-71336124D01*
X147966148Y-71335080D01*
X148017837Y-71334507D01*
X148058427Y-71334416D01*
X148088715Y-71334818D01*
G36*
X149107076Y-71357912D02*
G01*
X149104552Y-71367706D01*
X149099147Y-71388355D01*
X149091183Y-71418637D01*
X149080985Y-71457333D01*
X149068874Y-71503221D01*
X149055175Y-71555082D01*
X149040210Y-71611695D01*
X149024302Y-71671839D01*
X149007776Y-71734293D01*
X148990953Y-71797839D01*
X148974157Y-71861254D01*
X148957711Y-71923319D01*
X148941939Y-71982812D01*
X148927164Y-72038515D01*
X148913708Y-72089205D01*
X148901895Y-72133663D01*
X148892049Y-72170668D01*
X148884491Y-72199000D01*
X148879546Y-72217438D01*
X148877560Y-72224687D01*
X148875929Y-72227628D01*
X148872177Y-72230002D01*
X148865064Y-72231868D01*
X148853349Y-72233288D01*
X148835792Y-72234320D01*
X148811155Y-72235027D01*
X148778196Y-72235467D01*
X148735676Y-72235701D01*
X148682355Y-72235791D01*
X148649197Y-72235800D01*
X148597168Y-72235702D01*
X148549391Y-72235426D01*
X148507291Y-72234993D01*
X148472299Y-72234426D01*
X148445841Y-72233748D01*
X148429347Y-72232981D01*
X148424200Y-72232221D01*
X148425810Y-72225761D01*
X148430425Y-72208245D01*
X148437721Y-72180873D01*
X148447372Y-72144846D01*
X148459054Y-72101364D01*
X148472442Y-72051627D01*
X148487213Y-71996835D01*
X148503040Y-71938189D01*
X148519600Y-71876888D01*
X148536568Y-71814133D01*
X148553620Y-71751123D01*
X148570430Y-71689059D01*
X148586675Y-71629142D01*
X148602029Y-71572571D01*
X148616169Y-71520546D01*
X148628768Y-71474269D01*
X148639504Y-71434937D01*
X148648051Y-71403753D01*
X148654085Y-71381916D01*
X148656368Y-71373787D01*
X148665854Y-71340450D01*
X149111376Y-71340450D01*
X149107076Y-71357912D01*
G37*
X149107076Y-71357912D02*
X149104552Y-71367706D01*
X149099147Y-71388355D01*
X149091183Y-71418637D01*
X149080985Y-71457333D01*
X149068874Y-71503221D01*
X149055175Y-71555082D01*
X149040210Y-71611695D01*
X149024302Y-71671839D01*
X149007776Y-71734293D01*
X148990953Y-71797839D01*
X148974157Y-71861254D01*
X148957711Y-71923319D01*
X148941939Y-71982812D01*
X148927164Y-72038515D01*
X148913708Y-72089205D01*
X148901895Y-72133663D01*
X148892049Y-72170668D01*
X148884491Y-72199000D01*
X148879546Y-72217438D01*
X148877560Y-72224687D01*
X148875929Y-72227628D01*
X148872177Y-72230002D01*
X148865064Y-72231868D01*
X148853349Y-72233288D01*
X148835792Y-72234320D01*
X148811155Y-72235027D01*
X148778196Y-72235467D01*
X148735676Y-72235701D01*
X148682355Y-72235791D01*
X148649197Y-72235800D01*
X148597168Y-72235702D01*
X148549391Y-72235426D01*
X148507291Y-72234993D01*
X148472299Y-72234426D01*
X148445841Y-72233748D01*
X148429347Y-72232981D01*
X148424200Y-72232221D01*
X148425810Y-72225761D01*
X148430425Y-72208245D01*
X148437721Y-72180873D01*
X148447372Y-72144846D01*
X148459054Y-72101364D01*
X148472442Y-72051627D01*
X148487213Y-71996835D01*
X148503040Y-71938189D01*
X148519600Y-71876888D01*
X148536568Y-71814133D01*
X148553620Y-71751123D01*
X148570430Y-71689059D01*
X148586675Y-71629142D01*
X148602029Y-71572571D01*
X148616169Y-71520546D01*
X148628768Y-71474269D01*
X148639504Y-71434937D01*
X148648051Y-71403753D01*
X148654085Y-71381916D01*
X148656368Y-71373787D01*
X148665854Y-71340450D01*
X149111376Y-71340450D01*
X149107076Y-71357912D01*
G36*
X150933739Y-71334719D02*
G01*
X150959307Y-71335146D01*
X150976624Y-71336037D01*
X150987171Y-71337502D01*
X150992430Y-71339649D01*
X150993884Y-71342587D01*
X150993419Y-71345212D01*
X150990910Y-71353774D01*
X150985321Y-71373047D01*
X150977084Y-71401536D01*
X150966631Y-71437746D01*
X150954392Y-71480184D01*
X150940799Y-71527353D01*
X150929706Y-71565875D01*
X150910934Y-71630767D01*
X150895015Y-71684924D01*
X150881421Y-71729850D01*
X150869627Y-71767052D01*
X150859107Y-71798036D01*
X150849335Y-71824309D01*
X150839786Y-71847376D01*
X150829933Y-71868744D01*
X150819251Y-71889919D01*
X150811474Y-71904553D01*
X150763033Y-71982388D01*
X150707237Y-72049869D01*
X150644098Y-72106989D01*
X150573623Y-72153743D01*
X150495821Y-72190122D01*
X150410704Y-72216121D01*
X150360419Y-72226051D01*
X150334598Y-72229030D01*
X150298683Y-72231460D01*
X150254820Y-72233338D01*
X150205158Y-72234663D01*
X150151843Y-72235434D01*
X150097021Y-72235649D01*
X150042839Y-72235305D01*
X149991444Y-72234402D01*
X149944983Y-72232937D01*
X149905602Y-72230909D01*
X149875449Y-72228316D01*
X149862475Y-72226450D01*
X149792375Y-72208585D01*
X149730599Y-72182637D01*
X149677739Y-72149076D01*
X149634383Y-72108373D01*
X149601124Y-72060997D01*
X149578552Y-72007419D01*
X149576057Y-71998626D01*
X149571127Y-71970470D01*
X149568324Y-71933560D01*
X149567639Y-71891663D01*
X149569060Y-71848544D01*
X149572577Y-71807969D01*
X149576662Y-71781060D01*
X149580698Y-71762469D01*
X149587574Y-71733609D01*
X149596791Y-71696464D01*
X149607845Y-71653018D01*
X149620237Y-71605253D01*
X149633465Y-71555154D01*
X149638575Y-71536036D01*
X149691025Y-71340468D01*
X149921640Y-71340459D01*
X149981875Y-71340487D01*
X150030599Y-71340616D01*
X150069002Y-71340904D01*
X150098272Y-71341409D01*
X150119601Y-71342188D01*
X150134176Y-71343301D01*
X150143188Y-71344805D01*
X150147825Y-71346758D01*
X150149277Y-71349218D01*
X150148953Y-71351562D01*
X150143588Y-71369926D01*
X150135571Y-71397783D01*
X150125421Y-71433293D01*
X150113658Y-71474617D01*
X150100803Y-71519914D01*
X150087374Y-71567345D01*
X150073891Y-71615070D01*
X150060876Y-71661249D01*
X150048846Y-71704043D01*
X150038324Y-71741610D01*
X150029827Y-71772113D01*
X150023876Y-71793710D01*
X150021301Y-71803326D01*
X150012864Y-71842920D01*
X150010648Y-71872645D01*
X150014690Y-71893720D01*
X150024337Y-71906826D01*
X150030014Y-71910556D01*
X150037741Y-71913385D01*
X150049201Y-71915436D01*
X150066076Y-71916831D01*
X150090047Y-71917690D01*
X150122797Y-71918137D01*
X150166006Y-71918292D01*
X150182914Y-71918300D01*
X150229494Y-71918250D01*
X150265149Y-71917998D01*
X150291653Y-71917391D01*
X150310781Y-71916277D01*
X150324307Y-71914501D01*
X150334005Y-71911912D01*
X150341650Y-71908355D01*
X150348521Y-71904012D01*
X150364459Y-71889397D01*
X150379665Y-71869393D01*
X150384447Y-71861109D01*
X150389478Y-71848754D01*
X150397558Y-71825697D01*
X150408210Y-71793438D01*
X150420959Y-71753477D01*
X150435326Y-71707313D01*
X150450836Y-71656445D01*
X150467012Y-71602373D01*
X150471243Y-71588059D01*
X150543313Y-71343625D01*
X150625169Y-71339586D01*
X150656974Y-71338323D01*
X150698074Y-71337148D01*
X150745062Y-71336134D01*
X150794531Y-71335352D01*
X150843076Y-71334874D01*
X150851915Y-71334823D01*
X150898435Y-71334648D01*
X150933739Y-71334719D01*
G37*
X150933739Y-71334719D02*
X150959307Y-71335146D01*
X150976624Y-71336037D01*
X150987171Y-71337502D01*
X150992430Y-71339649D01*
X150993884Y-71342587D01*
X150993419Y-71345212D01*
X150990910Y-71353774D01*
X150985321Y-71373047D01*
X150977084Y-71401536D01*
X150966631Y-71437746D01*
X150954392Y-71480184D01*
X150940799Y-71527353D01*
X150929706Y-71565875D01*
X150910934Y-71630767D01*
X150895015Y-71684924D01*
X150881421Y-71729850D01*
X150869627Y-71767052D01*
X150859107Y-71798036D01*
X150849335Y-71824309D01*
X150839786Y-71847376D01*
X150829933Y-71868744D01*
X150819251Y-71889919D01*
X150811474Y-71904553D01*
X150763033Y-71982388D01*
X150707237Y-72049869D01*
X150644098Y-72106989D01*
X150573623Y-72153743D01*
X150495821Y-72190122D01*
X150410704Y-72216121D01*
X150360419Y-72226051D01*
X150334598Y-72229030D01*
X150298683Y-72231460D01*
X150254820Y-72233338D01*
X150205158Y-72234663D01*
X150151843Y-72235434D01*
X150097021Y-72235649D01*
X150042839Y-72235305D01*
X149991444Y-72234402D01*
X149944983Y-72232937D01*
X149905602Y-72230909D01*
X149875449Y-72228316D01*
X149862475Y-72226450D01*
X149792375Y-72208585D01*
X149730599Y-72182637D01*
X149677739Y-72149076D01*
X149634383Y-72108373D01*
X149601124Y-72060997D01*
X149578552Y-72007419D01*
X149576057Y-71998626D01*
X149571127Y-71970470D01*
X149568324Y-71933560D01*
X149567639Y-71891663D01*
X149569060Y-71848544D01*
X149572577Y-71807969D01*
X149576662Y-71781060D01*
X149580698Y-71762469D01*
X149587574Y-71733609D01*
X149596791Y-71696464D01*
X149607845Y-71653018D01*
X149620237Y-71605253D01*
X149633465Y-71555154D01*
X149638575Y-71536036D01*
X149691025Y-71340468D01*
X149921640Y-71340459D01*
X149981875Y-71340487D01*
X150030599Y-71340616D01*
X150069002Y-71340904D01*
X150098272Y-71341409D01*
X150119601Y-71342188D01*
X150134176Y-71343301D01*
X150143188Y-71344805D01*
X150147825Y-71346758D01*
X150149277Y-71349218D01*
X150148953Y-71351562D01*
X150143588Y-71369926D01*
X150135571Y-71397783D01*
X150125421Y-71433293D01*
X150113658Y-71474617D01*
X150100803Y-71519914D01*
X150087374Y-71567345D01*
X150073891Y-71615070D01*
X150060876Y-71661249D01*
X150048846Y-71704043D01*
X150038324Y-71741610D01*
X150029827Y-71772113D01*
X150023876Y-71793710D01*
X150021301Y-71803326D01*
X150012864Y-71842920D01*
X150010648Y-71872645D01*
X150014690Y-71893720D01*
X150024337Y-71906826D01*
X150030014Y-71910556D01*
X150037741Y-71913385D01*
X150049201Y-71915436D01*
X150066076Y-71916831D01*
X150090047Y-71917690D01*
X150122797Y-71918137D01*
X150166006Y-71918292D01*
X150182914Y-71918300D01*
X150229494Y-71918250D01*
X150265149Y-71917998D01*
X150291653Y-71917391D01*
X150310781Y-71916277D01*
X150324307Y-71914501D01*
X150334005Y-71911912D01*
X150341650Y-71908355D01*
X150348521Y-71904012D01*
X150364459Y-71889397D01*
X150379665Y-71869393D01*
X150384447Y-71861109D01*
X150389478Y-71848754D01*
X150397558Y-71825697D01*
X150408210Y-71793438D01*
X150420959Y-71753477D01*
X150435326Y-71707313D01*
X150450836Y-71656445D01*
X150467012Y-71602373D01*
X150471243Y-71588059D01*
X150543313Y-71343625D01*
X150625169Y-71339586D01*
X150656974Y-71338323D01*
X150698074Y-71337148D01*
X150745062Y-71336134D01*
X150794531Y-71335352D01*
X150843076Y-71334874D01*
X150851915Y-71334823D01*
X150898435Y-71334648D01*
X150933739Y-71334719D01*
G36*
X152581265Y-71364262D02*
G01*
X152570070Y-71402345D01*
X152549132Y-71443887D01*
X152520134Y-71486812D01*
X152484763Y-71529044D01*
X152444705Y-71568507D01*
X152401645Y-71603123D01*
X152371189Y-71623025D01*
X152365883Y-71627433D01*
X152364847Y-71634052D01*
X152368553Y-71645861D01*
X152377473Y-71665839D01*
X152378237Y-71667475D01*
X152385347Y-71683363D01*
X152390242Y-71697240D01*
X152393312Y-71711989D01*
X152394949Y-71730492D01*
X152395543Y-71755634D01*
X152395485Y-71790297D01*
X152395458Y-71794475D01*
X152395036Y-71824145D01*
X152393929Y-71850374D01*
X152391737Y-71874999D01*
X152388060Y-71899854D01*
X152382496Y-71926773D01*
X152374646Y-71957592D01*
X152364109Y-71994145D01*
X152350485Y-72038268D01*
X152333373Y-72091795D01*
X152324790Y-72118325D01*
X152287734Y-72232625D01*
X152067292Y-72234294D01*
X152001123Y-72234614D01*
X151946392Y-72234488D01*
X151903349Y-72233922D01*
X151872244Y-72232922D01*
X151853328Y-72231492D01*
X151846851Y-72229638D01*
X151846850Y-72229610D01*
X151848543Y-72222790D01*
X151853330Y-72205310D01*
X151860769Y-72178707D01*
X151870420Y-72144519D01*
X151881842Y-72104285D01*
X151894593Y-72059541D01*
X151908233Y-72011827D01*
X151922321Y-71962679D01*
X151936417Y-71913636D01*
X151950079Y-71866235D01*
X151962866Y-71822015D01*
X151974338Y-71782513D01*
X151984054Y-71749268D01*
X151991572Y-71723816D01*
X151996453Y-71707696D01*
X151996620Y-71707162D01*
X151996896Y-71704259D01*
X151994924Y-71701911D01*
X151989516Y-71700058D01*
X151979484Y-71698644D01*
X151963640Y-71697610D01*
X151940794Y-71696899D01*
X151909759Y-71696453D01*
X151869346Y-71696214D01*
X151818366Y-71696124D01*
X151769490Y-71696121D01*
X151538875Y-71696193D01*
X151373775Y-72235791D01*
X151142908Y-72235795D01*
X151080420Y-72235711D01*
X151029637Y-72235433D01*
X150989565Y-72234926D01*
X150959211Y-72234156D01*
X150937579Y-72233088D01*
X150923677Y-72231688D01*
X150916509Y-72229921D01*
X150915037Y-72227862D01*
X150917444Y-72220153D01*
X150923020Y-72201565D01*
X150931421Y-72173272D01*
X150942303Y-72136450D01*
X150955321Y-72092275D01*
X150970132Y-72041921D01*
X150986391Y-71986565D01*
X151003755Y-71927382D01*
X151021880Y-71865547D01*
X151040422Y-71802235D01*
X151059036Y-71738623D01*
X151077379Y-71675885D01*
X151095106Y-71615197D01*
X151111874Y-71557734D01*
X151127338Y-71504673D01*
X151141156Y-71457187D01*
X151152981Y-71416453D01*
X151162472Y-71383647D01*
X151169283Y-71359942D01*
X151173070Y-71346516D01*
X151173750Y-71343868D01*
X151179965Y-71343415D01*
X151198074Y-71342979D01*
X151227270Y-71342566D01*
X151266747Y-71342177D01*
X151315698Y-71341818D01*
X151373317Y-71341492D01*
X151438798Y-71341203D01*
X151511333Y-71340955D01*
X151590116Y-71340752D01*
X151674342Y-71340598D01*
X151763203Y-71340496D01*
X151855893Y-71340451D01*
X151879430Y-71340449D01*
X152585111Y-71340449D01*
X152581265Y-71364262D01*
G37*
X152581265Y-71364262D02*
X152570070Y-71402345D01*
X152549132Y-71443887D01*
X152520134Y-71486812D01*
X152484763Y-71529044D01*
X152444705Y-71568507D01*
X152401645Y-71603123D01*
X152371189Y-71623025D01*
X152365883Y-71627433D01*
X152364847Y-71634052D01*
X152368553Y-71645861D01*
X152377473Y-71665839D01*
X152378237Y-71667475D01*
X152385347Y-71683363D01*
X152390242Y-71697240D01*
X152393312Y-71711989D01*
X152394949Y-71730492D01*
X152395543Y-71755634D01*
X152395485Y-71790297D01*
X152395458Y-71794475D01*
X152395036Y-71824145D01*
X152393929Y-71850374D01*
X152391737Y-71874999D01*
X152388060Y-71899854D01*
X152382496Y-71926773D01*
X152374646Y-71957592D01*
X152364109Y-71994145D01*
X152350485Y-72038268D01*
X152333373Y-72091795D01*
X152324790Y-72118325D01*
X152287734Y-72232625D01*
X152067292Y-72234294D01*
X152001123Y-72234614D01*
X151946392Y-72234488D01*
X151903349Y-72233922D01*
X151872244Y-72232922D01*
X151853328Y-72231492D01*
X151846851Y-72229638D01*
X151846850Y-72229610D01*
X151848543Y-72222790D01*
X151853330Y-72205310D01*
X151860769Y-72178707D01*
X151870420Y-72144519D01*
X151881842Y-72104285D01*
X151894593Y-72059541D01*
X151908233Y-72011827D01*
X151922321Y-71962679D01*
X151936417Y-71913636D01*
X151950079Y-71866235D01*
X151962866Y-71822015D01*
X151974338Y-71782513D01*
X151984054Y-71749268D01*
X151991572Y-71723816D01*
X151996453Y-71707696D01*
X151996620Y-71707162D01*
X151996896Y-71704259D01*
X151994924Y-71701911D01*
X151989516Y-71700058D01*
X151979484Y-71698644D01*
X151963640Y-71697610D01*
X151940794Y-71696899D01*
X151909759Y-71696453D01*
X151869346Y-71696214D01*
X151818366Y-71696124D01*
X151769490Y-71696121D01*
X151538875Y-71696193D01*
X151373775Y-72235791D01*
X151142908Y-72235795D01*
X151080420Y-72235711D01*
X151029637Y-72235433D01*
X150989565Y-72234926D01*
X150959211Y-72234156D01*
X150937579Y-72233088D01*
X150923677Y-72231688D01*
X150916509Y-72229921D01*
X150915037Y-72227862D01*
X150917444Y-72220153D01*
X150923020Y-72201565D01*
X150931421Y-72173272D01*
X150942303Y-72136450D01*
X150955321Y-72092275D01*
X150970132Y-72041921D01*
X150986391Y-71986565D01*
X151003755Y-71927382D01*
X151021880Y-71865547D01*
X151040422Y-71802235D01*
X151059036Y-71738623D01*
X151077379Y-71675885D01*
X151095106Y-71615197D01*
X151111874Y-71557734D01*
X151127338Y-71504673D01*
X151141156Y-71457187D01*
X151152981Y-71416453D01*
X151162472Y-71383647D01*
X151169283Y-71359942D01*
X151173070Y-71346516D01*
X151173750Y-71343868D01*
X151179965Y-71343415D01*
X151198074Y-71342979D01*
X151227270Y-71342566D01*
X151266747Y-71342177D01*
X151315698Y-71341818D01*
X151373317Y-71341492D01*
X151438798Y-71341203D01*
X151511333Y-71340955D01*
X151590116Y-71340752D01*
X151674342Y-71340598D01*
X151763203Y-71340496D01*
X151855893Y-71340451D01*
X151879430Y-71340449D01*
X152585111Y-71340449D01*
X152581265Y-71364262D01*
G36*
X138485039Y-70883447D02*
G01*
X138718225Y-70883645D01*
X138838875Y-71001083D01*
X138871816Y-71033007D01*
X138902415Y-71062399D01*
X138929302Y-71087962D01*
X138951110Y-71108405D01*
X138966470Y-71122434D01*
X138973710Y-71128548D01*
X138977914Y-71131040D01*
X138982657Y-71131950D01*
X138989036Y-71130552D01*
X138998152Y-71126119D01*
X139011102Y-71117924D01*
X139028984Y-71105239D01*
X139052898Y-71087339D01*
X139083942Y-71063496D01*
X139123215Y-71032984D01*
X139151510Y-71010921D01*
X139315125Y-70883266D01*
X139561187Y-70883258D01*
X139615682Y-70883323D01*
X139665990Y-70883515D01*
X139710743Y-70883816D01*
X139748578Y-70884212D01*
X139778127Y-70884689D01*
X139798026Y-70885231D01*
X139806908Y-70885823D01*
X139807250Y-70885966D01*
X139805607Y-70892564D01*
X139800980Y-70909746D01*
X139793823Y-70935868D01*
X139784585Y-70969288D01*
X139773720Y-71008364D01*
X139762800Y-71047456D01*
X139750840Y-71090307D01*
X139740098Y-71129053D01*
X139731027Y-71162038D01*
X139724079Y-71187607D01*
X139719707Y-71204106D01*
X139718350Y-71209839D01*
X139712128Y-71210295D01*
X139693974Y-71210735D01*
X139664656Y-71211154D01*
X139624943Y-71211549D01*
X139575602Y-71211917D01*
X139517402Y-71212254D01*
X139451110Y-71212557D01*
X139377495Y-71212822D01*
X139297325Y-71213045D01*
X139211368Y-71213222D01*
X139120393Y-71213351D01*
X139025166Y-71213428D01*
X138940475Y-71213450D01*
X138808339Y-71213401D01*
X138688803Y-71213255D01*
X138581768Y-71213010D01*
X138487135Y-71212667D01*
X138404803Y-71212223D01*
X138334674Y-71211678D01*
X138276648Y-71211032D01*
X138230626Y-71210283D01*
X138196508Y-71209431D01*
X138174196Y-71208474D01*
X138163588Y-71207413D01*
X138162600Y-71206943D01*
X138164283Y-71199051D01*
X138169080Y-71180326D01*
X138176612Y-71152149D01*
X138186500Y-71115897D01*
X138198366Y-71072949D01*
X138211831Y-71024684D01*
X138226516Y-70972480D01*
X138242042Y-70917717D01*
X138242364Y-70916587D01*
X138251854Y-70883249D01*
X138485039Y-70883447D01*
G37*
X138485039Y-70883447D02*
X138718225Y-70883645D01*
X138838875Y-71001083D01*
X138871816Y-71033007D01*
X138902415Y-71062399D01*
X138929302Y-71087962D01*
X138951110Y-71108405D01*
X138966470Y-71122434D01*
X138973710Y-71128548D01*
X138977914Y-71131040D01*
X138982657Y-71131950D01*
X138989036Y-71130552D01*
X138998152Y-71126119D01*
X139011102Y-71117924D01*
X139028984Y-71105239D01*
X139052898Y-71087339D01*
X139083942Y-71063496D01*
X139123215Y-71032984D01*
X139151510Y-71010921D01*
X139315125Y-70883266D01*
X139561187Y-70883258D01*
X139615682Y-70883323D01*
X139665990Y-70883515D01*
X139710743Y-70883816D01*
X139748578Y-70884212D01*
X139778127Y-70884689D01*
X139798026Y-70885231D01*
X139806908Y-70885823D01*
X139807250Y-70885966D01*
X139805607Y-70892564D01*
X139800980Y-70909746D01*
X139793823Y-70935868D01*
X139784585Y-70969288D01*
X139773720Y-71008364D01*
X139762800Y-71047456D01*
X139750840Y-71090307D01*
X139740098Y-71129053D01*
X139731027Y-71162038D01*
X139724079Y-71187607D01*
X139719707Y-71204106D01*
X139718350Y-71209839D01*
X139712128Y-71210295D01*
X139693974Y-71210735D01*
X139664656Y-71211154D01*
X139624943Y-71211549D01*
X139575602Y-71211917D01*
X139517402Y-71212254D01*
X139451110Y-71212557D01*
X139377495Y-71212822D01*
X139297325Y-71213045D01*
X139211368Y-71213222D01*
X139120393Y-71213351D01*
X139025166Y-71213428D01*
X138940475Y-71213450D01*
X138808339Y-71213401D01*
X138688803Y-71213255D01*
X138581768Y-71213010D01*
X138487135Y-71212667D01*
X138404803Y-71212223D01*
X138334674Y-71211678D01*
X138276648Y-71211032D01*
X138230626Y-71210283D01*
X138196508Y-71209431D01*
X138174196Y-71208474D01*
X138163588Y-71207413D01*
X138162600Y-71206943D01*
X138164283Y-71199051D01*
X138169080Y-71180326D01*
X138176612Y-71152149D01*
X138186500Y-71115897D01*
X138198366Y-71072949D01*
X138211831Y-71024684D01*
X138226516Y-70972480D01*
X138242042Y-70917717D01*
X138242364Y-70916587D01*
X138251854Y-70883249D01*
X138485039Y-70883447D01*
G36*
X140384035Y-70884404D02*
G01*
X140420513Y-70884621D01*
X140448589Y-70884992D01*
X140466869Y-70885508D01*
X140473958Y-70886160D01*
X140474000Y-70886219D01*
X140472406Y-70892897D01*
X140467993Y-70909797D01*
X140461308Y-70934896D01*
X140452902Y-70966170D01*
X140443322Y-71001596D01*
X140433118Y-71039152D01*
X140422839Y-71076814D01*
X140413034Y-71112559D01*
X140404252Y-71144364D01*
X140397043Y-71170206D01*
X140394241Y-71180112D01*
X140384745Y-71213450D01*
X140146797Y-71213450D01*
X140093249Y-71213409D01*
X140043920Y-71213292D01*
X140000198Y-71213110D01*
X139963470Y-71212871D01*
X139935123Y-71212584D01*
X139916545Y-71212258D01*
X139909122Y-71211904D01*
X139909047Y-71211862D01*
X139910780Y-71205589D01*
X139915565Y-71188718D01*
X139922943Y-71162856D01*
X139932454Y-71129609D01*
X139943640Y-71090585D01*
X139955765Y-71048350D01*
X140002286Y-70886425D01*
X140238143Y-70884760D01*
X140291455Y-70884464D01*
X140340551Y-70884349D01*
X140384035Y-70884404D01*
G37*
X140384035Y-70884404D02*
X140420513Y-70884621D01*
X140448589Y-70884992D01*
X140466869Y-70885508D01*
X140473958Y-70886160D01*
X140474000Y-70886219D01*
X140472406Y-70892897D01*
X140467993Y-70909797D01*
X140461308Y-70934896D01*
X140452902Y-70966170D01*
X140443322Y-71001596D01*
X140433118Y-71039152D01*
X140422839Y-71076814D01*
X140413034Y-71112559D01*
X140404252Y-71144364D01*
X140397043Y-71170206D01*
X140394241Y-71180112D01*
X140384745Y-71213450D01*
X140146797Y-71213450D01*
X140093249Y-71213409D01*
X140043920Y-71213292D01*
X140000198Y-71213110D01*
X139963470Y-71212871D01*
X139935123Y-71212584D01*
X139916545Y-71212258D01*
X139909122Y-71211904D01*
X139909047Y-71211862D01*
X139910780Y-71205589D01*
X139915565Y-71188718D01*
X139922943Y-71162856D01*
X139932454Y-71129609D01*
X139943640Y-71090585D01*
X139955765Y-71048350D01*
X140002286Y-70886425D01*
X140238143Y-70884760D01*
X140291455Y-70884464D01*
X140340551Y-70884349D01*
X140384035Y-70884404D01*
G36*
X141682532Y-70884276D02*
G01*
X141731882Y-70884532D01*
X141772171Y-70884949D01*
X141804129Y-70885538D01*
X141828483Y-70886308D01*
X141845961Y-70887269D01*
X141857290Y-70888430D01*
X141863200Y-70889800D01*
X141864515Y-70891034D01*
X141862742Y-70899117D01*
X141857822Y-70917644D01*
X141850241Y-70944892D01*
X141840484Y-70979136D01*
X141829036Y-71018650D01*
X141818455Y-71054700D01*
X141772531Y-71210275D01*
X140593773Y-71213515D01*
X140598187Y-71199195D01*
X140622831Y-71138427D01*
X140658007Y-71078999D01*
X140701634Y-71023358D01*
X140751632Y-70973954D01*
X140805919Y-70933236D01*
X140841175Y-70913250D01*
X140895305Y-70886425D01*
X141379977Y-70884684D01*
X141472845Y-70884387D01*
X141553742Y-70884213D01*
X141623395Y-70884173D01*
X141682532Y-70884276D01*
G37*
X141682532Y-70884276D02*
X141731882Y-70884532D01*
X141772171Y-70884949D01*
X141804129Y-70885538D01*
X141828483Y-70886308D01*
X141845961Y-70887269D01*
X141857290Y-70888430D01*
X141863200Y-70889800D01*
X141864515Y-70891034D01*
X141862742Y-70899117D01*
X141857822Y-70917644D01*
X141850241Y-70944892D01*
X141840484Y-70979136D01*
X141829036Y-71018650D01*
X141818455Y-71054700D01*
X141772531Y-71210275D01*
X140593773Y-71213515D01*
X140598187Y-71199195D01*
X140622831Y-71138427D01*
X140658007Y-71078999D01*
X140701634Y-71023358D01*
X140751632Y-70973954D01*
X140805919Y-70933236D01*
X140841175Y-70913250D01*
X140895305Y-70886425D01*
X141379977Y-70884684D01*
X141472845Y-70884387D01*
X141553742Y-70884213D01*
X141623395Y-70884173D01*
X141682532Y-70884276D01*
G36*
X144511825Y-70871796D02*
G01*
X144569649Y-70872261D01*
X144618980Y-70872973D01*
X144658724Y-70873918D01*
X144687788Y-70875087D01*
X144703237Y-70876243D01*
X144760236Y-70886832D01*
X144808183Y-70905140D01*
X144847417Y-70931621D01*
X144878281Y-70966731D01*
X144901115Y-71010924D01*
X144916260Y-71064656D01*
X144924056Y-71128380D01*
X144925350Y-71172634D01*
X144925350Y-71213450D01*
X143629094Y-71213450D01*
X143633506Y-71199162D01*
X143660039Y-71131887D01*
X143696156Y-71068757D01*
X143740378Y-71011418D01*
X143791226Y-70961515D01*
X143847222Y-70920695D01*
X143906886Y-70890604D01*
X143912799Y-70888323D01*
X143921266Y-70885247D01*
X143929675Y-70882643D01*
X143939127Y-70880464D01*
X143950723Y-70878664D01*
X143965565Y-70877194D01*
X143984754Y-70876010D01*
X144009391Y-70875064D01*
X144040578Y-70874309D01*
X144079416Y-70873699D01*
X144127006Y-70873187D01*
X144184450Y-70872727D01*
X144252849Y-70872272D01*
X144298320Y-70871990D01*
X144375067Y-70871649D01*
X144446600Y-70871588D01*
X144511825Y-70871796D01*
G37*
X144511825Y-70871796D02*
X144569649Y-70872261D01*
X144618980Y-70872973D01*
X144658724Y-70873918D01*
X144687788Y-70875087D01*
X144703237Y-70876243D01*
X144760236Y-70886832D01*
X144808183Y-70905140D01*
X144847417Y-70931621D01*
X144878281Y-70966731D01*
X144901115Y-71010924D01*
X144916260Y-71064656D01*
X144924056Y-71128380D01*
X144925350Y-71172634D01*
X144925350Y-71213450D01*
X143629094Y-71213450D01*
X143633506Y-71199162D01*
X143660039Y-71131887D01*
X143696156Y-71068757D01*
X143740378Y-71011418D01*
X143791226Y-70961515D01*
X143847222Y-70920695D01*
X143906886Y-70890604D01*
X143912799Y-70888323D01*
X143921266Y-70885247D01*
X143929675Y-70882643D01*
X143939127Y-70880464D01*
X143950723Y-70878664D01*
X143965565Y-70877194D01*
X143984754Y-70876010D01*
X144009391Y-70875064D01*
X144040578Y-70874309D01*
X144079416Y-70873699D01*
X144127006Y-70873187D01*
X144184450Y-70872727D01*
X144252849Y-70872272D01*
X144298320Y-70871990D01*
X144375067Y-70871649D01*
X144446600Y-70871588D01*
X144511825Y-70871796D01*
G36*
X145780232Y-71008662D02*
G01*
X145814106Y-71041039D01*
X145845224Y-71070427D01*
X145872358Y-71095695D01*
X145894282Y-71115711D01*
X145909768Y-71129345D01*
X145917588Y-71135466D01*
X145918083Y-71135681D01*
X145924698Y-71132287D01*
X145940022Y-71121914D01*
X145962814Y-71105477D01*
X145991835Y-71083894D01*
X146025847Y-71058081D01*
X146063611Y-71028955D01*
X146087400Y-71010393D01*
X146249325Y-70883498D01*
X146496128Y-70883374D01*
X146558649Y-70883370D01*
X146609623Y-70883464D01*
X146650201Y-70883708D01*
X146681537Y-70884152D01*
X146704784Y-70884849D01*
X146721092Y-70885852D01*
X146731615Y-70887211D01*
X146737506Y-70888980D01*
X146739916Y-70891209D01*
X146739999Y-70893951D01*
X146739895Y-70894362D01*
X146737395Y-70903347D01*
X146731962Y-70922766D01*
X146724098Y-70950830D01*
X146714306Y-70985746D01*
X146703087Y-71025723D01*
X146693614Y-71059462D01*
X146650368Y-71213449D01*
X145873584Y-71213450D01*
X145744385Y-71213406D01*
X145627660Y-71213275D01*
X145523184Y-71213054D01*
X145430730Y-71212741D01*
X145350073Y-71212334D01*
X145280987Y-71211831D01*
X145223246Y-71211231D01*
X145176624Y-71210531D01*
X145140897Y-71209729D01*
X145115837Y-71208824D01*
X145101220Y-71207814D01*
X145096800Y-71206770D01*
X145098430Y-71199246D01*
X145102945Y-71181556D01*
X145109779Y-71155758D01*
X145118365Y-71123909D01*
X145128137Y-71088065D01*
X145138530Y-71050284D01*
X145148978Y-71012622D01*
X145158914Y-70977137D01*
X145167773Y-70945885D01*
X145174989Y-70920924D01*
X145179996Y-70904310D01*
X145180130Y-70903887D01*
X145186684Y-70883250D01*
X145418229Y-70883250D01*
X145649773Y-70883249D01*
X145780232Y-71008662D01*
G37*
X145780232Y-71008662D02*
X145814106Y-71041039D01*
X145845224Y-71070427D01*
X145872358Y-71095695D01*
X145894282Y-71115711D01*
X145909768Y-71129345D01*
X145917588Y-71135466D01*
X145918083Y-71135681D01*
X145924698Y-71132287D01*
X145940022Y-71121914D01*
X145962814Y-71105477D01*
X145991835Y-71083894D01*
X146025847Y-71058081D01*
X146063611Y-71028955D01*
X146087400Y-71010393D01*
X146249325Y-70883498D01*
X146496128Y-70883374D01*
X146558649Y-70883370D01*
X146609623Y-70883464D01*
X146650201Y-70883708D01*
X146681537Y-70884152D01*
X146704784Y-70884849D01*
X146721092Y-70885852D01*
X146731615Y-70887211D01*
X146737506Y-70888980D01*
X146739916Y-70891209D01*
X146739999Y-70893951D01*
X146739895Y-70894362D01*
X146737395Y-70903347D01*
X146731962Y-70922766D01*
X146724098Y-70950830D01*
X146714306Y-70985746D01*
X146703087Y-71025723D01*
X146693614Y-71059462D01*
X146650368Y-71213449D01*
X145873584Y-71213450D01*
X145744385Y-71213406D01*
X145627660Y-71213275D01*
X145523184Y-71213054D01*
X145430730Y-71212741D01*
X145350073Y-71212334D01*
X145280987Y-71211831D01*
X145223246Y-71211231D01*
X145176624Y-71210531D01*
X145140897Y-71209729D01*
X145115837Y-71208824D01*
X145101220Y-71207814D01*
X145096800Y-71206770D01*
X145098430Y-71199246D01*
X145102945Y-71181556D01*
X145109779Y-71155758D01*
X145118365Y-71123909D01*
X145128137Y-71088065D01*
X145138530Y-71050284D01*
X145148978Y-71012622D01*
X145158914Y-70977137D01*
X145167773Y-70945885D01*
X145174989Y-70920924D01*
X145179996Y-70904310D01*
X145180130Y-70903887D01*
X145186684Y-70883250D01*
X145418229Y-70883250D01*
X145649773Y-70883249D01*
X145780232Y-71008662D01*
G36*
X147608248Y-70870728D02*
G01*
X147669849Y-70870922D01*
X147728957Y-70871306D01*
X147784053Y-70871881D01*
X147833616Y-70872647D01*
X147876128Y-70873606D01*
X147910070Y-70874759D01*
X147933922Y-70876108D01*
X147940557Y-70876732D01*
X147997201Y-70888242D01*
X148045458Y-70908602D01*
X148084861Y-70937490D01*
X148114942Y-70974583D01*
X148131440Y-71008485D01*
X148139428Y-71036055D01*
X148146613Y-71072230D01*
X148152397Y-71112915D01*
X148156183Y-71154018D01*
X148157387Y-71186462D01*
X148157500Y-71213450D01*
X146860723Y-71213450D01*
X146864851Y-71195987D01*
X146873032Y-71171595D01*
X146886880Y-71140642D01*
X146904473Y-71106752D01*
X146923886Y-71073545D01*
X146943196Y-71044643D01*
X146950021Y-71035650D01*
X146996213Y-70984810D01*
X147046942Y-70942184D01*
X147100420Y-70908940D01*
X147154860Y-70886246D01*
X147192300Y-70877308D01*
X147207977Y-70875851D01*
X147234835Y-70874572D01*
X147271352Y-70873473D01*
X147316011Y-70872556D01*
X147367291Y-70871821D01*
X147423675Y-70871269D01*
X147483641Y-70870902D01*
X147545672Y-70870721D01*
X147608248Y-70870728D01*
G37*
X147608248Y-70870728D02*
X147669849Y-70870922D01*
X147728957Y-70871306D01*
X147784053Y-70871881D01*
X147833616Y-70872647D01*
X147876128Y-70873606D01*
X147910070Y-70874759D01*
X147933922Y-70876108D01*
X147940557Y-70876732D01*
X147997201Y-70888242D01*
X148045458Y-70908602D01*
X148084861Y-70937490D01*
X148114942Y-70974583D01*
X148131440Y-71008485D01*
X148139428Y-71036055D01*
X148146613Y-71072230D01*
X148152397Y-71112915D01*
X148156183Y-71154018D01*
X148157387Y-71186462D01*
X148157500Y-71213450D01*
X146860723Y-71213450D01*
X146864851Y-71195987D01*
X146873032Y-71171595D01*
X146886880Y-71140642D01*
X146904473Y-71106752D01*
X146923886Y-71073545D01*
X146943196Y-71044643D01*
X146950021Y-71035650D01*
X146996213Y-70984810D01*
X147046942Y-70942184D01*
X147100420Y-70908940D01*
X147154860Y-70886246D01*
X147192300Y-70877308D01*
X147207977Y-70875851D01*
X147234835Y-70874572D01*
X147271352Y-70873473D01*
X147316011Y-70872556D01*
X147367291Y-70871821D01*
X147423675Y-70871269D01*
X147483641Y-70870902D01*
X147545672Y-70870721D01*
X147608248Y-70870728D01*
G36*
X150420716Y-70871916D02*
G01*
X150466843Y-70872200D01*
X150546372Y-70872798D01*
X150614201Y-70873428D01*
X150671329Y-70874120D01*
X150718757Y-70874904D01*
X150757484Y-70875812D01*
X150788511Y-70876875D01*
X150812836Y-70878123D01*
X150831461Y-70879588D01*
X150845384Y-70881301D01*
X150855605Y-70883291D01*
X150859425Y-70884334D01*
X150893532Y-70896344D01*
X150919739Y-70910225D01*
X150942804Y-70928857D01*
X150956900Y-70943279D01*
X150983232Y-70977784D01*
X151002213Y-71017034D01*
X151014426Y-71062936D01*
X151020455Y-71117392D01*
X151021350Y-71153437D01*
X151021350Y-71213450D01*
X149726634Y-71213450D01*
X149738208Y-71179807D01*
X149765008Y-71117394D01*
X149800370Y-71059105D01*
X149842809Y-71006326D01*
X149890839Y-70960441D01*
X149942976Y-70922838D01*
X149997732Y-70894900D01*
X150053624Y-70878015D01*
X150063618Y-70876267D01*
X150080653Y-70874743D01*
X150109871Y-70873512D01*
X150150757Y-70872577D01*
X150202799Y-70871945D01*
X150265482Y-70871621D01*
X150338293Y-70871609D01*
X150420716Y-70871916D01*
G37*
X150420716Y-70871916D02*
X150466843Y-70872200D01*
X150546372Y-70872798D01*
X150614201Y-70873428D01*
X150671329Y-70874120D01*
X150718757Y-70874904D01*
X150757484Y-70875812D01*
X150788511Y-70876875D01*
X150812836Y-70878123D01*
X150831461Y-70879588D01*
X150845384Y-70881301D01*
X150855605Y-70883291D01*
X150859425Y-70884334D01*
X150893532Y-70896344D01*
X150919739Y-70910225D01*
X150942804Y-70928857D01*
X150956900Y-70943279D01*
X150983232Y-70977784D01*
X151002213Y-71017034D01*
X151014426Y-71062936D01*
X151020455Y-71117392D01*
X151021350Y-71153437D01*
X151021350Y-71213450D01*
X149726634Y-71213450D01*
X149738208Y-71179807D01*
X149765008Y-71117394D01*
X149800370Y-71059105D01*
X149842809Y-71006326D01*
X149890839Y-70960441D01*
X149942976Y-70922838D01*
X149997732Y-70894900D01*
X150053624Y-70878015D01*
X150063618Y-70876267D01*
X150080653Y-70874743D01*
X150109871Y-70873512D01*
X150150757Y-70872577D01*
X150202799Y-70871945D01*
X150265482Y-70871621D01*
X150338293Y-70871609D01*
X150420716Y-70871916D01*
G36*
X143118554Y-70883997D02*
G01*
X143168500Y-70884455D01*
X143210589Y-70885259D01*
X143245630Y-70886474D01*
X143274429Y-70888161D01*
X143297794Y-70890385D01*
X143316532Y-70893209D01*
X143331450Y-70896694D01*
X143343357Y-70900906D01*
X143353058Y-70905906D01*
X143361362Y-70911759D01*
X143369075Y-70918527D01*
X143377006Y-70926273D01*
X143385961Y-70935060D01*
X143387702Y-70936718D01*
X143406584Y-70956206D01*
X143423035Y-70976032D01*
X143433239Y-70991472D01*
X143443445Y-71017814D01*
X143452459Y-71052783D01*
X143459515Y-71092313D01*
X143463847Y-71132338D01*
X143464850Y-71159207D01*
X143464850Y-71207100D01*
X142706025Y-71207100D01*
X142608988Y-71207077D01*
X142515552Y-71207010D01*
X142426494Y-71206903D01*
X142342591Y-71206757D01*
X142264620Y-71206576D01*
X142193361Y-71206363D01*
X142129590Y-71206120D01*
X142074084Y-71205851D01*
X142027623Y-71205558D01*
X141990983Y-71205244D01*
X141964942Y-71204912D01*
X141950279Y-71204564D01*
X141947200Y-71204313D01*
X141950491Y-71198466D01*
X141959800Y-71183282D01*
X141974279Y-71160111D01*
X141993080Y-71130300D01*
X142015354Y-71095197D01*
X142040254Y-71056152D01*
X142048042Y-71043976D01*
X142148885Y-70886425D01*
X142722730Y-70884699D01*
X142824065Y-70884370D01*
X142913508Y-70884073D01*
X142991866Y-70883869D01*
X143059945Y-70883823D01*
X143118554Y-70883997D01*
G37*
X143118554Y-70883997D02*
X143168500Y-70884455D01*
X143210589Y-70885259D01*
X143245630Y-70886474D01*
X143274429Y-70888161D01*
X143297794Y-70890385D01*
X143316532Y-70893209D01*
X143331450Y-70896694D01*
X143343357Y-70900906D01*
X143353058Y-70905906D01*
X143361362Y-70911759D01*
X143369075Y-70918527D01*
X143377006Y-70926273D01*
X143385961Y-70935060D01*
X143387702Y-70936718D01*
X143406584Y-70956206D01*
X143423035Y-70976032D01*
X143433239Y-70991472D01*
X143443445Y-71017814D01*
X143452459Y-71052783D01*
X143459515Y-71092313D01*
X143463847Y-71132338D01*
X143464850Y-71159207D01*
X143464850Y-71207100D01*
X142706025Y-71207100D01*
X142608988Y-71207077D01*
X142515552Y-71207010D01*
X142426494Y-71206903D01*
X142342591Y-71206757D01*
X142264620Y-71206576D01*
X142193361Y-71206363D01*
X142129590Y-71206120D01*
X142074084Y-71205851D01*
X142027623Y-71205558D01*
X141990983Y-71205244D01*
X141964942Y-71204912D01*
X141950279Y-71204564D01*
X141947200Y-71204313D01*
X141950491Y-71198466D01*
X141959800Y-71183282D01*
X141974279Y-71160111D01*
X141993080Y-71130300D01*
X142015354Y-71095197D01*
X142040254Y-71056152D01*
X142048042Y-71043976D01*
X142148885Y-70886425D01*
X142722730Y-70884699D01*
X142824065Y-70884370D01*
X142913508Y-70884073D01*
X142991866Y-70883869D01*
X143059945Y-70883823D01*
X143118554Y-70883997D01*
G36*
X149108439Y-70883323D02*
G01*
X149190489Y-70883463D01*
X149267959Y-70883691D01*
X149339972Y-70884000D01*
X149405649Y-70884383D01*
X149464112Y-70884832D01*
X149514484Y-70885342D01*
X149555887Y-70885904D01*
X149587443Y-70886512D01*
X149608275Y-70887159D01*
X149617503Y-70887838D01*
X149617895Y-70888012D01*
X149616232Y-70895191D01*
X149611605Y-70912911D01*
X149604473Y-70939482D01*
X149595290Y-70973213D01*
X149584516Y-71012414D01*
X149574563Y-71048350D01*
X149531336Y-71203925D01*
X148875954Y-71205542D01*
X148220571Y-71207159D01*
X148243864Y-71170617D01*
X148254124Y-71154533D01*
X148269874Y-71129861D01*
X148289763Y-71098713D01*
X148312442Y-71063203D01*
X148336562Y-71025443D01*
X148347266Y-71008689D01*
X148427375Y-70883304D01*
X149022687Y-70883277D01*
X149108439Y-70883323D01*
G37*
X149108439Y-70883323D02*
X149190489Y-70883463D01*
X149267959Y-70883691D01*
X149339972Y-70884000D01*
X149405649Y-70884383D01*
X149464112Y-70884832D01*
X149514484Y-70885342D01*
X149555887Y-70885904D01*
X149587443Y-70886512D01*
X149608275Y-70887159D01*
X149617503Y-70887838D01*
X149617895Y-70888012D01*
X149616232Y-70895191D01*
X149611605Y-70912911D01*
X149604473Y-70939482D01*
X149595290Y-70973213D01*
X149584516Y-71012414D01*
X149574563Y-71048350D01*
X149531336Y-71203925D01*
X148875954Y-71205542D01*
X148220571Y-71207159D01*
X148243864Y-71170617D01*
X148254124Y-71154533D01*
X148269874Y-71129861D01*
X148289763Y-71098713D01*
X148312442Y-71063203D01*
X148336562Y-71025443D01*
X148347266Y-71008689D01*
X148427375Y-70883304D01*
X149022687Y-70883277D01*
X149108439Y-70883323D01*
G36*
X152480386Y-70899584D02*
G01*
X152514146Y-70921581D01*
X152545150Y-70951211D01*
X152570196Y-70984870D01*
X152585938Y-71018477D01*
X152598049Y-71067444D01*
X152605998Y-71121620D01*
X152608722Y-71170587D01*
X152608850Y-71207100D01*
X151850025Y-71207100D01*
X151752988Y-71207066D01*
X151659552Y-71206969D01*
X151570494Y-71206812D01*
X151486591Y-71206600D01*
X151408620Y-71206337D01*
X151337361Y-71206026D01*
X151273590Y-71205672D01*
X151218084Y-71205280D01*
X151171623Y-71204852D01*
X151134983Y-71204395D01*
X151108942Y-71203911D01*
X151094279Y-71203404D01*
X151091200Y-71203038D01*
X151094476Y-71196848D01*
X151103740Y-71181319D01*
X151118148Y-71157819D01*
X151136853Y-71127714D01*
X151159009Y-71092371D01*
X151183772Y-71053155D01*
X151191212Y-71041424D01*
X151291225Y-70883871D01*
X151869415Y-70883560D01*
X152447606Y-70883250D01*
X152480386Y-70899584D01*
G37*
X152480386Y-70899584D02*
X152514146Y-70921581D01*
X152545150Y-70951211D01*
X152570196Y-70984870D01*
X152585938Y-71018477D01*
X152598049Y-71067444D01*
X152605998Y-71121620D01*
X152608722Y-71170587D01*
X152608850Y-71207100D01*
X151850025Y-71207100D01*
X151752988Y-71207066D01*
X151659552Y-71206969D01*
X151570494Y-71206812D01*
X151486591Y-71206600D01*
X151408620Y-71206337D01*
X151337361Y-71206026D01*
X151273590Y-71205672D01*
X151218084Y-71205280D01*
X151171623Y-71204852D01*
X151134983Y-71204395D01*
X151108942Y-71203911D01*
X151094279Y-71203404D01*
X151091200Y-71203038D01*
X151094476Y-71196848D01*
X151103740Y-71181319D01*
X151118148Y-71157819D01*
X151136853Y-71127714D01*
X151159009Y-71092371D01*
X151183772Y-71053155D01*
X151191212Y-71041424D01*
X151291225Y-70883871D01*
X151869415Y-70883560D01*
X152447606Y-70883250D01*
X152480386Y-70899584D01*
D13*
%TO.C,R21*%
X143572500Y-75662742D02*
X143572500Y-76137258D01*
X142527500Y-75662742D02*
X142527500Y-76137258D01*
%TO.C,R20*%
X136862742Y-96727500D02*
X137337258Y-96727500D01*
X136862742Y-97772500D02*
X137337258Y-97772500D01*
%TO.C,D14*%
X142315000Y-78150000D02*
X142315000Y-80435000D01*
X142315000Y-80435000D02*
X143785000Y-80435000D01*
X143785000Y-80435000D02*
X143785000Y-78150000D01*
%TO.C,D13*%
X139350000Y-97985000D02*
X141635000Y-97985000D01*
X141635000Y-97985000D02*
X141635000Y-96515000D01*
X141635000Y-96515000D02*
X139350000Y-96515000D01*
D16*
%TO.C,U9*%
X132275700Y-95697140D02*
X132275700Y-96024800D01*
X140124300Y-80502860D02*
X140124300Y-80175200D01*
X140124300Y-96024800D02*
X140124300Y-95697140D01*
X132275700Y-96024800D02*
X140124300Y-96024800D01*
X132275700Y-80175200D02*
X132275700Y-80502860D01*
X140124300Y-80175200D02*
X132275700Y-80175200D01*
D13*
%TO.C,C27*%
X120638748Y-80815000D02*
X121161252Y-80815000D01*
X120638748Y-82285000D02*
X121161252Y-82285000D01*
%TO.C,D5*%
X128950000Y-99265000D02*
X123265000Y-99265000D01*
X123265000Y-99265000D02*
X123265000Y-102435000D01*
X123265000Y-102435000D02*
X128950000Y-102435000D01*
%TO.C,D2*%
X178835000Y-91400000D02*
X178835000Y-89115000D01*
X178835000Y-89115000D02*
X177365000Y-89115000D01*
X177365000Y-89115000D02*
X177365000Y-91400000D01*
%TO.C,R4*%
X177022500Y-90362742D02*
X177022500Y-90837258D01*
X175977500Y-90362742D02*
X175977500Y-90837258D01*
%TO.C,J3*%
X168690000Y-74030000D02*
X168690000Y-71370000D01*
X158470000Y-74030000D02*
X168690000Y-74030000D01*
X158470000Y-71370000D02*
X168690000Y-71370000D01*
X158470000Y-74030000D02*
X158470000Y-71370000D01*
X157200000Y-74030000D02*
X155870000Y-74030000D01*
X155870000Y-74030000D02*
X155870000Y-72700000D01*
D16*
%TO.C,U4*%
X147975000Y-74174998D02*
X148650003Y-74174998D01*
X147975003Y-74609999D02*
X147975003Y-74174998D01*
%TO.C,U6*%
X151925000Y-96075000D02*
X151249997Y-96075000D01*
X151924997Y-95639999D02*
X151924997Y-96075000D01*
%TO.C,U5*%
X149390001Y-82525003D02*
X149825002Y-82525003D01*
X149825002Y-82525000D02*
X149825002Y-83200003D01*
%TO.C,U3*%
X168217200Y-87978100D02*
X172382800Y-87978100D01*
X172382800Y-82821900D02*
X168217200Y-82821900D01*
%TO.C,U7*%
X160700000Y-100200002D02*
X157900000Y-100200002D01*
X160700000Y-106900001D02*
X157900000Y-106900001D01*
X157900000Y-100200002D02*
X157900000Y-106900001D01*
X160700000Y-100200002D02*
X160700000Y-106900001D01*
X162325000Y-106900001D02*
G75*
G03*
X162325000Y-106900001I-125001J0D01*
G01*
D13*
%TO.C,C1*%
X181634420Y-77390000D02*
X181915580Y-77390000D01*
X181634420Y-78410000D02*
X181915580Y-78410000D01*
%TO.C,C2*%
X179490000Y-80459420D02*
X179490000Y-80740580D01*
X180510000Y-80459420D02*
X180510000Y-80740580D01*
%TO.C,C3*%
X174690000Y-80459420D02*
X174690000Y-80740580D01*
X175710000Y-80459420D02*
X175710000Y-80740580D01*
%TO.C,C4*%
X162240580Y-77010000D02*
X161959420Y-77010000D01*
X162240580Y-75990000D02*
X161959420Y-75990000D01*
%TO.C,C5*%
X173190580Y-90140000D02*
X172909420Y-90140000D01*
X173190580Y-91160000D02*
X172909420Y-91160000D01*
%TO.C,C6*%
X150290000Y-89359420D02*
X150290000Y-89640580D01*
X151310000Y-89359420D02*
X151310000Y-89640580D01*
%TO.C,C7*%
X165659420Y-79390000D02*
X165940580Y-79390000D01*
X165659420Y-80410000D02*
X165940580Y-80410000D01*
%TO.C,C8*%
X164740000Y-93159420D02*
X164740000Y-93440580D01*
X165760000Y-93159420D02*
X165760000Y-93440580D01*
%TO.C,C9*%
X164160000Y-93159420D02*
X164160000Y-93440580D01*
X163140000Y-93159420D02*
X163140000Y-93440580D01*
%TO.C,C10*%
X167740580Y-81290000D02*
X167459420Y-81290000D01*
X167740580Y-82310000D02*
X167459420Y-82310000D01*
%TO.C,C11*%
X146390580Y-73090000D02*
X146109420Y-73090000D01*
X146390580Y-74110000D02*
X146109420Y-74110000D01*
%TO.C,C12*%
X150440000Y-81240580D02*
X150440000Y-80959420D01*
X151460000Y-81240580D02*
X151460000Y-80959420D01*
%TO.C,C13*%
X146460000Y-94540580D02*
X146460000Y-94259420D01*
X145440000Y-94540580D02*
X145440000Y-94259420D01*
%TO.C,C14*%
X164290000Y-105009420D02*
X164290000Y-105290580D01*
X165310000Y-105009420D02*
X165310000Y-105290580D01*
%TO.C,C15*%
X164290000Y-102190580D02*
X164290000Y-101909420D01*
X165310000Y-102190580D02*
X165310000Y-101909420D01*
%TO.C,C16*%
X178740580Y-96910000D02*
X178459420Y-96910000D01*
X178740580Y-95890000D02*
X178459420Y-95890000D01*
%TO.C,C17*%
X166910000Y-103790580D02*
X166910000Y-103509420D01*
X165890000Y-103790580D02*
X165890000Y-103509420D01*
%TO.C,C18*%
X181559420Y-95890000D02*
X181840580Y-95890000D01*
X181559420Y-96910000D02*
X181840580Y-96910000D01*
%TO.C,C19*%
X123040580Y-102890000D02*
X122759420Y-102890000D01*
X123040580Y-103910000D02*
X122759420Y-103910000D01*
%TO.C,C20*%
X171859420Y-94740000D02*
X172140580Y-94740000D01*
X171859420Y-95760000D02*
X172140580Y-95760000D01*
%TO.C,C21*%
X123140580Y-90740000D02*
X122859420Y-90740000D01*
X123140580Y-91760000D02*
X122859420Y-91760000D01*
%TO.C,C22*%
X123140580Y-79760000D02*
X122859420Y-79760000D01*
X123140580Y-78740000D02*
X122859420Y-78740000D01*
%TO.C,C23*%
X169090580Y-94740000D02*
X168809420Y-94740000D01*
X169090580Y-95760000D02*
X168809420Y-95760000D01*
%TO.C,C24*%
X133459420Y-72310000D02*
X133740580Y-72310000D01*
X133459420Y-71290000D02*
X133740580Y-71290000D01*
%TO.C,C25*%
X120638748Y-106035000D02*
X121161252Y-106035000D01*
X120638748Y-104565000D02*
X121161252Y-104565000D01*
%TO.C,C26*%
X120638748Y-94235000D02*
X121161252Y-94235000D01*
X120638748Y-92765000D02*
X121161252Y-92765000D01*
%TO.C,C28*%
X153635001Y-99159999D02*
X150885001Y-99159999D01*
X145115001Y-99159999D02*
X147865001Y-99159999D01*
X145115001Y-106615562D02*
X145115001Y-99159999D01*
X153635001Y-106615562D02*
X153635001Y-99159999D01*
X152570564Y-107679999D02*
X150885001Y-107679999D01*
X146179438Y-107679999D02*
X147865001Y-107679999D01*
X146179438Y-107679999D02*
X145115001Y-106615562D01*
X152570564Y-107679999D02*
X153635001Y-106615562D01*
X146865001Y-108919999D02*
X146865001Y-107919999D01*
X146365001Y-108419999D02*
X147365001Y-108419999D01*
%TO.C,C29*%
X137390000Y-108400000D02*
X138390000Y-108400000D01*
X137890000Y-108900000D02*
X137890000Y-107900000D01*
X143595563Y-107660000D02*
X144660000Y-106595563D01*
X137204437Y-107660000D02*
X136140000Y-106595563D01*
X137204437Y-107660000D02*
X138890000Y-107660000D01*
X143595563Y-107660000D02*
X141910000Y-107660000D01*
X144660000Y-106595563D02*
X144660000Y-99140000D01*
X136140000Y-106595563D02*
X136140000Y-99140000D01*
X136140000Y-99140000D02*
X138890000Y-99140000D01*
X144660000Y-99140000D02*
X141910000Y-99140000D01*
%TO.C,D1*%
X180315000Y-89115000D02*
X180315000Y-91400000D01*
X181785000Y-89115000D02*
X180315000Y-89115000D01*
X181785000Y-91400000D02*
X181785000Y-89115000D01*
%TO.C,D3*%
X176050000Y-103100000D02*
X176050000Y-105100000D01*
X176050000Y-105100000D02*
X179950000Y-105100000D01*
X176050000Y-103100000D02*
X179950000Y-103100000D01*
%TO.C,D4*%
X137785000Y-79435000D02*
X137785000Y-73750000D01*
X134615000Y-79435000D02*
X137785000Y-79435000D01*
X134615000Y-73750000D02*
X134615000Y-79435000D01*
%TO.C,D6*%
X123950000Y-99085000D02*
X129635000Y-99085000D01*
X129635000Y-99085000D02*
X129635000Y-95915000D01*
X129635000Y-95915000D02*
X123950000Y-95915000D01*
%TO.C,D7*%
X138015000Y-73750000D02*
X138015000Y-79435000D01*
X138015000Y-79435000D02*
X141185000Y-79435000D01*
X141185000Y-79435000D02*
X141185000Y-73750000D01*
%TO.C,D8*%
X129150000Y-86865000D02*
X123465000Y-86865000D01*
X123465000Y-86865000D02*
X123465000Y-90035000D01*
X123465000Y-90035000D02*
X129150000Y-90035000D01*
%TO.C,D9*%
X129835000Y-83515000D02*
X124150000Y-83515000D01*
X129835000Y-86685000D02*
X129835000Y-83515000D01*
X124150000Y-86685000D02*
X129835000Y-86685000D01*
%TO.C,D10*%
X134385000Y-79435000D02*
X134385000Y-73750000D01*
X131215000Y-79435000D02*
X134385000Y-79435000D01*
X131215000Y-73750000D02*
X131215000Y-79435000D01*
%TO.C,D11*%
X129200000Y-74965000D02*
X123515000Y-74965000D01*
X123515000Y-74965000D02*
X123515000Y-78135000D01*
X123515000Y-78135000D02*
X129200000Y-78135000D01*
%TO.C,D12*%
X129835000Y-71615000D02*
X124150000Y-71615000D01*
X129835000Y-74785000D02*
X129835000Y-71615000D01*
X124150000Y-74785000D02*
X129835000Y-74785000D01*
%TO.C,FB1*%
X181190000Y-82899622D02*
X181190000Y-82100378D01*
X182310000Y-82899622D02*
X182310000Y-82100378D01*
%TO.C,J1*%
X173490000Y-75860000D02*
X173870000Y-75860000D01*
X173490000Y-71810000D02*
X173490000Y-71550000D01*
X173490000Y-75860000D02*
X173490000Y-74090000D01*
X181110000Y-75860000D02*
X180730000Y-75860000D01*
X181110000Y-74090000D02*
X181110000Y-75860000D01*
X181110000Y-71550000D02*
X181110000Y-71810000D01*
%TO.C,J2*%
X165250000Y-98030000D02*
X165250000Y-95370000D01*
X157570000Y-98030000D02*
X165250000Y-98030000D01*
X157570000Y-95370000D02*
X165250000Y-95370000D01*
X157570000Y-98030000D02*
X157570000Y-95370000D01*
X156300000Y-98030000D02*
X154970000Y-98030000D01*
X154970000Y-98030000D02*
X154970000Y-96700000D01*
%TO.C,L1*%
X177850000Y-97450000D02*
X182950000Y-97450000D01*
X177850000Y-102550000D02*
X182950000Y-102550000D01*
%TO.C,Q1*%
X112440000Y-105635000D02*
X112440000Y-105935000D01*
X112440000Y-100865000D02*
X112440000Y-100565000D01*
X118560000Y-100915000D02*
X118560000Y-100565000D01*
X112440000Y-105935000D02*
X118560000Y-105935000D01*
X112440000Y-100565000D02*
X118560000Y-100565000D01*
%TO.C,Q2*%
X112440000Y-99635000D02*
X112440000Y-99935000D01*
X112440000Y-94865000D02*
X112440000Y-94565000D01*
X118560000Y-94915000D02*
X118560000Y-94565000D01*
X112440000Y-99935000D02*
X118560000Y-99935000D01*
X112440000Y-94565000D02*
X118560000Y-94565000D01*
%TO.C,Q3*%
X112440000Y-93585000D02*
X112440000Y-93885000D01*
X112440000Y-88815000D02*
X112440000Y-88515000D01*
X118560000Y-88865000D02*
X118560000Y-88515000D01*
X112440000Y-93885000D02*
X118560000Y-93885000D01*
X112440000Y-88515000D02*
X118560000Y-88515000D01*
%TO.C,Q4*%
X112440000Y-82565000D02*
X118560000Y-82565000D01*
X112440000Y-87935000D02*
X118560000Y-87935000D01*
X118560000Y-82915000D02*
X118560000Y-82565000D01*
X112440000Y-82865000D02*
X112440000Y-82565000D01*
X112440000Y-87635000D02*
X112440000Y-87935000D01*
%TO.C,Q5*%
X112440000Y-81585000D02*
X112440000Y-81885000D01*
X112440000Y-76815000D02*
X112440000Y-76515000D01*
X118560000Y-76865000D02*
X118560000Y-76515000D01*
X112440000Y-81885000D02*
X118560000Y-81885000D01*
X112440000Y-76515000D02*
X118560000Y-76515000D01*
%TO.C,Q6*%
X112440000Y-70515000D02*
X118560000Y-70515000D01*
X112440000Y-75885000D02*
X118560000Y-75885000D01*
X118560000Y-70865000D02*
X118560000Y-70515000D01*
X112440000Y-70815000D02*
X112440000Y-70515000D01*
X112440000Y-75585000D02*
X112440000Y-75885000D01*
%TO.C,R1*%
X178922500Y-80362742D02*
X178922500Y-80837258D01*
X177877500Y-80362742D02*
X177877500Y-80837258D01*
%TO.C,R2*%
X177322500Y-80837258D02*
X177322500Y-80362742D01*
X176277500Y-80837258D02*
X176277500Y-80362742D01*
%TO.C,R3*%
X182127500Y-90362742D02*
X182127500Y-90837258D01*
X183172500Y-90362742D02*
X183172500Y-90837258D01*
%TO.C,R5*%
X161862742Y-75422500D02*
X162337258Y-75422500D01*
X161862742Y-74377500D02*
X162337258Y-74377500D01*
%TO.C,R6*%
X167577500Y-90337258D02*
X167577500Y-89862742D01*
X168622500Y-90337258D02*
X168622500Y-89862742D01*
%TO.C,R7*%
X175537258Y-98022500D02*
X175062742Y-98022500D01*
X175537258Y-96977500D02*
X175062742Y-96977500D01*
%TO.C,R8*%
X175062742Y-95377500D02*
X175537258Y-95377500D01*
X175062742Y-96422500D02*
X175537258Y-96422500D01*
%TO.C,R9*%
X157937258Y-92777500D02*
X157462742Y-92777500D01*
X157937258Y-93822500D02*
X157462742Y-93822500D01*
%TO.C,R10*%
X144322500Y-95837258D02*
X144322500Y-95362742D01*
X143277500Y-95837258D02*
X143277500Y-95362742D01*
%TO.C,R11*%
X120937258Y-88777500D02*
X120462742Y-88777500D01*
X120937258Y-89822500D02*
X120462742Y-89822500D01*
%TO.C,R12*%
X120937258Y-82827500D02*
X120462742Y-82827500D01*
X120937258Y-83872500D02*
X120462742Y-83872500D01*
%TO.C,R13*%
X120937258Y-70777500D02*
X120462742Y-70777500D01*
X120937258Y-71822500D02*
X120462742Y-71822500D01*
%TO.C,R14*%
X120937258Y-77822500D02*
X120462742Y-77822500D01*
X120937258Y-76777500D02*
X120462742Y-76777500D01*
%TO.C,R15*%
X120937258Y-95872500D02*
X120462742Y-95872500D01*
X120937258Y-94827500D02*
X120462742Y-94827500D01*
%TO.C,R16*%
X120937258Y-100827500D02*
X120462742Y-100827500D01*
X120937258Y-101872500D02*
X120462742Y-101872500D01*
%TO.C,R17*%
X120462742Y-96377500D02*
X120937258Y-96377500D01*
X120462742Y-97422500D02*
X120937258Y-97422500D01*
%TO.C,R18*%
X120462742Y-85422500D02*
X120937258Y-85422500D01*
X120462742Y-84377500D02*
X120937258Y-84377500D01*
%TO.C,R19*%
X120462742Y-73372500D02*
X120937258Y-73372500D01*
X120462742Y-72327500D02*
X120937258Y-72327500D01*
%TO.C,SW1*%
X169000000Y-76400000D02*
X169000000Y-76300000D01*
X164600000Y-77900000D02*
X169000000Y-77900000D01*
X169000000Y-74800000D02*
X164600000Y-74800000D01*
X164600000Y-76400000D02*
X164600000Y-76300000D01*
D10*
%TO.C,U1*%
X179800000Y-87400000D02*
X180400000Y-87400000D01*
X180400000Y-87400000D02*
X180400000Y-86700000D01*
X176200000Y-86700000D02*
X176200000Y-87400000D01*
X176200000Y-87400000D02*
X176800000Y-87400000D01*
X179800000Y-83200000D02*
X180400000Y-83200000D01*
X180400000Y-83200000D02*
X180400000Y-83900000D01*
X177000000Y-83200000D02*
X176700000Y-83200000D01*
X176700000Y-83200000D02*
X176200000Y-83700000D01*
X176200000Y-83700000D02*
X176200000Y-84000000D01*
X176200000Y-84000000D02*
X176000000Y-84000000D01*
D13*
%TO.C,U2*%
X153390000Y-89760000D02*
X153390000Y-90710000D01*
X153390000Y-90710000D02*
X154340000Y-90710000D01*
X153390000Y-81440000D02*
X153390000Y-80490000D01*
X153390000Y-80490000D02*
X154340000Y-80490000D01*
X163610000Y-89760000D02*
X163610000Y-90710000D01*
X163610000Y-90710000D02*
X162660000Y-90710000D01*
X163610000Y-81440000D02*
X163610000Y-80490000D01*
X163610000Y-80490000D02*
X162660000Y-80490000D01*
X162660000Y-80490000D02*
X162660000Y-79150000D01*
%TO.C,U8*%
X173890000Y-100737500D02*
X173890000Y-101537500D01*
X173890000Y-100737500D02*
X173890000Y-99937500D01*
X177010000Y-100737500D02*
X177010000Y-101537500D01*
X177010000Y-100737500D02*
X177010000Y-98937500D01*
%TO.C,U10*%
X170450000Y-96290000D02*
X169650000Y-96290000D01*
X170450000Y-96290000D02*
X171250000Y-96290000D01*
X170450000Y-99410000D02*
X169650000Y-99410000D01*
X170450000Y-99410000D02*
X172250000Y-99410000D01*
%TO.C,R22*%
X172112742Y-80827500D02*
X172587258Y-80827500D01*
X172112742Y-81872500D02*
X172587258Y-81872500D01*
%TO.C,R23*%
X175472500Y-88337258D02*
X175472500Y-87862742D01*
X174427500Y-88337258D02*
X174427500Y-87862742D01*
%TO.C,R24*%
X166027500Y-90337258D02*
X166027500Y-89862742D01*
X167072500Y-90337258D02*
X167072500Y-89862742D01*
%TO.C,R25*%
X167412742Y-93522500D02*
X167887258Y-93522500D01*
X167412742Y-92477500D02*
X167887258Y-92477500D01*
%TO.C,U11*%
X174302500Y-83660000D02*
X175327500Y-83660000D01*
X175327500Y-85360000D02*
X174552500Y-85360000D01*
%TO.C,R21*%
D10*
X144228571Y-76126190D02*
X144061904Y-75888095D01*
X143942857Y-76126190D02*
X143942857Y-75626190D01*
X144133333Y-75626190D01*
X144180952Y-75650000D01*
X144204761Y-75673809D01*
X144228571Y-75721428D01*
X144228571Y-75792857D01*
X144204761Y-75840476D01*
X144180952Y-75864285D01*
X144133333Y-75888095D01*
X143942857Y-75888095D01*
X144419047Y-75673809D02*
X144442857Y-75650000D01*
X144490476Y-75626190D01*
X144609523Y-75626190D01*
X144657142Y-75650000D01*
X144680952Y-75673809D01*
X144704761Y-75721428D01*
X144704761Y-75769047D01*
X144680952Y-75840476D01*
X144395238Y-76126190D01*
X144704761Y-76126190D01*
X145180952Y-76126190D02*
X144895238Y-76126190D01*
X145038095Y-76126190D02*
X145038095Y-75626190D01*
X144990476Y-75697619D01*
X144942857Y-75745238D01*
X144895238Y-75769047D01*
%TO.C,R20*%
X134528571Y-97476190D02*
X134361904Y-97238095D01*
X134242857Y-97476190D02*
X134242857Y-96976190D01*
X134433333Y-96976190D01*
X134480952Y-97000000D01*
X134504761Y-97023809D01*
X134528571Y-97071428D01*
X134528571Y-97142857D01*
X134504761Y-97190476D01*
X134480952Y-97214285D01*
X134433333Y-97238095D01*
X134242857Y-97238095D01*
X134719047Y-97023809D02*
X134742857Y-97000000D01*
X134790476Y-96976190D01*
X134909523Y-96976190D01*
X134957142Y-97000000D01*
X134980952Y-97023809D01*
X135004761Y-97071428D01*
X135004761Y-97119047D01*
X134980952Y-97190476D01*
X134695238Y-97476190D01*
X135004761Y-97476190D01*
X135314285Y-96976190D02*
X135361904Y-96976190D01*
X135409523Y-97000000D01*
X135433333Y-97023809D01*
X135457142Y-97071428D01*
X135480952Y-97166666D01*
X135480952Y-97285714D01*
X135457142Y-97380952D01*
X135433333Y-97428571D01*
X135409523Y-97452380D01*
X135361904Y-97476190D01*
X135314285Y-97476190D01*
X135266666Y-97452380D01*
X135242857Y-97428571D01*
X135219047Y-97380952D01*
X135195238Y-97285714D01*
X135195238Y-97166666D01*
X135219047Y-97071428D01*
X135242857Y-97023809D01*
X135266666Y-97000000D01*
X135314285Y-96976190D01*
%TO.C,U9*%
X135819047Y-94676190D02*
X135819047Y-95080952D01*
X135842857Y-95128571D01*
X135866666Y-95152380D01*
X135914285Y-95176190D01*
X136009523Y-95176190D01*
X136057142Y-95152380D01*
X136080952Y-95128571D01*
X136104761Y-95080952D01*
X136104761Y-94676190D01*
X136366666Y-95176190D02*
X136461904Y-95176190D01*
X136509523Y-95152380D01*
X136533333Y-95128571D01*
X136580952Y-95057142D01*
X136604761Y-94961904D01*
X136604761Y-94771428D01*
X136580952Y-94723809D01*
X136557142Y-94700000D01*
X136509523Y-94676190D01*
X136414285Y-94676190D01*
X136366666Y-94700000D01*
X136342857Y-94723809D01*
X136319047Y-94771428D01*
X136319047Y-94890476D01*
X136342857Y-94938095D01*
X136366666Y-94961904D01*
X136414285Y-94985714D01*
X136509523Y-94985714D01*
X136557142Y-94961904D01*
X136580952Y-94938095D01*
X136604761Y-94890476D01*
%TO.C,C27*%
X123028571Y-81728571D02*
X123004761Y-81752380D01*
X122933333Y-81776190D01*
X122885714Y-81776190D01*
X122814285Y-81752380D01*
X122766666Y-81704761D01*
X122742857Y-81657142D01*
X122719047Y-81561904D01*
X122719047Y-81490476D01*
X122742857Y-81395238D01*
X122766666Y-81347619D01*
X122814285Y-81300000D01*
X122885714Y-81276190D01*
X122933333Y-81276190D01*
X123004761Y-81300000D01*
X123028571Y-81323809D01*
X123219047Y-81323809D02*
X123242857Y-81300000D01*
X123290476Y-81276190D01*
X123409523Y-81276190D01*
X123457142Y-81300000D01*
X123480952Y-81323809D01*
X123504761Y-81371428D01*
X123504761Y-81419047D01*
X123480952Y-81490476D01*
X123195238Y-81776190D01*
X123504761Y-81776190D01*
X123671428Y-81276190D02*
X124004761Y-81276190D01*
X123790476Y-81776190D01*
%TO.C,D5*%
X126080952Y-101026190D02*
X126080952Y-100526190D01*
X126200000Y-100526190D01*
X126271428Y-100550000D01*
X126319047Y-100597619D01*
X126342857Y-100645238D01*
X126366666Y-100740476D01*
X126366666Y-100811904D01*
X126342857Y-100907142D01*
X126319047Y-100954761D01*
X126271428Y-101002380D01*
X126200000Y-101026190D01*
X126080952Y-101026190D01*
X126819047Y-100526190D02*
X126580952Y-100526190D01*
X126557142Y-100764285D01*
X126580952Y-100740476D01*
X126628571Y-100716666D01*
X126747619Y-100716666D01*
X126795238Y-100740476D01*
X126819047Y-100764285D01*
X126842857Y-100811904D01*
X126842857Y-100930952D01*
X126819047Y-100978571D01*
X126795238Y-101002380D01*
X126747619Y-101026190D01*
X126628571Y-101026190D01*
X126580952Y-101002380D01*
X126557142Y-100978571D01*
%TO.C,D2*%
X178530952Y-88876190D02*
X178530952Y-88376190D01*
X178650000Y-88376190D01*
X178721428Y-88400000D01*
X178769047Y-88447619D01*
X178792857Y-88495238D01*
X178816666Y-88590476D01*
X178816666Y-88661904D01*
X178792857Y-88757142D01*
X178769047Y-88804761D01*
X178721428Y-88852380D01*
X178650000Y-88876190D01*
X178530952Y-88876190D01*
X179007142Y-88423809D02*
X179030952Y-88400000D01*
X179078571Y-88376190D01*
X179197619Y-88376190D01*
X179245238Y-88400000D01*
X179269047Y-88423809D01*
X179292857Y-88471428D01*
X179292857Y-88519047D01*
X179269047Y-88590476D01*
X178983333Y-88876190D01*
X179292857Y-88876190D01*
%TO.C,R4*%
X175141666Y-90851190D02*
X174975000Y-90613095D01*
X174855952Y-90851190D02*
X174855952Y-90351190D01*
X175046428Y-90351190D01*
X175094047Y-90375000D01*
X175117857Y-90398809D01*
X175141666Y-90446428D01*
X175141666Y-90517857D01*
X175117857Y-90565476D01*
X175094047Y-90589285D01*
X175046428Y-90613095D01*
X174855952Y-90613095D01*
X175570238Y-90517857D02*
X175570238Y-90851190D01*
X175451190Y-90327380D02*
X175332142Y-90684523D01*
X175641666Y-90684523D01*
%TO.C,U4*%
X152469047Y-74076190D02*
X152469047Y-74480952D01*
X152492857Y-74528571D01*
X152516666Y-74552380D01*
X152564285Y-74576190D01*
X152659523Y-74576190D01*
X152707142Y-74552380D01*
X152730952Y-74528571D01*
X152754761Y-74480952D01*
X152754761Y-74076190D01*
X153207142Y-74242857D02*
X153207142Y-74576190D01*
X153088095Y-74052380D02*
X152969047Y-74409523D01*
X153278571Y-74409523D01*
%TO.C,U6*%
X152319047Y-93126190D02*
X152319047Y-93530952D01*
X152342857Y-93578571D01*
X152366666Y-93602380D01*
X152414285Y-93626190D01*
X152509523Y-93626190D01*
X152557142Y-93602380D01*
X152580952Y-93578571D01*
X152604761Y-93530952D01*
X152604761Y-93126190D01*
X153057142Y-93126190D02*
X152961904Y-93126190D01*
X152914285Y-93150000D01*
X152890476Y-93173809D01*
X152842857Y-93245238D01*
X152819047Y-93340476D01*
X152819047Y-93530952D01*
X152842857Y-93578571D01*
X152866666Y-93602380D01*
X152914285Y-93626190D01*
X153009523Y-93626190D01*
X153057142Y-93602380D01*
X153080952Y-93578571D01*
X153104761Y-93530952D01*
X153104761Y-93411904D01*
X153080952Y-93364285D01*
X153057142Y-93340476D01*
X153009523Y-93316666D01*
X152914285Y-93316666D01*
X152866666Y-93340476D01*
X152842857Y-93364285D01*
X152819047Y-93411904D01*
%TO.C,U5*%
X144569047Y-82526190D02*
X144569047Y-82930952D01*
X144592857Y-82978571D01*
X144616666Y-83002380D01*
X144664285Y-83026190D01*
X144759523Y-83026190D01*
X144807142Y-83002380D01*
X144830952Y-82978571D01*
X144854761Y-82930952D01*
X144854761Y-82526190D01*
X145330952Y-82526190D02*
X145092857Y-82526190D01*
X145069047Y-82764285D01*
X145092857Y-82740476D01*
X145140476Y-82716666D01*
X145259523Y-82716666D01*
X145307142Y-82740476D01*
X145330952Y-82764285D01*
X145354761Y-82811904D01*
X145354761Y-82930952D01*
X145330952Y-82978571D01*
X145307142Y-83002380D01*
X145259523Y-83026190D01*
X145140476Y-83026190D01*
X145092857Y-83002380D01*
X145069047Y-82978571D01*
%TO.C,U3*%
X169019047Y-88326190D02*
X169019047Y-88730952D01*
X169042857Y-88778571D01*
X169066666Y-88802380D01*
X169114285Y-88826190D01*
X169209523Y-88826190D01*
X169257142Y-88802380D01*
X169280952Y-88778571D01*
X169304761Y-88730952D01*
X169304761Y-88326190D01*
X169495238Y-88326190D02*
X169804761Y-88326190D01*
X169638095Y-88516666D01*
X169709523Y-88516666D01*
X169757142Y-88540476D01*
X169780952Y-88564285D01*
X169804761Y-88611904D01*
X169804761Y-88730952D01*
X169780952Y-88778571D01*
X169757142Y-88802380D01*
X169709523Y-88826190D01*
X169566666Y-88826190D01*
X169519047Y-88802380D01*
X169495238Y-88778571D01*
%TO.C,U7*%
X158919047Y-105776190D02*
X158919047Y-106180952D01*
X158942857Y-106228571D01*
X158966666Y-106252380D01*
X159014285Y-106276190D01*
X159109523Y-106276190D01*
X159157142Y-106252380D01*
X159180952Y-106228571D01*
X159204761Y-106180952D01*
X159204761Y-105776190D01*
X159395238Y-105776190D02*
X159728571Y-105776190D01*
X159514285Y-106276190D01*
%TO.C,C1*%
X181716666Y-79228571D02*
X181692857Y-79252380D01*
X181621428Y-79276190D01*
X181573809Y-79276190D01*
X181502380Y-79252380D01*
X181454761Y-79204761D01*
X181430952Y-79157142D01*
X181407142Y-79061904D01*
X181407142Y-78990476D01*
X181430952Y-78895238D01*
X181454761Y-78847619D01*
X181502380Y-78800000D01*
X181573809Y-78776190D01*
X181621428Y-78776190D01*
X181692857Y-78800000D01*
X181716666Y-78823809D01*
X182192857Y-79276190D02*
X181907142Y-79276190D01*
X182050000Y-79276190D02*
X182050000Y-78776190D01*
X182002380Y-78847619D01*
X181954761Y-78895238D01*
X181907142Y-78919047D01*
%TO.C,C2*%
X179616666Y-78928571D02*
X179592857Y-78952380D01*
X179521428Y-78976190D01*
X179473809Y-78976190D01*
X179402380Y-78952380D01*
X179354761Y-78904761D01*
X179330952Y-78857142D01*
X179307142Y-78761904D01*
X179307142Y-78690476D01*
X179330952Y-78595238D01*
X179354761Y-78547619D01*
X179402380Y-78500000D01*
X179473809Y-78476190D01*
X179521428Y-78476190D01*
X179592857Y-78500000D01*
X179616666Y-78523809D01*
X179807142Y-78523809D02*
X179830952Y-78500000D01*
X179878571Y-78476190D01*
X179997619Y-78476190D01*
X180045238Y-78500000D01*
X180069047Y-78523809D01*
X180092857Y-78571428D01*
X180092857Y-78619047D01*
X180069047Y-78690476D01*
X179783333Y-78976190D01*
X180092857Y-78976190D01*
%TO.C,C3*%
X175116666Y-78928571D02*
X175092857Y-78952380D01*
X175021428Y-78976190D01*
X174973809Y-78976190D01*
X174902380Y-78952380D01*
X174854761Y-78904761D01*
X174830952Y-78857142D01*
X174807142Y-78761904D01*
X174807142Y-78690476D01*
X174830952Y-78595238D01*
X174854761Y-78547619D01*
X174902380Y-78500000D01*
X174973809Y-78476190D01*
X175021428Y-78476190D01*
X175092857Y-78500000D01*
X175116666Y-78523809D01*
X175283333Y-78476190D02*
X175592857Y-78476190D01*
X175426190Y-78666666D01*
X175497619Y-78666666D01*
X175545238Y-78690476D01*
X175569047Y-78714285D01*
X175592857Y-78761904D01*
X175592857Y-78880952D01*
X175569047Y-78928571D01*
X175545238Y-78952380D01*
X175497619Y-78976190D01*
X175354761Y-78976190D01*
X175307142Y-78952380D01*
X175283333Y-78928571D01*
%TO.C,C4*%
X159866666Y-76678571D02*
X159842857Y-76702380D01*
X159771428Y-76726190D01*
X159723809Y-76726190D01*
X159652380Y-76702380D01*
X159604761Y-76654761D01*
X159580952Y-76607142D01*
X159557142Y-76511904D01*
X159557142Y-76440476D01*
X159580952Y-76345238D01*
X159604761Y-76297619D01*
X159652380Y-76250000D01*
X159723809Y-76226190D01*
X159771428Y-76226190D01*
X159842857Y-76250000D01*
X159866666Y-76273809D01*
X160295238Y-76392857D02*
X160295238Y-76726190D01*
X160176190Y-76202380D02*
X160057142Y-76559523D01*
X160366666Y-76559523D01*
%TO.C,C5*%
X171816666Y-89678571D02*
X171792857Y-89702380D01*
X171721428Y-89726190D01*
X171673809Y-89726190D01*
X171602380Y-89702380D01*
X171554761Y-89654761D01*
X171530952Y-89607142D01*
X171507142Y-89511904D01*
X171507142Y-89440476D01*
X171530952Y-89345238D01*
X171554761Y-89297619D01*
X171602380Y-89250000D01*
X171673809Y-89226190D01*
X171721428Y-89226190D01*
X171792857Y-89250000D01*
X171816666Y-89273809D01*
X172269047Y-89226190D02*
X172030952Y-89226190D01*
X172007142Y-89464285D01*
X172030952Y-89440476D01*
X172078571Y-89416666D01*
X172197619Y-89416666D01*
X172245238Y-89440476D01*
X172269047Y-89464285D01*
X172292857Y-89511904D01*
X172292857Y-89630952D01*
X172269047Y-89678571D01*
X172245238Y-89702380D01*
X172197619Y-89726190D01*
X172078571Y-89726190D01*
X172030952Y-89702380D01*
X172007142Y-89678571D01*
%TO.C,C6*%
X149416666Y-89678571D02*
X149392857Y-89702380D01*
X149321428Y-89726190D01*
X149273809Y-89726190D01*
X149202380Y-89702380D01*
X149154761Y-89654761D01*
X149130952Y-89607142D01*
X149107142Y-89511904D01*
X149107142Y-89440476D01*
X149130952Y-89345238D01*
X149154761Y-89297619D01*
X149202380Y-89250000D01*
X149273809Y-89226190D01*
X149321428Y-89226190D01*
X149392857Y-89250000D01*
X149416666Y-89273809D01*
X149845238Y-89226190D02*
X149750000Y-89226190D01*
X149702380Y-89250000D01*
X149678571Y-89273809D01*
X149630952Y-89345238D01*
X149607142Y-89440476D01*
X149607142Y-89630952D01*
X149630952Y-89678571D01*
X149654761Y-89702380D01*
X149702380Y-89726190D01*
X149797619Y-89726190D01*
X149845238Y-89702380D01*
X149869047Y-89678571D01*
X149892857Y-89630952D01*
X149892857Y-89511904D01*
X149869047Y-89464285D01*
X149845238Y-89440476D01*
X149797619Y-89416666D01*
X149702380Y-89416666D01*
X149654761Y-89440476D01*
X149630952Y-89464285D01*
X149607142Y-89511904D01*
%TO.C,C7*%
X165716666Y-79028571D02*
X165692857Y-79052380D01*
X165621428Y-79076190D01*
X165573809Y-79076190D01*
X165502380Y-79052380D01*
X165454761Y-79004761D01*
X165430952Y-78957142D01*
X165407142Y-78861904D01*
X165407142Y-78790476D01*
X165430952Y-78695238D01*
X165454761Y-78647619D01*
X165502380Y-78600000D01*
X165573809Y-78576190D01*
X165621428Y-78576190D01*
X165692857Y-78600000D01*
X165716666Y-78623809D01*
X165883333Y-78576190D02*
X166216666Y-78576190D01*
X166002380Y-79076190D01*
%TO.C,C8*%
X165166666Y-91628571D02*
X165142857Y-91652380D01*
X165071428Y-91676190D01*
X165023809Y-91676190D01*
X164952380Y-91652380D01*
X164904761Y-91604761D01*
X164880952Y-91557142D01*
X164857142Y-91461904D01*
X164857142Y-91390476D01*
X164880952Y-91295238D01*
X164904761Y-91247619D01*
X164952380Y-91200000D01*
X165023809Y-91176190D01*
X165071428Y-91176190D01*
X165142857Y-91200000D01*
X165166666Y-91223809D01*
X165452380Y-91390476D02*
X165404761Y-91366666D01*
X165380952Y-91342857D01*
X165357142Y-91295238D01*
X165357142Y-91271428D01*
X165380952Y-91223809D01*
X165404761Y-91200000D01*
X165452380Y-91176190D01*
X165547619Y-91176190D01*
X165595238Y-91200000D01*
X165619047Y-91223809D01*
X165642857Y-91271428D01*
X165642857Y-91295238D01*
X165619047Y-91342857D01*
X165595238Y-91366666D01*
X165547619Y-91390476D01*
X165452380Y-91390476D01*
X165404761Y-91414285D01*
X165380952Y-91438095D01*
X165357142Y-91485714D01*
X165357142Y-91580952D01*
X165380952Y-91628571D01*
X165404761Y-91652380D01*
X165452380Y-91676190D01*
X165547619Y-91676190D01*
X165595238Y-91652380D01*
X165619047Y-91628571D01*
X165642857Y-91580952D01*
X165642857Y-91485714D01*
X165619047Y-91438095D01*
X165595238Y-91414285D01*
X165547619Y-91390476D01*
%TO.C,C9*%
X163566666Y-91628571D02*
X163542857Y-91652380D01*
X163471428Y-91676190D01*
X163423809Y-91676190D01*
X163352380Y-91652380D01*
X163304761Y-91604761D01*
X163280952Y-91557142D01*
X163257142Y-91461904D01*
X163257142Y-91390476D01*
X163280952Y-91295238D01*
X163304761Y-91247619D01*
X163352380Y-91200000D01*
X163423809Y-91176190D01*
X163471428Y-91176190D01*
X163542857Y-91200000D01*
X163566666Y-91223809D01*
X163804761Y-91676190D02*
X163900000Y-91676190D01*
X163947619Y-91652380D01*
X163971428Y-91628571D01*
X164019047Y-91557142D01*
X164042857Y-91461904D01*
X164042857Y-91271428D01*
X164019047Y-91223809D01*
X163995238Y-91200000D01*
X163947619Y-91176190D01*
X163852380Y-91176190D01*
X163804761Y-91200000D01*
X163780952Y-91223809D01*
X163757142Y-91271428D01*
X163757142Y-91390476D01*
X163780952Y-91438095D01*
X163804761Y-91461904D01*
X163852380Y-91485714D01*
X163947619Y-91485714D01*
X163995238Y-91461904D01*
X164019047Y-91438095D01*
X164042857Y-91390476D01*
%TO.C,C10*%
X167028571Y-80978571D02*
X167004761Y-81002380D01*
X166933333Y-81026190D01*
X166885714Y-81026190D01*
X166814285Y-81002380D01*
X166766666Y-80954761D01*
X166742857Y-80907142D01*
X166719047Y-80811904D01*
X166719047Y-80740476D01*
X166742857Y-80645238D01*
X166766666Y-80597619D01*
X166814285Y-80550000D01*
X166885714Y-80526190D01*
X166933333Y-80526190D01*
X167004761Y-80550000D01*
X167028571Y-80573809D01*
X167504761Y-81026190D02*
X167219047Y-81026190D01*
X167361904Y-81026190D02*
X167361904Y-80526190D01*
X167314285Y-80597619D01*
X167266666Y-80645238D01*
X167219047Y-80669047D01*
X167814285Y-80526190D02*
X167861904Y-80526190D01*
X167909523Y-80550000D01*
X167933333Y-80573809D01*
X167957142Y-80621428D01*
X167980952Y-80716666D01*
X167980952Y-80835714D01*
X167957142Y-80930952D01*
X167933333Y-80978571D01*
X167909523Y-81002380D01*
X167861904Y-81026190D01*
X167814285Y-81026190D01*
X167766666Y-81002380D01*
X167742857Y-80978571D01*
X167719047Y-80930952D01*
X167695238Y-80835714D01*
X167695238Y-80716666D01*
X167719047Y-80621428D01*
X167742857Y-80573809D01*
X167766666Y-80550000D01*
X167814285Y-80526190D01*
%TO.C,C11*%
X143678571Y-73778571D02*
X143654761Y-73802380D01*
X143583333Y-73826190D01*
X143535714Y-73826190D01*
X143464285Y-73802380D01*
X143416666Y-73754761D01*
X143392857Y-73707142D01*
X143369047Y-73611904D01*
X143369047Y-73540476D01*
X143392857Y-73445238D01*
X143416666Y-73397619D01*
X143464285Y-73350000D01*
X143535714Y-73326190D01*
X143583333Y-73326190D01*
X143654761Y-73350000D01*
X143678571Y-73373809D01*
X144154761Y-73826190D02*
X143869047Y-73826190D01*
X144011904Y-73826190D02*
X144011904Y-73326190D01*
X143964285Y-73397619D01*
X143916666Y-73445238D01*
X143869047Y-73469047D01*
X144630952Y-73826190D02*
X144345238Y-73826190D01*
X144488095Y-73826190D02*
X144488095Y-73326190D01*
X144440476Y-73397619D01*
X144392857Y-73445238D01*
X144345238Y-73469047D01*
%TO.C,C12*%
X149128571Y-80628571D02*
X149104761Y-80652380D01*
X149033333Y-80676190D01*
X148985714Y-80676190D01*
X148914285Y-80652380D01*
X148866666Y-80604761D01*
X148842857Y-80557142D01*
X148819047Y-80461904D01*
X148819047Y-80390476D01*
X148842857Y-80295238D01*
X148866666Y-80247619D01*
X148914285Y-80200000D01*
X148985714Y-80176190D01*
X149033333Y-80176190D01*
X149104761Y-80200000D01*
X149128571Y-80223809D01*
X149604761Y-80676190D02*
X149319047Y-80676190D01*
X149461904Y-80676190D02*
X149461904Y-80176190D01*
X149414285Y-80247619D01*
X149366666Y-80295238D01*
X149319047Y-80319047D01*
X149795238Y-80223809D02*
X149819047Y-80200000D01*
X149866666Y-80176190D01*
X149985714Y-80176190D01*
X150033333Y-80200000D01*
X150057142Y-80223809D01*
X150080952Y-80271428D01*
X150080952Y-80319047D01*
X150057142Y-80390476D01*
X149771428Y-80676190D01*
X150080952Y-80676190D01*
%TO.C,C13*%
X145628571Y-92678571D02*
X145604761Y-92702380D01*
X145533333Y-92726190D01*
X145485714Y-92726190D01*
X145414285Y-92702380D01*
X145366666Y-92654761D01*
X145342857Y-92607142D01*
X145319047Y-92511904D01*
X145319047Y-92440476D01*
X145342857Y-92345238D01*
X145366666Y-92297619D01*
X145414285Y-92250000D01*
X145485714Y-92226190D01*
X145533333Y-92226190D01*
X145604761Y-92250000D01*
X145628571Y-92273809D01*
X146104761Y-92726190D02*
X145819047Y-92726190D01*
X145961904Y-92726190D02*
X145961904Y-92226190D01*
X145914285Y-92297619D01*
X145866666Y-92345238D01*
X145819047Y-92369047D01*
X146271428Y-92226190D02*
X146580952Y-92226190D01*
X146414285Y-92416666D01*
X146485714Y-92416666D01*
X146533333Y-92440476D01*
X146557142Y-92464285D01*
X146580952Y-92511904D01*
X146580952Y-92630952D01*
X146557142Y-92678571D01*
X146533333Y-92702380D01*
X146485714Y-92726190D01*
X146342857Y-92726190D01*
X146295238Y-92702380D01*
X146271428Y-92678571D01*
%TO.C,C14*%
X164478571Y-107178571D02*
X164454761Y-107202380D01*
X164383333Y-107226190D01*
X164335714Y-107226190D01*
X164264285Y-107202380D01*
X164216666Y-107154761D01*
X164192857Y-107107142D01*
X164169047Y-107011904D01*
X164169047Y-106940476D01*
X164192857Y-106845238D01*
X164216666Y-106797619D01*
X164264285Y-106750000D01*
X164335714Y-106726190D01*
X164383333Y-106726190D01*
X164454761Y-106750000D01*
X164478571Y-106773809D01*
X164954761Y-107226190D02*
X164669047Y-107226190D01*
X164811904Y-107226190D02*
X164811904Y-106726190D01*
X164764285Y-106797619D01*
X164716666Y-106845238D01*
X164669047Y-106869047D01*
X165383333Y-106892857D02*
X165383333Y-107226190D01*
X165264285Y-106702380D02*
X165145238Y-107059523D01*
X165454761Y-107059523D01*
%TO.C,C15*%
X164478571Y-100378571D02*
X164454761Y-100402380D01*
X164383333Y-100426190D01*
X164335714Y-100426190D01*
X164264285Y-100402380D01*
X164216666Y-100354761D01*
X164192857Y-100307142D01*
X164169047Y-100211904D01*
X164169047Y-100140476D01*
X164192857Y-100045238D01*
X164216666Y-99997619D01*
X164264285Y-99950000D01*
X164335714Y-99926190D01*
X164383333Y-99926190D01*
X164454761Y-99950000D01*
X164478571Y-99973809D01*
X164954761Y-100426190D02*
X164669047Y-100426190D01*
X164811904Y-100426190D02*
X164811904Y-99926190D01*
X164764285Y-99997619D01*
X164716666Y-100045238D01*
X164669047Y-100069047D01*
X165407142Y-99926190D02*
X165169047Y-99926190D01*
X165145238Y-100164285D01*
X165169047Y-100140476D01*
X165216666Y-100116666D01*
X165335714Y-100116666D01*
X165383333Y-100140476D01*
X165407142Y-100164285D01*
X165430952Y-100211904D01*
X165430952Y-100330952D01*
X165407142Y-100378571D01*
X165383333Y-100402380D01*
X165335714Y-100426190D01*
X165216666Y-100426190D01*
X165169047Y-100402380D01*
X165145238Y-100378571D01*
%TO.C,C16*%
X178278571Y-95328571D02*
X178254761Y-95352380D01*
X178183333Y-95376190D01*
X178135714Y-95376190D01*
X178064285Y-95352380D01*
X178016666Y-95304761D01*
X177992857Y-95257142D01*
X177969047Y-95161904D01*
X177969047Y-95090476D01*
X177992857Y-94995238D01*
X178016666Y-94947619D01*
X178064285Y-94900000D01*
X178135714Y-94876190D01*
X178183333Y-94876190D01*
X178254761Y-94900000D01*
X178278571Y-94923809D01*
X178754761Y-95376190D02*
X178469047Y-95376190D01*
X178611904Y-95376190D02*
X178611904Y-94876190D01*
X178564285Y-94947619D01*
X178516666Y-94995238D01*
X178469047Y-95019047D01*
X179183333Y-94876190D02*
X179088095Y-94876190D01*
X179040476Y-94900000D01*
X179016666Y-94923809D01*
X178969047Y-94995238D01*
X178945238Y-95090476D01*
X178945238Y-95280952D01*
X178969047Y-95328571D01*
X178992857Y-95352380D01*
X179040476Y-95376190D01*
X179135714Y-95376190D01*
X179183333Y-95352380D01*
X179207142Y-95328571D01*
X179230952Y-95280952D01*
X179230952Y-95161904D01*
X179207142Y-95114285D01*
X179183333Y-95090476D01*
X179135714Y-95066666D01*
X179040476Y-95066666D01*
X178992857Y-95090476D01*
X178969047Y-95114285D01*
X178945238Y-95161904D01*
%TO.C,C17*%
X167628571Y-103828571D02*
X167604761Y-103852380D01*
X167533333Y-103876190D01*
X167485714Y-103876190D01*
X167414285Y-103852380D01*
X167366666Y-103804761D01*
X167342857Y-103757142D01*
X167319047Y-103661904D01*
X167319047Y-103590476D01*
X167342857Y-103495238D01*
X167366666Y-103447619D01*
X167414285Y-103400000D01*
X167485714Y-103376190D01*
X167533333Y-103376190D01*
X167604761Y-103400000D01*
X167628571Y-103423809D01*
X168104761Y-103876190D02*
X167819047Y-103876190D01*
X167961904Y-103876190D02*
X167961904Y-103376190D01*
X167914285Y-103447619D01*
X167866666Y-103495238D01*
X167819047Y-103519047D01*
X168271428Y-103376190D02*
X168604761Y-103376190D01*
X168390476Y-103876190D01*
%TO.C,C18*%
X181378571Y-95328571D02*
X181354761Y-95352380D01*
X181283333Y-95376190D01*
X181235714Y-95376190D01*
X181164285Y-95352380D01*
X181116666Y-95304761D01*
X181092857Y-95257142D01*
X181069047Y-95161904D01*
X181069047Y-95090476D01*
X181092857Y-94995238D01*
X181116666Y-94947619D01*
X181164285Y-94900000D01*
X181235714Y-94876190D01*
X181283333Y-94876190D01*
X181354761Y-94900000D01*
X181378571Y-94923809D01*
X181854761Y-95376190D02*
X181569047Y-95376190D01*
X181711904Y-95376190D02*
X181711904Y-94876190D01*
X181664285Y-94947619D01*
X181616666Y-94995238D01*
X181569047Y-95019047D01*
X182140476Y-95090476D02*
X182092857Y-95066666D01*
X182069047Y-95042857D01*
X182045238Y-94995238D01*
X182045238Y-94971428D01*
X182069047Y-94923809D01*
X182092857Y-94900000D01*
X182140476Y-94876190D01*
X182235714Y-94876190D01*
X182283333Y-94900000D01*
X182307142Y-94923809D01*
X182330952Y-94971428D01*
X182330952Y-94995238D01*
X182307142Y-95042857D01*
X182283333Y-95066666D01*
X182235714Y-95090476D01*
X182140476Y-95090476D01*
X182092857Y-95114285D01*
X182069047Y-95138095D01*
X182045238Y-95185714D01*
X182045238Y-95280952D01*
X182069047Y-95328571D01*
X182092857Y-95352380D01*
X182140476Y-95376190D01*
X182235714Y-95376190D01*
X182283333Y-95352380D01*
X182307142Y-95328571D01*
X182330952Y-95280952D01*
X182330952Y-95185714D01*
X182307142Y-95138095D01*
X182283333Y-95114285D01*
X182235714Y-95090476D01*
%TO.C,C19*%
X124828571Y-103578571D02*
X124804761Y-103602380D01*
X124733333Y-103626190D01*
X124685714Y-103626190D01*
X124614285Y-103602380D01*
X124566666Y-103554761D01*
X124542857Y-103507142D01*
X124519047Y-103411904D01*
X124519047Y-103340476D01*
X124542857Y-103245238D01*
X124566666Y-103197619D01*
X124614285Y-103150000D01*
X124685714Y-103126190D01*
X124733333Y-103126190D01*
X124804761Y-103150000D01*
X124828571Y-103173809D01*
X125304761Y-103626190D02*
X125019047Y-103626190D01*
X125161904Y-103626190D02*
X125161904Y-103126190D01*
X125114285Y-103197619D01*
X125066666Y-103245238D01*
X125019047Y-103269047D01*
X125542857Y-103626190D02*
X125638095Y-103626190D01*
X125685714Y-103602380D01*
X125709523Y-103578571D01*
X125757142Y-103507142D01*
X125780952Y-103411904D01*
X125780952Y-103221428D01*
X125757142Y-103173809D01*
X125733333Y-103150000D01*
X125685714Y-103126190D01*
X125590476Y-103126190D01*
X125542857Y-103150000D01*
X125519047Y-103173809D01*
X125495238Y-103221428D01*
X125495238Y-103340476D01*
X125519047Y-103388095D01*
X125542857Y-103411904D01*
X125590476Y-103435714D01*
X125685714Y-103435714D01*
X125733333Y-103411904D01*
X125757142Y-103388095D01*
X125780952Y-103340476D01*
%TO.C,C20*%
X171678571Y-94378571D02*
X171654761Y-94402380D01*
X171583333Y-94426190D01*
X171535714Y-94426190D01*
X171464285Y-94402380D01*
X171416666Y-94354761D01*
X171392857Y-94307142D01*
X171369047Y-94211904D01*
X171369047Y-94140476D01*
X171392857Y-94045238D01*
X171416666Y-93997619D01*
X171464285Y-93950000D01*
X171535714Y-93926190D01*
X171583333Y-93926190D01*
X171654761Y-93950000D01*
X171678571Y-93973809D01*
X171869047Y-93973809D02*
X171892857Y-93950000D01*
X171940476Y-93926190D01*
X172059523Y-93926190D01*
X172107142Y-93950000D01*
X172130952Y-93973809D01*
X172154761Y-94021428D01*
X172154761Y-94069047D01*
X172130952Y-94140476D01*
X171845238Y-94426190D01*
X172154761Y-94426190D01*
X172464285Y-93926190D02*
X172511904Y-93926190D01*
X172559523Y-93950000D01*
X172583333Y-93973809D01*
X172607142Y-94021428D01*
X172630952Y-94116666D01*
X172630952Y-94235714D01*
X172607142Y-94330952D01*
X172583333Y-94378571D01*
X172559523Y-94402380D01*
X172511904Y-94426190D01*
X172464285Y-94426190D01*
X172416666Y-94402380D01*
X172392857Y-94378571D01*
X172369047Y-94330952D01*
X172345238Y-94235714D01*
X172345238Y-94116666D01*
X172369047Y-94021428D01*
X172392857Y-93973809D01*
X172416666Y-93950000D01*
X172464285Y-93926190D01*
%TO.C,C21*%
X120278571Y-91428571D02*
X120254761Y-91452380D01*
X120183333Y-91476190D01*
X120135714Y-91476190D01*
X120064285Y-91452380D01*
X120016666Y-91404761D01*
X119992857Y-91357142D01*
X119969047Y-91261904D01*
X119969047Y-91190476D01*
X119992857Y-91095238D01*
X120016666Y-91047619D01*
X120064285Y-91000000D01*
X120135714Y-90976190D01*
X120183333Y-90976190D01*
X120254761Y-91000000D01*
X120278571Y-91023809D01*
X120469047Y-91023809D02*
X120492857Y-91000000D01*
X120540476Y-90976190D01*
X120659523Y-90976190D01*
X120707142Y-91000000D01*
X120730952Y-91023809D01*
X120754761Y-91071428D01*
X120754761Y-91119047D01*
X120730952Y-91190476D01*
X120445238Y-91476190D01*
X120754761Y-91476190D01*
X121230952Y-91476190D02*
X120945238Y-91476190D01*
X121088095Y-91476190D02*
X121088095Y-90976190D01*
X121040476Y-91047619D01*
X120992857Y-91095238D01*
X120945238Y-91119047D01*
%TO.C,C22*%
X120328571Y-79478571D02*
X120304761Y-79502380D01*
X120233333Y-79526190D01*
X120185714Y-79526190D01*
X120114285Y-79502380D01*
X120066666Y-79454761D01*
X120042857Y-79407142D01*
X120019047Y-79311904D01*
X120019047Y-79240476D01*
X120042857Y-79145238D01*
X120066666Y-79097619D01*
X120114285Y-79050000D01*
X120185714Y-79026190D01*
X120233333Y-79026190D01*
X120304761Y-79050000D01*
X120328571Y-79073809D01*
X120519047Y-79073809D02*
X120542857Y-79050000D01*
X120590476Y-79026190D01*
X120709523Y-79026190D01*
X120757142Y-79050000D01*
X120780952Y-79073809D01*
X120804761Y-79121428D01*
X120804761Y-79169047D01*
X120780952Y-79240476D01*
X120495238Y-79526190D01*
X120804761Y-79526190D01*
X120995238Y-79073809D02*
X121019047Y-79050000D01*
X121066666Y-79026190D01*
X121185714Y-79026190D01*
X121233333Y-79050000D01*
X121257142Y-79073809D01*
X121280952Y-79121428D01*
X121280952Y-79169047D01*
X121257142Y-79240476D01*
X120971428Y-79526190D01*
X121280952Y-79526190D01*
%TO.C,C23*%
X168628571Y-94378571D02*
X168604761Y-94402380D01*
X168533333Y-94426190D01*
X168485714Y-94426190D01*
X168414285Y-94402380D01*
X168366666Y-94354761D01*
X168342857Y-94307142D01*
X168319047Y-94211904D01*
X168319047Y-94140476D01*
X168342857Y-94045238D01*
X168366666Y-93997619D01*
X168414285Y-93950000D01*
X168485714Y-93926190D01*
X168533333Y-93926190D01*
X168604761Y-93950000D01*
X168628571Y-93973809D01*
X168819047Y-93973809D02*
X168842857Y-93950000D01*
X168890476Y-93926190D01*
X169009523Y-93926190D01*
X169057142Y-93950000D01*
X169080952Y-93973809D01*
X169104761Y-94021428D01*
X169104761Y-94069047D01*
X169080952Y-94140476D01*
X168795238Y-94426190D01*
X169104761Y-94426190D01*
X169271428Y-93926190D02*
X169580952Y-93926190D01*
X169414285Y-94116666D01*
X169485714Y-94116666D01*
X169533333Y-94140476D01*
X169557142Y-94164285D01*
X169580952Y-94211904D01*
X169580952Y-94330952D01*
X169557142Y-94378571D01*
X169533333Y-94402380D01*
X169485714Y-94426190D01*
X169342857Y-94426190D01*
X169295238Y-94402380D01*
X169271428Y-94378571D01*
%TO.C,C24*%
X133278571Y-70928571D02*
X133254761Y-70952380D01*
X133183333Y-70976190D01*
X133135714Y-70976190D01*
X133064285Y-70952380D01*
X133016666Y-70904761D01*
X132992857Y-70857142D01*
X132969047Y-70761904D01*
X132969047Y-70690476D01*
X132992857Y-70595238D01*
X133016666Y-70547619D01*
X133064285Y-70500000D01*
X133135714Y-70476190D01*
X133183333Y-70476190D01*
X133254761Y-70500000D01*
X133278571Y-70523809D01*
X133469047Y-70523809D02*
X133492857Y-70500000D01*
X133540476Y-70476190D01*
X133659523Y-70476190D01*
X133707142Y-70500000D01*
X133730952Y-70523809D01*
X133754761Y-70571428D01*
X133754761Y-70619047D01*
X133730952Y-70690476D01*
X133445238Y-70976190D01*
X133754761Y-70976190D01*
X134183333Y-70642857D02*
X134183333Y-70976190D01*
X134064285Y-70452380D02*
X133945238Y-70809523D01*
X134254761Y-70809523D01*
%TO.C,C25*%
X123078571Y-105478571D02*
X123054761Y-105502380D01*
X122983333Y-105526190D01*
X122935714Y-105526190D01*
X122864285Y-105502380D01*
X122816666Y-105454761D01*
X122792857Y-105407142D01*
X122769047Y-105311904D01*
X122769047Y-105240476D01*
X122792857Y-105145238D01*
X122816666Y-105097619D01*
X122864285Y-105050000D01*
X122935714Y-105026190D01*
X122983333Y-105026190D01*
X123054761Y-105050000D01*
X123078571Y-105073809D01*
X123269047Y-105073809D02*
X123292857Y-105050000D01*
X123340476Y-105026190D01*
X123459523Y-105026190D01*
X123507142Y-105050000D01*
X123530952Y-105073809D01*
X123554761Y-105121428D01*
X123554761Y-105169047D01*
X123530952Y-105240476D01*
X123245238Y-105526190D01*
X123554761Y-105526190D01*
X124007142Y-105026190D02*
X123769047Y-105026190D01*
X123745238Y-105264285D01*
X123769047Y-105240476D01*
X123816666Y-105216666D01*
X123935714Y-105216666D01*
X123983333Y-105240476D01*
X124007142Y-105264285D01*
X124030952Y-105311904D01*
X124030952Y-105430952D01*
X124007142Y-105478571D01*
X123983333Y-105502380D01*
X123935714Y-105526190D01*
X123816666Y-105526190D01*
X123769047Y-105502380D01*
X123745238Y-105478571D01*
%TO.C,C26*%
X123078571Y-93678571D02*
X123054761Y-93702380D01*
X122983333Y-93726190D01*
X122935714Y-93726190D01*
X122864285Y-93702380D01*
X122816666Y-93654761D01*
X122792857Y-93607142D01*
X122769047Y-93511904D01*
X122769047Y-93440476D01*
X122792857Y-93345238D01*
X122816666Y-93297619D01*
X122864285Y-93250000D01*
X122935714Y-93226190D01*
X122983333Y-93226190D01*
X123054761Y-93250000D01*
X123078571Y-93273809D01*
X123269047Y-93273809D02*
X123292857Y-93250000D01*
X123340476Y-93226190D01*
X123459523Y-93226190D01*
X123507142Y-93250000D01*
X123530952Y-93273809D01*
X123554761Y-93321428D01*
X123554761Y-93369047D01*
X123530952Y-93440476D01*
X123245238Y-93726190D01*
X123554761Y-93726190D01*
X123983333Y-93226190D02*
X123888095Y-93226190D01*
X123840476Y-93250000D01*
X123816666Y-93273809D01*
X123769047Y-93345238D01*
X123745238Y-93440476D01*
X123745238Y-93630952D01*
X123769047Y-93678571D01*
X123792857Y-93702380D01*
X123840476Y-93726190D01*
X123935714Y-93726190D01*
X123983333Y-93702380D01*
X124007142Y-93678571D01*
X124030952Y-93630952D01*
X124030952Y-93511904D01*
X124007142Y-93464285D01*
X123983333Y-93440476D01*
X123935714Y-93416666D01*
X123840476Y-93416666D01*
X123792857Y-93440476D01*
X123769047Y-93464285D01*
X123745238Y-93511904D01*
%TO.C,C28*%
X151478571Y-98778571D02*
X151454761Y-98802380D01*
X151383333Y-98826190D01*
X151335714Y-98826190D01*
X151264285Y-98802380D01*
X151216666Y-98754761D01*
X151192857Y-98707142D01*
X151169047Y-98611904D01*
X151169047Y-98540476D01*
X151192857Y-98445238D01*
X151216666Y-98397619D01*
X151264285Y-98350000D01*
X151335714Y-98326190D01*
X151383333Y-98326190D01*
X151454761Y-98350000D01*
X151478571Y-98373809D01*
X151669047Y-98373809D02*
X151692857Y-98350000D01*
X151740476Y-98326190D01*
X151859523Y-98326190D01*
X151907142Y-98350000D01*
X151930952Y-98373809D01*
X151954761Y-98421428D01*
X151954761Y-98469047D01*
X151930952Y-98540476D01*
X151645238Y-98826190D01*
X151954761Y-98826190D01*
X152240476Y-98540476D02*
X152192857Y-98516666D01*
X152169047Y-98492857D01*
X152145238Y-98445238D01*
X152145238Y-98421428D01*
X152169047Y-98373809D01*
X152192857Y-98350000D01*
X152240476Y-98326190D01*
X152335714Y-98326190D01*
X152383333Y-98350000D01*
X152407142Y-98373809D01*
X152430952Y-98421428D01*
X152430952Y-98445238D01*
X152407142Y-98492857D01*
X152383333Y-98516666D01*
X152335714Y-98540476D01*
X152240476Y-98540476D01*
X152192857Y-98564285D01*
X152169047Y-98588095D01*
X152145238Y-98635714D01*
X152145238Y-98730952D01*
X152169047Y-98778571D01*
X152192857Y-98802380D01*
X152240476Y-98826190D01*
X152335714Y-98826190D01*
X152383333Y-98802380D01*
X152407142Y-98778571D01*
X152430952Y-98730952D01*
X152430952Y-98635714D01*
X152407142Y-98588095D01*
X152383333Y-98564285D01*
X152335714Y-98540476D01*
%TO.C,C29*%
X142578571Y-98828571D02*
X142554761Y-98852380D01*
X142483333Y-98876190D01*
X142435714Y-98876190D01*
X142364285Y-98852380D01*
X142316666Y-98804761D01*
X142292857Y-98757142D01*
X142269047Y-98661904D01*
X142269047Y-98590476D01*
X142292857Y-98495238D01*
X142316666Y-98447619D01*
X142364285Y-98400000D01*
X142435714Y-98376190D01*
X142483333Y-98376190D01*
X142554761Y-98400000D01*
X142578571Y-98423809D01*
X142769047Y-98423809D02*
X142792857Y-98400000D01*
X142840476Y-98376190D01*
X142959523Y-98376190D01*
X143007142Y-98400000D01*
X143030952Y-98423809D01*
X143054761Y-98471428D01*
X143054761Y-98519047D01*
X143030952Y-98590476D01*
X142745238Y-98876190D01*
X143054761Y-98876190D01*
X143292857Y-98876190D02*
X143388095Y-98876190D01*
X143435714Y-98852380D01*
X143459523Y-98828571D01*
X143507142Y-98757142D01*
X143530952Y-98661904D01*
X143530952Y-98471428D01*
X143507142Y-98423809D01*
X143483333Y-98400000D01*
X143435714Y-98376190D01*
X143340476Y-98376190D01*
X143292857Y-98400000D01*
X143269047Y-98423809D01*
X143245238Y-98471428D01*
X143245238Y-98590476D01*
X143269047Y-98638095D01*
X143292857Y-98661904D01*
X143340476Y-98685714D01*
X143435714Y-98685714D01*
X143483333Y-98661904D01*
X143507142Y-98638095D01*
X143530952Y-98590476D01*
%TO.C,D1*%
X180680952Y-88326190D02*
X180680952Y-87826190D01*
X180800000Y-87826190D01*
X180871428Y-87850000D01*
X180919047Y-87897619D01*
X180942857Y-87945238D01*
X180966666Y-88040476D01*
X180966666Y-88111904D01*
X180942857Y-88207142D01*
X180919047Y-88254761D01*
X180871428Y-88302380D01*
X180800000Y-88326190D01*
X180680952Y-88326190D01*
X181442857Y-88326190D02*
X181157142Y-88326190D01*
X181300000Y-88326190D02*
X181300000Y-87826190D01*
X181252380Y-87897619D01*
X181204761Y-87945238D01*
X181157142Y-87969047D01*
%TO.C,D3*%
X180830952Y-103926190D02*
X180830952Y-103426190D01*
X180950000Y-103426190D01*
X181021428Y-103450000D01*
X181069047Y-103497619D01*
X181092857Y-103545238D01*
X181116666Y-103640476D01*
X181116666Y-103711904D01*
X181092857Y-103807142D01*
X181069047Y-103854761D01*
X181021428Y-103902380D01*
X180950000Y-103926190D01*
X180830952Y-103926190D01*
X181283333Y-103426190D02*
X181592857Y-103426190D01*
X181426190Y-103616666D01*
X181497619Y-103616666D01*
X181545238Y-103640476D01*
X181569047Y-103664285D01*
X181592857Y-103711904D01*
X181592857Y-103830952D01*
X181569047Y-103878571D01*
X181545238Y-103902380D01*
X181497619Y-103926190D01*
X181354761Y-103926190D01*
X181307142Y-103902380D01*
X181283333Y-103878571D01*
%TO.C,D4*%
X135880952Y-76476190D02*
X135880952Y-75976190D01*
X136000000Y-75976190D01*
X136071428Y-76000000D01*
X136119047Y-76047619D01*
X136142857Y-76095238D01*
X136166666Y-76190476D01*
X136166666Y-76261904D01*
X136142857Y-76357142D01*
X136119047Y-76404761D01*
X136071428Y-76452380D01*
X136000000Y-76476190D01*
X135880952Y-76476190D01*
X136595238Y-76142857D02*
X136595238Y-76476190D01*
X136476190Y-75952380D02*
X136357142Y-76309523D01*
X136666666Y-76309523D01*
%TO.C,D6*%
X126080952Y-97726190D02*
X126080952Y-97226190D01*
X126200000Y-97226190D01*
X126271428Y-97250000D01*
X126319047Y-97297619D01*
X126342857Y-97345238D01*
X126366666Y-97440476D01*
X126366666Y-97511904D01*
X126342857Y-97607142D01*
X126319047Y-97654761D01*
X126271428Y-97702380D01*
X126200000Y-97726190D01*
X126080952Y-97726190D01*
X126795238Y-97226190D02*
X126700000Y-97226190D01*
X126652380Y-97250000D01*
X126628571Y-97273809D01*
X126580952Y-97345238D01*
X126557142Y-97440476D01*
X126557142Y-97630952D01*
X126580952Y-97678571D01*
X126604761Y-97702380D01*
X126652380Y-97726190D01*
X126747619Y-97726190D01*
X126795238Y-97702380D01*
X126819047Y-97678571D01*
X126842857Y-97630952D01*
X126842857Y-97511904D01*
X126819047Y-97464285D01*
X126795238Y-97440476D01*
X126747619Y-97416666D01*
X126652380Y-97416666D01*
X126604761Y-97440476D01*
X126580952Y-97464285D01*
X126557142Y-97511904D01*
%TO.C,D7*%
X139330952Y-76476190D02*
X139330952Y-75976190D01*
X139450000Y-75976190D01*
X139521428Y-76000000D01*
X139569047Y-76047619D01*
X139592857Y-76095238D01*
X139616666Y-76190476D01*
X139616666Y-76261904D01*
X139592857Y-76357142D01*
X139569047Y-76404761D01*
X139521428Y-76452380D01*
X139450000Y-76476190D01*
X139330952Y-76476190D01*
X139783333Y-75976190D02*
X140116666Y-75976190D01*
X139902380Y-76476190D01*
%TO.C,D8*%
X126330952Y-88776190D02*
X126330952Y-88276190D01*
X126450000Y-88276190D01*
X126521428Y-88300000D01*
X126569047Y-88347619D01*
X126592857Y-88395238D01*
X126616666Y-88490476D01*
X126616666Y-88561904D01*
X126592857Y-88657142D01*
X126569047Y-88704761D01*
X126521428Y-88752380D01*
X126450000Y-88776190D01*
X126330952Y-88776190D01*
X126902380Y-88490476D02*
X126854761Y-88466666D01*
X126830952Y-88442857D01*
X126807142Y-88395238D01*
X126807142Y-88371428D01*
X126830952Y-88323809D01*
X126854761Y-88300000D01*
X126902380Y-88276190D01*
X126997619Y-88276190D01*
X127045238Y-88300000D01*
X127069047Y-88323809D01*
X127092857Y-88371428D01*
X127092857Y-88395238D01*
X127069047Y-88442857D01*
X127045238Y-88466666D01*
X126997619Y-88490476D01*
X126902380Y-88490476D01*
X126854761Y-88514285D01*
X126830952Y-88538095D01*
X126807142Y-88585714D01*
X126807142Y-88680952D01*
X126830952Y-88728571D01*
X126854761Y-88752380D01*
X126902380Y-88776190D01*
X126997619Y-88776190D01*
X127045238Y-88752380D01*
X127069047Y-88728571D01*
X127092857Y-88680952D01*
X127092857Y-88585714D01*
X127069047Y-88538095D01*
X127045238Y-88514285D01*
X126997619Y-88490476D01*
%TO.C,D9*%
X126330952Y-85226190D02*
X126330952Y-84726190D01*
X126450000Y-84726190D01*
X126521428Y-84750000D01*
X126569047Y-84797619D01*
X126592857Y-84845238D01*
X126616666Y-84940476D01*
X126616666Y-85011904D01*
X126592857Y-85107142D01*
X126569047Y-85154761D01*
X126521428Y-85202380D01*
X126450000Y-85226190D01*
X126330952Y-85226190D01*
X126854761Y-85226190D02*
X126950000Y-85226190D01*
X126997619Y-85202380D01*
X127021428Y-85178571D01*
X127069047Y-85107142D01*
X127092857Y-85011904D01*
X127092857Y-84821428D01*
X127069047Y-84773809D01*
X127045238Y-84750000D01*
X126997619Y-84726190D01*
X126902380Y-84726190D01*
X126854761Y-84750000D01*
X126830952Y-84773809D01*
X126807142Y-84821428D01*
X126807142Y-84940476D01*
X126830952Y-84988095D01*
X126854761Y-85011904D01*
X126902380Y-85035714D01*
X126997619Y-85035714D01*
X127045238Y-85011904D01*
X127069047Y-84988095D01*
X127092857Y-84940476D01*
%TO.C,D10*%
X132242857Y-76476190D02*
X132242857Y-75976190D01*
X132361904Y-75976190D01*
X132433333Y-76000000D01*
X132480952Y-76047619D01*
X132504761Y-76095238D01*
X132528571Y-76190476D01*
X132528571Y-76261904D01*
X132504761Y-76357142D01*
X132480952Y-76404761D01*
X132433333Y-76452380D01*
X132361904Y-76476190D01*
X132242857Y-76476190D01*
X133004761Y-76476190D02*
X132719047Y-76476190D01*
X132861904Y-76476190D02*
X132861904Y-75976190D01*
X132814285Y-76047619D01*
X132766666Y-76095238D01*
X132719047Y-76119047D01*
X133314285Y-75976190D02*
X133361904Y-75976190D01*
X133409523Y-76000000D01*
X133433333Y-76023809D01*
X133457142Y-76071428D01*
X133480952Y-76166666D01*
X133480952Y-76285714D01*
X133457142Y-76380952D01*
X133433333Y-76428571D01*
X133409523Y-76452380D01*
X133361904Y-76476190D01*
X133314285Y-76476190D01*
X133266666Y-76452380D01*
X133242857Y-76428571D01*
X133219047Y-76380952D01*
X133195238Y-76285714D01*
X133195238Y-76166666D01*
X133219047Y-76071428D01*
X133242857Y-76023809D01*
X133266666Y-76000000D01*
X133314285Y-75976190D01*
%TO.C,D11*%
X126142857Y-76676190D02*
X126142857Y-76176190D01*
X126261904Y-76176190D01*
X126333333Y-76200000D01*
X126380952Y-76247619D01*
X126404761Y-76295238D01*
X126428571Y-76390476D01*
X126428571Y-76461904D01*
X126404761Y-76557142D01*
X126380952Y-76604761D01*
X126333333Y-76652380D01*
X126261904Y-76676190D01*
X126142857Y-76676190D01*
X126904761Y-76676190D02*
X126619047Y-76676190D01*
X126761904Y-76676190D02*
X126761904Y-76176190D01*
X126714285Y-76247619D01*
X126666666Y-76295238D01*
X126619047Y-76319047D01*
X127380952Y-76676190D02*
X127095238Y-76676190D01*
X127238095Y-76676190D02*
X127238095Y-76176190D01*
X127190476Y-76247619D01*
X127142857Y-76295238D01*
X127095238Y-76319047D01*
%TO.C,D12*%
X126042857Y-73526190D02*
X126042857Y-73026190D01*
X126161904Y-73026190D01*
X126233333Y-73050000D01*
X126280952Y-73097619D01*
X126304761Y-73145238D01*
X126328571Y-73240476D01*
X126328571Y-73311904D01*
X126304761Y-73407142D01*
X126280952Y-73454761D01*
X126233333Y-73502380D01*
X126161904Y-73526190D01*
X126042857Y-73526190D01*
X126804761Y-73526190D02*
X126519047Y-73526190D01*
X126661904Y-73526190D02*
X126661904Y-73026190D01*
X126614285Y-73097619D01*
X126566666Y-73145238D01*
X126519047Y-73169047D01*
X126995238Y-73073809D02*
X127019047Y-73050000D01*
X127066666Y-73026190D01*
X127185714Y-73026190D01*
X127233333Y-73050000D01*
X127257142Y-73073809D01*
X127280952Y-73121428D01*
X127280952Y-73169047D01*
X127257142Y-73240476D01*
X126971428Y-73526190D01*
X127280952Y-73526190D01*
%TO.C,FB1*%
X182283333Y-80364285D02*
X182116666Y-80364285D01*
X182116666Y-80626190D02*
X182116666Y-80126190D01*
X182354761Y-80126190D01*
X182711904Y-80364285D02*
X182783333Y-80388095D01*
X182807142Y-80411904D01*
X182830952Y-80459523D01*
X182830952Y-80530952D01*
X182807142Y-80578571D01*
X182783333Y-80602380D01*
X182735714Y-80626190D01*
X182545238Y-80626190D01*
X182545238Y-80126190D01*
X182711904Y-80126190D01*
X182759523Y-80150000D01*
X182783333Y-80173809D01*
X182807142Y-80221428D01*
X182807142Y-80269047D01*
X182783333Y-80316666D01*
X182759523Y-80340476D01*
X182711904Y-80364285D01*
X182545238Y-80364285D01*
X183307142Y-80626190D02*
X183021428Y-80626190D01*
X183164285Y-80626190D02*
X183164285Y-80126190D01*
X183116666Y-80197619D01*
X183069047Y-80245238D01*
X183021428Y-80269047D01*
%TO.C,L1*%
X182716666Y-103426190D02*
X182478571Y-103426190D01*
X182478571Y-102926190D01*
X183145238Y-103426190D02*
X182859523Y-103426190D01*
X183002380Y-103426190D02*
X183002380Y-102926190D01*
X182954761Y-102997619D01*
X182907142Y-103045238D01*
X182859523Y-103069047D01*
%TO.C,R1*%
X178316666Y-78976190D02*
X178150000Y-78738095D01*
X178030952Y-78976190D02*
X178030952Y-78476190D01*
X178221428Y-78476190D01*
X178269047Y-78500000D01*
X178292857Y-78523809D01*
X178316666Y-78571428D01*
X178316666Y-78642857D01*
X178292857Y-78690476D01*
X178269047Y-78714285D01*
X178221428Y-78738095D01*
X178030952Y-78738095D01*
X178792857Y-78976190D02*
X178507142Y-78976190D01*
X178650000Y-78976190D02*
X178650000Y-78476190D01*
X178602380Y-78547619D01*
X178554761Y-78595238D01*
X178507142Y-78619047D01*
%TO.C,R2*%
X176716666Y-78976190D02*
X176550000Y-78738095D01*
X176430952Y-78976190D02*
X176430952Y-78476190D01*
X176621428Y-78476190D01*
X176669047Y-78500000D01*
X176692857Y-78523809D01*
X176716666Y-78571428D01*
X176716666Y-78642857D01*
X176692857Y-78690476D01*
X176669047Y-78714285D01*
X176621428Y-78738095D01*
X176430952Y-78738095D01*
X176907142Y-78523809D02*
X176930952Y-78500000D01*
X176978571Y-78476190D01*
X177097619Y-78476190D01*
X177145238Y-78500000D01*
X177169047Y-78523809D01*
X177192857Y-78571428D01*
X177192857Y-78619047D01*
X177169047Y-78690476D01*
X176883333Y-78976190D01*
X177192857Y-78976190D01*
%TO.C,R3*%
X182566666Y-88276190D02*
X182400000Y-88038095D01*
X182280952Y-88276190D02*
X182280952Y-87776190D01*
X182471428Y-87776190D01*
X182519047Y-87800000D01*
X182542857Y-87823809D01*
X182566666Y-87871428D01*
X182566666Y-87942857D01*
X182542857Y-87990476D01*
X182519047Y-88014285D01*
X182471428Y-88038095D01*
X182280952Y-88038095D01*
X182733333Y-87776190D02*
X183042857Y-87776190D01*
X182876190Y-87966666D01*
X182947619Y-87966666D01*
X182995238Y-87990476D01*
X183019047Y-88014285D01*
X183042857Y-88061904D01*
X183042857Y-88180952D01*
X183019047Y-88228571D01*
X182995238Y-88252380D01*
X182947619Y-88276190D01*
X182804761Y-88276190D01*
X182757142Y-88252380D01*
X182733333Y-88228571D01*
%TO.C,R5*%
X159416666Y-75126190D02*
X159250000Y-74888095D01*
X159130952Y-75126190D02*
X159130952Y-74626190D01*
X159321428Y-74626190D01*
X159369047Y-74650000D01*
X159392857Y-74673809D01*
X159416666Y-74721428D01*
X159416666Y-74792857D01*
X159392857Y-74840476D01*
X159369047Y-74864285D01*
X159321428Y-74888095D01*
X159130952Y-74888095D01*
X159869047Y-74626190D02*
X159630952Y-74626190D01*
X159607142Y-74864285D01*
X159630952Y-74840476D01*
X159678571Y-74816666D01*
X159797619Y-74816666D01*
X159845238Y-74840476D01*
X159869047Y-74864285D01*
X159892857Y-74911904D01*
X159892857Y-75030952D01*
X159869047Y-75078571D01*
X159845238Y-75102380D01*
X159797619Y-75126190D01*
X159678571Y-75126190D01*
X159630952Y-75102380D01*
X159607142Y-75078571D01*
%TO.C,R6*%
X169266666Y-90326190D02*
X169100000Y-90088095D01*
X168980952Y-90326190D02*
X168980952Y-89826190D01*
X169171428Y-89826190D01*
X169219047Y-89850000D01*
X169242857Y-89873809D01*
X169266666Y-89921428D01*
X169266666Y-89992857D01*
X169242857Y-90040476D01*
X169219047Y-90064285D01*
X169171428Y-90088095D01*
X168980952Y-90088095D01*
X169695238Y-89826190D02*
X169600000Y-89826190D01*
X169552380Y-89850000D01*
X169528571Y-89873809D01*
X169480952Y-89945238D01*
X169457142Y-90040476D01*
X169457142Y-90230952D01*
X169480952Y-90278571D01*
X169504761Y-90302380D01*
X169552380Y-90326190D01*
X169647619Y-90326190D01*
X169695238Y-90302380D01*
X169719047Y-90278571D01*
X169742857Y-90230952D01*
X169742857Y-90111904D01*
X169719047Y-90064285D01*
X169695238Y-90040476D01*
X169647619Y-90016666D01*
X169552380Y-90016666D01*
X169504761Y-90040476D01*
X169480952Y-90064285D01*
X169457142Y-90111904D01*
%TO.C,R7*%
X173266666Y-97726190D02*
X173100000Y-97488095D01*
X172980952Y-97726190D02*
X172980952Y-97226190D01*
X173171428Y-97226190D01*
X173219047Y-97250000D01*
X173242857Y-97273809D01*
X173266666Y-97321428D01*
X173266666Y-97392857D01*
X173242857Y-97440476D01*
X173219047Y-97464285D01*
X173171428Y-97488095D01*
X172980952Y-97488095D01*
X173433333Y-97226190D02*
X173766666Y-97226190D01*
X173552380Y-97726190D01*
%TO.C,R8*%
X175216666Y-94976190D02*
X175050000Y-94738095D01*
X174930952Y-94976190D02*
X174930952Y-94476190D01*
X175121428Y-94476190D01*
X175169047Y-94500000D01*
X175192857Y-94523809D01*
X175216666Y-94571428D01*
X175216666Y-94642857D01*
X175192857Y-94690476D01*
X175169047Y-94714285D01*
X175121428Y-94738095D01*
X174930952Y-94738095D01*
X175502380Y-94690476D02*
X175454761Y-94666666D01*
X175430952Y-94642857D01*
X175407142Y-94595238D01*
X175407142Y-94571428D01*
X175430952Y-94523809D01*
X175454761Y-94500000D01*
X175502380Y-94476190D01*
X175597619Y-94476190D01*
X175645238Y-94500000D01*
X175669047Y-94523809D01*
X175692857Y-94571428D01*
X175692857Y-94595238D01*
X175669047Y-94642857D01*
X175645238Y-94666666D01*
X175597619Y-94690476D01*
X175502380Y-94690476D01*
X175454761Y-94714285D01*
X175430952Y-94738095D01*
X175407142Y-94785714D01*
X175407142Y-94880952D01*
X175430952Y-94928571D01*
X175454761Y-94952380D01*
X175502380Y-94976190D01*
X175597619Y-94976190D01*
X175645238Y-94952380D01*
X175669047Y-94928571D01*
X175692857Y-94880952D01*
X175692857Y-94785714D01*
X175669047Y-94738095D01*
X175645238Y-94714285D01*
X175597619Y-94690476D01*
%TO.C,R9*%
X157666666Y-94626190D02*
X157500000Y-94388095D01*
X157380952Y-94626190D02*
X157380952Y-94126190D01*
X157571428Y-94126190D01*
X157619047Y-94150000D01*
X157642857Y-94173809D01*
X157666666Y-94221428D01*
X157666666Y-94292857D01*
X157642857Y-94340476D01*
X157619047Y-94364285D01*
X157571428Y-94388095D01*
X157380952Y-94388095D01*
X157904761Y-94626190D02*
X158000000Y-94626190D01*
X158047619Y-94602380D01*
X158071428Y-94578571D01*
X158119047Y-94507142D01*
X158142857Y-94411904D01*
X158142857Y-94221428D01*
X158119047Y-94173809D01*
X158095238Y-94150000D01*
X158047619Y-94126190D01*
X157952380Y-94126190D01*
X157904761Y-94150000D01*
X157880952Y-94173809D01*
X157857142Y-94221428D01*
X157857142Y-94340476D01*
X157880952Y-94388095D01*
X157904761Y-94411904D01*
X157952380Y-94435714D01*
X158047619Y-94435714D01*
X158095238Y-94411904D01*
X158119047Y-94388095D01*
X158142857Y-94340476D01*
%TO.C,R10*%
X143478571Y-93426190D02*
X143311904Y-93188095D01*
X143192857Y-93426190D02*
X143192857Y-92926190D01*
X143383333Y-92926190D01*
X143430952Y-92950000D01*
X143454761Y-92973809D01*
X143478571Y-93021428D01*
X143478571Y-93092857D01*
X143454761Y-93140476D01*
X143430952Y-93164285D01*
X143383333Y-93188095D01*
X143192857Y-93188095D01*
X143954761Y-93426190D02*
X143669047Y-93426190D01*
X143811904Y-93426190D02*
X143811904Y-92926190D01*
X143764285Y-92997619D01*
X143716666Y-93045238D01*
X143669047Y-93069047D01*
X144264285Y-92926190D02*
X144311904Y-92926190D01*
X144359523Y-92950000D01*
X144383333Y-92973809D01*
X144407142Y-93021428D01*
X144430952Y-93116666D01*
X144430952Y-93235714D01*
X144407142Y-93330952D01*
X144383333Y-93378571D01*
X144359523Y-93402380D01*
X144311904Y-93426190D01*
X144264285Y-93426190D01*
X144216666Y-93402380D01*
X144192857Y-93378571D01*
X144169047Y-93330952D01*
X144145238Y-93235714D01*
X144145238Y-93116666D01*
X144169047Y-93021428D01*
X144192857Y-92973809D01*
X144216666Y-92950000D01*
X144264285Y-92926190D01*
%TO.C,R11*%
X120378571Y-88476190D02*
X120211904Y-88238095D01*
X120092857Y-88476190D02*
X120092857Y-87976190D01*
X120283333Y-87976190D01*
X120330952Y-88000000D01*
X120354761Y-88023809D01*
X120378571Y-88071428D01*
X120378571Y-88142857D01*
X120354761Y-88190476D01*
X120330952Y-88214285D01*
X120283333Y-88238095D01*
X120092857Y-88238095D01*
X120854761Y-88476190D02*
X120569047Y-88476190D01*
X120711904Y-88476190D02*
X120711904Y-87976190D01*
X120664285Y-88047619D01*
X120616666Y-88095238D01*
X120569047Y-88119047D01*
X121330952Y-88476190D02*
X121045238Y-88476190D01*
X121188095Y-88476190D02*
X121188095Y-87976190D01*
X121140476Y-88047619D01*
X121092857Y-88095238D01*
X121045238Y-88119047D01*
%TO.C,R12*%
X122628571Y-83626190D02*
X122461904Y-83388095D01*
X122342857Y-83626190D02*
X122342857Y-83126190D01*
X122533333Y-83126190D01*
X122580952Y-83150000D01*
X122604761Y-83173809D01*
X122628571Y-83221428D01*
X122628571Y-83292857D01*
X122604761Y-83340476D01*
X122580952Y-83364285D01*
X122533333Y-83388095D01*
X122342857Y-83388095D01*
X123104761Y-83626190D02*
X122819047Y-83626190D01*
X122961904Y-83626190D02*
X122961904Y-83126190D01*
X122914285Y-83197619D01*
X122866666Y-83245238D01*
X122819047Y-83269047D01*
X123295238Y-83173809D02*
X123319047Y-83150000D01*
X123366666Y-83126190D01*
X123485714Y-83126190D01*
X123533333Y-83150000D01*
X123557142Y-83173809D01*
X123580952Y-83221428D01*
X123580952Y-83269047D01*
X123557142Y-83340476D01*
X123271428Y-83626190D01*
X123580952Y-83626190D01*
%TO.C,R13*%
X122578571Y-71526190D02*
X122411904Y-71288095D01*
X122292857Y-71526190D02*
X122292857Y-71026190D01*
X122483333Y-71026190D01*
X122530952Y-71050000D01*
X122554761Y-71073809D01*
X122578571Y-71121428D01*
X122578571Y-71192857D01*
X122554761Y-71240476D01*
X122530952Y-71264285D01*
X122483333Y-71288095D01*
X122292857Y-71288095D01*
X123054761Y-71526190D02*
X122769047Y-71526190D01*
X122911904Y-71526190D02*
X122911904Y-71026190D01*
X122864285Y-71097619D01*
X122816666Y-71145238D01*
X122769047Y-71169047D01*
X123221428Y-71026190D02*
X123530952Y-71026190D01*
X123364285Y-71216666D01*
X123435714Y-71216666D01*
X123483333Y-71240476D01*
X123507142Y-71264285D01*
X123530952Y-71311904D01*
X123530952Y-71430952D01*
X123507142Y-71478571D01*
X123483333Y-71502380D01*
X123435714Y-71526190D01*
X123292857Y-71526190D01*
X123245238Y-71502380D01*
X123221428Y-71478571D01*
%TO.C,R14*%
X120378571Y-76426190D02*
X120211904Y-76188095D01*
X120092857Y-76426190D02*
X120092857Y-75926190D01*
X120283333Y-75926190D01*
X120330952Y-75950000D01*
X120354761Y-75973809D01*
X120378571Y-76021428D01*
X120378571Y-76092857D01*
X120354761Y-76140476D01*
X120330952Y-76164285D01*
X120283333Y-76188095D01*
X120092857Y-76188095D01*
X120854761Y-76426190D02*
X120569047Y-76426190D01*
X120711904Y-76426190D02*
X120711904Y-75926190D01*
X120664285Y-75997619D01*
X120616666Y-76045238D01*
X120569047Y-76069047D01*
X121283333Y-76092857D02*
X121283333Y-76426190D01*
X121164285Y-75902380D02*
X121045238Y-76259523D01*
X121354761Y-76259523D01*
%TO.C,R15*%
X122628571Y-95576190D02*
X122461904Y-95338095D01*
X122342857Y-95576190D02*
X122342857Y-95076190D01*
X122533333Y-95076190D01*
X122580952Y-95100000D01*
X122604761Y-95123809D01*
X122628571Y-95171428D01*
X122628571Y-95242857D01*
X122604761Y-95290476D01*
X122580952Y-95314285D01*
X122533333Y-95338095D01*
X122342857Y-95338095D01*
X123104761Y-95576190D02*
X122819047Y-95576190D01*
X122961904Y-95576190D02*
X122961904Y-95076190D01*
X122914285Y-95147619D01*
X122866666Y-95195238D01*
X122819047Y-95219047D01*
X123557142Y-95076190D02*
X123319047Y-95076190D01*
X123295238Y-95314285D01*
X123319047Y-95290476D01*
X123366666Y-95266666D01*
X123485714Y-95266666D01*
X123533333Y-95290476D01*
X123557142Y-95314285D01*
X123580952Y-95361904D01*
X123580952Y-95480952D01*
X123557142Y-95528571D01*
X123533333Y-95552380D01*
X123485714Y-95576190D01*
X123366666Y-95576190D01*
X123319047Y-95552380D01*
X123295238Y-95528571D01*
%TO.C,R16*%
X120378571Y-100526190D02*
X120211904Y-100288095D01*
X120092857Y-100526190D02*
X120092857Y-100026190D01*
X120283333Y-100026190D01*
X120330952Y-100050000D01*
X120354761Y-100073809D01*
X120378571Y-100121428D01*
X120378571Y-100192857D01*
X120354761Y-100240476D01*
X120330952Y-100264285D01*
X120283333Y-100288095D01*
X120092857Y-100288095D01*
X120854761Y-100526190D02*
X120569047Y-100526190D01*
X120711904Y-100526190D02*
X120711904Y-100026190D01*
X120664285Y-100097619D01*
X120616666Y-100145238D01*
X120569047Y-100169047D01*
X121283333Y-100026190D02*
X121188095Y-100026190D01*
X121140476Y-100050000D01*
X121116666Y-100073809D01*
X121069047Y-100145238D01*
X121045238Y-100240476D01*
X121045238Y-100430952D01*
X121069047Y-100478571D01*
X121092857Y-100502380D01*
X121140476Y-100526190D01*
X121235714Y-100526190D01*
X121283333Y-100502380D01*
X121307142Y-100478571D01*
X121330952Y-100430952D01*
X121330952Y-100311904D01*
X121307142Y-100264285D01*
X121283333Y-100240476D01*
X121235714Y-100216666D01*
X121140476Y-100216666D01*
X121092857Y-100240476D01*
X121069047Y-100264285D01*
X121045238Y-100311904D01*
%TO.C,R17*%
X121678571Y-98276190D02*
X121511904Y-98038095D01*
X121392857Y-98276190D02*
X121392857Y-97776190D01*
X121583333Y-97776190D01*
X121630952Y-97800000D01*
X121654761Y-97823809D01*
X121678571Y-97871428D01*
X121678571Y-97942857D01*
X121654761Y-97990476D01*
X121630952Y-98014285D01*
X121583333Y-98038095D01*
X121392857Y-98038095D01*
X122154761Y-98276190D02*
X121869047Y-98276190D01*
X122011904Y-98276190D02*
X122011904Y-97776190D01*
X121964285Y-97847619D01*
X121916666Y-97895238D01*
X121869047Y-97919047D01*
X122321428Y-97776190D02*
X122654761Y-97776190D01*
X122440476Y-98276190D01*
%TO.C,R18*%
X122628571Y-85126190D02*
X122461904Y-84888095D01*
X122342857Y-85126190D02*
X122342857Y-84626190D01*
X122533333Y-84626190D01*
X122580952Y-84650000D01*
X122604761Y-84673809D01*
X122628571Y-84721428D01*
X122628571Y-84792857D01*
X122604761Y-84840476D01*
X122580952Y-84864285D01*
X122533333Y-84888095D01*
X122342857Y-84888095D01*
X123104761Y-85126190D02*
X122819047Y-85126190D01*
X122961904Y-85126190D02*
X122961904Y-84626190D01*
X122914285Y-84697619D01*
X122866666Y-84745238D01*
X122819047Y-84769047D01*
X123390476Y-84840476D02*
X123342857Y-84816666D01*
X123319047Y-84792857D01*
X123295238Y-84745238D01*
X123295238Y-84721428D01*
X123319047Y-84673809D01*
X123342857Y-84650000D01*
X123390476Y-84626190D01*
X123485714Y-84626190D01*
X123533333Y-84650000D01*
X123557142Y-84673809D01*
X123580952Y-84721428D01*
X123580952Y-84745238D01*
X123557142Y-84792857D01*
X123533333Y-84816666D01*
X123485714Y-84840476D01*
X123390476Y-84840476D01*
X123342857Y-84864285D01*
X123319047Y-84888095D01*
X123295238Y-84935714D01*
X123295238Y-85030952D01*
X123319047Y-85078571D01*
X123342857Y-85102380D01*
X123390476Y-85126190D01*
X123485714Y-85126190D01*
X123533333Y-85102380D01*
X123557142Y-85078571D01*
X123580952Y-85030952D01*
X123580952Y-84935714D01*
X123557142Y-84888095D01*
X123533333Y-84864285D01*
X123485714Y-84840476D01*
%TO.C,R19*%
X121678571Y-74176190D02*
X121511904Y-73938095D01*
X121392857Y-74176190D02*
X121392857Y-73676190D01*
X121583333Y-73676190D01*
X121630952Y-73700000D01*
X121654761Y-73723809D01*
X121678571Y-73771428D01*
X121678571Y-73842857D01*
X121654761Y-73890476D01*
X121630952Y-73914285D01*
X121583333Y-73938095D01*
X121392857Y-73938095D01*
X122154761Y-74176190D02*
X121869047Y-74176190D01*
X122011904Y-74176190D02*
X122011904Y-73676190D01*
X121964285Y-73747619D01*
X121916666Y-73795238D01*
X121869047Y-73819047D01*
X122392857Y-74176190D02*
X122488095Y-74176190D01*
X122535714Y-74152380D01*
X122559523Y-74128571D01*
X122607142Y-74057142D01*
X122630952Y-73961904D01*
X122630952Y-73771428D01*
X122607142Y-73723809D01*
X122583333Y-73700000D01*
X122535714Y-73676190D01*
X122440476Y-73676190D01*
X122392857Y-73700000D01*
X122369047Y-73723809D01*
X122345238Y-73771428D01*
X122345238Y-73890476D01*
X122369047Y-73938095D01*
X122392857Y-73961904D01*
X122440476Y-73985714D01*
X122535714Y-73985714D01*
X122583333Y-73961904D01*
X122607142Y-73938095D01*
X122630952Y-73890476D01*
%TO.C,U1*%
X180969047Y-85276190D02*
X180969047Y-85680952D01*
X180992857Y-85728571D01*
X181016666Y-85752380D01*
X181064285Y-85776190D01*
X181159523Y-85776190D01*
X181207142Y-85752380D01*
X181230952Y-85728571D01*
X181254761Y-85680952D01*
X181254761Y-85276190D01*
X181754761Y-85776190D02*
X181469047Y-85776190D01*
X181611904Y-85776190D02*
X181611904Y-85276190D01*
X181564285Y-85347619D01*
X181516666Y-85395238D01*
X181469047Y-85419047D01*
%TO.C,U2*%
X158119047Y-85426190D02*
X158119047Y-85830952D01*
X158142857Y-85878571D01*
X158166666Y-85902380D01*
X158214285Y-85926190D01*
X158309523Y-85926190D01*
X158357142Y-85902380D01*
X158380952Y-85878571D01*
X158404761Y-85830952D01*
X158404761Y-85426190D01*
X158619047Y-85473809D02*
X158642857Y-85450000D01*
X158690476Y-85426190D01*
X158809523Y-85426190D01*
X158857142Y-85450000D01*
X158880952Y-85473809D01*
X158904761Y-85521428D01*
X158904761Y-85569047D01*
X158880952Y-85640476D01*
X158595238Y-85926190D01*
X158904761Y-85926190D01*
%TO.C,U8*%
X172669047Y-100476190D02*
X172669047Y-100880952D01*
X172692857Y-100928571D01*
X172716666Y-100952380D01*
X172764285Y-100976190D01*
X172859523Y-100976190D01*
X172907142Y-100952380D01*
X172930952Y-100928571D01*
X172954761Y-100880952D01*
X172954761Y-100476190D01*
X173264285Y-100690476D02*
X173216666Y-100666666D01*
X173192857Y-100642857D01*
X173169047Y-100595238D01*
X173169047Y-100571428D01*
X173192857Y-100523809D01*
X173216666Y-100500000D01*
X173264285Y-100476190D01*
X173359523Y-100476190D01*
X173407142Y-100500000D01*
X173430952Y-100523809D01*
X173454761Y-100571428D01*
X173454761Y-100595238D01*
X173430952Y-100642857D01*
X173407142Y-100666666D01*
X173359523Y-100690476D01*
X173264285Y-100690476D01*
X173216666Y-100714285D01*
X173192857Y-100738095D01*
X173169047Y-100785714D01*
X173169047Y-100880952D01*
X173192857Y-100928571D01*
X173216666Y-100952380D01*
X173264285Y-100976190D01*
X173359523Y-100976190D01*
X173407142Y-100952380D01*
X173430952Y-100928571D01*
X173454761Y-100880952D01*
X173454761Y-100785714D01*
X173430952Y-100738095D01*
X173407142Y-100714285D01*
X173359523Y-100690476D01*
%TO.C,U10*%
X166380952Y-96226190D02*
X166380952Y-96630952D01*
X166404761Y-96678571D01*
X166428571Y-96702380D01*
X166476190Y-96726190D01*
X166571428Y-96726190D01*
X166619047Y-96702380D01*
X166642857Y-96678571D01*
X166666666Y-96630952D01*
X166666666Y-96226190D01*
X167166666Y-96726190D02*
X166880952Y-96726190D01*
X167023809Y-96726190D02*
X167023809Y-96226190D01*
X166976190Y-96297619D01*
X166928571Y-96345238D01*
X166880952Y-96369047D01*
X167476190Y-96226190D02*
X167523809Y-96226190D01*
X167571428Y-96250000D01*
X167595238Y-96273809D01*
X167619047Y-96321428D01*
X167642857Y-96416666D01*
X167642857Y-96535714D01*
X167619047Y-96630952D01*
X167595238Y-96678571D01*
X167571428Y-96702380D01*
X167523809Y-96726190D01*
X167476190Y-96726190D01*
X167428571Y-96702380D01*
X167404761Y-96678571D01*
X167380952Y-96630952D01*
X167357142Y-96535714D01*
X167357142Y-96416666D01*
X167380952Y-96321428D01*
X167404761Y-96273809D01*
X167428571Y-96250000D01*
X167476190Y-96226190D01*
%TO.C,R22*%
X172028571Y-80476190D02*
X171861904Y-80238095D01*
X171742857Y-80476190D02*
X171742857Y-79976190D01*
X171933333Y-79976190D01*
X171980952Y-80000000D01*
X172004761Y-80023809D01*
X172028571Y-80071428D01*
X172028571Y-80142857D01*
X172004761Y-80190476D01*
X171980952Y-80214285D01*
X171933333Y-80238095D01*
X171742857Y-80238095D01*
X172219047Y-80023809D02*
X172242857Y-80000000D01*
X172290476Y-79976190D01*
X172409523Y-79976190D01*
X172457142Y-80000000D01*
X172480952Y-80023809D01*
X172504761Y-80071428D01*
X172504761Y-80119047D01*
X172480952Y-80190476D01*
X172195238Y-80476190D01*
X172504761Y-80476190D01*
X172695238Y-80023809D02*
X172719047Y-80000000D01*
X172766666Y-79976190D01*
X172885714Y-79976190D01*
X172933333Y-80000000D01*
X172957142Y-80023809D01*
X172980952Y-80071428D01*
X172980952Y-80119047D01*
X172957142Y-80190476D01*
X172671428Y-80476190D01*
X172980952Y-80476190D01*
%TO.C,R23*%
X173128571Y-89076190D02*
X172961904Y-88838095D01*
X172842857Y-89076190D02*
X172842857Y-88576190D01*
X173033333Y-88576190D01*
X173080952Y-88600000D01*
X173104761Y-88623809D01*
X173128571Y-88671428D01*
X173128571Y-88742857D01*
X173104761Y-88790476D01*
X173080952Y-88814285D01*
X173033333Y-88838095D01*
X172842857Y-88838095D01*
X173319047Y-88623809D02*
X173342857Y-88600000D01*
X173390476Y-88576190D01*
X173509523Y-88576190D01*
X173557142Y-88600000D01*
X173580952Y-88623809D01*
X173604761Y-88671428D01*
X173604761Y-88719047D01*
X173580952Y-88790476D01*
X173295238Y-89076190D01*
X173604761Y-89076190D01*
X173771428Y-88576190D02*
X174080952Y-88576190D01*
X173914285Y-88766666D01*
X173985714Y-88766666D01*
X174033333Y-88790476D01*
X174057142Y-88814285D01*
X174080952Y-88861904D01*
X174080952Y-88980952D01*
X174057142Y-89028571D01*
X174033333Y-89052380D01*
X173985714Y-89076190D01*
X173842857Y-89076190D01*
X173795238Y-89052380D01*
X173771428Y-89028571D01*
%TO.C,R24*%
X164728571Y-90326190D02*
X164561904Y-90088095D01*
X164442857Y-90326190D02*
X164442857Y-89826190D01*
X164633333Y-89826190D01*
X164680952Y-89850000D01*
X164704761Y-89873809D01*
X164728571Y-89921428D01*
X164728571Y-89992857D01*
X164704761Y-90040476D01*
X164680952Y-90064285D01*
X164633333Y-90088095D01*
X164442857Y-90088095D01*
X164919047Y-89873809D02*
X164942857Y-89850000D01*
X164990476Y-89826190D01*
X165109523Y-89826190D01*
X165157142Y-89850000D01*
X165180952Y-89873809D01*
X165204761Y-89921428D01*
X165204761Y-89969047D01*
X165180952Y-90040476D01*
X164895238Y-90326190D01*
X165204761Y-90326190D01*
X165633333Y-89992857D02*
X165633333Y-90326190D01*
X165514285Y-89802380D02*
X165395238Y-90159523D01*
X165704761Y-90159523D01*
%TO.C,R25*%
X166528571Y-94376190D02*
X166361904Y-94138095D01*
X166242857Y-94376190D02*
X166242857Y-93876190D01*
X166433333Y-93876190D01*
X166480952Y-93900000D01*
X166504761Y-93923809D01*
X166528571Y-93971428D01*
X166528571Y-94042857D01*
X166504761Y-94090476D01*
X166480952Y-94114285D01*
X166433333Y-94138095D01*
X166242857Y-94138095D01*
X166719047Y-93923809D02*
X166742857Y-93900000D01*
X166790476Y-93876190D01*
X166909523Y-93876190D01*
X166957142Y-93900000D01*
X166980952Y-93923809D01*
X167004761Y-93971428D01*
X167004761Y-94019047D01*
X166980952Y-94090476D01*
X166695238Y-94376190D01*
X167004761Y-94376190D01*
X167457142Y-93876190D02*
X167219047Y-93876190D01*
X167195238Y-94114285D01*
X167219047Y-94090476D01*
X167266666Y-94066666D01*
X167385714Y-94066666D01*
X167433333Y-94090476D01*
X167457142Y-94114285D01*
X167480952Y-94161904D01*
X167480952Y-94280952D01*
X167457142Y-94328571D01*
X167433333Y-94352380D01*
X167385714Y-94376190D01*
X167266666Y-94376190D01*
X167219047Y-94352380D01*
X167195238Y-94328571D01*
%TO.C,U11*%
X174330952Y-85526190D02*
X174330952Y-85930952D01*
X174354761Y-85978571D01*
X174378571Y-86002380D01*
X174426190Y-86026190D01*
X174521428Y-86026190D01*
X174569047Y-86002380D01*
X174592857Y-85978571D01*
X174616666Y-85930952D01*
X174616666Y-85526190D01*
X175116666Y-86026190D02*
X174830952Y-86026190D01*
X174973809Y-86026190D02*
X174973809Y-85526190D01*
X174926190Y-85597619D01*
X174878571Y-85645238D01*
X174830952Y-85669047D01*
X175592857Y-86026190D02*
X175307142Y-86026190D01*
X175450000Y-86026190D02*
X175450000Y-85526190D01*
X175402380Y-85597619D01*
X175354761Y-85645238D01*
X175307142Y-85669047D01*
%TD*%
M02*
